<svg width="48" height="48" viewBox="0 0 48 48" fill="none" xmlns="http://www.w3.org/2000/svg">
<g clip-path="url(#clip0)">
<path d="M11.4211 23.9293C12.0051 25.4476 13.9339 30.3436 15.3339 32.4435L15.4603 32.6347C16.4875 34.1922 18.2067 36.7995 23.9994 36.7995C29.7921 36.7995 31.5113 34.1923 32.5385 32.6347L32.6649 32.4435C34.0648 30.3436 35.9936 25.4476 36.5777 23.9293C37.6225 23.6693 38.3992 22.7237 38.3992 21.5997V18.3998C38.3992 17.3566 37.7304 16.467 36.7992 16.1366V11.9998C36.7992 8.84144 35.136 3.00718 28.9841 2.44394C28.9721 2.06632 28.8473 1.76238 28.7081 1.53757C27.9218 0.267184 25.7138 0 23.9994 0C9.76442 0 9.59961 13.4638 9.59961 13.5998C9.59961 14.0414 9.95717 14.3991 10.398 14.3991H10.3996C10.8404 14.3991 11.1979 14.0422 11.1995 13.6014C11.2011 13.111 11.3811 1.60001 23.9993 1.60001C26.2617 1.60001 27.1681 2.08957 27.3473 2.37915C27.3721 2.41994 27.4401 2.52953 27.2832 2.84237C27.1592 3.09033 27.1728 3.3848 27.3184 3.62076C27.4648 3.85598 27.7216 3.99998 27.9992 3.99998C35.0919 3.99998 35.1983 11.6742 35.1991 11.9998V16.7998C35.1991 17.2413 35.5567 17.5997 35.9991 17.5997C36.4406 17.5997 36.799 17.9589 36.799 18.3997V21.5997C36.799 22.0405 36.4406 22.3997 35.9991 22.3997C35.6655 22.3997 35.3671 22.6068 35.2494 22.9188C35.2263 22.982 32.8639 29.2604 31.3335 31.5555L31.2023 31.7539C30.2439 33.2083 28.9303 35.1995 23.9992 35.1995C19.0681 35.1995 17.7545 33.2083 16.7961 31.7539L16.665 31.5555C15.1346 29.2604 12.7723 22.982 12.749 22.9188C12.6314 22.6068 12.333 22.3997 11.9994 22.3997C11.5578 22.3997 11.1994 22.0405 11.1994 21.5997V18.3998C11.1994 18.1829 11.2859 17.9862 11.4266 17.8422C11.7162 18.4942 12.3098 19.0806 13.3065 19.1798L16.0433 21.2326C16.2561 22.791 17.5825 23.9998 19.1993 23.9998H20.7993C22.5641 23.9998 23.9992 22.5646 23.9992 20.7998C23.9992 22.5647 25.4344 23.9998 27.1991 23.9998H28.7992C30.4151 23.9998 31.7423 22.791 31.9551 21.2326L34.879 19.0398C35.2327 18.775 35.3047 18.2734 35.0391 17.9198C34.7742 17.5662 34.2727 17.4934 33.9191 17.7598L31.8799 19.2894C31.5752 18.3142 30.6743 17.5998 29.5991 17.5998H26.3992C25.076 17.5998 23.9992 18.6766 23.9992 19.9998C23.9992 18.6766 22.9224 17.5998 21.5993 17.5998H18.3993C17.3241 17.5998 16.4234 18.3142 16.1186 19.2894L14.5922 18.1446C15.2218 16.6231 15.7922 14.3726 15.9538 12.7927C18.4754 12.7479 25.7705 12.4399 29.016 10.4143C29.752 13.2558 32.1151 15.647 32.2336 15.7654C32.5463 16.0782 33.052 16.0782 33.3647 15.7654C33.6775 15.4526 33.6775 14.947 33.3647 14.6343C33.3351 14.6046 30.3992 11.6359 30.3992 8.79991C30.3992 8.44076 30.1592 8.12473 29.8128 8.02873C29.4696 7.93349 29.0976 8.07992 28.9136 8.38789C27.7488 10.3278 20.1929 11.1999 15.1994 11.1999C14.757 11.1999 14.3995 11.5583 14.3995 11.9998C14.3995 13.299 13.785 15.8918 13.1331 17.4878C12.8779 17.3342 12.8059 17.0478 12.7995 16.7998C12.7995 16.3582 12.442 15.9998 11.9996 15.9998C10.6764 15.9998 9.59961 17.0766 9.59961 18.3998V21.5997C9.59961 22.7237 10.3764 23.6693 11.4211 23.9293ZM25.5993 19.9997C25.5993 19.5589 25.9577 19.1997 26.3993 19.1997H29.5992C30.0408 19.1997 30.3992 19.5589 30.3992 19.9997V20.7997C30.3992 21.682 29.6816 22.3997 28.7992 22.3997H27.1991C26.3168 22.3997 25.5991 21.6821 25.5991 20.7997V19.9997H25.5993ZM17.5995 19.9997C17.5995 19.5589 17.9579 19.1997 18.3994 19.1997H21.5994C22.0409 19.1997 22.3993 19.5589 22.3993 19.9997V20.7997C22.3993 21.682 21.6818 22.3997 20.7993 22.3997H19.1993C18.3169 22.3997 17.5993 21.6821 17.5993 20.7997V19.9997H17.5995Z" fill="url(#paint0_linear)"/>
<path d="M27.9991 28.802C28 28.3612 27.6431 28.0021 27.2023 27.9996C27.1872 27.9996 25.7567 27.9836 24.3575 27.2844C24.1327 27.1716 23.8671 27.1716 23.6423 27.2844C22.2431 27.9836 20.8128 27.9996 20.8 27.9996C20.3576 27.9996 20 28.358 20 28.7996C20 29.2411 20.3576 29.5995 20.8 29.5995C20.8679 29.5995 22.3799 29.5907 23.9999 28.8827C25.6199 29.5907 27.1318 29.5995 27.1998 29.5995C27.6407 29.5995 27.9975 29.2427 27.9991 28.802Z" fill="url(#paint1_linear)"/>
<path d="M23.1984 30.3997C22.756 30.3997 22.3984 30.7581 22.3984 31.1996C22.3984 31.6412 22.756 31.9996 23.1984 31.9996H24.7984C25.2408 31.9996 25.5983 31.6412 25.5983 31.1996C25.5983 30.7581 25.2408 30.3997 24.7984 30.3997H23.1984Z" fill="url(#paint2_linear)"/>
<path d="M47.9748 47.005L47.1572 43.7467C45.9661 40.1716 40.3029 38.4324 29.8447 38.4324C29.7622 38.4324 29.6798 38.4324 29.5967 38.4332C29.2167 38.4341 28.8894 38.702 28.8151 39.0756L27.2151 47.0419C27.1279 47.4755 27.4087 47.897 27.8415 47.9842C28.2735 48.0682 28.6959 47.7898 28.7831 47.3571L30.2543 40.034C39.4158 40.0763 44.7325 41.5299 45.6229 44.1939L46.4229 47.3938C46.5141 47.757 46.8397 48.0002 47.1981 47.9994C47.2621 47.9994 47.3277 47.9922 47.3925 47.9754C47.8212 47.8683 48.082 47.4347 47.9748 47.005Z" fill="url(#paint3_linear)"/>
<path d="M19.1841 39.0427C19.1096 38.6683 18.7817 38.3995 18.4 38.3995C7.48899 38.3995 2.07388 40.0491 0.824301 43.805L0.0243433 47.005C-0.0836553 47.4345 0.177904 47.8681 0.60671 47.9753C0.671491 47.9921 0.737115 47.9993 0.801145 47.9993C1.15955 47.9993 1.48514 47.7569 1.57635 47.3937L2.35878 44.2522C3.29158 41.4547 8.32748 40.0627 17.745 40.0018L19.2162 47.3561C19.3018 47.789 19.7194 48.0713 20.157 47.9842C20.5898 47.897 20.8713 47.4754 20.7842 47.0425L19.1841 39.0427Z" fill="url(#paint4_linear)"/>
<path d="M23.9996 38.3995C22.6764 38.3995 21.5996 39.4763 21.5996 40.7994C21.5996 41.841 22.2708 42.7203 23.1996 43.0514V47.1993C23.1996 47.6408 23.5572 47.9992 23.9996 47.9992C24.442 47.9992 24.7995 47.6408 24.7995 47.1993V43.0522C25.7283 42.7203 26.3995 41.8411 26.3995 40.7994C26.3995 39.4763 25.3227 38.3995 23.9996 38.3995ZM23.9996 41.5994C23.558 41.5994 23.1996 41.2402 23.1996 40.7994C23.1996 40.3586 23.558 39.9995 23.9996 39.9995C24.4411 39.9995 24.7995 40.3586 24.7995 40.7994C24.7995 41.2402 24.4411 41.5994 23.9996 41.5994Z" fill="url(#paint5_linear)"/>
</g>
<defs>
<linearGradient id="paint0_linear" x1="23.9994" y1="0" x2="23.9994" y2="36.7995" gradientUnits="userSpaceOnUse">
<stop stop-color="#FF003D"/>
<stop offset="0.563536" stop-color="#FF0000"/>
<stop offset="1" stop-color="#FF3D00"/>
</linearGradient>
<linearGradient id="paint1_linear" x1="23.9996" y1="27.1998" x2="23.9996" y2="29.5995" gradientUnits="userSpaceOnUse">
<stop stop-color="#FF003D"/>
<stop offset="0.563536" stop-color="#FF0000"/>
<stop offset="1" stop-color="#FF3D00"/>
</linearGradient>
<linearGradient id="paint2_linear" x1="23.9984" y1="30.3997" x2="23.9984" y2="31.9996" gradientUnits="userSpaceOnUse">
<stop stop-color="#FF003D"/>
<stop offset="0.563536" stop-color="#FF0000"/>
<stop offset="1" stop-color="#FF3D00"/>
</linearGradient>
<linearGradient id="paint3_linear" x1="37.599" y1="38.4324" x2="37.599" y2="47.9994" gradientUnits="userSpaceOnUse">
<stop stop-color="#FF003D"/>
<stop offset="0.563536" stop-color="#FF0000"/>
<stop offset="1" stop-color="#FF3D00"/>
</linearGradient>
<linearGradient id="paint4_linear" x1="10.4" y1="38.3995" x2="10.4" y2="48" gradientUnits="userSpaceOnUse">
<stop stop-color="#FF003D"/>
<stop offset="0.563536" stop-color="#FF0000"/>
<stop offset="1" stop-color="#FF3D00"/>
</linearGradient>
<linearGradient id="paint5_linear" x1="23.9996" y1="38.3995" x2="23.9996" y2="47.9992" gradientUnits="userSpaceOnUse">
<stop stop-color="#FF003D"/>
<stop offset="0.563536" stop-color="#FF0000"/>
<stop offset="1" stop-color="#FF3D00"/>
</linearGradient>
<clipPath id="clip0">
<rect width="48" height="48" fill="white"/>
</clipPath>
</defs>
</svg>
