<svg xmlns="http://www.w3.org/2000/svg" viewBox="0 0 165.52 93"><defs><style>.cls-1{fill:#ff3501;}.cls-2{fill:none;stroke:#ff3501;stroke-miterlimit:10;stroke-width:3px;}</style></defs><title>Ресурс 332</title><g id="Шар_2" data-name="Шар 2"><g id="Шар_1-2" data-name="Шар 1"><path class="cls-1" d="M40,9.5H30a2,2,0,0,0,0,4H40a2,2,0,0,0,0-4Z"/><path class="cls-1" d="M40,23.5H20a2,2,0,1,0,0,4H40a2,2,0,1,0,0-4Z"/><path class="cls-1" d="M40,37.49H10a2,2,0,0,0,0,4H40a2,2,0,0,0,0-4Z"/><path class="cls-1" d="M40,51.5H2a2,2,0,0,0,0,4H40a2,2,0,0,0,0-4Z"/><path class="cls-1" d="M40,65.51H14a2,2,0,1,0,0,4H40a2,2,0,1,0,0-4Z"/><path class="cls-1" d="M40,79.5H26a2,2,0,0,0,0,4H40a2,2,0,0,0,0-4Z"/><circle class="cls-2" cx="85.28" cy="52.19" r="14.55"/><rect class="cls-2" x="73.61" y="18.48" width="76.96" height="0.01"/><rect class="cls-2" x="110.71" y="35.96" width="39.86" height="0.01"/><rect class="cls-2" x="124.37" y="53.46" width="26.19" height="0.01"/><path class="cls-2" d="M156.64,1.5H67.53c-4.08,0-7.38,3.77-7.38,8.42V71.36c0,4.64,3.3,8.41,7.38,8.41H77.68V64.87a14.27,14.27,0,0,0,15.75,0v14.9h63.21c4.08,0,7.38-3.77,7.38-8.41V9.92C164,5.27,160.72,1.5,156.64,1.5Z"/><path class="cls-2" d="M77.73,72V91.5h.7l7.17-7.17,7.17,7.17h.7V72"/></g></g></svg>