<svg xmlns="http://www.w3.org/2000/svg" viewBox="0 0 172.56 90"><defs><style>.cls-1{fill:#ff3501;}</style></defs><title>Ресурс 322</title><g id="Шар_2" data-name="Шар 2"><g id="Шар_1-2" data-name="Шар 1"><path class="cls-1" d="M107.46,9l2.74,2.27a1.66,1.66,0,0,0,1,.37,1.61,1.61,0,0,0,1.27-.6,1.64,1.64,0,0,0-.22-2.31l-2.74-2.27A1.65,1.65,0,0,0,107.46,9Zm45.39,35.77a4.53,4.53,0,0,0-1.2-5h0L139.31,28.62a6.6,6.6,0,0,0-4.42-1.7H125a4.57,4.57,0,0,0-4.56,4.57V43.13A4.57,4.57,0,0,0,125,47.7h23.61A4.52,4.52,0,0,0,152.85,44.77Zm-29.14-1.64V31.49A1.27,1.27,0,0,1,125,30.22h9.91a3.27,3.27,0,0,1,2.21.85l12.34,11.12a1.26,1.26,0,0,1,.34,1.4,1.24,1.24,0,0,1-1.19.81H125A1.27,1.27,0,0,1,123.71,43.13Zm21,40.34a6,6,0,1,0-6-6A6,6,0,0,0,144.68,83.47Zm0-8.65A2.68,2.68,0,1,1,142,77.5,2.68,2.68,0,0,1,144.68,74.82ZM122.77,6.46a1.65,1.65,0,0,0,1.65-1.65V1.65a1.65,1.65,0,0,0-3.3,0V4.81A1.65,1.65,0,0,0,122.77,6.46Zm11.52,5.18a1.66,1.66,0,0,0,1.05-.37L138.08,9A1.65,1.65,0,0,0,136,6.46l-2.74,2.27a1.64,1.64,0,0,0,1,2.91Zm-6.12,40.25a1.65,1.65,0,0,0,0,3.29H133a1.65,1.65,0,1,0,0-3.29ZM87.06,83.47a6,6,0,1,0-6-6A6,6,0,0,0,87.06,83.47Zm0-8.65a2.68,2.68,0,1,1-2.68,2.68A2.68,2.68,0,0,1,87.06,74.82Zm80.62-30.49-24.36-22a10.12,10.12,0,0,0-6.77-2.6h-4.3V15.34a6.53,6.53,0,0,0-6.52-6.51h-5.92a6.52,6.52,0,0,0-6.51,6.51v4.43H71.73A11.6,11.6,0,0,0,60.15,31.35V33a1.65,1.65,0,0,0,3.3,0V31.35a8.28,8.28,0,0,1,8.28-8.28H113.3V51.89H63.45V40.55a1.65,1.65,0,0,0-3.3,0V71.74a7.42,7.42,0,0,0,7.41,7.41h7.11a12.5,12.5,0,0,0,24.78,0H132.3a12.49,12.49,0,0,0,24.77,0h4.53a1.65,1.65,0,0,0,0-3.3h-4.53a12.49,12.49,0,0,0-24.77,0H99.45a12.5,12.5,0,0,0-24.78,0H67.56a4.11,4.11,0,0,1-4.11-4.11V70.53H69.7a3.39,3.39,0,0,0,3.38-3.38V61.77H111a5.6,5.6,0,0,0,5.59-5.6V23.07h20a6.83,6.83,0,0,1,4.57,1.75l24.36,22a11.49,11.49,0,0,1,3.78,8.51v3.18H163a3.39,3.39,0,0,0-3.38,3.38v5.3A3.39,3.39,0,0,0,163,70.53h6.25v1.21a4.13,4.13,0,0,1-1.71,3.34,1.65,1.65,0,1,0,1.92,2.68,7.44,7.44,0,0,0,3.09-6V55.29A14.78,14.78,0,0,0,167.68,44.33Zm-23,24a9.21,9.21,0,1,1-9.2,9.21A9.22,9.22,0,0,1,144.68,68.29Zm-57.62,0a9.21,9.21,0,1,1-9.21,9.21A9.22,9.22,0,0,1,87.06,68.29ZM69.79,67.15a.09.09,0,0,1-.09.09H63.45V61.77H69.7a.09.09,0,0,1,.09.08Zm43.51-11a2.3,2.3,0,0,1-2.3,2.3H63.45V55.18H113.3ZM129,19.77H116.59V15.34a3.22,3.22,0,0,1,3.22-3.22h5.92A3.22,3.22,0,0,1,129,15.34Zm40.31,47.47H163a.09.09,0,0,1-.09-.09v-5.3a.09.09,0,0,1,.09-.08h6.25ZM91.45,25.49H86.14A2.52,2.52,0,0,0,83.63,28V32.3H79.34a2.52,2.52,0,0,0-2.52,2.52v5.31a2.52,2.52,0,0,0,2.52,2.52h4.29v4.29a2.52,2.52,0,0,0,2.51,2.52h5.31A2.52,2.52,0,0,0,94,46.94V42.65h4.29a2.52,2.52,0,0,0,2.52-2.52V34.82a2.52,2.52,0,0,0-2.52-2.52H94V28A2.52,2.52,0,0,0,91.45,25.49Zm6,10.11v3.76H93a2.33,2.33,0,0,0-2.34,2.33v4.47H86.92V41.69a2.33,2.33,0,0,0-2.34-2.33H80.11V35.6h4.47a2.34,2.34,0,0,0,2.34-2.34V28.79h3.76v4.47A2.34,2.34,0,0,0,93,35.6Z"/><path class="cls-1" d="M40,8H30a2,2,0,0,0,0,4H40a2,2,0,0,0,0-4Z"/><path class="cls-1" d="M40,22H20a2,2,0,1,0,0,4H40a2,2,0,1,0,0-4Z"/><path class="cls-1" d="M40,36H10a2,2,0,0,0,0,4H40a2,2,0,0,0,0-4Z"/><path class="cls-1" d="M40,50H2a2,2,0,0,0,0,4H40a2,2,0,0,0,0-4Z"/><path class="cls-1" d="M40,64H14a2,2,0,1,0,0,4H40a2,2,0,1,0,0-4Z"/><path class="cls-1" d="M40,78H26a2,2,0,0,0,0,4H40a2,2,0,0,0,0-4Z"/></g></g></svg>