<svg width="48" height="48" viewBox="0 0 48 48" fill="none" xmlns="http://www.w3.org/2000/svg">
<path d="M10.4005 15.9997H37.5999C38.0414 15.9997 38.3998 15.6413 38.3998 15.1997V7.19984C38.3998 2.82631 35.8879 0 32 0H16.8004C12.6957 0 9.60059 3.09518 9.60059 7.19984V15.1996C9.60059 15.6413 9.95898 15.9997 10.4005 15.9997ZM11.2005 7.19984C11.2005 3.95513 13.5556 1.6 16.8003 1.6H32C35.5391 1.6 36.7998 4.49277 36.7998 7.19984V14.3997H11.2005V7.19984Z" fill="url(#paint0_linear)"/>
<path d="M34.3994 7.99995H27.9995C27.9715 7.99995 27.9475 8.01354 27.9203 8.01598C27.5547 6.1848 25.9363 4.80005 23.9996 4.80005C22.0628 4.80005 20.4445 6.1848 20.0789 8.01598C20.0517 8.01354 20.0277 7.99995 19.9996 7.99995H13.5998C13.1582 7.99995 12.7998 8.35834 12.7998 8.7999C12.7998 9.24145 13.1582 9.59985 13.5998 9.59985H19.9996C20.0277 9.59985 20.0517 9.58625 20.0789 9.58382C20.4445 11.415 22.0628 12.7997 23.9996 12.7997C25.9363 12.7997 27.5547 11.415 27.9203 9.58382C27.9475 9.58625 27.9715 9.59985 27.9995 9.59985H34.3994C34.841 9.59985 35.1994 9.24145 35.1994 8.7999C35.1994 8.35825 34.841 7.99995 34.3994 7.99995ZM23.9997 11.1998C22.6765 11.1998 21.5997 10.1231 21.5997 8.7999C21.5997 7.47674 22.6765 6.39995 23.9997 6.39995C25.3228 6.39995 26.3996 7.47674 26.3996 8.7999C26.3996 10.1231 25.3228 11.1998 23.9997 11.1998Z" fill="url(#paint1_linear)"/>
<path d="M11.3427 23.9076C11.7531 25.6523 13.1155 31.1146 14.5346 33.2433C15.5634 34.7857 17.9722 38.3992 24 38.3992C30.0278 38.3992 32.4366 34.7857 33.4653 33.2433C34.8845 31.1146 36.2468 25.6523 36.6573 23.9076C37.6621 23.6212 38.3997 22.6947 38.3997 21.5996V18.3997C38.3997 17.9581 38.0413 17.5997 37.5997 17.5997C37.1582 17.5997 36.7998 17.9581 36.7998 18.3997V21.5996C36.7998 22.0404 36.4406 22.3995 35.9998 22.3995C35.6246 22.3995 35.2998 22.6603 35.2191 23.026C35.2111 23.0635 34.7687 25.0299 34.1351 27.2091C34.1183 27.2082 34.1038 27.1995 34.0871 27.1995C34.0279 27.1995 28.1104 27.1819 24.2977 25.6563C24.1057 25.5811 23.8945 25.5811 23.7025 25.6563C19.8962 27.1795 13.9843 27.1995 13.9252 27.1995C13.9044 27.1995 13.8867 27.2099 13.866 27.2115C13.2316 25.0316 12.7892 23.0636 12.7813 23.026C12.7005 22.6604 12.3757 22.3996 12.0004 22.3996C11.5596 22.3996 11.2005 22.0405 11.2005 21.5997V18.3998C11.2005 17.9582 10.8421 17.5998 10.4005 17.5998C9.95898 17.5998 9.60059 17.9582 9.60059 18.3998V21.5997C9.6004 22.6947 10.3379 23.6212 11.3427 23.9076ZM24.0001 27.2571C27.4952 28.5619 32.2039 28.7627 33.6479 28.793C33.179 30.2266 32.6527 31.577 32.1343 32.3554C31.1727 33.7978 29.172 36.7993 24.0001 36.7993C18.8282 36.7993 16.8274 33.7978 15.8659 32.3554C15.3474 31.5778 14.821 30.2274 14.353 28.7939C15.781 28.7634 20.4962 28.565 24.0001 27.2571Z" fill="url(#paint2_linear)"/>
<path d="M47.9587 46.9461L47.1587 44.5461C46.1804 41.6142 43.6244 40.0175 32.9886 39.9991C32.3343 39.6727 29.9575 38.4831 29.9575 38.4831C29.6703 38.3407 29.3239 38.3823 29.0791 38.5919L24 42.9454L18.9209 38.5919C18.6769 38.3823 18.3289 38.3399 18.0425 38.4831L15.0114 39.9998C14.281 40.0007 13.5922 40.0102 12.9363 40.0263C12.8907 40.0183 12.8491 39.9991 12.8002 39.9991C12.7362 39.9991 12.6802 40.0215 12.6202 40.0351C3.98286 40.2823 1.7421 41.8486 0.841276 44.5462L0.0413256 46.9462C-0.09864 47.3653 0.128511 47.8181 0.547752 47.9582C0.967742 48.099 1.4197 47.871 1.55976 47.4518L2.35971 45.0518C2.79733 43.7414 3.38372 41.9959 12.0003 41.6583V41.7127C10.6243 42.0703 9.60033 43.3127 9.60033 44.7991C9.60033 46.5639 11.0355 47.999 12.8002 47.999C14.5649 47.999 16.0001 46.5638 16.0001 44.7991C16.0001 43.3127 14.9761 42.0704 13.6002 41.7127V41.6151C14.1098 41.6056 14.6346 41.5999 15.193 41.5999H15.2002C15.3242 41.5999 15.4474 41.5711 15.5577 41.5159L18.2833 40.152L23.2 44.3671V47.199C23.2 47.6406 23.5584 47.999 23.9999 47.999C24.4415 47.999 24.7999 47.6406 24.7999 47.199V44.367L29.7166 40.1519C31.7126 41.1495 32.4397 41.5063 32.7997 41.5751V41.5991C44.4883 41.5991 45.1538 43.5951 45.6403 45.0518L46.4403 47.4518C46.5523 47.787 46.8643 47.999 47.1994 47.999C47.2826 47.999 47.3683 47.9861 47.4523 47.9582C47.8714 47.8181 48.0987 47.3653 47.9587 46.9461ZM14.4002 44.799C14.4002 45.6813 13.6827 46.399 12.8002 46.399C11.9179 46.399 11.2002 45.6814 11.2002 44.799C11.2002 43.9165 11.9178 43.199 12.8002 43.199C13.6826 43.199 14.4002 43.9166 14.4002 44.799Z" fill="url(#paint3_linear)"/>
<path d="M26.3996 20.7996C25.958 20.7996 25.5996 21.158 25.5996 21.5995C25.5996 22.0411 25.958 22.3995 26.3996 22.3995H27.1995C27.1995 22.841 27.5579 23.1994 27.9995 23.1994C28.441 23.1994 28.7994 22.841 28.7994 22.3995H29.5994C30.0409 22.3995 30.3993 22.0411 30.3993 21.5995C30.3993 21.158 30.0409 20.7996 29.5994 20.7996H26.3996Z" fill="url(#paint4_linear)"/>
<path d="M18.3996 20.7996C17.958 20.7996 17.5996 21.158 17.5996 21.5995C17.5996 22.0411 17.958 22.3995 18.3996 22.3995H19.1995C19.1995 22.841 19.5579 23.1994 19.9995 23.1994C20.441 23.1994 20.7994 22.841 20.7994 22.3995H21.5994C22.0409 22.3995 22.3993 22.0411 22.3993 21.5995C22.3993 21.158 22.0409 20.7996 21.5994 20.7996H18.3996Z" fill="url(#paint5_linear)"/>
<defs>
<linearGradient id="paint0_linear" x1="24.0002" y1="0" x2="24.0002" y2="15.9997" gradientUnits="userSpaceOnUse">
<stop stop-color="#FF003D"/>
<stop offset="0.563536" stop-color="#FF0000"/>
<stop offset="1" stop-color="#FF3D00"/>
</linearGradient>
<linearGradient id="paint1_linear" x1="23.9996" y1="4.80005" x2="23.9996" y2="12.7997" gradientUnits="userSpaceOnUse">
<stop stop-color="#FF003D"/>
<stop offset="0.563536" stop-color="#FF0000"/>
<stop offset="1" stop-color="#FF3D00"/>
</linearGradient>
<linearGradient id="paint2_linear" x1="24.0001" y1="17.5997" x2="24.0001" y2="38.3992" gradientUnits="userSpaceOnUse">
<stop stop-color="#FF003D"/>
<stop offset="0.563536" stop-color="#FF0000"/>
<stop offset="1" stop-color="#FF3D00"/>
</linearGradient>
<linearGradient id="paint3_linear" x1="24" y1="38.3992" x2="24" y2="47.9998" gradientUnits="userSpaceOnUse">
<stop stop-color="#FF003D"/>
<stop offset="0.563536" stop-color="#FF0000"/>
<stop offset="1" stop-color="#FF3D00"/>
</linearGradient>
<linearGradient id="paint4_linear" x1="27.9995" y1="20.7996" x2="27.9995" y2="23.1994" gradientUnits="userSpaceOnUse">
<stop stop-color="#FF003D"/>
<stop offset="0.563536" stop-color="#FF0000"/>
<stop offset="1" stop-color="#FF3D00"/>
</linearGradient>
<linearGradient id="paint5_linear" x1="19.9995" y1="20.7996" x2="19.9995" y2="23.1994" gradientUnits="userSpaceOnUse">
<stop stop-color="#FF003D"/>
<stop offset="0.563536" stop-color="#FF0000"/>
<stop offset="1" stop-color="#FF3D00"/>
</linearGradient>
</defs>
</svg>
