<svg width="120" height="120" viewBox="0 0 120 120" fill="none" xmlns="http://www.w3.org/2000/svg">
<circle cx="60" cy="60" r="60" fill="#FFCEDA"/>
<g clip-path="url(#clip0)">
<path d="M49.5 26C63.031 26 74 36.969 74 50.5C74 64.031 63.031 75 49.5 75C35.969 75 25 64.031 25 50.5C25 36.969 35.969 26 49.5 26Z" fill="#FF003D"/>
<path d="M73.9999 50.4999C73.9999 64.0309 63.0309 74.9999 49.4999 74.9999C42.1964 74.9999 35.6394 71.8043 31.1523 66.7354C35.4757 70.5635 41.1604 72.8878 47.3878 72.8878C60.9188 72.8878 71.8878 61.9188 71.8878 48.3878C71.8878 42.1604 69.5635 36.4757 65.7354 32.1523C70.8043 36.6394 73.9999 43.1964 73.9999 50.4999Z" fill="#E84857"/>
<path d="M69.8931 36.9183C66.0058 34.3237 61.335 32.8114 56.3114 32.8114C36.6447 32.8114 25.169 54.7888 35.9183 70.8931C29.3361 66.501 25 59.0074 25 50.5C25 36.969 35.969 26 49.5 26C58.0074 26 65.501 30.3361 69.8931 36.9183Z" fill="#FF8D8D"/>
<path d="M49.5003 68.3468C59.3569 68.3468 67.3473 60.3564 67.3473 50.4998C67.3473 40.6432 59.3569 32.6528 49.5003 32.6528C39.6437 32.6528 31.6533 40.6432 31.6533 50.4998C31.6533 60.3564 39.6437 68.3468 49.5003 68.3468Z" fill="#F1FAFC"/>
<path d="M48.3053 51.6946L40.0154 43.4047C39.3555 42.7449 39.3555 41.675 40.0154 41.0152C40.6753 40.3553 41.7451 40.3553 42.4049 41.0152L47.8104 46.4207V43.1076C47.8104 42.1745 48.5668 41.418 49.5 41.418C50.4332 41.418 51.1897 42.1745 51.1897 43.1076V50.4999C51.1897 52.0021 49.3667 52.7565 48.3053 51.6946Z" fill="#4D4E59"/>
<path d="M36.6167 50.5002C36.6167 51.4337 35.8606 52.1899 34.9271 52.1899H31.7326C31.6298 51.107 31.624 49.9547 31.7326 48.8105H34.9271C35.8606 48.8105 36.6167 49.5667 36.6167 50.5002Z" fill="#7A96A8"/>
<path d="M51.1908 65.0732V68.2677C50.108 68.3705 48.9556 68.3763 47.8115 68.2677V65.0732C47.8115 64.1397 48.5676 63.3835 49.5012 63.3835C50.4347 63.3835 51.1908 64.1397 51.1908 65.0732Z" fill="#7A96A8"/>
<path d="M67.2689 52.1899H64.0744C63.1409 52.1899 62.3848 51.4337 62.3848 50.5002C62.3848 49.5667 63.1409 48.8105 64.0744 48.8105H67.2689C67.3717 49.8934 67.3775 51.0458 67.2689 52.1899Z" fill="#7A96A8"/>
<path d="M51.1908 32.7323V35.9268C51.1908 36.8604 50.4347 37.6165 49.5012 37.6165C48.5676 37.6165 47.8115 36.8604 47.8115 35.9268V32.7323C48.8944 32.6296 50.0467 32.6238 51.1908 32.7323Z" fill="#7A96A8"/>
<path d="M53.1122 33.0185C42.14 34.4494 33.4499 43.1395 32.0189 54.1117C29.4454 41.5956 40.4992 30.4251 53.1122 33.0185Z" fill="#C9EDF2"/>
</g>
<g clip-path="url(#clip1)">
<path d="M94.9766 91.0855C94.9766 91.6598 94.7851 92.1385 94.4022 92.5214C94.0193 92.8086 93.6364 93 93.0619 93H50.9391C50.4605 93 49.9818 92.8086 49.5988 92.5214C49.2158 92.1384 49.0244 91.6598 49.0244 91.0855V63.0354H94.9766V91.0855Z" fill="#FFD15C"/>
<path d="M94.4011 92.5215C94.0181 92.8087 93.6352 93.0001 93.0608 93.0001H50.938C50.4593 93.0001 49.9806 92.8086 49.5977 92.5215L71.9993 73.2791L94.4011 92.5215Z" fill="#F8B64C"/>
<path d="M94.9766 63.0353L88.4667 67.7263L73.245 78.64C72.4792 79.2144 71.4261 79.2144 70.6602 78.64L55.5343 67.7263L49.0244 63.0353L55.5343 58.3444L69.7029 48.1966L70.756 47.4308C71.5218 46.8564 72.5749 46.8564 73.3408 47.4308L74.3939 48.1966L81.191 53.0791L84.5416 55.4724L88.4667 58.3444L94.9766 63.0353Z" fill="#40596B"/>
<path d="M88.4656 54.1321V67.7262L73.2439 78.6399C72.4781 79.2143 71.425 79.2143 70.6591 78.6399L55.5332 67.7262V50.1112C55.5332 49.0581 56.3948 48.1965 57.4479 48.1965H82.4343L88.4656 54.1321Z" fill="#F2F2F2"/>
<path d="M82.5313 52.6003C82.5313 53.4619 83.2015 54.1321 84.063 54.1321H88.4668L82.5312 48.1965L82.5313 52.6003Z" fill="#CDD6E0"/>
<path d="M77.6487 67.439H79.1804C78.7018 68.4921 77.9358 69.258 76.8827 69.8323C75.7339 70.5024 74.298 70.7897 72.5748 70.7897C70.9473 70.7897 69.5113 70.5024 68.3624 69.9281C67.2136 69.3537 66.2563 68.5878 65.6819 67.439C65.1075 66.386 64.8203 65.1414 64.8203 63.8969C64.8203 62.4609 65.1075 61.2164 65.7777 59.9718C66.4478 58.7272 67.3094 57.8657 68.4582 57.2913C69.607 56.7169 70.9472 56.4297 72.3833 56.4297C73.6278 56.4297 74.7766 56.7169 75.7339 57.1955C76.6913 57.6742 77.4571 58.3444 77.9358 59.3017C78.4145 60.1633 78.7017 61.2164 78.7017 62.2695C78.7017 63.514 78.3187 64.6628 77.5529 65.7158C76.5955 67.0562 75.3509 67.6305 73.8192 67.6305C73.4363 67.6305 73.0534 67.5348 72.8619 67.439C72.6704 67.2476 72.4789 67.0561 72.4789 66.7689C71.9046 67.3433 71.2344 67.6305 70.4685 67.6305C69.6069 67.6305 68.9368 67.3433 68.4581 66.7689C67.8837 66.1946 67.5965 65.4286 67.5965 64.4713C67.5965 63.3225 67.8837 62.2694 68.5538 61.2163C69.3197 60.0675 70.3728 59.4931 71.6173 59.4931C72.4789 59.4931 73.149 59.8761 73.6278 60.5462L73.8192 59.6846H75.8297L74.6808 65.0456C74.5851 65.4286 74.5851 65.62 74.5851 65.7158C74.5851 65.8115 74.5851 65.9072 74.6808 66.003C74.7766 66.0987 74.7766 66.0987 74.8723 66.0987C75.0638 66.0987 75.4467 65.9072 75.8297 65.6201C76.3083 65.2371 76.787 64.7585 77.0742 64.0884C77.3615 63.4183 77.5529 62.7481 77.5529 62.078C77.5529 60.8334 77.0742 59.7803 76.2125 59.0145C75.3509 58.1529 74.1064 57.7699 72.4789 57.7699C71.1386 57.7699 69.9899 58.0571 69.0325 58.6315C68.0752 59.2059 67.4051 59.9718 66.9264 60.9292C66.4477 61.8865 66.2563 62.9396 66.2563 64.0884C66.2563 65.1415 66.5435 66.0988 67.0221 66.9604C67.5965 67.822 68.2667 68.4921 69.224 68.8751C70.1814 69.2581 71.2345 69.4495 72.479 69.4495C73.6278 69.4495 74.6809 69.258 75.5425 68.9708C76.4041 68.5878 77.0742 68.1091 77.6487 67.439ZM69.5113 64.3755C69.5113 65.0456 69.607 65.4286 69.8942 65.8115C70.1815 66.0987 70.4686 66.2901 70.8516 66.2901C71.1388 66.2901 71.4259 66.1944 71.6174 66.0986C71.8089 66.0029 72.0004 65.8114 72.1918 65.62C72.479 65.3328 72.6705 64.8542 72.8619 64.2797C73.0534 63.7053 73.1491 63.1309 73.1491 62.6523C73.1491 62.0779 73.0534 61.6949 72.7662 61.3119C72.4789 61.0247 72.1918 60.8333 71.8088 60.8333C71.4258 60.8333 70.9472 61.0248 70.66 61.3119C70.277 61.5992 69.9899 62.0778 69.7984 62.7479C69.607 63.3225 69.5113 63.8968 69.5113 64.3755Z" fill="#FF0000"/>
</g>
<defs>
<clipPath id="clip0">
<rect x="25" y="26" width="49" height="49" fill="white"/>
</clipPath>
<clipPath id="clip1">
<rect x="49" y="47" width="46" height="46" fill="white"/>
</clipPath>
</defs>
</svg>
