<svg width="120" height="120" viewBox="0 0 120 120" fill="none" xmlns="http://www.w3.org/2000/svg">
<circle cx="60" cy="60" r="60" fill="#FFCEDA"/>
<path d="M25.834 73.4426H33.1673V78.9426H25.834V73.4426Z" fill="#F0C087"/>
<path d="M58.834 73.4426H66.1673V78.9426H58.834V73.4426Z" fill="#F0C087"/>
<path d="M57 36.7757V42.2757C57 45.1931 55.8411 47.991 53.7782 50.0539C51.7153 52.1168 48.9174 53.2757 46 53.2757C43.0826 53.2757 40.2847 52.1168 38.2218 50.0539C36.1589 47.991 35 45.1931 35 42.2757V36.7757C37.0421 36.7817 39.0652 36.3839 40.953 35.6052C42.8408 34.8265 44.556 33.6822 46 32.2382V32.1924V32.2382C47.444 33.6822 49.1592 34.8265 51.047 35.6052C52.9348 36.3839 54.9579 36.7817 57 36.7757Z" fill="#F0C087"/>
<path d="M46.0007 53.2757C43.6958 53.2762 41.4499 52.5478 39.584 51.1948V56.0257L46.0007 64.2757L52.4173 56.0257V51.1948C50.5514 52.5478 48.3055 53.2762 46.0007 53.2757Z" fill="#F0C087"/>
<path d="M56.9998 37.3159L51.7656 42.5409L53.0673 43.8426L56.9998 39.9009V37.3159Z" fill="#B1E4F9"/>
<path d="M35 39.9009L38.9325 43.8426L40.2342 42.5409L35 37.3159V39.9009Z" fill="#B1E4F9"/>
<path d="M63.05 58.5279L52.4167 56.0254L46 64.2754L39.5833 56.0254L28.95 58.5279C27.5422 58.8584 26.2873 59.6548 25.3888 60.7879C24.4904 61.921 24.001 63.3243 24 64.7704V73.4421H33.1667V78.9421H58.8333V73.4421H68V64.7704C67.999 63.3243 67.5096 61.921 66.6111 60.7879C65.7127 59.6548 64.4578 58.8584 63.05 58.5279Z" fill="#3279EA"/>
<path d="M34.9997 42.2753V38.6086H34.083C33.3537 38.6086 32.6542 38.8984 32.1385 39.4141C31.6227 39.9298 31.333 40.6293 31.333 41.3586C31.333 42.088 31.6227 42.7875 32.1385 43.3032C32.6542 43.8189 33.3537 44.1086 34.083 44.1086H35.1647C35.0585 43.5032 35.0034 42.89 34.9997 42.2753Z" fill="#F0C087"/>
<path d="M45.9993 23.0254C42.5957 23.0254 39.3315 24.3775 36.9248 26.7842C34.5181 29.1909 33.166 32.4551 33.166 35.8587V38.7737C33.46 38.667 33.77 38.6112 34.0827 38.6087H34.9993V36.7754C37.0414 36.7814 39.0646 36.3836 40.9524 35.6049C42.8402 34.8262 44.5554 33.6819 45.9993 32.2379V32.1921V32.2379C47.4433 33.6819 49.1585 34.8262 51.0463 35.6049C52.9341 36.3836 54.9573 36.7814 56.9993 36.7754V38.6087H57.916C58.2287 38.6112 58.5387 38.667 58.8327 38.7737V35.8587C58.8327 32.4551 57.4806 29.1909 55.0739 26.7842C52.6672 24.3775 49.403 23.0254 45.9993 23.0254Z" fill="#5A4146"/>
<path d="M57.9166 38.6086H57V42.2753C56.9963 42.89 56.9411 43.5032 56.835 44.1086H57.9166C58.646 44.1086 59.3454 43.8189 59.8612 43.3032C60.3769 42.7875 60.6666 42.088 60.6666 41.3586C60.6666 40.6293 60.3769 39.9298 59.8612 39.4141C59.3454 38.8984 58.646 38.6086 57.9166 38.6086Z" fill="#F0C087"/>
<path d="M32.25 66.1086H34.0833V78.942H32.25V66.1086Z" fill="#7AADF9"/>
<path d="M57.916 66.1086H59.7493V78.942H57.916V66.1086Z" fill="#7AADF9"/>
<path d="M53.3337 42.2754H38.667V50.4612C40.6837 52.2651 43.2946 53.2623 46.0003 53.2623C48.7061 53.2623 51.3169 52.2651 53.3337 50.4612V42.2754Z" fill="#B1E4F9"/>
<g clip-path="url(#clip0)">
<path d="M90.6083 80.3865C89.3719 83.8103 87.502 86.7872 85.0499 89.2338C82.2588 92.0186 78.6039 94.2314 74.1868 95.8098C74.0419 95.8615 73.8906 95.9038 73.7387 95.935C73.5379 95.9755 73.3337 95.9974 73.1312 96.0002H73.0915C72.8757 96.0002 72.6588 95.978 72.4437 95.935C72.2917 95.9038 72.1426 95.8615 71.9983 95.8109C67.576 94.2349 63.9166 92.0232 61.1226 89.2385C58.6695 86.7919 56.8 83.8167 55.5653 80.393C53.3203 74.168 53.448 67.3105 53.5508 61.7998L53.5526 61.7152C53.5733 61.2601 53.5866 60.7821 53.594 60.2543C53.6316 57.6628 55.6481 55.5189 58.1848 55.3744C63.4737 55.0728 67.5651 53.3104 71.0609 49.8289L71.0914 49.8002C71.6719 49.2562 72.4033 48.9895 73.1312 49.0006C73.8331 49.0099 74.5322 49.2763 75.092 49.8002L75.1218 49.8289C78.6183 53.3104 82.7097 55.0728 87.9986 55.3744C90.5353 55.5189 92.5518 57.6628 92.5894 60.2543C92.5968 60.7857 92.6101 61.263 92.6308 61.7152L92.6319 61.751C92.7343 67.2721 92.8614 74.1433 90.6083 80.3865Z" fill="#86D7F9"/>
<path d="M90.6079 80.3867C89.3715 83.8104 87.5016 86.7874 85.0495 89.234C82.2584 92.0187 78.6036 94.2315 74.1865 95.81C74.0416 95.8616 73.8903 95.9039 73.7384 95.9351C73.5376 95.9757 73.3334 95.9975 73.1309 96.0004V49.0007C73.8328 49.0101 74.5319 49.2765 75.0916 49.8004L75.1215 49.8291C78.618 53.3105 82.7094 55.073 87.9982 55.3745C90.5349 55.519 92.5515 57.663 92.589 60.2545C92.5964 60.7859 92.6098 61.2632 92.6305 61.7153L92.6315 61.7512C92.734 67.2723 92.861 74.1434 90.6079 80.3867Z" fill="#48AFCC"/>
<path d="M84.5548 72.5003C84.5548 78.9451 79.4333 84.1911 73.1309 84.2141H73.0905C66.7695 84.2141 61.626 78.9591 61.626 72.5003C61.626 66.0419 66.7695 60.7869 73.0905 60.7869H73.1309C79.4333 60.8098 84.5548 66.0559 84.5548 72.5003Z" fill="white"/>
<path d="M84.5547 72.5003C84.5547 78.9451 79.4333 84.1911 73.1309 84.2141V60.7869C79.4333 60.8098 84.5547 66.0559 84.5547 72.5003Z" fill="#E1EBF0"/>
<g clip-path="url(#clip1)">
<path d="M79.9962 71.4149C80.0473 72.0765 79.5818 72.6639 78.9569 72.7266C78.4784 72.7745 78.0456 72.5009 77.8457 72.0736L77.2786 72.1236L76.8504 72.3302C76.7524 72.3773 76.6865 72.4709 76.6715 72.5784C76.6311 72.8682 76.5577 73.1473 76.4557 73.4125C76.421 73.5023 76.4271 73.6026 76.4742 73.6864L76.6267 73.9591L77.0509 74.2437C77.2745 74.1582 77.5348 74.1787 77.7489 74.3223C78.1118 74.5659 78.1988 75.0671 77.9289 75.4199C77.6966 75.7239 77.2647 75.8074 76.9359 75.6121C76.7264 75.4878 76.5999 75.2815 76.569 75.0611L76.0989 74.7459L75.803 74.7098C75.7013 74.6973 75.6002 74.7323 75.5262 74.8031C75.2766 75.0409 74.9946 75.2451 74.6881 75.4087C74.5849 75.4636 74.5188 75.569 74.5115 75.6854L74.474 76.2847L74.66 77.0229C74.9767 77.1113 75.2385 77.3623 75.3246 77.7039C75.4546 78.2202 75.1339 78.744 74.6109 78.8604C74.1391 78.9656 73.6552 78.6905 73.5052 78.2309C73.3885 77.872 73.4957 77.501 73.7424 77.2586L73.5555 76.5161L73.2669 76.0521C73.1894 75.9276 73.0525 75.8539 72.9057 75.8542C72.9048 75.8542 72.9043 75.8542 72.9034 75.8542C72.6506 75.8542 72.4033 75.829 72.164 75.7819C72.0216 75.7536 71.8745 75.7987 71.7746 75.9042L71.3932 76.3066L70.9662 77.1925C71.0661 77.3956 71.0751 77.6409 70.9694 77.8607C70.7792 78.2548 70.2944 78.4114 69.907 78.1936C69.5753 78.0066 69.4317 77.5941 69.5762 77.2416C69.6747 77.0012 69.879 76.8406 70.1101 76.7868L70.5397 75.8952L70.6241 75.2968C70.6394 75.1865 70.5972 75.0752 70.5105 75.0053C70.1687 74.728 69.8758 74.3931 69.6467 74.0152C69.5897 73.9213 69.4875 73.8644 69.3777 73.8635L68.7802 73.8577L68.1261 74.0634C68.0801 74.4702 67.8016 74.8317 67.3861 74.9623C66.8279 75.1379 66.2333 74.8311 66.0522 74.2764C65.871 73.7219 66.177 73.1155 66.7309 72.9323C67.1186 72.804 67.526 72.9106 67.8016 73.1727L68.4959 72.9543L69.0029 72.5928C69.0784 72.5394 69.1185 72.4498 69.111 72.3579C69.1026 72.2559 69.0983 72.1531 69.0983 72.0491C69.0983 71.4839 69.2225 70.9474 69.4444 70.4649C69.4768 70.3941 69.4759 70.3126 69.4418 70.2427L69.2916 69.9356L68.8839 69.6279C68.6557 69.701 68.3971 69.666 68.1914 69.5109C67.8423 69.2474 67.7834 68.7421 68.0723 68.4049C68.3211 68.1145 68.7571 68.055 69.0746 68.2682C69.2768 68.404 69.3918 68.6167 69.4103 68.8386L69.8622 69.1795L70.3175 69.2607C70.6489 68.953 71.0352 68.7036 71.4597 68.5288L71.5666 67.8793L71.4316 67.2085C71.0323 67.1056 70.7082 66.7996 70.6209 66.3917C70.4978 65.8153 70.8939 65.2539 71.5059 65.138C72.1175 65.0222 72.7133 65.3952 72.8364 65.9716C72.9285 66.4029 72.73 66.8256 72.3677 67.0597L72.4952 67.6924L72.8081 68.1917C72.8286 68.2243 72.8644 68.244 72.9028 68.244H72.9034C73.6199 68.244 74.2908 68.4433 74.8637 68.7894C74.8952 68.8082 74.9339 68.8108 74.9672 68.7952L75.4572 68.5681L76.0293 67.9493C75.9949 67.7274 76.0581 67.4922 76.2225 67.3145C76.5196 66.9935 77.0281 66.9854 77.3349 67.3064C77.6039 67.5881 77.6143 68.0374 77.3589 68.3315C77.1936 68.5219 76.9564 68.6097 76.7247 68.5924L76.1526 69.2113L75.9668 69.7111C75.9538 69.7458 75.9596 69.7845 75.9813 69.8145C76.2069 70.1243 76.3869 70.4692 76.5112 70.8396C76.5456 70.9413 76.6265 71.0205 76.7299 71.0497L77.1951 71.18L77.7995 71.1265C77.9477 70.6992 78.3178 70.3759 78.7723 70.3303C79.3972 70.2676 79.9453 70.7532 79.9962 71.4149Z" fill="#FF003D"/>
<path d="M72.9035 74.8666C74.4596 74.8666 75.7211 73.6051 75.7211 72.049C75.7211 70.4929 74.4596 69.2314 72.9035 69.2314C71.3474 69.2314 70.0859 70.4929 70.0859 72.049C70.0859 73.6051 71.3474 74.8666 72.9035 74.8666Z" fill="#F58A97"/>
<path d="M70.9447 72.049C70.9447 70.6389 71.9806 69.4707 73.3329 69.2639C73.1929 69.2425 73.0495 69.2314 72.9035 69.2314C71.3474 69.2314 70.0859 70.4929 70.0859 72.049C70.0859 73.6052 71.3474 74.8666 72.9035 74.8666C73.0495 74.8666 73.1929 74.8555 73.3329 74.8341C71.9806 74.6273 70.9447 73.4591 70.9447 72.049Z" fill="#F07281"/>
<path d="M68.1627 66.9268C68.6059 66.9268 68.9651 66.5675 68.9651 66.1244C68.9651 65.6813 68.6059 65.322 68.1627 65.322C67.7196 65.322 67.3604 65.6813 67.3604 66.1244C67.3604 66.5675 67.7196 66.9268 68.1627 66.9268Z" fill="#FF003D"/>
<path d="M67.9431 77.2308C68.2358 77.2308 68.473 76.9936 68.473 76.7009C68.473 76.4082 68.2358 76.1709 67.9431 76.1709C67.6504 76.1709 67.4131 76.4082 67.4131 76.7009C67.4131 76.9936 67.6504 77.2308 67.9431 77.2308Z" fill="#FF003D"/>
<path d="M77.6742 78.352C78.1053 78.352 78.4548 78.0025 78.4548 77.5714C78.4548 77.1403 78.1053 76.7908 77.6742 76.7908C77.243 76.7908 76.8936 77.1403 76.8936 77.5714C76.8936 78.0025 77.243 78.352 77.6742 78.352Z" fill="#FF003D"/>
<path d="M72.0383 72C72.4402 72 72.7661 71.6741 72.7661 71.2722C72.7661 70.8703 72.4402 70.5444 72.0383 70.5444C71.6364 70.5444 71.3105 70.8703 71.3105 71.2722C71.3105 71.6741 71.6364 72 72.0383 72Z" fill="#FF003D"/>
<path d="M72.6233 74.0281C72.8969 74.0281 73.1186 73.8063 73.1186 73.5327C73.1186 73.2591 72.8969 73.0374 72.6233 73.0374C72.3497 73.0374 72.1279 73.2591 72.1279 73.5327C72.1279 73.8063 72.3497 74.0281 72.6233 74.0281Z" fill="#FF003D"/>
<path d="M74.1777 72.465C74.4074 72.465 74.5936 72.2787 74.5936 72.049C74.5936 71.8193 74.4074 71.6331 74.1777 71.6331C73.948 71.6331 73.7617 71.8193 73.7617 72.049C73.7617 72.2787 73.948 72.465 74.1777 72.465Z" fill="#FF003D"/>
</g>
</g>
<defs>
<clipPath id="clip0">
<rect x="50" y="49" width="46" height="47" fill="white"/>
</clipPath>
<clipPath id="clip1">
<rect x="66" y="65" width="14" height="14" fill="white"/>
</clipPath>
</defs>
</svg>
