<svg width="120" height="120" viewBox="0 0 120 120" fill="none" xmlns="http://www.w3.org/2000/svg">
<circle cx="60" cy="60" r="60" fill="#FFCEDA"/>
<g clip-path="url(#clip0)">
<path d="M97.8087 85H35.1042C34.6389 85 34.2609 84.6244 34.2579 84.159L34.1885 73.1232C34.1855 72.6537 34.5654 72.2716 35.0349 72.2716H36.2111C36.6785 72.2716 37.0575 71.8927 37.0575 71.4252V65.4372C37.0575 65.054 37.4156 64.7639 37.7875 64.8561C39.1034 65.1826 40.0785 66.3717 40.0785 67.7884C40.0785 66.3715 41.0537 65.1826 42.3695 64.8561C42.7414 64.7639 43.0995 65.054 43.0995 65.4372V71.4254C43.0995 71.8927 43.4784 72.2717 43.9459 72.2717H45.7616C46.229 72.2717 46.608 71.8929 46.608 71.4254V65.4372C46.608 65.054 46.9661 64.7639 47.338 64.8561C48.6539 65.1826 49.629 66.3717 49.629 67.7884C49.629 66.3715 50.6042 65.1826 51.92 64.8561C52.2919 64.7639 52.65 65.054 52.65 65.4372V71.4254C52.65 71.8927 53.0289 72.2717 53.4964 72.2717H54.8589H77.1317H78.4942C78.9616 72.2717 79.3406 71.8929 79.3406 71.4254V65.4372C79.3406 65.054 79.6987 64.7639 80.0706 64.8561C81.3865 65.1826 82.3616 66.3717 82.3616 67.7884C82.3616 66.3715 83.3369 65.1826 84.6526 64.8561C85.0245 64.7639 85.3826 65.054 85.3826 65.4372V71.4254C85.3826 71.8927 85.7615 72.2717 86.229 72.2717H88.0447C88.5121 72.2717 88.8911 71.8929 88.8911 71.4254V65.4372C88.8911 65.054 89.2492 64.7639 89.6211 64.8561C90.937 65.1826 91.9121 66.3717 91.9121 67.7884C91.9121 66.3715 92.8874 65.1826 94.2031 64.8561C94.575 64.7639 94.9331 65.054 94.9331 65.4372V71.4254C94.9331 71.8927 95.312 72.2717 95.7795 72.2717H97.8075" fill="#D14E67"/>
<path d="M61.9336 52.9539V40.9814H70.3331V52.9539" fill="#BA3649"/>
<path d="M61.9336 52.9539V40.9814H64.1565V52.9539" fill="#AA3047"/>
<path d="M69.4631 40.4382L66.1324 23.5693L62.8018 40.4382" fill="#4A8C41"/>
<path d="M66.0954 40.4382L66.1324 23.5693L62.8018 40.4382" fill="#376B2D"/>
<path d="M71.7122 52.9548H60.5547V64.8089H71.7122V52.9548Z" fill="#BA3649"/>
<path d="M63.0913 52.9548H60.5547V64.8089H63.0913V52.9548Z" fill="#AA3047"/>
<path d="M66.1343 62.6655C63.8686 62.6655 62.0254 60.8223 62.0254 58.5566C62.0254 56.291 63.8686 54.4478 66.1343 54.4478C68.3998 54.4478 70.243 56.291 70.243 58.5566C70.243 60.8223 68.3998 62.6655 66.1343 62.6655ZM66.1343 56.397C64.9434 56.397 63.9746 57.3658 63.9746 58.5566C63.9746 59.7475 64.9434 60.7163 66.1343 60.7163C67.325 60.7163 68.2938 59.7475 68.2938 58.5566C68.2938 57.3658 67.325 56.397 66.1343 56.397Z" fill="#D14E67"/>
<path d="M74.1576 64.8088H58.0479V85.0003H74.1576V64.8088Z" fill="#BA3649"/>
<path d="M60.5182 64.8088H58.0479V85.0003H60.5182V64.8088Z" fill="#AA3047"/>
<path d="M69.4021 84.9897V80.6285C69.4021 79.4511 68.7644 78.3661 67.7358 77.7931L67.7351 77.7926C66.7529 77.2454 65.5578 77.2456 64.5757 77.793C63.5474 78.3661 62.9102 79.4508 62.9102 80.628V84.9994" fill="#F2D6BD"/>
<path d="M64.6699 49.4791C64.1317 49.4791 63.6953 49.0428 63.6953 48.5045V43.2298C63.6953 42.6915 64.1317 42.2551 64.6699 42.2551C65.2082 42.2551 65.6446 42.6915 65.6446 43.2298V48.5045C65.6446 49.0428 65.2082 49.4791 64.6699 49.4791Z" fill="#59212C"/>
<path d="M67.5967 49.4791C67.0584 49.4791 66.6221 49.0428 66.6221 48.5045V43.2298C66.6221 42.6915 67.0584 42.2551 67.5967 42.2551C68.1349 42.2551 68.5713 42.6915 68.5713 43.2298V48.5045C68.5713 49.0428 68.1349 49.4791 67.5967 49.4791Z" fill="#59212C"/>
<path d="M60.999 73.3493C60.4608 73.3493 60.0244 72.9129 60.0244 72.3747V68.4204C60.0244 67.8822 60.4608 67.4458 60.999 67.4458C61.5373 67.4458 61.9737 67.8822 61.9737 68.4204V72.3747C61.9737 72.9129 61.5373 73.3493 60.999 73.3493Z" fill="#59212C"/>
<path d="M64.2949 73.3493C63.7567 73.3493 63.3203 72.9129 63.3203 72.3747V68.4204C63.3203 67.8822 63.7567 67.4458 64.2949 67.4458C64.8332 67.4458 65.2696 67.8822 65.2696 68.4204V72.3747C65.2696 72.9129 64.8332 73.3493 64.2949 73.3493Z" fill="#59212C"/>
<path d="M67.5938 73.3493C67.0555 73.3493 66.6191 72.9129 66.6191 72.3747V68.4204C66.6191 67.8822 67.0555 67.4458 67.5938 67.4458C68.132 67.4458 68.5684 67.8822 68.5684 68.4204V72.3747C68.5684 72.9129 68.132 73.3493 67.5938 73.3493Z" fill="#59212C"/>
<path d="M70.8926 73.3493C70.3543 73.3493 69.918 72.9129 69.918 72.3747V68.4204C69.918 67.8822 70.3543 67.4458 70.8926 67.4458C71.4308 67.4458 71.8672 67.8822 71.8672 68.4204V72.3747C71.8672 72.9129 71.4308 73.3493 70.8926 73.3493Z" fill="#59212C"/>
<path d="M73.7185 73.3482H58.1729C57.6346 73.3482 57.1982 72.9118 57.1982 72.3736C57.1982 71.8353 57.6346 71.3989 58.1729 71.3989H73.7185C74.2568 71.3989 74.6931 71.8353 74.6931 72.3736C74.6931 72.9118 74.2568 73.3482 73.7185 73.3482Z" fill="#D14E67"/>
<path d="M67.0303 25.7084C66.7477 25.7084 66.468 25.5859 66.2759 25.3515L66.1333 25.1774L65.9904 25.3515C65.6632 25.7509 65.0814 25.8255 64.6638 25.5221C64.2463 25.2188 64.1377 24.6423 64.4163 24.2078L64.5378 24.0182L64.3282 23.9364C63.8474 23.7485 63.5964 23.2184 63.7559 22.7275C63.9155 22.2365 64.4305 21.9551 64.9295 22.0857L65.1473 22.1426L65.1604 21.918C65.1904 21.4025 65.617 21 66.1334 21C66.6497 21 67.0763 21.4026 67.1063 21.9179L67.1194 22.1425L67.3372 22.0856C67.8363 21.955 68.3513 22.2364 68.5108 22.7274C68.6704 23.2184 68.4193 23.7485 67.9385 23.9362L67.7289 24.0181L67.8504 24.2076C68.129 24.6421 68.0204 25.2186 67.6028 25.522C67.4302 25.6475 67.2295 25.7084 67.0303 25.7084Z" fill="#FF003D"/>
<path d="M63.8858 84.9998H61.9365V80.6285C61.9365 79.0991 62.7664 77.6868 64.1024 76.9423C65.3884 76.2255 66.9241 76.2253 68.2104 76.9418C68.2133 76.9435 68.2163 76.945 68.2191 76.9466C69.551 77.6921 70.3778 79.1023 70.3778 80.6289V84.9902H68.4284V80.6289C68.4284 79.8058 67.9816 79.0456 67.2626 78.6451C67.2603 78.6439 67.258 78.6425 67.2556 78.6413C66.5646 78.2593 65.7411 78.2604 65.0511 78.6449C64.3323 79.0455 63.8858 79.8056 63.8858 80.6285V84.9998Z" fill="#D14E67"/>
<path d="M72.6012 53.93H59.669C59.1307 53.93 58.6943 53.4936 58.6943 52.9554C58.6943 52.4171 59.1307 51.9807 59.669 51.9807H72.6012C73.1394 51.9807 73.5758 52.4171 73.5758 52.9554C73.5758 53.4936 73.1394 53.93 72.6012 53.93Z" fill="#D14E67"/>
<path d="M74.4266 65.7827H57.8418C57.3036 65.7827 56.8672 65.3464 56.8672 64.8081C56.8672 64.2699 57.3036 63.8335 57.8418 63.8335H74.4266C74.9648 63.8335 75.4012 64.2699 75.4012 64.8081C75.4012 65.3464 74.9648 65.7827 74.4266 65.7827Z" fill="#D14E67"/>
<path d="M59.8371 64.8081C59.8371 64.2699 60.2734 63.8335 60.8117 63.8335H57.8418C57.3036 63.8335 56.8672 64.2699 56.8672 64.8081C56.8672 65.3464 57.3036 65.7827 57.8418 65.7827H60.8117C60.2734 65.7827 59.8371 65.3464 59.8371 64.8081Z" fill="#BC425F"/>
<path d="M60.1671 72.375C60.1671 71.8368 60.6035 71.4004 61.1418 71.4004H58.1719C57.6336 71.4004 57.1973 71.8368 57.1973 72.375C57.1973 72.9133 57.6336 73.3496 58.1719 73.3496H61.1418C60.6035 73.3496 60.1671 72.9133 60.1671 72.375Z" fill="#BC425F"/>
<path d="M61.6642 52.9554C61.6642 52.4171 62.1006 51.9807 62.6388 51.9807H59.669C59.1307 51.9807 58.6943 52.4171 58.6943 52.9554C58.6943 53.4936 59.1307 53.93 59.669 53.93H62.6388C62.1005 53.93 61.6642 53.4936 61.6642 52.9554Z" fill="#BC425F"/>
<path d="M67.171 77.3833H65.2217V84.9996H67.171V77.3833Z" fill="#D14E67"/>
<path d="M82.7354 79.772H80.7861C80.2479 79.772 79.8115 79.3356 79.8115 78.7974C79.8115 78.2591 80.2479 77.8228 80.7861 77.8228H82.7354C83.2736 77.8228 83.71 78.2591 83.71 78.7974C83.71 79.3356 83.2736 79.772 82.7354 79.772Z" fill="#BA3649"/>
<path d="M88.712 81.7217H86.7627C86.2245 81.7217 85.7881 81.2853 85.7881 80.7471C85.7881 80.2088 86.2245 79.7725 86.7627 79.7725H88.712C89.2502 79.7725 89.6866 80.2088 89.6866 80.7471C89.6866 81.2853 89.2502 81.7217 88.712 81.7217Z" fill="#BA3649"/>
<path d="M42.0614 78.9927H40.1123C39.5741 78.9927 39.1377 78.5563 39.1377 78.0181C39.1377 77.4798 39.5741 77.0435 40.1123 77.0435H42.0616C42.5998 77.0435 43.0362 77.4798 43.0362 78.0181C43.0362 78.5563 42.5997 78.9927 42.0614 78.9927Z" fill="#BA3649"/>
<path d="M48.9502 81.4617H47.001C46.4627 81.4617 46.0264 81.0253 46.0264 80.4871C46.0264 79.9488 46.4627 79.5125 47.001 79.5125H48.9502C49.4885 79.5125 49.9249 79.9488 49.9249 80.4871C49.9249 81.0253 49.4885 81.4617 48.9502 81.4617Z" fill="#BA3649"/>
<path d="M70.3332 49.855H61.9336C61.3954 49.855 60.959 49.4186 60.959 48.8804C60.959 48.3421 61.3954 47.9058 61.9336 47.9058H70.3332C70.8715 47.9058 71.3079 48.3421 71.3079 48.8804C71.3079 49.4186 70.8716 49.855 70.3332 49.855Z" fill="#D14E67"/>
<path d="M70.3332 41.7891H61.9336C61.3954 41.7891 60.959 41.3527 60.959 40.8145C60.959 40.2762 61.3954 39.8398 61.9336 39.8398H70.3332C70.8715 39.8398 71.3079 40.2762 71.3079 40.8145C71.3079 41.3527 70.8716 41.7891 70.3332 41.7891Z" fill="#D14E67"/>
<path d="M66.1344 61.6909C67.8654 61.6909 69.2687 60.2876 69.2687 58.5565C69.2687 56.8254 67.8654 55.4221 66.1344 55.4221C64.4033 55.4221 63 56.8254 63 58.5565C63 60.2876 64.4033 61.6909 66.1344 61.6909Z" fill="#FFCD00"/>
<path d="M67.9672 59.1416H66.1326C65.8097 59.1416 65.5479 58.8797 65.5479 58.5568V56.7222C65.5479 56.3993 65.8097 56.1375 66.1326 56.1375C66.4555 56.1375 66.7173 56.3993 66.7173 56.7222V57.9721H67.9672C68.2901 57.9721 68.552 58.2339 68.552 58.5568C68.552 58.8797 68.2901 59.1416 67.9672 59.1416Z" fill="#59212C"/>
<path d="M63.9279 48.8804C63.9279 48.3421 64.3643 47.9058 64.9025 47.9058H61.9326C61.3944 47.9058 60.958 48.3421 60.958 48.8804C60.958 49.4186 61.3944 49.855 61.9326 49.855H64.9025C64.3641 49.855 63.9279 49.4186 63.9279 48.8804Z" fill="#BC425F"/>
<path d="M63.9279 40.8145C63.9279 40.2762 64.3643 39.8398 64.9025 39.8398H61.9326C61.3944 39.8398 60.958 40.2762 60.958 40.8145C60.958 41.3527 61.3944 41.7891 61.9326 41.7891H64.9025C64.3641 41.7891 63.9279 41.3527 63.9279 40.8145Z" fill="#BC425F"/>
</g>
<g clip-path="url(#clip1)">
<path d="M32.79 78.7305C34.2577 77.8081 34.0935 75.0627 34.0935 74.4221H45.906C45.906 75.0627 45.724 77.8081 47.1915 78.7305L39.9998 86.594L32.79 78.7305Z" fill="#FFDDAE"/>
<path d="M44.5937 81.469L47.1918 78.7305C45.7241 77.8082 45.9063 75.0627 45.9063 74.4221H34.0938C34.9412 76.8008 40.5469 80.8818 44.5937 81.469Z" fill="#FFDDAE"/>
<path d="M49.1874 66.0938C49.1874 71.224 46.1613 77.625 39.9999 77.625C33.8386 77.625 30.8125 71.224 30.8125 66.0938C30.8125 60.9636 34.9259 59.0469 39.9999 59.0469C45.074 59.0469 49.1874 60.9636 49.1874 66.0938Z" fill="#FFE7C5"/>
<path d="M31.1194 67.2148C30.1357 66.9745 29.4912 67.4879 29.4912 68.4961C29.4912 69.8307 30.8141 73.1006 32.2048 71.0586C33.5957 69.0165 31.1194 67.2148 31.1194 67.2148Z" fill="#FFE7C5"/>
<path d="M48.714 67.2148C49.7877 66.9745 50.4912 67.4879 50.4912 68.4961C50.4912 69.8307 49.0473 73.1006 47.5292 71.0586C46.0111 69.0165 48.714 67.2148 48.714 67.2148Z" fill="#FFE7C5"/>
<path d="M32.7812 63.5311C32.5077 64.2989 32.125 68.6561 32.125 68.6561L30.8125 67.9473L30.4434 63.2515L32.7812 63.5311Z" fill="#7E5449"/>
<path d="M47.2178 63.5311C47.4912 64.2989 47.874 68.6561 47.874 68.6561L49.1865 67.9473L49.5556 63.2515L47.2178 63.5311Z" fill="#7E5449"/>
<path d="M55.0937 92.9997C56.1811 92.9997 57.0625 92.1393 57.0625 91.0779V86.1806C57.0625 83.3618 54.8124 80.3526 52.0623 79.4936L47.9566 78.2112C45.7477 79.86 42.591 82.1092 40 82.1092C37.4091 82.1092 34.2524 79.86 32.0435 78.2112L27.9377 79.4936C25.1876 80.3526 22.9375 83.3618 22.9375 86.1806V91.0779C22.9375 92.1393 23.8189 92.9997 24.9063 92.9997H55.0937Z" fill="#86A0AF"/>
<path d="M41.3125 84.0308C41.3125 84.3831 41.0172 84.6714 40.6563 84.6714H39.3437C38.9828 84.6714 38.6875 84.3831 38.6875 84.0308V82.7495C38.6875 82.3972 38.9828 82.1089 39.3437 82.1089H40.6563C41.0172 82.1089 41.3125 82.3972 41.3125 82.7495V84.0308Z" fill="#E00000"/>
<path d="M40 88.5156C40.3624 88.5156 40.6562 88.2288 40.6562 87.875C40.6562 87.5212 40.3624 87.2344 40 87.2344C39.6375 87.2344 39.3438 87.5212 39.3438 87.875C39.3438 88.2288 39.6375 88.5156 40 88.5156Z" fill="#D0D7DC"/>
<path d="M39.999 82.109L37.2608 84.7819C36.9757 85.0603 36.5033 85.0241 36.266 84.7057L31.4678 78.2651L32.9962 76.7731C33.2431 76.5321 33.6399 76.522 33.8993 76.7499L39.999 82.109Z" fill="#658FA7"/>
<path d="M40 82.109L42.7382 84.7819C43.0233 85.0603 43.4957 85.0241 43.733 84.7057L48.5312 78.2651L47.0028 76.7731C46.7559 76.5321 46.3591 76.522 46.0997 76.7499L40 82.109Z" fill="#658FA7"/>
<path d="M40.9016 84.3118L39.9999 84.6721L39.0984 84.3118L38.6875 93.0003H39.9999H41.3125L40.9016 84.3118Z" fill="#FF0000"/>
<path d="M55.3248 92.9775C56.3019 92.8646 57.0624 92.0625 57.0624 91.0784V86.1812C57.0624 83.3624 54.8123 80.3532 52.0622 79.4942L48.484 78.3765L43.2812 92.9775H55.3248Z" fill="#B1E4F9"/>
<path d="M31.5159 78.3765L27.9377 79.4942C25.1876 80.3532 22.9375 83.3624 22.9375 86.1812V91.0784C22.9375 92.0626 23.6981 92.8646 24.6751 92.9775H36.7188L31.5159 78.3765Z" fill="#B1E4F9"/>
<path d="M31.468 78.2656L28.6767 81.5598C28.4169 81.8512 28.4785 82.2991 28.8078 82.5134L30.1556 83.3906L28.5965 84.9125C28.3625 85.141 28.3393 85.5037 28.5426 85.7588L32.7807 93L36.7182 92.9772L31.468 78.2656Z" fill="#90D8F9"/>
<path d="M48.5304 78.2656L51.3217 81.5598C51.5815 81.8512 51.52 82.2991 51.1907 82.5134L49.8428 83.3906L51.4019 84.9125C51.636 85.141 51.6591 85.5037 51.4559 85.7588L47.2178 93L43.2803 92.9772L48.5304 78.2656Z" fill="#90D8F9"/>
<path d="M49.8438 63.5313C43.2813 63.5313 36.7188 63.5313 30.1562 63.5313C30.1562 60.1146 30.1562 57.7237 30.1562 54.307C36.3404 51.231 43.6595 51.231 49.8438 54.307C49.8438 57.7237 49.8438 60.1146 49.8438 63.5313Z" fill="#90D8F9"/>
</g>
<defs>
<clipPath id="clip0">
<rect x="34" y="21" width="64" height="64" fill="white"/>
</clipPath>
<clipPath id="clip1">
<rect x="19" y="52" width="42" height="41" fill="white"/>
</clipPath>
</defs>
</svg>
