<svg width="120" height="120" viewBox="0 0 120 120" fill="none" xmlns="http://www.w3.org/2000/svg">
<circle cx="60" cy="60" r="60" fill="#FFCEDA"/>
<path d="M69.5079 41.7998H29.334V93.9331H80.6673V41.7998H69.5079Z" fill="white"/>
<path d="M54.2227 31.0664H60.4449V41.7997H54.2227V31.0664Z" fill="#FF0000"/>
<path d="M49.5547 31.0664H54.2214V41.7997H49.5547V31.0664Z" fill="#FF0000"/>
<path d="M56.0938 33.3906H53.9062V35.5469H51.7188V37.7031H53.9062V39.8594H56.0938V37.7031H58.2812V35.5469H56.0938V33.3906Z" fill="white"/>
<path d="M35.3125 47.4062H41.875V51.7188H35.3125V47.4062Z" fill="#B1E4F9"/>
<path d="M46.25 47.4062H52.8125V51.7188H46.25V47.4062Z" fill="#B1E4F9"/>
<path d="M57.1875 47.4062H63.75V51.7188H57.1875V47.4062Z" fill="#B1E4F9"/>
<path d="M68.125 47.4062H74.6875V51.7188H68.125V47.4062Z" fill="#B1E4F9"/>
<path d="M35.3125 56.0312H41.875V60.3438H35.3125V56.0312Z" fill="#B1E4F9"/>
<path d="M46.25 56.0312H52.8125V60.3438H46.25V56.0312Z" fill="#B1E4F9"/>
<path d="M57.1875 56.0312H63.75V60.3438H57.1875V56.0312Z" fill="#B1E4F9"/>
<path d="M68.125 56.0312H74.6875V60.3438H68.125V56.0312Z" fill="#B1E4F9"/>
<path d="M35.3125 64.6562H41.875V68.9688H35.3125V64.6562Z" fill="#B1E4F9"/>
<path d="M46.25 64.6562H52.8125V68.9688H46.25V64.6562Z" fill="#B1E4F9"/>
<path d="M57.1875 64.6562H63.75V68.9688H57.1875V64.6562Z" fill="#B1E4F9"/>
<path d="M68.125 64.6562H74.6875V68.9688H68.125V64.6562Z" fill="#B1E4F9"/>
<path d="M63.75 78.6719H67.0312V74.3594H42.9688V78.6719H46.25H55H63.75Z" fill="#86A0AF"/>
<path d="M29.8438 92.6875V84.0625H27.6562V92.6875H24.375V94.8438H33.125V92.6875H29.8438Z" fill="#8B5E3C"/>
<path d="M83.4375 92.6875V86.2188H81.25V92.6875H79.0625V94.8438H85.625V92.6875H83.4375Z" fill="#8B5E3C"/>
<path d="M55 78.6719H63.75V93.7656H55V78.6719Z" fill="#D0E2E7"/>
<path d="M46.25 78.6719H55V93.7656H46.25V78.6719Z" fill="#D0E2E7"/>
<path d="M86.7188 81.9062C86.7188 78.9295 84.7598 74.3594 82.3438 74.3594C79.9277 74.3594 77.9688 78.9295 77.9688 81.9062C77.9688 84.883 79.9277 87.2969 82.3438 87.2969C84.7598 87.2969 86.7188 84.883 86.7188 81.9062Z" fill="#449903"/>
<path d="M28.75 85.1406C31.7698 85.1406 34.2188 82.2448 34.2188 78.6719C34.2188 75.099 31.7698 70.0469 28.75 70.0469C25.7302 70.0469 23.2812 75.099 23.2812 78.6719C23.2812 82.2448 25.7302 85.1406 28.75 85.1406Z" fill="#367A02"/>
<path d="M53.9062 78.6719H56.0938V85.1406H53.9062V78.6719Z" fill="#86A0AF"/>
<path d="M53.9062 87.2969H56.0938V94.8438H53.9062V87.2969Z" fill="#86A0AF"/>
<path d="M39.6875 92.6875H70.3125V94.8438H39.6875V92.6875Z" fill="#86A0AF"/>
<circle cx="82.5" cy="39.5" r="16.5" fill="white"/>
<g clip-path="url(#clip0)">
<path d="M96.1786 28.7334C95.789 28.1796 95.3174 27.6669 94.8252 27.1748C94.333 26.6827 93.8203 26.2109 93.2666 25.8212C90.2109 23.3809 86.458 22 82.5 22C77.8447 22 73.4765 23.873 70.1748 27.1748C66.8731 30.4766 65 34.8447 65 39.5C65 43.4785 66.3809 47.2314 68.8214 50.2871C69.2315 50.8202 69.6826 51.3329 70.1748 51.8252C70.667 52.3174 71.1797 52.7685 71.7129 53.1786C74.7685 55.6191 78.5215 57 82.5 57C87.1553 57 91.5235 55.127 94.8252 51.8252C98.127 48.5234 100 44.1552 100 39.5C100 35.542 98.6191 31.7891 96.1786 28.7334ZM69.1699 39.5C69.1699 35.9316 70.5645 32.5889 73.0665 30.0663C75.5889 27.5645 78.9316 26.1699 82.5 26.1699C85.3712 26.1699 88.0986 27.0723 90.3546 28.7334L71.7539 47.3544C70.0723 45.0986 69.1699 42.371 69.1699 39.5ZM91.9335 48.9335C89.4111 51.4355 86.0684 52.8301 82.5 52.8301C79.6288 52.8301 76.9014 51.9277 74.6454 50.2461L93.2666 31.6455C94.9277 33.9013 95.8301 36.6288 95.8301 39.5C95.8301 43.0684 94.4355 46.4111 91.9335 48.9335Z" fill="#FD003A"/>
<path d="M71.7158 53.1796C74.7714 55.6201 78.5244 57.001 82.5029 57.001C87.1583 57.001 91.5264 55.1279 94.8281 51.8262C98.1299 48.5243 100.003 44.1562 100.003 39.501C100.003 35.543 98.6221 31.79 96.1816 28.7344C95.7919 28.1806 95.3203 27.6679 94.8281 27.1758L70.1777 51.8262C70.6699 52.3184 71.1825 52.7695 71.7158 53.1796ZM93.2695 31.6464C94.9307 33.9023 95.833 36.6298 95.833 39.501C95.833 43.0693 94.4385 46.4121 91.9365 48.9345C89.4141 51.4365 86.0713 52.8311 82.5029 52.8311C79.6318 52.8311 76.9044 51.9287 74.6484 50.2471L93.2695 31.6464Z" fill="#E50027"/>
</g>
<path d="M84.3304 47.7814V50.4493H81.202V47.9015C78.9832 47.7573 76.8311 47.1083 75.5 46.219L77.1861 42.0848C78.6505 43.0223 80.6029 43.623 82.3113 43.623C83.7979 43.623 84.3304 43.2866 84.3304 42.7096C84.3304 40.5945 75.7441 42.301 75.7441 36.0276C75.7441 33.3116 77.5633 31.0282 81.202 30.4753V27.8555H84.3304V30.4272C85.9722 30.5954 87.5697 31.0522 88.8343 31.8213L87.2591 35.9314C85.7282 35.0901 84.286 34.6816 82.9326 34.6816C81.4017 34.6816 80.9137 35.1623 80.9137 35.7391C80.9137 37.7582 89.5 36.0755 89.5 42.2768C89.5 44.8732 87.7694 47.1324 84.3304 47.7814Z" fill="#FFD12B"/>
<path d="M82.9195 34.6806C84.2728 34.6806 85.715 35.0891 87.246 35.9304L88.8211 31.8203C87.5565 31.0512 85.9591 30.5945 84.3172 30.4262V27.8545H82.7148V34.6848C82.7817 34.6827 82.8483 34.6806 82.9195 34.6806Z" fill="#FFB023"/>
<path d="M84.3172 42.7078C84.3172 43.2268 83.8838 43.5503 82.7148 43.6102V50.4474H84.3172V47.7794C87.7562 47.1305 89.4868 44.8711 89.4868 42.2752C89.4868 37.911 85.2345 37.4515 82.7148 36.8584V41.5815C83.6623 41.8314 84.3172 42.1238 84.3172 42.7078Z" fill="#FFB023"/>
<defs>
<clipPath id="clip0">
<rect x="65" y="22" width="35" height="35" fill="white"/>
</clipPath>
</defs>
</svg>
