<svg width="120" height="120" viewBox="0 0 120 120" fill="none" xmlns="http://www.w3.org/2000/svg">
<circle cx="60" cy="60" r="60" fill="#FFCEDA"/>
<path d="M101.221 86.925H46.1181C45.4801 86.925 44.9629 86.4139 44.9629 85.7836V83.2354H102.376V85.7836C102.376 86.4139 101.859 86.925 101.221 86.925Z" fill="#7A96A8"/>
<path d="M95.0243 68.161L91.8341 53.2414C91.7213 52.7135 91.2499 52.3359 90.7039 52.3359H46.1181C45.4801 52.3359 44.9629 52.8469 44.9629 53.4774V83.2366H102.376V72.8834C102.376 72.4457 102.123 72.0465 101.724 71.856L95.6513 68.9525C95.3297 68.7987 95.0982 68.5064 95.0243 68.161Z" fill="white"/>
<path d="M82.0684 67.5691V57.1688C82.0684 56.5383 82.5855 56.0273 83.2236 56.0273H87.5645C88.1039 56.0273 88.5715 56.3961 88.691 56.9158L91.0833 67.3161C91.2476 68.0303 90.6981 68.7105 89.9568 68.7105H83.2237C82.5855 68.7105 82.0684 68.1995 82.0684 67.5691Z" fill="#B1E4F9"/>
<path d="M87.5704 56.0273H86.2754L89.1927 68.7104H89.9628C90.7041 68.7104 91.2536 68.0303 91.0893 67.316L88.697 56.9157C88.5774 56.3961 88.1098 56.0273 87.5704 56.0273Z" fill="#90D8F9"/>
<path d="M71.334 67.5691V57.1688C71.334 56.5383 71.8512 56.0273 72.4892 56.0273H77.1804C77.8185 56.0273 78.3356 56.5383 78.3356 57.1688V67.5691C78.3356 68.1995 77.8185 68.7105 77.1804 68.7105H72.4892C71.8512 68.7105 71.334 68.1995 71.334 67.5691Z" fill="#B1E4F9"/>
<path d="M90.8239 91.9992C94.6908 91.9992 97.8256 88.9019 97.8256 85.0812C97.8256 81.2604 94.6908 78.1631 90.8239 78.1631C86.957 78.1631 83.8223 81.2604 83.8223 85.0812C83.8223 88.9019 86.957 91.9992 90.8239 91.9992Z" fill="#44697E"/>
<path d="M90.8217 87.0413C91.9173 87.0413 92.8055 86.1637 92.8055 85.0812C92.8055 83.9987 91.9173 83.1211 90.8217 83.1211C89.7261 83.1211 88.8379 83.9987 88.8379 85.0812C88.8379 86.1637 89.7261 87.0413 90.8217 87.0413Z" fill="#D0E2E7"/>
<path d="M56.5231 91.9992C60.39 91.9992 63.5248 88.9019 63.5248 85.0812C63.5248 81.2604 60.39 78.1631 56.5231 78.1631C52.6562 78.1631 49.5215 81.2604 49.5215 85.0812C49.5215 88.9019 52.6562 91.9992 56.5231 91.9992Z" fill="#44697E"/>
<path d="M56.519 87.0413C57.6146 87.0413 58.5027 86.1637 58.5027 85.0812C58.5027 83.9987 57.6146 83.1211 56.519 83.1211C55.4233 83.1211 54.5352 83.9987 54.5352 85.0812C54.5352 86.1637 55.4233 87.0413 56.519 87.0413Z" fill="#D0E2E7"/>
<path d="M65.1616 61.9077H60.5965C60.2136 61.9077 59.9034 61.6011 59.9034 61.2228V56.7122C59.9034 56.3339 59.5931 56.0273 59.2102 56.0273H56.6289C56.246 56.0273 55.9358 56.3339 55.9358 56.7122V61.2228C55.9358 61.6011 55.6255 61.9077 55.2427 61.9077H50.6775C50.2947 61.9077 49.9844 62.2143 49.9844 62.5925V65.1431C49.9844 65.5213 50.2947 65.8279 50.6775 65.8279H55.2427C55.6255 65.8279 55.9358 66.1345 55.9358 66.5127V71.0234C55.9358 71.4017 56.246 71.7082 56.6289 71.7082H59.2102C59.5931 71.7082 59.9034 71.4017 59.9034 71.0234V66.5127C59.9034 66.1345 60.2136 65.8279 60.5965 65.8279H65.1616C65.5445 65.8279 65.8547 65.5213 65.8547 65.1431V62.5925C65.8547 62.2143 65.5445 61.9077 65.1616 61.9077Z" fill="#FF0000"/>
<path d="M77.1697 52.3381H70.168L71.1433 47.7124C71.2549 47.1831 71.7271 46.8037 72.2742 46.8037H75.0633C75.6105 46.8037 76.0826 47.1831 76.1942 47.7124L77.1697 52.3381Z" fill="#FF0000"/>
<path d="M85.2686 73.257H82.9347C82.4561 73.257 82.0684 72.8737 82.0684 72.4009C82.0684 71.9282 82.4562 71.5449 82.9347 71.5449H85.2686C85.7472 71.5449 86.135 71.9282 86.135 72.4009C86.135 72.8737 85.7472 73.257 85.2686 73.257Z" fill="#D0E2E7"/>
<path d="M102.38 76.0245H100.046C99.5675 76.0245 99.1797 75.6413 99.1797 75.1685C99.1797 74.6957 99.5676 74.3125 100.046 74.3125H102.38V76.0245Z" fill="#86A0AF"/>
<path d="M102.38 79.714H100.046C99.5675 79.714 99.1797 79.3307 99.1797 78.858C99.1797 78.3852 99.5676 78.002 100.046 78.002H102.38V79.714Z" fill="#86A0AF"/>
<path d="M72.2003 80.6363C71.7218 80.6363 71.334 80.253 71.334 79.7803V72.4009C71.334 71.9282 71.7219 71.5449 72.2003 71.5449C72.6788 71.5449 73.0667 71.9282 73.0667 72.4009V79.7803C73.0668 80.2529 72.6789 80.6363 72.2003 80.6363Z" fill="#D0E2E7"/>
<path d="M35.8709 42.0565L30.9758 36.2061C30.5243 35.6665 30.8618 34.8416 31.5622 34.7732L37.3261 34.2105C37.4996 34.1936 37.6743 34.2289 37.8277 34.3118L47.942 39.7828" fill="#FF003D"/>
<path d="M80.5508 41.508C80.6339 42.3592 80.1297 43.1591 79.326 43.4521L77.2252 44.2189C69.8945 46.8931 62.2554 48.6309 54.4887 49.3891L26.5041 52.1209C22.9148 52.4713 19.6777 49.9554 19.1305 46.3904L17.97 38.8175C17.9614 38.7686 17.9542 38.7207 17.9469 38.673L17.5141 35.8489C17.3978 35.0904 17.9422 34.3899 18.706 34.3154L21.1107 34.0806C22.4672 33.9482 23.7648 34.6663 24.3729 35.8862L26.6607 40.4756L64.3941 33.3678C66.079 33.0502 67.8022 33.6862 68.8762 35.0229L71.5428 38.3389L79.0535 39.8503C79.4573 39.9322 79.8122 40.1414 80.0756 40.4324C80.3389 40.7231 80.5107 41.0969 80.5508 41.508Z" fill="white"/>
<path d="M80.5457 41.5088C80.6288 42.36 80.1246 43.1599 79.3209 43.4529L77.2201 44.2198C69.8894 46.8939 62.2503 48.6317 54.4836 49.3899L26.499 52.1217C22.9097 52.4721 19.6726 49.9562 19.1254 46.3913L17.9648 38.8184C18.7499 43.7084 21.6746 50.4005 38.8862 48.7204C56.2673 47.0236 74.6756 43.3447 79.0484 39.851C79.4522 39.9329 79.8071 40.1421 80.0704 40.4331C80.3338 40.7239 80.5056 41.0978 80.5457 41.5088Z" fill="#D0E2E7"/>
<path d="M71.5408 38.3409L67.9839 39.5276C66.2903 40.0928 64.4363 39.3512 63.5993 37.7741C63.4968 37.5812 63.5859 37.3419 63.7897 37.263L69.0376 35.2287" fill="#B1E4F9"/>
<path d="M38.89 48.7214L56.271 47.0247L39.6983 60.7161C39.5478 60.8405 39.3635 60.917 39.1692 60.936L33.6357 61.4762C32.8514 61.5527 32.3018 60.7195 32.6812 60.0288L38.89 48.7214Z" fill="#FF0000"/>
<path d="M36.0583 45.6227C37.0536 45.5255 37.7816 44.6399 37.6845 43.6446C37.5873 42.6493 36.7017 41.9213 35.7064 42.0184C34.7111 42.1156 33.9831 43.0012 34.0802 43.9965C34.1774 44.9918 35.063 45.7198 36.0583 45.6227Z" fill="#90D8F9"/>
<path d="M43.863 44.6051C44.8582 44.5079 45.5863 43.6223 45.4892 42.627C45.392 41.6318 44.5064 40.9037 43.5111 41.0008C42.5158 41.098 41.7877 41.9836 41.8849 42.9789C41.9821 43.9742 42.8677 44.7023 43.863 44.6051Z" fill="#90D8F9"/>
<path d="M51.9821 43.4293C52.9774 43.3322 53.7055 42.4466 53.6083 41.4513C53.5112 40.456 52.6255 39.7279 51.6303 39.8251C50.635 39.9222 49.9069 40.8078 50.004 41.8031C50.1012 42.7984 50.9868 43.5265 51.9821 43.4293Z" fill="#90D8F9"/>
</svg>
