<svg width="35" height="35" viewBox="0 0 35 35" fill="none" xmlns="http://www.w3.org/2000/svg">
<circle cx="17.5" cy="17.5" r="17" transform="rotate(-180 17.5 17.5)" fill="white" stroke="#FF0000"/>
<path d="M7.29289 16.2929C6.90237 16.6834 6.90237 17.3166 7.29289 17.7071L13.6569 24.0711C14.0474 24.4616 14.6805 24.4616 15.0711 24.0711C15.4616 23.6805 15.4616 23.0474 15.0711 22.6569L9.41421 17L15.0711 11.3431C15.4616 10.9526 15.4616 10.3195 15.0711 9.92893C14.6805 9.53841 14.0474 9.53841 13.6569 9.92893L7.29289 16.2929ZM25 16L16 16L16 18L25 18L25 16ZM16 16L8 16L8 18L16 18L16 16Z" fill="#FF0000"/>
</svg>
