<svg width="52" height="49" viewBox="0 0 52 49" fill="none" xmlns="http://www.w3.org/2000/svg">
<path d="M12.8928 46.4141H0.859489C0.384166 46.4141 0 46.7991 0 47.2736C0 47.748 0.384166 48.133 0.859489 48.133H12.8928C13.3682 48.133 13.7523 47.748 13.7523 47.2736C13.7523 46.7991 13.3682 46.4141 12.8928 46.4141Z" fill="url(#paint0_linear)"/>
<path d="M4.29764 39.538C4.77297 39.538 5.15713 39.1529 5.15713 38.6785C5.15713 38.2041 4.77297 37.819 4.29764 37.819C2.85103 37.819 1.71908 36.6862 1.71908 35.2404V32.6619H2.57857C3.05389 32.6619 3.43806 32.2768 3.43806 31.8024C3.43806 31.328 3.05389 30.9429 2.57857 30.9429H1.71908V18.9095H6.01672C6.49204 18.9095 6.87621 18.5244 6.87621 18.05C6.87621 17.5756 6.49204 17.1905 6.01672 17.1905H1.71908V9.45478C1.71908 8.03314 2.87601 6.87621 4.29764 6.87621H24.9262C25.4015 6.87621 25.7857 6.49114 25.7857 6.01672V3.43806C25.7857 1.51017 24.2755 0 22.3476 0C20.4515 0 18.9096 1.542 18.9096 3.43806V5.15713H4.29764C1.92788 5.15713 0 7.08502 0 9.45468V35.2403C0 37.6505 1.88749 39.538 4.29764 39.538ZM20.6285 3.43806C20.6285 2.49003 21.3995 1.71898 22.3476 1.71898C23.3284 1.71898 24.0667 2.4582 24.0667 3.43806V5.15713H20.6285V3.43806Z" fill="url(#paint1_linear)"/>
<path d="M26.6451 46.4141H18.0499C17.5746 46.4141 17.1904 46.7991 17.1904 47.2736C17.1904 47.748 17.5746 48.133 18.0499 48.133H26.6451C27.1204 48.133 27.5046 47.748 27.5046 47.2736C27.5046 46.7991 27.1204 46.4141 26.6451 46.4141Z" fill="url(#paint2_linear)"/>
<path d="M12.8932 24.0664H16.3313C16.8066 24.0664 17.1908 23.6814 17.1908 23.207V20.6284H19.7694C20.2447 20.6284 20.6288 20.2433 20.6288 19.7689V16.3307C20.6288 15.8563 20.2447 15.4713 19.7694 15.4713H17.1908V12.8927C17.1908 12.4183 16.8066 12.0332 16.3313 12.0332H12.8932C12.4179 12.0332 12.0338 12.4183 12.0338 12.8927V15.4713H9.45519C8.97987 15.4713 8.5957 15.8563 8.5957 16.3307V19.7688C8.5957 20.2432 8.97987 20.6283 9.45519 20.6283H12.0338V23.2069C12.0338 23.6814 12.4179 24.0664 12.8932 24.0664ZM10.3147 18.9093V17.1902H12.8932C13.3686 17.1902 13.7527 16.8052 13.7527 16.3307V13.7522H15.4718V16.3307C15.4718 16.8052 15.856 17.1902 16.3313 17.1902H18.9099V18.9093H16.3313C15.856 18.9093 15.4718 19.2944 15.4718 19.7688V22.3474H13.7527V19.7688C13.7527 19.2944 13.3686 18.9093 12.8932 18.9093H10.3147Z" fill="url(#paint3_linear)"/>
<path d="M42.1167 36.0999C40.695 36.0999 39.5381 37.2568 39.5381 38.6784C39.5381 40.1001 40.695 41.257 42.1167 41.257C43.5383 41.257 44.6952 40.1001 44.6952 38.6784C44.6952 37.2568 43.5383 36.0999 42.1167 36.0999ZM42.1167 39.5379C41.6422 39.5379 41.2572 39.152 41.2572 38.6784C41.2572 38.2048 41.6422 37.8189 42.1167 37.8189C42.5911 37.8189 42.9761 38.2048 42.9761 38.6784C42.9762 39.152 42.5912 39.5379 42.1167 39.5379Z" fill="url(#paint4_linear)"/>
<path d="M50.46 25.178L48.0697 22.7877L45.5539 9.37056C45.5083 7.03958 43.5993 5.15723 41.2571 5.15723H28.3643C27.889 5.15723 27.5048 5.5423 27.5048 6.01672V17.1905H23.2071C22.7318 17.1905 22.3477 17.5755 22.3477 18.05C22.3477 18.5244 22.7318 18.9094 23.2071 18.9094H27.5048V21.488C27.5048 23.03 28.5414 24.0666 30.0834 24.0666H46.918L49.2447 26.3933C49.7347 26.8833 49.8507 28.0101 49.8524 28.3642V30.9428H48.9928C48.5175 30.9428 48.1333 31.3279 48.1333 31.8023C48.1333 32.2767 48.5175 32.6618 48.9928 32.6618H49.8523V37.8189H48.0645C47.6459 34.9077 45.1422 32.6618 42.1166 32.6618C38.7997 32.6618 36.1 35.3607 36.1 38.6784C36.1 41.9962 38.7997 44.695 42.1166 44.695C45.1421 44.695 47.6459 42.449 48.0645 39.5379H50.7119C51.1872 39.5379 51.5714 39.1528 51.5714 38.6784V28.3641C51.5714 28.1519 51.5405 26.2575 50.46 25.178ZM41.7883 22.3475L42.8859 20.1531C43.0983 19.7285 42.9255 19.2128 42.5009 18.9996C42.0771 18.7873 41.5614 18.96 41.3474 19.3847L39.8664 22.3474H30.0834C29.5049 22.3474 29.2239 22.0664 29.2239 21.4879V6.8761H41.2571C42.6547 6.8761 43.8357 8.05711 43.8357 9.45467C43.8357 9.50795 43.8408 9.56124 43.8512 9.61281L46.239 22.3475H41.7883ZM42.1166 42.976C39.7469 42.976 37.819 41.0481 37.819 38.6784C37.819 36.3087 39.7468 34.3807 42.1166 34.3807C44.4863 34.3807 46.4142 36.3086 46.4142 38.6784C46.4142 41.0481 44.4864 42.976 42.1166 42.976Z" fill="url(#paint5_linear)"/>
<path d="M50.7115 46.4141H36.9591C36.4838 46.4141 36.0996 46.7991 36.0996 47.2736C36.0996 47.748 36.4838 48.133 36.9591 48.133H50.7114C51.1867 48.133 51.5709 47.748 51.5709 47.2736C51.5709 46.7991 51.1868 46.4141 50.7115 46.4141Z" fill="url(#paint6_linear)"/>
<path d="M33.5211 25.7856C33.0458 25.7856 32.6616 26.1707 32.6616 26.6451V37.8189H18.8405C18.4219 34.9077 15.9182 32.6618 12.8926 32.6618C9.57572 32.6618 6.87598 35.3607 6.87598 38.6784C6.87598 41.9962 9.57572 44.695 12.8926 44.695C15.9181 44.695 18.4219 42.449 18.8405 39.5379H33.5211C33.9965 39.5379 34.3806 39.1528 34.3806 38.6784V26.6451C34.3806 26.1707 33.9965 25.7856 33.5211 25.7856ZM12.8926 42.976C10.5229 42.976 8.59495 41.0481 8.59495 38.6784C8.59495 36.3087 10.5228 34.3807 12.8926 34.3807C15.2623 34.3807 17.1902 36.3086 17.1902 38.6784C17.1902 41.0481 15.2623 42.976 12.8926 42.976Z" fill="url(#paint7_linear)"/>
<path d="M33.5209 46.4141H31.8019C31.3265 46.4141 30.9424 46.7991 30.9424 47.2736C30.9424 47.748 31.3265 48.133 31.8019 48.133H33.5209C33.9963 48.133 34.3804 47.748 34.3804 47.2736C34.3804 46.7991 33.9963 46.4141 33.5209 46.4141Z" fill="url(#paint8_linear)"/>
<path d="M12.893 36.0999C11.4714 36.0999 10.3145 37.2568 10.3145 38.6784C10.3145 40.1001 11.4714 41.257 12.893 41.257C14.3147 41.257 15.4716 40.1001 15.4716 38.6784C15.4716 37.2568 14.3147 36.0999 12.893 36.0999ZM12.893 39.5379C12.4186 39.5379 12.0335 39.152 12.0335 38.6784C12.0335 38.2048 12.4186 37.8189 12.893 37.8189C13.3674 37.8189 13.7525 38.2048 13.7525 38.6784C13.7525 39.152 13.3674 39.5379 12.893 39.5379Z" fill="url(#paint9_linear)"/>
<defs>
<linearGradient id="paint0_linear" x1="6.87616" y1="46.4141" x2="6.87616" y2="48.133" gradientUnits="userSpaceOnUse">
<stop stop-color="#FF003D"/>
<stop offset="0.563536" stop-color="#FF0000"/>
<stop offset="1" stop-color="#FF3D00"/>
</linearGradient>
<linearGradient id="paint1_linear" x1="12.8928" y1="0" x2="12.8928" y2="39.538" gradientUnits="userSpaceOnUse">
<stop stop-color="#FF003D"/>
<stop offset="0.563536" stop-color="#FF0000"/>
<stop offset="1" stop-color="#FF3D00"/>
</linearGradient>
<linearGradient id="paint2_linear" x1="22.3475" y1="46.4141" x2="22.3475" y2="48.133" gradientUnits="userSpaceOnUse">
<stop stop-color="#FF003D"/>
<stop offset="0.563536" stop-color="#FF0000"/>
<stop offset="1" stop-color="#FF3D00"/>
</linearGradient>
<linearGradient id="paint3_linear" x1="14.6123" y1="12.0332" x2="14.6123" y2="24.0664" gradientUnits="userSpaceOnUse">
<stop stop-color="#FF003D"/>
<stop offset="0.563536" stop-color="#FF0000"/>
<stop offset="1" stop-color="#FF3D00"/>
</linearGradient>
<linearGradient id="paint4_linear" x1="42.1167" y1="36.0999" x2="42.1167" y2="41.257" gradientUnits="userSpaceOnUse">
<stop stop-color="#FF003D"/>
<stop offset="0.563536" stop-color="#FF0000"/>
<stop offset="1" stop-color="#FF3D00"/>
</linearGradient>
<linearGradient id="paint5_linear" x1="36.9595" y1="5.15723" x2="36.9595" y2="44.695" gradientUnits="userSpaceOnUse">
<stop stop-color="#FF003D"/>
<stop offset="0.563536" stop-color="#FF0000"/>
<stop offset="1" stop-color="#FF3D00"/>
</linearGradient>
<linearGradient id="paint6_linear" x1="43.8353" y1="46.4141" x2="43.8353" y2="48.133" gradientUnits="userSpaceOnUse">
<stop stop-color="#FF003D"/>
<stop offset="0.563536" stop-color="#FF0000"/>
<stop offset="1" stop-color="#FF3D00"/>
</linearGradient>
<linearGradient id="paint7_linear" x1="20.6283" y1="25.7856" x2="20.6283" y2="44.695" gradientUnits="userSpaceOnUse">
<stop stop-color="#FF003D"/>
<stop offset="0.563536" stop-color="#FF0000"/>
<stop offset="1" stop-color="#FF3D00"/>
</linearGradient>
<linearGradient id="paint8_linear" x1="32.6614" y1="46.4141" x2="32.6614" y2="48.133" gradientUnits="userSpaceOnUse">
<stop stop-color="#FF003D"/>
<stop offset="0.563536" stop-color="#FF0000"/>
<stop offset="1" stop-color="#FF3D00"/>
</linearGradient>
<linearGradient id="paint9_linear" x1="12.893" y1="36.0999" x2="12.893" y2="41.257" gradientUnits="userSpaceOnUse">
<stop stop-color="#FF003D"/>
<stop offset="0.563536" stop-color="#FF0000"/>
<stop offset="1" stop-color="#FF3D00"/>
</linearGradient>
</defs>
</svg>
