<svg width="60" height="48" viewBox="0 0 60 48" fill="none" xmlns="http://www.w3.org/2000/svg">
<g clip-path="url(#clip0)">
<path d="M36.5 28.1498H53.4996C53.8584 28.1498 54.1496 27.8586 54.1496 27.4998V22.4999C54.1496 21.1051 53.7488 19.9419 53.0229 19.1253C52.2955 18.3068 51.2531 17.85 49.9996 17.85H40.4999C37.8516 17.85 35.85 19.8516 35.85 22.4999V27.4998C35.85 27.8586 36.1411 28.1498 36.5 28.1498ZM37.1499 22.4999C37.1499 20.5548 38.5547 19.15 40.4998 19.15H49.9996C51.0582 19.15 51.7623 19.5794 52.207 20.2026C52.6567 20.8328 52.8496 21.6739 52.8496 22.4999V26.8498H37.1499V22.4999Z" fill="#FF0000" stroke="#FF0000" stroke-width="0.3"/>
<path d="M51.4998 22.8499H47.5679C47.2773 21.7023 46.237 20.85 44.9999 20.85C43.7628 20.85 42.7225 21.7023 42.4319 22.8499H38.5C38.1412 22.8499 37.85 23.1411 37.85 23.4999C37.85 23.8587 38.1412 24.1499 38.5 24.1499H42.4319C42.7225 25.2975 43.7628 26.1498 44.9999 26.1498C46.237 26.1498 47.2773 25.2975 47.5679 24.1499H51.4998C51.8586 24.1499 52.1497 23.8587 52.1497 23.4999C52.1497 23.141 51.8586 22.8499 51.4998 22.8499ZM44.9999 24.8499C44.2558 24.8499 43.65 24.244 43.65 23.4999C43.65 22.7558 44.2558 22.1499 44.9999 22.1499C45.7441 22.1499 46.3499 22.7558 46.3499 23.4999C46.3499 24.244 45.7441 24.8499 44.9999 24.8499Z" fill="#FF0000" stroke="#FF0000" stroke-width="0.3"/>
<path d="M44.8137 34.0354C44.9337 33.9884 45.0657 33.9884 45.1857 34.0354H44.8137ZM44.8137 34.0354C42.4347 34.9873 38.7398 34.9999 38.7029 34.9999C38.6959 34.9999 38.6894 35.0018 38.683 35.0037C38.6774 35.0053 38.6719 35.0069 38.6659 35.0074L44.8137 34.0354ZM40.0406 38.1391L40.0406 38.1391C40.3405 38.5889 40.791 39.2634 41.5598 39.8282C42.3257 40.3908 43.4152 40.8497 44.9997 40.8497C46.5841 40.8497 47.6737 40.3908 48.4396 39.8282C49.2083 39.2635 49.6589 38.589 49.9587 38.1391L40.0406 38.1391ZM40.0406 38.1391C39.7516 37.7056 39.4518 36.9626 39.1762 36.141M40.0406 38.1391L39.1762 36.141M39.1762 36.141C40.245 36.1082 42.9362 35.9518 44.9997 35.1958C47.0592 35.9503 49.7482 36.1077 50.8236 36.1405C50.5475 36.9622 50.2478 37.705 49.9588 38.1391L39.1762 36.141ZM38.959 38.8605L38.959 38.8605L38.961 38.8635C39.2837 39.3473 39.8326 40.1703 40.781 40.8706C41.7338 41.5744 43.0831 42.1497 44.9996 42.1497C46.9161 42.1497 48.2654 41.5744 49.2183 40.8706C50.1667 40.1702 50.7157 39.3472 51.0384 38.8634L51.0403 38.8605L51.0403 38.8605C51.4974 38.1747 51.9374 36.9687 52.2927 35.814C52.6327 34.7092 52.9009 33.6325 53.0368 33.0598C53.6835 32.8366 54.1494 32.2219 54.1494 31.4999V29.5C54.1494 29.1412 53.8583 28.85 53.4995 28.85C53.1407 28.85 52.8495 29.1412 52.8495 29.5V31.4999C52.8495 31.6926 52.6922 31.8499 52.4995 31.8499C52.1948 31.8499 51.9307 32.0617 51.8651 32.3591L51.8648 32.3603L51.8648 32.3604C51.8647 32.3608 51.8644 32.3621 51.8639 32.3645L51.8612 32.3767L51.851 32.4212C51.8423 32.4594 51.8296 32.5144 51.8133 32.584C51.7806 32.7233 51.7333 32.921 51.6739 33.1605C51.5617 33.6126 51.4061 34.2129 51.2232 34.8491C50.9712 34.8457 50.1568 34.827 49.1394 34.7259C47.9161 34.6043 46.4128 34.3648 45.2414 33.8961L45.2404 33.8957C45.0853 33.8349 44.9142 33.8349 44.759 33.8957L44.758 33.8961C43.5886 34.364 42.0872 34.6036 40.8652 34.7253C39.8389 34.8276 39.0192 34.8459 38.7763 34.8492C38.5933 34.2133 38.4379 33.6132 38.3257 33.1612C38.2662 32.9215 38.2189 32.7236 38.1862 32.5842C38.1699 32.5146 38.1572 32.4596 38.1485 32.4213L38.1383 32.3768L38.1356 32.3645C38.1351 32.3621 38.1348 32.3609 38.1347 32.3605C38.1347 32.3603 38.1347 32.3603 38.1347 32.3603L38.1347 32.3603L38.1344 32.3591C38.0687 32.0618 37.8047 31.8499 37.4999 31.8499C37.3073 31.8499 37.1499 31.6926 37.1499 31.5V29.5C37.1499 29.1412 36.8588 28.8501 36.5 28.8501C36.1412 28.8501 35.85 29.1412 35.85 29.5L35.85 31.4999C35.85 31.4999 35.85 31.5 35.85 31.5C35.8499 32.2219 36.3158 32.8366 36.9624 33.0598C37.0984 33.6325 37.3665 34.7092 37.7065 35.814C38.0619 36.9687 38.5018 38.1747 38.959 38.8605ZM52.9104 32.9424C53.5384 32.7634 53.9994 32.1844 53.9994 31.4999V29.5C53.9994 29.224 53.7754 29 53.4995 29C53.2235 29 52.9995 29.224 52.9995 29.5V31.4999C52.9995 31.7754 52.775 31.9999 52.4995 31.9999C52.265 31.9999 52.062 32.1629 52.0116 32.3914C52.0066 32.4149 51.7301 33.6439 51.3341 35.0058L52.9104 32.9424Z" fill="#FF0000" stroke="#FF0000" stroke-width="0.3"/>
<path d="M48.7235 42.052L48.7906 41.9178L48.7901 41.9176C48.5571 41.802 48.2759 41.8357 48.0769 42.006L48.0768 42.0061L45 44.6433L41.9233 42.0062C41.7249 41.8358 41.4425 41.8014 41.2095 41.9178L41.2095 41.9178L39.3466 42.85C38.9089 42.8508 38.4951 42.8565 38.1002 42.866C38.0964 42.865 38.0907 42.8634 38.0813 42.861C38.0637 42.8564 38.0348 42.8495 38.0001 42.8495C37.9627 42.8495 37.9306 42.8561 37.9069 42.8619C37.889 42.8664 37.8815 42.8685 37.8756 42.8702C37.873 42.871 37.8706 42.8717 37.8677 42.8725C35.1738 42.9505 33.4545 43.234 32.3338 43.7198C31.7697 43.9643 31.3541 44.2614 31.0424 44.6116C30.7308 44.9617 30.5289 45.3584 30.3835 45.7939L30.3835 45.794L29.8836 47.2939L29.8835 47.294L30.0258 47.3414C29.9383 47.6034 30.0803 47.8864 30.3423 47.9739L48.7235 42.052ZM48.7235 42.052L48.7906 41.9178L48.7907 41.9179L48.7909 41.918L48.7917 41.9184L48.7949 41.92L48.8074 41.9262L48.8552 41.9502L49.0291 42.0372L49.5844 42.3151C49.9866 42.5162 50.4349 42.7405 50.6534 42.8495C53.9588 42.857 56.0328 43.1088 57.3613 43.5967C58.0308 43.8427 58.5165 44.1505 58.8751 44.5216C59.2341 44.8931 59.4585 45.3204 59.6165 45.7939L59.6165 45.7939L60.1165 47.2938C60.1165 47.2939 60.1165 47.2939 60.1165 47.2939C60.2303 47.6348 60.0454 48.0025 59.7052 48.1162L59.705 48.1162C59.6366 48.139 59.567 48.1494 59.4997 48.1494C59.2276 48.1494 58.974 47.9774 58.8829 47.7049L58.8829 47.7048L58.3829 46.2049C58.3829 46.2049 58.3829 46.2049 58.3829 46.2048C58.3067 45.9767 58.2306 45.7517 58.0532 45.5298C57.8768 45.3093 57.5913 45.0816 57.0819 44.8761C56.0554 44.462 54.1501 44.1495 50.4999 44.1495H50.3499V44.0997C50.2286 44.0608 50.0713 43.9938 49.8563 43.8933C49.5709 43.76 49.17 43.561 48.5949 43.2737L45.6499 45.7984V47.4994C45.6499 47.8582 45.3588 48.1494 45 48.1494C44.6411 48.1494 44.35 47.8582 44.35 47.4994V45.7984L41.4051 43.2738L39.7907 44.0816C39.7006 44.1267 39.6006 44.15 39.5001 44.15H39.4956C39.3557 44.15 39.2191 44.1506 39.0852 44.1516C39.7205 44.5235 40.1501 45.2098 40.1501 45.9995C40.1501 47.1852 39.1859 48.1494 38.0001 48.1494C36.8144 48.1494 35.8502 47.1853 35.8502 45.9995C35.8502 45.2562 36.2308 44.6045 36.8053 44.2204M48.7235 42.052L36.8053 44.2204M31.6171 46.2049L31.1172 47.7048L31.1171 47.7049C31.0036 48.0448 30.6366 48.2306 30.2948 48.1162L31.6171 46.2049ZM31.6171 46.2049C31.6858 45.9993 31.7541 45.7975 31.8966 45.5971C32.0376 45.3989 32.2573 45.1942 32.6379 45.003C33.337 44.6517 34.5668 44.3512 36.8053 44.2204M31.6171 46.2049L36.8053 44.2204M38.8501 45.9994C38.8501 46.468 38.4688 46.8494 38.0001 46.8494C37.5315 46.8494 37.1502 46.4681 37.1502 45.9994C37.1502 45.5307 37.5315 45.1494 38.0001 45.1494C38.4688 45.1494 38.8501 45.5308 38.8501 45.9994Z" fill="#FF0000" stroke="#FF0000" stroke-width="0.3"/>
<path d="M46.5 30.8495C46.1412 30.8495 45.85 31.1407 45.85 31.4995C45.85 31.8583 46.1412 32.1495 46.5 32.1495H46.8674C46.9351 32.436 47.1927 32.6494 47.4999 32.6494C47.8071 32.6494 48.0647 32.436 48.1325 32.1495H48.4998C48.8587 32.1495 49.1498 31.8583 49.1498 31.4995C49.1498 31.1407 48.8587 30.8495 48.4998 30.8495H46.5Z" fill="#FF0000" stroke="#FF0000" stroke-width="0.3"/>
<path d="M41.5 30.8495C41.1412 30.8495 40.85 31.1407 40.85 31.4995C40.85 31.8583 41.1412 32.1495 41.5 32.1495H41.8674C41.9351 32.436 42.1927 32.6494 42.4999 32.6494C42.8071 32.6494 43.0647 32.436 43.1325 32.1495H43.4998C43.8587 32.1495 44.1498 31.8583 44.1498 31.4995C44.1498 31.1407 43.8587 30.8495 43.4998 30.8495H41.5Z" fill="#FF0000" stroke="#FF0000" stroke-width="0.3"/>
</g>
<path d="M9.40039 31.3325H1.56C1.25031 31.3325 1 31.5888 1 31.9044C1 32.2201 1.25031 32.4763 1.56 32.4763H9.40039C9.71009 32.4763 9.9604 32.2201 9.9604 31.9044C9.9604 31.5888 9.71009 31.3325 9.40039 31.3325Z" fill="url(#paint0_linear)" stroke="#FF0000" stroke-width="0.3"/>
<path d="M3.80015 26.757C4.10985 26.757 4.36016 26.5008 4.36016 26.1851C4.36016 25.8694 4.10985 25.6132 3.80015 25.6132C2.8576 25.6132 2.12007 24.8594 2.12007 23.8974V22.1816H2.68008C2.98978 22.1816 3.24008 21.9253 3.24008 21.6096C3.24008 21.2939 2.98978 21.0377 2.68008 21.0377H2.12007V13.0304H4.92023C5.22993 13.0304 5.48023 12.7742 5.48023 12.4585C5.48023 12.1428 5.22993 11.8866 4.92023 11.8866H2.12007V6.73913C2.12007 5.79315 2.87388 5.02331 3.80015 5.02331H17.2408C17.5505 5.02331 17.8008 4.76707 17.8008 4.45139V2.7355C17.8008 1.45265 16.8168 0.447754 15.5607 0.447754C14.3253 0.447754 13.3206 1.47383 13.3206 2.7355V3.8794H3.80015C2.25612 3.8794 1 5.16225 1 6.73906V23.8973C1 25.5011 2.2298 26.757 3.80015 26.757ZM14.4406 2.7355C14.4406 2.10466 14.9429 1.59159 15.5607 1.59159C16.1997 1.59159 16.6808 2.08348 16.6808 2.7355V3.8794H14.4406V2.7355Z" fill="url(#paint1_linear)" stroke="#FF0000" stroke-width="0.3"/>
<path d="M18.3604 31.3325H12.7602C12.4505 31.3325 12.2002 31.5888 12.2002 31.9044C12.2002 32.2201 12.4505 32.4763 12.7602 32.4763H18.3604C18.6701 32.4763 18.9205 32.2201 18.9205 31.9044C18.9205 31.5888 18.6701 31.3325 18.3604 31.3325Z" fill="url(#paint2_linear)" stroke="#FF0000" stroke-width="0.3"/>
<path d="M9.39969 16.4617H11.6398C11.9495 16.4617 12.1998 16.2055 12.1998 15.8898V14.174H13.8799C14.1895 14.174 14.4399 13.9177 14.4399 13.6021V11.3142C14.4399 10.9986 14.1895 10.7423 13.8799 10.7423H12.1998V9.02651C12.1998 8.71082 11.9495 8.45459 11.6398 8.45459H9.39969C9.08999 8.45459 8.83969 8.71082 8.83969 9.02651V10.7423H7.15961C6.84991 10.7423 6.59961 10.9986 6.59961 11.3142V13.602C6.59961 13.9177 6.84991 14.1739 7.15961 14.1739H8.83969V15.8897C8.83969 16.2055 9.08999 16.4617 9.39969 16.4617ZM7.71962 13.0301V11.8862H9.39969C9.70939 11.8862 9.9597 11.6299 9.9597 11.3142V9.59843H11.0798V11.3142C11.0798 11.6299 11.3301 11.8862 11.6398 11.8862H13.3198V13.0301H11.6398C11.3301 13.0301 11.0798 13.2863 11.0798 13.602V15.3178H9.9597V13.602C9.9597 13.2863 9.70939 13.0301 9.39969 13.0301H7.71962Z" fill="url(#paint3_linear)" stroke="#FF0000" stroke-width="0.3"/>
<path d="M28.4418 24.4692C27.5155 24.4692 26.7617 25.2391 26.7617 26.1851C26.7617 27.131 27.5155 27.9009 28.4418 27.9009C29.3681 27.9009 30.1219 27.131 30.1219 26.1851C30.1219 25.2391 29.3681 24.4692 28.4418 24.4692ZM28.4418 26.757C28.1327 26.757 27.8818 26.5002 27.8818 26.1851C27.8818 25.8699 28.1327 25.6131 28.4418 25.6131C28.7509 25.6131 29.0018 25.8699 29.0018 26.1851C29.0019 26.5002 28.751 26.757 28.4418 26.757Z" fill="url(#paint4_linear)" stroke="#FF0000" stroke-width="0.3"/>
<path d="M33.8773 17.2016L32.3198 15.611L30.6807 6.68302C30.651 5.13195 29.4071 3.87939 27.8811 3.87939H19.4807C19.171 3.87939 18.9207 4.13563 18.9207 4.45131V11.8865H16.1206C15.8109 11.8865 15.5605 12.1428 15.5605 12.4584C15.5605 12.7741 15.8109 13.0304 16.1206 13.0304H18.9207V14.7462C18.9207 15.7723 19.5961 16.462 20.6008 16.462H31.5695L33.0855 18.0103C33.4047 18.3363 33.4803 19.0861 33.4814 19.3217V21.0376H32.9213C32.6116 21.0376 32.3613 21.2938 32.3613 21.6095C32.3613 21.9252 32.6116 22.1814 32.9213 22.1814H33.4813V25.6131H32.3165C32.0438 23.6759 30.4124 22.1814 28.4411 22.1814C26.28 22.1814 24.5209 23.9773 24.5209 26.185C24.5209 28.3927 26.28 30.1885 28.4411 30.1885C30.4124 30.1885 32.0438 28.694 32.3165 26.7569H34.0414C34.3511 26.7569 34.6014 26.5007 34.6014 26.185V19.3217C34.6014 19.1805 34.5813 17.9199 33.8773 17.2016ZM28.2272 15.3181L28.9424 13.8579C29.0807 13.5754 28.9682 13.2322 28.6915 13.0904C28.4154 12.9491 28.0794 13.064 27.9399 13.3466L26.975 15.318H20.6008C20.2239 15.318 20.0408 15.131 20.0408 14.7461V5.02317H27.8811C28.7917 5.02317 29.5612 5.80903 29.5612 6.73899C29.5612 6.77445 29.5645 6.8099 29.5713 6.84422L31.1271 15.3181H28.2272ZM28.4411 29.0447C26.8971 29.0447 25.6409 27.7619 25.6409 26.185C25.6409 24.6082 26.8971 23.3252 28.4411 23.3252C29.9851 23.3252 31.2413 24.6081 31.2413 26.185C31.2413 27.7619 29.9851 29.0447 28.4411 29.0447Z" fill="url(#paint5_linear)" stroke="#FF0000" stroke-width="0.3"/>
<path d="M34.041 31.3325H25.0805C24.7708 31.3325 24.5205 31.5888 24.5205 31.9044C24.5205 32.2201 24.7708 32.4763 25.0805 32.4763H34.0409C34.3506 32.4763 34.6009 32.2201 34.6009 31.9044C34.6009 31.5888 34.3507 31.3325 34.041 31.3325Z" fill="url(#paint6_linear)" stroke="#FF0000" stroke-width="0.3"/>
<path d="M22.8413 17.606C22.5316 17.606 22.2813 17.8622 22.2813 18.1779V25.6131H13.276C13.0033 23.676 11.372 22.1814 9.40063 22.1814C7.2395 22.1814 5.48047 23.9774 5.48047 26.185C5.48047 28.3927 7.2395 30.1886 9.40063 30.1886C11.3719 30.1886 13.0033 28.6941 13.276 26.7569H22.8413C23.151 26.7569 23.4013 26.5007 23.4013 26.185V18.1779C23.4013 17.8622 23.151 17.606 22.8413 17.606ZM9.40063 29.0447C7.85666 29.0447 6.60048 27.7619 6.60048 26.185C6.60048 24.6082 7.8566 23.3253 9.40063 23.3253C10.9446 23.3253 12.2008 24.6081 12.2008 26.185C12.2008 27.7619 10.9446 29.0447 9.40063 29.0447Z" fill="url(#paint7_linear)" stroke="#FF0000" stroke-width="0.3"/>
<path d="M22.8412 31.3325H21.7211C21.4114 31.3325 21.1611 31.5888 21.1611 31.9044C21.1611 32.2201 21.4114 32.4763 21.7211 32.4763H22.8412C23.1509 32.4763 23.4012 32.2201 23.4012 31.9044C23.4012 31.5888 23.1509 31.3325 22.8412 31.3325Z" fill="url(#paint8_linear)" stroke="#FF0000" stroke-width="0.3"/>
<path d="M9.40079 24.4692C8.47451 24.4692 7.7207 25.2391 7.7207 26.1851C7.7207 27.131 8.47451 27.9009 9.40079 27.9009C10.3271 27.9009 11.0809 27.131 11.0809 26.1851C11.0809 25.2391 10.3271 24.4692 9.40079 24.4692ZM9.40079 26.757C9.09168 26.757 8.84078 26.5002 8.84078 26.1851C8.84078 25.8699 9.09168 25.6131 9.40079 25.6131C9.7099 25.6131 9.96079 25.8699 9.96079 26.1851C9.96079 26.5002 9.7099 26.757 9.40079 26.757Z" fill="url(#paint9_linear)" stroke="#FF0000" stroke-width="0.3"/>
<defs>
<linearGradient id="paint0_linear" x1="5.4802" y1="31.3325" x2="5.4802" y2="32.4763" gradientUnits="userSpaceOnUse">
<stop stop-color="#FF0000"/>
<stop offset="0.563536" stop-color="#FF0000"/>
<stop offset="1" stop-color="#FF0000"/>
</linearGradient>
<linearGradient id="paint1_linear" x1="9.40039" y1="0.447754" x2="9.40039" y2="26.757" gradientUnits="userSpaceOnUse">
<stop stop-color="#FF0000"/>
<stop offset="0.563536" stop-color="#FF0000"/>
<stop offset="1" stop-color="#FF0000"/>
</linearGradient>
<linearGradient id="paint2_linear" x1="15.5603" y1="31.3325" x2="15.5603" y2="32.4763" gradientUnits="userSpaceOnUse">
<stop stop-color="#FF0000"/>
<stop offset="0.563536" stop-color="#FF0000"/>
<stop offset="1" stop-color="#FF0000"/>
</linearGradient>
<linearGradient id="paint3_linear" x1="10.5197" y1="8.45459" x2="10.5197" y2="16.4617" gradientUnits="userSpaceOnUse">
<stop stop-color="#FF0000"/>
<stop offset="0.563536" stop-color="#FF0000"/>
<stop offset="1" stop-color="#FF0000"/>
</linearGradient>
<linearGradient id="paint4_linear" x1="28.4418" y1="24.4692" x2="28.4418" y2="27.9009" gradientUnits="userSpaceOnUse">
<stop stop-color="#FF0000"/>
<stop offset="0.563536" stop-color="#FF0000"/>
<stop offset="1" stop-color="#FF0000"/>
</linearGradient>
<linearGradient id="paint5_linear" x1="25.081" y1="3.87939" x2="25.081" y2="30.1885" gradientUnits="userSpaceOnUse">
<stop stop-color="#FF0000"/>
<stop offset="0.563536" stop-color="#FF0000"/>
<stop offset="1" stop-color="#FF0000"/>
</linearGradient>
<linearGradient id="paint6_linear" x1="29.5607" y1="31.3325" x2="29.5607" y2="32.4763" gradientUnits="userSpaceOnUse">
<stop stop-color="#FF0000"/>
<stop offset="0.563536" stop-color="#FF0000"/>
<stop offset="1" stop-color="#FF0000"/>
</linearGradient>
<linearGradient id="paint7_linear" x1="14.4409" y1="17.606" x2="14.4409" y2="30.1886" gradientUnits="userSpaceOnUse">
<stop stop-color="#FF0000"/>
<stop offset="0.563536" stop-color="#FF0000"/>
<stop offset="1" stop-color="#FF0000"/>
</linearGradient>
<linearGradient id="paint8_linear" x1="22.2812" y1="31.3325" x2="22.2812" y2="32.4763" gradientUnits="userSpaceOnUse">
<stop stop-color="#FF0000"/>
<stop offset="0.563536" stop-color="#FF0000"/>
<stop offset="1" stop-color="#FF0000"/>
</linearGradient>
<linearGradient id="paint9_linear" x1="9.40079" y1="24.4692" x2="9.40079" y2="27.9009" gradientUnits="userSpaceOnUse">
<stop stop-color="#FF0000"/>
<stop offset="0.563536" stop-color="#FF0000"/>
<stop offset="1" stop-color="#FF0000"/>
</linearGradient>
<clipPath id="clip0">
<rect x="30" y="18" width="30" height="30" fill="white"/>
</clipPath>
</defs>
</svg>
