<svg width="56" height="48" viewBox="0 0 56 48" fill="none" xmlns="http://www.w3.org/2000/svg">
<path d="M38.7613 23.0769C38.7613 22.5674 38.3477 22.1539 37.8382 22.1539H34.7164L35.8951 19.7972C36.1232 19.3412 35.9385 18.7874 35.4816 18.5584C35.0256 18.3304 34.4708 18.5159 34.2438 18.9719L32.6524 22.1537H22.1542V13.8461C22.1542 13.3366 21.7407 12.923 21.2312 12.923C20.7217 12.923 20.3082 13.3366 20.3082 13.8461V22.1537H9.06499L7.36657 13.6651C7.26781 13.1656 6.78135 12.8398 6.28105 12.9414C5.78075 13.0411 5.45677 13.5276 5.55738 14.0269L7.40356 23.2576C7.48945 23.6897 7.86784 23.9998 8.30821 23.9998H20.4743L22.1727 32.4885C22.2595 32.9269 22.6453 33.2307 23.0764 33.2307C23.1365 33.2307 23.1974 33.2251 23.2583 33.2122C23.7586 33.1124 24.0825 32.626 23.9819 32.1266L22.3573 23.9998H37.8382C38.3477 23.9999 38.7613 23.5864 38.7613 23.0769Z" fill="#FF0000"/>
<path d="M25.8381 25.8459C25.3286 25.8459 24.915 26.2595 24.915 26.769C24.915 27.2785 25.3286 27.692 25.8381 27.692H26.7611C27.2716 27.692 27.6842 27.2785 27.6842 26.769C27.6842 26.2595 27.2716 25.8459 26.7611 25.8459H25.8381Z" fill="#FF0000"/>
<path d="M13.8459 7.38441H21.2305C21.74 7.38441 22.1536 6.97087 22.1536 6.46137C22.1536 5.95188 21.74 5.53833 21.2305 5.53833H13.8459C13.3364 5.53833 12.9229 5.95188 12.9229 6.46137C12.9229 6.97087 13.3364 7.38441 13.8459 7.38441Z" fill="#FF0000"/>
<path d="M43.3766 33.2305C41.8499 33.2305 40.6074 34.4729 40.6074 35.9997C40.6074 37.5265 41.8499 38.7689 43.3766 38.7689C44.9044 38.7689 46.1459 37.5265 46.1459 35.9997C46.1459 34.4729 44.9044 33.2305 43.3766 33.2305ZM43.3766 36.9228C42.868 36.9228 42.4536 36.5084 42.4536 35.9998C42.4536 35.4912 42.868 35.0768 43.3766 35.0768C43.8853 35.0768 44.2997 35.4912 44.2997 35.9998C44.2997 36.5084 43.8853 36.9228 43.3766 36.9228Z" fill="#FF0000"/>
<path d="M1.84619 31.3844V35.9999C1.84619 36.5093 2.25973 36.9229 2.76923 36.9229C3.27872 36.9229 3.69227 36.5093 3.69227 35.9999V30.4614C3.69227 29.9519 3.27872 29.5384 2.76923 29.5384H1.84619V20.3076H2.76923C3.27872 20.3076 3.69227 19.8941 3.69227 19.3846V13.0541C4.09662 11.7239 5.003 11.0769 6.4615 11.0769H28.607C30.8214 11.0769 32.9482 12.3019 34.331 14.401L39.8436 21.7284C40.0854 22.1678 41.2235 24.0001 43.3762 24.0001H46.1454C50.1064 24.0001 51.6774 26.1925 52.2884 27.6924H50.7607C50.2512 27.6924 49.8377 28.1059 49.8377 28.6154C49.8377 29.1249 50.2512 29.5385 50.7607 29.5385H52.7444L53.5022 34.2148C53.5668 34.4594 53.5456 34.6514 53.4413 34.7871C53.2992 34.9718 52.9954 35.077 52.6069 35.077H49.7638C49.3142 31.9506 46.6254 29.5386 43.3761 29.5386C39.813 29.5386 36.9146 32.4371 36.9146 36.0001C36.9146 39.5631 39.8131 42.4616 43.3761 42.4616C46.6253 42.4616 49.3142 40.0495 49.7638 36.9231H52.6069C53.5863 36.9231 54.4014 36.565 54.9035 35.9152C55.3623 35.3198 55.4999 34.549 55.3069 33.8336L54.4356 28.4346C53.8282 25.3986 51.3312 22.1539 46.1454 22.1539H43.3762C42.142 22.1539 41.4571 20.8321 41.4534 20.8247C41.4275 20.7721 41.397 20.7223 41.362 20.6761L35.8402 13.3395C34.1482 10.7669 31.4445 9.23083 28.607 9.23083H25.8378V7.38464H28.607C30.1864 7.38464 31.3762 6.19388 31.3762 4.61542C31.3762 2.24307 28.236 0 24.9147 0H7.38464C6.36652 0 5.53846 0.827956 5.53846 1.84619V5.53846C5.53846 6.55658 6.36641 7.38464 7.38464 7.38464H9.23083V9.23083H6.4616C4.15211 9.23083 2.48127 10.4872 1.87951 12.6785C1.85733 12.7579 1.8463 12.841 1.8463 12.9231V18.4616C0.827956 18.4613 0 19.2893 0 20.3075V29.5383C0 30.5564 0.827956 31.3844 1.84619 31.3844ZM43.3763 40.6152C40.8314 40.6152 38.7609 38.5447 38.7609 35.9997C38.7609 33.4549 40.8313 31.3843 43.3763 31.3843C45.9212 31.3843 47.9917 33.4548 47.9917 35.9997C47.9917 38.5447 45.9212 40.6152 43.3763 40.6152ZM7.38464 5.53824V1.84597H24.9148C27.2917 1.84597 29.5302 3.40593 29.5302 4.6152C29.5302 5.2955 29.054 5.53824 28.6072 5.53824H24.9149C24.4054 5.53824 23.9919 5.95179 23.9919 6.46128V9.23051H11.0769V6.46128C11.0769 5.95179 10.6634 5.53824 10.1539 5.53824H7.38464Z" fill="#FF0000"/>
<path d="M36.4127 46.2506L34.5665 45.3276C34.2111 45.1512 33.7819 45.2214 33.5013 45.5011L32.5783 46.4241C32.2174 46.785 32.2174 47.3685 32.5783 47.7293C32.9392 48.0903 33.5226 48.0903 33.8835 47.7293L34.3358 47.277L35.5874 47.9029C35.7194 47.9685 35.8607 47.9999 35.9991 47.9999C36.3379 47.9999 36.6637 47.8134 36.8262 47.4894C37.0543 47.0333 36.8687 46.4786 36.4127 46.2506Z" fill="#FF0000"/>
<path d="M54.7535 43.4315L51.9843 42.5085C51.7285 42.4244 51.4498 42.455 51.2172 42.5934L46.72 45.2916L43.2714 46.1537H39.6926C39.1831 46.1537 38.7695 46.5673 38.7695 47.0767C38.7695 47.5862 39.1831 47.9998 39.6926 47.9998H43.3848C43.4606 47.9998 43.5353 47.9906 43.6092 47.9721L47.3015 47.0491C47.3892 47.0269 47.4741 46.9918 47.5525 46.9448L51.8033 44.3943L54.17 45.1835C54.6537 45.345 55.1761 45.0829 55.3377 44.5992C55.4994 44.1154 55.2372 43.5931 54.7535 43.4315Z" fill="#FF0000"/>
<path d="M28.6154 46.1535H24.2179L22.5665 45.3274C22.3478 45.2194 22.0939 45.2 21.8622 45.2775L19.093 46.2006C18.6093 46.3621 18.3471 46.8845 18.5086 47.3683C18.6379 47.755 18.9979 47.9997 19.3846 47.9997C19.4805 47.9997 19.5794 47.9849 19.6763 47.9526L22.0828 47.1505L23.5873 47.9029C23.7148 47.9666 23.8569 47.9998 23.9999 47.9998H28.6153C29.1248 47.9998 29.5384 47.5863 29.5384 47.0768C29.5384 46.5673 29.125 46.1535 28.6154 46.1535Z" fill="#FF0000"/>
<path d="M11.9997 33.2305C10.4729 33.2305 9.23047 34.4729 9.23047 35.9997C9.23047 37.5265 10.4729 38.7689 11.9997 38.7689C13.5264 38.7689 14.7689 37.5265 14.7689 35.9997C14.7689 34.4729 13.5264 33.2305 11.9997 33.2305ZM11.9997 36.9228C11.4911 36.9228 11.0767 36.5084 11.0767 35.9998C11.0767 35.4912 11.4911 35.0768 11.9997 35.0768C12.5083 35.0768 12.9227 35.4912 12.9227 35.9998C12.9227 36.5084 12.5083 36.9228 11.9997 36.9228Z" fill="#FF0000"/>
<path d="M14.4 46.3383L10.7077 43.5691C10.5055 43.4177 10.2508 43.3559 10.0016 43.3974L4.46311 44.3204C4.27391 44.3518 4.09846 44.4422 3.96281 44.578L2.38716 46.1536H0.92304C0.413545 46.1536 0 46.5672 0 47.0767C0 47.5862 0.413545 47.9997 0.92304 47.9997H2.76923C3.01381 47.9997 3.24919 47.9028 3.42184 47.7293L5.05849 46.0926L9.91568 45.2831L13.2923 47.8151C13.4584 47.9397 13.6523 47.9997 13.8452 47.9997C14.1258 47.9997 14.4037 47.8723 14.5845 47.6305C14.8901 47.2226 14.808 46.6438 14.4 46.3383Z" fill="#FF0000"/>
<path d="M35.0682 35.9998C35.0682 35.4903 34.6547 35.0768 34.1452 35.0768H18.3873C17.9377 31.9504 15.2489 29.5383 11.9996 29.5383C8.43647 29.5383 5.53809 32.4368 5.53809 35.9998C5.53809 39.5628 8.43658 42.4613 11.9996 42.4613C15.2488 42.4613 17.9377 40.0493 18.3873 36.9229H34.1452C34.6547 36.923 35.0682 36.5094 35.0682 35.9998ZM11.9996 40.6152C9.4547 40.6152 7.38417 38.5448 7.38417 35.9998C7.38417 33.4549 9.4546 31.3844 11.9996 31.3844C14.5445 31.3844 16.615 33.4548 16.615 35.9998C16.615 38.5448 14.5446 40.6152 11.9996 40.6152Z" fill="#FF0000"/>
<path d="M3.69238 23.0768V26.7691C3.69238 27.2786 4.10593 27.6922 4.61542 27.6922C5.12492 27.6922 5.53846 27.2786 5.53846 26.7691V23.0768C5.53846 22.5674 5.12492 22.1538 4.61542 22.1538C4.10593 22.1537 3.69238 22.5672 3.69238 23.0768Z" fill="#FF0000"/>
</svg>
