<svg width="47" height="48" viewBox="0 0 47 48" fill="none" xmlns="http://www.w3.org/2000/svg">
<path d="M8.61595 4.7998H5.48253C5.04934 4.7998 4.69922 5.15821 4.69922 5.59977V10.3997C4.69922 10.8413 5.04934 11.1997 5.48253 11.1997H8.61586C9.04905 11.1997 9.39917 10.8413 9.39917 10.3997V5.59977C9.39926 5.15821 9.04914 4.7998 8.61595 4.7998ZM7.83255 9.59978H6.26593V6.39983H7.83264V9.59978H7.83255Z" fill="url(#paint0_linear)"/>
<path d="M21.1495 20.7998C20.7163 20.7998 20.3662 21.1582 20.3662 21.5998V27.9998C20.3662 28.4414 20.7163 28.7998 21.1495 28.7998C21.5827 28.7998 21.9328 28.4414 21.9328 27.9998V25.5998H25.0662V27.9998C25.0662 28.4414 25.4163 28.7998 25.8495 28.7998C26.2827 28.7998 26.6328 28.4414 26.6328 27.9998V21.5998C26.6328 21.1582 26.2827 20.7998 25.8495 20.7998C25.4163 20.7998 25.0662 21.1582 25.0662 21.5998V23.9998H21.9328V21.5998C21.9328 21.1582 21.5827 20.7998 21.1495 20.7998Z" fill="url(#paint1_linear)"/>
<path d="M33.6834 44.7998H11.7501C11.3169 44.7998 10.9668 45.1582 10.9668 45.5998V47.1998C10.9668 47.6414 11.3169 47.9998 11.7501 47.9998C12.1833 47.9998 12.5334 47.6414 12.5334 47.1998V46.3998H33.6834C34.1166 46.3998 34.4667 46.0414 34.4667 45.5999C34.4667 45.1583 34.1166 44.7998 33.6834 44.7998Z" fill="url(#paint2_linear)"/>
<path d="M8.61693 24H5.48351C5.05031 24 4.7002 24.3584 4.7002 24.8V26.4C4.7002 26.8416 5.05031 27.2 5.48351 27.2C5.9167 27.2 6.26681 26.8416 6.26681 26.4V25.6001H7.83353V29.6002C7.83353 30.0417 8.18364 30.4001 8.61684 30.4001C9.05003 30.4001 9.40015 30.0417 9.40015 29.6002V24.8001C9.40024 24.3584 9.05012 24 8.61693 24Z" fill="url(#paint3_linear)"/>
<path d="M3.91666 28.7998C0.0454389 28.7998 0 39.0958 0 39.1997C0 41.1317 1.34811 42.747 3.13327 43.119V47.1998C3.13327 47.6414 3.48338 47.9998 3.91656 47.9998C4.34975 47.9998 4.69986 47.6414 4.69986 47.1998V43.119C6.48501 42.747 7.83313 41.1317 7.83313 39.1997C7.83322 39.0958 7.78778 28.7998 3.91666 28.7998ZM3.91666 41.5997C2.62105 41.5997 1.56668 40.5229 1.56668 39.1997C1.56668 35.2142 2.61481 30.3997 3.91666 30.3997C5.21851 30.3997 6.26663 35.2142 6.26663 39.1997C6.26663 40.5229 5.21226 41.5997 3.91666 41.5997Z" fill="url(#paint4_linear)"/>
<path d="M8.61595 14.3999H5.48253C5.04934 14.3999 4.69922 14.7583 4.69922 15.1999V19.9998C4.69922 20.4414 5.04934 20.7998 5.48253 20.7998H8.61586C9.04905 20.7998 9.39917 20.4414 9.39917 19.9998V15.1999C9.39926 14.7583 9.04914 14.3999 8.61595 14.3999ZM7.83255 19.1999H6.26593V15.9999H7.83264V19.1999H7.83255Z" fill="url(#paint5_linear)"/>
<path d="M19.5835 11.1997C20.0167 11.1997 20.3668 10.8413 20.3668 10.3997V5.59977C20.3668 5.15821 20.0167 4.7998 19.5835 4.7998H16.4503C16.0171 4.7998 15.667 5.15821 15.667 5.59977V10.3997C15.667 10.8413 16.0171 11.1997 16.4503 11.1997H19.5835ZM17.2336 6.39973H18.8002V9.59968H17.2336V6.39973Z" fill="url(#paint6_linear)"/>
<path d="M15.667 34.4001C15.667 34.8416 16.0171 35.2 16.4503 35.2H18.8003V42.4C18.8003 42.8415 19.1504 43.2 19.5836 43.2C20.0168 43.2 20.3669 42.8415 20.3669 42.4V35.2H26.6336V42.4C26.6336 42.8415 26.9837 43.2 27.4169 43.2C27.8501 43.2 28.2002 42.8415 28.2002 42.4V35.2H30.5502C30.9834 35.2 31.3335 34.8416 31.3335 34.4001C31.3335 33.9585 30.9834 33.6001 30.5502 33.6001H16.4503C16.0171 33.6001 15.667 33.9585 15.667 34.4001Z" fill="url(#paint7_linear)"/>
<path d="M37.6006 29.5999C37.6006 30.0415 37.9507 30.3999 38.3839 30.3999H41.5172C41.9504 30.3999 42.3005 30.0415 42.3005 29.5999V24.8C42.3005 24.3584 41.9504 24 41.5172 24H38.3839C37.9507 24 37.6006 24.3584 37.6006 24.8V29.5999ZM39.1673 25.6H40.734V28.8H39.1673V25.6Z" fill="url(#paint8_linear)"/>
<path d="M37.6006 39.2C37.6006 39.6416 37.9507 40 38.3839 40H41.5172C41.9504 40 42.3005 39.6416 42.3005 39.2V34.4001C42.3005 33.9585 41.9504 33.6001 41.5172 33.6001H38.3839C37.9507 33.6001 37.6006 33.9585 37.6006 34.4001V39.2ZM39.1673 35.2001H40.734V38.4001H39.1673V35.2001Z" fill="url(#paint9_linear)"/>
<path d="M37.6006 19.9998C37.6006 20.4414 37.9507 20.7998 38.3839 20.7998H41.5172C41.9504 20.7998 42.3005 20.4414 42.3005 19.9998V15.1999C42.3005 14.7583 41.9504 14.3999 41.5172 14.3999H38.3839C37.9507 14.3999 37.6006 14.7583 37.6006 15.1999V19.9998ZM39.1673 15.9999H40.734V19.1999H39.1673V15.9999Z" fill="url(#paint10_linear)"/>
<path d="M38.3839 11.1997H41.5172C41.9504 11.1997 42.3005 10.8413 42.3005 10.3997V5.59977C42.3005 5.15821 41.9504 4.7998 41.5172 4.7998H38.3839C37.9507 4.7998 37.6006 5.15821 37.6006 5.59977V10.3997C37.6006 10.8413 37.9507 11.1997 38.3839 11.1997ZM39.1673 6.39973H40.734V9.59968H39.1673V6.39973Z" fill="url(#paint11_linear)"/>
<path d="M46.2166 0H0.783301C0.350112 0 0 0.358406 0 0.799969V26.4C0 26.8416 0.350112 27.2 0.783301 27.2C1.21649 27.2 1.5666 26.8416 1.5666 26.4V1.60003H45.4332V43.3472C45.1873 43.2576 44.9264 43.2 44.6499 43.2C44.5144 43.2 44.3796 43.212 44.2473 43.236C43.7076 42.2416 42.6774 41.6 41.5166 41.6C40.3557 41.6 39.3256 42.2416 38.7859 43.236C38.6535 43.212 38.5188 43.2 38.3833 43.2C37.0877 43.2 36.0333 44.2768 36.0333 45.6C36.0333 46.9232 37.0877 48 38.3833 48H44.6499C45.9455 48 46.9999 46.9232 46.9999 45.6V0.799969C46.9999 0.358406 46.6498 0 46.2166 0ZM44.6499 46.4H38.3832C37.9508 46.4 37.5999 46.0408 37.5999 45.6C37.5999 45.1592 37.9508 44.8 38.3832 44.8C38.5328 44.8 38.6761 44.844 38.8078 44.9304C39.0216 45.072 39.2903 45.0968 39.5269 45C39.7635 44.9016 39.9373 44.692 39.9961 44.4384C40.1614 43.7096 40.7857 43.2 41.5165 43.2C42.2474 43.2 42.8717 43.7096 43.0369 44.4384C43.0957 44.692 43.2695 44.9017 43.5061 45C43.7427 45.0968 44.0105 45.072 44.2252 44.9304C44.7352 44.5944 45.4331 45.0065 45.4331 45.6C45.4332 46.0408 45.0822 46.4 44.6499 46.4Z" fill="url(#paint12_linear)"/>
<path d="M22.944 38.6322C22.8022 38.7842 22.7168 38.9922 22.7168 39.2002C22.7168 39.4082 22.8022 39.6162 22.944 39.7682C23.0921 39.9122 23.2965 40.0002 23.5002 40.0002C23.7039 40.0002 23.9075 39.9122 24.0564 39.7682C24.1974 39.6163 24.2836 39.4082 24.2836 39.2002C24.2836 38.9922 24.1974 38.7843 24.0564 38.6322C23.7665 38.3361 23.2417 38.3361 22.944 38.6322Z" fill="url(#paint13_linear)"/>
<path d="M33.6831 14.3999H13.3165C12.8833 14.3999 12.5332 14.7583 12.5332 15.1999V42.3997C12.5332 42.8413 12.8833 43.1997 13.3165 43.1997C13.7497 43.1997 14.0998 42.8413 14.0998 42.3997V15.9998H32.8998V42.3997C32.8998 42.8413 33.2499 43.1997 33.6831 43.1997C34.1163 43.1997 34.4664 42.8413 34.4664 42.3997V15.1999C34.4665 14.7583 34.1163 14.3999 33.6831 14.3999Z" fill="url(#paint14_linear)"/>
<path d="M30.5504 11.1997C30.9836 11.1997 31.3337 10.8413 31.3337 10.3997V5.59977C31.3337 5.15821 30.9836 4.7998 30.5504 4.7998H27.4171C26.9839 4.7998 26.6338 5.15821 26.6338 5.59977V10.3997C26.6338 10.8413 26.9839 11.1997 27.4171 11.1997H30.5504ZM28.2004 6.39973H29.7671V9.59968H28.2004V6.39973Z" fill="url(#paint15_linear)"/>
<defs>
<linearGradient id="paint0_linear" x1="7.04919" y1="4.7998" x2="7.04919" y2="11.1997" gradientUnits="userSpaceOnUse">
<stop stop-color="#FF003D"/>
<stop offset="0.563536" stop-color="#FF0000"/>
<stop offset="1" stop-color="#FF3D00"/>
</linearGradient>
<linearGradient id="paint1_linear" x1="23.4995" y1="20.7998" x2="23.4995" y2="28.7998" gradientUnits="userSpaceOnUse">
<stop stop-color="#FF003D"/>
<stop offset="0.563536" stop-color="#FF0000"/>
<stop offset="1" stop-color="#FF3D00"/>
</linearGradient>
<linearGradient id="paint2_linear" x1="22.7167" y1="44.7998" x2="22.7167" y2="47.9998" gradientUnits="userSpaceOnUse">
<stop stop-color="#FF003D"/>
<stop offset="0.563536" stop-color="#FF0000"/>
<stop offset="1" stop-color="#FF3D00"/>
</linearGradient>
<linearGradient id="paint3_linear" x1="7.05017" y1="24" x2="7.05017" y2="30.4001" gradientUnits="userSpaceOnUse">
<stop stop-color="#FF003D"/>
<stop offset="0.563536" stop-color="#FF0000"/>
<stop offset="1" stop-color="#FF3D00"/>
</linearGradient>
<linearGradient id="paint4_linear" x1="3.91656" y1="28.7998" x2="3.91656" y2="47.9998" gradientUnits="userSpaceOnUse">
<stop stop-color="#FF003D"/>
<stop offset="0.563536" stop-color="#FF0000"/>
<stop offset="1" stop-color="#FF3D00"/>
</linearGradient>
<linearGradient id="paint5_linear" x1="7.04919" y1="14.3999" x2="7.04919" y2="20.7998" gradientUnits="userSpaceOnUse">
<stop stop-color="#FF003D"/>
<stop offset="0.563536" stop-color="#FF0000"/>
<stop offset="1" stop-color="#FF3D00"/>
</linearGradient>
<linearGradient id="paint6_linear" x1="18.0169" y1="4.7998" x2="18.0169" y2="11.1997" gradientUnits="userSpaceOnUse">
<stop stop-color="#FF003D"/>
<stop offset="0.563536" stop-color="#FF0000"/>
<stop offset="1" stop-color="#FF3D00"/>
</linearGradient>
<linearGradient id="paint7_linear" x1="23.5002" y1="33.6001" x2="23.5002" y2="43.2" gradientUnits="userSpaceOnUse">
<stop stop-color="#FF003D"/>
<stop offset="0.563536" stop-color="#FF0000"/>
<stop offset="1" stop-color="#FF3D00"/>
</linearGradient>
<linearGradient id="paint8_linear" x1="39.9506" y1="24" x2="39.9506" y2="30.3999" gradientUnits="userSpaceOnUse">
<stop stop-color="#FF003D"/>
<stop offset="0.563536" stop-color="#FF0000"/>
<stop offset="1" stop-color="#FF3D00"/>
</linearGradient>
<linearGradient id="paint9_linear" x1="39.9506" y1="33.6001" x2="39.9506" y2="40" gradientUnits="userSpaceOnUse">
<stop stop-color="#FF003D"/>
<stop offset="0.563536" stop-color="#FF0000"/>
<stop offset="1" stop-color="#FF3D00"/>
</linearGradient>
<linearGradient id="paint10_linear" x1="39.9506" y1="14.3999" x2="39.9506" y2="20.7998" gradientUnits="userSpaceOnUse">
<stop stop-color="#FF003D"/>
<stop offset="0.563536" stop-color="#FF0000"/>
<stop offset="1" stop-color="#FF3D00"/>
</linearGradient>
<linearGradient id="paint11_linear" x1="39.9506" y1="4.7998" x2="39.9506" y2="11.1997" gradientUnits="userSpaceOnUse">
<stop stop-color="#FF003D"/>
<stop offset="0.563536" stop-color="#FF0000"/>
<stop offset="1" stop-color="#FF3D00"/>
</linearGradient>
<linearGradient id="paint12_linear" x1="23.4999" y1="0" x2="23.4999" y2="48" gradientUnits="userSpaceOnUse">
<stop stop-color="#FF003D"/>
<stop offset="0.563536" stop-color="#FF0000"/>
<stop offset="1" stop-color="#FF3D00"/>
</linearGradient>
<linearGradient id="paint13_linear" x1="23.5002" y1="38.4102" x2="23.5002" y2="40.0002" gradientUnits="userSpaceOnUse">
<stop stop-color="#FF003D"/>
<stop offset="0.563536" stop-color="#FF0000"/>
<stop offset="1" stop-color="#FF3D00"/>
</linearGradient>
<linearGradient id="paint14_linear" x1="23.4998" y1="14.3999" x2="23.4998" y2="43.1997" gradientUnits="userSpaceOnUse">
<stop stop-color="#FF003D"/>
<stop offset="0.563536" stop-color="#FF0000"/>
<stop offset="1" stop-color="#FF3D00"/>
</linearGradient>
<linearGradient id="paint15_linear" x1="28.9838" y1="4.7998" x2="28.9838" y2="11.1997" gradientUnits="userSpaceOnUse">
<stop stop-color="#FF003D"/>
<stop offset="0.563536" stop-color="#FF0000"/>
<stop offset="1" stop-color="#FF3D00"/>
</linearGradient>
</defs>
</svg>
