<svg width="57" height="43" viewBox="0 0 57 43" fill="none" xmlns="http://www.w3.org/2000/svg">
<path d="M45.8043 33.6523H1.8696V1.86974H5.6087V30.848C5.6087 31.3639 6.02749 31.7827 6.54345 31.7827C7.0594 31.7827 7.47819 31.3639 7.47819 30.848V0.934991C7.47819 0.419034 7.0594 0.000244162 6.54345 0.000244162H0.934747C0.41879 0.000134617 0 0.418925 0 0.934991V34.5872C0 35.1031 0.41879 35.5219 0.934747 35.5219H45.8043C46.3213 35.5219 46.7391 35.1031 46.7391 34.5872C46.7391 34.0712 46.3213 33.6523 45.8043 33.6523Z" fill="url(#paint0_linear)"/>
<path d="M34.861 8.68725C34.4956 9.0528 34.4956 9.64358 34.861 10.009L40.4697 15.6177C40.652 15.8 40.8913 15.8916 41.1306 15.8916C41.3699 15.8916 41.6092 15.8 41.7915 15.6177C42.157 15.2522 42.157 14.6614 41.7915 14.2959L36.1828 8.68725C35.8172 8.3217 35.2264 8.3217 34.861 8.68725Z" fill="url(#paint1_linear)"/>
<path d="M36.4562 41.1307H28.9779V38.3264C28.9779 37.8104 28.5591 37.3916 28.0431 37.3916C27.5272 37.3916 27.1084 37.8104 27.1084 38.3264V41.1307H19.6301C19.1141 41.1307 18.6953 41.5495 18.6953 42.0654C18.6953 42.5814 19.1141 43.0002 19.6301 43.0002H36.4562C36.9731 43.0002 37.3909 42.5814 37.3909 42.0654C37.3909 41.5495 36.9731 41.1307 36.4562 41.1307Z" fill="url(#paint2_linear)"/>
<path d="M31.7829 12.1521C32.0222 12.1521 32.2615 12.0605 32.4438 11.8783C32.8092 11.5127 32.8092 10.9219 32.4438 10.5565L31.509 9.62174C31.1435 9.2563 30.5527 9.2563 30.1872 9.62174C29.8217 9.98729 29.8217 10.5781 30.1872 10.9435L31.122 11.8783C31.3043 12.0604 31.5436 12.1521 31.7829 12.1521Z" fill="url(#paint3_linear)"/>
<path d="M42.0653 11.2173C42.3047 11.2173 42.5439 11.1258 42.7262 10.9435C43.0917 10.5779 43.0917 9.98715 42.7262 9.62171L40.8566 7.75211C40.491 7.38667 39.9003 7.38667 39.5348 7.75211C39.1694 8.11766 39.1694 8.70844 39.5348 9.07388L41.4044 10.9435C41.5867 11.1258 41.826 11.2173 42.0653 11.2173Z" fill="url(#paint4_linear)"/>
<path d="M55.152 0H10.2824C9.76645 0 9.34766 0.41879 9.34766 0.934746C9.34766 1.4507 9.76645 1.86949 10.2824 1.86949H54.2173V33.6521H50.4781V4.67395C50.4781 4.158 50.0602 3.73921 49.5433 3.73921C49.0264 3.73921 48.6086 4.158 48.6086 4.67395V34.5871C48.6086 35.103 49.0264 35.5218 49.5433 35.5218H55.152C55.6689 35.5218 56.0868 35.103 56.0868 34.5871V0.934856C56.0868 0.41879 55.6689 0 55.152 0Z" fill="url(#paint5_linear)"/>
<path d="M33.9264 14.6826L38.6004 19.3566C38.7827 19.5388 39.022 19.6304 39.2613 19.6304C39.5006 19.6304 39.7399 19.5388 39.9221 19.3566C40.2876 18.9911 40.2876 18.4002 39.9221 18.0348L35.2482 13.3608C34.8826 12.9953 34.2919 12.9953 33.9264 13.3608C33.561 13.7264 33.561 14.3172 33.9264 14.6826Z" fill="url(#paint6_linear)"/>
<defs>
<linearGradient id="paint0_linear" x1="23.3695" y1="0.000244141" x2="23.3695" y2="35.5219" gradientUnits="userSpaceOnUse">
<stop stop-color="#FF003D"/>
<stop offset="0.563536" stop-color="#FF0000"/>
<stop offset="1" stop-color="#FF3D00"/>
</linearGradient>
<linearGradient id="paint1_linear" x1="38.3263" y1="8.41309" x2="38.3263" y2="15.8916" gradientUnits="userSpaceOnUse">
<stop stop-color="#FF003D"/>
<stop offset="0.563536" stop-color="#FF0000"/>
<stop offset="1" stop-color="#FF3D00"/>
</linearGradient>
<linearGradient id="paint2_linear" x1="28.0431" y1="37.3916" x2="28.0431" y2="43.0002" gradientUnits="userSpaceOnUse">
<stop stop-color="#FF003D"/>
<stop offset="0.563536" stop-color="#FF0000"/>
<stop offset="1" stop-color="#FF3D00"/>
</linearGradient>
<linearGradient id="paint3_linear" x1="31.3155" y1="9.34766" x2="31.3155" y2="12.1521" gradientUnits="userSpaceOnUse">
<stop stop-color="#FF003D"/>
<stop offset="0.563536" stop-color="#FF0000"/>
<stop offset="1" stop-color="#FF3D00"/>
</linearGradient>
<linearGradient id="paint4_linear" x1="41.1306" y1="7.47803" x2="41.1306" y2="11.2173" gradientUnits="userSpaceOnUse">
<stop stop-color="#FF003D"/>
<stop offset="0.563536" stop-color="#FF0000"/>
<stop offset="1" stop-color="#FF3D00"/>
</linearGradient>
<linearGradient id="paint5_linear" x1="32.7172" y1="0" x2="32.7172" y2="35.5218" gradientUnits="userSpaceOnUse">
<stop stop-color="#FF003D"/>
<stop offset="0.563536" stop-color="#FF0000"/>
<stop offset="1" stop-color="#FF3D00"/>
</linearGradient>
<linearGradient id="paint6_linear" x1="36.9243" y1="13.0867" x2="36.9243" y2="19.6304" gradientUnits="userSpaceOnUse">
<stop stop-color="#FF003D"/>
<stop offset="0.563536" stop-color="#FF0000"/>
<stop offset="1" stop-color="#FF3D00"/>
</linearGradient>
</defs>
</svg>
