<svg width="63" height="52" viewBox="0 0 63 52" fill="none" xmlns="http://www.w3.org/2000/svg">
<path d="M10.2442 34.9873H1.61625C1.27545 34.9873 1 35.2693 1 35.6167C1 35.9641 1.27545 36.246 1.61625 36.246H10.2442C10.585 36.246 10.8604 35.9641 10.8604 35.6167C10.8604 35.2693 10.585 34.9873 10.2442 34.9873Z" fill="url(#paint0_linear)" stroke="#FF0000" stroke-width="0.3"/>
<path d="M4.08142 29.9519C4.42222 29.9519 4.69767 29.67 4.69767 29.3226C4.69767 28.9752 4.42222 28.6932 4.08142 28.6932C3.04419 28.6932 2.23258 27.8637 2.23258 26.805V24.9169H2.84884C3.18964 24.9169 3.46509 24.6349 3.46509 24.2875C3.46509 23.9401 3.18964 23.6581 2.84884 23.6581H2.23258V14.8466H5.314C5.6548 14.8466 5.93025 14.5646 5.93025 14.2172C5.93025 13.8698 5.6548 13.5878 5.314 13.5878H2.23258V7.92332C2.23258 6.88232 3.0621 6.03515 4.08142 6.03515H18.8721C19.2129 6.03515 19.4884 5.75318 19.4884 5.40578V3.51754C19.4884 2.10583 18.4056 1 17.0233 1C15.6637 1 14.5582 2.12914 14.5582 3.51754V4.77634H4.08142C2.38229 4.77634 1 6.18805 1 7.92325V26.805C1 28.5698 2.35333 29.9519 4.08142 29.9519ZM15.7907 3.51754C15.7907 2.82334 16.3435 2.25873 17.0233 2.25873C17.7265 2.25873 18.2558 2.80003 18.2558 3.51754V4.77634H15.7907V3.51754Z" fill="url(#paint1_linear)" stroke="#FF0000" stroke-width="0.3"/>
<path d="M20.1042 34.9873H13.9414C13.6006 34.9873 13.3252 35.2693 13.3252 35.6167C13.3252 35.9641 13.6006 36.246 13.9414 36.246H20.1042C20.445 36.246 20.7205 35.9641 20.7205 35.6167C20.7205 35.2693 20.445 34.9873 20.1042 34.9873Z" fill="url(#paint2_linear)" stroke="#FF0000" stroke-width="0.3"/>
<path d="M10.2434 18.6224H12.7085C13.0493 18.6224 13.3248 18.3405 13.3248 17.9931V16.1049H15.1736C15.5144 16.1049 15.7899 15.8229 15.7899 15.4755V12.9579C15.7899 12.6105 15.5144 12.3286 15.1736 12.3286H13.3248V10.4404C13.3248 10.093 13.0493 9.81104 12.7085 9.81104H10.2434C9.90264 9.81104 9.6272 10.093 9.6272 10.4404V12.3286H7.77836C7.43756 12.3286 7.16211 12.6105 7.16211 12.9579V15.4755C7.16211 15.8229 7.43756 16.1048 7.77836 16.1048H9.6272V17.993C9.6272 18.3405 9.90264 18.6224 10.2434 18.6224ZM8.39462 14.8461V13.5873H10.2434C10.5843 13.5873 10.8597 13.3053 10.8597 12.9579V11.0698H12.0923V12.9579C12.0923 13.3053 12.3677 13.5873 12.7085 13.5873H14.5574V14.8461H12.7085C12.3677 14.8461 12.0923 15.1281 12.0923 15.4755V17.3636H10.8597V15.4755C10.8597 15.1281 10.5843 14.8461 10.2434 14.8461H8.39462Z" fill="url(#paint3_linear)" stroke="#FF0000" stroke-width="0.3"/>
<path d="M31.1985 27.4341C30.1791 27.4341 29.3496 28.2813 29.3496 29.3223C29.3496 30.3633 30.1791 31.2104 31.1985 31.2104C32.2178 31.2104 33.0473 30.3633 33.0473 29.3223C33.0473 28.2813 32.2178 27.4341 31.1985 27.4341ZM31.1985 29.9516C30.8583 29.9516 30.5822 29.6691 30.5822 29.3223C30.5822 28.9754 30.8583 28.6929 31.1985 28.6929C31.5386 28.6929 31.8147 28.9754 31.8147 29.3223C31.8148 29.6691 31.5387 29.9516 31.1985 29.9516Z" fill="url(#paint4_linear)" stroke="#FF0000" stroke-width="0.3"/>
<path d="M37.179 19.4362L35.4652 17.6859L33.6613 7.86112C33.6287 6.15424 32.2599 4.77588 30.5806 4.77588H21.3364C20.9956 4.77588 20.7201 5.05785 20.7201 5.40525V13.5873H17.6387C17.2979 13.5873 17.0225 13.8693 17.0225 14.2167C17.0225 14.5641 17.2979 14.846 17.6387 14.846H20.7201V16.7342C20.7201 17.8633 21.4633 18.6224 22.569 18.6224H34.6394L36.3077 20.3262C36.659 20.6849 36.7422 21.51 36.7434 21.7693V23.6575H36.1271C35.7863 23.6575 35.5108 23.9395 35.5108 24.2869C35.5108 24.6343 35.7863 24.9163 36.1271 24.9163H36.7433V28.6926H35.4615C35.1613 26.5609 33.3662 24.9163 31.1968 24.9163C28.8186 24.9163 26.8829 26.8926 26.8829 29.322C26.8829 31.7514 28.8186 33.7277 31.1968 33.7277C33.3661 33.7277 35.1613 32.083 35.4615 29.9513H37.3596C37.7005 29.9513 37.9759 29.6694 37.9759 29.322V21.7693C37.9759 21.6139 37.9537 20.2267 37.179 19.4362ZM30.9614 17.3636L31.7484 15.7567C31.9007 15.4458 31.7768 15.0682 31.4723 14.912C31.1685 14.7566 30.7987 14.8831 30.6453 15.194L29.5834 17.3635H22.569C22.1542 17.3635 21.9527 17.1577 21.9527 16.7341V6.03454H30.5806C31.5826 6.03454 32.4294 6.89933 32.4294 7.92271C32.4294 7.96173 32.4331 8.00074 32.4405 8.03851L34.1526 17.3636H30.9614ZM31.1968 32.4689C29.4978 32.4689 28.1154 31.0572 28.1154 29.322C28.1154 27.5868 29.4977 26.175 31.1968 26.175C32.8959 26.175 34.2782 27.5867 34.2782 29.322C34.2782 31.0572 32.8959 32.4689 31.1968 32.4689Z" fill="url(#paint5_linear)" stroke="#FF0000" stroke-width="0.3"/>
<path d="M25.0353 19.8818C24.6945 19.8818 24.419 20.1638 24.419 20.5112V28.6933H14.5093C14.2091 26.5615 12.4139 24.9169 10.2446 24.9169C7.86638 24.9169 5.93066 26.8932 5.93066 29.3226C5.93066 31.7521 7.86638 33.7283 10.2446 33.7283C12.4139 33.7283 14.2091 32.0837 14.5093 29.952H25.0353C25.3761 29.952 25.6515 29.67 25.6515 29.3226V20.5112C25.6515 20.1638 25.3761 19.8818 25.0353 19.8818ZM10.2446 32.4696C8.54554 32.4696 7.16317 31.0579 7.16317 29.3226C7.16317 27.5874 8.54547 26.1756 10.2446 26.1756C11.9436 26.1756 13.326 27.5874 13.326 29.3226C13.326 31.0579 11.9436 32.4696 10.2446 32.4696Z" fill="url(#paint6_linear)" stroke="#FF0000" stroke-width="0.3"/>
<path d="M25.0354 34.9873H23.8028C23.462 34.9873 23.1865 35.2693 23.1865 35.6167C23.1865 35.9641 23.462 36.246 23.8028 36.246H25.0354C25.3762 36.246 25.6516 35.9641 25.6516 35.6167C25.6516 35.2693 25.3762 34.9873 25.0354 34.9873Z" fill="url(#paint7_linear)" stroke="#FF0000" stroke-width="0.3"/>
<path d="M10.2453 27.4341C9.22601 27.4341 8.39648 28.2813 8.39648 29.3223C8.39648 30.3633 9.22601 31.2104 10.2453 31.2104C11.2646 31.2104 12.0942 30.3633 12.0942 29.3223C12.0942 28.2813 11.2646 27.4341 10.2453 27.4341ZM10.2453 29.9516C9.90517 29.9516 9.62907 29.6691 9.62907 29.3223C9.62907 28.9754 9.90517 28.6929 10.2453 28.6929C10.5855 28.6929 10.8616 28.9754 10.8616 29.3223C10.8616 29.6691 10.5855 29.9516 10.2453 29.9516Z" fill="url(#paint8_linear)" stroke="#FF0000" stroke-width="0.3"/>
<path d="M62.5344 35.0967C62.7805 34.8185 62.9364 34.481 62.9841 34.1235C63.0318 33.7661 62.9693 33.4034 62.8038 33.0777C62.6384 32.752 62.3768 32.4767 62.0495 32.2839C61.7223 32.0911 61.3428 31.9888 60.9555 31.9888C60.5681 31.9888 60.1886 32.0911 59.8614 32.2839C59.5342 32.4767 59.2726 32.752 59.1071 33.0777C58.9416 33.4034 58.8791 33.7661 58.9268 34.1235C58.9745 34.481 59.1304 34.8185 59.3765 35.0967L59.1108 35.3437C59.0475 35.4025 58.9973 35.4724 58.9631 35.5492C58.9289 35.6261 58.9112 35.7085 58.9112 35.7917V36.9026L48.0087 34.6499V33.8909C48.0087 33.7229 47.9369 33.5618 47.8091 33.4429C47.6813 33.3241 47.508 33.2574 47.3273 33.2574C47.1466 33.2574 46.9733 33.3241 46.8455 33.4429C46.7177 33.5618 46.6459 33.7229 46.6459 33.8909V34.5245H38.469V33.8909C38.469 33.7229 38.3972 33.5618 38.2694 33.4429C38.1416 33.3241 37.9683 33.2574 37.7876 33.2574C37.6069 33.2574 37.4336 33.3241 37.3058 33.4429C37.178 33.5618 37.1062 33.7229 37.1062 33.8909V34.6499L26.2037 36.9026V35.7917C26.2037 35.7085 26.1861 35.6261 26.1518 35.5492C26.1176 35.4724 26.0674 35.4025 26.0041 35.3437L25.7384 35.0967C25.9845 34.8185 26.1404 34.481 26.1881 34.1235C26.2358 33.7661 26.1733 33.4034 26.0078 33.0777C25.8424 32.752 25.5808 32.4767 25.2535 32.2839C24.9263 32.0911 24.5469 31.9888 24.1595 31.9888C23.7721 31.9888 23.3926 32.0911 23.0654 32.2839C22.7382 32.4767 22.4766 32.752 22.3111 33.0777C22.1456 33.4034 22.0831 33.7661 22.1308 34.1235C22.1785 34.481 22.3344 34.8185 22.5805 35.0967L22.3148 35.3437C22.2515 35.4025 22.2013 35.4724 22.1671 35.5492C22.1329 35.6261 22.1152 35.7085 22.1152 35.7917V49.5723C24.0232 49.5723 24.955 49.9333 25.9415 50.3156C27.0083 50.7286 28.1116 51.1563 30.2921 51.1563C32.4726 51.1563 33.5757 50.7286 34.6425 50.3156C35.6288 49.9333 36.5611 49.5723 38.4685 49.5723C40.3759 49.5723 41.3083 49.9333 42.2949 50.3156C43.3617 50.7286 44.4649 51.1563 46.6453 51.1563C48.8257 51.1563 49.9291 50.7286 50.9959 50.3156C51.9826 49.9333 52.9148 49.5723 54.8228 49.5723C56.7307 49.5723 57.6626 49.9333 58.6492 50.3156C59.7159 50.7286 60.8192 51.1563 62.9997 51.1563V35.7917C62.9997 35.7085 62.9821 35.6261 62.9478 35.5492C62.9136 35.4724 62.8634 35.4025 62.8001 35.3437L62.5344 35.0967ZM60.9555 33.2574C61.0902 33.2574 61.222 33.2945 61.334 33.3641C61.4461 33.4338 61.5334 33.5327 61.585 33.6485C61.6366 33.7643 61.6501 33.8916 61.6238 34.0146C61.5975 34.1375 61.5326 34.2504 61.4373 34.339C61.342 34.4276 61.2206 34.4879 61.0884 34.5124C60.9562 34.5368 60.8192 34.5243 60.6947 34.4763C60.5702 34.4284 60.4638 34.3471 60.3889 34.2429C60.314 34.1388 60.274 34.0163 60.274 33.8909C60.2743 33.723 60.3461 33.5619 60.4739 33.4431C60.6016 33.3244 60.7748 33.2575 60.9555 33.2574ZM56.1856 37.6375L58.9112 38.2007V40.6721L56.1856 40.0051V37.6375ZM52.0972 38.9597V36.7928L54.8228 37.356V39.6717L52.0948 39.0042C52.0959 38.9894 52.0972 38.9747 52.0972 38.9597ZM48.0087 35.948L50.7343 36.5112V38.6713L48.0087 38.0044V35.948ZM43.2389 35.7917H46.6459V37.6925H43.2389V35.7917ZM38.469 35.7917H41.8761V37.6925H38.469V35.7917ZM34.3806 36.5112L37.1062 35.948V38.0044L34.3806 38.6713V36.5112ZM30.2921 37.356L33.0178 36.7928V38.9597C33.0178 38.9747 33.019 38.9894 33.0201 39.0042L30.2921 39.6717V37.356ZM26.2037 38.2007L28.9293 37.6375V40.0051L26.2037 40.672V38.2007ZM26.2037 44.0284H30.2921V42.7612H26.2037V41.9824L38.5572 38.9597H46.5577L58.9112 41.9824V42.7612H54.8228V44.0284H58.9112V44.662H56.1856V45.2016C55.7329 45.1572 55.278 45.1357 54.8228 45.1372C54.6889 45.1372 54.559 45.1387 54.4331 45.1419C52.9341 43.5945 51.1021 42.3573 49.0558 41.5106C47.0095 40.6638 44.7946 40.2265 42.5549 40.2268C40.3151 40.2272 38.1004 40.6653 36.0544 41.5127C34.0085 42.3601 32.1769 43.5979 30.6785 45.1458L29.1982 46.6754C27.9859 46.5666 27.2426 46.2789 26.4657 45.9778L26.34 45.9291H28.9293V44.662H26.2037V44.0284ZM52.7076 45.3051C51.7904 45.4674 51.124 45.7252 50.4718 45.9782C49.4852 46.3601 48.5533 46.7211 46.6453 46.7211C44.7373 46.7211 43.8055 46.3601 42.819 45.9778C41.7521 45.5648 40.649 45.1372 38.4685 45.1372C36.288 45.1372 35.1849 45.5648 34.1181 45.9779C33.2631 46.3091 32.4486 46.6243 31.0051 46.7025L31.6912 45.9935C33.0041 44.6372 34.5971 43.5406 36.3755 42.769C38.1539 41.9974 40.0811 41.5667 42.0423 41.5024C44.0035 41.4382 45.9586 41.7418 47.7909 42.3951C49.6233 43.0484 51.2954 44.038 52.7076 45.3051ZM24.1595 33.2574C24.2942 33.2574 24.426 33.2945 24.538 33.3641C24.6501 33.4338 24.7374 33.5327 24.789 33.6485C24.8406 33.7643 24.8541 33.8916 24.8278 34.0146C24.8015 34.1375 24.7366 34.2504 24.6413 34.339C24.546 34.4276 24.4246 34.4879 24.2924 34.5124C24.1602 34.5368 24.0232 34.5243 23.8987 34.4763C23.7742 34.4284 23.6678 34.3471 23.5929 34.2429C23.518 34.1388 23.4781 34.0163 23.4781 33.8909C23.4783 33.723 23.5501 33.5619 23.6779 33.4431C23.8056 33.3244 23.9788 33.2575 24.1595 33.2574ZM23.4781 36.0541L23.7602 35.7917H24.5587L24.8409 36.0541V45.4345C24.3937 45.3244 23.9381 45.2465 23.4781 45.2015V36.0541ZM61.6369 49.8153C60.5801 49.6906 59.8908 49.4239 59.1731 49.1458C58.1062 48.7328 57.0033 48.3051 54.8228 48.3051C52.6423 48.3051 51.5389 48.7328 50.4721 49.1458C49.4852 49.528 48.5533 49.8891 46.6453 49.8891C44.7373 49.8891 43.8055 49.528 42.819 49.1458C41.7521 48.7328 40.649 48.3051 38.4685 48.3051C36.288 48.3051 35.1849 48.7328 34.1181 49.1459C33.1315 49.528 32.2001 49.8891 30.2921 49.8891C28.3842 49.8891 27.4524 49.528 26.4659 49.1458C25.6482 48.829 24.808 48.5043 23.4782 48.3696V46.4781C24.5348 46.6029 25.2243 46.8695 25.9417 47.1476C27.0083 47.5606 28.1116 47.9883 30.2921 47.9883C32.4726 47.9883 33.5757 47.5606 34.6425 47.1476C35.6288 46.7654 36.5611 46.4043 38.4685 46.4043C40.3759 46.4043 41.3083 46.7654 42.2949 47.1476C43.3617 47.5606 44.4649 47.9883 46.6453 47.9883C48.8257 47.9883 49.9291 47.5606 50.9959 47.1476C51.9826 46.7654 52.9148 46.4043 54.8228 46.4043C56.7307 46.4043 57.6626 46.7654 58.6492 47.1476C59.4669 47.4644 60.3072 47.7891 61.6371 47.9238L61.6369 49.8153ZM61.6369 46.6474C61.1742 46.5944 60.718 46.5011 60.274 46.3689V36.0541L60.5562 35.7917H61.3547L61.6369 36.0541V46.6474Z" fill="#FF0000"/>
<defs>
<linearGradient id="paint0_linear" x1="5.93022" y1="34.9873" x2="5.93022" y2="36.246" gradientUnits="userSpaceOnUse">
<stop stop-color="#FF0000"/>
<stop offset="0.563536" stop-color="#FF0000"/>
<stop offset="1" stop-color="#FF0000"/>
</linearGradient>
<linearGradient id="paint1_linear" x1="10.2442" y1="1" x2="10.2442" y2="29.9519" gradientUnits="userSpaceOnUse">
<stop stop-color="#FF0000"/>
<stop offset="0.563536" stop-color="#FF0000"/>
<stop offset="1" stop-color="#FF0000"/>
</linearGradient>
<linearGradient id="paint2_linear" x1="17.0228" y1="34.9873" x2="17.0228" y2="36.246" gradientUnits="userSpaceOnUse">
<stop stop-color="#FF0000"/>
<stop offset="0.563536" stop-color="#FF0000"/>
<stop offset="1" stop-color="#FF0000"/>
</linearGradient>
<linearGradient id="paint3_linear" x1="11.476" y1="9.81104" x2="11.476" y2="18.6224" gradientUnits="userSpaceOnUse">
<stop stop-color="#FF0000"/>
<stop offset="0.563536" stop-color="#FF0000"/>
<stop offset="1" stop-color="#FF0000"/>
</linearGradient>
<linearGradient id="paint4_linear" x1="31.1985" y1="27.4341" x2="31.1985" y2="31.2104" gradientUnits="userSpaceOnUse">
<stop stop-color="#FF0000"/>
<stop offset="0.563536" stop-color="#FF0000"/>
<stop offset="1" stop-color="#FF0000"/>
</linearGradient>
<linearGradient id="paint5_linear" x1="27.4992" y1="4.77588" x2="27.4992" y2="33.7277" gradientUnits="userSpaceOnUse">
<stop stop-color="#FF0000"/>
<stop offset="0.563536" stop-color="#FF0000"/>
<stop offset="1" stop-color="#FF0000"/>
</linearGradient>
<linearGradient id="paint6_linear" x1="15.7911" y1="19.8818" x2="15.7911" y2="33.7283" gradientUnits="userSpaceOnUse">
<stop stop-color="#FF0000"/>
<stop offset="0.563536" stop-color="#FF0000"/>
<stop offset="1" stop-color="#FF0000"/>
</linearGradient>
<linearGradient id="paint7_linear" x1="24.4191" y1="34.9873" x2="24.4191" y2="36.246" gradientUnits="userSpaceOnUse">
<stop stop-color="#FF0000"/>
<stop offset="0.563536" stop-color="#FF0000"/>
<stop offset="1" stop-color="#FF0000"/>
</linearGradient>
<linearGradient id="paint8_linear" x1="10.2453" y1="27.4341" x2="10.2453" y2="31.2104" gradientUnits="userSpaceOnUse">
<stop stop-color="#FF0000"/>
<stop offset="0.563536" stop-color="#FF0000"/>
<stop offset="1" stop-color="#FF0000"/>
</linearGradient>
</defs>
</svg>
