<svg width="50" height="50" viewBox="0 0 50 50" fill="none" xmlns="http://www.w3.org/2000/svg">
<path d="M12.3047 18.1641H21.0937C21.633 18.1641 22.0702 17.7269 22.0702 17.1875C22.0702 16.6481 21.633 16.2109 21.0937 16.2109H12.3047C11.7653 16.2109 11.3281 16.6481 11.3281 17.1875C11.3281 17.7269 11.7654 18.1641 12.3047 18.1641Z" fill="#FF0000"/>
<path d="M12.3047 23.0469H21.0937C21.633 23.0469 22.0702 22.6097 22.0702 22.0703C22.0702 21.531 21.633 21.0938 21.0937 21.0938H12.3047C11.7653 21.0938 11.3281 21.531 11.3281 22.0703C11.3281 22.6097 11.7654 23.0469 12.3047 23.0469Z" fill="#FF0000"/>
<path d="M12.3047 27.9297H21.0937C21.633 27.9297 22.0702 27.4925 22.0702 26.9531C22.0702 26.4138 21.633 25.9766 21.0937 25.9766H12.3047C11.7653 25.9766 11.3281 26.4138 11.3281 26.9531C11.3281 27.4925 11.7654 27.9297 12.3047 27.9297Z" fill="#FF0000"/>
<path d="M31.8359 30.127H33.5449V31.8359C33.5449 32.9129 34.4211 33.7891 35.498 33.7891H37.9395C39.0164 33.7891 39.8926 32.9129 39.8926 31.8359V30.127H41.6016C42.6785 30.127 43.5547 29.2508 43.5547 28.1738V25.7324C43.5547 24.6555 42.6785 23.7793 41.6016 23.7793H39.8926V22.0703C39.8926 20.9934 39.0164 20.1172 37.9395 20.1172H35.498C34.4211 20.1172 33.5449 20.9934 33.5449 22.0703V23.7793H31.8359C30.759 23.7793 29.8828 24.6555 29.8828 25.7324V28.1738C29.8829 29.2509 30.7591 30.127 31.8359 30.127ZM34.5215 25.7324C35.0608 25.7324 35.498 25.2952 35.498 24.7559L35.4979 22.0703H37.9395V24.7559C37.9395 25.2952 38.3767 25.7324 38.916 25.7324H41.6016V28.1738H38.916C38.3767 28.1738 37.9395 28.611 37.9395 29.1504V31.8359H35.498V29.1504C35.498 28.611 35.0608 28.1738 34.5215 28.1738H31.8359V25.7324H34.5215Z" fill="#FF0000"/>
<path d="M45.5078 16.211H39.6483V6.44529C39.6483 5.04529 38.5092 3.90623 37.1092 3.90623H33.5934C33.21 2.98954 32.3041 2.34374 31.25 2.34374H24.2675C23.8495 0.987984 22.5849 0 21.0937 0C19.6025 0 18.3378 0.987984 17.9199 2.34374H10.9375C9.88337 2.34374 8.97742 2.98954 8.59402 3.90623H5.07811C3.67802 3.90623 2.53906 5.04529 2.53906 6.44529V47.4609C2.53906 48.8609 3.67812 50 5.07811 50H37.1092C38.5092 50 39.6483 48.8609 39.6483 47.4609V37.6954H45.5079C46.5849 37.6954 47.4611 36.8192 47.4611 35.7422V18.164C47.461 17.0871 46.5849 16.211 45.5078 16.211ZM37.6952 6.44529V16.2109H35.7421V8.78903C35.7421 8.24967 35.3049 7.81247 34.7655 7.81247H33.3879C33.6413 7.41755 33.789 6.94851 33.789 6.44529V5.85935H37.1092C37.4268 5.85935 37.6952 6.12771 37.6952 6.44529ZM10.3515 4.88279C10.3515 4.56522 10.6199 4.29686 10.9375 4.29686H18.7499C19.2893 4.29686 19.7265 3.85965 19.7265 3.3203C19.7265 2.5664 20.3398 1.95312 21.0937 1.95312C21.8476 1.95312 22.4609 2.5664 22.4609 3.3203C22.4609 3.85965 22.8981 4.29686 23.4374 4.29686H31.25C31.5676 4.29686 31.8359 4.56522 31.8359 4.88279V6.44529C31.8359 6.76286 31.5676 7.03122 31.25 7.03122H10.9375C10.6199 7.03122 10.3515 6.76286 10.3515 6.44529V4.88279ZM27.5573 8.98434V10.4259C27.5573 10.7032 27.3231 10.9375 27.0458 10.9375H15.1415C14.8642 10.9375 14.6299 10.7033 14.6299 10.4259V8.98434H27.5573ZM37.6952 37.6953V47.4608C37.6952 47.7784 37.4268 48.0468 37.1092 48.0468H5.07811C4.76054 48.0468 4.49218 47.7784 4.49218 47.4608V6.44529C4.49218 6.12771 4.76054 5.85935 5.07811 5.85935H8.39841V6.44529C8.39841 6.94841 8.54617 7.41745 8.79958 7.81247H7.42186C6.8825 7.81247 6.4453 8.24967 6.4453 8.78903V10.7421C6.4453 11.2815 6.8825 11.7187 7.42186 11.7187C7.96121 11.7187 8.39841 11.2815 8.39841 10.7421V9.76559H12.6768V10.426C12.6768 11.785 13.7825 12.8907 15.1415 12.8907H27.0458C28.4048 12.8907 29.5104 11.785 29.5104 10.426V9.76559H33.7889V16.2109H27.93C26.853 16.2109 25.9769 17.087 25.9769 18.164V24.1898L24.5944 25.5722C23.833 26.3337 23.833 27.5727 24.5945 28.3343L25.9769 29.7165V35.7421C25.9769 36.8191 26.853 37.6953 27.93 37.6953H33.7889V44.1405H8.39841V19.5312C8.39841 18.9918 7.96121 18.5546 7.42186 18.5546C6.8825 18.5546 6.4453 18.9918 6.4453 19.5312V45.1171C6.4453 45.6565 6.8825 46.0937 7.42186 46.0937H34.7655C35.3049 46.0937 35.7421 45.6565 35.7421 45.1171V37.6953H37.6952ZM45.5078 35.7421H27.9299V29.312C27.9299 29.053 27.827 28.8046 27.6438 28.6215L25.9755 26.9532L27.6438 25.285C27.827 25.1019 27.9299 24.8534 27.9299 24.5944V18.1642H45.5078V35.7421Z" fill="#FF0000"/>
<path d="M12.3047 32.8125H21.0937C21.633 32.8125 22.0702 32.3753 22.0702 31.8359C22.0702 31.2966 21.633 30.8594 21.0937 30.8594H12.3047C11.7653 30.8594 11.3281 31.2966 11.3281 31.8359C11.3281 32.3753 11.7654 32.8125 12.3047 32.8125Z" fill="#FF0000"/>
<path d="M12.3047 37.6953H21.0937C21.633 37.6953 22.0702 37.2581 22.0702 36.7188C22.0702 36.1794 21.633 35.7422 21.0937 35.7422H12.3047C11.7653 35.7422 11.3281 36.1794 11.3281 36.7188C11.3281 37.2581 11.7654 37.6953 12.3047 37.6953Z" fill="#FF0000"/>
<path d="M7.42188 16.1136C7.96123 16.1136 8.39844 15.6764 8.39844 15.137V15.1363C8.39844 14.597 7.96123 14.1602 7.42188 14.1602C6.88252 14.1602 6.44531 14.5977 6.44531 15.137C6.44531 15.6764 6.88252 16.1136 7.42188 16.1136Z" fill="#FF0000"/>
</svg>
