<svg width="50" height="50" viewBox="0 0 50 50" fill="none" xmlns="http://www.w3.org/2000/svg">
<g clip-path="url(#clip0)">
<path d="M35.9543 41.8297C35.8751 41.1795 35.916 40.5284 36.0759 39.8945C36.4205 38.5276 36.0205 37.0473 35.0313 36.0025L32.0776 33.0466C31.7916 32.7605 31.3278 32.7605 31.0419 33.0466C30.7559 33.3326 30.7559 33.7964 31.0419 34.0823L31.6894 34.7299C30.1188 35.8116 28.3103 36.4966 26.4123 36.7226C26.0439 36.7665 25.7665 37.0789 25.7665 37.4499V39.5574C25.7665 40.7741 26.279 41.9118 27.1726 42.6789C27.911 43.3128 28.3345 44.2333 28.3345 45.2045C28.3344 47.0411 26.8387 48.5352 25.0002 48.5352C23.1617 48.5352 21.666 47.0411 21.666 45.2046C21.666 44.8001 21.3381 44.4721 20.9336 44.4721C20.5291 44.4721 20.2012 44.8001 20.2012 45.2046C20.2012 47.8488 22.354 50.0001 25.0002 50.0001C27.6464 50.0001 29.7992 47.8488 29.7992 45.2046C29.7992 43.8056 29.1896 42.4801 28.1267 41.5675C27.5576 41.079 27.2313 40.3464 27.2313 39.5574V38.0841C29.2184 37.7472 31.1011 36.9602 32.7407 35.7811L33.9171 36.9575C34.6008 37.6433 34.8838 38.631 34.6555 39.5363C34.4514 40.3458 34.3991 41.1769 34.5003 42.0067C34.5492 42.4082 34.9138 42.6939 35.3159 42.6452C35.7174 42.5964 36.0032 42.2311 35.9543 41.8297Z" fill="#FF0000"/>
<path d="M22.8666 39.4725C22.8666 40.2787 22.5271 41.0229 21.9354 41.5141C21.6241 41.7724 21.5812 42.2342 21.8396 42.5454C22.0979 42.8567 22.5596 42.8995 22.8709 42.6412C23.7991 41.8708 24.3314 40.7158 24.3314 39.4725V37.4609C24.3314 37.0878 24.0509 36.7742 23.68 36.733C21.4928 36.4898 19.4218 35.6391 17.691 34.2729C17.3995 34.0428 16.9819 34.0673 16.7193 34.3298L14.6957 36.3533C13.8806 37.1686 13.4306 38.2854 13.4612 39.4175C13.4797 40.1013 13.2238 40.7439 12.7408 41.227C11.7792 42.1887 10.2137 42.1878 9.25098 41.2251C8.78457 40.7587 8.52754 40.1387 8.52725 39.4795C8.52695 38.8204 8.7833 38.201 9.24902 37.7353C9.64512 37.3392 10.148 37.0955 10.7033 37.0308C11.6421 36.9212 12.5228 36.4974 13.1829 35.8371L15.7011 33.3189C15.9645 33.0556 15.9882 32.6365 15.7562 32.345C14.5552 30.8354 13.7475 29.0647 13.3955 27.1821H15.3438C15.7483 27.1821 16.0763 26.8542 16.0763 26.4497C16.0763 26.0452 15.7483 25.7173 15.3438 25.7173H10.4853C9.25518 25.7173 8.10869 26.2397 7.33984 27.1507C6.70508 27.9027 5.77773 28.3341 4.7957 28.3341C2.95898 28.3342 1.46484 26.8385 1.46484 25C1.46484 23.1615 2.95898 21.6658 4.79551 21.6658C5.77754 21.6658 6.70488 22.0972 7.33965 22.8492C8.10859 23.7602 9.25498 24.2826 10.4851 24.2826H14.3671C14.7716 24.2826 15.0995 23.9547 15.0995 23.5502C15.0995 23.1457 14.7716 22.8178 14.3671 22.8178H13.3953C13.6976 21.2015 14.3356 19.6677 15.2702 18.3108L16.606 19.6466C16.7489 19.7896 16.9364 19.8611 17.1238 19.8611C17.3112 19.8611 17.4987 19.7896 17.6417 19.6466C17.9277 19.3605 17.9277 18.8968 17.6417 18.6108L14.0813 15.0504C13.0328 14.0019 11.5095 13.5703 10.1057 13.9244C8.28857 14.3824 6.41455 13.8668 5.09268 12.5449C3.04004 10.4922 3.0417 7.15088 5.09629 5.09629C7.15088 3.0418 10.4923 3.04004 12.5448 5.09258C13.8542 6.40205 14.3741 8.26035 13.9356 10.0636C13.5964 11.4588 14.0316 12.9715 15.0715 14.0113L17.9925 16.9323C18.1354 17.0753 18.323 17.1469 18.5104 17.1469C18.6978 17.1469 18.8853 17.0754 19.0282 16.9323C19.3143 16.6463 19.3143 16.1825 19.0282 15.8966L18.3645 15.2328C19.9481 14.1551 21.7697 13.4793 23.6798 13.2669C24.0507 13.2257 24.3312 12.9121 24.3312 12.539V10.5274C24.3312 9.28408 23.7989 8.129 22.8707 7.35869C22.1049 6.72305 21.6656 5.78877 21.6656 4.79541C21.6658 2.95898 23.1615 1.46484 25 1.46484C26.8385 1.46484 28.3342 2.95898 28.3342 4.79551C28.3342 5.2 28.6621 5.52793 29.0666 5.52793C29.4711 5.52793 29.799 5.2 29.799 4.79551C29.799 2.15127 27.6462 0 25 0C22.3538 0 20.201 2.15127 20.201 4.79551C20.201 6.22598 20.8331 7.57109 21.9354 8.48594C22.5272 8.97715 22.8666 9.72129 22.8666 10.5275V11.9C20.8649 12.2238 18.9669 13.0032 17.3124 14.1807L16.1074 12.9756C15.4266 12.2948 15.1398 11.3116 15.3591 10.4098C15.9193 8.10566 15.2546 5.73076 13.5807 4.05684C10.957 1.4332 6.68623 1.43477 4.06055 4.06055C1.43486 6.68623 1.4332 10.9569 4.05684 13.5807C5.72158 15.2453 8.17637 15.9214 10.4638 15.3447C11.3703 15.1161 12.3597 15.4001 13.0456 16.0861L14.219 17.2596C13.0301 18.9129 12.2402 20.8126 11.908 22.8178H10.4852C9.6876 22.8178 8.94912 22.4849 8.45908 21.9044C7.54541 20.8219 6.21006 20.201 4.79551 20.201C2.15127 20.201 0 22.3538 0 25C0 27.6462 2.15127 29.799 4.79551 29.799C6.21006 29.799 7.54531 29.1782 8.45908 28.0956C8.94902 27.5151 9.6875 27.1822 10.4852 27.1822H11.908C12.2397 29.185 13.0278 31.0821 14.2144 32.7341L12.1471 34.8015C11.7191 35.2294 11.1461 35.5044 10.5336 35.5759C9.64736 35.6793 8.84502 36.0679 8.21328 36.6995C7.4707 37.4421 7.06201 38.4296 7.0624 39.4802C7.06289 40.5305 7.47227 41.5181 8.21523 42.261C8.98252 43.0283 9.99023 43.412 10.9978 43.412C12.0043 43.412 13.0106 43.029 13.7767 42.263C14.5471 41.4926 14.9551 40.4681 14.9256 39.378C14.9058 38.6463 15.1996 37.9214 15.7315 37.3894L17.3061 35.8148C18.962 36.9948 20.8624 37.7759 22.8667 38.1001V39.4725H22.8666Z" fill="#FF0000"/>
<path d="M39.5154 27.1824C40.313 27.1824 41.0515 27.5153 41.5415 28.0958C42.4552 29.1783 43.7905 29.7992 45.2051 29.7992C47.8492 29.7992 50.0005 27.6464 50.0005 25.0002C50.0005 22.354 47.8492 20.2011 45.205 20.2011C43.7904 20.2011 42.4552 20.8219 41.5414 21.9046C41.0515 22.485 40.313 22.8179 39.5153 22.8179H38.0924C37.7634 20.8319 36.9852 18.9482 35.8151 17.3061L38.0907 15.0304C38.4982 14.6229 39.0196 14.3599 39.5984 14.2699C40.3104 14.1592 40.9565 13.8307 41.4672 13.3201C42.1062 12.6811 42.4579 11.8314 42.4575 10.9275C42.4571 10.0238 42.1049 9.1741 41.4656 8.53484C40.8265 7.89558 39.9767 7.54334 39.0729 7.54295H39.0714C38.1681 7.54295 37.3188 7.89461 36.6803 8.53318C36.1452 9.06824 35.8123 9.74724 35.7175 10.4969C35.6489 11.0389 35.3777 11.571 34.9541 11.9947L32.7344 14.2144C31.0963 13.038 29.2156 12.2525 27.2314 11.9161V10.4428C27.2314 9.65379 27.5578 8.92117 28.1268 8.43269C28.4337 8.16922 28.4688 7.70682 28.2055 7.39988C27.9421 7.09295 27.4796 7.05779 27.1727 7.32117C26.2791 8.08826 25.7666 9.22596 25.7666 10.4427V12.5502C25.7666 12.9212 26.044 13.2336 26.4124 13.2774C28.5805 13.5357 30.632 14.3928 32.3454 15.7561C32.6369 15.9881 33.0561 15.9643 33.3193 15.701L35.9899 13.0304C36.6424 12.378 37.0617 11.5434 37.1709 10.6804C37.2245 10.2562 37.413 9.87185 37.7161 9.56883C38.078 9.20691 38.5594 9.0076 39.0715 9.0076H39.0724C39.5851 9.00779 40.0672 9.20769 40.4299 9.57039C40.7926 9.93308 40.9925 10.4152 40.9928 10.9279C40.993 11.4404 40.7937 11.922 40.4315 12.2842C40.1422 12.5735 39.7763 12.7596 39.3734 12.8222C38.4854 12.9604 37.6837 13.3657 37.055 13.9944L34.3303 16.7191C34.0677 16.9817 34.0432 17.3993 34.2733 17.6908C35.4582 19.1919 36.2559 20.9502 36.6051 22.8177H34.6567C34.2522 22.8177 33.9243 23.1456 33.9243 23.5501C33.9243 23.9546 34.2522 24.2825 34.6567 24.2825H39.5153C40.7454 24.2825 41.8919 23.76 42.6607 22.8491C43.2955 22.097 44.2229 21.6657 45.2049 21.6657C47.0415 21.666 48.5356 23.1617 48.5356 25.0002C48.5356 26.8386 47.0415 28.3344 45.205 28.3344C44.2229 28.3344 43.2956 27.903 42.6608 27.151C41.8919 26.24 40.7455 25.7176 39.5154 25.7176H35.6334C35.2289 25.7176 34.901 26.0455 34.901 26.45C34.901 26.8545 35.2289 27.1824 35.6334 27.1824H36.6052C36.3069 28.777 35.6817 30.2923 34.7677 31.6355L33.4646 30.3324C33.1785 30.0464 32.7147 30.0464 32.4288 30.3324C32.1428 30.6184 32.1428 31.0822 32.4288 31.3681L35.9893 34.9285C37.0291 35.9683 38.5419 36.4037 39.937 36.0643C41.7404 35.6258 43.5986 36.1458 44.908 37.4553C45.9022 38.4495 46.4494 39.7718 46.4488 41.1784C46.4482 42.5853 45.8997 43.9084 44.9044 44.9037C42.8497 46.9583 39.5084 46.9599 37.4559 44.9074C37.2854 44.7369 37.1256 44.5539 36.9811 44.3635C36.7364 44.0413 36.2771 43.9783 35.9548 44.223C35.6326 44.4677 35.5697 44.927 35.8144 45.2493C35.999 45.4925 36.2028 45.726 36.4201 45.9432C37.7313 47.2545 39.4538 47.9099 41.1768 47.9099C42.9015 47.9099 44.6268 47.2531 45.9402 45.9395C47.2121 44.6678 47.913 42.9771 47.9138 41.1791C47.9145 39.3808 47.2149 37.6905 45.9439 36.4195C44.27 34.7456 41.8953 34.0809 39.591 34.6411C38.689 34.8605 37.706 34.5736 37.0252 33.8928L35.8202 32.6878C36.9875 31.0473 37.7643 29.1657 38.0928 27.1824H39.5154Z" fill="#FF0000"/>
<path d="M22.0673 18.3916C20.2753 18.3916 18.8174 19.8495 18.8174 21.6416C18.8174 23.4337 20.2753 24.8916 22.0673 24.8916C23.8594 24.8916 25.3173 23.4337 25.3173 21.6416C25.3173 19.8495 23.8593 18.3916 22.0673 18.3916ZM22.0673 23.4268C21.083 23.4268 20.2822 22.626 20.2822 21.6416C20.2822 20.6572 21.083 19.8564 22.0673 19.8564C23.0517 19.8564 23.8524 20.6572 23.8524 21.6416C23.8524 22.626 23.0516 23.4268 22.0673 23.4268Z" fill="#FF0000"/>
<path d="M26.0244 25.6045C26.0244 27.2437 27.3579 28.5772 28.9971 28.5772C30.6362 28.5772 31.9698 27.2437 31.9698 25.6045C31.9698 23.9653 30.6362 22.6318 28.9971 22.6318C27.3579 22.6318 26.0244 23.9653 26.0244 25.6045ZM28.9971 24.0967C29.8285 24.0967 30.505 24.7731 30.505 25.6045C30.505 26.4359 29.8285 27.1124 28.9971 27.1124C28.1656 27.1124 27.4893 26.4359 27.4893 25.6045C27.4893 24.773 28.1656 24.0967 28.9971 24.0967Z" fill="#FF0000"/>
<path d="M20.1631 29.148C20.1631 30.5347 21.2912 31.6628 22.6778 31.6628C24.0645 31.6628 25.1926 30.5347 25.1926 29.148C25.1926 27.7614 24.0645 26.6333 22.6778 26.6333C21.2912 26.6333 20.1631 27.7613 20.1631 29.148ZM23.7278 29.148C23.7278 29.727 23.2568 30.1979 22.6779 30.1979C22.099 30.1979 21.628 29.727 21.628 29.148C21.628 28.5691 22.099 28.0981 22.6779 28.0981C23.2568 28.0981 23.7278 28.569 23.7278 29.148Z" fill="#FF0000"/>
<path d="M5.90576 8.81201C6.31 8.81201 6.63769 8.48431 6.63769 8.08008C6.63769 7.67584 6.31 7.34814 5.90576 7.34814C5.50153 7.34814 5.17383 7.67584 5.17383 8.08008C5.17383 8.48431 5.50153 8.81201 5.90576 8.81201Z" fill="#FF0000"/>
<path d="M6.58066 11.5113C6.97964 11.4466 7.25065 11.0708 7.18597 10.6718C7.12129 10.2728 6.74542 10.0018 6.34644 10.0665C5.94746 10.1312 5.67646 10.507 5.74113 10.906C5.80581 11.305 6.18168 11.576 6.58066 11.5113Z" fill="#FF0000"/>
<path d="M8.4585 9.9541C8.86273 9.9541 9.19043 9.6264 9.19043 9.22217C9.19043 8.81793 8.86273 8.49023 8.4585 8.49023C8.05426 8.49023 7.72656 8.81793 7.72656 9.22217C7.72656 9.6264 8.05426 9.9541 8.4585 9.9541Z" fill="#FF0000"/>
<path d="M40.8677 37.5234C40.4634 37.5234 40.1357 37.8512 40.1357 38.2554C40.1357 38.6597 40.4635 38.9873 40.8677 38.9873C41.2719 38.9873 41.5996 38.6596 41.5996 38.2554C41.5996 37.8512 41.2719 37.5234 40.8677 37.5234Z" fill="#FF0000"/>
<path d="M40.6953 40.9639C40.6953 41.3682 41.023 41.6958 41.4272 41.6958C41.8314 41.6958 42.1592 41.3681 42.1592 40.9639C42.1592 40.5596 41.8314 40.2319 41.4272 40.2319C41.023 40.2319 40.6953 40.5596 40.6953 40.9639Z" fill="#FF0000"/>
<path d="M43.4204 40.1294C43.8246 40.1294 44.1523 39.8017 44.1523 39.3975C44.1523 38.9932 43.8246 38.6655 43.4204 38.6655C43.0162 38.6655 42.6885 38.9932 42.6885 39.3975C42.6885 39.8017 43.0162 40.1294 43.4204 40.1294Z" fill="#FF0000"/>
<path d="M27.8931 33.0005C28.2973 33.0005 28.625 32.6728 28.625 32.2686C28.625 31.8643 28.2973 31.5366 27.8931 31.5366C27.4888 31.5366 27.1611 31.8643 27.1611 32.2686C27.1611 32.6728 27.4888 33.0005 27.8931 33.0005Z" fill="#FF0000"/>
<path d="M27.8921 19.1333C28.2963 19.1333 28.624 18.8056 28.624 18.4014C28.624 17.9971 28.2963 17.6694 27.8921 17.6694C27.4879 17.6694 27.1602 17.9971 27.1602 18.4014C27.1602 18.8056 27.4879 19.1333 27.8921 19.1333Z" fill="#FF0000"/>
<path d="M18.4194 26.9458C18.8237 26.9458 19.1514 26.6181 19.1514 26.2139C19.1514 25.8096 18.8237 25.4819 18.4194 25.4819C18.0152 25.4819 17.6875 25.8096 17.6875 26.2139C17.6875 26.6181 18.0152 26.9458 18.4194 26.9458Z" fill="#FF0000"/>
</g>
<defs>
<clipPath id="clip0">
<rect width="50" height="50" fill="white"/>
</clipPath>
</defs>
</svg>
