<svg width="48" height="48" viewBox="0 0 48 48" fill="none" xmlns="http://www.w3.org/2000/svg">
<path d="M15.2004 36.7998C14.7588 36.7998 14.4004 37.1582 14.4004 37.5998V47.1998C14.4004 47.6413 14.7588 47.9997 15.2004 47.9997C15.6419 47.9997 16.0003 47.6413 16.0003 47.1998V37.5998C16.0004 37.1582 15.642 36.7998 15.2004 36.7998Z" fill="url(#paint0_linear)"/>
<path d="M4.80013 34.4V27.9999C4.80013 27.5584 4.44173 27.2 4.00016 27.2C3.5586 27.2 3.2002 27.5584 3.2002 27.9999V34.4C3.2002 34.8415 3.5586 35.1999 4.00016 35.1999C4.44173 35.2 4.80013 34.8416 4.80013 34.4Z" fill="url(#paint1_linear)"/>
<path d="M12 43.2H0.799969C0.358406 43.2 0 43.5584 0 43.9999C0 44.4415 0.358406 44.7999 0.799969 44.7999H12C12.4416 44.7999 12.8 44.4415 12.8 43.9999C12.8 43.5584 12.4416 43.2 12 43.2Z" fill="url(#paint2_linear)"/>
<path d="M12 46.3999H0.799969C0.358406 46.3999 0 46.7583 0 47.1999C0 47.6414 0.358406 47.9999 0.799969 47.9999H12C12.4416 47.9999 12.8 47.6415 12.8 47.2C12.8 46.7584 12.4416 46.3999 12 46.3999Z" fill="url(#paint3_linear)"/>
<path d="M15.1999 27.2H8.79997C8.35841 27.2 8 27.5584 8 27.9999V34.4C8 34.8415 8.35841 35.1999 8.79997 35.1999C9.24153 35.1999 9.59994 34.8415 9.59994 34.4V33.6H14.3999V34.4C14.3999 34.8415 14.7583 35.1999 15.1999 35.1999C15.6415 35.1999 15.9999 34.8415 15.9999 34.4V27.9999C16 27.5584 15.6416 27.2 15.1999 27.2ZM14.3999 32H9.59994V28.8H14.3999V32Z" fill="url(#paint4_linear)"/>
<path d="M12 40H0.799969C0.358406 40 0 40.3584 0 40.8C0 41.2415 0.358406 41.5999 0.799969 41.5999H12C12.4416 41.5999 12.8 41.2415 12.8 40.8C12.8 40.3584 12.4416 40 12 40Z" fill="url(#paint5_linear)"/>
<path d="M12 36.7998H0.799969C0.358406 36.7998 0 37.1582 0 37.5998C0 38.0413 0.358406 38.3997 0.799969 38.3997H12C12.4416 38.3997 12.8 38.0413 12.8 37.5998C12.8 37.1582 12.4416 36.7998 12 36.7998Z" fill="url(#paint6_linear)"/>
<path d="M27.1997 16C27.1997 14.2352 25.7645 12.8 23.9998 12.8C22.2349 12.8 20.7998 14.2353 20.7998 16C20.7998 17.7648 22.2349 19.2 23.9998 19.2C25.7646 19.2 27.1997 17.7648 27.1997 16ZM22.3997 16C22.3997 15.1176 23.1173 14.4 23.9998 14.4C24.8822 14.4 25.5998 15.1175 25.5998 16C25.5998 16.8824 24.8822 17.6 23.9998 17.6C23.1174 17.6 22.3997 16.8824 22.3997 16Z" fill="url(#paint7_linear)"/>
<path d="M27.9996 46.3999H18.3996C17.958 46.3999 17.5996 46.7583 17.5996 47.1999C17.5996 47.6414 17.958 47.9998 18.3996 47.9998H27.9996C28.442 47.9998 28.7995 47.6414 28.7995 47.1999C28.7995 46.7583 28.442 46.3999 27.9996 46.3999Z" fill="url(#paint8_linear)"/>
<path d="M18.3996 44.8001H24.9867C25.4291 44.8001 25.7867 44.4417 25.7867 44.0002C25.7867 43.5586 25.4291 43.2002 24.9867 43.2002H18.3996C17.958 43.2002 17.5996 43.5586 17.5996 44.0002C17.5996 44.4417 17.9579 44.8001 18.3996 44.8001Z" fill="url(#paint9_linear)"/>
<path d="M36.7996 25.6001C30.6237 25.6001 25.5996 30.6241 25.5996 36.8001C25.5996 42.9762 30.6237 48.0001 36.7996 48.0001C42.9756 48.0001 47.9997 42.9761 47.9997 36.8C47.9997 30.624 42.9757 25.6001 36.7996 25.6001ZM36.7996 46.4C31.506 46.4 27.1996 42.0936 27.1996 36.8C27.1996 31.5064 31.506 27.2 36.7996 27.2C42.0932 27.2 46.3996 31.5064 46.3996 36.8C46.3996 42.0936 42.0932 46.4 36.7996 46.4Z" fill="url(#paint10_linear)"/>
<path d="M47.2 6.40003H32C31.5576 6.40003 31.2 6.75844 31.2 7.2C31.2 7.64156 31.5576 7.99997 32 7.99997H46.4V25.2688L24.5656 3.43444C24.4087 3.27759 24.2032 3.20006 23.9976 3.20006C23.792 3.20006 23.5864 3.27769 23.4295 3.43444L1.60003 25.268V7.99997H10.4001C10.8416 7.99997 11.2 7.64156 11.2 7.2V4.00003C11.2 3.55847 10.8416 3.20006 10.4001 3.20006H9.6V1.60003H14.4V3.20006H13.6C13.1585 3.20006 12.8001 3.55847 12.8001 4.00003V7.2C12.8001 7.64156 13.1585 7.99997 13.6 7.99997H16C16.4416 7.99997 16.8 7.64156 16.8 7.2C16.8 6.75844 16.4416 6.40003 16 6.40003H14.4V4.8H15.2C15.6415 4.8 15.9999 4.44159 15.9999 4.00003V0.799969C15.9999 0.358406 15.6415 0 15.2 0H8.80003C8.35847 0 8.00006 0.358406 8.00006 0.799969V3.99994C8.00006 4.4415 8.35847 4.79991 8.80003 4.79991H9.6V6.39994H0.799969C0.588 6.39994 0.384 6.48394 0.234375 6.63431C0.084 6.78403 0 6.98803 0 7.2L0.0031875 27.2C0.0031875 27.524 0.198375 27.8152 0.497625 27.9392C0.596062 27.98 0.700031 28 0.80325 28C1.01128 28 1.21603 27.9185 1.36884 27.7657L23.9976 5.12878L46.6343 27.7656C46.7872 27.9184 46.9919 27.9999 47.1999 27.9999C47.3032 27.9999 47.4071 27.98 47.5063 27.9391C47.8056 27.8151 47.9999 27.5231 47.9999 27.1999V7.2C48 6.75844 47.6424 6.40003 47.2 6.40003Z" fill="url(#paint11_linear)"/>
<path d="M18.3996 41.5999H23.5996C24.0412 41.5999 24.3996 41.2415 24.3996 40.8C24.3996 40.3584 24.0412 40 23.5996 40H18.3996C17.958 40 17.5996 40.3584 17.5996 40.8C17.5996 41.2415 17.9579 41.5999 18.3996 41.5999Z" fill="url(#paint12_linear)"/>
<path d="M19.2002 27.9999V34.4C19.2002 34.8415 19.5586 35.1999 20.0002 35.1999C20.4417 35.1999 20.8001 34.8415 20.8001 34.4V28.7999H26.4002C26.8426 28.7999 27.2002 28.4415 27.2002 27.9999C27.2002 27.5584 26.8426 27.2 26.4002 27.2H20.0002C19.5586 27.1999 19.2002 27.5583 19.2002 27.9999Z" fill="url(#paint13_linear)"/>
<path d="M17.5996 37.6C17.5996 38.0416 17.958 38.4 18.3996 38.4H23.1996C23.6411 38.4 23.9995 38.0416 23.9995 37.6C23.9995 37.1585 23.6411 36.8 23.1996 36.8H18.3996C17.958 36.8 17.5996 37.1584 17.5996 37.6Z" fill="url(#paint14_linear)"/>
<path d="M35.5714 42H38.4286C38.8236 42 39.1428 41.68 39.1428 41.2857V39.1429H41.2857C41.6807 39.1429 42 38.8229 42 38.4286V35.5714C42 35.1771 41.6807 34.8571 41.2857 34.8571H39.1428V32.7143C39.1428 32.32 38.8236 32 38.4286 32H35.5714C35.1764 32 34.8572 32.32 34.8572 32.7143V34.8571H32.7143C32.3193 34.8571 32 35.1771 32 35.5714V38.4285C32 38.8228 32.3193 39.1428 32.7143 39.1428H34.8572V41.2857C34.8572 41.68 35.1764 42 35.5714 42ZM33.4285 37.7143V36.2857H35.5714C35.9664 36.2857 36.2857 35.9656 36.2857 35.5714V33.4285H37.7143V35.5714C37.7143 35.9656 38.0336 36.2857 38.4286 36.2857H40.5715V37.7143H38.4286C38.0336 37.7143 37.7143 38.0343 37.7143 38.4285V40.5714H36.2857V38.4285C36.2857 38.0343 35.9664 37.7143 35.5714 37.7143H33.4285Z" fill="url(#paint15_linear)"/>
<defs>
<linearGradient id="paint0_linear" x1="15.2004" y1="36.7998" x2="15.2004" y2="47.9997" gradientUnits="userSpaceOnUse">
<stop stop-color="#FF003D"/>
<stop offset="0.563536" stop-color="#FF0000"/>
<stop offset="1" stop-color="#FF3D00"/>
</linearGradient>
<linearGradient id="paint1_linear" x1="4.00016" y1="27.2" x2="4.00016" y2="35.1999" gradientUnits="userSpaceOnUse">
<stop stop-color="#FF003D"/>
<stop offset="0.563536" stop-color="#FF0000"/>
<stop offset="1" stop-color="#FF3D00"/>
</linearGradient>
<linearGradient id="paint2_linear" x1="6.39998" y1="43.2" x2="6.39998" y2="44.7999" gradientUnits="userSpaceOnUse">
<stop stop-color="#FF003D"/>
<stop offset="0.563536" stop-color="#FF0000"/>
<stop offset="1" stop-color="#FF3D00"/>
</linearGradient>
<linearGradient id="paint3_linear" x1="6.39998" y1="46.3999" x2="6.39998" y2="47.9999" gradientUnits="userSpaceOnUse">
<stop stop-color="#FF003D"/>
<stop offset="0.563536" stop-color="#FF0000"/>
<stop offset="1" stop-color="#FF3D00"/>
</linearGradient>
<linearGradient id="paint4_linear" x1="11.9999" y1="27.2" x2="11.9999" y2="35.1999" gradientUnits="userSpaceOnUse">
<stop stop-color="#FF003D"/>
<stop offset="0.563536" stop-color="#FF0000"/>
<stop offset="1" stop-color="#FF3D00"/>
</linearGradient>
<linearGradient id="paint5_linear" x1="6.39998" y1="40" x2="6.39998" y2="41.5999" gradientUnits="userSpaceOnUse">
<stop stop-color="#FF003D"/>
<stop offset="0.563536" stop-color="#FF0000"/>
<stop offset="1" stop-color="#FF3D00"/>
</linearGradient>
<linearGradient id="paint6_linear" x1="6.39998" y1="36.7998" x2="6.39998" y2="38.3997" gradientUnits="userSpaceOnUse">
<stop stop-color="#FF003D"/>
<stop offset="0.563536" stop-color="#FF0000"/>
<stop offset="1" stop-color="#FF3D00"/>
</linearGradient>
<linearGradient id="paint7_linear" x1="23.9998" y1="12.8" x2="23.9998" y2="19.2" gradientUnits="userSpaceOnUse">
<stop stop-color="#FF003D"/>
<stop offset="0.563536" stop-color="#FF0000"/>
<stop offset="1" stop-color="#FF3D00"/>
</linearGradient>
<linearGradient id="paint8_linear" x1="23.1996" y1="46.3999" x2="23.1996" y2="47.9998" gradientUnits="userSpaceOnUse">
<stop stop-color="#FF003D"/>
<stop offset="0.563536" stop-color="#FF0000"/>
<stop offset="1" stop-color="#FF3D00"/>
</linearGradient>
<linearGradient id="paint9_linear" x1="21.6932" y1="43.2002" x2="21.6932" y2="44.8001" gradientUnits="userSpaceOnUse">
<stop stop-color="#FF003D"/>
<stop offset="0.563536" stop-color="#FF0000"/>
<stop offset="1" stop-color="#FF3D00"/>
</linearGradient>
<linearGradient id="paint10_linear" x1="36.7996" y1="25.6001" x2="36.7996" y2="48.0001" gradientUnits="userSpaceOnUse">
<stop stop-color="#FF003D"/>
<stop offset="0.563536" stop-color="#FF0000"/>
<stop offset="1" stop-color="#FF3D00"/>
</linearGradient>
<linearGradient id="paint11_linear" x1="24" y1="0" x2="24" y2="28" gradientUnits="userSpaceOnUse">
<stop stop-color="#FF003D"/>
<stop offset="0.563536" stop-color="#FF0000"/>
<stop offset="1" stop-color="#FF3D00"/>
</linearGradient>
<linearGradient id="paint12_linear" x1="20.9996" y1="40" x2="20.9996" y2="41.5999" gradientUnits="userSpaceOnUse">
<stop stop-color="#FF003D"/>
<stop offset="0.563536" stop-color="#FF0000"/>
<stop offset="1" stop-color="#FF3D00"/>
</linearGradient>
<linearGradient id="paint13_linear" x1="23.2002" y1="27.2" x2="23.2002" y2="35.1999" gradientUnits="userSpaceOnUse">
<stop stop-color="#FF003D"/>
<stop offset="0.563536" stop-color="#FF0000"/>
<stop offset="1" stop-color="#FF3D00"/>
</linearGradient>
<linearGradient id="paint14_linear" x1="20.7996" y1="36.8" x2="20.7996" y2="38.4" gradientUnits="userSpaceOnUse">
<stop stop-color="#FF003D"/>
<stop offset="0.563536" stop-color="#FF0000"/>
<stop offset="1" stop-color="#FF3D00"/>
</linearGradient>
<linearGradient id="paint15_linear" x1="37" y1="32" x2="37" y2="42" gradientUnits="userSpaceOnUse">
<stop stop-color="#FF003D"/>
<stop offset="0.563536" stop-color="#FF0000"/>
<stop offset="1" stop-color="#FF3D00"/>
</linearGradient>
</defs>
</svg>
