<svg width="56" height="48" viewBox="0 0 56 48" fill="none" xmlns="http://www.w3.org/2000/svg">
<path d="M2.76924 38.7692H3.24553C3.75502 38.7692 4.16857 38.3556 4.16857 37.8461C4.16857 37.3366 3.75502 36.9231 3.24553 36.9231H2.76924C2.25974 36.9231 1.8462 36.5087 1.8462 36V31.3846H2.76924C3.27971 31.3846 3.69228 30.9711 3.69228 30.4616C3.69228 29.9521 3.27971 29.5385 2.76924 29.5385H1.8462V26.7693C1.8462 26.2607 2.25974 25.8462 2.76924 25.8462H20.4748L22.1724 34.3349C22.2592 34.7734 22.645 35.0771 23.0761 35.0771C23.1352 35.0771 23.197 35.0716 23.2579 35.0586C23.7574 34.9589 24.0822 34.4724 23.9816 33.9731L22.357 25.8462H37.8462C38.3567 25.8462 38.7692 25.4327 38.7692 24.9232C38.7692 24.4137 38.3567 24.0002 37.8462 24.0002H34.7243L35.9031 21.6435C36.1311 21.1874 35.9456 20.6336 35.4895 20.4047C35.0336 20.1767 34.4806 20.3622 34.2507 20.8182L32.6603 24H22.1539V15.6923C22.1539 15.1828 21.7413 14.7693 21.2309 14.7693C20.7204 14.7693 20.3078 15.1828 20.3078 15.6923V24H2.76924C1.24248 24 0 25.2425 0 26.7693V36C0 37.5267 1.24248 38.7692 2.76924 38.7692Z" fill="url(#paint0_linear)"/>
<path d="M25.8459 27.6921C25.3354 27.6921 24.9229 28.1057 24.9229 28.6152C24.9229 29.1247 25.3354 29.5382 25.8459 29.5382H26.7689C27.2794 29.5382 27.692 29.1247 27.692 28.6152C27.692 28.1057 27.2794 27.6921 26.7689 27.6921H25.8459Z" fill="url(#paint1_linear)"/>
<path d="M13.8462 46.1538H0.923044C0.412573 46.1538 0 46.5674 0 47.0769C0 47.5864 0.412573 47.9999 0.923044 47.9999H13.8462C14.3567 47.9999 14.7692 47.5864 14.7692 47.0769C14.7692 46.5674 14.3567 46.1538 13.8462 46.1538Z" fill="url(#paint2_linear)"/>
<path d="M24.9511 1.84609C25.4606 1.84609 25.8742 1.43254 25.8742 0.923044C25.8742 0.413547 25.4606 0 24.9511 0H24.9419C24.4324 0 24.0234 0.413547 24.0234 0.923044C24.0234 1.43254 24.4416 1.84609 24.9511 1.84609Z" fill="url(#paint3_linear)"/>
<path d="M21.0091 3.47058C21.2491 3.47058 21.4891 3.369 21.6552 3.19366C21.8297 3.0275 21.9321 2.78746 21.9321 2.54754C21.9321 2.3075 21.8297 2.06757 21.6552 1.89211C21.3137 1.55061 20.6952 1.55061 20.3537 1.89211C20.1773 2.06746 20.0859 2.29831 20.0859 2.54754C20.0859 2.78757 20.1773 3.0275 20.3537 3.19366C20.519 3.36911 20.7599 3.47058 21.0091 3.47058Z" fill="url(#paint4_linear)"/>
<path d="M28.8371 3.47058C29.0863 3.47058 29.3171 3.369 29.4925 3.19366C29.6679 3.0275 29.7603 2.78746 29.7603 2.54754C29.7603 2.29831 29.668 2.06757 29.4925 1.89211C29.151 1.55061 28.5223 1.55061 28.1818 1.89211C28.0156 2.05827 27.9141 2.29831 27.9141 2.54754C27.9141 2.78757 28.0156 3.0275 28.1818 3.19366C28.3571 3.36911 28.5962 3.47058 28.8371 3.47058Z" fill="url(#paint5_linear)"/>
<path d="M23.0766 9.23062C23.587 9.23062 23.9996 8.81707 23.9996 8.30757V6.46138C23.9996 5.95275 24.4132 5.53833 24.9227 5.53833C25.4322 5.53833 25.8457 5.95275 25.8457 6.46138V8.30757C25.8457 8.81707 26.2583 9.23062 26.7688 9.23062C27.2792 9.23062 27.6918 8.81707 27.6918 8.30757V6.46138C27.6918 4.93462 26.4493 3.69214 24.9226 3.69214C23.3958 3.69214 22.1533 4.93462 22.1533 6.46138V8.30757C22.1535 8.81718 22.5661 9.23062 23.0766 9.23062Z" fill="url(#paint6_linear)"/>
<path d="M43.3848 44.3078C46.634 44.3078 49.323 41.8957 49.7726 38.7693H52.6156C53.595 38.7693 54.4101 38.4111 54.9112 37.7613C55.37 37.1659 55.5076 36.3952 55.3156 35.6797L54.4433 30.2807C53.8359 27.2447 51.3399 24.0001 46.154 24.0001H43.3848C42.1507 24.0001 41.4657 22.6782 41.4611 22.6708C41.4362 22.6182 41.4047 22.5684 41.3696 22.5222L35.8487 15.1855C34.1566 12.613 31.453 11.0769 28.6155 11.0769H17.5385C14.7397 11.0769 12.9674 13.0643 12.1727 14.2329L7.55724 20.6944C7.25998 21.1088 7.3569 21.6858 7.77143 21.9821C8.18681 22.2784 8.76186 22.1824 9.05815 21.767L13.6856 15.2889C14.2883 14.4055 15.589 12.923 17.5385 12.923H28.6155C30.829 12.923 32.9567 14.1479 34.3395 16.2471L39.8521 23.5745C40.094 24.0148 41.2321 25.8462 43.3847 25.8462H46.1539C50.1149 25.8462 51.6851 28.0386 52.297 29.5385H50.7693C50.2588 29.5385 49.8462 29.9521 49.8462 30.4616C49.8462 30.9711 50.2588 31.3846 50.7693 31.3846H52.753L53.5117 36.061C53.5754 36.3055 53.5551 36.4975 53.4489 36.6333C53.3077 36.8179 53.003 36.9231 52.6154 36.9231H49.7722C49.3227 33.7967 46.6338 31.3846 43.3845 31.3846C39.8223 31.3846 36.923 34.2831 36.923 37.8461C36.923 41.4092 39.8227 44.3078 43.3848 44.3078ZM43.3848 33.2308C45.9297 33.2308 48.0002 35.3013 48.0002 37.8462C48.0002 40.3912 45.9298 42.4617 43.3848 42.4617C40.8399 42.4617 38.7694 40.3912 38.7694 37.8462C38.7694 35.3013 40.8398 33.2308 43.3848 33.2308Z" fill="url(#paint7_linear)"/>
<path d="M43.3845 40.6154C44.9112 40.6154 46.1537 39.3729 46.1537 37.8461C46.1537 36.3194 44.9112 35.0769 43.3845 35.0769C41.8577 35.0769 40.6152 36.3194 40.6152 37.8461C40.6152 39.3729 41.8577 40.6154 43.3845 40.6154ZM43.3845 36.923C43.894 36.923 44.3075 37.3374 44.3075 37.846C44.3075 38.3547 43.894 38.7691 43.3845 38.7691C42.875 38.7691 42.4614 38.3547 42.4614 37.846C42.4614 37.3374 42.8749 36.923 43.3845 36.923Z" fill="url(#paint8_linear)"/>
<path d="M54.4619 46.1538H39.6926C39.1821 46.1538 38.7695 46.5674 38.7695 47.0769C38.7695 47.5864 39.1821 47.9999 39.6926 47.9999H54.4618C54.9723 47.9999 55.3849 47.5864 55.3849 47.0769C55.3849 46.5674 54.9724 46.1538 54.4619 46.1538Z" fill="url(#paint9_linear)"/>
<path d="M35.9997 46.1538H34.1535C33.643 46.1538 33.2305 46.5674 33.2305 47.0769C33.2305 47.5864 33.643 47.9999 34.1535 47.9999H35.9997C36.5102 47.9999 36.9227 47.5864 36.9227 47.0769C36.9227 46.5674 36.5102 46.1538 35.9997 46.1538Z" fill="url(#paint10_linear)"/>
<path d="M28.6157 46.1538H19.385C18.8745 46.1538 18.4619 46.5674 18.4619 47.0769C18.4619 47.5864 18.8745 47.9999 19.385 47.9999H28.6157C29.1262 47.9999 29.5388 47.5864 29.5388 47.0769C29.5388 46.5674 29.1262 46.1538 28.6157 46.1538Z" fill="url(#paint11_linear)"/>
<path d="M35.0777 37.8463C35.0777 37.3368 34.6651 36.9232 34.1546 36.9232H18.3883C17.9388 33.7968 15.2499 31.3848 12.0006 31.3848C8.43843 31.3848 5.53906 34.2833 5.53906 37.8463C5.53906 41.4093 8.43843 44.3078 12.0006 44.3078C15.2498 44.3078 17.9388 41.8958 18.3883 38.7693H34.1545C34.665 38.7693 35.0777 38.3558 35.0777 37.8463ZM12.0006 42.4616C9.4557 42.4616 7.38515 40.3912 7.38515 37.8462C7.38515 35.3012 9.45559 33.2307 12.0006 33.2307C14.5455 33.2307 16.616 35.3012 16.616 37.8462C16.616 40.3912 14.5456 42.4616 12.0006 42.4616Z" fill="url(#paint12_linear)"/>
<path d="M11.9997 35.0769C10.4729 35.0769 9.23047 36.3194 9.23047 37.8461C9.23047 39.3729 10.4729 40.6154 11.9997 40.6154C13.5265 40.6154 14.7689 39.3729 14.7689 37.8461C14.7689 36.3194 13.5265 35.0769 11.9997 35.0769ZM11.9997 38.7692C11.4902 38.7692 11.0767 38.3548 11.0767 37.8461C11.0767 37.3375 11.4902 36.9231 11.9997 36.9231C12.5092 36.9231 12.9228 37.3375 12.9228 37.8461C12.9228 38.3548 12.5093 38.7692 11.9997 38.7692Z" fill="url(#paint13_linear)"/>
<defs>
<linearGradient id="paint0_linear" x1="19.3846" y1="14.7693" x2="19.3846" y2="38.7692" gradientUnits="userSpaceOnUse">
<stop stop-color="#FF003D"/>
<stop offset="0.563536" stop-color="#FF0000"/>
<stop offset="1" stop-color="#FF3D00"/>
</linearGradient>
<linearGradient id="paint1_linear" x1="26.3074" y1="27.6921" x2="26.3074" y2="29.5382" gradientUnits="userSpaceOnUse">
<stop stop-color="#FF003D"/>
<stop offset="0.563536" stop-color="#FF0000"/>
<stop offset="1" stop-color="#FF3D00"/>
</linearGradient>
<linearGradient id="paint2_linear" x1="7.38462" y1="46.1538" x2="7.38462" y2="47.9999" gradientUnits="userSpaceOnUse">
<stop stop-color="#FF003D"/>
<stop offset="0.563536" stop-color="#FF0000"/>
<stop offset="1" stop-color="#FF3D00"/>
</linearGradient>
<linearGradient id="paint3_linear" x1="24.9488" y1="0" x2="24.9488" y2="1.84609" gradientUnits="userSpaceOnUse">
<stop stop-color="#FF003D"/>
<stop offset="0.563536" stop-color="#FF0000"/>
<stop offset="1" stop-color="#FF3D00"/>
</linearGradient>
<linearGradient id="paint4_linear" x1="21.009" y1="1.63599" x2="21.009" y2="3.47058" gradientUnits="userSpaceOnUse">
<stop stop-color="#FF003D"/>
<stop offset="0.563536" stop-color="#FF0000"/>
<stop offset="1" stop-color="#FF3D00"/>
</linearGradient>
<linearGradient id="paint5_linear" x1="28.8372" y1="1.63599" x2="28.8372" y2="3.47058" gradientUnits="userSpaceOnUse">
<stop stop-color="#FF003D"/>
<stop offset="0.563536" stop-color="#FF0000"/>
<stop offset="1" stop-color="#FF3D00"/>
</linearGradient>
<linearGradient id="paint6_linear" x1="24.9226" y1="3.69214" x2="24.9226" y2="9.23062" gradientUnits="userSpaceOnUse">
<stop stop-color="#FF003D"/>
<stop offset="0.563536" stop-color="#FF0000"/>
<stop offset="1" stop-color="#FF3D00"/>
</linearGradient>
<linearGradient id="paint7_linear" x1="31.3922" y1="11.0769" x2="31.3922" y2="44.3078" gradientUnits="userSpaceOnUse">
<stop stop-color="#FF003D"/>
<stop offset="0.563536" stop-color="#FF0000"/>
<stop offset="1" stop-color="#FF3D00"/>
</linearGradient>
<linearGradient id="paint8_linear" x1="43.3845" y1="35.0769" x2="43.3845" y2="40.6154" gradientUnits="userSpaceOnUse">
<stop stop-color="#FF003D"/>
<stop offset="0.563536" stop-color="#FF0000"/>
<stop offset="1" stop-color="#FF3D00"/>
</linearGradient>
<linearGradient id="paint9_linear" x1="47.0772" y1="46.1538" x2="47.0772" y2="47.9999" gradientUnits="userSpaceOnUse">
<stop stop-color="#FF003D"/>
<stop offset="0.563536" stop-color="#FF0000"/>
<stop offset="1" stop-color="#FF3D00"/>
</linearGradient>
<linearGradient id="paint10_linear" x1="35.0766" y1="46.1538" x2="35.0766" y2="47.9999" gradientUnits="userSpaceOnUse">
<stop stop-color="#FF003D"/>
<stop offset="0.563536" stop-color="#FF0000"/>
<stop offset="1" stop-color="#FF3D00"/>
</linearGradient>
<linearGradient id="paint11_linear" x1="24.0003" y1="46.1538" x2="24.0003" y2="47.9999" gradientUnits="userSpaceOnUse">
<stop stop-color="#FF003D"/>
<stop offset="0.563536" stop-color="#FF0000"/>
<stop offset="1" stop-color="#FF3D00"/>
</linearGradient>
<linearGradient id="paint12_linear" x1="20.3084" y1="31.3848" x2="20.3084" y2="44.3078" gradientUnits="userSpaceOnUse">
<stop stop-color="#FF003D"/>
<stop offset="0.563536" stop-color="#FF0000"/>
<stop offset="1" stop-color="#FF3D00"/>
</linearGradient>
<linearGradient id="paint13_linear" x1="11.9997" y1="35.0769" x2="11.9997" y2="40.6154" gradientUnits="userSpaceOnUse">
<stop stop-color="#FF003D"/>
<stop offset="0.563536" stop-color="#FF0000"/>
<stop offset="1" stop-color="#FF3D00"/>
</linearGradient>
</defs>
</svg>
