<svg width="48" height="48" viewBox="0 0 48 48" fill="none" xmlns="http://www.w3.org/2000/svg">
<path d="M8.79983 4.80005H5.59977C5.15737 4.80005 4.7998 5.15846 4.7998 5.60002V10.4C4.7998 10.8416 5.15737 11.2 5.59977 11.2H8.79974C9.24215 11.2 9.59971 10.8416 9.59971 10.4V5.60002C9.5998 5.15846 9.24224 4.80005 8.79983 4.80005ZM7.99977 9.60005H6.39984V6.40008H7.99987V9.60005H7.99977Z" fill="url(#paint0_linear)"/>
<path d="M21.5998 20.8C21.1574 20.8 20.7998 21.1585 20.7998 21.6V28C20.7998 28.4416 21.1574 28.8 21.5998 28.8C22.0422 28.8 22.3997 28.4416 22.3997 28V25.6H25.5997V28C25.5997 28.4416 25.9573 28.8 26.3997 28.8C26.8421 28.8 27.1996 28.4416 27.1996 28V21.6C27.1996 21.1585 26.8421 20.8 26.3997 20.8C25.9573 20.8 25.5997 21.1585 25.5997 21.6V24H22.3997V21.6C22.3997 21.1585 22.0422 20.8 21.5998 20.8Z" fill="url(#paint1_linear)"/>
<path d="M34.4001 44.8H12.0002C11.5578 44.8 11.2002 45.1585 11.2002 45.6V47.2C11.2002 47.6416 11.5578 48 12.0002 48C12.4426 48 12.8001 47.6416 12.8001 47.2V46.4001H34.4001C34.8425 46.4001 35.2001 46.0417 35.2001 45.6001C35.2001 45.1585 34.8425 44.8 34.4001 44.8Z" fill="url(#paint2_linear)"/>
<path d="M8.79983 24H5.59977C5.15737 24 4.7998 24.3584 4.7998 24.8V26.4C4.7998 26.8416 5.15737 27.2 5.59977 27.2C6.04218 27.2 6.39974 26.8416 6.39974 26.4V25.6H7.99977V29.6001C7.99977 30.0416 8.35733 30.4 8.79974 30.4C9.24215 30.4 9.59971 30.0416 9.59971 29.6001V24.8001C9.5998 24.3584 9.24224 24 8.79983 24Z" fill="url(#paint3_linear)"/>
<path d="M4.00003 28.8C0.0464061 28.8 0 39.096 0 39.2C0 41.132 1.37681 42.7472 3.19997 43.1192V47.2001C3.19997 47.6416 3.55753 48 3.99994 48C4.44234 48 4.79991 47.6416 4.79991 47.2001V43.1192C6.62306 42.7472 7.99988 41.132 7.99988 39.2C7.99997 39.096 7.95356 28.8 4.00003 28.8ZM4.00003 41.6C2.67684 41.6 1.60003 40.5232 1.60003 39.2C1.60003 35.2144 2.67047 30.4 4.00003 30.4C5.32959 30.4 6.40003 35.2144 6.40003 39.2C6.40003 40.5232 5.32322 41.6 4.00003 41.6Z" fill="url(#paint4_linear)"/>
<path d="M8.79983 14.3999H5.59977C5.15737 14.3999 4.7998 14.7583 4.7998 15.1999V19.9999C4.7998 20.4414 5.15737 20.7998 5.59977 20.7998H8.79974C9.24215 20.7998 9.59971 20.4414 9.59971 19.9999V15.1999C9.5998 14.7583 9.24224 14.3999 8.79983 14.3999ZM7.99977 19.1999H6.39984V15.9999H7.99987V19.1999H7.99977Z" fill="url(#paint5_linear)"/>
<path d="M19.9999 11.2C20.4423 11.2 20.7999 10.8416 20.7999 10.4V5.60002C20.7999 5.15846 20.4423 4.80005 19.9999 4.80005H16.8C16.3576 4.80005 16 5.15846 16 5.60002V10.4C16 10.8416 16.3576 11.2 16.8 11.2H19.9999ZM17.5999 6.39999H19.2V9.59995H17.5999V6.39999Z" fill="url(#paint6_linear)"/>
<path d="M16 34.4001C16 34.8416 16.3576 35.2 16.8 35.2H19.2V42.4C19.2 42.8416 19.5575 43.2 19.9999 43.2C20.4423 43.2 20.7999 42.8416 20.7999 42.4V35.2H27.1999V42.4C27.1999 42.8416 27.5575 43.2 27.9999 43.2C28.4423 43.2 28.7999 42.8416 28.7999 42.4V35.2H31.1999C31.6423 35.2 31.9998 34.8416 31.9998 34.4001C31.9998 33.9585 31.6423 33.6001 31.1999 33.6001H16.8C16.3576 33.6001 16 33.9585 16 34.4001Z" fill="url(#paint7_linear)"/>
<path d="M38.4004 29.6C38.4004 30.0415 38.758 30.3999 39.2004 30.3999H42.4003C42.8427 30.3999 43.2003 30.0415 43.2003 29.6V24.8C43.2003 24.3584 42.8427 24 42.4003 24H39.2004C38.758 24 38.4004 24.3584 38.4004 24.8V29.6ZM40.0004 25.6H41.6004V28.8H40.0004V25.6Z" fill="url(#paint8_linear)"/>
<path d="M38.4004 39.2001C38.4004 39.6416 38.758 40 39.2004 40H42.4003C42.8427 40 43.2003 39.6416 43.2003 39.2001V34.4001C43.2003 33.9585 42.8427 33.6001 42.4003 33.6001H39.2004C38.758 33.6001 38.4004 33.9585 38.4004 34.4001V39.2001ZM40.0004 35.2001H41.6004V38.4001H40.0004V35.2001Z" fill="url(#paint9_linear)"/>
<path d="M38.4004 19.9999C38.4004 20.4414 38.758 20.7998 39.2004 20.7998H42.4003C42.8427 20.7998 43.2003 20.4414 43.2003 19.9999V15.1999C43.2003 14.7583 42.8427 14.3999 42.4003 14.3999H39.2004C38.758 14.3999 38.4004 14.7583 38.4004 15.1999V19.9999ZM40.0004 15.9999H41.6004V19.1999H40.0004V15.9999Z" fill="url(#paint10_linear)"/>
<path d="M39.2004 11.2H42.4003C42.8427 11.2 43.2003 10.8416 43.2003 10.4V5.60002C43.2003 5.15846 42.8427 4.80005 42.4003 4.80005H39.2004C38.758 4.80005 38.4004 5.15846 38.4004 5.60002V10.4C38.4004 10.8416 38.758 11.2 39.2004 11.2ZM40.0004 6.39999H41.6004V9.59995H40.0004V6.39999Z" fill="url(#paint11_linear)"/>
<path d="M47.2 0H0.799969C0.357563 0 0 0.358406 0 0.799969V26.4C0 26.8416 0.357563 27.2 0.799969 27.2C1.24238 27.2 1.59994 26.8416 1.59994 26.4V1.60003H46.4V43.3472C46.1488 43.2576 45.8824 43.2 45.6 43.2C45.4616 43.2 45.324 43.212 45.1888 43.236C44.6377 42.2416 43.5856 41.6 42.4 41.6C41.2145 41.6 40.1624 42.2416 39.6112 43.236C39.4761 43.212 39.3384 43.2 39.2001 43.2C37.8769 43.2 36.8001 44.2768 36.8001 45.6C36.8001 46.9232 37.8769 48 39.2001 48H45.6C46.9232 48 48 46.9232 48 45.6V0.799969C48 0.358406 47.6424 0 47.2 0ZM45.6 46.4H39.2C38.7584 46.4 38.4 46.0408 38.4 45.6C38.4 45.1592 38.7584 44.8 39.2 44.8C39.3528 44.8 39.4991 44.844 39.6336 44.9304C39.852 45.072 40.1264 45.0968 40.368 45C40.6096 44.9016 40.7872 44.692 40.8472 44.4384C41.016 43.7096 41.6536 43.2 42.3999 43.2C43.1464 43.2 43.784 43.7096 43.9527 44.4384C44.0127 44.692 44.1903 44.9017 44.4319 45C44.6735 45.0968 44.947 45.072 45.1663 44.9304C45.6871 44.5944 46.3999 45.0065 46.3999 45.6C46.4 46.0408 46.0416 46.4 45.6 46.4Z" fill="url(#paint12_linear)"/>
<path d="M23.4322 38.632C23.2874 38.7839 23.2002 38.992 23.2002 39.2C23.2002 39.408 23.2874 39.616 23.4322 39.768C23.5834 39.912 23.7922 40.0001 24.0003 40.0001C24.2083 40.0001 24.4162 39.912 24.5683 39.768C24.7123 39.6161 24.8003 39.408 24.8003 39.2C24.8003 38.992 24.7123 38.784 24.5683 38.632C24.2722 38.3359 23.7363 38.3359 23.4322 38.632Z" fill="url(#paint13_linear)"/>
<path d="M34.3997 14.3999H13.5998C13.1574 14.3999 12.7998 14.7583 12.7998 15.1999V42.3998C12.7998 42.8414 13.1574 43.1998 13.5998 43.1998C14.0422 43.1998 14.3997 42.8414 14.3997 42.3998V15.9998H33.5997V42.3998C33.5997 42.8414 33.9573 43.1998 34.3997 43.1998C34.8421 43.1998 35.1997 42.8414 35.1997 42.3998V15.1999C35.1998 14.7583 34.8421 14.3999 34.3997 14.3999Z" fill="url(#paint14_linear)"/>
<path d="M31.2001 11.2C31.6425 11.2 32.0001 10.8416 32.0001 10.4V5.60002C32.0001 5.15846 31.6425 4.80005 31.2001 4.80005H28.0002C27.5578 4.80005 27.2002 5.15846 27.2002 5.60002V10.4C27.2002 10.8416 27.5578 11.2 28.0002 11.2H31.2001ZM28.8001 6.39999H30.4002V9.59995H28.8001V6.39999Z" fill="url(#paint15_linear)"/>
<defs>
<linearGradient id="paint0_linear" x1="7.19976" y1="4.80005" x2="7.19976" y2="11.2" gradientUnits="userSpaceOnUse">
<stop stop-color="#FF003D"/>
<stop offset="0.563536" stop-color="#FF0000"/>
<stop offset="1" stop-color="#FF3D00"/>
</linearGradient>
<linearGradient id="paint1_linear" x1="23.9997" y1="20.8" x2="23.9997" y2="28.8" gradientUnits="userSpaceOnUse">
<stop stop-color="#FF003D"/>
<stop offset="0.563536" stop-color="#FF0000"/>
<stop offset="1" stop-color="#FF3D00"/>
</linearGradient>
<linearGradient id="paint2_linear" x1="23.2001" y1="44.8" x2="23.2001" y2="48" gradientUnits="userSpaceOnUse">
<stop stop-color="#FF003D"/>
<stop offset="0.563536" stop-color="#FF0000"/>
<stop offset="1" stop-color="#FF3D00"/>
</linearGradient>
<linearGradient id="paint3_linear" x1="7.19976" y1="24" x2="7.19976" y2="30.4" gradientUnits="userSpaceOnUse">
<stop stop-color="#FF003D"/>
<stop offset="0.563536" stop-color="#FF0000"/>
<stop offset="1" stop-color="#FF3D00"/>
</linearGradient>
<linearGradient id="paint4_linear" x1="3.99994" y1="28.8" x2="3.99994" y2="48" gradientUnits="userSpaceOnUse">
<stop stop-color="#FF003D"/>
<stop offset="0.563536" stop-color="#FF0000"/>
<stop offset="1" stop-color="#FF3D00"/>
</linearGradient>
<linearGradient id="paint5_linear" x1="7.19976" y1="14.3999" x2="7.19976" y2="20.7998" gradientUnits="userSpaceOnUse">
<stop stop-color="#FF003D"/>
<stop offset="0.563536" stop-color="#FF0000"/>
<stop offset="1" stop-color="#FF3D00"/>
</linearGradient>
<linearGradient id="paint6_linear" x1="18.4" y1="4.80005" x2="18.4" y2="11.2" gradientUnits="userSpaceOnUse">
<stop stop-color="#FF003D"/>
<stop offset="0.563536" stop-color="#FF0000"/>
<stop offset="1" stop-color="#FF3D00"/>
</linearGradient>
<linearGradient id="paint7_linear" x1="23.9999" y1="33.6001" x2="23.9999" y2="43.2" gradientUnits="userSpaceOnUse">
<stop stop-color="#FF003D"/>
<stop offset="0.563536" stop-color="#FF0000"/>
<stop offset="1" stop-color="#FF3D00"/>
</linearGradient>
<linearGradient id="paint8_linear" x1="40.8003" y1="24" x2="40.8003" y2="30.3999" gradientUnits="userSpaceOnUse">
<stop stop-color="#FF003D"/>
<stop offset="0.563536" stop-color="#FF0000"/>
<stop offset="1" stop-color="#FF3D00"/>
</linearGradient>
<linearGradient id="paint9_linear" x1="40.8003" y1="33.6001" x2="40.8003" y2="40" gradientUnits="userSpaceOnUse">
<stop stop-color="#FF003D"/>
<stop offset="0.563536" stop-color="#FF0000"/>
<stop offset="1" stop-color="#FF3D00"/>
</linearGradient>
<linearGradient id="paint10_linear" x1="40.8003" y1="14.3999" x2="40.8003" y2="20.7998" gradientUnits="userSpaceOnUse">
<stop stop-color="#FF003D"/>
<stop offset="0.563536" stop-color="#FF0000"/>
<stop offset="1" stop-color="#FF3D00"/>
</linearGradient>
<linearGradient id="paint11_linear" x1="40.8003" y1="4.80005" x2="40.8003" y2="11.2" gradientUnits="userSpaceOnUse">
<stop stop-color="#FF003D"/>
<stop offset="0.563536" stop-color="#FF0000"/>
<stop offset="1" stop-color="#FF3D00"/>
</linearGradient>
<linearGradient id="paint12_linear" x1="24" y1="0" x2="24" y2="48" gradientUnits="userSpaceOnUse">
<stop stop-color="#FF003D"/>
<stop offset="0.563536" stop-color="#FF0000"/>
<stop offset="1" stop-color="#FF3D00"/>
</linearGradient>
<linearGradient id="paint13_linear" x1="24.0003" y1="38.4099" x2="24.0003" y2="40.0001" gradientUnits="userSpaceOnUse">
<stop stop-color="#FF003D"/>
<stop offset="0.563536" stop-color="#FF0000"/>
<stop offset="1" stop-color="#FF3D00"/>
</linearGradient>
<linearGradient id="paint14_linear" x1="23.9997" y1="14.3999" x2="23.9997" y2="43.1998" gradientUnits="userSpaceOnUse">
<stop stop-color="#FF003D"/>
<stop offset="0.563536" stop-color="#FF0000"/>
<stop offset="1" stop-color="#FF3D00"/>
</linearGradient>
<linearGradient id="paint15_linear" x1="29.6001" y1="4.80005" x2="29.6001" y2="11.2" gradientUnits="userSpaceOnUse">
<stop stop-color="#FF003D"/>
<stop offset="0.563536" stop-color="#FF0000"/>
<stop offset="1" stop-color="#FF3D00"/>
</linearGradient>
</defs>
</svg>
