<svg width="50" height="50" viewBox="0 0 50 50" fill="none" xmlns="http://www.w3.org/2000/svg">
<path d="M46.0938 24.2188H45.6586C45.9273 23.757 46.093 23.2281 46.093 22.6562C46.093 20.9328 44.6914 19.5312 42.968 19.5312H42.4469L38.3711 16.4742C36.9688 15.4227 35.2328 14.8438 33.4797 14.8438C31.8648 14.8438 30.3016 15.3164 28.9594 16.2125L26.3258 17.9688H22.6164L21.2336 15.8945C22.6164 14.9641 23.9055 13.9172 25.0625 12.7609L25.6867 12.1367C26.2516 11.5719 26.5625 10.8211 26.5625 10.0219C26.5625 8.37344 25.2203 7.03125 23.5719 7.03125C22.7734 7.03125 22.0219 7.34219 21.457 7.90703L20.368 8.99609C19.532 9.83203 18.5992 10.582 17.6148 11.2641C17.4078 11.1211 17.1922 10.9898 16.9695 10.8734C18.5055 9.90391 19.5305 8.19609 19.5305 6.25C19.5305 3.23516 17.0766 0.78125 14.0617 0.78125C11.0469 0.78125 8.59297 3.23516 8.59297 6.25C8.59297 8.20312 9.62578 9.91484 11.1695 10.8828C10.9766 10.9836 10.7828 11.0828 10.6 11.2047C9.31094 12.0625 8.41094 13.3414 8.02344 14.8266L6.59844 12.4766C6.03906 11.5273 5.00703 10.9375 3.90469 10.9375C3.34766 10.9375 2.80078 11.0867 2.32266 11.3687C0.838281 12.2398 0.339062 14.1578 1.21094 15.6453L6.25312 24.2188H3.90625C2.18281 24.2188 0.78125 25.6203 0.78125 27.3438C0.78125 29.0672 2.18281 30.4688 3.90625 30.4688H7.83281C7.33672 31.1234 7.03125 31.9297 7.03125 32.8125V38.8164C5.18672 39.6969 3.90625 41.5742 3.90625 43.75C3.90625 46.7648 6.36016 49.2188 9.375 49.2188C12.3898 49.2188 14.8438 46.7648 14.8438 43.75C14.8438 41.5742 13.5633 39.6969 11.7188 38.8164V33.5938H13.2812C13.2812 34.4555 13.982 35.1562 14.8438 35.1562H16.4062C17.268 35.1562 17.9688 34.4555 17.9688 33.5938H32.0312C32.0312 34.4555 32.732 35.1562 33.5938 35.1562H35.1562C36.018 35.1562 36.7188 34.4555 36.7188 33.5938H38.2812V38.8164C36.4367 39.6961 35.1562 41.5742 35.1562 43.75C35.1562 46.7648 37.6102 49.2188 40.625 49.2188C43.6398 49.2188 46.0938 46.7648 46.0938 43.75C46.0938 41.5742 44.8133 39.6969 42.9688 38.8164V32.8125C42.9688 31.9297 42.6633 31.1234 42.1672 30.4688H46.0938C47.8172 30.4688 49.2188 29.0672 49.2188 27.3438C49.2188 25.6203 47.8172 24.2188 46.0938 24.2188ZM44.5305 22.6562C44.5305 23.518 43.8297 24.2188 42.968 24.2188H36.7188V21.875C36.7188 21.6078 36.6914 21.3461 36.6398 21.0938H42.968C43.8297 21.0938 44.5305 21.7945 44.5305 22.6562ZM23.7578 22.6562C23.8016 22.7805 23.8273 22.9109 23.8273 23.0469C23.8273 23.693 23.3016 24.2188 22.6555 24.2188H21.0938V22.6562H23.7578ZM25.3586 22.6562H32.0312V24.2188H25.1156C25.2867 23.8625 25.3898 23.468 25.3898 23.0469C25.3898 22.9148 25.3773 22.7852 25.3586 22.6562ZM32.0312 21.0938H21.0938C20.232 21.0938 19.5312 21.7945 19.5312 22.6562V24.2188H17.9688V21.875C17.9688 20.5828 19.0203 19.5312 20.3125 19.5312H32.8125C34.1047 19.5312 35.1562 20.5828 35.1562 21.875V24.2188H33.5938V22.6562C33.5938 21.7945 32.893 21.0938 32.0312 21.0938ZM29.8266 17.5125C32.0883 16.0023 35.2563 16.0906 37.4336 17.7242L39.8438 19.5312H35.918C35.2039 18.5883 34.0836 17.9688 32.8133 17.9688H29.143L29.8266 17.5125ZM21.4727 10.1008L22.5617 9.01172C22.8273 8.74609 23.1953 8.59375 23.5719 8.59375C24.3594 8.59375 25 9.23438 25 10.0219C25 10.3977 24.8477 10.7664 24.582 11.032L23.9578 11.6562C22.8742 12.7398 21.6648 13.7219 20.368 14.5945L19.2648 12.9398C19.1266 12.732 18.9758 12.5359 18.8164 12.3492C19.7656 11.6687 20.657 10.9164 21.4727 10.1008ZM10.1555 6.25C10.1555 4.09609 11.9078 2.34375 14.0617 2.34375C16.2156 2.34375 17.968 4.09609 17.968 6.25C17.968 8.40391 16.2156 10.1562 14.0617 10.1562C11.9078 10.1562 10.1555 8.40391 10.1555 6.25ZM9.46719 15.4867C9.7125 14.2578 10.4234 13.1984 11.4656 12.5047C12.2383 11.9906 13.1367 11.7188 14.0641 11.7188C15.6375 11.7188 17.0945 12.4984 17.9641 13.8063L20.7391 17.9688H20.3125C18.7148 17.9688 17.3422 18.9352 16.7375 20.3125H16.7297C16.3211 20.3125 15.9352 20.0945 15.725 19.743L13.9508 16.7852L12.6109 17.5891L14.3852 20.5469C14.8219 21.2727 15.5773 21.7531 16.4086 21.8531C16.4086 21.8609 16.4062 21.868 16.4062 21.875V24.2188H15.6617H13.7219L9.43984 17.1594C9.34922 16.6063 9.35547 16.0437 9.46719 15.4867ZM2.55781 14.8539C2.12187 14.1109 2.37109 13.1516 3.11406 12.7156C3.82656 12.2961 4.82891 12.5516 5.25703 13.2797L11.893 24.2188H8.06641L2.55781 14.8539ZM13.2812 43.75C13.2812 45.9039 11.5289 47.6562 9.375 47.6562C7.22109 47.6562 5.46875 45.9039 5.46875 43.75C5.46875 41.5961 7.22109 39.8438 9.375 39.8438C11.5289 39.8438 13.2812 41.5961 13.2812 43.75ZM11.7188 32.0312C10.857 32.0312 10.1562 32.732 10.1562 33.5938V38.3438C9.9 38.307 9.64062 38.2812 9.375 38.2812C9.10938 38.2812 8.85 38.307 8.59375 38.3438V32.8125C8.59375 31.5203 9.64531 30.4688 10.9375 30.4688H13.2812V32.0312H11.7188ZM14.8438 33.5938V28.9062H16.4062L16.4078 33.5938H14.8438ZM17.9688 32.0312V30.4688H32.0312V32.0312H17.9688ZM33.5938 33.5938V28.9062H35.1562L35.1578 33.5938H33.5938ZM44.5312 43.75C44.5312 45.9039 42.7789 47.6562 40.625 47.6562C38.4711 47.6562 36.7188 45.9039 36.7188 43.75C36.7188 41.5961 38.4711 39.8438 40.625 39.8438C42.7789 39.8438 44.5312 41.5961 44.5312 43.75ZM41.4062 32.8125V38.3438C41.15 38.307 40.8906 38.2812 40.625 38.2812C40.3594 38.2812 40.1 38.307 39.8438 38.3438V33.5938C39.8438 32.732 39.143 32.0312 38.2812 32.0312H36.7188V30.4688H39.0625C40.3547 30.4688 41.4062 31.5203 41.4062 32.8125ZM46.0938 28.9062H39.0625H36.7188C36.7188 28.0445 36.018 27.3438 35.1562 27.3438H33.5938C32.732 27.3438 32.0312 28.0445 32.0312 28.9062H17.9688C17.9688 28.0445 17.268 27.3438 16.4062 27.3438H14.8438C13.982 27.3438 13.2812 28.0445 13.2812 28.9062H10.9375H3.90625C3.04453 28.9062 2.34375 28.2055 2.34375 27.3438C2.34375 26.482 3.04453 25.7812 3.90625 25.7812H15.6617H22.6555H35.9375H42.968H46.0938C46.9555 25.7812 47.6562 26.482 47.6562 27.3438C47.6562 28.2055 46.9555 28.9062 46.0938 28.9062Z" fill="#FF0000"/>
<path d="M38.2812 43.75C38.2812 45.0422 39.3328 46.0938 40.625 46.0938C41.9172 46.0938 42.9688 45.0422 42.9688 43.75C42.9688 42.4578 41.9172 41.4062 40.625 41.4062C39.3328 41.4062 38.2812 42.4578 38.2812 43.75ZM41.4062 43.75C41.4062 44.1813 41.0563 44.5312 40.625 44.5312C40.1938 44.5312 39.8438 44.1813 39.8438 43.75C39.8438 43.3188 40.1938 42.9688 40.625 42.9688C41.0563 42.9688 41.4062 43.3188 41.4062 43.75Z" fill="#FF0000"/>
<path d="M7.03125 43.75C7.03125 45.0422 8.08281 46.0938 9.375 46.0938C10.6672 46.0938 11.7188 45.0422 11.7188 43.75C11.7188 42.4578 10.6672 41.4062 9.375 41.4062C8.08281 41.4062 7.03125 42.4578 7.03125 43.75ZM10.1562 43.75C10.1562 44.1813 9.80625 44.5312 9.375 44.5312C8.94375 44.5312 8.59375 44.1813 8.59375 43.75C8.59375 43.3188 8.94375 42.9688 9.375 42.9688C9.80625 42.9688 10.1562 43.3188 10.1562 43.75Z" fill="#FF0000"/>
</svg>
