<svg width="50" height="51" viewBox="0 0 50 51" fill="none" xmlns="http://www.w3.org/2000/svg">
<path d="M46.6667 19.1584H32.5C32.279 19.1584 32.067 19.2462 31.9107 19.4025C31.7545 19.5589 31.6667 19.7709 31.6667 19.992V26.6608C31.6668 26.8454 31.7283 27.0248 31.8414 27.1708C31.9545 27.3167 32.1129 27.421 32.2917 27.4672L32.0849 28.3633C31.7263 28.302 31.3586 28.3198 31.0076 28.4155C30.6566 28.5112 30.3307 28.6825 30.0527 28.9173C29.7748 29.1521 29.5515 29.4449 29.3984 29.775C29.2454 30.1052 29.1663 30.4648 29.1667 30.8287V32.1509C28.3726 31.8286 27.5237 31.6627 26.6667 31.6623H20.8333V28.7786C22.5628 27.7142 23.8685 26.0814 24.527 24.16H25C25.6413 24.1605 26.2691 23.9758 26.808 23.6281C27.347 23.2803 27.7741 22.7844 28.0381 22.1997C28.3021 21.6151 28.3917 20.9667 28.2963 20.3323C28.2008 19.6979 27.9243 19.1046 27.5 18.6236V14.1568C27.5019 11.6276 26.6172 9.17776 25 7.23358V1.65286C25 1.46318 24.9354 1.27917 24.8167 1.13121C24.698 0.983253 24.5325 0.880197 24.3474 0.83906C19.2878 -0.277734 14.0456 -0.277734 8.98594 0.83906C8.80083 0.880197 8.63528 0.983253 8.51663 1.13121C8.39798 1.27917 8.33332 1.46318 8.33333 1.65286V7.23264C6.71399 9.17598 5.82907 11.6269 5.83333 14.1568V18.6236C5.409 19.1046 5.1325 19.6979 5.03706 20.3323C4.94161 20.9667 5.03127 21.6151 5.29526 22.1997C5.55926 22.7844 5.98637 23.2803 6.52529 23.6281C7.06421 23.9758 7.69203 24.1605 8.33333 24.16H8.80635C9.46484 26.0814 10.7706 27.7142 12.5 28.7786V31.6623H6.66667C4.89917 31.6643 3.20463 32.3676 1.95481 33.6178C0.705001 34.868 0.00198509 36.5631 0 38.3311V43.3327C0 43.5538 0.0877973 43.7658 0.244078 43.9221C0.400358 44.0785 0.61232 44.1663 0.833333 44.1663H1.66667V49.1679C1.66667 49.389 1.75446 49.601 1.91074 49.7573C2.06702 49.9136 2.27899 50.0015 2.5 50.0015H35C35.221 50.0015 35.433 49.9136 35.5893 49.7573C35.7455 49.601 35.8333 49.389 35.8333 49.1679V38.3311H39.1667C39.3639 38.3311 39.5548 38.2611 39.7053 38.1336C39.8558 38.006 39.9562 37.8292 39.9886 37.6345L40.7239 33.2223C41.2977 33.0486 41.7901 32.6743 42.1111 32.1677C42.4322 31.6612 42.5605 31.0561 42.4727 30.4628C42.385 29.8694 42.087 29.3274 41.6331 28.9355C41.1792 28.5437 40.5996 28.328 40 28.328H39.4185L39.7391 27.4944H46.6667C46.8877 27.4944 47.0996 27.4065 47.2559 27.2502C47.4122 27.0939 47.5 26.8818 47.5 26.6608V19.992C47.5 19.7709 47.4122 19.5589 47.2559 19.4025C47.0996 19.2462 46.8877 19.1584 46.6667 19.1584ZM33.3333 20.8256H40.8333V25.8272H33.3333V20.8256ZM30.8333 30.8287C30.8333 30.6077 30.9211 30.3956 31.0774 30.2393C31.2337 30.083 31.4457 29.9951 31.6667 29.9951C31.8877 29.9951 32.0996 30.083 32.2559 30.2393C32.4122 30.3956 32.5 30.6077 32.5 30.8287V32.4959C32.5 32.717 32.4122 32.9291 32.2559 33.0854C32.0996 33.2417 31.8877 33.3295 31.6667 33.3295C31.4457 33.3295 31.2337 33.2417 31.0774 33.0854C30.9211 32.9291 30.8333 32.717 30.8333 32.4959V30.8287ZM26.6667 48.3343V46.9514C27.2929 46.114 27.7633 45.1705 28.0551 44.1663H29.0392L28.444 48.3343H26.6667ZM30.5378 35.1671L30.0232 37.3021V37.3028C30.0173 37.328 30.0123 37.3535 30.0086 37.3796L29.2773 42.4991H28.3646C28.5128 40.7415 28.1216 38.9806 27.2431 37.4513L26.6667 36.4425V33.3295C27.4076 33.3306 28.1391 33.4959 28.8084 33.8137C29.4778 34.1314 30.0684 34.5936 30.5378 35.1671ZM21.9857 34.478C22.1159 35.2501 22.0136 36.0434 21.6919 36.7572C21.3703 37.471 20.8437 38.073 20.1792 38.4867L19.0333 39.2031L19.0768 39.127C20.0891 37.3523 20.6812 35.369 20.8073 33.3295H21.7941L21.9857 34.478ZM14.1667 32.4959V29.5798C15.7859 30.1425 17.5475 30.1425 19.1667 29.5798V32.5097C19.1658 34.5406 18.636 36.5361 17.6295 38.2999L16.6667 39.9854L15.7039 38.2999C14.6973 36.5361 14.1675 34.5406 14.1667 32.5097V32.4959ZM10 18.3248V16.3262C11.7062 15.3731 13.1566 14.0213 14.2275 12.3861C15.0973 13.4755 16.2011 14.3551 17.457 14.9596C18.713 15.5641 20.0888 15.8781 21.4826 15.8782C21.5471 15.8782 21.6122 15.8775 21.6769 15.8761L23.3331 15.8416V19.992H10V18.3248ZM25 22.4928V19.1584C25.442 19.1584 25.866 19.334 26.1785 19.6467C26.4911 19.9594 26.6667 20.3834 26.6667 20.8256C26.6667 21.2677 26.4911 21.6918 26.1785 22.0045C25.866 22.3171 25.442 22.4928 25 22.4928ZM10 2.32839C14.4009 1.44821 18.9324 1.44821 23.3333 2.32839V6.65444H10V2.32839ZM9.59833 8.32163H23.7377C25.094 9.96337 25.8351 12.027 25.8333 14.1568V17.5967C25.5611 17.5265 25.2811 17.491 25 17.4912V14.9904C25 14.8795 24.9779 14.7697 24.935 14.6674C24.8921 14.5651 24.8292 14.4724 24.75 14.3948C24.5892 14.2389 24.3731 14.1533 24.1493 14.1568L21.6421 14.2089C20.2791 14.2375 18.9334 13.8997 17.7454 13.2307C16.5574 12.5617 15.5706 11.5861 14.888 10.4056C14.8127 10.2753 14.7035 10.1679 14.5721 10.0947C14.4406 10.0215 14.2918 9.98522 14.1414 9.98979C13.991 9.99435 13.8447 10.0396 13.7179 10.1206C13.5911 10.2016 13.4887 10.3155 13.4214 10.4501C12.4163 12.4505 10.7937 14.0736 8.79396 15.079C8.65563 15.1482 8.53928 15.2545 8.45793 15.3861C8.37658 15.5177 8.33344 15.6693 8.33333 15.824V17.4912C8.05221 17.491 7.7722 17.5265 7.5 17.5967V14.1568C7.49702 12.0264 8.23936 9.96202 9.59833 8.32163ZM8.33333 22.4928C7.89131 22.4928 7.46738 22.3171 7.15482 22.0045C6.84226 21.6918 6.66667 21.2677 6.66667 20.8256C6.66667 20.3834 6.84226 19.9594 7.15482 19.6467C7.46738 19.334 7.89131 19.1584 8.33333 19.1584V22.4928ZM10.0089 21.6592H23.3245C23.2671 22.8644 22.9032 24.035 22.2672 25.0602C21.6312 26.0854 20.7442 26.9313 19.6901 27.5178L19.6007 27.5674C18.7043 28.0695 17.694 28.3332 16.6666 28.3332C15.6392 28.3332 14.629 28.0695 13.7325 27.5674L13.6434 27.518C12.5893 26.9315 11.7022 26.0856 11.0662 25.0604C10.4301 24.0351 10.0662 22.8644 10.0089 21.6592ZM12.5253 33.3295C12.6518 35.369 13.2441 37.3523 14.2568 39.127L14.3002 39.2029L13.1544 38.4867C12.4898 38.073 11.9633 37.471 11.6416 36.7572C11.3199 36.0434 11.2177 35.2501 11.3478 34.478L11.5393 33.3295H12.5253ZM1.66667 38.3311C1.66816 37.0051 2.19542 35.7338 3.13278 34.7961C4.07014 33.8584 5.34104 33.331 6.66667 33.3295V36.4425L6.09052 37.4513C5.21196 38.9805 4.82063 40.7415 4.96875 42.4991H1.66667V38.3311ZM3.33333 44.1663H5.27823C5.57008 45.1705 6.0404 46.114 6.66667 46.9514V48.3343H3.33333V44.1663ZM8.15073 46.1461C7.26717 45.0495 6.73578 43.7112 6.62634 42.307C6.5169 40.9028 6.83452 39.4983 7.5375 38.278L8.22354 37.0772C8.29547 36.9513 8.33332 36.8089 8.33333 36.6639V33.3295H9.84958L9.70375 34.204C9.51881 35.3011 9.66413 36.4285 10.1212 37.4428C10.5784 38.4572 11.3266 39.3126 12.2709 39.9006L16.2248 42.3724C16.227 42.3736 16.2293 42.3745 16.2318 42.375C16.3635 42.4566 16.5154 42.4997 16.6703 42.4992C16.8252 42.4987 16.9769 42.4548 17.1081 42.3724L21.0625 39.9006C22.0068 39.3126 22.7551 38.4572 23.2122 37.4428C23.6693 36.4285 23.8146 35.3011 23.6297 34.204L23.4839 33.3295H25V36.6639C25 36.809 25.0378 36.9515 25.1098 37.0775L25.7958 38.2783C26.4987 39.4986 26.8163 40.903 26.7069 42.3071C26.5974 43.7113 26.0661 45.0495 25.1826 46.1461C25.0643 46.294 24.9999 46.4777 25 46.6671V48.3343H8.33333V46.6671C8.33339 46.4777 8.26899 46.294 8.15073 46.1461ZM34.1667 48.3343H30.1275L31.556 38.3311H34.1667V48.3343ZM38.4607 36.6639H35.8333V34.5083L37.0118 33.3295H39.0163L38.4607 36.6639ZM40.8333 30.8287C40.8331 31.0498 40.7452 31.2616 40.589 31.4179C40.4328 31.5742 40.2209 31.6621 40 31.6623H38.3333C38.1123 31.6623 37.9004 31.5745 37.7441 31.4182C37.5878 31.2619 37.5 31.0498 37.5 30.8287C37.5 30.6077 37.5878 30.3956 37.7441 30.2393C37.9004 30.083 38.1123 29.9951 38.3333 29.9951H40C40.2209 29.9954 40.4328 30.0833 40.589 30.2396C40.7452 30.3958 40.8331 30.6077 40.8333 30.8287ZM37.5893 28.441C37.247 28.5478 36.9318 28.7269 36.6648 28.9662C36.3979 29.2056 36.1855 29.4996 36.0421 29.8282C35.8988 30.1569 35.8277 30.5126 35.8338 30.8711C35.84 31.2297 35.9231 31.5827 36.0776 31.9063L34.4109 33.5735C34.3335 33.6509 34.2721 33.7428 34.2301 33.844C34.1882 33.9452 34.1667 34.0536 34.1667 34.1631V36.6639H31.8915L32.314 34.9113C32.8451 34.7681 33.3144 34.454 33.6492 34.0175C33.9841 33.5809 34.1659 33.0462 34.1667 32.4959V30.8287C34.1671 30.2478 33.9645 29.6849 33.5938 29.2377L33.9963 27.4944H37.9533L37.5893 28.441ZM45.8333 25.8272H42.5V20.8256H45.8333V25.8272Z" fill="#FF0000"/>
<path d="M12.7083 19.7838C13.5137 19.7838 14.1667 19.1307 14.1667 18.325C14.1667 17.5193 13.5137 16.8662 12.7083 16.8662C11.9029 16.8662 11.25 17.5193 11.25 18.325C11.25 19.1307 11.9029 19.7838 12.7083 19.7838Z" fill="#FF0000"/>
<path d="M20.6253 19.7838C21.4307 19.7838 22.0837 19.1307 22.0837 18.325C22.0837 17.5193 21.4307 16.8662 20.6253 16.8662C19.8199 16.8662 19.167 17.5193 19.167 18.325C19.167 19.1307 19.8199 19.7838 20.6253 19.7838Z" fill="#FF0000"/>
<path d="M15.0003 24.1604H18.3337C18.5547 24.1604 18.7666 24.0725 18.9229 23.9162C19.0792 23.7599 19.167 23.5478 19.167 23.3268C19.167 23.1057 19.0792 22.8936 18.9229 22.7373C18.7666 22.581 18.5547 22.4932 18.3337 22.4932H15.0003C14.7793 22.4932 14.5673 22.581 14.4111 22.7373C14.2548 22.8936 14.167 23.1057 14.167 23.3268C14.167 23.5478 14.2548 23.7599 14.4111 23.9162C14.5673 24.0725 14.7793 24.1604 15.0003 24.1604Z" fill="#FF0000"/>
<path d="M15.0003 26.6608H18.3337C18.5547 26.6608 18.7666 26.573 18.9229 26.4167C19.0792 26.2604 19.167 26.0483 19.167 25.8272C19.167 25.6062 19.0792 25.3941 18.9229 25.2378C18.7666 25.0815 18.5547 24.9937 18.3337 24.9937H15.0003C14.7793 24.9937 14.5673 25.0815 14.4111 25.2378C14.2548 25.3941 14.167 25.6062 14.167 25.8272C14.167 26.0483 14.2548 26.2604 14.4111 26.4167C14.5673 26.573 14.7793 26.6608 15.0003 26.6608Z" fill="#FF0000"/>
<path d="M39.1667 22.4932H35V24.1604H39.1667V22.4932Z" fill="#FF0000"/>
<path d="M45 16.6576C45 16.8787 45.0878 17.0907 45.2441 17.2471C45.4004 17.4034 45.6123 17.4912 45.8333 17.4912C46.0543 17.4912 46.2663 17.4034 46.4226 17.2471C46.5789 17.0907 46.6667 16.8787 46.6667 16.6576C46.6657 15.7736 46.3142 14.9261 45.6893 14.301C45.0644 13.6759 44.2171 13.3242 43.3333 13.3232C43.1123 13.3232 42.9004 13.4111 42.7441 13.5674C42.5878 13.7237 42.5 13.9358 42.5 14.1568C42.5 14.3779 42.5878 14.59 42.7441 14.7463C42.9004 14.9026 43.1123 14.9904 43.3333 14.9904C43.7752 14.991 44.1988 15.1668 44.5113 15.4793C44.8237 15.7919 44.9995 16.2156 45 16.6576Z" fill="#FF0000"/>
<path d="M43.3333 9.98926C43.1123 9.98926 42.9004 10.0771 42.7441 10.2334C42.5878 10.3897 42.5 10.6018 42.5 10.8229C42.5 11.0439 42.5878 11.256 42.7441 11.4123C42.9004 11.5686 43.1123 11.6565 43.3333 11.6565C44.659 11.6579 45.9299 12.1854 46.8672 13.123C47.8046 14.0607 48.3318 15.332 48.3333 16.658C48.3333 16.8791 48.4211 17.0911 48.5774 17.2475C48.7337 17.4038 48.9457 17.4916 49.1667 17.4916C49.3877 17.4916 49.5996 17.4038 49.7559 17.2475C49.9122 17.0911 50 16.8791 50 16.658C49.998 14.89 49.295 13.1949 48.0452 11.9447C46.7954 10.6945 45.1008 9.99124 43.3333 9.98926Z" fill="#FF0000"/>
<path d="M17.5 2.48682H15.8333V3.32041H15V4.98761H15.8333V5.8212H17.5V4.98761H18.3333V3.32041H17.5V2.48682Z" fill="#FF0000"/>
<path d="M20.0003 44.1667H24.167C24.388 44.1667 24.6 44.0789 24.7562 43.9226C24.9125 43.7662 25.0003 43.5542 25.0003 43.3331C25.0003 43.112 24.9125 42.9 24.7562 42.7437C24.6 42.5873 24.388 42.4995 24.167 42.4995H20.0003C19.7793 42.4995 19.5673 42.5873 19.4111 42.7437C19.2548 42.9 19.167 43.112 19.167 43.3331C19.167 43.5542 19.2548 43.7662 19.4111 43.9226C19.5673 44.0789 19.7793 44.1667 20.0003 44.1667Z" fill="#FF0000"/>
</svg>
