<svg width="48" height="48" viewBox="0 0 48 48" fill="none" xmlns="http://www.w3.org/2000/svg">
<path d="M40 18.4001C40 17.9585 39.6424 17.6001 39.2 17.6001C38.7576 17.6001 38.4 17.9585 38.4 18.4001V20.8001C38.4 28.1137 40.1056 31.4352 40.1696 31.5568C40.5192 32.2608 41.0905 33.9584 40.6232 34.7112C40.4224 35.0352 39.9728 35.2 39.2856 35.2H32.8C32.3576 35.2 32 35.5584 32 36C32 36.4416 32.3576 36.8 32.8 36.8H39.2856C40.8791 36.8 41.6335 36.1208 41.9848 35.5511C43.044 33.8376 41.752 31.1439 41.5952 30.8304C41.5792 30.7991 40 27.6632 40 20.8V18.4001H40Z" fill="url(#paint0_linear)"/>
<path d="M12.8001 18.4001C12.8001 17.9585 12.4417 17.6001 12.0002 17.6001C11.5586 17.6001 11.2002 17.9585 11.2002 18.4001C11.2002 21.8337 13.7193 28.428 14.4842 29.9576C15.4586 31.9048 19.7186 36.8001 24.0001 36.8001C28.2817 36.8001 32.5425 31.9048 33.5161 29.9576C34.2809 28.428 36.8001 21.8337 36.8001 18.4001C36.8001 17.9585 36.4425 17.6001 36.0001 17.6001C35.5577 17.6001 35.2002 17.9585 35.2002 18.4001C35.2002 20.2129 34.3697 23.1657 33.5313 25.5896C31.9689 25.5448 27.4274 25.3089 24.2977 24.0568C24.1057 23.9816 23.8945 23.9816 23.7025 24.0568C20.5689 25.3105 16.0169 25.5456 14.4689 25.5896C13.6313 23.1657 12.8001 20.2128 12.8001 18.4001ZM24 25.6576C27.0512 26.7968 31.0329 27.0944 32.9561 27.172C32.6081 28.0832 32.2936 28.8233 32.0841 29.2424C31.3665 30.6784 27.5697 35.2 24.0001 35.2C20.4306 35.2 16.6337 30.6785 15.9162 29.2424C15.7066 28.8233 15.3922 28.084 15.0442 27.1728C16.9601 27.0953 20.9441 26.7985 24 25.6576Z" fill="url(#paint1_linear)"/>
<path d="M20.0001 22.4001C20.4417 22.4001 20.8001 22.0417 20.8001 21.6001V21.0737C20.8513 21.1233 20.8865 21.1641 20.8905 21.1697C21.0329 21.4433 21.3121 21.6001 21.6009 21.6001C21.7249 21.6001 21.8513 21.5713 21.9697 21.5097C22.3617 21.3057 22.5138 20.8225 22.3098 20.4306C22.0722 19.9737 21.3178 19.2002 20.0001 19.2002C18.6826 19.2002 17.9282 19.9738 17.6905 20.4306C17.4913 20.8137 17.6385 21.2714 18.0145 21.4834C18.3905 21.6978 18.8737 21.5594 19.0985 21.1906C19.1058 21.1786 19.1449 21.1322 19.2002 21.0786V21.6002C19.2001 22.0417 19.5585 22.4001 20.0001 22.4001Z" fill="url(#paint2_linear)"/>
<path d="M28 22.4001C28.4424 22.4001 28.7999 22.0417 28.7999 21.6001V21.0737C28.8511 21.1233 28.8864 21.1641 28.8903 21.1697C29.0327 21.4433 29.3119 21.6001 29.6008 21.6001C29.7248 21.6001 29.8512 21.5713 29.9696 21.5097C30.3608 21.3057 30.5136 20.8225 30.3096 20.4306C30.072 19.9737 29.3168 19.2002 28 19.2002C26.6832 19.2002 25.928 19.9738 25.6904 20.4306C25.4911 20.8137 25.6392 21.2714 26.0143 21.4834C26.3888 21.6953 26.8727 21.5602 27.0975 21.1906C27.1055 21.1786 27.1447 21.1322 27.1999 21.0786V21.6002C27.2 22.0417 27.5576 22.4001 28 22.4001Z" fill="url(#paint3_linear)"/>
<path d="M47.9587 46.947C47.8875 46.7334 46.1171 41.687 37.7572 40.0158C37.3388 39.9318 36.9276 40.191 36.8244 40.6054L35.3755 46.3998H12.6252L11.1764 40.6054C11.0731 40.1918 10.666 39.9334 10.2436 40.0158C1.88435 41.6871 0.113224 46.7334 0.0412242 46.947C-0.0979943 47.3638 0.126818 47.8126 0.54363 47.9542C0.959598 48.0974 1.41325 47.8727 1.558 47.4582C1.618 47.2854 3.06363 43.3486 9.8124 41.7471L11.2244 47.3943C11.3131 47.7502 11.6332 47.9999 12.0003 47.9999H36.0003C36.3675 47.9999 36.6867 47.7503 36.7763 47.3943L38.1875 41.7471C44.9371 43.3487 46.3835 47.2847 46.4419 47.4527C46.5531 47.7879 46.8651 47.9999 47.2003 47.9999C47.2836 47.9999 47.3691 47.987 47.4531 47.9591C47.8723 47.819 48.0987 47.3662 47.9587 46.947Z" fill="url(#paint4_linear)"/>
<path d="M12.8249 40.1945C12.9329 40.6225 13.3673 40.8842 13.7953 40.7762L16.4688 40.1073C17.4336 41.3818 20.3609 44.8002 24.0008 44.8002C27.6407 44.8002 30.568 41.3818 31.5328 40.1073L34.2072 40.7762C34.6335 40.8842 35.0696 40.6226 35.1767 40.1945C35.2839 39.7657 35.0232 39.3314 34.5943 39.2241L31.3944 38.4242C31.0656 38.3426 30.7232 38.4753 30.536 38.7554C30.5056 38.8002 27.5192 43.2001 24.0008 43.2001C20.4824 43.2001 17.496 38.8002 17.4664 38.7554C17.2785 38.4753 16.9352 38.3426 16.6065 38.4242L13.4065 39.2241C12.9784 39.3313 12.7176 39.7657 12.8249 40.1945Z" fill="url(#paint5_linear)"/>
<path d="M8.71433 36.8H15.1999C15.6415 36.8 15.9999 36.4416 15.9999 36C15.9999 35.5584 15.6415 35.2 15.1999 35.2H8.71433C8.0279 35.2 7.57752 35.0352 7.37671 34.7112C6.90956 33.9584 7.48068 32.2608 7.85109 31.5104C7.92224 31.3416 9.59989 27.2873 9.59989 20.8001V18.4001C9.59989 17.9585 9.24149 17.6001 8.79993 17.6001C8.35837 17.6001 7.99996 17.9585 7.99996 18.4001V20.8001C7.99996 26.9329 6.39674 30.8425 6.39834 30.8425C6.24796 31.144 4.9559 33.8377 6.01509 35.5512C6.36637 36.1208 7.12077 36.8 8.71433 36.8Z" fill="url(#paint6_linear)"/>
<path d="M8.79997 16H39.1999C39.6423 16 39.9999 15.6416 39.9999 15.2V7.19999C39.9999 2.82637 37.4871 0 33.5999 0H15.2C11.0952 0 8 3.09524 8 7.19999V15.1999C8 15.6416 8.35841 16 8.79997 16ZM9.59993 7.19999C9.59993 3.95521 11.9551 1.60003 15.1999 1.60003H33.5999C37.139 1.60003 38.3999 4.49287 38.3999 7.19999V14.4H9.59993V7.19999Z" fill="url(#paint7_linear)"/>
<path d="M26.4007 7.19995H24.8007V5.60002C24.8007 5.15845 24.4423 4.80005 24.0007 4.80005C23.5592 4.80005 23.2008 5.15845 23.2008 5.60002V7.20004H21.6007C21.1592 7.20004 20.8008 7.55845 20.8008 8.00001C20.8008 8.44157 21.1592 8.79998 21.6007 8.79998H23.2008V10.4C23.2008 10.8416 23.5592 11.2 24.0007 11.2C24.4423 11.2 24.8007 10.8416 24.8007 10.4V8.79998H26.4007C26.8431 8.79998 27.2007 8.44157 27.2007 8.00001C27.2008 7.55836 26.8431 7.19995 26.4007 7.19995Z" fill="url(#paint8_linear)"/>
<defs>
<linearGradient id="paint0_linear" x1="37.1991" y1="17.6001" x2="37.1991" y2="36.8" gradientUnits="userSpaceOnUse">
<stop stop-color="#FF003D"/>
<stop offset="0.563536" stop-color="#FF0000"/>
<stop offset="1" stop-color="#FF3D00"/>
</linearGradient>
<linearGradient id="paint1_linear" x1="24.0001" y1="17.6001" x2="24.0001" y2="36.8001" gradientUnits="userSpaceOnUse">
<stop stop-color="#FF003D"/>
<stop offset="0.563536" stop-color="#FF0000"/>
<stop offset="1" stop-color="#FF3D00"/>
</linearGradient>
<linearGradient id="paint2_linear" x1="20.001" y1="19.2002" x2="20.001" y2="22.4001" gradientUnits="userSpaceOnUse">
<stop stop-color="#FF003D"/>
<stop offset="0.563536" stop-color="#FF0000"/>
<stop offset="1" stop-color="#FF3D00"/>
</linearGradient>
<linearGradient id="paint3_linear" x1="28.0008" y1="19.2002" x2="28.0008" y2="22.4001" gradientUnits="userSpaceOnUse">
<stop stop-color="#FF003D"/>
<stop offset="0.563536" stop-color="#FF0000"/>
<stop offset="1" stop-color="#FF3D00"/>
</linearGradient>
<linearGradient id="paint4_linear" x1="24.0001" y1="40" x2="24.0001" y2="47.9999" gradientUnits="userSpaceOnUse">
<stop stop-color="#FF003D"/>
<stop offset="0.563536" stop-color="#FF0000"/>
<stop offset="1" stop-color="#FF3D00"/>
</linearGradient>
<linearGradient id="paint5_linear" x1="24.0008" y1="38.4004" x2="24.0008" y2="44.8002" gradientUnits="userSpaceOnUse">
<stop stop-color="#FF003D"/>
<stop offset="0.563536" stop-color="#FF0000"/>
<stop offset="1" stop-color="#FF3D00"/>
</linearGradient>
<linearGradient id="paint6_linear" x1="10.8007" y1="17.6001" x2="10.8007" y2="36.8" gradientUnits="userSpaceOnUse">
<stop stop-color="#FF003D"/>
<stop offset="0.563536" stop-color="#FF0000"/>
<stop offset="1" stop-color="#FF3D00"/>
</linearGradient>
<linearGradient id="paint7_linear" x1="24" y1="0" x2="24" y2="16" gradientUnits="userSpaceOnUse">
<stop stop-color="#FF003D"/>
<stop offset="0.563536" stop-color="#FF0000"/>
<stop offset="1" stop-color="#FF3D00"/>
</linearGradient>
<linearGradient id="paint8_linear" x1="24.0007" y1="4.80005" x2="24.0007" y2="11.2" gradientUnits="userSpaceOnUse">
<stop stop-color="#FF003D"/>
<stop offset="0.563536" stop-color="#FF0000"/>
<stop offset="1" stop-color="#FF3D00"/>
</linearGradient>
</defs>
</svg>
