<svg width="120" height="120" viewBox="0 0 120 120" fill="none" xmlns="http://www.w3.org/2000/svg">
<circle cx="60" cy="60" r="60" fill="#F9F9F8"/>
<path d="M62.0006 61.78H16.4549C15.9275 61.78 15.5 61.3726 15.5 60.8701V58.8389H62.9555V60.8701C62.9555 61.3726 62.528 61.78 62.0006 61.78Z" fill="#AFAFAF"/>
<path d="M56.1463 46.9868L56.1463 46.9868C56.2603 47.5009 56.6136 47.9201 57.0827 48.1364L57.0828 48.1365L62.1025 50.4508L62.1026 50.4509C62.18 50.4866 62.2055 50.5473 62.2055 50.5887V58.0915H16.25V35.1198C16.25 35.0652 16.3072 34.96 16.4549 34.96H53.3075C53.4312 34.96 53.4974 35.0396 53.5094 35.094L53.5094 35.094L56.1463 46.9868Z" fill="white" stroke="#CBCBCB" stroke-width="1.5"/>
<path d="M46.1719 46.3496V38.0593C46.1719 37.5567 46.5993 37.1494 47.1267 37.1494H50.7147C51.1605 37.1494 51.547 37.4433 51.6459 37.8576L53.6232 46.1479C53.759 46.7172 53.3048 47.2594 52.6921 47.2594H47.1268C46.5993 47.2594 46.1719 46.8521 46.1719 46.3496Z" fill="#B1E4F9"/>
<path d="M50.713 37.1494H49.6426L52.0539 47.2593H52.6904C53.3031 47.2593 53.7573 46.7172 53.6215 46.1478L51.6441 37.8576C51.5453 37.4433 51.1588 37.1494 50.713 37.1494Z" fill="#90D8F9"/>
<path d="M37.3027 46.3496V38.0593C37.3027 37.5567 37.7302 37.1494 38.2576 37.1494H42.1351C42.6625 37.1494 43.09 37.5567 43.09 38.0593V46.3496C43.09 46.8521 42.6625 47.2594 42.1351 47.2594H38.2576C37.7302 47.2594 37.3027 46.8521 37.3027 46.3496Z" fill="#B1E4F9"/>
<path d="M53.4064 65.8259C56.6026 65.8259 59.1936 63.357 59.1936 60.3114C59.1936 57.2658 56.6026 54.7969 53.4064 54.7969C50.2102 54.7969 47.6191 57.2658 47.6191 60.3114C47.6191 63.357 50.2102 65.8259 53.4064 65.8259Z" fill="#86A0AF"/>
<path d="M53.4073 61.8749C54.3129 61.8749 55.047 61.1754 55.047 60.3124C55.047 59.4495 54.3129 58.75 53.4073 58.75C52.5017 58.75 51.7676 59.4495 51.7676 60.3124C51.7676 61.1754 52.5017 61.8749 53.4073 61.8749Z" fill="#D0E2E7"/>
<path d="M25.0412 65.8259C28.2374 65.8259 30.8284 63.357 30.8284 60.3114C30.8284 57.2658 28.2374 54.7969 25.0412 54.7969C21.8449 54.7969 19.2539 57.2658 19.2539 60.3114C19.2539 63.357 21.8449 65.8259 25.0412 65.8259Z" fill="#86A0AF"/>
<path d="M25.0479 61.8749C25.9535 61.8749 26.6876 61.1754 26.6876 60.3124C26.6876 59.4495 25.9535 58.75 25.0479 58.75C24.1423 58.75 23.4082 59.4495 23.4082 60.3124C23.4082 61.1754 24.1423 61.8749 25.0479 61.8749Z" fill="#D0E2E7"/>
<path d="M32.2011 41.8367H28.4277C28.1113 41.8367 27.8548 41.5924 27.8548 41.2908V37.6953C27.8548 37.3938 27.5984 37.1494 27.2819 37.1494H25.1483C24.8319 37.1494 24.5754 37.3938 24.5754 37.6953V41.2908C24.5754 41.5924 24.3189 41.8367 24.0025 41.8367H20.2291C19.9127 41.8367 19.6562 42.0811 19.6562 42.3826V44.4157C19.6562 44.7173 19.9127 44.9616 20.2291 44.9616H24.0025C24.3189 44.9616 24.5754 45.206 24.5754 45.5075V49.1031C24.5754 49.4046 24.8319 49.649 25.1483 49.649H27.2819C27.5984 49.649 27.8548 49.4046 27.8548 49.1031V45.5075C27.8548 45.206 28.1113 44.9616 28.4277 44.9616H32.2011C32.5175 44.9616 32.774 44.7173 32.774 44.4157V42.3826C32.774 42.0811 32.5175 41.8367 32.2011 41.8367Z" fill="#FF0000"/>
<path d="M42.1194 34.2095H36.332L37.1382 30.5222C37.2304 30.1003 37.6207 29.7979 38.073 29.7979H40.3783C40.8306 29.7979 41.2208 30.1003 41.313 30.5222L42.1194 34.2095Z" fill="#FF0000"/>
<path d="M48.8171 50.8833H46.888C46.4924 50.8833 46.1719 50.5778 46.1719 50.2009C46.1719 49.824 46.4925 49.5186 46.888 49.5186H48.8171C49.2126 49.5186 49.5332 49.824 49.5332 50.2009C49.5332 50.5778 49.2126 50.8833 48.8171 50.8833Z" fill="#D0E2E7"/>
<path d="M62.9635 53.0893H61.0345C60.6389 53.0893 60.3184 52.7838 60.3184 52.407C60.3184 52.0301 60.639 51.7246 61.0345 51.7246H62.9635V53.0893Z" fill="#86A0AF"/>
<path d="M62.9635 56.0307H61.0345C60.6389 56.0307 60.3184 55.7252 60.3184 55.3484C60.3184 54.9715 60.639 54.666 61.0345 54.666H62.9635V56.0307Z" fill="#86A0AF"/>
<path d="M38.0188 56.7655C37.6232 56.7655 37.3027 56.46 37.3027 56.0831V50.2009C37.3027 49.824 37.6233 49.5186 38.0188 49.5186C38.4143 49.5186 38.7349 49.824 38.7349 50.2009V56.0831C38.735 56.4599 38.4144 56.7655 38.0188 56.7655Z" fill="#D0E2E7"/>
<path d="M48.2695 64.9053H64.1081V88.744H43.2793V69.8007C43.2793 68.5024 43.8051 67.2572 44.7409 66.3391C45.6767 65.421 46.946 64.9053 48.2695 64.9053Z" fill="#DBDBDB"/>
<path d="M86.2051 78.309L86.3603 78.602L86.6816 78.6844L92.269 80.1169C92.4807 80.1712 92.6709 80.2963 92.808 80.4751C92.9453 80.6542 93.0209 80.8763 93.0209 81.1063V88.7114H44.0078V69.7727C44.0078 68.6183 44.4592 67.5136 45.2591 66.7009C46.0585 65.8887 47.1402 65.4346 48.2656 65.4346H78.1453C78.5186 65.4346 78.8857 65.5372 79.2078 65.7327C79.5299 65.9282 79.7955 66.2097 79.975 66.5485L86.2051 78.309Z" fill="white" stroke="#CBCBCB" stroke-width="1.5"/>
<path d="M86.7342 77.6732H76.2559V70.0107H82.5294L86.7342 77.6732Z" fill="#DBDBDB"/>
<path d="M63.8457 65.4346H76.778V88.7114H63.8457V65.4346Z" fill="white" stroke="#CBCBCB" stroke-width="1.5"/>
<path d="M63.8457 65.4346H76.778V78.0928H63.8457V65.4346Z" fill="white" stroke="#CBCBCB" stroke-width="1.5"/>
<path d="M57.1558 73.4166H55.4201V71.7139H51.9486V73.4166H50.2129V76.8222H51.9486V78.5249H55.4201V76.8222H57.1558V73.4166Z" fill="#FF0000"/>
<path d="M71.9175 68.3135H68.446C67.9667 68.3135 67.5781 68.6947 67.5781 69.1649V74.2732C67.5781 74.7434 67.9667 75.1245 68.446 75.1245H71.9175C72.3968 75.1245 72.7853 74.7434 72.7853 74.2732V69.1649C72.7853 68.6947 72.3968 68.3135 71.9175 68.3135Z" fill="#C1E3F7"/>
<path d="M71.0496 68.3135H68.446C67.9667 68.3135 67.5781 68.6947 67.5781 69.1649V74.2732C67.5781 74.7434 67.9667 75.1245 68.446 75.1245H71.0496C71.5289 75.1245 71.9175 74.7434 71.9175 74.2732V69.1649C71.9175 68.6947 71.5289 68.3135 71.0496 68.3135Z" fill="#B1E4F9"/>
<path d="M86.5495 78.845H77.5293V69.9961H82.0394L86.5495 78.845Z" fill="#B1E4F9"/>
<path d="M79.7207 80.2285H83.1922V81.9313H79.7207V80.2285Z" fill="#CBCBCB"/>
<path d="M93.7669 89.4605H86.5508L88.9562 85.9209H93.7669V89.4605Z" fill="#CBCBCB"/>
<path d="M91.0117 81.0811H93.6153V82.7838H91.0117V81.0811Z" fill="#F7BA61"/>
<path d="M43.2578 82.3848H63.1022V85.9243H43.2578V82.3848Z" fill="#E00000"/>
<path d="M66.709 61.1455H73.9251V64.6851H66.709V61.1455Z" fill="#F7BA61"/>
<path d="M70.1849 58.0928C70.6453 58.0928 71.0868 58.2722 71.4123 58.5915C71.7378 58.9108 71.9207 59.3439 71.9207 59.7955V61.4983H68.4492V59.7955C68.4492 59.3439 68.6321 58.9108 68.9576 58.5915C69.2831 58.2722 69.7246 58.0928 70.1849 58.0928Z" fill="#FF003D"/>
<path d="M70.1765 55.5393C69.9463 55.5393 69.7255 55.4496 69.5628 55.29C69.4 55.1303 69.3086 54.9137 69.3086 54.6879V52.9852C69.3086 52.7594 69.4 52.5428 69.5628 52.3832C69.7255 52.2235 69.9463 52.1338 70.1765 52.1338C70.4066 52.1338 70.6274 52.2235 70.7901 52.3832C70.9529 52.5428 71.0443 52.7594 71.0443 52.9852V54.6879C71.0443 54.9137 70.9529 55.1303 70.7901 55.29C70.6274 55.4496 70.4066 55.5393 70.1765 55.5393Z" fill="#F7BA61"/>
<path d="M65.6682 58.0922C65.5161 58.0922 65.3667 58.0528 65.2351 57.978L63.7319 57.1267C63.6324 57.0712 63.5451 56.9969 63.4749 56.9082C63.4048 56.8194 63.3533 56.718 63.3233 56.6096C63.2933 56.5013 63.2855 56.3881 63.3002 56.2768C63.315 56.1655 63.352 56.0581 63.4092 55.9608C63.4665 55.8636 63.5427 55.7784 63.6337 55.7102C63.7246 55.642 63.8284 55.5921 63.939 55.5634C64.0497 55.5347 64.165 55.5278 64.2784 55.543C64.3918 55.5582 64.501 55.5953 64.5998 55.6521L66.103 56.5034C66.2686 56.5972 66.3979 56.7419 66.4711 56.9152C66.5442 57.0884 66.557 57.2805 66.5074 57.4616C66.4578 57.6427 66.3487 57.8027 66.197 57.9167C66.0452 58.0308 65.8593 58.0925 65.6682 58.0922Z" fill="#F7BA61"/>
<path d="M74.6853 58.0922C74.4941 58.0925 74.3083 58.0308 74.1565 57.9167C74.0048 57.8027 73.8957 57.6427 73.8461 57.4616C73.7965 57.2805 73.8093 57.0884 73.8824 56.9152C73.9555 56.7419 74.0849 56.5972 74.2505 56.5034L75.7537 55.6521C75.8525 55.5953 75.9617 55.5582 76.0751 55.543C76.1885 55.5278 76.3038 55.5347 76.4145 55.5634C76.5251 55.5921 76.6289 55.642 76.7198 55.7102C76.8107 55.7784 76.887 55.8636 76.9442 55.9608C77.0015 56.0581 77.0385 56.1655 77.0533 56.2768C77.068 56.3881 77.0602 56.5013 77.0302 56.6096C77.0002 56.718 76.9487 56.8194 76.8786 56.9082C76.8084 56.9969 76.7211 57.0712 76.6216 57.1267L75.1184 57.978C74.9868 58.0528 74.8374 58.0922 74.6853 58.0922Z" fill="#F7BA61"/>
<path d="M76.6309 64.9062H77.5228V70.0145H76.6309V64.9062Z" fill="#CBCBCB"/>
<path d="M76.6309 75.9082H77.5228V86.9762H76.6309V75.9082Z" fill="#CBCBCB"/>
<path d="M63.0957 77.0732H77.528V78.843H63.0957V77.0732Z" fill="#E00000"/>
<path d="M53.784 92.27C55.7012 92.27 57.2554 90.7453 57.2554 88.8645C57.2554 86.9837 55.7012 85.459 53.784 85.459C51.8667 85.459 50.3125 86.9837 50.3125 88.8645C50.3125 90.7453 51.8667 92.27 53.784 92.27Z" fill="#86A0AF"/>
<path d="M53.6864 89.8062C54.2855 89.8062 54.7712 89.3297 54.7712 88.742C54.7712 88.1542 54.2855 87.6777 53.6864 87.6777C53.0873 87.6777 52.6016 88.1542 52.6016 88.742C52.6016 89.3297 53.0873 89.8062 53.6864 89.8062Z" fill="#D0E2E7"/>
<path d="M53.6964 92.9993C53.3342 92.9991 52.9734 92.9546 52.6224 92.8669C51.507 92.5895 50.5495 91.8887 49.9607 90.9188C49.3719 89.9488 49.1999 88.7891 49.4826 87.6948C49.6828 86.9233 50.0995 86.2224 50.6855 85.6717C51.2715 85.121 52.0032 84.7426 52.7974 84.5795C53.5917 84.4164 54.4166 84.4752 55.1786 84.7491C55.9405 85.023 56.6088 85.501 57.1076 86.129C57.6064 86.7569 57.9156 87.5095 58.0002 88.3012C58.0847 89.0929 57.9411 89.892 57.5858 90.6077C57.2305 91.3234 56.6776 91.927 55.9901 92.3498C55.3026 92.7726 54.5079 92.9978 53.6964 92.9996V92.9993ZM53.6842 86.1854C53.1058 86.187 52.5444 86.3772 52.0884 86.7261C51.6324 87.0751 51.3075 87.5628 51.1651 88.1127C51.0385 88.6024 51.0628 89.1179 51.2348 89.594C51.4069 90.0701 51.719 90.4855 52.1317 90.7876C52.5444 91.0897 53.0392 91.265 53.5534 91.2912C54.0677 91.3175 54.5783 91.1936 55.0207 90.9352C55.4632 90.6767 55.8176 90.2954 56.0391 89.8394C56.2607 89.3834 56.3394 88.8731 56.2653 88.3732C56.1913 87.8733 55.9678 87.4062 55.6231 87.0309C55.2784 86.6556 54.828 86.389 54.3289 86.2648C54.1182 86.2122 53.9016 86.1855 53.6842 86.1854Z" fill="#86A0AF"/>
<path d="M84.1551 92.27C86.0723 92.27 87.6265 90.7453 87.6265 88.8645C87.6265 86.9837 86.0723 85.459 84.1551 85.459C82.2378 85.459 80.6836 86.9837 80.6836 88.8645C80.6836 90.7453 82.2378 92.27 84.1551 92.27Z" fill="#86A0AF"/>
<path d="M84.0575 89.8062C84.6566 89.8062 85.1423 89.3297 85.1423 88.742C85.1423 88.1542 84.6566 87.6777 84.0575 87.6777C83.4583 87.6777 82.9727 88.1542 82.9727 88.742C82.9727 89.3297 83.4583 89.8062 84.0575 89.8062Z" fill="#D0E2E7"/>
<path d="M84.0636 92.9994C83.7014 92.9991 83.3406 92.9546 82.9896 92.867C81.8741 92.5895 80.9167 91.8887 80.3279 90.9188C79.739 89.9488 79.5671 88.7891 79.8498 87.6948C80.05 86.9234 80.4667 86.2224 81.0527 85.6718C81.6387 85.1211 82.3703 84.7427 83.1646 84.5795C83.9588 84.4164 84.7838 84.4752 85.5457 84.749C86.3077 85.0229 86.976 85.501 87.4748 86.1289C87.9736 86.7568 88.2828 87.5094 88.3673 88.3011C88.4519 89.0929 88.3083 89.892 87.953 90.6077C87.5977 91.3233 87.0449 91.9269 86.3574 92.3498C85.6698 92.7726 84.8752 92.9978 84.0637 92.9997L84.0636 92.9994ZM84.0512 86.1854C83.4729 86.187 82.9115 86.3772 82.4555 86.7261C81.9995 87.0751 81.6747 87.5629 81.5323 88.1127C81.4057 88.6024 81.43 89.1179 81.6021 89.594C81.7742 90.0701 82.0864 90.4855 82.4991 90.7876C82.9118 91.0897 83.4066 91.2649 83.9208 91.2911C84.4351 91.3173 84.9457 91.1934 85.3881 90.9349C85.8306 90.6765 86.185 90.2951 86.4065 89.839C86.6279 89.383 86.7066 88.8728 86.6325 88.3729C86.5584 87.873 86.3349 87.4058 85.9901 87.0306C85.6454 86.6553 85.195 86.3887 84.6959 86.2646C84.4852 86.2121 84.2686 86.1855 84.0512 86.1854Z" fill="#86A0AF"/>
<path d="M103.945 48.3485C103.945 59.1637 95.0659 67.947 84.0936 67.947C73.1212 67.947 64.2422 59.1637 64.2422 48.3485C64.2422 37.5332 73.1212 28.75 84.0936 28.75C95.0659 28.75 103.945 37.5332 103.945 48.3485Z" fill="white" stroke="#B1E4F9" stroke-width="1.5"/>
<g clip-path="url(#clip0)">
<path d="M93.2753 41.2739C93.0153 40.91 92.7007 40.573 92.3723 40.2496C92.044 39.9262 91.7019 39.6161 91.3325 39.36C89.294 37.7562 86.7902 36.8486 84.1497 36.8486C81.0439 36.8486 78.1297 38.0796 75.927 40.2496C73.7242 42.4196 72.4746 45.2904 72.4746 48.3499C72.4746 50.9647 73.3958 53.4311 75.024 55.4394C75.2976 55.7898 75.5986 56.1267 75.927 56.4503C76.2553 56.7738 76.5974 57.0702 76.9531 57.3398C78.9916 58.9437 81.4954 59.8513 84.1497 59.8513C87.2554 59.8513 90.1696 58.6203 92.3723 56.4503C94.5751 54.2803 95.8247 51.4094 95.8247 48.3499C95.8247 45.7487 94.9035 43.2822 93.2753 41.2739ZM75.2566 48.3499C75.2566 46.0048 76.1869 43.8078 77.8561 42.15C79.5389 40.5057 81.769 39.5892 84.1497 39.5892C86.0651 39.5892 87.8847 40.1822 89.3898 41.2739L76.9804 53.512C75.8585 52.0294 75.2566 50.2368 75.2566 48.3499ZM90.4432 54.5498C88.7604 56.1942 86.5303 57.1107 84.1497 57.1107C82.2342 57.1107 80.4146 56.5177 78.9095 55.4125L91.3325 43.1878C92.4408 44.6704 93.0427 46.463 93.0427 48.3499C93.0427 50.6951 92.1124 52.8921 90.4432 54.5498Z" fill="#FD003A"/>
<path d="M76.9558 57.3402C78.9943 58.9441 81.4981 59.8517 84.1524 59.8517C87.2582 59.8517 90.1724 58.6207 92.3751 56.4507C94.5778 54.2807 95.8274 51.4098 95.8274 48.3503C95.8274 45.7491 94.9062 43.2826 93.278 41.2743C93.0181 40.9104 92.7034 40.5734 92.3751 40.25L75.9297 56.4507C76.258 56.7742 76.6 57.0706 76.9558 57.3402ZM91.3353 43.1882C92.4435 44.6708 93.0455 46.4634 93.0455 48.3503C93.0455 50.6955 92.1151 52.8925 90.4459 54.5502C88.7631 56.1946 86.533 57.1111 84.1524 57.1111C82.2369 57.1111 80.4173 56.5181 78.9123 55.4129L91.3353 43.1882Z" fill="#E50027"/>
</g>
<path d="M84.6979 52.6364V53.9501H83.0038V52.6955C81.8023 52.6245 80.6368 52.3049 79.916 51.867L80.8291 49.8312C81.6221 50.2928 82.6794 50.5887 83.6045 50.5887C84.4095 50.5887 84.6979 50.423 84.6979 50.1389C84.6979 49.0973 80.0482 49.9376 80.0482 46.8484C80.0482 45.511 81.0334 44.3866 83.0038 44.1143V42.8242H84.6979V44.0906C85.587 44.1735 86.4521 44.3984 87.1369 44.7771L86.2839 46.8011C85.4548 46.3868 84.6739 46.1856 83.941 46.1856C83.1119 46.1856 82.8477 46.4223 82.8477 46.7064C82.8477 47.7006 87.4974 46.872 87.4974 49.9258C87.4974 51.2043 86.5602 52.3168 84.6979 52.6364Z" fill="#FCBE2C"/>
<path d="M83.937 46.1846C84.6699 46.1846 85.4508 46.3858 86.2799 46.8001L87.1329 44.7761C86.4481 44.3974 85.583 44.1725 84.6939 44.0896V42.8232H83.8262V46.1867C83.8624 46.1857 83.8984 46.1846 83.937 46.1846Z" fill="#FD9E28"/>
<path d="M84.6939 50.1363C84.6939 50.3919 84.4592 50.5512 83.8262 50.5807V53.9475H84.6939V52.6337C86.5562 52.3141 87.4934 51.2015 87.4934 49.9233C87.4934 47.7742 85.1906 47.5479 83.8262 47.2559V49.5817C84.3392 49.7047 84.6939 49.8487 84.6939 50.1363Z" fill="#FD9E28"/>
<defs>
<clipPath id="clip0">
<rect x="72.4746" y="36.8486" width="23.3501" height="23.0026" fill="white"/>
</clipPath>
</defs>
</svg>
