<svg width="120" height="120" viewBox="0 0 120 120" fill="none" xmlns="http://www.w3.org/2000/svg">
<circle cx="60" cy="60" r="60" fill="#FFF2F4"/>
<path d="M68.1622 60.687H19.03C18.4611 60.687 18 60.2452 18 59.7002V57.4971H69.1922V59.7002C69.1922 60.2452 68.7311 60.687 68.1622 60.687V60.687Z" fill="#AFAFAF"/>
<path d="M59.0598 31.7314L59.0598 31.7314L61.9043 44.6305L62.6312 44.4702L61.9043 44.6306C62.0226 45.1666 62.3896 45.6062 62.8803 45.8338L62.8804 45.8338L68.2954 48.344L68.2954 48.3441C68.398 48.3916 68.4422 48.4787 68.4422 48.5519V56.753H18.75V31.774C18.75 31.6731 18.8447 31.5371 19.03 31.5371H58.7845C58.9407 31.5371 59.0395 31.6392 59.0598 31.7314Z" fill="white" stroke="#CBCBCB" stroke-width="1.5"/>
<path d="M51.0859 43.9513V34.9595C51.0859 34.4144 51.5471 33.9727 52.116 33.9727H55.9865C56.4674 33.9727 56.8844 34.2915 56.9909 34.7408L59.124 43.7326C59.2705 44.3501 58.7806 44.9382 58.1196 44.9382H52.1161C51.5471 44.9382 51.0859 44.4964 51.0859 43.9513V43.9513Z" fill="#B1E4F9"/>
<path d="M55.9809 33.9727H54.8262L57.4274 44.9381H58.114C58.775 44.9381 59.2649 44.3501 59.1184 43.7325L56.9853 34.7407C56.8788 34.2915 56.4618 33.9727 55.9809 33.9727V33.9727Z" fill="#90D8F9"/>
<path d="M41.5137 43.9513V34.9595C41.5137 34.4144 41.9748 33.9727 42.5437 33.9727H46.7266C47.2955 33.9727 47.7566 34.4144 47.7566 34.9595V43.9513C47.7566 44.4964 47.2955 44.9382 46.7266 44.9382H42.5437C41.9748 44.9382 41.5137 44.4964 41.5137 43.9513Z" fill="#B1E4F9"/>
<path d="M58.8914 65.0785C62.3393 65.0785 65.1343 62.4007 65.1343 59.0974C65.1343 55.7941 62.3393 53.1162 58.8914 53.1162C55.4435 53.1162 52.6484 55.7941 52.6484 59.0974C52.6484 62.4007 55.4435 65.0785 58.8914 65.0785Z" fill="#86A0AF"/>
<path d="M58.8899 60.7907C59.8668 60.7907 60.6588 60.032 60.6588 59.096C60.6588 58.1601 59.8668 57.4014 58.8899 57.4014C57.913 57.4014 57.1211 58.1601 57.1211 59.096C57.1211 60.032 57.913 60.7907 58.8899 60.7907Z" fill="#D0E2E7"/>
<path d="M28.2918 65.0785C31.7397 65.0785 34.5347 62.4007 34.5347 59.0974C34.5347 55.7941 31.7397 53.1162 28.2918 53.1162C24.8439 53.1162 22.0488 55.7941 22.0488 59.0974C22.0488 62.4007 24.8439 65.0785 28.2918 65.0785Z" fill="#86A0AF"/>
<path d="M28.3001 60.7907C29.277 60.7907 30.0689 60.032 30.0689 59.096C30.0689 58.1601 29.277 57.4014 28.3001 57.4014C27.3232 57.4014 26.5312 58.1601 26.5312 59.096C26.5312 60.032 27.3232 60.7907 28.3001 60.7907Z" fill="#D0E2E7"/>
<path d="M36.0151 39.0566H31.9446C31.6032 39.0566 31.3266 38.7916 31.3266 38.4645V34.5647C31.3266 34.2377 31.0499 33.9727 30.7086 33.9727H28.4069C28.0656 33.9727 27.7889 34.2377 27.7889 34.5647V38.4645C27.7889 38.7916 27.5123 39.0566 27.1709 39.0566H23.1004C22.7591 39.0566 22.4824 39.3217 22.4824 39.6487V41.8539C22.4824 42.1809 22.7591 42.446 23.1004 42.446H27.1709C27.5123 42.446 27.7889 42.711 27.7889 43.038V46.9378C27.7889 47.2649 28.0656 47.5299 28.4069 47.5299H30.7086C31.0499 47.5299 31.3266 47.2649 31.3266 46.9378V43.038C31.3266 42.711 31.6032 42.446 31.9446 42.446H36.0151C36.3564 42.446 36.6331 42.1809 36.6331 41.8539V39.6487C36.6331 39.3217 36.3564 39.0566 36.0151 39.0566V39.0566Z" fill="#FF0000"/>
<path d="M46.7177 30.7849H40.4746L41.3443 26.7856C41.4438 26.328 41.8648 26 42.3526 26H44.8394C45.3274 26 45.7483 26.328 45.8478 26.7856L46.7177 30.7849Z" fill="#FF0000"/>
<path d="M53.9394 48.8718H51.8584C51.4317 48.8718 51.0859 48.5404 51.0859 48.1317C51.0859 47.7229 51.4318 47.3916 51.8584 47.3916H53.9394C54.3661 47.3916 54.7119 47.7229 54.7119 48.1317C54.7119 48.5404 54.3661 48.8718 53.9394 48.8718Z" fill="#D0E2E7"/>
<path d="M69.1992 51.2614H67.1182C66.6915 51.2614 66.3457 50.9301 66.3457 50.5213C66.3457 50.1126 66.6916 49.7812 67.1182 49.7812H69.1992V51.2614Z" fill="#86A0AF"/>
<path d="M69.1992 54.4528H67.1182C66.6915 54.4528 66.3457 54.1215 66.3457 53.7127C66.3457 53.304 66.6916 52.9727 67.1182 52.9727H69.1992V54.4528Z" fill="#86A0AF"/>
<path d="M42.2862 55.2517C41.8594 55.2517 41.5137 54.9204 41.5137 54.5116V48.1317C41.5137 47.7229 41.8595 47.3916 42.2862 47.3916C42.7128 47.3916 43.0586 47.7229 43.0586 48.1317V54.5116C43.0587 54.9203 42.7129 55.2517 42.2862 55.2517Z" fill="#D0E2E7"/>
<path d="M52.728 62.7148H69.7924V88.4098H47.3516V67.9915C47.3516 66.592 47.918 65.2499 48.9263 64.2603C49.9346 63.2708 51.3021 62.7148 52.728 62.7148V62.7148Z" fill="#DBDBDB"/>
<path d="M93.6467 77.1354L93.8019 77.4285L94.1232 77.5109L100.143 79.055C100.384 79.1167 100.6 79.259 100.755 79.462C100.911 79.6653 100.997 79.9172 100.997 80.178V88.4337H48.0742V67.9618C48.0742 66.7023 48.5666 65.4968 49.4391 64.6098C50.3113 63.7233 51.4915 63.2275 52.7196 63.2275H84.9119C85.3247 63.2275 85.7306 63.3411 86.0866 63.5573C86.4427 63.7735 86.7362 64.0847 86.9344 64.4591L93.6467 77.1354Z" fill="white" stroke="#CBCBCB" stroke-width="1.5"/>
<path d="M94.1644 76.4788H82.875V68.2197H89.6341L94.1644 76.4788Z" fill="#DBDBDB"/>
<path d="M69.4473 63.2275H83.4966V88.4337H69.4473V63.2275Z" fill="white" stroke="#CBCBCB" stroke-width="1.5"/>
<path d="M69.4473 63.2275H83.4966V76.9882H69.4473V63.2275Z" fill="white" stroke="#CBCBCB" stroke-width="1.5"/>
<path d="M62.2986 71.89H60.4286V70.0547H56.6884V71.89H54.8184V75.5608H56.6884V77.3961H60.4286V75.5608H62.2986V71.89Z" fill="#FF0000"/>
<path d="M78.1986 66.3877H74.4585C73.9421 66.3877 73.5234 66.7986 73.5234 67.3054V72.8114C73.5234 73.3183 73.9421 73.7291 74.4585 73.7291H78.1986C78.715 73.7291 79.1337 73.3183 79.1337 72.8114V67.3054C79.1337 66.7986 78.715 66.3877 78.1986 66.3877Z" fill="#C1E3F7"/>
<path d="M77.2636 66.3877H74.4585C73.9421 66.3877 73.5234 66.7986 73.5234 67.3054V72.8114C73.5234 73.3183 73.9421 73.7291 74.4585 73.7291H77.2636C77.78 73.7291 78.1986 73.3183 78.1986 72.8114V67.3054C78.1986 66.7986 77.78 66.3877 77.2636 66.3877Z" fill="#B1E4F9"/>
<path d="M93.9664 77.7401H84.248V68.2021H89.1072L93.9664 77.7401Z" fill="#B1E4F9"/>
<path d="M86.6113 79.2334H90.3515V81.0688H86.6113V79.2334Z" fill="#CBCBCB"/>
<path d="M101.743 89.1814H93.9688L96.5603 85.3662H101.743V89.1814Z" fill="#CBCBCB"/>
<path d="M98.7754 80.1494H101.58V81.9848H98.7754V80.1494Z" fill="#F7BA61"/>
<path d="M47.3242 81.5566H68.7046V85.3718H47.3242V81.5566Z" fill="#E00000"/>
<path d="M72.5918 58.6641H80.3665V62.4792H72.5918V58.6641Z" fill="#F7BA61"/>
<path d="M76.333 55.3721C76.8289 55.3721 77.3046 55.5654 77.6553 55.9096C78.006 56.2538 78.203 56.7207 78.203 57.2074V59.0428H74.4629V57.2074C74.4629 56.7207 74.6599 56.2538 75.0106 55.9096C75.3613 55.5654 75.837 55.3721 76.333 55.3721V55.3721Z" fill="#FF003D"/>
<path d="M76.3257 52.6209C76.0777 52.6209 75.8398 52.5242 75.6645 52.3521C75.4891 52.18 75.3906 51.9466 75.3906 51.7032V49.8679C75.3906 49.6245 75.4891 49.3911 75.6645 49.219C75.8398 49.0469 76.0777 48.9502 76.3257 48.9502C76.5736 48.9502 76.8115 49.0469 76.9868 49.219C77.1622 49.3911 77.2607 49.6245 77.2607 49.8679V51.7032C77.2607 51.9466 77.1622 52.18 76.9868 52.3521C76.8115 52.5242 76.5736 52.6209 76.3257 52.6209Z" fill="#F7BA61"/>
<path d="M71.4673 55.3724C71.3034 55.3724 71.1425 55.33 71.0007 55.2493L69.3811 54.3316C69.2739 54.2718 69.1798 54.1918 69.1043 54.0961C69.0287 54.0005 68.9732 53.8911 68.9409 53.7743C68.9086 53.6575 68.9001 53.5356 68.916 53.4156C68.9319 53.2956 68.9718 53.1798 69.0335 53.075C69.0951 52.9702 69.1773 52.8784 69.2753 52.8049C69.3732 52.7314 69.485 52.6776 69.6042 52.6467C69.7235 52.6158 69.8477 52.6083 69.9699 52.6247C70.0921 52.6411 70.2097 52.681 70.3161 52.7422L71.9357 53.6599C72.1141 53.7609 72.2535 53.9169 72.3323 54.1037C72.4111 54.2904 72.4248 54.4975 72.3714 54.6927C72.318 54.8879 72.2005 55.0603 72.037 55.1832C71.8735 55.3061 71.6732 55.3726 71.4673 55.3724V55.3724Z" fill="#F7BA61"/>
<path d="M81.1881 55.3724C80.9821 55.3726 80.7819 55.3061 80.6184 55.1832C80.4549 55.0603 80.3373 54.8879 80.2839 54.6927C80.2305 54.4975 80.2443 54.2904 80.3231 54.1037C80.4019 53.9169 80.5413 53.7609 80.7196 53.6599L82.3392 52.7422C82.4456 52.681 82.5633 52.6411 82.6855 52.6247C82.8076 52.6083 82.9319 52.6158 83.0511 52.6467C83.1703 52.6776 83.2821 52.7314 83.3801 52.8049C83.4781 52.8784 83.5602 52.9702 83.6219 53.075C83.6835 53.1798 83.7235 53.2956 83.7394 53.4156C83.7553 53.5356 83.7468 53.6575 83.7145 53.7743C83.6822 53.8911 83.6267 54.0005 83.5511 54.0961C83.4755 54.1918 83.3815 54.2718 83.2743 54.3316L81.6547 55.2493C81.5129 55.3299 81.3519 55.3724 81.1881 55.3724V55.3724Z" fill="#F7BA61"/>
<path d="M83.2832 62.7158H84.2441V68.2219H83.2832V62.7158Z" fill="#CBCBCB"/>
<path d="M83.2812 74.5752H84.2422V86.505H83.2812V74.5752Z" fill="#CBCBCB"/>
<path d="M58.6659 92.2125C60.7315 92.2125 62.4061 90.5691 62.4061 88.5418C62.4061 86.5145 60.7315 84.8711 58.6659 84.8711C56.6003 84.8711 54.9258 86.5145 54.9258 88.5418C54.9258 90.5691 56.6003 92.2125 58.6659 92.2125Z" fill="#86A0AF"/>
<path d="M58.5594 89.5579C59.2049 89.5579 59.7282 89.0443 59.7282 88.4108C59.7282 87.7772 59.2049 87.2637 58.5594 87.2637C57.9139 87.2637 57.3906 87.7772 57.3906 88.4108C57.3906 89.0443 57.9139 89.5579 58.5594 89.5579Z" fill="#D0E2E7"/>
<path d="M58.5719 92.9989C58.1817 92.9986 57.793 92.9507 57.4148 92.8562C56.213 92.5571 55.1814 91.8018 54.547 90.7563C53.9126 89.7108 53.7274 88.4609 54.032 87.2813C54.2476 86.4498 54.6966 85.6943 55.328 85.1007C55.9593 84.5072 56.7476 84.0993 57.6033 83.9235C58.4591 83.7477 59.3479 83.811 60.1688 84.1062C60.9897 84.4014 61.7097 84.9167 62.2471 85.5935C62.7845 86.2704 63.1177 87.0816 63.2087 87.9349C63.2998 88.7883 63.1452 89.6497 62.7623 90.4211C62.3795 91.1925 61.7839 91.843 61.0431 92.2988C60.3024 92.7545 59.4462 92.9972 58.5719 92.9993V92.9989ZM58.5587 85.6544C57.9356 85.6561 57.3308 85.8612 56.8394 86.2372C56.3481 86.6133 55.9981 87.1391 55.8447 87.7318C55.7083 88.2596 55.7344 88.8152 55.9198 89.3284C56.1052 89.8416 56.4415 90.2893 56.8861 90.615C57.3308 90.9406 57.8638 91.1295 58.4178 91.1578C58.9719 91.1861 59.522 91.0526 59.9987 90.774C60.4754 90.4955 60.8573 90.0844 61.0959 89.5929C61.3346 89.1014 61.4194 88.5514 61.3396 88.0126C61.2599 87.4738 61.0191 86.9702 60.6477 86.5657C60.2763 86.1612 59.7911 85.8738 59.2533 85.74C59.0263 85.6833 58.793 85.6545 58.5587 85.6544V85.6544Z" fill="#86A0AF"/>
<path d="M91.3827 92.2125C93.4483 92.2125 95.1229 90.5691 95.1229 88.5418C95.1229 86.5145 93.4483 84.8711 91.3827 84.8711C89.3171 84.8711 87.6426 86.5145 87.6426 88.5418C87.6426 90.5691 89.3171 92.2125 91.3827 92.2125Z" fill="#86A0AF"/>
<path d="M91.284 89.5579C91.9295 89.5579 92.4528 89.0443 92.4528 88.4108C92.4528 87.7772 91.9295 87.2637 91.284 87.2637C90.6385 87.2637 90.1152 87.7772 90.1152 88.4108C90.1152 89.0443 90.6385 89.5579 91.284 89.5579Z" fill="#D0E2E7"/>
<path d="M91.2926 92.9989C90.9024 92.9986 90.5137 92.9507 90.1355 92.8562C88.9337 92.5572 87.9021 91.8018 87.2677 90.7563C86.6333 89.7109 86.4481 88.4609 86.7527 87.2813C86.9683 86.4498 87.4173 85.6943 88.0487 85.1007C88.68 84.5072 89.4683 84.0993 90.324 83.9235C91.1797 83.7477 92.0686 83.811 92.8894 84.1062C93.7103 84.4014 94.4304 84.9167 94.9678 85.5935C95.5052 86.2703 95.8384 87.0815 95.9294 87.9349C96.0205 88.7883 95.8659 89.6496 95.4831 90.421C95.1003 91.1924 94.5046 91.843 93.7639 92.2988C93.0232 92.7545 92.167 92.9972 91.2927 92.9993L91.2926 92.9989ZM91.2793 85.6544C90.6562 85.6561 90.0514 85.8611 89.5601 86.2372C89.0687 86.6133 88.7188 87.1391 88.5654 87.7318C88.429 88.2596 88.4552 88.8152 88.6406 89.3284C88.826 89.8416 89.1623 90.2893 89.607 90.6149C90.0517 90.9405 90.5847 91.1294 91.1388 91.1577C91.6928 91.186 92.243 91.0523 92.7197 90.7738C93.1964 90.4952 93.5782 90.0841 93.8168 89.5925C94.0554 89.101 94.1402 88.551 94.0604 88.0122C93.9805 87.4734 93.7397 86.9699 93.3683 86.5654C92.9969 86.1609 92.5116 85.8736 91.9738 85.7398C91.7468 85.6832 91.5135 85.6545 91.2793 85.6544Z" fill="#86A0AF"/>
<path d="M68.6973 75.8311H84.2466V77.7386H68.6973V75.8311Z" fill="#E00000"/>
</svg>
