<svg width="120" height="120" viewBox="0 0 120 120" fill="none" xmlns="http://www.w3.org/2000/svg">
<circle cx="60" cy="60" r="60" fill="#FFF2F4"/>
<path d="M50.9375 58.8125V72.3125H32.0406L28.6875 62.2533V45.057L36.4039 41.75H48.02L55.6875 43.9407V54.0625V55.1031L56.6747 54.774L63.7997 52.399L64.1554 52.2804L64.274 51.9247L65.1881 49.1826L66.7896 49.9833L67.125 50.151L67.4604 49.9833L69.2432 49.0919L70.8279 51.469L65.1787 55.1L65.1786 55.1001L55.3529 61.4172L52.2178 58.2822L50.9375 57.0018V58.8125Z" fill="white" stroke="#CBCBCB" stroke-width="1.5"/>
<path d="M41 46.9375H43.375V73.0625H41V46.9375Z" fill="#D0E2E7"/>
<path d="M48.125 41L42.1875 50.5L36.25 41L38.625 39.8125H45.75L48.125 41Z" fill="#90D8F9"/>
<path d="M38.625 39.8125L36.25 41L39.506 46.2097L42.1875 42.1875L38.625 39.8125Z" fill="#B1E4F9"/>
<path d="M45.75 39.8125L48.125 41L44.869 46.2097L42.1875 42.1875L45.75 39.8125Z" fill="#B1E4F9"/>
<path d="M38.6681 73.0625H36.207L32.7291 60.3117C32.7011 60.2102 32.6871 60.1053 32.6875 60V56.4375H35.0625V59.8412L38.6681 73.0625Z" fill="#D0E2E7"/>
<path d="M49.3125 52.875C50.6242 52.875 51.6875 51.8117 51.6875 50.5C51.6875 49.1883 50.6242 48.125 49.3125 48.125C48.0008 48.125 46.9375 49.1883 46.9375 50.5C46.9375 51.8117 48.0008 52.875 49.3125 52.875Z" fill="#4F5761"/>
<path d="M36.25 48.125H33.875V42.1875C33.8761 41.243 34.2517 40.3375 34.9196 39.6696C35.5875 39.0017 36.493 38.6261 37.4375 38.625H38.625V39.8125L36.25 41V48.125Z" fill="#FF003D"/>
<path d="M50.5 50.5H48.125V41L45.75 39.8125V38.625H46.9375C47.8823 38.625 48.7885 39.0003 49.4566 39.6684C50.1247 40.3365 50.5 41.2427 50.5 42.1875V50.5Z" fill="#FF003D"/>
<path d="M38.625 54.0625H36.25V50.5C36.25 50.1851 36.1249 49.883 35.9022 49.6603C35.6795 49.4376 35.3774 49.3125 35.0625 49.3125C34.7476 49.3125 34.4455 49.4376 34.2228 49.6603C34.0001 49.883 33.875 50.1851 33.875 50.5V54.0625H31.5V50.5C31.5 49.5552 31.8753 48.649 32.5434 47.9809C33.2115 47.3128 34.1177 46.9375 35.0625 46.9375C36.0073 46.9375 36.9135 47.3128 37.5816 47.9809C38.2497 48.649 38.625 49.5552 38.625 50.5V54.0625Z" fill="#E04446"/>
<path d="M71.875 51.6875L65.5842 55.7309L63.5625 51.6875L64.75 48.125L67.125 49.3125L69.5 48.125L71.875 51.6875Z" fill="#FDC5CA"/>
<path d="M54.0625 55.25V61.1875L51.6875 58.8125V55.25H54.0625Z" fill="#D0E2E7"/>
<path d="M50.5 35.0625L49.3125 36.25L48.125 38.625H45.75V39.8125L44.4467 40.6809L42.1875 42.1875L38.625 39.8125V29.125H48.125L49.3125 32.6875L50.5 35.0625Z" fill="#FDC5CA"/>
<path d="M46.9375 30.3125H44.5625L41 36.25H38.625V25.5625H51.6875C51.6875 26.8223 51.1871 28.0305 50.2963 28.9213C49.4055 29.8121 48.1973 30.3125 46.9375 30.3125Z" fill="#BA8B5D"/>
<path d="M45.7511 38.625V39.8125L44.4478 40.6809L42.8848 39.1163L44.5636 37.4375L45.7511 38.625Z" fill="#FC979E"/>
<path d="M49.3125 51.6875C49.9683 51.6875 50.5 51.1558 50.5 50.5C50.5 49.8442 49.9683 49.3125 49.3125 49.3125C48.6567 49.3125 48.125 49.8442 48.125 50.5C48.125 51.1558 48.6567 51.6875 49.3125 51.6875Z" fill="#68737F"/>
<path d="M31.5 50.5H33.875V54.0625H31.5V50.5Z" fill="#86A0AF"/>
<path d="M36.25 50.5H38.625V54.0625H36.25V50.5Z" fill="#86A0AF"/>
<path d="M30.3125 89.6875H89.6875V94.4375H30.3125V89.6875Z" fill="#86A0AF"/>
<path d="M77.3358 88.9375H31.0625V83.3125H74.25H74.7135L74.9208 82.8979L89.6094 53.5208C89.7721 53.1953 90.0223 52.9215 90.3319 52.7302C90.6415 52.5388 90.9982 52.4375 91.3622 52.4375C91.692 52.4375 92.0165 52.5208 92.3056 52.6796C92.5947 52.8383 92.8391 53.0675 93.016 53.3459C93.193 53.6243 93.2968 53.9428 93.3179 54.272C93.339 54.6011 93.2766 54.9303 93.1366 55.229L77.3358 88.9375Z" fill="white" stroke="#CBCBCB" stroke-width="1.5"/>
<path d="M27.9375 70.6875C28.5674 70.6875 29.1715 70.9377 29.6169 71.3831C30.0623 71.8285 30.3125 72.4326 30.3125 73.0625V94.4375H25.5625V73.0625C25.5625 72.4326 25.8127 71.8285 26.2581 71.3831C26.7035 70.9377 27.3076 70.6875 27.9375 70.6875V70.6875Z" fill="#BA8B5D"/>
<path d="M94.4375 94.4385H89.6875V64.8842C89.6875 64.5358 89.7642 64.1917 89.912 63.8762V63.8762C90.9896 61.5773 94.4375 62.3453 94.4375 64.8842V94.4385Z" fill="#BA8B5D"/>
<path d="M30.3125 73.0625H58.8125V82.5625H30.3125V73.0625Z" fill="#529DDF"/>
<path d="M58.8125 69.5H65.9375V82.5625H58.8125V69.5Z" fill="#B1E4F9"/>
<path d="M87.0156 57.0306L74.25 82.5619H65.9375V69.4994L69.5 64.7494H74.25L76.625 63.5619L75.4375 61.1869V58.8119L74.25 56.4369L79 55.2494L81.2162 53.0332L87.0156 57.0306Z" fill="#7AB355"/>
<path d="M58.8125 78.2324V82.5623H57.625V81.3748C57.6231 80.2174 58.0456 79.0994 58.8125 78.2324V78.2324Z" fill="#4384C3"/>
<path d="M80.1252 70.6251C80.0587 70.8838 79.9646 71.1346 79.8446 71.3732L74.25 82.5624H65.9375V76.6249H68.4505L73.1842 67.9027C73.4306 67.4479 73.7684 67.049 74.1763 66.7309C74.5843 66.4129 75.0536 66.1827 75.5548 66.0547L80.1252 70.6251Z" fill="#699949"/>
<path d="M65.9375 76.625V82.5625H58.8125V78.2326C59.258 77.7269 59.8062 77.322 60.4205 77.0448C61.0348 76.7676 61.7011 76.6245 62.375 76.625H65.9375Z" fill="#C1D7E6"/>
<path d="M87.0156 57.0306L80.1875 70.6869L80.1252 70.6245L75.5548 66.0541L74.25 64.7494L76.625 63.5619L75.4375 61.1869V58.8119L74.25 56.4369L79 55.2494L81.2162 53.0332L87.0156 57.0306Z" fill="#FDC5CA"/>
<path d="M79.717 71.6287L77.3553 76.3505L74.25 82.5626H58.8125C58.8123 81.9387 58.9351 81.321 59.1737 80.7446C59.4124 80.1682 59.7622 79.6445 60.2034 79.2034C60.6445 78.7623 61.1682 78.4124 61.7445 78.1738C62.3209 77.9351 62.9387 77.8124 63.5625 77.8126H69.5L71.9418 73.1026L74.1713 68.8039C74.5495 68.0748 75.2006 67.5249 75.9826 67.2739C76.7647 67.0229 77.6142 67.0912 78.3461 67.464C79.0779 67.8368 79.6327 68.4838 79.8895 69.2639C80.1463 70.044 80.0843 70.8941 79.717 71.6287H79.717Z" fill="#FDC5CA"/>
<path d="M79.7166 71.6287L77.3549 76.3505L71.9414 73.1027L74.1709 68.8039C74.5491 68.0748 75.2002 67.5249 75.9823 67.2739C76.7643 67.0229 77.6138 67.0912 78.3457 67.464C79.0775 67.8368 79.6323 68.4838 79.8891 69.2639C80.1459 70.044 80.0839 70.8941 79.7166 71.6287H79.7166Z" fill="#7AB355"/>
<path d="M83.7493 63.5625L82.5618 54.0625L81.2515 53.0617C80.3295 52.3575 79.7101 51.3287 79.5193 50.1843C79.3284 49.0399 79.5803 47.8657 80.2239 46.9004L88.9378 53.1854L83.7493 63.5625Z" fill="#BA8B5D"/>
</svg>
