<svg width="120" height="120" viewBox="0 0 120 120" fill="none" xmlns="http://www.w3.org/2000/svg">
<circle cx="60" cy="60" r="60" fill="#FFCEDA"/>
<path d="M87.4779 88.0285H22.6329C21.882 88.0285 21.2734 87.427 21.2734 86.6853V83.6865H88.8374V86.6853C88.8374 87.427 88.2288 88.0285 87.4779 88.0285Z" fill="#7A96A8"/>
<path d="M80.1854 65.948L76.4312 48.3907C76.2985 47.7695 75.7437 47.3252 75.1012 47.3252H22.6329C21.882 47.3252 21.2734 47.9265 21.2734 48.6684V83.6889H88.8374V71.5053C88.8374 70.9903 88.5393 70.5205 88.07 70.2962L80.9233 66.8795C80.5448 66.6985 80.2723 66.3545 80.1854 65.948Z" fill="white"/>
<path d="M64.9434 65.2502V53.0112C64.9434 52.2693 65.552 51.668 66.3028 51.668H71.4112C72.0459 51.668 72.5962 52.1019 72.7368 52.7135L75.5521 64.9525C75.7454 65.793 75.0988 66.5934 74.2264 66.5934H66.303C65.552 66.5934 64.9434 65.9921 64.9434 65.2502Z" fill="#B1E4F9"/>
<path d="M71.4127 51.668H69.8887L73.3218 66.5933H74.2279C75.1003 66.5933 75.7469 65.793 75.5536 64.9524L72.7384 52.7134C72.5977 52.1019 72.0474 51.668 71.4127 51.668Z" fill="#90D8F9"/>
<path d="M52.3066 65.2502V53.0112C52.3066 52.2693 52.9152 51.668 53.6661 51.668H59.1867C59.9375 51.668 60.5461 52.2693 60.5461 53.0112V65.2502C60.5461 65.9921 59.9375 66.5934 59.1867 66.5934H53.6661C52.9152 66.5934 52.3066 65.9921 52.3066 65.2502Z" fill="#B1E4F9"/>
<path d="M75.2434 94C79.794 94 83.4829 90.3551 83.4829 85.8589C83.4829 81.3627 79.794 77.7178 75.2434 77.7178C70.6929 77.7178 67.0039 81.3627 67.0039 85.8589C67.0039 90.3551 70.6929 94 75.2434 94Z" fill="#44697E"/>
<path d="M75.2466 88.167C76.5359 88.167 77.5811 87.1343 77.5811 85.8604C77.5811 84.5864 76.5359 83.5537 75.2466 83.5537C73.9573 83.5537 72.9121 84.5864 72.9121 85.8604C72.9121 87.1343 73.9573 88.167 75.2466 88.167Z" fill="#D0E2E7"/>
<path d="M34.8704 94C39.4209 94 43.1099 90.3551 43.1099 85.8589C43.1099 81.3627 39.4209 77.7178 34.8704 77.7178C30.3198 77.7178 26.6309 81.3627 26.6309 85.8589C26.6309 90.3551 30.3198 94 34.8704 94Z" fill="#44697E"/>
<path d="M34.8677 88.167C36.157 88.167 37.2022 87.1343 37.2022 85.8604C37.2022 84.5864 36.157 83.5537 34.8677 83.5537C33.5784 83.5537 32.5332 84.5864 32.5332 85.8604C32.5332 87.1343 33.5784 88.167 34.8677 88.167Z" fill="#D0E2E7"/>
<path d="M45.0421 58.5879H39.6699C39.2194 58.5879 38.8542 58.2271 38.8542 57.782V52.4739C38.8542 52.0287 38.4891 51.668 38.0386 51.668H35.0008C34.5503 51.668 34.1852 52.0287 34.1852 52.4739V57.782C34.1852 58.2271 33.8201 58.5879 33.3695 58.5879H27.9973C27.5468 58.5879 27.1816 58.9487 27.1816 59.3938V62.3953C27.1816 62.8404 27.5468 63.2012 27.9973 63.2012H33.3695C33.8201 63.2012 34.1852 63.562 34.1852 64.0071V69.3152C34.1852 69.7604 34.5503 70.1211 35.0008 70.1211H38.0386C38.4891 70.1211 38.8542 69.7604 38.8542 69.3152V64.0071C38.8542 63.562 39.2194 63.2012 39.6699 63.2012H45.0421C45.4927 63.2012 45.8578 62.8404 45.8578 62.3953V59.3938C45.8578 58.9487 45.4927 58.5879 45.0421 58.5879Z" fill="#FF0000"/>
<path d="M59.1752 47.3254H50.9355L52.0833 41.8818C52.2146 41.2589 52.7703 40.8125 53.4142 40.8125H56.6963C57.3403 40.8125 57.8958 41.2589 58.0271 41.8818L59.1752 47.3254Z" fill="#FF0000"/>
<path d="M68.7094 71.9415H65.9629C65.3997 71.9415 64.9434 71.4905 64.9434 70.9341C64.9434 70.3778 65.3998 69.9268 65.9629 69.9268H68.7094C69.2726 69.9268 69.7289 70.3778 69.7289 70.9341C69.7289 71.4905 69.2726 71.9415 68.7094 71.9415Z" fill="#D0E2E7"/>
<path d="M88.8403 75.1993H86.0938C85.5305 75.1993 85.0742 74.7483 85.0742 74.1919C85.0742 73.6356 85.5307 73.1846 86.0938 73.1846H88.8403V75.1993Z" fill="#86A0AF"/>
<path d="M88.8403 79.5401H86.0938C85.5305 79.5401 85.0742 79.0891 85.0742 78.5327C85.0742 77.9764 85.5307 77.5254 86.0938 77.5254H88.8403V79.5401Z" fill="#86A0AF"/>
<path d="M53.3262 80.6254C52.763 80.6254 52.3066 80.1744 52.3066 79.618V70.9341C52.3066 70.3778 52.7631 69.9268 53.3262 69.9268C53.8892 69.9268 54.3457 70.3778 54.3457 70.9341V79.618C54.3458 80.1743 53.8894 80.6254 53.3262 80.6254Z" fill="#D0E2E7"/>
<path d="M92.2803 27.5596H75.7124C75.7124 30.2211 73.4416 32.3787 70.6406 32.3787V43.833C70.6406 48.0715 72.5091 52.1161 75.7924 54.9851L80.5813 59.1696C82.512 60.8566 85.4809 60.8566 87.4116 59.1696L92.2005 54.9851C95.4838 52.1161 97.3522 48.0715 97.3522 43.833V32.3788C94.551 32.3788 92.2803 30.2212 92.2803 27.5596Z" fill="#B1E4F9"/>
<path d="M92.2749 27.5596H83.9961V60.4347C85.2192 60.4335 86.442 60.0119 87.4059 59.1697L92.1948 54.9852C95.4782 52.1162 97.3466 48.0716 97.3466 43.8331V32.3788C94.5456 32.3788 92.2749 30.2212 92.2749 27.5596Z" fill="#90D8F9"/>
<path d="M84.0001 62C82.3182 62 80.71 61.4042 79.472 60.3224L74.6831 56.1379C71.0714 52.9821 69 48.4982 69 43.8359V30.8192H70.6442C72.5341 30.8192 74.0717 29.3582 74.0717 27.5624V26H93.9283V27.5624C93.9283 29.3582 95.4658 30.8192 97.3558 30.8192H99V43.8359C99 48.4982 96.9287 52.9821 93.3169 56.1379L88.528 60.3224C87.2902 61.4042 85.6821 62 84.0001 62ZM72.2887 33.7505V43.8359C72.2887 47.6266 73.9727 51.2722 76.9091 53.838L81.6981 58.0224C82.989 59.1504 85.0114 59.1504 86.3024 58.0224L91.0913 53.838C94.0277 51.2722 95.7117 47.6266 95.7117 43.8359V33.7505C93.3272 33.1782 91.446 31.3905 90.8437 29.1248H77.1568C76.5544 31.3905 74.6732 33.1781 72.2887 33.7505Z" fill="#86A0AF"/>
<path d="M97.3467 30.8192C95.4568 30.8192 93.9192 29.3582 93.9192 27.5624V26H83.9962V29.1247H90.8343C91.4366 31.3904 93.3179 33.1781 95.7023 33.7504V43.8358C95.7023 47.6265 94.0183 51.2721 91.0819 53.8378L86.293 58.0223C85.6489 58.5851 84.8227 58.8669 83.9961 58.8682V61.9999C85.6761 61.9986 87.2822 61.4031 88.5189 60.3224L93.3078 56.1379C96.9194 52.9821 98.9908 48.4982 98.9908 43.8359V30.8192H97.3467Z" fill="#86A0AF"/>
<path d="M81.3253 48.9253L75.5488 43.479L78.227 40.9538L81.3253 43.875L88.8688 36.7627L91.5469 39.2878L81.3253 48.9253Z" fill="white"/>
<path d="M88.8656 36.7627L83.5508 41.7738V46.824L91.5437 39.2878L88.8656 36.7627Z" fill="#E9EDF5"/>
</svg>
