<svg width="120" height="120" viewBox="0 0 120 120" fill="none" xmlns="http://www.w3.org/2000/svg">
<circle cx="60" cy="60" r="60" fill="#FFCEDA"/>
<path d="M101.304 59.8254H45.0533C44.4986 59.8254 44.0488 59.3756 44.0488 58.8209V22.6598C44.0488 22.1051 44.4986 21.6553 45.0533 21.6553H101.304C101.859 21.6553 102.308 22.1051 102.308 22.6598V58.8209C102.308 59.3756 101.859 59.8254 101.304 59.8254Z" fill="#41479B"/>
<path d="M102.308 22.6598C102.308 22.1051 101.859 21.6553 101.304 21.6553H96.8098L78.2009 33.8473V21.6553H68.1561V33.8473L49.5473 21.6553H45.0533C44.4986 21.6553 44.0488 22.1051 44.0488 22.6598V25.2577L60.0143 35.7179H44.0488V45.7627H60.0143L44.0488 56.223V58.8209C44.0488 59.3756 44.4986 59.8254 45.0533 59.8254H49.5474L68.1563 47.6333V59.8254H78.2011V47.6333L96.81 59.8254H101.304C101.859 59.8254 102.309 59.3756 102.309 58.8209V56.223L86.3431 45.7628H102.308V35.718H86.3428L102.308 25.2577V22.6598Z" fill="#F5F5F5"/>
<path d="M102.308 37.7269H76.192V21.6553H70.1651V37.7269H44.0488V43.7537H70.1651V59.8254H76.192V43.7537H102.308V37.7269Z" fill="#FF0000"/>
<path d="M64.4118 45.7617L44.0781 58.9608C44.1492 59.4459 44.5492 59.8244 45.0541 59.8244H46.4376L68.1018 45.7618H64.4118V45.7617Z" fill="#FF0000"/>
<path d="M83.4653 45.7617H79.7754L101.408 59.8036C101.912 59.7499 102.31 59.3382 102.31 58.8198V57.9939L83.4653 45.7617Z" fill="#FF0000"/>
<path d="M44.0488 23.7683L62.4574 35.7177H66.1473L44.634 21.7529C44.2904 21.9126 44.0488 22.2556 44.0488 22.6595V23.7683Z" fill="#FF0000"/>
<path d="M81.8891 35.7179L102.272 22.487C102.187 22.0179 101.796 21.6553 101.302 21.6553H99.863L78.1992 35.7179H81.8891Z" fill="#FF0000"/>
<g clip-path="url(#clip0)">
<path d="M59.2926 31.9961L52.0664 71.2242L57.2281 72.2565C68.1533 64.2561 72.8417 31.9961 59.2926 31.9961Z" fill="#80362D"/>
<path d="M59.2912 31.9961C57.4846 30.8992 47.9499 28.1135 40.7094 31.9961C31.8057 36.7706 24.0202 53.8468 36.5802 71.2243C36.5981 71.2489 45.8711 70.192 45.8711 70.192L59.2912 31.9961Z" fill="#80362D"/>
<path d="M57.2842 66.4093H57.228V63.998H42.7756V66.4068C42.7756 68.7666 42.7657 71.3316 40.7109 72.8831V96H50.0018C50.0018 96 54.8668 96 59.2927 96V72.847C57.2905 71.2915 57.2842 68.7488 57.2842 66.4093Z" fill="#FFD7A3"/>
<path d="M50.0006 85.677C47.7807 85.677 45.6861 85.3827 43.8066 84.8716V96.0002H58.2591V84.1904C55.9171 85.125 53.0737 85.677 50.0006 85.677Z" fill="#86A0AF"/>
<path d="M58.2583 77.4177C58.6349 77.5205 58.9741 77.5752 59.2905 77.6019V72.8466C57.2884 71.2911 57.282 68.7482 57.282 66.4087L57.2806 66.3487V63.9375L45.8704 63.9974L42.7734 65.0297C44.8381 67.3526 51.1612 75.4821 58.2583 77.4177Z" fill="#FDC88E"/>
<path d="M64.4517 50.5773C64.4517 58.8442 56.2299 69.1591 49.9993 69.1591C43.7686 69.1591 35.5469 58.8442 35.5469 50.5773C35.5469 42.3103 42.0175 39.2217 49.9993 39.2217C57.981 39.2217 64.4517 42.3103 64.4517 50.5773Z" fill="#FFE1B2"/>
<path d="M52.0665 34.0605C51.4866 34.0605 49.6034 34.7122 48.0642 35.2833L47.9373 35.0928C47.9373 35.0928 47.7249 35.2597 47.3572 35.549C46.5011 35.8741 45.8728 36.1251 45.8728 36.1251L46.1142 36.5276C42.196 39.6147 33.2563 46.6767 32.4525 47.4807C31.4202 48.5129 38.6464 74.8506 38.6464 59.8685C38.6464 47.3517 45.6004 44.8729 52.0665 43.3514C54.9914 42.6632 55.8517 40.9427 56.1958 39.2222C56.54 37.5017 53.099 34.0605 52.0665 34.0605Z" fill="#80362D"/>
<path d="M55.1622 40.2546C57.0548 47.0506 60.84 50.1261 64.3886 51.0294C66.3331 51.5243 65.4855 45.4162 65.4855 45.4162C65.4855 45.4162 62.7326 38.362 62.3885 38.19C62.0445 38.0179 59.2916 31.9961 59.2916 31.9961L53.0977 37.1578L55.1622 40.2546Z" fill="#80362D"/>
<path d="M41.8431 71.6465C40.8763 73.2173 38.9051 74.3216 34.8598 74.3216H34.5158C28.2443 74.3216 23.1602 79.4056 23.1602 85.6772V92.9034C23.1602 94.6137 24.5467 96.0004 26.2571 96.0004H47.4403L41.8431 71.6465Z" fill="white"/>
<path d="M58.1577 71.6465C59.1246 73.2173 61.0958 74.3216 65.1411 74.3216H65.4851C71.7566 74.3216 76.8407 79.4056 76.8407 85.6772V92.9034C76.8407 94.6137 75.4542 96.0004 73.7438 96.0004H52.5605L58.1577 71.6465Z" fill="white"/>
<path d="M34.5149 93.9352C36.2253 93.9352 37.6119 92.5486 37.6119 90.8382C37.6119 89.1278 36.2253 87.7412 34.5149 87.7412C32.8045 87.7412 31.418 89.1278 31.418 90.8382C31.418 92.5486 32.8045 93.9352 34.5149 93.9352Z" fill="#D0E2E7"/>
<path d="M69.3653 94.3735L68.0891 93.4964C69.2232 91.8463 69.8738 89.3723 69.8738 86.7087C69.8738 82.0922 67.8646 78.192 65.4865 78.192C63.1084 78.192 61.0992 82.0922 61.0992 86.7087C61.0992 89.3723 61.7496 91.8463 62.8839 93.4964L61.6076 94.3735C60.3007 92.4716 59.5508 89.6779 59.5508 86.7087C59.5508 81.0646 62.158 76.6436 65.4866 76.6436C68.8152 76.6436 71.4225 81.0647 71.4225 86.7087C71.422 89.6779 70.6723 92.4716 69.3653 94.3735Z" fill="#D0E2E7"/>
<path d="M62.3877 94.9679C62.9578 94.9679 63.42 94.5057 63.42 93.9356C63.42 93.3655 62.9578 92.9033 62.3877 92.9033C61.8176 92.9033 61.3555 93.3655 61.3555 93.9356C61.3555 94.5057 61.8176 94.9679 62.3877 94.9679Z" fill="#86A0AF"/>
<path d="M68.5831 94.9679C69.1532 94.9679 69.6153 94.5057 69.6153 93.9356C69.6153 93.3655 69.1532 92.9033 68.5831 92.9033C68.0129 92.9033 67.5508 93.3655 67.5508 93.9356C67.5508 94.5057 68.0129 94.9679 68.5831 94.9679Z" fill="#86A0AF"/>
<path d="M34.5164 89.5475C34.0887 89.5475 33.7422 89.201 33.7422 88.7733C33.7422 75.3955 40.0651 71.7289 40.3343 71.5794C40.7087 71.3709 41.1795 71.5063 41.3869 71.8802C41.5942 72.2526 41.461 72.7221 41.0901 72.9309C41.0142 72.9749 35.2906 76.4093 35.2906 88.7733C35.2906 89.201 34.944 89.5475 34.5164 89.5475Z" fill="#D0E2E7"/>
<path d="M34.5154 92.4732C35.4181 92.4732 36.1499 91.7414 36.1499 90.8386C36.1499 89.9359 35.4181 89.2041 34.5154 89.2041C33.6127 89.2041 32.8809 89.9359 32.8809 90.8386C32.8809 91.7414 33.6127 92.4732 34.5154 92.4732Z" fill="#86A0AF"/>
<path d="M65.4835 78.1934C65.1644 78.1934 64.8657 77.9944 64.7534 77.6764C64.0807 75.7703 62.9857 74.9638 62.9748 74.9563C62.6245 74.7111 62.5393 74.2282 62.7845 73.8779C63.0298 73.5281 63.5118 73.4427 63.8629 73.6876C63.924 73.7304 65.3666 74.761 66.2136 77.1614C66.3561 77.5644 66.1443 78.0067 65.7411 78.1491C65.6558 78.1789 65.5689 78.1934 65.4835 78.1934Z" fill="#D0E2E7"/>
<path d="M62.9159 50.6725C64.6051 50.2853 65.7117 51.1125 65.7117 52.7372C65.7117 54.8878 63.4402 60.157 61.0522 56.8664C58.6642 53.5759 62.9159 50.6725 62.9159 50.6725Z" fill="#FFE1B2"/>
</g>
<path d="M67.0625 66H86.8281C87.3047 66 87.7617 66.1975 88.0987 66.5492C88.4357 66.9008 88.625 67.3777 88.625 67.875V94.875C88.625 95.3723 88.4357 95.8492 88.0987 96.2008C87.7617 96.5525 87.3047 96.75 86.8281 96.75H67.0625V66Z" fill="#44697E"/>
<path d="M73.5312 69H82.1562V70.5H73.5312V69Z" fill="#D0E2E7"/>
<path d="M74.9688 90.75H80.7188V92.25H74.9688V90.75Z" fill="#D0E2E7"/>
<path d="M74.9688 72H80.7188V73.5H74.9688V72Z" fill="#D0E2E7"/>
<path d="M82.1562 90.75H83.5938V92.25H82.1562V90.75Z" fill="#D0E2E7"/>
<path d="M72.0938 90.75H73.5312V92.25H72.0938V90.75Z" fill="#D0E2E7"/>
<path d="M73.7168 85.5C74.3102 86.3869 75.1505 87.062 76.1238 87.4341C75.7845 86.826 75.5188 86.1763 75.3327 85.5H73.7168Z" fill="white"/>
<path d="M73.7168 79.5007H75.3471C75.5387 78.8182 75.812 78.1637 76.1606 77.5527C75.172 77.9216 74.3179 78.6024 73.7168 79.5007Z" fill="white"/>
<path d="M74.9369 82.5253C74.9366 82.0151 74.9701 81.5054 75.0369 81H73.0217C72.7428 81.9788 72.7428 83.0212 73.0217 84H75.0303C74.9678 83.5111 74.9367 83.0185 74.9369 82.5253Z" fill="white"/>
<path d="M77.8353 87.3757C78.2659 86.8149 78.5998 86.1802 78.822 85.5H76.8477C77.0701 86.1803 77.4043 86.815 77.8353 87.3757Z" fill="white"/>
<path d="M77.8355 77.6748C77.415 78.2212 77.0869 78.8384 76.8652 79.4999H78.8047C78.5834 78.8385 78.2556 78.2213 77.8355 77.6748Z" fill="white"/>
<path d="M82.667 81H80.6328C80.7639 81.9952 80.7661 83.0042 80.6395 84H82.667C82.9459 83.0212 82.9459 81.9788 82.667 81Z" fill="white"/>
<path d="M79.5391 87.4432C80.5224 87.0732 81.3717 86.3943 81.9701 85.5H80.335C80.1481 86.1797 79.8807 86.8324 79.5391 87.4432Z" fill="white"/>
<path d="M81.97 79.4997C81.3639 78.594 80.5006 77.9095 79.502 77.543C79.8531 78.1564 80.1283 78.8139 80.3207 79.4997H81.97Z" fill="white"/>
<path d="M76.4934 81C76.3382 81.9932 76.3356 83.0059 76.4855 84H79.1841C79.3341 83.0059 79.3314 81.9932 79.1763 81H76.4934Z" fill="white"/>
<path d="M77.8437 75.75C76.5644 75.75 75.3137 76.1459 74.2499 76.8876C73.1861 77.6293 72.357 78.6835 71.8674 79.9169C71.3778 81.1503 71.2497 82.5075 71.4993 83.8169C71.7489 85.1262 72.365 86.329 73.2697 87.273C74.1743 88.217 75.3269 88.8599 76.5818 89.1203C77.8366 89.3808 79.1372 89.2471 80.3192 88.7362C81.5012 88.2253 82.5115 87.3601 83.2223 86.2501C83.9331 85.1401 84.3125 83.835 84.3125 82.5C84.3106 80.7104 83.6284 78.9947 82.4157 77.7293C81.203 76.4638 79.5588 75.752 77.8437 75.75ZM77.8437 88.5C76.7065 88.5 75.5948 88.1481 74.6492 87.4888C73.7036 86.8295 72.9666 85.8925 72.5314 84.7961C72.0962 83.6997 71.9824 82.4933 72.2042 81.3295C72.4261 80.1656 72.9737 79.0965 73.7779 78.2574C74.582 77.4182 75.6066 76.8468 76.722 76.6153C77.8374 76.3838 78.9935 76.5026 80.0442 76.9567C81.0949 77.4108 81.9929 78.1799 82.6247 79.1666C83.2565 80.1533 83.5937 81.3133 83.5937 82.5C83.5937 84.0913 82.9879 85.6174 81.9096 86.7426C80.8313 87.8679 79.3687 88.5 77.8437 88.5Z" fill="white"/>
<defs>
<clipPath id="clip0">
<rect x="17" y="30" width="66" height="66" fill="white"/>
</clipPath>
</defs>
</svg>
