<svg width="120" height="120" viewBox="0 0 120 120" fill="none" xmlns="http://www.w3.org/2000/svg">
<circle cx="60" cy="60" r="60" fill="#FFCEDA"/>
<path d="M96.9996 79.5544C97.0011 78.9083 96.8227 78.2756 96.4834 77.7255L93.1946 72.4311C92.7847 71.6169 92.5723 70.7174 92.5751 69.806V53.4946C92.5751 42.9056 83.9918 34.3223 73.4028 34.3223H64.5539C53.9648 34.3223 45.3815 42.9056 45.3815 53.4946V69.806C45.3845 70.7174 45.1722 71.6171 44.7621 72.4311L41.4732 77.7255C41.134 78.2756 40.9555 78.9083 40.957 79.5544C40.9644 81.4495 42.4983 82.9832 44.3933 82.9906H93.5631C95.4584 82.9832 96.9923 81.4493 96.9996 79.5544Z" fill="#4FBA6F"/>
<path d="M73.4064 34.3236L80.7803 24H57.1836L64.5575 34.3236V37.2732H73.4064V34.3236Z" fill="#4FBA6F"/>
<path d="M76.9492 56.3125V55.3274C76.9415 52.4752 74.6347 50.1634 71.7888 50.1556H70.806V47.0771H67.7344V50.1556H66.7515C63.9011 50.1463 61.5835 52.4536 61.5743 55.3103C61.5666 57.4791 62.9104 59.4216 64.9393 60.1757L67.7344 61.2223V67.0867H66.7515C65.5981 67.0867 64.6627 66.1493 64.6627 64.9934V64.0083H61.5911V64.9934C61.5988 67.8456 63.9056 70.1573 66.7515 70.1652H71.789C74.6394 70.1744 76.957 67.8672 76.9662 65.0104C76.9739 62.8417 75.6301 60.8992 73.6012 60.145L70.8061 59.0984V53.234H71.789C72.9424 53.234 73.8777 54.1715 73.8777 55.3274V56.3125H76.9492ZM72.5261 63.0234C73.3371 63.3389 73.873 64.121 73.8776 64.9937C73.8776 66.1497 72.9422 67.0871 71.7888 67.0871H70.806V62.3771L72.5261 63.0234ZM67.7345 57.944L66.0143 57.2975C65.2034 56.982 64.6674 56.2 64.6629 55.3272C64.6629 54.1713 65.5983 53.2339 66.7517 53.2339H67.7345V57.944Z" fill="white"/>
<path d="M23 56.7842C23 55.6796 23.8954 54.7842 25 54.7842H55.7674C56.8719 54.7842 57.7674 55.6796 57.7674 56.7842V94.3371C57.7674 95.4417 56.8719 96.3371 55.7674 96.3371H25C23.8954 96.3371 23 95.4417 23 94.3371V56.7842Z" fill="#44697E"/>
<path d="M26.5649 65.4395H30.6009C31.149 65.4395 31.5974 65.8879 31.5974 66.436V70.472C31.5974 71.0201 31.149 71.4685 30.6009 71.4685H26.5649C26.0168 71.4685 25.5684 71.0201 25.5684 70.472V66.436C25.5684 65.8879 26.0168 65.4395 26.5649 65.4395Z" fill="white"/>
<path d="M34.3891 65.4395H38.4251C38.9732 65.4395 39.4216 65.8879 39.4216 66.436V70.472C39.4216 71.0201 38.9732 71.4685 38.4251 71.4685H34.3891C33.841 71.4685 33.3926 71.0201 33.3926 70.472V66.436C33.3926 65.8879 33.841 65.4395 34.3891 65.4395Z" fill="white"/>
<path d="M43.0883 66.3281H46.5229C46.9893 66.3281 47.3709 66.7097 47.3709 67.1761V70.6108C47.3709 71.0772 46.9893 71.4588 46.5229 71.4588H43.0883C42.6218 71.4588 42.2402 71.0772 42.2402 70.6108V67.1761C42.2402 66.7097 42.6218 66.3281 43.0883 66.3281Z" fill="#90D8F9"/>
<path d="M50.7836 66.3281H54.2182C54.6846 66.3281 55.0662 66.7097 55.0662 67.1761V70.6108C55.0662 71.0772 54.6846 71.4588 54.2182 71.4588H50.7836C50.3171 71.4588 49.9355 71.0772 49.9355 70.6108V67.1761C49.9355 66.7097 50.3171 66.3281 50.7836 66.3281Z" fill="#FF0000"/>
<path d="M26.5629 73.0879H30.599C31.1471 73.0879 31.5955 73.5363 31.5955 74.0844V78.1205C31.5955 78.6686 31.1471 79.117 30.599 79.117H26.5629C26.0148 79.117 25.5664 78.6686 25.5664 78.1205V74.0844C25.5664 73.5363 26.0148 73.0879 26.5629 73.0879Z" fill="white"/>
<path d="M34.3891 73.0879H38.4251C38.9732 73.0879 39.4216 73.5363 39.4216 74.0844V78.1205C39.4216 78.6686 38.9732 79.117 38.4251 79.117H34.3891C33.841 79.117 33.3926 78.6686 33.3926 78.1205V74.0844C33.3926 73.5363 33.841 73.0879 34.3891 73.0879Z" fill="white"/>
<path d="M42.2113 73.0879H46.2474C46.7955 73.0879 47.2439 73.5363 47.2439 74.0844V78.1205C47.2439 78.6686 46.7955 79.117 46.2474 79.117H42.2113C41.6633 79.117 41.2148 78.6686 41.2148 78.1205V74.0844C41.2148 73.5363 41.6633 73.0879 42.2113 73.0879Z" fill="white"/>
<path d="M50.0356 73.0879H54.0716C54.6197 73.0879 55.0681 73.5363 55.0681 74.0844V78.1205C55.0681 78.6686 54.6197 79.117 54.0716 79.117H50.0356C49.4875 79.117 49.0391 78.6686 49.0391 78.1205V74.0844C49.0391 73.5363 49.4875 73.0879 50.0356 73.0879Z" fill="white"/>
<path d="M26.5629 80.7637H30.599C31.1471 80.7637 31.5955 81.2121 31.5955 81.7602V85.7962C31.5955 86.3443 31.1471 86.7927 30.599 86.7927H26.5629C26.0148 86.7927 25.5664 86.3443 25.5664 85.7962V81.7602C25.5664 81.2121 26.0148 80.7637 26.5629 80.7637Z" fill="white"/>
<path d="M34.3891 80.7637H38.4251C38.9732 80.7637 39.4216 81.2121 39.4216 81.7602V85.7962C39.4216 86.3443 38.9732 86.7927 38.4251 86.7927H34.3891C33.841 86.7927 33.3926 86.3443 33.3926 85.7962V81.7602C33.3926 81.2121 33.841 80.7637 34.3891 80.7637Z" fill="white"/>
<path d="M42.2113 80.7637H46.2474C46.7955 80.7637 47.2439 81.2121 47.2439 81.7602V85.7962C47.2439 86.3443 46.7955 86.7927 46.2474 86.7927H42.2113C41.6633 86.7927 41.2148 86.3443 41.2148 85.7962V81.7602C41.2148 81.2121 41.6633 80.7637 42.2113 80.7637Z" fill="white"/>
<path d="M50.0356 80.7637H54.0716C54.6197 80.7637 55.0681 81.2121 55.0681 81.7602V85.7962C55.0681 86.3443 54.6197 86.7927 54.0716 86.7927H50.0356C49.4875 86.7927 49.0391 86.3443 49.0391 85.7962V81.7602C49.0391 81.2121 49.4875 80.7637 50.0356 80.7637Z" fill="white"/>
<path d="M26.5629 88.4111H30.599C31.1471 88.4111 31.5955 88.8595 31.5955 89.4076V93.4437C31.5955 93.9918 31.1471 94.4402 30.599 94.4402H26.5629C26.0148 94.4402 25.5664 93.9918 25.5664 93.4437V89.4076C25.5664 88.8595 26.0148 88.4111 26.5629 88.4111Z" fill="white"/>
<path d="M34.3891 88.4111H38.4251C38.9732 88.4111 39.4216 88.8595 39.4216 89.4076V93.4437C39.4216 93.9918 38.9732 94.4402 38.4251 94.4402H34.3891C33.841 94.4402 33.3926 93.9918 33.3926 93.4437V89.4076C33.3926 88.8595 33.841 88.4111 34.3891 88.4111Z" fill="white"/>
<path d="M42.2113 88.4111H46.2474C46.7955 88.4111 47.2439 88.8595 47.2439 89.4076V93.4437C47.2439 93.9918 46.7955 94.4402 46.2474 94.4402H42.2113C41.6633 94.4402 41.2148 93.9918 41.2148 93.4437V89.4076C41.2148 88.8595 41.6633 88.4111 42.2113 88.4111Z" fill="white"/>
<path d="M50.0356 88.4111H54.0716C54.6197 88.4111 55.0681 88.8595 55.0681 89.4076V93.4437C55.0681 93.9918 54.6197 94.4402 54.0716 94.4402H50.0356C49.4875 94.4402 49.0391 93.9918 49.0391 93.4437V89.4076C49.0391 88.8595 49.4875 88.4111 50.0356 88.4111Z" fill="white"/>
<path d="M25.5645 57.3496H55.0659V63.763H25.5645V57.3496Z" fill="#ECF0F1"/>
<path d="M52.5041 57.7695C53.0221 57.7695 53.5154 57.9863 53.8607 58.3236C54.2059 58.6608 54.4281 59.1427 54.4281 59.6484V61.0214C54.4281 61.5513 54.2061 62.009 53.8607 62.3461C53.5154 62.6832 53.0219 62.9002 52.5041 62.9002C51.9862 62.9002 51.4927 62.6834 51.1475 62.3461C50.8023 62.009 50.5801 61.5271 50.5801 61.0214V59.6484C50.5801 59.1185 50.802 58.6608 51.1475 58.3236C51.4929 57.9865 51.986 57.7695 52.5041 57.7695ZM53.3674 58.8053C53.1454 58.5886 52.8248 58.444 52.5041 58.444C52.1588 58.444 51.8627 58.5886 51.6408 58.8053C51.4188 59.0221 51.2708 59.3352 51.2708 59.6484V61.0214C51.2708 61.3585 51.4188 61.6476 51.6408 61.8644C51.8627 62.0812 52.1834 62.2257 52.5041 62.2257C52.8493 62.2257 53.1454 62.0812 53.3674 61.8644C53.5894 61.6476 53.7374 61.3345 53.7374 61.0214V59.6484C53.7374 59.3111 53.5894 59.0221 53.3674 58.8053Z" fill="#807E7E"/>
</svg>
