<svg width="120" height="120" viewBox="0 0 120 120" fill="none" xmlns="http://www.w3.org/2000/svg">
<circle cx="60" cy="60" r="60" fill="#FFCEDA"/>
<g clip-path="url(#clip0)">
<path d="M76.1864 97H30.2778C27.9822 97 26.1211 95.1389 26.1211 92.8433V28.1567C26.1211 25.8611 27.982 24 30.2778 24H76.1864C78.4821 24 80.3431 25.8611 80.3431 28.1567V92.8433C80.3431 95.1389 78.4822 97 76.1864 97Z" fill="white"/>
<path d="M74.3511 74.4438H35.8678C35.2569 74.4438 34.7617 73.9488 34.7617 73.3381C34.7617 72.7275 35.2569 72.2324 35.8678 72.2324H74.3512C74.9622 72.2324 75.4574 72.7275 75.4574 73.3381C75.4574 73.9488 74.9622 74.4438 74.3511 74.4438Z" fill="#86A0AF"/>
<path d="M74.3511 80.3833H35.8678C35.2569 80.3833 34.7617 79.8882 34.7617 79.2776C34.7617 78.6669 35.2569 78.1719 35.8678 78.1719H74.3512C74.9622 78.1719 75.4574 78.6669 75.4574 79.2776C75.4574 79.8882 74.9622 80.3833 74.3511 80.3833Z" fill="#86A0AF"/>
<path d="M74.3511 86.3227H35.8678C35.2569 86.3227 34.7617 85.8277 34.7617 85.217C34.7617 84.6064 35.2569 84.1113 35.8678 84.1113H74.3512C74.9622 84.1113 75.4574 84.6064 75.4574 85.217C75.4574 85.8278 74.9622 86.3227 74.3511 86.3227Z" fill="#86A0AF"/>
<path d="M74.3511 92.2641H35.8678C35.2569 92.2641 34.7617 91.7691 34.7617 91.1584C34.7617 90.5478 35.2569 90.0527 35.8678 90.0527H74.3512C74.9622 90.0527 75.4574 90.5478 75.4574 91.1584C75.4574 91.7691 74.9622 92.2641 74.3511 92.2641Z" fill="#86A0AF"/>
<path d="M74.3511 62.5639H35.8678C35.2569 62.5639 34.7617 62.0689 34.7617 61.4582C34.7617 60.8476 35.2569 60.3525 35.8678 60.3525H74.3512C74.9622 60.3525 75.4574 60.8476 75.4574 61.4582C75.4574 62.0689 74.9622 62.5639 74.3511 62.5639Z" fill="#86A0AF"/>
<path d="M74.3511 68.5034H35.8678C35.2569 68.5034 34.7617 68.0083 34.7617 67.3977C34.7617 66.787 35.2569 66.292 35.8678 66.292H74.3512C74.9622 66.292 75.4574 66.787 75.4574 67.3977C75.4574 68.0085 74.9622 68.5034 74.3511 68.5034Z" fill="#86A0AF"/>
<path d="M31.7995 74.4438C32.4104 74.4438 32.9056 73.9488 32.9056 73.3381C32.9056 72.7275 32.4104 72.2324 31.7995 72.2324C31.1886 72.2324 30.6934 72.7275 30.6934 73.3381C30.6934 73.9488 31.1886 74.4438 31.7995 74.4438Z" fill="#86A0AF"/>
<path d="M31.7995 62.5639C32.4104 62.5639 32.9056 62.0689 32.9056 61.4582C32.9056 60.8476 32.4104 60.3525 31.7995 60.3525C31.1886 60.3525 30.6934 60.8476 30.6934 61.4582C30.6934 62.0689 31.1886 62.5639 31.7995 62.5639Z" fill="#86A0AF"/>
<path d="M31.7995 68.5034C32.4104 68.5034 32.9056 68.0083 32.9056 67.3977C32.9056 66.787 32.4104 66.292 31.7995 66.292C31.1886 66.292 30.6934 66.787 30.6934 67.3977C30.6934 68.0083 31.1886 68.5034 31.7995 68.5034Z" fill="#86A0AF"/>
<path d="M31.7995 80.3833C32.4104 80.3833 32.9056 79.8882 32.9056 79.2776C32.9056 78.6669 32.4104 78.1719 31.7995 78.1719C31.1886 78.1719 30.6934 78.6669 30.6934 79.2776C30.6934 79.8882 31.1886 80.3833 31.7995 80.3833Z" fill="#86A0AF"/>
<path d="M31.7995 86.3237C32.4104 86.3237 32.9056 85.8287 32.9056 85.218C32.9056 84.6073 32.4104 84.1123 31.7995 84.1123C31.1886 84.1123 30.6934 84.6073 30.6934 85.218C30.6934 85.8287 31.1886 86.3237 31.7995 86.3237Z" fill="#86A0AF"/>
<path d="M31.7995 92.2631C32.4104 92.2631 32.9056 91.7681 32.9056 91.1575C32.9056 90.5468 32.4104 90.0518 31.7995 90.0518C31.1886 90.0518 30.6934 90.5468 30.6934 91.1575C30.6934 91.7681 31.1886 92.2631 31.7995 92.2631Z" fill="#86A0AF"/>
<path d="M58.7215 51.9989H47.6935C45.9898 51.9989 44.7072 50.6105 45.0279 49.1133L45.461 47.0876C45.5855 46.5065 45.8374 45.9647 46.1949 45.4888C46.7595 44.7303 47.588 44.1377 48.5778 43.816L53.2389 42.3027L57.8642 43.8044C58.8589 44.1279 59.6903 44.725 60.2559 45.4896V45.4905C60.6184 45.9781 60.8713 46.5324 60.9908 47.1277L61.3931 49.1418C61.6908 50.631 60.4123 51.9989 58.7215 51.9989Z" fill="#B8B6FF"/>
<path d="M55.7883 43.1365L53.1804 45.1739L50.5742 43.1365V40.0088H55.7883V43.1365Z" fill="#ECBD83"/>
<path d="M57.3247 34.4917V37.1425C57.3247 39.2212 55.4238 40.972 53.1016 40.9319C50.8512 40.8931 49.041 39.2483 49.041 37.2255V34.4917C49.041 32.4444 50.8954 31.376 53.1828 31.376C55.4704 31.376 57.3247 32.4444 57.3247 34.4917Z" fill="#F7D4AD"/>
<path d="M48.8765 48.4203V51.9994H47.6935C45.9898 51.9994 44.7072 50.611 45.0279 49.1138L45.461 47.0881C45.5855 46.507 45.8374 45.9652 46.1949 45.4893C47.7253 45.7628 48.8765 46.9713 48.8765 48.4203Z" fill="#A09EEF"/>
<path d="M58.7222 51.9996H57.582V48.4205C57.582 46.9741 58.7302 45.7666 60.2567 45.4912C60.6191 45.9787 60.872 46.533 60.9915 47.1283L61.3939 49.1424C61.6916 50.6317 60.4131 51.9996 58.7222 51.9996Z" fill="#A09EEF"/>
<path d="M57.3245 34.3113C57.1694 34.4177 57.054 34.4942 57.054 34.4942C56.7606 34.6459 56.4421 34.7848 56.1006 34.9074C54.5474 35.4638 53.0288 35.4842 52.2942 35.0236C52.2942 35.0236 51.5271 34.5114 51.2399 34.1844C50.9526 33.8573 50.0388 33.7745 49.2814 34.4942C49.202 34.5695 49.1214 34.6191 49.041 34.648V34.4942C49.041 32.4455 50.8961 30.7852 53.1852 30.7852C54.3298 30.7852 55.3661 31.2004 56.115 31.8719C56.8208 32.5024 57.2729 33.3589 57.3245 34.3113Z" fill="#6E4848"/>
<path d="M84.4665 73.6962L80.7069 70.7538C80.493 70.5864 80.1923 70.5864 79.9784 70.7538L76.2188 73.6962C75.831 73.9997 75.2637 73.7235 75.2637 73.2311V52.1355C75.2637 51.8093 75.5282 51.5449 75.8545 51.5449H84.8308C85.1572 51.5449 85.4216 51.8094 85.4216 52.1355V73.2312C85.4216 73.7235 84.8543 73.9997 84.4665 73.6962Z" fill="#DC0135"/>
<path d="M94.8781 43.9821C94.8781 45.8365 92.8632 47.2767 92.1942 48.8891C91.5007 50.5604 91.88 52.9975 90.6197 54.2569C89.3598 55.5161 86.9228 55.1353 85.251 55.8282C83.6384 56.4965 82.1977 58.5111 80.3433 58.5111C78.4889 58.5111 77.0482 56.4965 75.4356 55.8282C73.7637 55.1354 71.3269 55.5161 70.0668 54.2569C68.8066 52.9975 69.186 50.5604 68.4925 48.8891C67.8234 47.2767 65.8086 45.8363 65.8086 43.9821C65.8086 42.1277 67.8235 40.6876 68.4926 39.0752C69.1861 37.4038 68.8069 34.9668 70.0671 33.7074C71.3271 32.4481 73.764 32.8289 75.4359 32.136C77.0484 31.4678 78.4892 29.4531 80.3436 29.4531C82.1979 29.4531 83.6387 31.4678 85.2513 32.136C86.9231 32.8288 89.3599 32.4481 90.62 33.7074C91.8803 34.9668 91.5009 37.4038 92.1944 39.0752C92.8632 40.6876 94.8781 42.1277 94.8781 43.9821Z" fill="#FF003D"/>
<path d="M80.5844 36.7956L82.9187 40.281C82.957 40.3381 83.0143 40.3799 83.0806 40.3986L87.1182 41.5406C87.3168 41.5968 87.3948 41.8366 87.267 41.9987L84.6722 45.2949C84.6296 45.3489 84.6076 45.4165 84.6104 45.4852L84.7713 49.6763C84.7793 49.8824 84.5751 50.0307 84.3815 49.9594L80.4435 48.5113C80.3789 48.4875 80.3079 48.4875 80.2433 48.5113L76.3053 49.9594C76.1116 50.0307 75.9075 49.8824 75.9154 49.6763L76.0763 45.4852C76.079 45.4165 76.0571 45.3489 76.0145 45.2949L73.4197 41.9987C73.2921 41.8366 73.3699 41.5968 73.5685 41.5406L77.6061 40.3986C77.6724 40.3799 77.7298 40.3381 77.768 40.281L80.1023 36.7956C80.2174 36.6241 80.4696 36.6241 80.5844 36.7956Z" fill="#FFCD00"/>
</g>
<defs>
<clipPath id="clip0">
<rect x="24" y="24" width="73" height="73" fill="white"/>
</clipPath>
</defs>
</svg>
