<svg width="120" height="120" viewBox="0 0 120 120" fill="none" xmlns="http://www.w3.org/2000/svg">
<circle cx="60" cy="60" r="60" fill="#FFCEDA"/>
<path d="M35.4062 42.3906H85.5938V58.3594H35.4062C33.2887 58.3594 31.2578 57.5182 29.7604 56.0208C28.2631 54.5234 27.4219 52.4926 27.4219 50.375V50.375C27.4219 49.3265 27.6284 48.2882 28.0296 47.3195C28.4309 46.3508 29.019 45.4706 29.7604 44.7292C30.5019 43.9878 31.382 43.3997 32.3508 42.9984C33.3195 42.5971 34.3577 42.3906 35.4062 42.3906Z" fill="#42A2CE"/>
<path d="M42.25 26.4219H78.75V58.3594H42.25V26.4219Z" fill="#34A166"/>
<path d="M42.25 26.4219H46.8125V58.3594H42.25V26.4219Z" fill="#008F55"/>
<path d="M74.1875 26.4219H78.75V58.3594H74.1875V26.4219Z" fill="#008F55"/>
<path d="M60.5 68.625C66.1695 68.625 70.7656 64.0289 70.7656 58.3594C70.7656 52.6898 66.1695 48.0938 60.5 48.0938C54.8305 48.0938 50.2344 52.6898 50.2344 58.3594C50.2344 64.0289 54.8305 68.625 60.5 68.625Z" fill="white"/>
<path d="M60.5 41.25C62.3898 41.25 63.9219 39.718 63.9219 37.8281C63.9219 35.9383 62.3898 34.4062 60.5 34.4062C58.6102 34.4062 57.0781 35.9383 57.0781 37.8281C57.0781 39.718 58.6102 41.25 60.5 41.25Z" fill="white"/>
<path d="M86.7344 58.3594V92.5781H35.4062C34.3577 92.5782 33.3194 92.3717 32.3507 91.9704C31.382 91.5692 30.5018 90.9811 29.7603 90.2397C29.0189 89.4982 28.4308 88.618 28.0296 87.6493C27.6283 86.6806 27.4218 85.6423 27.4219 84.5938V50.375C27.4218 51.4235 27.6283 52.4618 28.0296 53.4305C28.4308 54.3993 29.0189 55.2795 29.7603 56.0209C30.5018 56.7623 31.382 57.3505 32.3507 57.7517C33.3194 58.1529 34.3577 58.3594 35.4062 58.3594H86.7344Z" fill="#90D8F9"/>
<path d="M86.7344 69.7656V81.1719H79.8906C78.3781 81.1719 76.9275 80.571 75.8579 79.5015C74.7884 78.4319 74.1875 76.9813 74.1875 75.4688C74.1875 73.9562 74.7884 72.5056 75.8579 71.436C76.9275 70.3665 78.3781 69.7656 79.8906 69.7656H86.7344Z" fill="#42A2CE"/>
<path d="M89.0156 80.0312H79.8906C78.6806 80.0312 77.5201 79.5506 76.6645 78.6949C75.8088 77.8393 75.3281 76.6788 75.3281 75.4688C75.3281 74.2587 75.8088 73.0982 76.6645 72.2426C77.5201 71.3869 78.6806 70.9062 79.8906 70.9062H89.0156C90.2257 70.9062 91.3862 70.4256 92.2418 69.5699C93.0974 68.7143 93.5781 67.5538 93.5781 66.3438V75.4688C93.5781 76.6788 93.0974 77.8393 92.2418 78.6949C91.3862 79.5506 90.2257 80.0312 89.0156 80.0312Z" fill="#90D8F9"/>
<path d="M86.7344 61.7812H89.0156C90.2257 61.7812 91.3862 62.2619 92.2418 63.1176C93.0974 63.9732 93.5781 65.1337 93.5781 66.3438C93.5781 67.5538 93.0974 68.7143 92.2418 69.5699C91.3862 70.4256 90.2257 70.9062 89.0156 70.9062H86.7344V61.7812Z" fill="#42A2CE"/>
<path d="M79.8906 76.6094C80.5206 76.6094 81.0312 76.0987 81.0312 75.4688C81.0312 74.8388 80.5206 74.3281 79.8906 74.3281C79.2607 74.3281 78.75 74.8388 78.75 75.4688C78.75 76.0987 79.2607 76.6094 79.8906 76.6094Z" fill="#42A2CE"/>
</svg>
