<svg width="120" height="120" viewBox="0 0 120 120" fill="none" xmlns="http://www.w3.org/2000/svg">
<circle cx="60" cy="60" r="60" fill="#FFCEDA"/>
<path d="M41.6191 24H96.9985V84.4138H41.6191V24Z" fill="white"/>
<path d="M63.0156 27.7764H75.6018V30.2936H63.0156V27.7764Z" fill="#86A0AF"/>
<path d="M59.2422 31.5508H79.3801V34.068H59.2422V31.5508Z" fill="#86A0AF"/>
<path d="M63.0156 35.3281H75.6018V37.8454H63.0156V35.3281Z" fill="#86A0AF"/>
<path d="M45.3965 40.3623H93.2241V42.8795H45.3965V40.3623Z" fill="#D0E2E7"/>
<path d="M47.9141 52.9492H54.2072V55.4665H47.9141V52.9492Z" fill="#86A0AF"/>
<path d="M59.2422 52.9492H74.3456V55.4665H59.2422V52.9492Z" fill="#86A0AF"/>
<path d="M83.1562 52.9492H90.708V55.4665H83.1562V52.9492Z" fill="#86A0AF"/>
<path d="M47.9141 56.7246H55.4658V59.2419H47.9141V56.7246Z" fill="#86A0AF"/>
<path d="M59.2422 56.7246H69.3112V59.2419H59.2422V56.7246Z" fill="#86A0AF"/>
<path d="M83.1562 56.7246H90.708V59.2419H83.1562V56.7246Z" fill="#86A0AF"/>
<path d="M47.9141 60.501H54.2072V63.0182H47.9141V60.501Z" fill="#86A0AF"/>
<path d="M59.2422 60.501H73.087V63.0182H59.2422V60.501Z" fill="#86A0AF"/>
<path d="M83.1562 60.501H90.708V63.0182H83.1562V60.501Z" fill="#86A0AF"/>
<path d="M78.1191 68.0518H90.7053V70.569H78.1191V68.0518Z" fill="#86A0AF"/>
<path d="M80.6387 73.0869H88.1904V75.6042H80.6387V73.0869Z" fill="#86A0AF"/>
<path d="M46.6562 45.3975H54.208V47.9147H46.6562V45.3975Z" fill="#FF003D"/>
<path d="M59.2422 45.3975H66.7939V47.9147H59.2422V45.3975Z" fill="#FF003D"/>
<path d="M83.1562 45.3975H90.708V47.9147H83.1562V45.3975Z" fill="#FF003D"/>
<path d="M47.9138 67.4224V97H24V67.4224C23.9999 67.0092 24.0812 66.6 24.2393 66.2181C24.3974 65.8363 24.6291 65.4894 24.9213 65.1972C25.2136 64.905 25.5605 64.6732 25.9423 64.5151C26.3241 64.3571 26.7333 64.2757 27.1466 64.2759C27.3579 64.2758 27.5687 64.2547 27.7759 64.2129C28.3802 64.0889 28.9349 63.7902 29.3712 63.3539C29.8074 62.9177 30.1061 62.363 30.2302 61.7586C30.272 61.5515 30.2931 61.3406 30.2931 61.1293V60.5H41.6207V61.1293C41.6207 61.3406 41.6418 61.5515 41.6836 61.7586C41.8072 62.3632 42.1057 62.9182 42.542 63.3545C42.9784 63.7909 43.5333 64.0894 44.1379 64.2129C44.3451 64.2547 44.5559 64.2758 44.7672 64.2759C45.6017 64.2762 46.4018 64.6078 46.9919 65.1978C47.5819 65.7878 47.9135 66.588 47.9138 67.4224Z" fill="#86A0AF"/>
<path d="M27.7754 52.9492H44.1375V60.5009H27.7754V52.9492Z" fill="#B1E4F9"/>
<path d="M29.0332 69.3096H47.9125V91.9647H29.0332V69.3096Z" fill="#D0E2E7"/>
<path d="M34.0684 73.0859H41.6201V75.6032H34.0684V73.0859Z" fill="#86A0AF"/>
<path d="M32.8105 76.8623H36.5864V79.3795H32.8105V76.8623Z" fill="#86A0AF"/>
<path d="M39.1016 76.8623H44.136V79.3795H39.1016V76.8623Z" fill="#86A0AF"/>
<path d="M32.8105 80.6367H36.5864V83.154H32.8105V80.6367Z" fill="#86A0AF"/>
<path d="M39.1016 80.6367H42.8774V83.154H39.1016V80.6367Z" fill="#86A0AF"/>
<path d="M37.8438 85.6719H42.8782V88.1891H37.8438V85.6719Z" fill="#86A0AF"/>
<path d="M74.3448 75.6025H51.6896C48.214 75.6025 45.3965 78.4201 45.3965 81.8956V90.706C45.3965 94.1816 48.214 96.9991 51.6896 96.9991H74.3448C77.8203 96.9991 80.6379 94.1816 80.6379 90.706V81.8956C80.6379 78.4201 77.8203 75.6025 74.3448 75.6025Z" fill="#FF003D"/>
<path d="M51.6891 84.4134C53.0794 84.4134 54.2064 83.2864 54.2064 81.8961C54.2064 80.5059 53.0794 79.3789 51.6891 79.3789C50.2989 79.3789 49.1719 80.5059 49.1719 81.8961C49.1719 83.2864 50.2989 84.4134 51.6891 84.4134Z" fill="#FF8D8D"/>
<path d="M59.2419 84.4134C60.6321 84.4134 61.7591 83.2864 61.7591 81.8961C61.7591 80.5059 60.6321 79.3789 59.2419 79.3789C57.8516 79.3789 56.7246 80.5059 56.7246 81.8961C56.7246 83.2864 57.8516 84.4134 59.2419 84.4134Z" fill="#FF8D8D"/>
<path d="M66.7926 84.4134C68.1829 84.4134 69.3099 83.2864 69.3099 81.8961C69.3099 80.5059 68.1829 79.3789 66.7926 79.3789C65.4024 79.3789 64.2754 80.5059 64.2754 81.8961C64.2754 83.2864 65.4024 84.4134 66.7926 84.4134Z" fill="#FF8D8D"/>
<path d="M74.3454 84.4134C75.7356 84.4134 76.8626 83.2864 76.8626 81.8961C76.8626 80.5059 75.7356 79.3789 74.3454 79.3789C72.9551 79.3789 71.8281 80.5059 71.8281 81.8961C71.8281 83.2864 72.9551 84.4134 74.3454 84.4134Z" fill="#FF8D8D"/>
<path d="M51.6891 93.2249C53.0794 93.2249 54.2064 92.0979 54.2064 90.7077C54.2064 89.3174 53.0794 88.1904 51.6891 88.1904C50.2989 88.1904 49.1719 89.3174 49.1719 90.7077C49.1719 92.0979 50.2989 93.2249 51.6891 93.2249Z" fill="#FF8D8D"/>
<path d="M51.6882 90.7077H49.1719C49.1726 90.0403 49.4381 89.4005 49.91 88.9286C50.3819 88.4566 51.0217 88.1912 51.6891 88.1904L51.6882 90.7077Z" fill="#FFDCE4"/>
<path d="M51.6882 81.8961H49.1719C49.1726 81.2288 49.4381 80.5889 49.91 80.117C50.3819 79.6451 51.0217 79.3797 51.6891 79.3789L51.6882 81.8961Z" fill="#FFDCE4"/>
<path d="M59.2419 93.2249C60.6321 93.2249 61.7591 92.0979 61.7591 90.7077C61.7591 89.3174 60.6321 88.1904 59.2419 88.1904C57.8516 88.1904 56.7246 89.3174 56.7246 90.7077C56.7246 92.0979 57.8516 93.2249 59.2419 93.2249Z" fill="#FF8D8D"/>
<path d="M66.7926 93.2249C68.1829 93.2249 69.3099 92.0979 69.3099 90.7077C69.3099 89.3174 68.1829 88.1904 66.7926 88.1904C65.4024 88.1904 64.2754 89.3174 64.2754 90.7077C64.2754 92.0979 65.4024 93.2249 66.7926 93.2249Z" fill="#FF8D8D"/>
<path d="M74.3454 93.2249C75.7356 93.2249 76.8626 92.0979 76.8626 90.7077C76.8626 89.3174 75.7356 88.1904 74.3454 88.1904C72.9551 88.1904 71.8281 89.3174 71.8281 90.7077C71.8281 92.0979 72.9551 93.2249 74.3454 93.2249Z" fill="#FF8D8D"/>
<path d="M59.2409 90.7077H56.7246C56.7254 90.0403 56.9908 89.4005 57.4627 88.9286C57.9346 88.4566 58.5745 88.1912 59.2419 88.1904L59.2409 90.7077Z" fill="#FFDCE4"/>
<path d="M59.2409 81.8961H56.7246C56.7254 81.2288 56.9908 80.5889 57.4627 80.117C57.9346 79.6451 58.5745 79.3797 59.2419 79.3789L59.2409 81.8961Z" fill="#FFDCE4"/>
<path d="M66.7917 90.7077H64.2754C64.2762 90.0403 64.5416 89.4005 65.0135 88.9286C65.4854 88.4566 66.1253 88.1912 66.7926 88.1904L66.7917 90.7077Z" fill="#FFDCE4"/>
<path d="M66.7917 81.8961H64.2754C64.2762 81.2288 64.5416 80.5889 65.0135 80.117C65.4854 79.6451 66.1253 79.3797 66.7926 79.3789L66.7917 81.8961Z" fill="#FFDCE4"/>
<path d="M74.3444 90.7077H71.8281C71.8289 90.0403 72.0943 89.4005 72.5663 88.9286C73.0382 88.4566 73.678 88.1912 74.3454 88.1904L74.3444 90.7077Z" fill="#FFDCE4"/>
<path d="M74.3444 81.8961H71.8281C71.8289 81.2288 72.0943 80.5889 72.5663 80.117C73.0382 79.6451 73.678 79.3797 74.3454 79.3789L74.3444 81.8961Z" fill="#FFDCE4"/>
</svg>
