<svg width="120" height="120" viewBox="0 0 120 120" fill="none" xmlns="http://www.w3.org/2000/svg">
<circle cx="60" cy="60" r="60" fill="#FFCEDA"/>
<g clip-path="url(#clip0)">
<path d="M43.5 26C57.031 26 68 36.969 68 50.5C68 64.031 57.031 75 43.5 75C29.969 75 19 64.031 19 50.5C19 36.969 29.969 26 43.5 26Z" fill="#FF003D"/>
<path d="M67.9999 50.4999C67.9999 64.0309 57.0309 74.9999 43.4999 74.9999C36.1964 74.9999 29.6394 71.8043 25.1523 66.7354C29.4757 70.5635 35.1604 72.8878 41.3878 72.8878C54.9188 72.8878 65.8878 61.9188 65.8878 48.3878C65.8878 42.1604 63.5635 36.4757 59.7354 32.1523C64.8043 36.6394 67.9999 43.1964 67.9999 50.4999Z" fill="#E84857"/>
<path d="M63.8931 36.9183C60.0058 34.3237 55.335 32.8114 50.3114 32.8114C30.6447 32.8114 19.169 54.7888 29.9183 70.8931C23.3361 66.501 19 59.0074 19 50.5C19 36.969 29.969 26 43.5 26C52.0074 26 59.501 30.3361 63.8931 36.9183Z" fill="#FF8D8D"/>
<path d="M43.5003 68.3468C53.3569 68.3468 61.3473 60.3564 61.3473 50.4998C61.3473 40.6432 53.3569 32.6528 43.5003 32.6528C33.6437 32.6528 25.6533 40.6432 25.6533 50.4998C25.6533 60.3564 33.6437 68.3468 43.5003 68.3468Z" fill="#F1FAFC"/>
<path d="M42.3053 51.6946L34.0154 43.4047C33.3555 42.7449 33.3555 41.675 34.0154 41.0152C34.6753 40.3553 35.7451 40.3553 36.4049 41.0152L41.8104 46.4207V43.1076C41.8104 42.1745 42.5668 41.418 43.5 41.418C44.4332 41.418 45.1897 42.1745 45.1897 43.1076V50.4999C45.1897 52.0021 43.3667 52.7565 42.3053 51.6946Z" fill="#4D4E59"/>
<path d="M30.6167 50.5002C30.6167 51.4337 29.8606 52.1899 28.9271 52.1899H25.7326C25.6298 51.107 25.624 49.9547 25.7326 48.8105H28.9271C29.8606 48.8105 30.6167 49.5667 30.6167 50.5002Z" fill="#7A96A8"/>
<path d="M45.1908 65.0732V68.2677C44.108 68.3705 42.9556 68.3763 41.8115 68.2677V65.0732C41.8115 64.1397 42.5676 63.3835 43.5012 63.3835C44.4347 63.3835 45.1908 64.1397 45.1908 65.0732Z" fill="#7A96A8"/>
<path d="M61.2689 52.1899H58.0744C57.1409 52.1899 56.3848 51.4337 56.3848 50.5002C56.3848 49.5667 57.1409 48.8105 58.0744 48.8105H61.2689C61.3717 49.8934 61.3775 51.0458 61.2689 52.1899Z" fill="#7A96A8"/>
<path d="M45.1908 32.7323V35.9268C45.1908 36.8604 44.4347 37.6165 43.5012 37.6165C42.5676 37.6165 41.8115 36.8604 41.8115 35.9268V32.7323C42.8944 32.6296 44.0467 32.6238 45.1908 32.7323Z" fill="#7A96A8"/>
<path d="M47.1122 33.0185C36.14 34.4494 27.4499 43.1395 26.0189 54.1117C23.4454 41.5956 34.4992 30.4251 47.1122 33.0185Z" fill="#C9EDF2"/>
</g>
<g clip-path="url(#clip1)">
<path d="M91.8506 74.4198C91.8515 74.0196 91.7409 73.6277 91.5308 73.287L89.4935 70.0073C89.2396 69.503 89.108 68.9457 89.1098 68.3812V58.277C89.1098 51.7176 83.7928 46.4006 77.2334 46.4006H71.7519C65.1925 46.4006 59.8755 51.7176 59.8755 58.277V68.3812C59.8774 68.9457 59.7458 69.5031 59.4918 70.0073L57.4545 73.287C57.2444 73.6277 57.1338 74.0196 57.1348 74.4198C57.1393 75.5938 58.0895 76.5438 59.2634 76.5484H89.7218C90.8959 76.5438 91.846 75.5937 91.8506 74.4198Z" fill="#4FBA6F"/>
<path d="M77.2338 46.4008L81.8016 40.0059H67.1846L71.7524 46.4008V48.228H77.2338V46.4008Z" fill="#4FBA6F"/>
<path d="M79.0618 60.105V59.5203C79.0573 57.8274 77.6851 56.4553 75.9922 56.4507H75.4075V54.6235H73.5804V56.4507H72.9957C71.3001 56.4452 69.9215 57.8146 69.916 59.5102C69.9115 60.7974 70.7108 61.9503 71.9177 62.3979L73.5804 63.0191V66.4998H72.9957C72.3096 66.4998 71.7532 65.9434 71.7532 65.2573V64.6727H69.9261V65.2573C69.9306 66.9502 71.3028 68.3223 72.9957 68.327H75.9923C77.6878 68.3325 79.0665 66.9631 79.0719 65.2675C79.0765 63.9803 78.2772 62.8273 77.0703 62.3797L75.4076 61.7585V58.2778H75.9923C76.6784 58.2778 77.2348 58.8342 77.2348 59.5203V60.105H79.0618ZM76.4308 64.0881C76.9131 64.2754 77.232 64.7396 77.2347 65.2576C77.2347 65.9437 76.6783 66.5001 75.9922 66.5001H75.4075V63.7045L76.4308 64.0881ZM73.5805 61.0734L72.5572 60.6896C72.0748 60.5024 71.756 60.0382 71.7533 59.5202C71.7533 58.8341 72.3097 58.2777 72.9958 58.2777H73.5805V61.0734Z" fill="white"/>
<path d="M92.7637 49.1418C92.453 47.2672 90.984 45.7982 89.1094 45.4875C90.984 45.1769 92.453 43.7079 92.7637 41.8333C93.0743 43.7079 94.5433 45.1769 96.418 45.4875C94.5433 45.7982 93.0743 47.2673 92.7637 49.1418Z" fill="#FFCD00"/>
<path d="M51.6543 67.4132C51.3436 65.5387 49.8747 64.0696 48 63.759C49.8747 63.4484 51.3436 61.9794 51.6543 60.1047C51.9649 61.9794 53.4339 63.4484 55.3086 63.759C53.4339 64.0696 51.9648 65.5387 51.6543 67.4132Z" fill="#FFCD00"/>
<path d="M100.595 71.8807C99.8446 70.6182 98.2331 70.1715 96.9404 70.8667L83.9769 76.4029C83.7485 76.4997 83.5028 76.55 83.2552 76.5491H67.1854C66.176 76.5491 65.3583 75.7314 65.3583 74.7219C65.3583 73.7124 66.176 72.8948 67.1854 72.8948H74.494C77.5216 72.8948 79.9755 70.4409 79.9755 67.4133H64.7736C62.254 67.4152 59.8715 68.5617 58.2965 70.5286L52.5684 77.4626L59.0182 89.2841L83.8399 83.3186C84.9124 83.0709 85.9503 82.6909 86.9278 82.1857L99.7177 75.6353C100.99 74.8361 101.381 73.1615 100.595 71.8807Z" fill="#FFEED6"/>
<path d="M56.9619 85.5204L59.0174 89.2843L83.8391 83.3187C84.9116 83.0711 85.9495 82.6911 86.927 82.1859L93.8427 78.6321C82.35 82.1493 67.0934 84.3419 56.9619 85.5204Z" fill="#FFEED6"/>
<path d="M48 76.549V92.9932H59.8764L62.6171 90.2526L51.6543 73.8083L48 76.549Z" fill="#E00000"/>
<path d="M48 92.994H59.8764L62.6171 90.2533L60.6072 87.2385C56.5437 88.9158 52.3194 90.1738 48 90.9933V92.994Z" fill="#FF0000"/>
<path d="M56.2217 90.2551C57.2308 90.2551 58.0488 89.4371 58.0488 88.428C58.0488 87.4189 57.2308 86.6008 56.2217 86.6008C55.2126 86.6008 54.3945 87.4189 54.3945 88.428C54.3945 89.4371 55.2126 90.2551 56.2217 90.2551Z" fill="#D9D9D9"/>
</g>
<defs>
<clipPath id="clip0">
<rect x="19" y="26" width="49" height="49" fill="white"/>
</clipPath>
<clipPath id="clip1">
<rect x="48" y="40" width="53" height="53" fill="white"/>
</clipPath>
</defs>
</svg>
