<svg width="120" height="120" viewBox="0 0 120 120" fill="none" xmlns="http://www.w3.org/2000/svg">
<circle cx="60" cy="60" r="60" fill="#FFCEDA"/>
<g clip-path="url(#clip0)">
<path d="M89.3541 38.5347H88.2249C87.6002 38.5347 87.0957 39.0397 87.0957 39.6639C87.0957 40.2886 87.6002 40.7931 88.2249 40.7931H89.3541C89.9772 40.7931 90.4833 41.2993 90.4833 41.9223V55.4729C90.4833 56.0976 90.9878 56.6021 91.6125 56.6021C92.2367 56.6021 92.7418 56.0976 92.7418 55.4729V41.9223C92.7418 40.0548 91.2216 38.5347 89.3541 38.5347Z" fill="#545C66"/>
<path d="M89 38.4054C89 36.5281 87.4294 35 85.5 35C83.57 35 82 36.5281 82 38.4054V77H89V38.4054Z" fill="#FF0000"/>
<path d="M33.0231 88.225L74.8151 88.2361V91.6237H71.4164L29.6465 91.6127V28.3877H33.0231V88.225Z" fill="#CCD1D9"/>
<path d="M79.1913 31.7643H72.416V25L79.1913 31.7643Z" fill="#F5F7FA"/>
<path d="M79.191 31.7643V88.236H75.8144L34.0225 88.225V25H72.4157V31.7643H79.191Z" fill="#F6F3F3"/>
<path d="M85.5 84C85.2234 84 85 83.5532 85 83V82C85 81.4473 85.2234 81 85.5 81C85.7764 81 86 81.4473 86 82V83C86 83.5532 85.7764 84 85.5 84Z" fill="#FF003D"/>
<path d="M82 49H89V53H82V49Z" fill="#D60000"/>
<path d="M71.2866 54.3507H41.9271C41.3024 54.3507 40.7979 53.8457 40.7979 53.2215C40.7979 52.5968 41.3024 52.0923 41.9271 52.0923H71.2866C71.9108 52.0923 72.4159 52.5968 72.4159 53.2215C72.4159 53.8457 71.9108 54.3507 71.2866 54.3507Z" fill="#CCD1D9"/>
<path d="M71.2866 59.9967H41.9271C41.3024 59.9967 40.7979 59.4917 40.7979 58.8675C40.7979 58.2428 41.3024 57.7383 41.9271 57.7383H71.2866C71.9108 57.7383 72.4159 58.2428 72.4159 58.8675C72.4159 59.4917 71.9108 59.9967 71.2866 59.9967Z" fill="#CCD1D9"/>
<path d="M71.2866 65.714H41.9271C41.3024 65.714 40.7979 65.2089 40.7979 64.5848C40.7979 63.9601 41.3024 63.4556 41.9271 63.4556H71.2866C71.9108 63.4556 72.4159 63.9601 72.4159 64.5848C72.4159 65.2089 71.9108 65.714 71.2866 65.714Z" fill="#CCD1D9"/>
<path d="M56.6068 71.36H41.9271C41.3024 71.36 40.7979 70.8549 40.7979 70.2308C40.7979 69.6061 41.3024 69.1016 41.9271 69.1016H56.6068C57.231 69.1016 57.7361 69.6061 57.7361 70.2308C57.7361 70.8549 57.231 71.36 56.6068 71.36Z" fill="#CCD1D9"/>
<path d="M71.2866 81.5231H63.3821C62.7574 81.5231 62.2529 81.018 62.2529 80.3939C62.2529 79.7692 62.7574 79.2646 63.3821 79.2646H71.2866C71.9108 79.2646 72.4159 79.7692 72.4159 80.3939C72.4159 81.018 71.9108 81.5231 71.2866 81.5231Z" fill="#CCD1D9"/>
<path d="M65.6409 83.7103C65.0162 83.7103 64.5117 83.2053 64.5117 82.5811V78.0643C64.5117 77.4396 65.0162 76.9351 65.6409 76.9351C66.2651 76.9351 66.7701 77.4396 66.7701 78.0643V82.5811C66.7701 83.2053 66.2651 83.7103 65.6409 83.7103Z" fill="#FF0000"/>
<path d="M65.6395 83.7102C65.4035 83.7102 65.1664 83.6364 64.963 83.4842C64.464 83.1103 64.362 82.4024 64.7369 81.9045L68.1245 77.3876C68.4984 76.8875 69.2063 76.7877 69.7048 77.1616C70.2038 77.5354 70.3052 78.2434 69.9303 78.7413L66.5427 83.2581C66.3227 83.5542 65.9836 83.7102 65.6395 83.7102Z" fill="#FF0000"/>
<path d="M69.0286 83.7103C68.4039 83.7103 67.8994 83.2053 67.8994 82.5811V78.0643C67.8994 77.4396 68.4039 76.9351 69.0286 76.9351C69.6528 76.9351 70.1578 77.4396 70.1578 78.0643V82.5811C70.1578 83.2053 69.6528 83.7103 69.0286 83.7103Z" fill="#FF0000"/>
<path d="M46.4437 46.4688C45.819 46.4688 45.3145 45.9638 45.3145 45.3396V35.1778C45.3145 34.5531 45.819 34.0486 46.4437 34.0486C47.0678 34.0486 47.5729 34.5531 47.5729 35.1778V45.3396C47.5729 45.9627 47.0678 46.4688 46.4437 46.4688Z" fill="#545C66"/>
<path d="M50.9608 37.4364H41.9271C41.3024 37.4364 40.7979 36.9314 40.7979 36.3072C40.7979 35.6825 41.3024 35.178 41.9271 35.178H50.9608C51.5849 35.178 52.09 35.6825 52.09 36.3072C52.09 36.9314 51.5849 37.4364 50.9608 37.4364Z" fill="#656D78"/>
<path d="M52.0898 40.8239H49.8314C49.2067 40.8239 48.7021 40.3188 48.7021 39.6946C48.7021 39.0699 49.2067 38.5654 49.8314 38.5654H52.0898C52.7139 38.5654 53.219 39.0699 53.219 39.6946C53.219 40.3188 52.7139 40.8239 52.0898 40.8239Z" fill="#656D78"/>
<path d="M43.0556 40.8239H40.7972C40.1725 40.8239 39.668 40.3188 39.668 39.6946C39.668 39.0699 40.1725 38.5654 40.7972 38.5654H43.0556C43.6798 38.5654 44.1848 39.0699 44.1848 39.6946C44.1848 40.3188 43.6798 40.8239 43.0556 40.8239Z" fill="#656D78"/>
<path d="M50.9608 46.4689H41.9271C41.3024 46.4689 40.7979 45.9638 40.7979 45.3397C40.7979 44.715 41.3024 44.2104 41.9271 44.2104H50.9608C51.5849 44.2104 52.09 44.715 52.09 45.3397C52.09 45.9638 51.5849 46.4689 50.9608 46.4689Z" fill="#656D78"/>
<path d="M82 77C82 77.0391 82.0171 77.0726 82.0211 77.1105C82.0279 77.1941 82.0444 77.2753 82.0678 77.3564C82.0911 77.4388 82.1191 77.5151 82.1561 77.5902C82.1737 77.6226 82.176 77.6616 82.196 77.694L84.5247 81.4366C84.5259 81.4379 84.5259 81.4391 84.527 81.4403L84.5293 81.444C84.6085 81.5728 84.7099 81.6716 84.821 81.7552C84.8335 81.7662 84.8398 81.7815 84.8523 81.79C84.8677 81.8004 84.8825 81.8041 84.8979 81.8138C84.9634 81.8553 85.0306 81.8889 85.1029 81.9164C85.1326 81.9292 85.1616 81.9426 85.1918 81.953C85.2887 81.9805 85.3878 81.9976 85.4869 81.9988C85.4915 81.9988 85.4954 82 85.4989 82H85.5011C85.5046 82 85.508 81.9988 85.5125 81.9988C85.6117 81.9976 85.7108 81.9805 85.8076 81.953C85.8384 81.9426 85.8674 81.928 85.8965 81.9164C85.9688 81.8901 86.0366 81.8553 86.1021 81.8138C86.1169 81.8041 86.1323 81.8004 86.1471 81.79C86.1614 81.7803 86.1671 81.765 86.179 81.7552C86.2896 81.6716 86.391 81.5728 86.4707 81.444L86.473 81.4403C86.4741 81.4391 86.4741 81.4379 86.4753 81.4366L88.804 77.694C88.8251 77.6616 88.8274 77.6238 88.8433 77.5902C88.8809 77.5151 88.91 77.4401 88.9322 77.3564C88.9567 77.274 88.9721 77.1941 88.9789 77.1105C88.9823 77.0726 89 77.0391 89 77H82Z" fill="white"/>
</g>
<defs>
<clipPath id="clip0">
<rect x="25" y="25" width="70" height="70" fill="white"/>
</clipPath>
</defs>
</svg>
