<svg width="120" height="120" viewBox="0 0 120 120" fill="none" xmlns="http://www.w3.org/2000/svg">
<circle cx="60" cy="60" r="60" fill="#FFCEDA"/>
<path d="M75.4375 76.5H44.5C43.3609 76.5 42.4375 75.5766 42.4375 74.4375V39.375H63.0625H73.375C74.5141 39.375 75.4375 40.2984 75.4375 41.4375V76.5Z" fill="#463C4B"/>
<path d="M48.625 72.375H44.5C43.3609 72.375 42.4375 73.2984 42.4375 74.4375V68.25H48.625C49.7641 68.25 50.6875 69.1734 50.6875 70.3125C50.6875 71.4516 49.7641 72.375 48.625 72.375Z" fill="#32283C"/>
<path d="M48.625 68.25H34.1875V31.125H48.625C49.7641 31.125 50.6875 32.0484 50.6875 33.1875V70.3125C50.6875 69.1734 49.7641 68.25 48.625 68.25Z" fill="#463C4B"/>
<path d="M50.6875 57.9375H58.9375V67.2188H50.6875V57.9375Z" fill="#E6E6EB"/>
<path d="M50.6875 39.375H58.9375V48.6562H50.6875V39.375Z" fill="#E6E6EB"/>
<path d="M50.6875 39.375H52.75V48.6562H50.6875V39.375Z" fill="#A5C3DC"/>
<path d="M50.6875 48.6562H52.75V57.9375H50.6875V48.6562Z" fill="#32283C"/>
<path d="M50.6875 57.9375H52.75V67.2188H50.6875V57.9375Z" fill="#A5C3DC"/>
<path d="M50.6875 67.2188H52.75V76.5H50.6875V67.2188Z" fill="#32283C"/>
<path d="M75.4375 48.6562H67.1875V39.375H73.375C74.5141 39.375 75.4375 40.2984 75.4375 41.4375V48.6562Z" fill="#E6E6EB"/>
<path d="M58.9375 48.6562H67.1875V57.9375H58.9375V48.6562Z" fill="#E6E6EB"/>
<path d="M74.3125 89.9062C83.4252 89.9062 90.8125 82.5189 90.8125 73.4062C90.8125 64.2936 83.4252 56.9062 74.3125 56.9062C65.1998 56.9062 57.8125 64.2936 57.8125 73.4062C57.8125 82.5189 65.1998 89.9062 74.3125 89.9062Z" fill="#FF4646"/>
<path d="M74.3125 85.7812C81.147 85.7812 86.6875 80.2408 86.6875 73.4062C86.6875 66.5717 81.147 61.0312 74.3125 61.0312C67.478 61.0312 61.9375 66.5717 61.9375 73.4062C61.9375 80.2408 67.478 85.7812 74.3125 85.7812Z" fill="#E6E6EB"/>
<path d="M74.3125 74.4375C73.743 74.4375 73.2812 73.9758 73.2812 73.4062V64.125C73.2812 63.5555 73.743 63.0938 74.3125 63.0938C74.882 63.0938 75.3438 63.5555 75.3438 64.125V73.4062C75.3438 73.9758 74.882 74.4375 74.3125 74.4375Z" fill="#FF4646"/>
<path d="M74.3125 76.5C76.0211 76.5 77.4062 75.1149 77.4062 73.4062C77.4062 71.6976 76.0211 70.3125 74.3125 70.3125C72.6039 70.3125 71.2188 71.6976 71.2188 73.4062C71.2188 75.1149 72.6039 76.5 74.3125 76.5Z" fill="#463C4B"/>
<path d="M74.3125 74.7813C75.072 74.7813 75.6876 74.1657 75.6876 73.4063C75.6876 72.6469 75.072 72.0312 74.3125 72.0312C73.5531 72.0312 72.9375 72.6469 72.9375 73.4063C72.9375 74.1657 73.5531 74.7813 74.3125 74.7813Z" fill="#FF4646"/>
<path d="M83.5938 74.4375H82.5625C81.993 74.4375 81.5312 73.9758 81.5312 73.4062C81.5312 72.8367 81.993 72.375 82.5625 72.375H83.5938C84.1633 72.375 84.625 72.8367 84.625 73.4062C84.625 73.9758 84.1633 74.4375 83.5938 74.4375Z" fill="#463C4B"/>
<path d="M73.2812 82.6875V81.6562C73.2812 81.0867 73.743 80.625 74.3125 80.625C74.882 80.625 75.3438 81.0867 75.3438 81.6562V82.6875C75.3438 83.257 74.882 83.7188 74.3125 83.7188C73.743 83.7188 73.2812 83.257 73.2812 82.6875Z" fill="#463C4B"/>
<path d="M65.0312 72.375H66.0625C66.632 72.375 67.0938 72.8367 67.0938 73.4062C67.0938 73.9758 66.632 74.4375 66.0625 74.4375H65.0312C64.4617 74.4375 64 73.9758 64 73.4062C64 72.8367 64.4617 72.375 65.0312 72.375Z" fill="#463C4B"/>
<path d="M31.0938 89.9062H33.1562C33.7258 89.9062 34.1875 89.4445 34.1875 88.875V31.125C34.1875 30.5555 33.7258 30.0938 33.1562 30.0938H31.0938C30.5242 30.0938 30.0625 30.5555 30.0625 31.125V88.875C30.0625 89.4445 30.5242 89.9062 31.0938 89.9062Z" fill="#FF4646"/>
<path d="M34.1875 40.4062H42.4375V49.6875H34.1875V40.4062Z" fill="#E6E6EB"/>
<path d="M48.625 40.4062H42.4375V31.125H48.625C49.7641 31.125 50.6875 32.0484 50.6875 33.1875V42.4688C50.6875 41.3296 49.7641 40.4062 48.625 40.4062Z" fill="#E6E6EB"/>
<path d="M48.625 58.9688H42.4375V49.6875H48.625C49.7641 49.6875 50.6875 50.6109 50.6875 51.75V61.0312C50.6875 59.8921 49.7641 58.9688 48.625 58.9688Z" fill="#E6E6EB"/>
<path d="M34.1875 58.9688H42.4375V68.25H34.1875V58.9688Z" fill="#E6E6EB"/>
<path d="M48.625 72.375H44.5C43.3609 72.375 42.4375 73.2984 42.4375 74.4375C42.4375 75.5766 43.3609 76.5 44.5 76.5H50.6875V70.3125C50.6875 71.4516 49.7641 72.375 48.625 72.375Z" fill="#A5C3DC"/>
<path d="M32.125 89.9062H33.1562C33.7258 89.9062 34.1875 89.4445 34.1875 88.875V31.125H33.1562C32.5867 31.125 32.125 31.5867 32.125 32.1562V89.9062Z" fill="#CD3232"/>
</svg>
