<svg width="120" height="120" viewBox="0 0 120 120" fill="none" xmlns="http://www.w3.org/2000/svg">
<circle cx="60" cy="60" r="60" fill="#FFCEDA"/>
<path d="M65.125 52.3125L48.4688 59.4508V84.3438H42.0625V97.1562H93.3125V56.3164L85.625 52.3125H65.125Z" fill="#B1E4F9"/>
<path d="M60.0657 50.1558L58.7845 46.312C58.6832 46.0081 58.6994 45.6771 58.8301 45.3846C58.9607 45.092 59.1962 44.8589 59.4902 44.7314L67.3366 41.3281L68.3563 43.679L61.5868 46.6152L62.4969 49.3455L60.0657 50.1558Z" fill="#86A0AF"/>
<path d="M63.8438 30.5312L61.2812 40.7812L65.125 42.0625L66.4062 48.4688H68.9688L75.375 56.1562L81.7812 48.4688V30.5312H63.8438Z" fill="#FFEED6"/>
<path d="M81.7812 43.3438L74.0938 40.7812L71.5312 30.5312H63.8438C62.8243 30.5312 61.8467 30.1263 61.1258 29.4054C60.405 28.6846 60 27.7069 60 26.6875V25.4062H81.7812V43.3438Z" fill="#B27D4D"/>
<path d="M70.4862 38.0189L68.9688 22.8438H77.9375L76.42 38.0189H70.4862Z" fill="#86A0AF"/>
<path d="M73.4531 43.3438C75.9298 43.3438 77.9375 41.336 77.9375 38.8594C77.9375 36.3827 75.9298 34.375 73.4531 34.375C70.9765 34.375 68.9688 36.3827 68.9688 38.8594C68.9688 41.336 70.9765 43.3438 73.4531 43.3438Z" fill="#86A0AF"/>
<path d="M73.4531 44.625C72.3128 44.625 71.1981 44.2868 70.2499 43.6533C69.3018 43.0198 68.5628 42.1193 68.1264 41.0658C67.69 40.0122 67.5758 38.853 67.7983 37.7346C68.0208 36.6161 68.5699 35.5888 69.3762 34.7825C70.1826 33.9761 71.2099 33.427 72.3283 33.2045C73.4467 32.9821 74.606 33.0962 75.6595 33.5326C76.7131 33.969 77.6135 34.708 78.2471 35.6562C78.8806 36.6043 79.2188 37.719 79.2188 38.8594C79.217 40.388 78.609 41.8535 77.5281 42.9344C76.4472 44.0153 74.9817 44.6233 73.4531 44.625ZM73.4531 35.6563C72.8196 35.6563 72.2003 35.8441 71.6736 36.1961C71.1468 36.548 70.7363 37.0483 70.4938 37.6336C70.2514 38.2189 70.188 38.8629 70.3116 39.4843C70.4351 40.1056 70.7402 40.6764 71.1882 41.1243C71.6361 41.5723 72.2069 41.8774 72.8282 42.0009C73.4496 42.1245 74.0936 42.0611 74.6789 41.8187C75.2642 41.5762 75.7645 41.1657 76.1164 40.6389C76.4684 40.1122 76.6563 39.4929 76.6563 38.8594C76.6553 38.0101 76.3175 37.196 75.717 36.5955C75.1165 35.995 74.3024 35.6572 73.4531 35.6563Z" fill="#D0E2E7"/>
<path d="M57.4375 53.5938H25.4062C23.991 53.5938 22.8438 54.741 22.8438 56.1562V79.2188C22.8438 80.634 23.991 81.7812 25.4062 81.7812H57.4375C58.8527 81.7812 60 80.634 60 79.2188V56.1562C60 54.741 58.8527 53.5938 57.4375 53.5938Z" fill="#ABB7C1"/>
<path d="M22.8438 89.4688H43.3438V97.1562H22.8438V89.4688Z" fill="#C9D9E5"/>
<path d="M43.3438 89.4688L53.5938 92.0312V97.1562H43.3438V89.4688Z" fill="#ABB7C1"/>
<path d="M67.6875 92.0312H81.7812V97.1562H67.6875V92.0312Z" fill="#ABB7C1"/>
<path d="M53.5938 92.0312H67.6875V97.1562H53.5938V92.0312Z" fill="#808898"/>
<path d="M52.3125 53.5938H25.4062C23.991 53.5938 22.8438 54.741 22.8438 56.1562V79.2188C22.8438 80.634 23.991 81.7812 25.4062 81.7812H52.3125C53.7277 81.7812 54.875 80.634 54.875 79.2188V56.1562C54.875 54.741 53.7277 53.5938 52.3125 53.5938Z" fill="#C9D9E5"/>
<path d="M30.5312 76.6562H38.2188V89.4688H30.5312V76.6562Z" fill="#ABB7C1"/>
<path d="M93.3125 97.1562V75.375L81.7812 79.2188V97.1562H93.3125Z" fill="#48AFCC"/>
<path d="M89.4688 92.0312L96.7943 66.392C97.0344 65.5514 97.1562 64.6815 97.1562 63.8073C97.1562 61.927 96.5928 60.0897 95.5386 58.5327C94.4845 56.9756 92.9879 55.7702 91.242 55.0718L85.625 52.3125L83.0625 49.75V75.375L77.9375 84.3438H71.5312V92.0312H89.4688Z" fill="#B1E4F9"/>
<path d="M68.9688 48.4688L75.375 56.1562L71.5312 60L65.125 52.3125L68.9688 48.4688Z" fill="#48AFCC"/>
<path d="M81.7812 48.4688L75.375 56.1562L79.2188 60L85.625 52.3125L81.7812 48.4688Z" fill="#48AFCC"/>
<path d="M38.2188 72.8125C42.4644 72.8125 45.9062 69.3707 45.9062 65.125C45.9062 60.8793 42.4644 57.4375 38.2188 57.4375C33.9731 57.4375 30.5312 60.8793 30.5312 65.125C30.5312 69.3707 33.9731 72.8125 38.2188 72.8125Z" fill="white"/>
<path d="M42.0625 63.8438H39.5V61.2812H36.9375V63.8438H34.375V66.4062H36.9375V68.9688H39.5V66.4062H42.0625V63.8438Z" fill="#FF0000"/>
<path d="M58.7188 92.0312H56.1562C56.1593 89.3136 57.2402 86.7083 59.1618 84.7867C61.0834 82.8651 63.6887 81.7842 66.4062 81.7812H76.4504L80.8375 74.1035L83.0625 75.3749L77.9375 84.3437H66.4062C64.3681 84.346 62.4141 85.1567 60.9729 86.5978C59.5317 88.039 58.7211 89.993 58.7188 92.0312Z" fill="#48AFCC"/>
<path d="M38.2187 74.0938C36.4449 74.0938 34.7109 73.5677 33.236 72.5822C31.7611 71.5967 30.6115 70.196 29.9327 68.5572C29.2539 66.9184 29.0763 65.1151 29.4223 63.3753C29.7684 61.6355 30.6226 60.0374 31.8769 58.7831C33.1312 57.5288 34.7293 56.6746 36.469 56.3286C38.2088 55.9825 40.0121 56.1601 41.6509 56.839C43.2898 57.5178 44.6905 58.6673 45.676 60.1422C46.6615 61.6171 47.1875 63.3512 47.1875 65.125C47.1848 67.5028 46.239 69.7825 44.5576 71.4639C42.8763 73.1453 40.5966 74.0911 38.2187 74.0938ZM38.2187 58.7188C36.9517 58.7188 35.7131 59.0945 34.6596 59.7984C33.6061 60.5023 32.785 61.5028 32.3001 62.6734C31.8153 63.844 31.6884 65.1321 31.9356 66.3748C32.1828 67.6175 32.7929 68.759 33.6888 69.6549C34.5848 70.5508 35.7263 71.161 36.969 71.4082C38.2116 71.6553 39.4997 71.5285 40.6703 71.0436C41.8409 70.5587 42.8414 69.7376 43.5453 68.6841C44.2493 67.6306 44.625 66.392 44.625 65.125C44.6231 63.4266 43.9475 61.7982 42.7465 60.5972C41.5455 59.3962 39.9172 58.7207 38.2187 58.7188Z" fill="#90D8F9"/>
</svg>
