<svg width="120" height="120" viewBox="0 0 120 120" fill="none" xmlns="http://www.w3.org/2000/svg">
<circle cx="60" cy="60" r="60" fill="#FFCEDA"/>
<g clip-path="url(#clip0)">
<path d="M96.8078 84H34.1033C33.6379 84 33.2599 83.6244 33.2569 83.159L33.1875 72.1232C33.1845 71.6537 33.5644 71.2716 34.0339 71.2716H35.2101C35.6775 71.2716 36.0565 70.8927 36.0565 70.4252V64.4372C36.0565 64.054 36.4146 63.7639 36.7865 63.8561C38.1024 64.1826 39.0775 65.3717 39.0775 66.7884C39.0775 65.3715 40.0528 64.1826 41.3685 63.8561C41.7404 63.7639 42.0985 64.054 42.0985 64.4372V70.4254C42.0985 70.8927 42.4774 71.2717 42.9449 71.2717H44.7606C45.228 71.2717 45.607 70.8929 45.607 70.4254V64.4372C45.607 64.054 45.9651 63.7639 46.337 63.8561C47.6529 64.1826 48.628 65.3717 48.628 66.7884C48.628 65.3715 49.6033 64.1826 50.919 63.8561C51.2909 63.7639 51.649 64.054 51.649 64.4372V70.4254C51.649 70.8927 52.0279 71.2717 52.4954 71.2717H53.8579H76.1308H77.4933C77.9606 71.2717 78.3396 70.8929 78.3396 70.4254V64.4372C78.3396 64.054 78.6978 63.7639 79.0696 63.8561C80.3855 64.1826 81.3606 65.3717 81.3606 66.7884C81.3606 65.3715 82.3359 64.1826 83.6516 63.8561C84.0235 63.7639 84.3816 64.054 84.3816 64.4372V70.4254C84.3816 70.8927 84.7605 71.2717 85.228 71.2717H87.0438C87.5111 71.2717 87.8901 70.8929 87.8901 70.4254V64.4372C87.8901 64.054 88.2483 63.7639 88.6201 63.8561C89.936 64.1826 90.9111 65.3717 90.9111 66.7884C90.9111 65.3715 91.8864 64.1826 93.2021 63.8561C93.574 63.7639 93.9321 64.054 93.9321 64.4372V70.4254C93.9321 70.8927 94.311 71.2717 94.7785 71.2717H96.8065" fill="#D14E67"/>
<path d="M60.9336 51.9539V39.9814H69.3331V51.9539" fill="#BA3649"/>
<path d="M60.9336 51.9539V39.9814H63.1565V51.9539" fill="#AA3047"/>
<path d="M68.4641 39.4382L65.1334 22.5693L61.8027 39.4382" fill="#4A8C41"/>
<path d="M65.0964 39.4382L65.1334 22.5693L61.8027 39.4382" fill="#376B2D"/>
<path d="M70.7122 51.9551H59.5547V63.8091H70.7122V51.9551Z" fill="#BA3649"/>
<path d="M62.0913 51.9551H59.5547V63.8091H62.0913V51.9551Z" fill="#AA3047"/>
<path d="M65.1343 61.666C62.8686 61.666 61.0254 59.8227 61.0254 57.5571C61.0254 55.2915 62.8686 53.4482 65.1343 53.4482C67.3998 53.4482 69.243 55.2915 69.243 57.5571C69.243 59.8227 67.3998 61.666 65.1343 61.666ZM65.1343 55.3975C63.9434 55.3975 62.9746 56.3662 62.9746 57.5571C62.9746 58.748 63.9434 59.7167 65.1343 59.7167C66.325 59.7167 67.2938 58.748 67.2938 57.5571C67.2938 56.3662 66.325 55.3975 65.1343 55.3975Z" fill="#D14E67"/>
<path d="M73.1566 63.8086H57.0469V84.0001H73.1566V63.8086Z" fill="#BA3649"/>
<path d="M59.5173 63.8086H57.0469V84.0001H59.5173V63.8086Z" fill="#AA3047"/>
<path d="M68.4021 83.9892V79.628C68.4021 78.4506 67.7644 77.3656 66.7358 76.7926L66.7351 76.7921C65.7529 76.245 64.5578 76.2451 63.5757 76.7925C62.5474 77.3656 61.9102 78.4503 61.9102 79.6275V83.9989" fill="#F2D6BD"/>
<path d="M63.6699 48.4789C63.1317 48.4789 62.6953 48.0425 62.6953 47.5043V42.2295C62.6953 41.6913 63.1317 41.2549 63.6699 41.2549C64.2082 41.2549 64.6446 41.6913 64.6446 42.2295V47.5043C64.6446 48.0425 64.2082 48.4789 63.6699 48.4789Z" fill="#59212C"/>
<path d="M66.5957 48.4789C66.0575 48.4789 65.6211 48.0425 65.6211 47.5043V42.2295C65.6211 41.6913 66.0575 41.2549 66.5957 41.2549C67.134 41.2549 67.5703 41.6913 67.5703 42.2295V47.5043C67.5703 48.0425 67.134 48.4789 66.5957 48.4789Z" fill="#59212C"/>
<path d="M59.9981 72.3488C59.4598 72.3488 59.0234 71.9124 59.0234 71.3742V67.4199C59.0234 66.8817 59.4598 66.4453 59.9981 66.4453C60.5363 66.4453 60.9727 66.8817 60.9727 67.4199V71.3742C60.9727 71.9124 60.5363 72.3488 59.9981 72.3488Z" fill="#59212C"/>
<path d="M63.2949 72.3488C62.7567 72.3488 62.3203 71.9124 62.3203 71.3742V67.4199C62.3203 66.8817 62.7567 66.4453 63.2949 66.4453C63.8332 66.4453 64.2696 66.8817 64.2696 67.4199V71.3742C64.2696 71.9124 63.8332 72.3488 63.2949 72.3488Z" fill="#59212C"/>
<path d="M66.5918 72.3488C66.0536 72.3488 65.6172 71.9124 65.6172 71.3742V67.4199C65.6172 66.8817 66.0536 66.4453 66.5918 66.4453C67.1301 66.4453 67.5664 66.8817 67.5664 67.4199V71.3742C67.5664 71.9124 67.1301 72.3488 66.5918 72.3488Z" fill="#59212C"/>
<path d="M69.8906 72.3488C69.3524 72.3488 68.916 71.9124 68.916 71.3742V67.4199C68.916 66.8817 69.3524 66.4453 69.8906 66.4453C70.4289 66.4453 70.8653 66.8817 70.8653 67.4199V71.3742C70.8653 71.9124 70.4289 72.3488 69.8906 72.3488Z" fill="#59212C"/>
<path d="M72.7175 72.3477H57.1719C56.6336 72.3477 56.1973 71.9113 56.1973 71.3731C56.1973 70.8348 56.6336 70.3984 57.1719 70.3984H72.7175C73.2558 70.3984 73.6922 70.8348 73.6922 71.3731C73.6922 71.9113 73.2558 72.3477 72.7175 72.3477Z" fill="#D14E67"/>
<path d="M66.0313 24.7084C65.7486 24.7084 65.469 24.5859 65.2769 24.3515L65.1343 24.1774L64.9914 24.3515C64.6641 24.7509 64.0824 24.8255 63.6648 24.5221C63.2473 24.2188 63.1386 23.6423 63.4173 23.2078L63.5388 23.0182L63.3291 22.9364C62.8484 22.7485 62.5974 22.2184 62.7569 21.7275C62.9165 21.2365 63.4315 20.9551 63.9305 21.0857L64.1483 21.1426L64.1614 20.918C64.1914 20.4025 64.618 20 65.1344 20C65.6506 20 66.0773 20.4026 66.1073 20.9179L66.1204 21.1425L66.3381 21.0856C66.8373 20.955 67.3523 21.2364 67.5118 21.7274C67.6714 22.2184 67.4203 22.7485 66.9395 22.9362L66.7299 23.0181L66.8514 23.2076C67.13 23.6421 67.0214 24.2186 66.6038 24.522C66.4311 24.6475 66.2305 24.7084 66.0313 24.7084Z" fill="#FF003D"/>
<path d="M62.8867 83.9995H60.9375V79.6283C60.9375 78.0989 61.7674 76.6865 63.1034 75.942C64.3894 75.2253 65.9251 75.225 67.2114 75.9415C67.2142 75.9433 67.2172 75.9448 67.2201 75.9464C68.552 76.6919 69.3787 78.102 69.3787 79.6286V83.9899H67.4294V79.6286C67.4294 78.8055 66.9826 78.0454 66.2636 77.6449C66.2612 77.6436 66.259 77.6423 66.2566 77.641C65.5656 77.259 64.7421 77.2601 64.0521 77.6446C63.3332 78.0453 62.8867 78.8054 62.8867 79.6283V83.9995Z" fill="#D14E67"/>
<path d="M71.6002 52.9297H58.668C58.1297 52.9297 57.6934 52.4934 57.6934 51.9551C57.6934 51.4169 58.1297 50.9805 58.668 50.9805H71.6002C72.1385 50.9805 72.5748 51.4169 72.5748 51.9551C72.5748 52.4934 72.1385 52.9297 71.6002 52.9297Z" fill="#D14E67"/>
<path d="M73.4266 64.7823H56.8418C56.3036 64.7823 55.8672 64.3459 55.8672 63.8076C55.8672 63.2694 56.3036 62.833 56.8418 62.833H73.4266C73.9648 62.833 74.4012 63.2694 74.4012 63.8076C74.4012 64.3459 73.9648 64.7823 73.4266 64.7823Z" fill="#D14E67"/>
<path d="M58.8371 63.8076C58.8371 63.2694 59.2734 62.833 59.8117 62.833H56.8418C56.3036 62.833 55.8672 63.2694 55.8672 63.8076C55.8672 64.3459 56.3036 64.7823 56.8418 64.7823H59.8117C59.2734 64.7823 58.8371 64.3459 58.8371 63.8076Z" fill="#BC425F"/>
<path d="M59.1671 71.375C59.1671 70.8368 59.6035 70.4004 60.1418 70.4004H57.1719C56.6336 70.4004 56.1973 70.8368 56.1973 71.375C56.1973 71.9133 56.6336 72.3496 57.1719 72.3496H60.1418C59.6035 72.3496 59.1671 71.9133 59.1671 71.375Z" fill="#BC425F"/>
<path d="M60.6632 51.9551C60.6632 51.4169 61.0996 50.9805 61.6379 50.9805H58.668C58.1297 50.9805 57.6934 51.4169 57.6934 51.9551C57.6934 52.4934 58.1297 52.9297 58.668 52.9297H61.6379C61.0995 52.9297 60.6632 52.4934 60.6632 51.9551Z" fill="#BC425F"/>
<path d="M66.17 76.3838H64.2207V84.0001H66.17V76.3838Z" fill="#D14E67"/>
<path d="M81.7364 78.7715H79.7871C79.2489 78.7715 78.8125 78.3351 78.8125 77.7969C78.8125 77.2586 79.2489 76.8223 79.7871 76.8223H81.7364C82.2746 76.8223 82.711 77.2586 82.711 77.7969C82.711 78.3351 82.2746 78.7715 81.7364 78.7715Z" fill="#BA3649"/>
<path d="M87.7129 80.7207H85.7637C85.2254 80.7207 84.7891 80.2844 84.7891 79.7461C84.7891 79.2079 85.2254 78.7715 85.7637 78.7715H87.7129C88.2512 78.7715 88.6876 79.2079 88.6876 79.7461C88.6876 80.2844 88.2512 80.7207 87.7129 80.7207Z" fill="#BA3649"/>
<path d="M41.0624 77.9922H39.1133C38.575 77.9922 38.1387 77.5558 38.1387 77.0176C38.1387 76.4793 38.575 76.043 39.1133 76.043H41.0625C41.6008 76.043 42.0372 76.4793 42.0372 77.0176C42.0372 77.5558 41.6007 77.9922 41.0624 77.9922Z" fill="#BA3649"/>
<path d="M47.9512 80.461H46.002C45.4637 80.461 45.0273 80.0246 45.0273 79.4863C45.0273 78.9481 45.4637 78.5117 46.002 78.5117H47.9512C48.4895 78.5117 48.9258 78.9481 48.9258 79.4863C48.9258 80.0246 48.4895 80.461 47.9512 80.461Z" fill="#BA3649"/>
<path d="M69.3332 48.8555H60.9336C60.3954 48.8555 59.959 48.4191 59.959 47.8809C59.959 47.3426 60.3954 46.9062 60.9336 46.9062H69.3332C69.8715 46.9062 70.3079 47.3426 70.3079 47.8809C70.3079 48.4191 69.8716 48.8555 69.3332 48.8555Z" fill="#D14E67"/>
<path d="M69.3332 40.7891H60.9336C60.3954 40.7891 59.959 40.3527 59.959 39.8145C59.959 39.2762 60.3954 38.8398 60.9336 38.8398H69.3332C69.8715 38.8398 70.3079 39.2762 70.3079 39.8145C70.3079 40.3527 69.8716 40.7891 69.3332 40.7891Z" fill="#D14E67"/>
<path d="M65.1344 60.6906C66.8654 60.6906 68.2687 59.2873 68.2687 57.5563C68.2687 55.8252 66.8654 54.4219 65.1344 54.4219C63.4033 54.4219 62 55.8252 62 57.5563C62 59.2873 63.4033 60.6906 65.1344 60.6906Z" fill="#FFCD00"/>
<path d="M66.9682 58.1418H65.1336C64.8107 58.1418 64.5488 57.8799 64.5488 57.5571V55.7224C64.5488 55.3996 64.8107 55.1377 65.1336 55.1377C65.4564 55.1377 65.7183 55.3996 65.7183 55.7224V56.9723H66.9682C67.2911 56.9723 67.5529 57.2342 67.5529 57.5571C67.5529 57.8799 67.2911 58.1418 66.9682 58.1418Z" fill="#59212C"/>
<path d="M62.9289 47.8809C62.9289 47.3426 63.3652 46.9062 63.9035 46.9062H60.9336C60.3954 46.9062 59.959 47.3426 59.959 47.8809C59.959 48.4191 60.3954 48.8555 60.9336 48.8555H63.9035C63.3651 48.8555 62.9289 48.4191 62.9289 47.8809Z" fill="#BC425F"/>
<path d="M62.9289 39.8145C62.9289 39.2762 63.3652 38.8398 63.9035 38.8398H60.9336C60.3954 38.8398 59.959 39.2762 59.959 39.8145C59.959 40.3527 60.3954 40.7891 60.9336 40.7891H63.9035C63.3651 40.7891 62.9289 40.3527 62.9289 39.8145Z" fill="#BC425F"/>
</g>
<path d="M69.7094 95.9998H24.9386C24.4202 95.9998 24 95.5845 24 95.0724V93.002H70.648V95.0724C70.648 95.5845 70.2278 95.9998 69.7094 95.9998Z" fill="#7A96A8"/>
<path d="M64.6744 80.7522L62.0825 68.6302C61.9908 68.2013 61.6078 67.8945 61.1642 67.8945H24.9386C24.4202 67.8945 24 68.3097 24 68.8219V93.001H70.648V84.5891C70.648 84.2336 70.4422 83.9092 70.1182 83.7544L65.1839 81.3954C64.9226 81.2704 64.7345 81.0329 64.6744 80.7522Z" fill="white"/>
<path d="M54.1504 80.2711V71.821C54.1504 71.3087 54.5706 70.8936 55.089 70.8936H58.6159C59.0542 70.8936 59.4341 71.1931 59.5312 71.6154L61.475 80.0656C61.6084 80.6459 61.162 81.1985 60.5597 81.1985H55.0891C54.5706 81.1985 54.1504 80.7833 54.1504 80.2711Z" fill="#B1E4F9"/>
<path d="M58.6167 70.8936H57.5645L59.9348 81.1984H60.5604C61.1627 81.1984 61.6092 80.6459 61.4757 80.0655L59.532 71.6153C59.4348 71.1931 59.0549 70.8936 58.6167 70.8936Z" fill="#90D8F9"/>
<path d="M45.4277 80.2711V71.821C45.4277 71.3087 45.8479 70.8936 46.3663 70.8936H50.1779C50.6963 70.8936 51.1165 71.3087 51.1165 71.821V80.2711C51.1165 80.7833 50.6963 81.1985 50.1779 81.1985H46.3663C45.8479 81.1985 45.4277 80.7833 45.4277 80.2711Z" fill="#B1E4F9"/>
<path d="M61.265 100.121C64.4068 100.121 66.9537 97.6041 66.9537 94.4998C66.9537 91.3955 64.4068 88.8789 61.265 88.8789C58.1231 88.8789 55.5762 91.3955 55.5762 94.4998C55.5762 97.6041 58.1231 100.121 61.265 100.121Z" fill="#44697E"/>
<path d="M61.2642 96.0914C62.1543 96.0914 62.876 95.3784 62.876 94.4988C62.876 93.6193 62.1543 92.9062 61.2642 92.9062C60.374 92.9062 59.6523 93.6193 59.6523 94.4988C59.6523 95.3784 60.374 96.0914 61.2642 96.0914Z" fill="#D0E2E7"/>
<path d="M33.388 100.121C36.5298 100.121 39.0768 97.6041 39.0768 94.4998C39.0768 91.3955 36.5298 88.8789 33.388 88.8789C30.2462 88.8789 27.6992 91.3955 27.6992 94.4998C27.6992 97.6041 30.2462 100.121 33.388 100.121Z" fill="#44697E"/>
<path d="M33.3833 96.0914C34.2735 96.0914 34.9951 95.3784 34.9951 94.4988C34.9951 93.6193 34.2735 92.9062 33.3833 92.9062C32.4931 92.9062 31.7715 93.6193 31.7715 94.4988C31.7715 95.3784 32.4931 96.0914 33.3833 96.0914Z" fill="#D0E2E7"/>
<path d="M40.4095 75.6713H36.7004C36.3893 75.6713 36.1372 75.4222 36.1372 75.1149V71.45C36.1372 71.1426 35.8851 70.8936 35.5741 70.8936H33.4767C33.1657 70.8936 32.9136 71.1426 32.9136 71.45V75.1149C32.9136 75.4222 32.6615 75.6713 32.3504 75.6713H28.6413C28.3302 75.6713 28.0781 75.9204 28.0781 76.2277V78.3C28.0781 78.6073 28.3302 78.8564 28.6413 78.8564H32.3504C32.6615 78.8564 32.9136 79.1055 32.9136 79.4128V83.0777C32.9136 83.3851 33.1657 83.6341 33.4767 83.6341H35.5741C35.8851 83.6341 36.1372 83.3851 36.1372 83.0777V79.4128C36.1372 79.1055 36.3893 78.8564 36.7004 78.8564H40.4095C40.7206 78.8564 40.9727 78.6073 40.9727 78.3V76.2277C40.9727 75.9204 40.7206 75.6713 40.4095 75.6713Z" fill="#FF0000"/>
<path d="M50.1674 67.8961H44.4785L45.271 64.1377C45.3616 63.7076 45.7453 63.3994 46.1898 63.3994H48.4559C48.9005 63.3994 49.2841 63.7076 49.3747 64.1377L50.1674 67.8961Z" fill="#FF0000"/>
<path d="M56.7506 84.891H54.8543C54.4654 84.891 54.1504 84.5796 54.1504 84.1955C54.1504 83.8114 54.4655 83.5 54.8543 83.5H56.7506C57.1394 83.5 57.4545 83.8114 57.4545 84.1955C57.4545 84.5796 57.1394 84.891 56.7506 84.891Z" fill="#D0E2E7"/>
<path d="M70.649 87.14H68.7527C68.3639 87.14 68.0488 86.8287 68.0488 86.4445C68.0488 86.0604 68.364 85.749 68.7527 85.749H70.649V87.14Z" fill="#86A0AF"/>
<path d="M70.649 90.1381H68.7527C68.3639 90.1381 68.0488 89.8267 68.0488 89.4426C68.0488 89.0585 68.364 88.7471 68.7527 88.7471H70.649V90.1381Z" fill="#86A0AF"/>
<path d="M46.1316 90.8866C45.7428 90.8866 45.4277 90.5753 45.4277 90.1911V84.1955C45.4277 83.8114 45.7429 83.5 46.1316 83.5C46.5204 83.5 46.8356 83.8114 46.8356 84.1955V90.1911C46.8356 90.5752 46.5205 90.8866 46.1316 90.8866Z" fill="#D0E2E7"/>
<defs>
<clipPath id="clip0">
<rect x="33" y="20" width="64" height="64" fill="white"/>
</clipPath>
</defs>
</svg>
