<svg width="120" height="120" viewBox="0 0 120 120" fill="none" xmlns="http://www.w3.org/2000/svg">
<circle cx="60" cy="60" r="60" fill="#FFCEDA"/>
<path d="M94.1956 28.082H34.1319C32.0088 28.082 30.3281 29.7277 30.3281 31.8065V77.4534C30.3281 79.5322 32.0088 81.1779 34.1319 81.1779H94.1956C96.3186 81.1779 97.9994 79.5322 97.9994 77.4534V31.7199C97.9994 29.7277 96.3186 28.082 94.1956 28.082Z" fill="white"/>
<path d="M94.1956 26H34.1319C32.0088 26 30.3281 27.7735 30.3281 30.0136V39.5342H97.9994V30.0136C97.9994 27.8668 96.3186 26 94.1956 26Z" fill="#FF0000"/>
<path d="M60.9531 42.6885H55.582V48.0596H60.9531V42.6885Z" fill="#86A0AF"/>
<path d="M71.6973 42.6885H66.3262V48.0596H71.6973V42.6885Z" fill="#86A0AF"/>
<path d="M82.4395 42.6885H77.0684V48.0596H82.4395V42.6885Z" fill="#86A0AF"/>
<path d="M50.3008 52.4619H44.9297V57.833H50.3008V52.4619Z" fill="#86A0AF"/>
<path d="M60.9531 52.4619H55.582V57.833H60.9531V52.4619Z" fill="#86A0AF"/>
<path d="M71.6973 52.4619H66.3262V57.833H71.6973V52.4619Z" fill="#86A0AF"/>
<path d="M82.4395 52.4619H77.0684V57.833H82.4395V52.4619Z" fill="#86A0AF"/>
<path d="M50.3008 62.3242H44.9297V67.6953H50.3008V62.3242Z" fill="#86A0AF"/>
<path d="M60.9531 62.3242H55.582V67.6953H60.9531V62.3242Z" fill="#86A0AF"/>
<path d="M71.6973 62.3242H66.3262V67.6953H71.6973V62.3242Z" fill="#86A0AF"/>
<path d="M82.4395 62.3242H77.0684V67.6953H82.4395V62.3242Z" fill="#86A0AF"/>
<path d="M50.3008 72.0986H44.9297V77.4697H50.3008V72.0986Z" fill="#86A0AF"/>
<path d="M60.9531 72.0986H55.582V77.4697H60.9531V72.0986Z" fill="#86A0AF"/>
<path d="M71.6973 72.0986H66.3262V77.4697H71.6973V72.0986Z" fill="#86A0AF"/>
<path d="M22.5 73.3697C22.5 62.436 31.3676 53.5684 42.3014 53.5684C53.2351 53.5684 62.1027 62.436 62.1027 73.3697C62.1027 84.3035 53.2351 93.1711 42.3014 93.1711C31.3676 93.1711 22.5 84.3035 22.5 73.3697Z" fill="#90D8F9" stroke="#3FC3FF"/>
<path d="M42.301 58.2744C33.9897 58.2744 27.2051 65.0591 27.2051 73.3703C27.2051 81.6815 33.9897 88.4662 42.301 88.4662C50.6122 88.4662 57.3969 81.6815 57.3969 73.3703C57.312 65.0591 50.6122 58.2744 42.301 58.2744Z" fill="white"/>
<path d="M41.6103 62.9799L40.7519 74.5291C40.6446 75.2509 41.2884 75.9727 42.2541 75.9727C43.2197 75.9727 43.8635 75.3411 43.8635 74.6193L43.0051 62.9799C43.0051 62.7092 42.6832 62.4385 42.3614 62.4385C41.9322 62.5287 41.7176 62.7092 41.6103 62.9799Z" fill="#2B3B4E"/>
<path d="M50.5301 71.8086L38.9182 72.5408C38.1242 72.6323 37.5288 73.1814 37.628 73.822C37.7273 74.5542 38.422 75.0118 39.216 74.9203L50.7286 72.8153C51.0264 72.7238 51.2249 72.5408 51.1256 72.2662C51.0264 71.9916 50.8279 71.8086 50.5301 71.8086Z" fill="#324A5E"/>
<path d="M42.3019 74.9319C43.1643 74.9319 43.8635 74.2327 43.8635 73.3702C43.8635 72.5078 43.1643 71.8086 42.3019 71.8086C41.4394 71.8086 40.7402 72.5078 40.7402 73.3702C40.7402 74.2327 41.4394 74.9319 42.3019 74.9319Z" fill="#FF003D"/>
<path d="M41.6663 61.4439C42.3471 61.4439 42.899 60.892 42.899 60.2112C42.899 59.5304 42.3471 58.9785 41.6663 58.9785C40.9855 58.9785 40.4336 59.5304 40.4336 60.2112C40.4336 60.892 40.9855 61.4439 41.6663 61.4439Z" fill="#E6E9EE"/>
<path d="M41.6663 87.2428C42.3471 87.2428 42.899 86.6909 42.899 86.0101C42.899 85.3293 42.3471 84.7773 41.6663 84.7773C40.9855 84.7773 40.4336 85.3293 40.4336 86.0101C40.4336 86.6909 40.9855 87.2428 41.6663 87.2428Z" fill="#E6E9EE"/>
<path d="M54.5218 74.3004C55.2026 74.3004 55.7545 73.7485 55.7545 73.0677C55.7545 72.3869 55.2026 71.835 54.5218 71.835C53.841 71.835 53.2891 72.3869 53.2891 73.0677C53.2891 73.7485 53.841 74.3004 54.5218 74.3004Z" fill="#E6E9EE"/>
<path d="M28.7229 74.3004C29.4038 74.3004 29.9557 73.7485 29.9557 73.0677C29.9557 72.3869 29.4038 71.835 28.7229 71.835C28.0421 71.835 27.4902 72.3869 27.4902 73.0677C27.4902 73.7485 28.0421 74.3004 28.7229 74.3004Z" fill="#E6E9EE"/>
<path d="M50.7347 65.231C51.4155 65.231 51.9674 64.6791 51.9674 63.9983C51.9674 63.3175 51.4155 62.7656 50.7347 62.7656C50.0539 62.7656 49.502 63.3175 49.502 63.9983C49.502 64.6791 50.0539 65.231 50.7347 65.231Z" fill="#E6E9EE"/>
<path d="M32.5081 83.4576C33.1889 83.4576 33.7408 82.9057 33.7408 82.2249C33.7408 81.5441 33.1889 80.9922 32.5081 80.9922C31.8273 80.9922 31.2754 81.5441 31.2754 82.2249C31.2754 82.9057 31.8273 83.4576 32.5081 83.4576Z" fill="#E6E9EE"/>
<path d="M50.7347 83.4576C51.4155 83.4576 51.9674 82.9057 51.9674 82.2249C51.9674 81.5441 51.4155 80.9922 50.7347 80.9922C50.0539 80.9922 49.502 81.5441 49.502 82.2249C49.502 82.9057 50.0539 83.4576 50.7347 83.4576Z" fill="#E6E9EE"/>
<path d="M32.5081 65.231C33.1889 65.231 33.7408 64.6791 33.7408 63.9983C33.7408 63.3175 33.1889 62.7656 32.5081 62.7656C31.8273 62.7656 31.2754 63.3175 31.2754 63.9983C31.2754 64.6791 31.8273 65.231 32.5081 65.231Z" fill="#E6E9EE"/>
<path d="M80.6788 35.5558C82.1863 35.5558 83.4084 34.3338 83.4084 32.8263C83.4084 31.3188 82.1863 30.0967 80.6788 30.0967C79.1713 30.0967 77.9492 31.3188 77.9492 32.8263C77.9492 34.3338 79.1713 35.5558 80.6788 35.5558Z" fill="white"/>
<path d="M46.6905 35.5558C48.198 35.5558 49.4201 34.3338 49.4201 32.8263C49.4201 31.3188 48.198 30.0967 46.6905 30.0967C45.183 30.0967 43.9609 31.3188 43.9609 32.8263C43.9609 34.3338 45.183 35.5558 46.6905 35.5558Z" fill="white"/>
</svg>
