<svg width="48" height="48" viewBox="0 0 48 48" fill="none" xmlns="http://www.w3.org/2000/svg">
<g clip-path="url(#clip0)">
<path d="M28.0642 41.7512C27.9122 41.8952 27.8242 42.1033 27.8242 42.3112C27.8242 42.5272 27.9122 42.7272 28.0642 42.8792C28.2082 43.0312 28.4162 43.1112 28.6242 43.1112C28.8402 43.1112 29.0482 43.0313 29.1922 42.8792C29.3442 42.7352 29.4242 42.5272 29.4242 42.3112C29.4242 42.1032 29.3442 41.8952 29.1922 41.7512C28.8962 41.4472 28.3602 41.4553 28.0642 41.7512Z" fill="url(#paint0_linear)"/>
<path d="M25.8961 42.9992C25.7441 43.1511 25.6641 43.3512 25.6641 43.5672C25.6641 43.7752 25.7521 43.9831 25.8961 44.1271C26.0481 44.2791 26.2561 44.3671 26.4641 44.3671C26.6721 44.3671 26.8801 44.2791 27.0241 44.1271C27.176 43.9831 27.2641 43.7751 27.2641 43.5672C27.2641 43.3512 27.176 43.1512 27.0241 42.9992C26.728 42.7032 26.1921 42.7032 25.8961 42.9992Z" fill="url(#paint1_linear)"/>
<path d="M36.8006 18.3997C36.8006 18.1485 36.6822 17.9118 36.4813 17.7606C35.6798 17.1565 33.6006 15.2334 33.6006 13.5998C33.6006 13.1583 33.2422 12.7999 32.8006 12.7999C32.3591 12.7999 32.0007 13.1583 32.0007 13.5998C32.0007 15.9133 34.2838 18.0293 35.1894 18.7773C35.0174 21.9157 32.8535 27.7043 32.0847 29.242C31.3671 30.6779 27.5703 35.1995 24.0009 35.1995C20.4314 35.1995 16.6346 30.678 15.9171 29.242C15.1163 27.6404 12.8012 21.4254 12.8012 18.3998V15.9878C15.9731 15.9126 27.5497 15.3382 33.2807 11.0399C33.6343 10.775 33.7055 10.2735 33.4407 9.91985C33.1759 9.56708 32.6752 9.49508 32.3207 9.75982C26.2097 14.3429 12.1428 14.3997 12.0011 14.3997C11.5596 14.3997 11.2012 14.7581 11.2012 15.1996V18.3995C11.2012 21.8331 13.7203 28.4273 14.4851 29.9569C15.4595 31.904 19.7194 36.7992 24.0009 36.7992C28.2823 36.7992 32.5422 31.9041 33.5167 29.9569C34.2815 28.4275 36.8006 21.8333 36.8006 18.3997Z" fill="url(#paint2_linear)"/>
<path d="M23.4312 43.4312C23.2872 43.5832 23.1992 43.7912 23.1992 43.9992C23.1992 44.2072 23.2872 44.4152 23.4312 44.5672C23.5832 44.7112 23.7912 44.7993 23.9993 44.7993C24.2073 44.7993 24.4152 44.7112 24.5673 44.5672C24.7113 44.4153 24.7993 44.2072 24.7993 43.9992C24.7993 43.7912 24.7113 43.5832 24.5673 43.4312C24.2712 43.1352 23.7272 43.1352 23.4312 43.4312Z" fill="url(#paint3_linear)"/>
<path d="M3.20117 21.5996C3.20117 23.3668 3.83397 25.0363 4.99157 26.3515C4.8652 26.8915 4.80117 27.4435 4.80117 27.9995C4.80117 31.969 8.03154 35.1994 12.001 35.1994C12.6098 35.1994 13.2154 35.1226 13.8001 34.9714C14.2281 34.8609 14.485 34.425 14.3745 33.9969C14.2641 33.569 13.8282 33.3121 13.4001 33.4226C12.9457 33.5401 12.4753 33.5994 12.0009 33.5994C8.91296 33.5994 6.40107 31.0874 6.40107 27.9995C6.40107 27.4443 6.48348 26.8939 6.6451 26.3628C6.73153 26.0796 6.65466 25.7723 6.44513 25.5636C5.38512 24.5044 4.80117 23.0972 4.80117 21.5996C4.80117 19.7949 5.68437 18.0885 7.16352 17.0365C7.51789 16.7845 7.60592 16.2966 7.3619 15.9357C6.73313 15.0086 6.40107 13.9238 6.40107 12.7998C6.40107 10.0958 8.33144 7.78145 10.9898 7.29668C11.2177 7.25431 11.417 7.11584 11.5345 6.91672C13.3145 3.90394 15.3681 1.59999 24.0863 1.59999C30.8093 1.59999 36.1748 3.80157 37.4372 7.07825C37.5204 7.29424 37.6932 7.46308 37.9108 7.54221C40.1172 8.3446 41.6003 10.4573 41.6003 12.7997C41.6003 13.9236 41.2684 15.0085 40.6395 15.9356C40.3955 16.2965 40.4835 16.7844 40.8379 17.0364C42.3171 18.0884 43.2002 19.7948 43.2002 21.5995C43.2002 23.0971 42.6163 24.5042 41.5563 25.5635C41.3467 25.7723 41.2699 26.0795 41.3563 26.3627C41.5179 26.8939 41.6003 27.4442 41.6003 27.9994C41.6003 31.0874 39.0884 33.5993 36.0005 33.5993C35.5301 33.5993 35.0629 33.5409 34.6117 33.4256C34.1829 33.3145 33.7486 33.5737 33.6389 34.0016C33.5293 34.4304 33.7877 34.8656 34.2157 34.9752C34.7965 35.124 35.3965 35.1992 36.0005 35.1992C39.97 35.1992 43.2003 31.9688 43.2003 27.9993C43.2003 27.4433 43.1363 26.8913 43.0099 26.3513C44.1675 25.0361 44.8003 23.3666 44.8003 21.5994C44.8003 19.5267 43.8963 17.5563 42.35 16.1955C42.9083 15.1547 43.2003 13.9948 43.2003 12.7996C43.2003 9.90606 41.4428 7.28534 38.7901 6.16852C37.0757 2.40969 31.3686 8.7738e-05 24.0863 8.7738e-05C15.6329 8.7738e-05 12.6506 2.03442 10.341 5.7984C7.10906 6.55917 4.80117 9.44717 4.80117 12.7999C4.80117 13.9951 5.09319 15.155 5.65156 16.1958C4.10518 17.5566 3.20117 19.5269 3.20117 21.5996Z" fill="url(#paint4_linear)"/>
<path d="M29.6715 39.8312C29.5195 39.9832 29.4395 40.1912 29.4395 40.3993C29.4395 40.6153 29.5194 40.8152 29.6715 40.9673C29.8234 41.1113 30.0235 41.1993 30.2314 41.1993C30.4474 41.1993 30.6474 41.1113 30.7995 40.9673C30.9514 40.8153 31.0315 40.6153 31.0315 40.3993C31.0315 40.1912 30.9515 39.9833 30.7995 39.8312C30.5035 39.5353 29.9674 39.5353 29.6715 39.8312Z" fill="url(#paint5_linear)"/>
<path d="M20.9664 42.9992C20.8224 43.1511 20.7344 43.3512 20.7344 43.5672C20.7344 43.7752 20.8224 43.9831 20.9664 44.1352C21.1184 44.2792 21.3264 44.3672 21.5344 44.3672C21.7504 44.3672 21.9504 44.2792 22.1024 44.1352C22.2544 43.9832 22.3345 43.7752 22.3345 43.5672C22.3345 43.3592 22.2545 43.1512 22.1024 42.9992C21.8064 42.7032 21.2704 42.7032 20.9664 42.9992Z" fill="url(#paint6_linear)"/>
<path d="M31.6551 38.6153C31.807 38.4633 31.8871 38.2632 31.8871 38.0472C31.8871 37.8392 31.8071 37.6313 31.6551 37.4792C31.3591 37.1833 30.8231 37.1912 30.5271 37.4872C30.3751 37.6312 30.2871 37.8392 30.2871 38.0472C30.2871 38.2631 30.3751 38.4631 30.5271 38.6152C30.6711 38.7671 30.8791 38.8472 31.0871 38.8472C31.3031 38.8473 31.503 38.7673 31.6551 38.6153Z" fill="url(#paint7_linear)"/>
<path d="M20.0001 22.3997C20.4416 22.3997 20.8 22.0413 20.8 21.5997V21.0733C20.8512 21.1229 20.8865 21.1637 20.8904 21.1693C21.0328 21.4429 21.312 21.5997 21.6008 21.5997C21.7249 21.5997 21.8512 21.5709 21.9696 21.5094C22.3616 21.3054 22.5137 20.8222 22.3097 20.4302C22.0721 19.9734 21.3177 19.1999 20.0001 19.1999C18.6826 19.1999 17.9282 19.9735 17.6905 20.4302C17.4913 20.8134 17.6385 21.271 18.0145 21.483C18.3905 21.6974 18.8729 21.559 19.0985 21.1902C19.1057 21.1782 19.1449 21.1318 19.2001 21.0782V21.5998C19.2001 22.0413 19.5585 22.3997 20.0001 22.3997Z" fill="url(#paint8_linear)"/>
<path d="M24.0009 31.1994C25.8785 31.1994 26.8609 30.2707 26.9665 30.165C27.2753 29.8562 27.2744 29.3619 26.9705 29.0482C26.6673 28.7346 26.1633 28.7258 25.8441 29.025C25.8193 29.0482 25.2161 29.5994 24.0009 29.5994C22.8034 29.5994 22.2002 29.0642 22.1586 29.0259C21.8459 28.7211 21.3451 28.7243 21.0354 29.0338C20.7226 29.3466 20.7226 29.8523 21.0354 30.165C21.141 30.2707 22.1234 31.1994 24.0009 31.1994Z" fill="url(#paint9_linear)"/>
<path d="M27.9981 22.3997C28.4397 22.3997 28.7981 22.0413 28.7981 21.5997V21.0733C28.8493 21.1229 28.8845 21.1637 28.8885 21.1693C29.0309 21.4429 29.31 21.5997 29.5989 21.5997C29.7229 21.5997 29.8493 21.5709 29.9677 21.5094C30.3596 21.3054 30.5117 20.8222 30.3077 20.4302C30.0701 19.9734 29.3158 19.1999 27.9981 19.1999C26.6805 19.1999 25.9262 19.9735 25.6886 20.4302C25.4893 20.8134 25.6365 21.271 26.0125 21.483C26.3886 21.6974 26.8717 21.559 27.0966 21.1902C27.1038 21.1782 27.143 21.1318 27.1982 21.0782V21.5998C27.1982 22.0413 27.5566 22.3997 27.9981 22.3997Z" fill="url(#paint10_linear)"/>
<path d="M47.9585 46.9463L47.1586 44.5463C46.3258 42.0472 41.3027 38.4328 34.3997 38.4328C34.0733 38.4328 33.7797 38.6312 33.6573 38.9328C33.6277 39.008 30.5622 46.3991 23.9999 46.3991C17.4385 46.3991 14.373 38.976 14.3426 38.9008C14.2201 38.5984 13.9266 38.3993 13.6002 38.3993C3.66281 38.3993 1.32202 43.104 0.841277 44.5463L0.0413257 46.9463C-0.0986401 47.3654 0.128511 47.8182 0.547752 47.9583C0.967743 48.0991 1.4197 47.8711 1.55976 47.4519L2.35971 45.0519C3.15329 42.6696 6.38844 40.1288 13.0827 40.004C13.9539 41.8512 17.3555 47.9991 24 47.9991C30.6399 47.9991 34.0406 41.884 34.9158 40.04C40.9204 40.2121 45.0723 43.3488 45.6403 45.0519L46.4403 47.4519C46.5523 47.7871 46.8643 47.9991 47.1995 47.9991C47.2826 47.9991 47.3683 47.9862 47.4523 47.9583C47.8713 47.8183 48.0985 47.3655 47.9585 46.9463Z" fill="url(#paint11_linear)"/>
<path d="M35.1992 26.3995V27.9995C35.1992 28.4411 35.5576 28.7995 35.9992 28.7995C36.4407 28.7995 36.7991 28.4411 36.7991 27.9995V26.3995C36.7991 25.958 36.4407 25.5996 35.9992 25.5996C35.5576 25.5996 35.1992 25.958 35.1992 26.3995Z" fill="url(#paint12_linear)"/>
<path d="M17.7113 38.0473C17.7113 37.8393 17.6233 37.6313 17.4713 37.4873C17.1754 37.1833 16.6393 37.1833 16.3434 37.4873C16.1914 37.6313 16.1113 37.8394 16.1113 38.0473C16.1113 38.2633 16.1913 38.4633 16.3434 38.6153C16.4954 38.7674 16.6954 38.8474 16.9114 38.8474C17.1194 38.8474 17.3273 38.7674 17.4713 38.6153C17.6233 38.4633 17.7113 38.2633 17.7113 38.0473Z" fill="url(#paint13_linear)"/>
<path d="M17.7688 41.1992C17.9768 41.1992 18.1848 41.1112 18.3288 40.9672C18.4807 40.8153 18.5608 40.6152 18.5608 40.3992C18.5608 40.1912 18.4808 39.9832 18.3288 39.8312C18.0328 39.5352 17.4967 39.5352 17.2008 39.8312C17.0488 39.9831 16.9688 40.1912 16.9688 40.3992C16.9688 40.6152 17.0487 40.8152 17.2008 40.9672C17.3448 41.1112 17.5528 41.1992 17.7688 41.1992Z" fill="url(#paint14_linear)"/>
<path d="M18.8064 41.7512C18.6544 41.9032 18.5664 42.1032 18.5664 42.3192C18.5664 42.5273 18.6544 42.7352 18.8064 42.8792C18.9584 43.0311 19.1584 43.1192 19.3744 43.1192C19.5824 43.1192 19.7904 43.0311 19.9344 42.8792C20.0863 42.7352 20.1664 42.5272 20.1664 42.3192C20.1664 42.1032 20.0864 41.8952 19.9344 41.7512C19.6384 41.4552 19.1025 41.4552 18.8064 41.7512Z" fill="url(#paint15_linear)"/>
<path d="M11.1992 26.3995V27.9995C11.1992 28.4411 11.5576 28.7995 11.9992 28.7995C12.4407 28.7995 12.7991 28.4411 12.7991 27.9995V26.3995C12.7991 25.958 12.4407 25.5996 11.9992 25.5996C11.5576 25.5996 11.1992 25.958 11.1992 26.3995Z" fill="url(#paint16_linear)"/>
</g>
<defs>
<linearGradient id="paint0_linear" x1="28.6242" y1="41.5262" x2="28.6242" y2="43.1112" gradientUnits="userSpaceOnUse">
<stop stop-color="#FF003D"/>
<stop offset="0.563536" stop-color="#FF0000"/>
<stop offset="1" stop-color="#FF3D00"/>
</linearGradient>
<linearGradient id="paint1_linear" x1="26.4641" y1="42.7772" x2="26.4641" y2="44.3671" gradientUnits="userSpaceOnUse">
<stop stop-color="#FF003D"/>
<stop offset="0.563536" stop-color="#FF0000"/>
<stop offset="1" stop-color="#FF3D00"/>
</linearGradient>
<linearGradient id="paint2_linear" x1="24.0009" y1="9.60014" x2="24.0009" y2="36.7992" gradientUnits="userSpaceOnUse">
<stop stop-color="#FF003D"/>
<stop offset="0.563536" stop-color="#FF0000"/>
<stop offset="1" stop-color="#FF3D00"/>
</linearGradient>
<linearGradient id="paint3_linear" x1="23.9993" y1="43.2092" x2="23.9993" y2="44.7993" gradientUnits="userSpaceOnUse">
<stop stop-color="#FF003D"/>
<stop offset="0.563536" stop-color="#FF0000"/>
<stop offset="1" stop-color="#FF3D00"/>
</linearGradient>
<linearGradient id="paint4_linear" x1="24.0008" y1="8.7738e-05" x2="24.0008" y2="35.1994" gradientUnits="userSpaceOnUse">
<stop stop-color="#FF003D"/>
<stop offset="0.563536" stop-color="#FF0000"/>
<stop offset="1" stop-color="#FF3D00"/>
</linearGradient>
<linearGradient id="paint5_linear" x1="30.2355" y1="39.6093" x2="30.2355" y2="41.1993" gradientUnits="userSpaceOnUse">
<stop stop-color="#FF003D"/>
<stop offset="0.563536" stop-color="#FF0000"/>
<stop offset="1" stop-color="#FF3D00"/>
</linearGradient>
<linearGradient id="paint6_linear" x1="21.5344" y1="42.7772" x2="21.5344" y2="44.3672" gradientUnits="userSpaceOnUse">
<stop stop-color="#FF003D"/>
<stop offset="0.563536" stop-color="#FF0000"/>
<stop offset="1" stop-color="#FF3D00"/>
</linearGradient>
<linearGradient id="paint7_linear" x1="31.0871" y1="37.2612" x2="31.0871" y2="38.8472" gradientUnits="userSpaceOnUse">
<stop stop-color="#FF003D"/>
<stop offset="0.563536" stop-color="#FF0000"/>
<stop offset="1" stop-color="#FF3D00"/>
</linearGradient>
<linearGradient id="paint8_linear" x1="20.0009" y1="19.1999" x2="20.0009" y2="22.3997" gradientUnits="userSpaceOnUse">
<stop stop-color="#FF003D"/>
<stop offset="0.563536" stop-color="#FF0000"/>
<stop offset="1" stop-color="#FF3D00"/>
</linearGradient>
<linearGradient id="paint9_linear" x1="23.9995" y1="28.7995" x2="23.9995" y2="31.1994" gradientUnits="userSpaceOnUse">
<stop stop-color="#FF003D"/>
<stop offset="0.563536" stop-color="#FF0000"/>
<stop offset="1" stop-color="#FF3D00"/>
</linearGradient>
<linearGradient id="paint10_linear" x1="27.999" y1="19.1999" x2="27.999" y2="22.3997" gradientUnits="userSpaceOnUse">
<stop stop-color="#FF003D"/>
<stop offset="0.563536" stop-color="#FF0000"/>
<stop offset="1" stop-color="#FF3D00"/>
</linearGradient>
<linearGradient id="paint11_linear" x1="23.9999" y1="38.3993" x2="23.9999" y2="48" gradientUnits="userSpaceOnUse">
<stop stop-color="#FF003D"/>
<stop offset="0.563536" stop-color="#FF0000"/>
<stop offset="1" stop-color="#FF3D00"/>
</linearGradient>
<linearGradient id="paint12_linear" x1="35.9992" y1="25.5996" x2="35.9992" y2="28.7995" gradientUnits="userSpaceOnUse">
<stop stop-color="#FF003D"/>
<stop offset="0.563536" stop-color="#FF0000"/>
<stop offset="1" stop-color="#FF3D00"/>
</linearGradient>
<linearGradient id="paint13_linear" x1="16.9113" y1="37.2593" x2="16.9113" y2="38.8474" gradientUnits="userSpaceOnUse">
<stop stop-color="#FF003D"/>
<stop offset="0.563536" stop-color="#FF0000"/>
<stop offset="1" stop-color="#FF3D00"/>
</linearGradient>
<linearGradient id="paint14_linear" x1="17.7648" y1="39.6092" x2="17.7648" y2="41.1992" gradientUnits="userSpaceOnUse">
<stop stop-color="#FF003D"/>
<stop offset="0.563536" stop-color="#FF0000"/>
<stop offset="1" stop-color="#FF3D00"/>
</linearGradient>
<linearGradient id="paint15_linear" x1="19.3664" y1="41.5292" x2="19.3664" y2="43.1192" gradientUnits="userSpaceOnUse">
<stop stop-color="#FF003D"/>
<stop offset="0.563536" stop-color="#FF0000"/>
<stop offset="1" stop-color="#FF3D00"/>
</linearGradient>
<linearGradient id="paint16_linear" x1="11.9992" y1="25.5996" x2="11.9992" y2="28.7995" gradientUnits="userSpaceOnUse">
<stop stop-color="#FF003D"/>
<stop offset="0.563536" stop-color="#FF0000"/>
<stop offset="1" stop-color="#FF3D00"/>
</linearGradient>
<clipPath id="clip0">
<rect width="48" height="48" fill="white"/>
</clipPath>
</defs>
</svg>
