<svg width="48" height="48" viewBox="0 0 48 48" fill="none" xmlns="http://www.w3.org/2000/svg">
<path d="M10.3996 15.9997H37.599C38.0406 15.9997 38.399 15.6413 38.399 15.1997V7.19983C38.399 2.82629 35.887 -3.05176e-05 31.9991 -3.05176e-05H16.7995C12.6947 -3.05176e-05 9.59961 3.09516 9.59961 7.19983V15.1996C9.59961 15.6413 9.95801 15.9997 10.3996 15.9997ZM11.1995 7.19983C11.1995 3.95511 13.5547 1.59997 16.7994 1.59997H31.9991C35.5382 1.59997 36.799 4.49276 36.799 7.19983V14.3997H11.1995V7.19983Z" fill="url(#paint0_linear)"/>
<path d="M34.4005 7.9999H28.0006C27.9725 7.9999 27.9485 8.01349 27.9213 8.01593C27.5557 6.18474 25.9373 4.79999 24.0006 4.79999C22.0639 4.79999 20.4455 6.18474 20.0799 8.01593C20.0527 8.01349 20.0287 7.9999 20.0006 7.9999H13.6007C13.1592 7.9999 12.8008 8.35829 12.8008 8.79985C12.8008 9.2414 13.1592 9.5998 13.6007 9.5998H20.0006C20.0287 9.5998 20.0527 9.58621 20.0799 9.58377C20.4455 11.415 22.0639 12.7997 24.0006 12.7997C25.9373 12.7997 27.5557 11.415 27.9213 9.58377C27.9485 9.58621 27.9725 9.5998 28.0006 9.5998H34.4005C34.842 9.5998 35.2004 9.2414 35.2004 8.79985C35.2004 8.3582 34.842 7.9999 34.4005 7.9999ZM24.0007 11.1998C22.6775 11.1998 21.6007 10.123 21.6007 8.79985C21.6007 7.47669 22.6775 6.39989 24.0007 6.39989C25.3239 6.39989 26.4006 7.47669 26.4006 8.79985C26.4006 10.123 25.3239 11.1998 24.0007 11.1998Z" fill="url(#paint1_linear)"/>
<path d="M11.3417 23.9076C11.7522 25.6524 13.1145 31.1147 14.5337 33.2434C15.5625 34.7858 17.9712 38.3993 23.9991 38.3993C30.0269 38.3993 32.4357 34.7858 33.4644 33.2434C34.8836 31.1147 36.2459 25.6524 36.6564 23.9076C37.6612 23.6212 38.3988 22.6948 38.3988 21.5996V18.3997C38.3988 17.9582 38.0404 17.5998 37.5988 17.5998C37.1573 17.5998 36.7989 17.9582 36.7989 18.3997V21.5996C36.7989 22.0404 36.4397 22.3996 35.9989 22.3996C35.6237 22.3996 35.2989 22.6604 35.2182 23.026C35.2102 23.0636 34.7678 25.03 34.1342 27.2091C34.1174 27.2083 34.103 27.1996 34.0862 27.1996C34.027 27.1996 28.1094 27.182 24.2968 25.6564C24.1048 25.5812 23.8936 25.5812 23.7016 25.6564C19.8952 27.1795 13.9834 27.1996 13.9242 27.1996C13.9034 27.1996 13.8858 27.21 13.8651 27.2116C13.2307 25.0317 12.7883 23.0637 12.7803 23.0261C12.6995 22.6605 12.3747 22.3997 11.9995 22.3997C11.5587 22.3997 11.1995 22.0405 11.1995 21.5997V18.3998C11.1995 17.9583 10.8411 17.5999 10.3996 17.5999C9.95801 17.5999 9.59961 17.9583 9.59961 18.3998V21.5997C9.59942 22.6948 10.3369 23.6212 11.3417 23.9076ZM23.9991 27.2571C27.4943 28.5619 32.203 28.7627 33.647 28.7931C33.1781 30.2267 32.6518 31.5771 32.1334 32.3554C31.1718 33.7979 29.171 36.7994 23.9991 36.7994C18.8272 36.7994 16.8265 33.7979 15.8649 32.3554C15.3465 31.5779 14.8201 30.2275 14.3521 28.794C15.7801 28.7635 20.4952 28.5651 23.9991 27.2571Z" fill="url(#paint2_linear)"/>
<path d="M47.9588 46.9462L47.1589 44.5463C46.1805 41.6143 43.6246 40.0176 32.9888 39.9992C32.3344 39.6728 29.9576 38.4832 29.9576 38.4832C29.6704 38.3408 29.324 38.3824 29.0792 38.592L24.0001 42.9455L18.921 38.592C18.677 38.3824 18.329 38.34 18.0426 38.4832L15.0114 39.9999C14.281 40.0008 13.5923 40.0103 12.9363 40.0264C12.8907 40.0184 12.8491 39.9992 12.8003 39.9992C12.7362 39.9992 12.6803 40.0216 12.6203 40.0352C3.98288 40.2824 1.74211 41.8487 0.841279 44.5463L0.0413257 46.9463C-0.0986403 47.3655 0.128512 47.8183 0.547754 47.9583C0.967745 48.0991 1.41971 47.8711 1.55977 47.4519L2.35972 45.0519C2.79734 43.7415 3.38373 41.996 12.0003 41.6584V41.7128C10.6244 42.0704 9.60036 43.3128 9.60036 44.7992C9.60036 46.564 11.0356 47.9991 12.8003 47.9991C14.565 47.9991 16.0002 46.5639 16.0002 44.7992C16.0002 43.3128 14.9762 42.0705 13.6002 41.7128V41.6152C14.1098 41.6057 14.6346 41.6 15.193 41.6H15.2002C15.3243 41.6 15.4474 41.5713 15.5578 41.516L18.2833 40.1521L23.2 44.3672V47.1991C23.2 47.6407 23.5584 47.9991 24 47.9991C24.4415 47.9991 24.7999 47.6407 24.7999 47.1991V44.3671L29.7167 40.152C31.7127 41.1496 32.4398 41.5064 32.7999 41.5752V41.5992C44.4885 41.5992 45.154 43.5952 45.6405 45.0519L46.4404 47.4519C46.5524 47.7871 46.8644 47.9991 47.1996 47.9991C47.2827 47.9991 47.3684 47.9863 47.4524 47.9583C47.8716 47.8183 48.0988 47.3655 47.9588 46.9462ZM14.4003 44.7991C14.4003 45.6815 13.6827 46.3991 12.8003 46.3991C11.9179 46.3991 11.2003 45.6815 11.2003 44.7991C11.2003 43.9166 11.9178 43.1991 12.8003 43.1991C13.6826 43.1991 14.4003 43.9167 14.4003 44.7991Z" fill="url(#paint3_linear)"/>
<path d="M26.3996 20.7996C25.958 20.7996 25.5996 21.158 25.5996 21.5996C25.5996 22.0411 25.958 22.3995 26.3996 22.3995H27.1995C27.1995 22.8411 27.5579 23.1995 27.9995 23.1995C28.441 23.1995 28.7994 22.8411 28.7994 22.3995H29.5994C30.0409 22.3995 30.3993 22.0411 30.3993 21.5996C30.3993 21.158 30.0409 20.7996 29.5994 20.7996H26.3996Z" fill="url(#paint4_linear)"/>
<path d="M18.4015 20.7996C17.96 20.7996 17.6016 21.158 17.6016 21.5996C17.6016 22.0411 17.96 22.3995 18.4015 22.3995H19.2015C19.2015 22.8411 19.5599 23.1995 20.0014 23.1995C20.443 23.1995 20.8014 22.8411 20.8014 22.3995H21.6013C22.0429 22.3995 22.4013 22.0411 22.4013 21.5996C22.4013 21.158 22.0429 20.7996 21.6013 20.7996H18.4015Z" fill="url(#paint5_linear)"/>
<defs>
<linearGradient id="paint0_linear" x1="23.9993" y1="-3.05176e-05" x2="23.9993" y2="15.9997" gradientUnits="userSpaceOnUse">
<stop stop-color="#FF003D"/>
<stop offset="0.563536" stop-color="#FF0000"/>
<stop offset="1" stop-color="#FF3D00"/>
</linearGradient>
<linearGradient id="paint1_linear" x1="24.0006" y1="4.79999" x2="24.0006" y2="12.7997" gradientUnits="userSpaceOnUse">
<stop stop-color="#FF003D"/>
<stop offset="0.563536" stop-color="#FF0000"/>
<stop offset="1" stop-color="#FF3D00"/>
</linearGradient>
<linearGradient id="paint2_linear" x1="23.9992" y1="17.5998" x2="23.9992" y2="38.3993" gradientUnits="userSpaceOnUse">
<stop stop-color="#FF003D"/>
<stop offset="0.563536" stop-color="#FF0000"/>
<stop offset="1" stop-color="#FF3D00"/>
</linearGradient>
<linearGradient id="paint3_linear" x1="24.0001" y1="38.3993" x2="24.0001" y2="48" gradientUnits="userSpaceOnUse">
<stop stop-color="#FF003D"/>
<stop offset="0.563536" stop-color="#FF0000"/>
<stop offset="1" stop-color="#FF3D00"/>
</linearGradient>
<linearGradient id="paint4_linear" x1="27.9995" y1="20.7996" x2="27.9995" y2="23.1995" gradientUnits="userSpaceOnUse">
<stop stop-color="#FF003D"/>
<stop offset="0.563536" stop-color="#FF0000"/>
<stop offset="1" stop-color="#FF3D00"/>
</linearGradient>
<linearGradient id="paint5_linear" x1="20.0014" y1="20.7996" x2="20.0014" y2="23.1995" gradientUnits="userSpaceOnUse">
<stop stop-color="#FF003D"/>
<stop offset="0.563536" stop-color="#FF0000"/>
<stop offset="1" stop-color="#FF3D00"/>
</linearGradient>
</defs>
</svg>
