<svg width="48" height="48" viewBox="0 0 48 48" fill="none" xmlns="http://www.w3.org/2000/svg">
<path d="M47.9576 46.9461C47.8865 46.7333 46.1409 41.7101 39.3929 40.023C38.9657 39.9158 38.5298 40.1765 38.4225 40.6053C38.3153 41.0342 38.5761 41.4685 39.0049 41.5757C44.8672 43.0413 46.3792 47.2757 46.44 47.4525C46.5512 47.7877 46.8632 47.9997 47.1985 47.9997C47.2825 47.9997 47.368 47.9869 47.452 47.9581C47.8712 47.8189 48.0976 47.3652 47.9576 46.9461Z" fill="url(#paint0_linear)"/>
<path d="M7.20054 36.7998H12.0005C12.4421 36.7998 12.8005 36.4414 12.8005 35.9999C12.8005 35.5575 12.4421 35.1999 12.0005 35.1999H7.20054C6.51411 35.1999 6.06374 35.0351 5.86293 34.7104C5.39653 33.9584 5.9669 32.2608 6.28696 31.6112C6.38933 31.44 8.80056 27.3465 8.80056 20.8002V16.8002C8.80056 4.23713 17.0669 1.60034 24.0004 1.60034C26.3628 1.60034 31.2787 1.60034 32.0307 2.64274C32.0611 2.68596 32.1075 2.7499 32.042 2.94677C31.9532 3.2132 32.01 3.50598 32.1924 3.71954C32.3755 3.93395 32.6547 4.03632 32.9323 3.98916C33.9491 3.82117 34.8451 4.07635 35.6675 4.77234C37.8139 6.58995 39.2003 11.3114 39.2003 16.8003V20.8002C39.2003 27.6938 41.3419 31.0794 41.7099 31.6097C42.061 32.3425 42.5931 33.9769 42.1378 34.7105C41.937 35.0352 41.4866 35.2 40.8002 35.2H36.0003C35.5587 35.2 35.2003 35.5576 35.2003 36C35.2003 36.4415 35.5587 36.7999 36.0003 36.7999H40.8002C42.3938 36.7999 43.1474 36.1207 43.4993 35.5511C44.5585 33.8376 43.2666 31.1431 43.1162 30.8415C43.0946 30.7992 43.069 30.7575 43.0402 30.7199C43.0177 30.6896 40.8002 27.6536 40.8002 20.8001V16.8001C40.8002 12.0737 39.7243 6.11136 36.7019 3.55136C35.789 2.77774 34.7395 2.36815 33.6243 2.34181C33.5602 2.08184 33.4451 1.86978 33.3283 1.70741C32.1908 0.128202 28.4308 0.000234604 24.0004 0.000234604C13.1669 0.000234604 7.20054 5.96661 7.20054 16.8001V20.8001C7.20054 26.876 4.93735 30.7512 4.88541 30.8415C4.73419 31.1431 3.44224 33.8375 4.50141 35.5511C4.85335 36.1206 5.60774 36.7998 7.20054 36.7998Z" fill="url(#paint1_linear)"/>
<path d="M27.9999 22.4C28.4415 22.4 28.7999 22.0416 28.7999 21.6V21.0736C28.8519 21.1224 28.8863 21.1632 28.8903 21.1696C29.0327 21.4432 29.3119 21.6 29.6007 21.6C29.7247 21.6 29.8511 21.5712 29.9695 21.5096C30.3615 21.3048 30.5135 20.8224 30.3095 20.4305C30.072 19.9729 29.3176 19.2001 27.9999 19.2001C26.6824 19.2001 25.928 19.9729 25.6904 20.4305C25.4911 20.8129 25.6392 21.2713 26.0143 21.4833C26.3904 21.6977 26.8736 21.5585 27.0984 21.1905C27.1063 21.1777 27.1448 21.1313 27.2 21.0777V21.6001C27.1999 22.0416 27.5583 22.4 27.9999 22.4Z" fill="url(#paint2_linear)"/>
<path d="M19.9162 27.6415C19.7179 27.2471 19.2395 27.0855 18.8426 27.284C18.4475 27.4816 18.2875 27.9623 18.4851 28.3576C19.4947 30.3768 21.5147 30.4 21.6003 30.4C22.0418 30.4 22.4002 30.0416 22.4002 29.6C22.4002 29.1576 22.0418 28.8001 21.6003 28.8001C21.5899 28.7999 20.4883 28.7863 19.9162 27.6415Z" fill="url(#paint3_linear)"/>
<path d="M8.60613 40.023C1.85742 41.7102 0.111811 46.7334 0.0414051 46.9461C-0.0985622 47.3653 0.127842 47.8189 0.546994 47.9581C0.630993 47.9869 0.716586 47.9998 0.799835 47.9998C1.13508 47.9998 1.44708 47.7878 1.55902 47.4525C1.57345 47.4086 3.08863 43.0518 8.99416 41.5758C9.42297 41.4686 9.68294 41.0342 9.57578 40.6054C9.46928 40.1766 9.03494 39.9158 8.60613 40.023Z" fill="url(#paint4_linear)"/>
<path d="M36.7665 40.6045C36.7521 40.547 36.7273 40.4957 36.7009 40.4422C36.6865 40.4141 36.6833 40.383 36.6649 40.3557C36.6569 40.3429 36.6433 40.3374 36.6345 40.3254C36.601 40.2798 36.5585 40.2438 36.5154 40.2062C36.4762 40.1726 36.4402 40.1382 36.3962 40.1134C36.3818 40.1046 36.3731 40.091 36.3578 40.0838L33.1578 38.4837C32.9018 38.3565 32.5954 38.3741 32.357 38.5342L27.5562 41.7341C27.333 41.8822 27.1994 42.1317 27.1994 42.3997V45.2365C26.7235 45.6173 25.5554 46.3997 23.9995 46.3997C22.4595 46.3997 21.2795 45.6133 20.7996 45.2341V42.3997C20.7996 42.1316 20.666 41.8821 20.4436 41.734L15.6436 38.5341C15.4045 38.3741 15.098 38.3549 14.8421 38.4836L11.6421 40.0837C11.6277 40.0909 11.6197 40.1045 11.6061 40.1117C11.559 40.1381 11.5214 40.1741 11.4798 40.2101C11.439 40.247 11.399 40.2805 11.367 40.3229C11.3574 40.3358 11.343 40.3421 11.3342 40.3557C11.315 40.3845 11.3118 40.4173 11.2966 40.4477C11.2717 40.4981 11.2477 40.5469 11.2334 40.6013C11.2214 40.6509 11.2174 40.6989 11.2142 40.7493C11.211 40.8005 11.2086 40.8501 11.2149 40.9021C11.2229 40.9565 11.2398 41.0069 11.2581 41.0589C11.2693 41.0917 11.2686 41.1252 11.2846 41.1573C11.2918 41.1717 11.3054 41.1804 11.3134 41.1941C11.3398 41.2397 11.3742 41.2773 11.4094 41.3173C11.4462 41.3597 11.4805 41.4006 11.5246 41.4333C11.5374 41.4421 11.543 41.4564 11.5565 41.4653L16.3565 44.6652C16.4925 44.7556 16.6469 44.7996 16.7989 44.7996C17.0581 44.7996 17.3109 44.674 17.4653 44.4428C17.71 44.0756 17.6109 43.5788 17.2436 43.3341L13.5909 40.8989L15.1421 40.1221L19.1996 42.8277V45.5997C19.1996 45.8117 19.2845 46.0149 19.434 46.1653C19.5092 46.2397 21.2996 47.9997 23.9996 47.9997C26.7004 47.9997 28.4907 46.2397 28.5652 46.1653C28.7155 46.0149 28.7995 45.8117 28.7995 45.5997V42.8277L32.8579 40.1221L34.4091 40.8981L30.7564 43.3341C30.3884 43.5788 30.2892 44.0756 30.534 44.4428C30.6884 44.674 30.942 44.7996 31.2004 44.7996C31.3532 44.7996 31.5076 44.7557 31.6435 44.6652L36.4435 41.4653C36.4563 41.4564 36.4627 41.4428 36.4747 41.434C36.5195 41.4005 36.5555 41.358 36.5931 41.3149C36.6266 41.2757 36.6603 41.2397 36.6859 41.1965C36.6939 41.182 36.7083 41.1725 36.7163 41.1573C36.733 41.1237 36.7323 41.0877 36.7443 41.0533C36.7611 41.0045 36.7771 40.9565 36.7843 40.9053C36.7915 40.8501 36.7891 40.7981 36.7852 40.7429C36.7817 40.6958 36.7785 40.6509 36.7665 40.6045Z" fill="url(#paint5_linear)"/>
<path d="M22.3092 20.4305C22.0716 19.9729 21.3172 19.2001 19.9996 19.2001C18.682 19.2001 17.9276 19.9729 17.69 20.4305C17.4916 20.8129 17.6388 21.2713 18.014 21.4833C18.3908 21.6977 18.8732 21.5585 19.098 21.1905C19.106 21.1776 19.1444 21.1313 19.1996 21.0777V21.6001C19.1996 22.0416 19.558 22.4 19.9996 22.4C20.4411 22.4 20.7995 22.0416 20.7995 21.6001V21.0737C20.8516 21.1225 20.886 21.1633 20.8899 21.1697C21.0323 21.4432 21.3115 21.6001 21.6004 21.6001C21.7244 21.6001 21.8508 21.5713 21.9692 21.5097C22.3612 21.3049 22.5132 20.8224 22.3092 20.4305Z" fill="url(#paint6_linear)"/>
<path d="M33.5386 10.7201C33.2738 10.3673 32.7738 10.2945 32.4186 10.5601C26.3075 15.1432 12.2404 15.2 12.0988 15.2C11.6572 15.2 11.2988 15.5576 11.2988 16V19.1999C11.2988 22.6335 13.8188 29.227 14.5836 30.7574C15.5572 32.7046 19.8172 37.5998 24.0987 37.5998C27.6395 37.5998 31.1586 34.2566 32.8242 31.9974C35.0177 31.983 36.7986 30.1966 36.7986 27.9999C36.7986 26.9486 36.3938 25.9671 35.6866 25.2319C36.3491 23.0887 36.8986 20.8015 36.8986 19.2C36.8986 18.9488 36.7802 18.7112 36.5794 18.56C35.7778 17.9568 33.6986 16.0336 33.6986 14.4C33.6986 13.9576 33.3402 13.6001 32.8986 13.6001C32.4571 13.6001 32.0987 13.9576 32.0987 14.4C32.0987 16.7128 34.3818 18.8288 35.2882 19.5776C35.2138 20.9272 34.7706 22.7672 34.229 24.5488C34.0682 24.6072 33.9202 24.7056 33.8226 24.8624C33.645 25.144 33.6658 25.4927 33.8466 25.7495C33.2186 27.6423 32.5458 29.3167 32.1834 30.0414C32.1314 30.1446 32.0602 30.2678 31.9778 30.3998H28.6514C28.3202 29.4702 27.4403 28.7998 26.3986 28.7998C25.0754 28.7998 23.9986 29.8758 23.9986 31.1998C23.9986 32.523 25.0754 33.5998 26.3986 33.5998C27.4402 33.5998 28.3202 32.9286 28.6514 31.9998H30.7602C29.1706 33.8142 26.5811 35.9997 24.0987 35.9997C20.5291 35.9997 16.7323 31.4782 16.0148 30.0414C15.214 28.4407 12.8988 22.2255 12.8988 19.1999V16.7879C16.0716 16.7119 27.6475 16.1383 33.3786 11.8392C33.7322 11.5745 33.8042 11.0729 33.5386 10.7201ZM35.0402 27.188C35.133 27.4464 35.1987 27.7151 35.1987 27.9999C35.1987 28.9207 34.6715 29.7127 33.9083 30.1151C34.2138 29.4103 34.6218 28.3783 35.0402 27.188ZM26.3987 31.9999C25.9579 31.9999 25.5988 31.6408 25.5988 31.2C25.5988 30.7584 25.9579 30.4 26.3987 30.4C26.8403 30.4 27.1987 30.7584 27.1987 31.2C27.1987 31.6407 26.8404 31.9999 26.3987 31.9999Z" fill="url(#paint7_linear)"/>
<defs>
<linearGradient id="paint0_linear" x1="43.1987" y1="39.9989" x2="43.1987" y2="47.9997" gradientUnits="userSpaceOnUse">
<stop stop-color="#FF003D"/>
<stop offset="0.563536" stop-color="#FF0000"/>
<stop offset="1" stop-color="#FF3D00"/>
</linearGradient>
<linearGradient id="paint1_linear" x1="24.0004" y1="0.000234604" x2="24.0004" y2="36.7999" gradientUnits="userSpaceOnUse">
<stop stop-color="#FF003D"/>
<stop offset="0.563536" stop-color="#FF0000"/>
<stop offset="1" stop-color="#FF3D00"/>
</linearGradient>
<linearGradient id="paint2_linear" x1="28.0008" y1="19.2001" x2="28.0008" y2="22.4" gradientUnits="userSpaceOnUse">
<stop stop-color="#FF003D"/>
<stop offset="0.563536" stop-color="#FF0000"/>
<stop offset="1" stop-color="#FF3D00"/>
</linearGradient>
<linearGradient id="paint3_linear" x1="20.4003" y1="27.199" x2="20.4003" y2="30.4" gradientUnits="userSpaceOnUse">
<stop stop-color="#FF003D"/>
<stop offset="0.563536" stop-color="#FF0000"/>
<stop offset="1" stop-color="#FF3D00"/>
</linearGradient>
<linearGradient id="paint4_linear" x1="4.79995" y1="39.9989" x2="4.79995" y2="47.9998" gradientUnits="userSpaceOnUse">
<stop stop-color="#FF003D"/>
<stop offset="0.563536" stop-color="#FF0000"/>
<stop offset="1" stop-color="#FF3D00"/>
</linearGradient>
<linearGradient id="paint5_linear" x1="23.9999" y1="38.399" x2="23.9999" y2="47.9997" gradientUnits="userSpaceOnUse">
<stop stop-color="#FF003D"/>
<stop offset="0.563536" stop-color="#FF0000"/>
<stop offset="1" stop-color="#FF3D00"/>
</linearGradient>
<linearGradient id="paint6_linear" x1="20.0007" y1="19.2001" x2="20.0007" y2="22.4" gradientUnits="userSpaceOnUse">
<stop stop-color="#FF003D"/>
<stop offset="0.563536" stop-color="#FF0000"/>
<stop offset="1" stop-color="#FF3D00"/>
</linearGradient>
<linearGradient id="paint7_linear" x1="24.0987" y1="10.4" x2="24.0987" y2="37.5998" gradientUnits="userSpaceOnUse">
<stop stop-color="#FF003D"/>
<stop offset="0.563536" stop-color="#FF0000"/>
<stop offset="1" stop-color="#FF3D00"/>
</linearGradient>
</defs>
</svg>
