<svg width="48" height="48" viewBox="0 0 48 48" fill="none" xmlns="http://www.w3.org/2000/svg">
<g clip-path="url(#clip0)">
<path d="M20.0058 22.3615C20.4466 22.3615 20.8044 22.0037 20.8044 21.5629V21.0374C20.8555 21.0869 20.8907 21.1277 20.8946 21.1333C21.0368 21.4064 21.3155 21.5629 21.6038 21.5629C21.7277 21.5629 21.8538 21.5342 21.972 21.4727C22.3633 21.2691 22.5151 20.7867 22.3115 20.3954C22.0743 19.9394 21.3212 19.1671 20.0058 19.1671C18.6905 19.1671 17.9374 19.9394 17.7001 20.3954C17.5012 20.7779 17.6482 21.2348 18.0236 21.4464C18.399 21.6605 18.8805 21.5223 19.1057 21.1541C19.113 21.1422 19.1521 21.0958 19.2072 21.0423V21.563C19.2071 22.0037 19.5649 22.3615 20.0058 22.3615Z" fill="url(#paint0_linear)"/>
<path d="M24.0014 31.1465C25.8758 31.1465 26.8565 30.2193 26.9619 30.1138C27.2702 29.8056 27.2693 29.312 26.9659 28.9989C26.6633 28.685 26.1601 28.6771 25.8415 28.9758C25.8167 28.9989 25.2145 29.5492 24.0014 29.5492C22.8059 29.5492 22.2036 29.0149 22.1622 28.9766C21.85 28.6724 21.35 28.6756 21.0409 28.9846C20.7286 29.2969 20.7286 29.8016 21.0409 30.1138C21.1463 30.2193 22.1271 31.1465 24.0014 31.1465Z" fill="url(#paint1_linear)"/>
<path d="M34.2232 27.4729C29.56 21.2547 27.1953 14.9672 27.1953 8.78496C27.1953 8.34415 26.8375 7.98636 26.3967 7.98636C25.9559 7.98636 25.5981 8.34415 25.5981 8.78496C25.5981 15.1836 27.9668 21.6525 32.6411 28.0215C31.4967 30.0452 27.9165 35.1397 24.0008 35.1397C19.7689 35.1397 15.9282 29.1884 15.132 27.5951C14.3469 26.0258 12.8199 21.3466 12.8199 18.3685V15.9582C14.7271 15.9047 19.6898 15.6395 24.2203 14.3442C24.6444 14.2235 24.8896 13.7811 24.7682 13.3571C24.6476 12.933 24.2059 12.6871 23.7811 12.8092C18.368 14.3554 12.0844 14.3753 12.0213 14.3753C11.5804 14.3753 11.2227 14.7331 11.2227 15.1739V18.3684C11.2227 21.638 12.8374 26.5783 13.7024 28.3089C13.7447 28.3936 18.0821 36.7368 24.0007 36.7368C29.9193 36.7368 34.2567 28.3935 34.299 28.3089C34.434 28.0382 34.4045 27.7148 34.2232 27.4729Z" fill="url(#paint2_linear)"/>
<path d="M29.5907 36.7369C29.1499 36.7369 28.7921 37.0947 28.7921 37.5355V39.1328C28.7921 39.1384 28.7953 39.1432 28.7953 39.1488C28.7953 39.1536 28.7921 39.1576 28.7921 39.1632C28.7889 39.6504 28.6284 43.9247 24.0003 43.9247C19.3722 43.9247 19.2117 39.6209 19.2086 39.1329V37.5356C19.2086 37.0948 18.8508 36.737 18.41 36.737C17.9692 36.737 17.6114 37.0948 17.6114 37.5356V38.3486C6.75238 38.5019 1.80254 41.7085 0.880869 44.471L0.0822713 46.8669C-0.0574575 47.2853 0.169309 47.7373 0.587841 47.8772C0.67151 47.905 0.756957 47.9178 0.840064 47.9178C1.17465 47.9178 1.48611 47.7062 1.59795 47.3715L2.39655 44.9756C2.9652 43.2698 6.89202 40.0776 17.664 39.9363C17.9546 42.2219 19.5096 45.5219 24.0003 45.5219C29.0541 45.5219 30.3894 41.3642 30.3894 39.1656C30.3894 39.16 30.3862 39.1552 30.3862 39.1496C30.3862 39.1432 30.3894 39.1384 30.3894 39.1328V37.5355C30.3893 37.0947 30.0315 36.7369 29.5907 36.7369Z" fill="url(#paint3_linear)"/>
<path d="M24.0253 25.5562H24.0173C23.5765 25.5562 23.2227 25.914 23.2227 26.3548C23.2227 26.7957 23.5845 27.1534 24.0253 27.1534C24.4669 27.1534 24.8239 26.7957 24.8239 26.3548C24.824 25.914 24.4669 25.5562 24.0253 25.5562Z" fill="url(#paint4_linear)"/>
<path d="M47.9173 46.9484L47.1187 44.5533C46.6827 43.2451 45.0279 41.9115 42.4587 40.7965C42.0546 40.6209 41.5834 40.8061 41.4077 41.211C41.2328 41.6152 41.4181 42.0864 41.8229 42.2612C44.2812 43.3282 45.396 44.4343 45.6028 45.058L46.4014 47.4539C46.5133 47.7885 46.8247 48.0002 47.1593 48.0002C47.2423 48.0002 47.3279 47.9866 47.4117 47.9587C47.8303 47.8188 48.0571 47.3668 47.9173 46.9484Z" fill="url(#paint5_linear)"/>
<path d="M23.9994 0C13.1844 0 7.22817 5.95621 7.22817 16.7712V23.9589C7.22817 30.1394 4.89696 37.2121 4.873 37.2832C4.73402 37.7016 4.96004 38.1537 5.37857 38.2935C5.79785 38.4316 6.24904 38.2064 6.38887 37.7879C6.48788 37.4893 8.82546 30.403 8.82546 23.9589V16.7712C8.82546 4.22949 17.0777 1.59729 23.9994 1.59729C33.4008 1.59729 39.1733 10.4349 39.1733 16.7712V18.3685C39.1733 21.5934 37.1975 25.3094 35.2863 28.904C33.5893 32.0969 31.9856 35.1126 31.9856 37.5356C31.9856 42.5997 35.2744 45.9467 35.4142 46.0865C35.5636 46.2366 35.7672 46.3204 35.9788 46.3204C36.1904 46.3204 36.3941 46.2366 36.5434 46.0865C36.6832 45.9467 39.972 42.5996 39.972 37.5356C39.972 32.5569 38.3284 30.7688 38.1407 30.5819C37.8333 30.2745 37.3397 30.2745 37.0266 30.5771C36.7127 30.8798 36.7048 31.3829 37.0018 31.7016C37.0154 31.716 38.3747 33.223 38.3747 37.5356C38.3747 40.7117 36.8357 43.1659 35.9772 44.288C35.1171 43.1699 33.5829 40.7269 33.5829 37.5356C33.5829 35.5111 35.0955 32.6656 36.6967 29.654C38.6997 25.8868 40.7706 21.9919 40.7706 18.3685V16.7712C40.7706 8.83839 33.8825 0 23.9994 0Z" fill="url(#paint6_linear)"/>
</g>
<defs>
<linearGradient id="paint0_linear" x1="20.0066" y1="19.1671" x2="20.0066" y2="22.3615" gradientUnits="userSpaceOnUse">
<stop stop-color="#FF003D"/>
<stop offset="0.563536" stop-color="#FF0000"/>
<stop offset="1" stop-color="#FF3D00"/>
</linearGradient>
<linearGradient id="paint1_linear" x1="24" y1="28.7506" x2="24" y2="31.1465" gradientUnits="userSpaceOnUse">
<stop stop-color="#FF003D"/>
<stop offset="0.563536" stop-color="#FF0000"/>
<stop offset="1" stop-color="#FF3D00"/>
</linearGradient>
<linearGradient id="paint2_linear" x1="22.8028" y1="7.98636" x2="22.8028" y2="36.7368" gradientUnits="userSpaceOnUse">
<stop stop-color="#FF003D"/>
<stop offset="0.563536" stop-color="#FF0000"/>
<stop offset="1" stop-color="#FF3D00"/>
</linearGradient>
<linearGradient id="paint3_linear" x1="15.2152" y1="36.7369" x2="15.2152" y2="47.9178" gradientUnits="userSpaceOnUse">
<stop stop-color="#FF003D"/>
<stop offset="0.563536" stop-color="#FF0000"/>
<stop offset="1" stop-color="#FF3D00"/>
</linearGradient>
<linearGradient id="paint4_linear" x1="24.0233" y1="25.5562" x2="24.0233" y2="27.1534" gradientUnits="userSpaceOnUse">
<stop stop-color="#FF003D"/>
<stop offset="0.563536" stop-color="#FF0000"/>
<stop offset="1" stop-color="#FF3D00"/>
</linearGradient>
<linearGradient id="paint5_linear" x1="44.6502" y1="40.7302" x2="44.6502" y2="48.0002" gradientUnits="userSpaceOnUse">
<stop stop-color="#FF003D"/>
<stop offset="0.563536" stop-color="#FF0000"/>
<stop offset="1" stop-color="#FF3D00"/>
</linearGradient>
<linearGradient id="paint6_linear" x1="22.8013" y1="0" x2="22.8013" y2="46.3204" gradientUnits="userSpaceOnUse">
<stop stop-color="#FF003D"/>
<stop offset="0.563536" stop-color="#FF0000"/>
<stop offset="1" stop-color="#FF3D00"/>
</linearGradient>
<clipPath id="clip0">
<rect width="48" height="48" fill="white"/>
</clipPath>
</defs>
</svg>
