<svg width="48" height="48" viewBox="0 0 48 48" fill="none" xmlns="http://www.w3.org/2000/svg">
<g clip-path="url(#clip0)">
<path d="M11.4213 23.9293C12.0045 25.4476 13.9341 30.3436 15.3341 32.4435L15.4605 32.6347C16.4877 34.1922 18.206 36.7995 23.9996 36.7995C29.7932 36.7995 31.5115 34.1923 32.5387 32.6347L32.6651 32.4435C32.6891 32.4075 32.7139 32.3652 32.7378 32.3283H32.7458C34.9513 32.3283 36.7458 30.534 36.7458 28.3283C36.7458 27.4035 36.4098 26.5211 35.8329 25.8124C36.1553 25.018 36.4185 24.3452 36.5778 23.9293C37.6226 23.6701 38.3993 22.7237 38.3993 21.5997V18.3998C38.3993 17.3566 37.7305 16.467 36.7993 16.1366V11.9998C36.7993 8.84144 35.1361 3.00718 28.985 2.44394C28.9714 2.06632 28.8466 1.76238 28.7081 1.53757C27.9227 0.267184 25.7139 0 23.9995 0C9.76451 0 9.5997 13.4638 9.5997 13.5998C9.5997 14.0414 9.95726 14.3991 10.3989 14.3991H10.3998C10.8406 14.3991 11.199 14.0422 11.1997 13.6014C11.2013 13.111 11.3813 1.60001 23.9995 1.60001C26.2619 1.60001 27.1683 2.08957 27.3466 2.37915C27.3722 2.41994 27.4402 2.52953 27.2842 2.84237C27.1602 3.09033 27.173 3.3848 27.3193 3.62076C27.4649 3.85598 27.7217 3.99998 27.9993 3.99998C35.092 3.99998 35.1984 11.6742 35.1992 11.9998V16.7998C35.1992 17.2413 35.5576 17.5997 35.9992 17.5997C36.44 17.5997 36.7991 17.9589 36.7991 18.3997V21.5997C36.7991 22.0405 36.44 22.3997 35.9992 22.3997C35.6656 22.3997 35.3672 22.6068 35.2504 22.9188C35.24 22.946 34.8104 24.0869 34.204 25.5636C34.1664 25.6308 34.136 25.698 34.1191 25.7708C33.4487 27.3939 32.5872 29.3603 31.828 30.7283H28.6569C28.3304 29.7899 27.4473 29.1115 26.3993 29.1115C25.0761 29.1115 23.9993 30.1875 23.9993 31.5115C23.9993 32.8346 25.0761 33.9114 26.3993 33.9114C27.4353 33.9114 28.3113 33.249 28.6464 32.3283H30.8136C29.8521 33.6811 28.3057 35.1995 23.9993 35.1995C19.0682 35.1995 17.7546 33.2083 16.7962 31.7539L16.6651 31.5555C15.1347 29.2604 12.7723 22.982 12.7491 22.9188C12.6315 22.6068 12.3331 22.3997 11.9995 22.3997C11.5587 22.3997 11.1995 22.0405 11.1995 21.5997V18.3998C11.1995 18.1829 11.2867 17.9862 11.4267 17.8422C11.745 18.5565 12.4211 19.1997 13.5995 19.1997C13.9027 19.1997 14.1795 19.0286 14.3155 18.7573C15.0483 17.2918 15.769 14.6022 15.9538 12.7926C18.4754 12.7478 25.7705 12.4398 29.016 10.4142C29.752 13.2557 32.1151 15.6469 32.2336 15.7653C32.5463 16.0781 33.0527 16.0781 33.3647 15.7653C33.6775 15.4534 33.6775 14.9469 33.3647 14.6342C33.3351 14.6046 30.3992 11.6358 30.3992 8.79982C30.3992 8.44067 30.1592 8.12464 29.8128 8.02864C29.4664 7.93339 29.0984 8.07908 28.9136 8.38779C27.7496 10.3277 20.1929 11.1998 15.1994 11.1998C14.7579 11.1998 14.3995 11.5582 14.3995 11.9997C14.3995 13.2989 13.7859 15.8917 13.1331 17.4877C12.8779 17.3341 12.8059 17.0477 12.7995 16.7997C12.7995 16.3581 12.4411 15.9997 11.9996 15.9997C10.6764 15.9997 9.59961 17.0765 9.59961 18.3997V21.5997C9.5997 22.7237 10.3765 23.6701 11.4213 23.9293ZM35.0474 27.6892C35.105 27.8973 35.1459 28.1092 35.1459 28.3284C35.1459 29.2893 34.5739 30.1148 33.7563 30.4972C34.1954 29.618 34.6394 28.6364 35.0474 27.6892ZM27.1707 31.6531C27.1019 32.0243 26.7899 32.3115 26.3996 32.3115C25.9588 32.3115 25.5996 31.9524 25.5996 31.5116C25.5996 31.07 25.9588 30.7116 26.3996 30.7116C26.7963 30.7116 27.1123 31.0068 27.1739 31.3868C27.1651 31.4339 27.1459 31.478 27.1459 31.5284C27.1459 31.5724 27.1643 31.6108 27.1707 31.6531Z" fill="url(#paint0_linear)"/>
<path d="M47.9749 47.005L47.1581 43.7466C45.9565 40.1435 40.1934 38.3883 29.5975 38.4331C29.2167 38.434 28.8895 38.7028 28.8151 39.0755L27.2151 47.0418C27.1279 47.4754 27.4087 47.897 27.8415 47.9842C28.2744 48.0673 28.6967 47.7906 28.7839 47.357L30.2542 40.0339C39.4165 40.0763 44.7324 41.5299 45.6229 44.1938L46.4228 47.3937C46.514 47.7569 46.8396 48.0001 47.198 47.9994C47.2628 47.9994 47.3276 47.9921 47.3932 47.9754C47.8214 47.869 48.0822 47.4346 47.9749 47.005Z" fill="url(#paint1_linear)"/>
<path d="M23.9996 38.3995C22.6764 38.3995 21.5996 39.4763 21.5996 40.7995C21.5996 41.841 22.2708 42.7203 23.1996 43.0523V47.1994C23.1996 47.641 23.558 47.9994 23.9996 47.9994C24.4411 47.9994 24.7995 47.641 24.7995 47.1994V43.0523C25.7291 42.7203 26.3995 41.8411 26.3995 40.7995C26.3995 39.4763 25.3228 38.3995 23.9996 38.3995ZM23.9996 41.5994C23.5588 41.5994 23.1996 41.2403 23.1996 40.7995C23.1996 40.3587 23.5588 39.9995 23.9996 39.9995C24.4404 39.9995 24.7995 40.3587 24.7995 40.7995C24.7996 41.2403 24.4404 41.5994 23.9996 41.5994Z" fill="url(#paint2_linear)"/>
<path d="M26.3996 19.1997C25.958 19.1997 25.5996 19.5581 25.5996 19.9997C25.5996 20.4412 25.958 20.7996 26.3996 20.7996H27.1995C27.1995 21.2412 27.5579 21.5996 27.9995 21.5996C28.441 21.5996 28.7994 21.2412 28.7994 20.7996H29.5994C30.041 20.7996 30.3994 20.4412 30.3994 19.9997C30.3994 19.5581 30.041 19.1997 29.5994 19.1997H26.3996Z" fill="url(#paint3_linear)"/>
<path d="M21.5995 19.1997H18.3996C17.958 19.1997 17.5996 19.5581 17.5996 19.9997C17.5996 20.4412 17.958 20.7996 18.3996 20.7996H19.1995C19.1995 21.2412 19.5579 21.5996 19.9995 21.5996C20.441 21.5996 20.7994 21.2412 20.7994 20.7996H21.5994C22.041 20.7996 22.3994 20.4412 22.3994 19.9997C22.3995 19.5581 22.0411 19.1997 21.5995 19.1997Z" fill="url(#paint4_linear)"/>
<path d="M19.1845 39.0427C19.1093 38.6691 18.7813 38.3995 18.3998 38.3995C7.48872 38.3995 2.0736 40.0491 0.824027 43.8051L0.024069 47.005C-0.0830858 47.4345 0.177629 47.869 0.605686 47.9754C0.67131 47.9922 0.73684 47.9994 0.800871 47.9994C1.15927 47.9994 1.48571 47.7569 1.57608 47.3938L2.35926 44.253C3.29121 41.4546 8.3272 40.0626 17.7446 40.0019L19.2158 47.3562C19.3023 47.7898 19.7214 48.0714 20.1566 47.9842C20.5902 47.897 20.871 47.4754 20.7846 47.0426L19.1845 39.0427Z" fill="url(#paint5_linear)"/>
<path d="M21.6002 29.1116C21.589 29.1116 20.4883 29.098 19.9162 27.9532C19.7186 27.5581 19.2386 27.398 18.8426 27.5957C18.4475 27.7933 18.2875 28.274 18.4851 28.6693C19.4947 30.6884 21.5147 30.7117 21.6002 30.7117C22.0418 30.7117 22.4002 30.3533 22.4002 29.9117C22.4002 29.4702 22.0419 29.1116 21.6002 29.1116Z" fill="url(#paint6_linear)"/>
</g>
<defs>
<linearGradient id="paint0_linear" x1="23.9995" y1="0" x2="23.9995" y2="36.7995" gradientUnits="userSpaceOnUse">
<stop stop-color="#FF003D"/>
<stop offset="0.563536" stop-color="#FF0000"/>
<stop offset="1" stop-color="#FF3D00"/>
</linearGradient>
<linearGradient id="paint1_linear" x1="37.5991" y1="38.4323" x2="37.5991" y2="47.9994" gradientUnits="userSpaceOnUse">
<stop stop-color="#FF003D"/>
<stop offset="0.563536" stop-color="#FF0000"/>
<stop offset="1" stop-color="#FF3D00"/>
</linearGradient>
<linearGradient id="paint2_linear" x1="23.9996" y1="38.3995" x2="23.9996" y2="47.9994" gradientUnits="userSpaceOnUse">
<stop stop-color="#FF003D"/>
<stop offset="0.563536" stop-color="#FF0000"/>
<stop offset="1" stop-color="#FF3D00"/>
</linearGradient>
<linearGradient id="paint3_linear" x1="27.9995" y1="19.1997" x2="27.9995" y2="21.5996" gradientUnits="userSpaceOnUse">
<stop stop-color="#FF003D"/>
<stop offset="0.563536" stop-color="#FF0000"/>
<stop offset="1" stop-color="#FF3D00"/>
</linearGradient>
<linearGradient id="paint4_linear" x1="19.9995" y1="19.1997" x2="19.9995" y2="21.5996" gradientUnits="userSpaceOnUse">
<stop stop-color="#FF003D"/>
<stop offset="0.563536" stop-color="#FF0000"/>
<stop offset="1" stop-color="#FF3D00"/>
</linearGradient>
<linearGradient id="paint5_linear" x1="10.4001" y1="38.3995" x2="10.4001" y2="48" gradientUnits="userSpaceOnUse">
<stop stop-color="#FF003D"/>
<stop offset="0.563536" stop-color="#FF0000"/>
<stop offset="1" stop-color="#FF3D00"/>
</linearGradient>
<linearGradient id="paint6_linear" x1="20.4003" y1="27.511" x2="20.4003" y2="30.7117" gradientUnits="userSpaceOnUse">
<stop stop-color="#FF003D"/>
<stop offset="0.563536" stop-color="#FF0000"/>
<stop offset="1" stop-color="#FF3D00"/>
</linearGradient>
<clipPath id="clip0">
<rect width="48" height="48" fill="white"/>
</clipPath>
</defs>
</svg>
