<svg width="48" height="48" viewBox="0 0 48 48" fill="none" xmlns="http://www.w3.org/2000/svg">
<path d="M11.9992 28.7999C12.4416 28.7999 12.7992 28.4415 12.7992 28V26.3999C12.7992 25.9584 12.4416 25.6 11.9992 25.6C11.5568 25.6 11.1992 25.9584 11.1992 26.3999V28C11.1992 28.4415 11.5568 28.7999 11.9992 28.7999Z" fill="url(#paint0_linear)"/>
<path d="M35.9992 25.6C35.5568 25.6 35.1992 25.9584 35.1992 26.3999V28C35.1992 28.4415 35.5568 28.7999 35.9992 28.7999C36.4416 28.7999 36.7992 28.4415 36.7992 28V26.3999C36.7992 25.9584 36.4416 25.6 35.9992 25.6Z" fill="url(#paint1_linear)"/>
<path d="M36.7667 40.604C36.7515 40.5472 36.7275 40.496 36.7011 40.4432C36.6859 40.4152 36.6827 40.3832 36.6651 40.356C36.6562 40.344 36.6435 40.3377 36.6347 40.3257C36.6011 40.2817 36.5595 40.2464 36.5171 40.2088C36.4779 40.1737 36.4403 40.1393 36.3947 40.1136C36.3811 40.1048 36.3731 40.092 36.3579 40.084L33.158 38.4839C32.9003 38.3567 32.5947 38.3751 32.3564 38.5344L27.5556 41.7343C27.3332 41.8831 27.1996 42.1328 27.1996 42.4V45.2368C26.7236 45.6176 25.5547 46.3999 23.9996 46.3999C22.4596 46.3999 21.2796 45.6135 20.7996 45.2343V42.3999C20.7996 42.1327 20.6661 41.883 20.4437 41.7343L15.6437 38.5343C15.4053 38.3751 15.0996 38.3567 14.8421 38.4838L11.6421 40.0839C11.6277 40.0911 11.6197 40.1038 11.607 40.1119C11.559 40.1391 11.519 40.1751 11.4782 40.2127C11.4374 40.2487 11.3982 40.2815 11.367 40.3231C11.3574 40.336 11.343 40.3431 11.3342 40.3559C11.315 40.3847 11.3118 40.4175 11.2966 40.4488C11.2717 40.4983 11.2477 40.5472 11.2334 40.6016C11.2206 40.6512 11.2166 40.7 11.2142 40.7512C11.211 40.8016 11.2086 40.8504 11.2149 40.9016C11.2213 40.9575 11.2398 41.0087 11.2581 41.0616C11.2693 41.0936 11.2686 41.1272 11.2837 41.1576C11.291 41.172 11.3046 41.1808 11.3125 41.1944C11.339 41.2408 11.375 41.28 11.4117 41.3208C11.4477 41.3608 11.4813 41.4008 11.5229 41.4328C11.5357 41.4424 11.5429 41.4568 11.5557 41.4657L16.3557 44.6656C16.4925 44.7569 16.6469 44.8001 16.7989 44.8001C17.0572 44.8001 17.3117 44.6753 17.4652 44.4441C17.7109 44.0761 17.6117 43.5793 17.2436 43.3345L13.59 40.8993L15.142 40.1233L19.1996 42.8281V45.6C19.1996 45.812 19.2836 46.016 19.434 46.1656C19.5091 46.2408 21.2995 48 23.9995 48C26.6995 48 28.49 46.2408 28.5651 46.1656C28.7155 46.016 28.7995 45.812 28.7995 45.6V42.828L32.858 40.1233L34.4091 40.8992L30.7555 43.3344C30.3876 43.5792 30.2884 44.0759 30.5339 44.444C30.6875 44.6752 30.9419 44.8 31.2003 44.8C31.3522 44.8 31.5066 44.7568 31.6434 44.6655L36.4434 41.4656C36.4563 41.4568 36.4626 41.4432 36.4746 41.4336C36.5195 41.4008 36.5546 41.3592 36.5922 41.3168C36.6258 41.2768 36.6602 41.2408 36.6858 41.1959C36.6937 41.1815 36.7082 41.1728 36.7161 41.1575C36.7322 41.1247 36.7322 41.0895 36.7433 41.0559C36.7601 41.0054 36.7777 40.9574 36.7841 40.9047C36.7913 40.8503 36.7889 40.7991 36.785 40.7455C36.7827 40.6977 36.7795 40.6513 36.7667 40.604Z" fill="url(#paint2_linear)"/>
<path d="M5.34783 38.3592C5.43183 38.3864 5.51742 38.4 5.60067 38.4C5.93583 38.4 6.24783 38.188 6.35911 37.8528C6.45904 37.5536 8.80064 30.4552 8.80064 24V16.8C8.80064 4.23684 17.0662 1.60003 24.0006 1.60003C26.363 1.60003 31.279 1.60003 32.0302 2.64328C32.0614 2.68566 32.1078 2.74969 32.0422 2.94731C31.9526 3.21375 32.0102 3.50653 32.1926 3.71934C32.375 3.93291 32.6549 4.03453 32.9318 3.98897C33.9502 3.82097 34.8454 4.07616 35.6678 4.77216C37.8142 6.59053 39.2006 11.3122 39.2006 16.8002V24C39.2006 31.2616 41.551 37.6144 41.651 37.8808C41.8063 38.2944 42.267 38.5032 42.6814 38.3497C43.095 38.1945 43.3046 37.7336 43.1503 37.3192C43.1262 37.2568 40.8006 30.9616 40.8006 24V16.8C40.8006 12.0736 39.7238 6.11119 36.7022 3.55116C35.7886 2.77838 34.7399 2.36794 33.6239 2.34159C33.5598 2.08162 33.4454 1.86956 33.3286 1.70719C32.1902 0.128812 28.431 0 24.0006 0C13.167 0 7.20061 5.96644 7.20061 16.8V24C7.20061 30.1912 4.86539 37.276 4.84223 37.3472C4.70217 37.7664 4.92858 38.2192 5.34783 38.3592Z" fill="url(#paint3_linear)"/>
<path d="M8.60622 40.024C1.85734 41.7111 0.111812 46.7336 0.0414056 46.9471C-0.0985632 47.3663 0.127843 47.8191 0.546999 47.9592C0.630999 47.9872 0.716593 47.9999 0.799749 47.9999C1.135 47.9999 1.447 47.788 1.55819 47.4527C1.57337 47.4088 3.08781 43.0519 8.99341 41.5759C9.42222 41.4688 9.68303 41.0343 9.57578 40.6055C9.46863 40.1775 9.03419 39.916 8.60622 40.024Z" fill="url(#paint4_linear)"/>
<path d="M20 22.3999C20.4424 22.3999 20.7999 22.0415 20.7999 21.6V21.0736C20.8511 21.1232 20.8864 21.1639 20.8903 21.1696C21.0327 21.4431 21.3119 21.6 21.6008 21.6C21.7248 21.6 21.8512 21.5712 21.9696 21.5096C22.3608 21.3056 22.5136 20.8224 22.3096 20.4304C22.072 19.9736 21.3168 19.2001 20 19.2001C18.6832 19.2001 17.928 19.9737 17.6904 20.4304C17.4911 20.8136 17.6392 21.2713 18.0144 21.4833C18.3879 21.6952 18.872 21.56 19.0975 21.1905C19.1055 21.1785 19.1447 21.1321 19.1999 21.0784V21.6001C19.2 22.0415 19.5576 22.3999 20 22.3999Z" fill="url(#paint5_linear)"/>
<path d="M47.9588 46.9472C47.8884 46.7336 46.1428 41.7111 39.394 40.024C38.9652 39.9152 38.5316 40.1776 38.4245 40.6056C38.3173 41.0345 38.578 41.4688 39.0068 41.576C44.8685 43.0416 46.3812 47.2769 46.4421 47.4529C46.5532 47.7881 46.8652 48.0001 47.2005 48.0001C47.2837 48.0001 47.3693 47.9872 47.4533 47.9593C47.8725 47.8191 48.0989 47.3664 47.9588 46.9472Z" fill="url(#paint6_linear)"/>
<path d="M24.001 31.2C25.8786 31.2 26.861 30.2712 26.9666 30.1656C27.2754 29.8568 27.2746 29.3624 26.9714 29.0487C26.6666 28.7351 26.1642 28.7263 25.845 29.0256C25.8194 29.0487 25.2162 29.6 24.001 29.6C22.8034 29.6 22.2003 29.0648 22.1586 29.0264C21.8474 28.7216 21.3458 28.724 21.0354 29.0344C20.7226 29.3472 20.7226 29.8528 21.0354 30.1656C21.141 30.2712 22.1234 31.2 24.001 31.2Z" fill="url(#paint7_linear)"/>
<path d="M28 22.3999C28.4424 22.3999 28.7999 22.0415 28.7999 21.6V21.0736C28.8511 21.1232 28.8864 21.1639 28.8903 21.1696C29.0327 21.4431 29.3119 21.6 29.6008 21.6C29.7248 21.6 29.8512 21.5712 29.9696 21.5096C30.3608 21.3056 30.5136 20.8224 30.3096 20.4304C30.072 19.9736 29.3168 19.2001 28 19.2001C26.6832 19.2001 25.928 19.9737 25.6904 20.4304C25.4911 20.8136 25.6392 21.2713 26.0144 21.4833C26.3888 21.6952 26.8727 21.56 27.0975 21.1905C27.1055 21.1785 27.1447 21.1321 27.1999 21.0784V21.6001C27.1999 22.0415 27.5576 22.3999 28 22.3999Z" fill="url(#paint8_linear)"/>
<path d="M36.48 17.7608C35.6792 17.1568 33.5992 15.2336 33.5992 13.6C33.5992 13.1585 33.2416 12.8001 32.7992 12.8001C32.3568 12.8001 31.9993 13.1585 31.9993 13.6C31.9993 15.9136 34.2824 18.0296 35.1881 18.7777C35.016 21.916 32.8521 27.7048 32.0833 29.2425C31.3657 30.6785 27.5688 35.2001 23.9993 35.2001C20.4298 35.2001 16.6329 30.6786 15.9153 29.2425C15.1145 27.6409 12.7993 21.4257 12.7993 18.4001V15.9881C15.9714 15.9129 27.5482 15.3385 33.2793 11.0401C33.6329 10.7752 33.7049 10.2737 33.4393 9.92006C33.1745 9.56643 32.6729 9.49443 32.3193 9.76003C26.208 14.3432 12.1407 14.4 11.9992 14.4C11.5568 14.4 11.1992 14.7584 11.1992 15.2V18.3999C11.1992 21.8335 13.7184 28.4279 14.4832 29.9575C15.4568 31.9047 19.7176 36.8 23.9992 36.8C28.2808 36.8 32.5416 31.9047 33.5152 29.9575C34.28 28.4279 36.7992 21.8335 36.7992 18.3999C36.7992 18.1488 36.6807 17.912 36.48 17.7608Z" fill="url(#paint9_linear)"/>
<defs>
<linearGradient id="paint0_linear" x1="11.9992" y1="25.6" x2="11.9992" y2="28.7999" gradientUnits="userSpaceOnUse">
<stop stop-color="#FF003D"/>
<stop offset="0.563536" stop-color="#FF0000"/>
<stop offset="1" stop-color="#FF3D00"/>
</linearGradient>
<linearGradient id="paint1_linear" x1="35.9992" y1="25.6" x2="35.9992" y2="28.7999" gradientUnits="userSpaceOnUse">
<stop stop-color="#FF003D"/>
<stop offset="0.563536" stop-color="#FF0000"/>
<stop offset="1" stop-color="#FF3D00"/>
</linearGradient>
<linearGradient id="paint2_linear" x1="23.9998" y1="38.4001" x2="23.9998" y2="48" gradientUnits="userSpaceOnUse">
<stop stop-color="#FF003D"/>
<stop offset="0.563536" stop-color="#FF0000"/>
<stop offset="1" stop-color="#FF3D00"/>
</linearGradient>
<linearGradient id="paint3_linear" x1="24.0009" y1="0" x2="24.0009" y2="38.4001" gradientUnits="userSpaceOnUse">
<stop stop-color="#FF003D"/>
<stop offset="0.563536" stop-color="#FF0000"/>
<stop offset="1" stop-color="#FF3D00"/>
</linearGradient>
<linearGradient id="paint4_linear" x1="4.79994" y1="39.9996" x2="4.79994" y2="47.9999" gradientUnits="userSpaceOnUse">
<stop stop-color="#FF003D"/>
<stop offset="0.563536" stop-color="#FF0000"/>
<stop offset="1" stop-color="#FF3D00"/>
</linearGradient>
<linearGradient id="paint5_linear" x1="20.0008" y1="19.2001" x2="20.0008" y2="22.3999" gradientUnits="userSpaceOnUse">
<stop stop-color="#FF003D"/>
<stop offset="0.563536" stop-color="#FF0000"/>
<stop offset="1" stop-color="#FF3D00"/>
</linearGradient>
<linearGradient id="paint6_linear" x1="43.2003" y1="39.9994" x2="43.2003" y2="48.0001" gradientUnits="userSpaceOnUse">
<stop stop-color="#FF003D"/>
<stop offset="0.563536" stop-color="#FF0000"/>
<stop offset="1" stop-color="#FF3D00"/>
</linearGradient>
<linearGradient id="paint7_linear" x1="23.9996" y1="28.7997" x2="23.9996" y2="31.2" gradientUnits="userSpaceOnUse">
<stop stop-color="#FF003D"/>
<stop offset="0.563536" stop-color="#FF0000"/>
<stop offset="1" stop-color="#FF3D00"/>
</linearGradient>
<linearGradient id="paint8_linear" x1="28.0008" y1="19.2001" x2="28.0008" y2="22.3999" gradientUnits="userSpaceOnUse">
<stop stop-color="#FF003D"/>
<stop offset="0.563536" stop-color="#FF0000"/>
<stop offset="1" stop-color="#FF3D00"/>
</linearGradient>
<linearGradient id="paint9_linear" x1="23.9992" y1="9.59973" x2="23.9992" y2="36.8" gradientUnits="userSpaceOnUse">
<stop stop-color="#FF003D"/>
<stop offset="0.563536" stop-color="#FF0000"/>
<stop offset="1" stop-color="#FF3D00"/>
</linearGradient>
</defs>
</svg>
