<svg width="48" height="48" viewBox="0 0 48 48" fill="none" xmlns="http://www.w3.org/2000/svg">
<g clip-path="url(#clip0)">
<path d="M22.3995 20C22.3995 19.5584 22.0411 19.2 21.5995 19.2H18.3996C17.958 19.2 17.5996 19.5584 17.5996 20C17.5996 20.4415 17.958 20.7999 18.3996 20.7999H19.1995C19.1995 21.2415 19.5579 21.5999 19.9995 21.5999C20.4411 21.5999 20.7995 21.2415 20.7995 20.7999H21.5994C22.0411 20.7999 22.3995 20.4415 22.3995 20Z" fill="url(#paint0_linear)"/>
<path d="M11.3999 23.924C11.8279 25.1864 13.0103 28.6096 13.6847 29.9575C14.9551 32.4991 18.5575 36.7999 23.9998 36.7999C29.4422 36.7999 33.0446 32.4992 34.3158 29.9575C34.9894 28.6095 36.1717 25.1863 36.6005 23.924C37.6341 23.6568 38.3997 22.716 38.3997 21.6V18.4001C38.3997 17.3569 37.7309 16.4672 36.7997 16.1369V12.0001C36.7997 8.84165 35.1364 3.00733 28.9852 2.44408C28.9724 2.06646 28.8469 1.76252 28.7084 1.53771C27.9228 0.266559 25.714 0.00012207 23.9996 0.00012207C9.76451 0.00012207 9.5997 13.4641 9.5997 13.6001C9.5997 14.0417 9.95726 14.3993 10.3989 14.3993H10.3998C10.8406 14.3993 11.199 14.0425 11.1997 13.6009C11.2013 13.1114 11.3813 1.60015 23.9996 1.60015C26.262 1.60015 27.1685 2.08971 27.3468 2.3793C27.3732 2.42008 27.4404 2.52967 27.2844 2.84252C27.1603 3.09048 27.1739 3.38495 27.3195 3.62092C27.4651 3.85614 27.7227 4.00014 27.9995 4.00014C35.0922 4.00014 35.1986 11.6745 35.1994 12.0001V16.8001C35.1994 17.2416 35.5578 17.6 35.9994 17.6C36.4402 17.6 36.7994 17.9592 36.7994 18.4V21.5999C36.7994 22.0408 36.4402 22.3999 35.9994 22.3999C35.6554 22.3999 35.3498 22.6199 35.2402 22.9471C35.225 22.9943 33.6499 27.7111 32.8842 29.2423C32.7626 29.4855 29.8378 35.1999 23.9995 35.1999C18.1611 35.1999 15.2371 29.4855 15.1155 29.2423C14.3499 27.7111 12.7739 22.9944 12.7587 22.9471C12.6498 22.6199 12.3443 22.3999 11.9995 22.3999C11.5587 22.3999 11.1995 22.0408 11.1995 21.5999V18.4C11.1995 18.1831 11.2867 17.9864 11.4267 17.8424C11.7451 18.5567 12.4211 19.1999 13.5995 19.1999C13.9027 19.1999 14.1796 19.0288 14.3155 18.7575C15.0219 17.3456 15.7483 15.8912 15.9466 14.3839C20.0402 14.2191 26.1634 12.7599 29.0474 10.5304C29.8162 13.3207 32.117 15.6487 32.2338 15.7655C32.5466 16.0784 33.053 16.0784 33.365 15.7655C33.6778 15.4528 33.6778 14.9471 33.365 14.6343C33.3353 14.6047 30.3994 11.636 30.3994 8.79993C30.3994 8.44077 30.1594 8.12475 29.813 8.02875C29.4658 7.93275 29.0986 8.07993 28.9138 8.3879C27.5498 10.6607 20.0314 12.7999 15.1995 12.7999C14.7579 12.7999 14.3995 13.1583 14.3995 13.5998C14.3995 14.8462 13.8251 16.1406 13.1539 17.4998C12.882 17.3494 12.8068 17.0542 12.7996 16.7998C12.7996 16.3582 12.4412 15.9998 11.9996 15.9998C10.6764 15.9998 9.59961 17.0766 9.59961 18.3998V21.5998C9.59989 22.716 10.3663 23.6568 11.3999 23.924Z" fill="url(#paint1_linear)"/>
<path d="M24.0004 31.2C25.878 31.2 26.8604 30.2712 26.966 30.1656C27.2748 29.8567 27.2739 29.3624 26.9707 29.0487C26.6667 28.7343 26.1627 28.7263 25.8436 29.0256C25.8187 29.0487 25.2156 29.6 24.0004 29.6C22.8028 29.6 22.1995 29.0647 22.158 29.0264C21.8452 28.7216 21.3444 28.7248 21.0348 29.0344C20.7228 29.3472 20.7228 29.8528 21.0348 30.1656C21.1412 30.2711 22.1236 31.2 24.0004 31.2Z" fill="url(#paint2_linear)"/>
<path d="M24.8227 26.4C24.8227 25.9584 24.4652 25.6 24.0227 25.6H24.0148C23.5732 25.6 23.2188 25.9584 23.2188 26.4C23.2188 26.8416 23.5812 27.2 24.0227 27.2C24.4652 27.2 24.8227 26.8416 24.8227 26.4Z" fill="url(#paint3_linear)"/>
<path d="M47.9759 47.0056L47.159 43.7473C46.7479 42.5137 44.3198 38.5456 30.3999 38.4376V37.6001C30.3999 37.1585 30.0415 36.8001 29.5999 36.8001C29.1584 36.8001 28.8 37.1585 28.8 37.6001V39.2001C28.8 39.2057 28.8031 39.2105 28.8031 39.2161C28.8031 39.2209 28.8 39.2249 28.8 39.2306C28.7968 39.7185 28.636 44.0002 24 44.0002C19.364 44.0002 19.2032 39.689 19.2 39.2002V37.6002C19.2 37.1586 18.8416 36.8002 18.4 36.8002C17.9585 36.8002 17.6001 37.1586 17.6001 37.6002V38.4082C7.23444 38.4896 2.0424 40.144 0.824032 43.8056L0.0240666 47.0055C-0.0830892 47.4343 0.177629 47.8687 0.606439 47.9759C1.03366 48.0831 1.46884 47.8224 1.576 47.3943L2.35918 44.2528C3.2888 41.4647 8.29438 40.072 17.6527 40.0023C17.9432 42.2927 19.5007 45.5999 24 45.5999C28.4984 45.5999 30.0559 42.3128 30.3471 40.0344C41.3119 40.1152 45.1247 42.7032 45.6239 44.1944L46.4239 47.3943C46.5151 47.7575 46.8407 47.9999 47.1991 47.9999C47.2639 47.9999 47.3286 47.9927 47.3943 47.9759C47.8231 47.8688 48.083 47.4344 47.9759 47.0056Z" fill="url(#paint4_linear)"/>
<path d="M27.9996 21.6C28.4412 21.6 28.7996 21.2416 28.7996 20.8001H29.5995C30.0411 20.8001 30.3995 20.4417 30.3995 20.0001C30.3995 19.5585 30.0411 19.2001 29.5995 19.2001H26.3996C25.958 19.2001 25.5996 19.5585 25.5996 20.0001C25.5996 20.4417 25.958 20.8001 26.3996 20.8001H27.1995C27.1995 21.2416 27.5579 21.6 27.9996 21.6Z" fill="url(#paint5_linear)"/>
</g>
<defs>
<linearGradient id="paint0_linear" x1="19.9996" y1="19.2" x2="19.9996" y2="21.5999" gradientUnits="userSpaceOnUse">
<stop stop-color="#FF003D"/>
<stop offset="0.563536" stop-color="#FF0000"/>
<stop offset="1" stop-color="#FF3D00"/>
</linearGradient>
<linearGradient id="paint1_linear" x1="23.9996" y1="0.00012207" x2="23.9996" y2="36.7999" gradientUnits="userSpaceOnUse">
<stop stop-color="#FF003D"/>
<stop offset="0.563536" stop-color="#FF0000"/>
<stop offset="1" stop-color="#FF3D00"/>
</linearGradient>
<linearGradient id="paint2_linear" x1="23.9993" y1="28.8" x2="23.9993" y2="31.2" gradientUnits="userSpaceOnUse">
<stop stop-color="#FF003D"/>
<stop offset="0.563536" stop-color="#FF0000"/>
<stop offset="1" stop-color="#FF3D00"/>
</linearGradient>
<linearGradient id="paint3_linear" x1="24.0207" y1="25.6" x2="24.0207" y2="27.2" gradientUnits="userSpaceOnUse">
<stop stop-color="#FF003D"/>
<stop offset="0.563536" stop-color="#FF0000"/>
<stop offset="1" stop-color="#FF3D00"/>
</linearGradient>
<linearGradient id="paint4_linear" x1="24" y1="36.8001" x2="24" y2="48" gradientUnits="userSpaceOnUse">
<stop stop-color="#FF003D"/>
<stop offset="0.563536" stop-color="#FF0000"/>
<stop offset="1" stop-color="#FF3D00"/>
</linearGradient>
<linearGradient id="paint5_linear" x1="27.9996" y1="19.2001" x2="27.9996" y2="21.6" gradientUnits="userSpaceOnUse">
<stop stop-color="#FF003D"/>
<stop offset="0.563536" stop-color="#FF0000"/>
<stop offset="1" stop-color="#FF3D00"/>
</linearGradient>
<clipPath id="clip0">
<rect width="48" height="48" fill="white"/>
</clipPath>
</defs>
</svg>
