<svg width="120" height="120" viewBox="0 0 120 120" fill="none" xmlns="http://www.w3.org/2000/svg">
<circle cx="60" cy="60" r="60" fill="#FFCEDA"/>
<g clip-path="url(#clip0)">
<path d="M85.0519 71.7074C85.0532 71.1411 84.8968 70.5865 84.5994 70.1043L81.7165 65.4632C81.3572 64.7496 81.171 63.9611 81.1735 63.1621V48.8638C81.1735 39.5816 73.6495 32.0576 64.3672 32.0576H56.6105C47.3282 32.0576 39.8042 39.5816 39.8042 48.8638V63.1621C39.8069 63.9611 39.6207 64.7497 39.2612 65.4632L36.3783 70.1043C36.0809 70.5865 35.9245 71.1411 35.9258 71.7074C35.9322 73.3687 37.2768 74.7131 38.9379 74.7196H82.0395C83.7009 74.7131 85.0455 73.3685 85.0519 71.7074Z" fill="#4FBA6F"/>
<path d="M64.3691 32.0583L70.833 23.0088H50.1484L56.6123 32.0583V34.6438H64.3691V32.0583Z" fill="#4FBA6F"/>
<path d="M66.9558 51.4501V50.6228C66.9494 48.2272 65.0076 46.2855 62.612 46.2789H61.7847V43.6934H59.1991V46.2789H58.3717C55.9723 46.2712 54.0215 48.209 54.0137 50.6084C54.0073 52.43 55.1384 54.0615 56.8463 54.6949L59.1991 55.5739V60.4995H58.3717C57.4008 60.4995 56.6135 59.7121 56.6135 58.7412V57.9139H54.0279V58.7412C54.0344 61.1368 55.9761 63.0784 58.3717 63.085H62.6121C65.0115 63.0928 66.9624 61.155 66.9702 58.7556C66.9766 56.934 65.8455 55.3025 64.1376 54.6691L61.7848 53.7901V48.8645H62.6121C63.583 48.8645 64.3704 49.6519 64.3704 50.6228V51.4501H66.9558ZM63.2327 57.0867C63.9153 57.3517 64.3664 58.0085 64.3702 58.7415C64.3702 59.7124 63.5829 60.4998 62.612 60.4998H61.7847V56.5438L63.2327 57.0867ZM59.1992 52.8205L57.7512 52.2775C57.0686 52.0125 56.6174 51.3556 56.6136 50.6226C56.6136 49.6517 57.401 48.8644 58.3719 48.8644H59.1992V52.8205Z" fill="white"/>
<path d="M86.345 35.9371C85.9054 33.2842 83.8266 31.2055 81.1738 30.7659C83.8266 30.3263 85.9054 28.2475 86.345 25.5947C86.7846 28.2475 88.8633 30.3263 91.5162 30.7659C88.8633 31.2055 86.7846 33.2844 86.345 35.9371Z" fill="#FFCD00"/>
<path d="M28.1712 61.7924C27.7316 59.1397 25.6528 57.0608 23 56.6214C25.6528 56.1818 27.7316 54.103 28.1712 51.4502C28.6108 54.103 30.6895 56.1818 33.3423 56.6214C30.6895 57.0608 28.6106 59.1397 28.1712 61.7924Z" fill="#FFCD00"/>
<path d="M97.4266 68.1148C96.3652 66.3281 94.0847 65.696 92.2555 66.6798L73.9108 74.5141C73.5877 74.651 73.2399 74.7222 72.8896 74.7209H50.1494C48.7209 74.7209 47.5638 73.5638 47.5638 72.1353C47.5638 70.7068 48.7209 69.5497 50.1494 69.5497H60.4917C64.7761 69.5497 68.2485 66.0773 68.2485 61.793H46.7365C43.1709 61.7956 39.7994 63.4181 37.5707 66.2014L29.4648 76.0136L38.592 92.7422L73.717 84.3004C75.2348 83.95 76.7034 83.4122 78.0867 82.6972L96.1856 73.4279C97.9865 72.2969 98.5398 69.9272 97.4266 68.1148Z" fill="#FFEED6"/>
<path d="M35.6816 87.4156L38.5904 92.7419L73.7154 84.3C75.2331 83.9496 76.7018 83.4119 78.085 82.6969L87.8715 77.668C71.6081 82.6452 50.0186 85.7479 35.6816 87.4156Z" fill="#FFEED6"/>
<path d="M23 74.7201V97.9902H39.8062L43.6845 94.1119L28.1712 70.8418L23 74.7201Z" fill="#E00000"/>
<path d="M23 97.9912H39.8062L43.6845 94.1129L40.8404 89.8467C35.0902 92.2202 29.1123 94.0004 23 95.1601V97.9912Z" fill="#FF0000"/>
<path d="M34.6344 94.1155C36.0624 94.1155 37.22 92.9579 37.22 91.5299C37.22 90.1019 36.0624 88.9443 34.6344 88.9443C33.2064 88.9443 32.0488 90.1019 32.0488 91.5299C32.0488 92.9579 33.2064 94.1155 34.6344 94.1155Z" fill="#D9D9D9"/>
</g>
<defs>
<clipPath id="clip0">
<rect x="23" y="23" width="75" height="75" fill="white"/>
</clipPath>
</defs>
</svg>
