<svg width="120" height="120" viewBox="0 0 120 120" fill="none" xmlns="http://www.w3.org/2000/svg">
<circle cx="60" cy="60" r="60" fill="#FFCEDA"/>
<path d="M28.8123 37.8571H25.8594V33.5714C25.8594 31.2981 26.7927 29.1179 28.4541 27.5105C30.1154 25.9031 32.3687 25 34.7182 25C37.0677 25 39.321 25.9031 40.9823 27.5105C42.6437 29.1179 43.577 31.2981 43.577 33.5714V34.9999H40.6241V33.5714C40.6241 32.0559 40.0018 30.6024 38.8943 29.5308C37.7867 28.4592 36.2845 27.8571 34.7182 27.8571C33.1519 27.8571 31.6497 28.4592 30.5421 29.5308C29.4345 30.6024 28.8123 32.0559 28.8123 33.5714V37.8571Z" fill="#7A96A8"/>
<path d="M95.9891 89.2865H83.4391C83.0475 89.2865 82.672 89.136 82.3951 88.868C82.1182 88.6001 81.9626 88.2368 81.9626 87.8579C81.9626 87.479 82.1182 87.1157 82.3951 86.8477C82.672 86.5798 83.0475 86.4293 83.4391 86.4293H95.9891C97.3596 86.4293 98.674 85.9026 99.6432 84.9649C100.612 84.0272 101.157 82.7554 101.157 81.4294C101.157 80.1033 100.612 78.8315 99.6432 77.8939C98.674 76.9562 97.3596 76.4294 95.9891 76.4294H79.0097C78.6181 76.4294 78.2425 76.2789 77.9657 76.011C77.6888 75.7431 77.5332 75.3797 77.5332 75.0008C77.5332 74.622 77.6888 74.2586 77.9657 73.9907C78.2425 73.7228 78.6181 73.5723 79.0097 73.5723H95.9891C98.1428 73.5723 100.208 74.4001 101.731 75.8736C103.254 77.347 104.11 79.3455 104.11 81.4294C104.11 83.5132 103.254 85.5117 101.731 86.9852C100.208 88.4587 98.1428 89.2865 95.9891 89.2865Z" fill="#7A96A8"/>
<path d="M79.7511 33.5713H36.9335C35.7103 33.5713 34.7188 34.5307 34.7188 35.7141V92.8567C34.7188 94.0401 35.7103 94.9995 36.9335 94.9995H79.7511C80.9742 94.9995 81.9658 94.0401 81.9658 92.8567V35.7141C81.9658 34.5307 80.9742 33.5713 79.7511 33.5713Z" fill="#D18D28"/>
<path d="M66.4637 30.7143H61.296V27.8571C61.296 27.0994 60.9849 26.3726 60.4311 25.8368C59.8774 25.301 59.1263 25 58.3431 25C57.5599 25 56.8088 25.301 56.2551 25.8368C55.7013 26.3726 55.3902 27.0994 55.3902 27.8571V30.7143H50.2225C49.6351 30.7143 49.0718 30.94 48.6565 31.3419C48.2411 31.7437 48.0078 32.2888 48.0078 32.8571V39.2856H68.6784V32.8571C68.6784 32.2888 68.4451 31.7437 68.0297 31.3419C67.6144 30.94 67.0511 30.7143 66.4637 30.7143Z" fill="#44697E"/>
<path d="M40.6211 39.2861H76.0564V89.2858H40.6211V39.2861Z" fill="white"/>
<path d="M46.5312 63.5684H52.4371V69.2826H46.5312V63.5684Z" fill="#D0E2E7"/>
<path d="M46.5312 74.999H52.4371V80.7133H46.5312V74.999Z" fill="#D0E2E7"/>
<path d="M56.8633 56.4277H71.628V59.2849H56.8633V56.4277Z" fill="#D0E2E7"/>
<path d="M56.8633 64.999H61.2927V67.8561H56.8633V64.999Z" fill="#D0E2E7"/>
<path d="M64.25 64.999H71.6324V67.8561H64.25V64.999Z" fill="#D0E2E7"/>
<path d="M56.8633 79.2832H64.2456V82.1403H56.8633V79.2832Z" fill="#D0E2E7"/>
<path d="M56.8633 73.5703H65.7221V76.4274H56.8633V73.5703Z" fill="#D0E2E7"/>
<path d="M68.6777 73.5703H71.6307V76.4274H68.6777V73.5703Z" fill="#D0E2E7"/>
<path d="M49.4841 59.2852C49.2902 59.2853 49.0982 59.2483 48.9191 59.1765C48.74 59.1047 48.5772 58.9995 48.4401 58.8669L45.4871 56.0097C45.2102 55.7418 45.0547 55.3784 45.0547 54.9996C45.0547 54.6207 45.2102 54.2573 45.4871 53.9894C45.764 53.7215 46.1396 53.571 46.5312 53.571C46.9228 53.571 47.2983 53.7215 47.5752 53.9894L49.3243 55.6817L52.7324 51.2853C52.8487 51.1352 52.9945 51.0088 53.1613 50.9132C53.3281 50.8176 53.5128 50.7548 53.7047 50.7282C53.8967 50.7017 54.0922 50.712 54.28 50.7586C54.4678 50.8051 54.6443 50.887 54.7994 50.9996C54.9545 51.1121 55.0852 51.2532 55.184 51.4146C55.2828 51.576 55.3478 51.7547 55.3752 51.9404C55.4026 52.1261 55.3919 52.3152 55.3438 52.497C55.2957 52.6787 55.2111 52.8495 55.0947 52.9996L50.6653 58.7138C50.5384 58.8775 50.3766 59.0129 50.1908 59.1109C50.0051 59.2088 49.7998 59.267 49.5888 59.2815C49.5537 59.284 49.5188 59.2852 49.4841 59.2852Z" fill="#FF0000"/>
<path d="M61.2926 44.9999H59.8161V43.5713H56.8632V44.9999H55.3867V47.857H56.8632V49.2855H59.8161V47.857H61.2926V44.9999Z" fill="#FF003D"/>
<path d="M24.3824 73.5716C22.8166 73.5699 21.3155 72.9673 20.2083 71.8961C19.1011 70.8248 18.4783 69.3724 18.4766 67.8574V59.286C18.4766 58.9071 18.6321 58.5437 18.909 58.2758C19.1859 58.0079 19.5614 57.8574 19.953 57.8574C20.3446 57.8574 20.7202 58.0079 20.9971 58.2758C21.2739 58.5437 21.4295 58.9071 21.4295 59.286V67.8574C21.4304 68.6148 21.7418 69.341 22.2954 69.8767C22.849 70.4123 23.5996 70.7136 24.3824 70.7145C24.774 70.7145 25.1496 70.865 25.4265 71.1329C25.7034 71.4008 25.8589 71.7642 25.8589 72.1431C25.8589 72.5219 25.7034 72.8853 25.4265 73.1532C25.1496 73.4211 24.774 73.5716 24.3824 73.5716Z" fill="#7A96A8"/>
<path d="M30.289 73.5716C29.8974 73.5716 29.5218 73.4211 29.2449 73.1532C28.9681 72.8853 28.8125 72.5219 28.8125 72.1431C28.8125 71.7642 28.9681 71.4008 29.2449 71.1329C29.5218 70.865 29.8974 70.7145 30.289 70.7145C31.0719 70.7136 31.8224 70.4123 32.376 69.8767C32.9296 69.341 33.241 68.6148 33.2419 67.8574V59.286C33.2419 58.9071 33.3975 58.5437 33.6744 58.2758C33.9513 58.0079 34.3268 57.8574 34.7184 57.8574C35.11 57.8574 35.4855 58.0079 35.7624 58.2758C36.0393 58.5437 36.1949 58.9071 36.1949 59.286V67.8574C36.1931 69.3724 35.5703 70.8248 34.4631 71.8961C33.3559 72.9673 31.8548 73.5699 30.289 73.5716Z" fill="#7A96A8"/>
<path d="M30.2882 43.9861V37.8555H24.3823V43.9861C22.25 44.6025 20.3799 45.8679 19.05 47.5944C17.72 49.3209 17.0011 51.4164 17 53.5697V59.2839H22.9059V53.5697C22.9059 52.433 23.3725 51.3429 24.2032 50.5392C25.0339 49.7355 26.1605 49.284 27.3353 49.284C28.51 49.284 29.6367 49.7355 30.4674 50.5392C31.298 51.3429 31.7647 52.433 31.7647 53.5697V59.2839H37.6706V53.5697C37.6702 51.4162 36.9516 49.3204 35.6215 47.5937C34.2914 45.8671 32.421 44.6019 30.2882 43.9861Z" fill="#44697E"/>
<path d="M79.0113 94.9995C83.0884 94.9995 86.3936 91.8016 86.3936 87.8567C86.3936 83.9118 83.0884 80.7139 79.0113 80.7139C74.9341 80.7139 71.6289 83.9118 71.6289 87.8567C71.6289 91.8016 74.9341 94.9995 79.0113 94.9995Z" fill="#44697E"/>
<path d="M79.0096 90.7143C80.6404 90.7143 81.9625 89.4351 81.9625 87.8571C81.9625 86.2792 80.6404 85 79.0096 85C77.3787 85 76.0566 86.2792 76.0566 87.8571C76.0566 89.4351 77.3787 90.7143 79.0096 90.7143Z" fill="white"/>
<path d="M48.0078 39.2861H68.6784V42.1433H48.0078V39.2861Z" fill="#D0E2E7"/>
</svg>
