<svg width="120" height="120" viewBox="0 0 120 120" fill="none" xmlns="http://www.w3.org/2000/svg">
<circle cx="60" cy="60" r="60" fill="#FFCEDA"/>
<g clip-path="url(#clip0)">
<path d="M47.0236 91.6488C46.4486 91.6488 45.9824 91.1826 45.9824 90.6076V38.3928C45.9824 37.8176 46.4486 37.3516 47.0236 37.3516C47.5987 37.3516 48.0648 37.8177 48.0648 38.3928V90.6076C48.065 91.1826 47.5987 91.6488 47.0236 91.6488Z" fill="#7A96A8"/>
<path d="M100.828 91.6848C100.253 91.6848 99.7871 91.2186 99.7871 90.6436V38.4289C99.7871 37.8537 100.253 37.3877 100.828 37.3877C101.403 37.3877 101.869 37.8538 101.869 38.4289V90.6436C101.87 91.2188 101.403 91.6848 100.828 91.6848Z" fill="#7A96A8"/>
<path d="M38.0529 91.6488C37.4779 91.6488 37.0117 91.1826 37.0117 90.6076V38.3928C37.0117 37.8176 37.4779 37.3516 38.0529 37.3516C38.628 37.3516 39.0941 37.8177 39.0941 38.3928V90.6076C39.0941 91.1826 38.628 91.6488 38.0529 91.6488Z" fill="#7A96A8"/>
<path d="M91.8576 91.6848C91.2826 91.6848 90.8164 91.2186 90.8164 90.6436V38.4289C90.8164 37.8537 91.2826 37.3877 91.8576 37.3877C92.4327 37.3877 92.8988 37.8538 92.8988 38.4289V90.6436C92.8989 91.2188 92.4328 91.6848 91.8576 91.6848Z" fill="#7A96A8"/>
<path d="M55.9924 91.6488C55.4173 91.6488 54.9512 91.1826 54.9512 90.6076V78.2323C54.9512 77.6571 55.4173 77.1911 55.9924 77.1911C56.5674 77.1911 57.0336 77.6573 57.0336 78.2323V90.6076C57.0336 91.1826 56.5674 91.6488 55.9924 91.6488ZM55.9924 53.5069C55.4173 53.5069 54.9512 53.0407 54.9512 52.4657V38.3928C54.9512 37.8176 55.4173 37.3516 55.9924 37.3516C56.5674 37.3516 57.0336 37.8177 57.0336 38.3928V52.4655C57.0336 53.0407 56.5674 53.5069 55.9924 53.5069Z" fill="#7A96A8"/>
<path d="M64.9553 91.6841C64.3802 91.6841 63.9141 91.2179 63.9141 90.6429V78.2834C63.9141 77.7082 64.3802 77.2422 64.9553 77.2422C65.5303 77.2422 65.9965 77.7083 65.9965 78.2834V90.6429C65.9966 91.2181 65.5303 91.6841 64.9553 91.6841ZM64.9553 53.4555C64.3802 53.4555 63.9141 52.9894 63.9141 52.4143V38.3928C63.9141 37.8176 64.3802 37.3516 64.9553 37.3516C65.5303 37.3516 65.9965 37.8177 65.9965 38.3928V52.4143C65.9966 52.9895 65.5303 53.4555 64.9553 53.4555Z" fill="#7A96A8"/>
<path d="M73.926 91.6848C73.3509 91.6848 72.8848 91.2186 72.8848 90.6436V78.2841C72.8848 77.7089 73.3509 77.2429 73.926 77.2429C74.501 77.2429 74.9672 77.709 74.9672 78.2841V90.6436C74.9672 91.2188 74.501 91.6848 73.926 91.6848ZM73.926 53.4562C73.3509 53.4562 72.8848 52.9901 72.8848 52.415V38.4289C72.8848 37.8537 73.3509 37.3877 73.926 37.3877C74.501 37.3877 74.9672 37.8538 74.9672 38.4289V52.415C74.9672 52.9902 74.501 53.4562 73.926 53.4562Z" fill="#7A96A8"/>
<path d="M82.8947 91.6841C82.3197 91.6841 81.8535 91.2179 81.8535 90.6429V78.2283C81.8535 77.6531 82.3197 77.1871 82.8947 77.1871C83.4698 77.1871 83.9359 77.6532 83.9359 78.2283V90.6429C83.9361 91.2181 83.4698 91.6841 82.8947 91.6841ZM82.8947 53.5147C82.3197 53.5147 81.8535 53.0485 81.8535 52.4735V38.3928C81.8535 37.8176 82.3197 37.3516 82.8947 37.3516C83.4698 37.3516 83.9359 37.8177 83.9359 38.3928V52.4735C83.9361 53.0485 83.4698 53.5147 82.8947 53.5147Z" fill="#7A96A8"/>
<path fill-rule="evenodd" clip-rule="evenodd" d="M82.2967 52.415H73.926H64.9572H56.559C56.3661 52.415 56.1772 52.4347 55.9923 52.4662C54.4929 52.7381 53.3438 54.0613 53.3438 55.6369V75.0663C53.3438 76.6417 54.4929 77.9612 55.9923 78.233C56.1772 78.2685 56.3661 78.2842 56.559 78.2842H64.9572H73.926H82.2967C82.5012 78.2842 82.702 78.2646 82.8949 78.2291C84.3824 77.9456 85.5159 76.634 85.5159 75.0664V55.6369C85.5159 54.0693 84.3826 52.7538 82.8949 52.4742C82.7019 52.4347 82.5012 52.415 82.2967 52.415Z" fill="white"/>
<path fill-rule="evenodd" clip-rule="evenodd" d="M73.9242 63.5136C73.9242 61.0282 71.9093 59.0117 69.4259 59.0117C67.1119 59.0117 65.2032 60.7684 64.9552 63.0213C64.9395 63.1827 64.9316 63.3482 64.9316 63.5136C64.9316 63.6789 64.9395 63.8444 64.9552 64.0059C65.1126 65.4474 65.947 66.6801 67.1355 67.3852V70.1148C67.1355 70.9813 67.8399 71.6863 68.7058 71.6863H70.15C71.0158 71.6863 71.7203 70.9813 71.7203 70.1148V67.3852C73.0386 66.6014 73.9242 65.1599 73.9242 63.5136Z" fill="#7A96A8"/>
<path fill-rule="evenodd" clip-rule="evenodd" d="M102.867 33.541H36.1334C35.5077 33.541 35 34.0491 35 34.6753V37.2591C35 37.8814 35.5077 38.3934 36.1334 38.3934H37.6799H100.454H102.866C103.488 38.3934 104 37.8814 104 37.2591V34.6753C104 34.0491 103.488 33.541 102.867 33.541Z" fill="#44697E"/>
<path fill-rule="evenodd" clip-rule="evenodd" d="M37.6801 90.6084H36.1334C35.5155 90.6084 35.0078 91.1126 35 91.7309V91.7427V94.3264V94.3383C35.0078 94.9566 35.5155 95.4608 36.1334 95.4608H102.867C103.488 95.4608 104 94.9488 104 94.3264V91.7427C104 91.1204 103.488 90.6084 102.867 90.6084H100.454C79.5294 90.6084 58.6047 90.6084 37.6801 90.6084Z" fill="#44697E"/>
<path fill-rule="evenodd" clip-rule="evenodd" d="M71.7209 67.3852C73.0393 66.6014 73.9247 65.1599 73.9247 63.5136C73.9247 61.0282 71.9098 59.0117 69.4265 59.0117C68.8362 59.0117 68.2695 59.126 67.7539 59.3348C70.0403 59.5474 71.831 61.4735 71.831 63.8169C71.831 65.3766 71.0399 66.7512 69.8358 67.5587C69.7216 67.6335 69.6272 67.7556 69.6272 67.8817V68.1062V70.4183C69.6272 70.9382 69.3714 71.399 68.9818 71.6866H70.1506C71.0163 71.6866 71.7209 70.9816 71.7209 70.1151V67.3852Z" fill="#44697E"/>
<path fill-rule="evenodd" clip-rule="evenodd" d="M82.295 52.415H78.5879C78.7886 52.4189 78.9853 52.4347 79.1743 52.4741C80.6618 52.7537 81.7953 54.0693 81.7953 55.6367V75.0662C81.7953 76.6338 80.6619 77.9453 79.1743 78.2289C78.9853 78.2643 78.7886 78.284 78.5879 78.284H82.295C82.4996 78.284 82.7004 78.2643 82.8933 78.2289C84.3808 77.9453 85.5143 76.6338 85.5143 75.0662V55.6369C85.5143 54.0693 84.3809 52.7538 82.8933 52.4742C82.7003 52.4347 82.4996 52.415 82.295 52.415Z" fill="#D2D2D2"/>
<path fill-rule="evenodd" clip-rule="evenodd" d="M104 37.2591V34.6753C104 34.0491 103.489 33.541 102.867 33.541H95.8066C96.4284 33.541 96.94 34.0491 96.94 34.6753V37.2591C96.94 37.8774 96.4324 38.3895 95.8145 38.3934H100.454H102.867C103.489 38.3934 104 37.8814 104 37.2591Z" fill="#295066"/>
<path fill-rule="evenodd" clip-rule="evenodd" d="M104 94.3264V91.7427C104 91.1204 103.489 90.6084 102.867 90.6084H100.828H100.454H95.8066C96.4284 90.6084 96.94 91.1204 96.94 91.7427V94.3264C96.94 94.9488 96.4324 95.4569 95.8145 95.4608H102.867C103.489 95.4608 104 94.9488 104 94.3264Z" fill="#295066"/>
</g>
<g clip-path="url(#clip1)">
<path d="M59.2556 55.7219C57.9385 59.2913 55.9467 62.3949 53.3347 64.9456C50.3615 67.8489 46.4684 70.1558 41.7632 71.8015C41.6088 71.8553 41.4477 71.8994 41.2858 71.932C41.072 71.9742 40.8544 71.997 40.6387 72H40.5965C40.3665 72 40.1355 71.9768 39.9063 71.932C39.7445 71.8994 39.5856 71.8553 39.4319 71.8026C34.7212 70.1596 30.8231 67.8537 27.847 64.9505C25.2338 62.3998 23.2424 59.298 21.9272 55.7286C19.5358 49.2387 19.6718 42.0894 19.7814 36.3442L19.7833 36.256C19.8053 35.7816 19.8195 35.2833 19.8274 34.733C19.8674 32.0312 22.0155 29.796 24.7176 29.6454C30.3514 29.331 34.7096 27.4935 38.4334 23.8639L38.4659 23.834C39.0843 23.2669 39.8634 22.9888 40.6387 23.0003C41.3864 23.0101 42.1311 23.2878 42.7273 23.834L42.7591 23.8639C46.4837 27.4935 50.8419 29.331 56.4757 29.6454C59.1778 29.796 61.3259 32.0312 61.3659 34.733C61.3738 35.287 61.388 35.7846 61.41 36.256L61.4112 36.2934C61.5203 42.0494 61.6556 49.2129 59.2556 55.7219Z" fill="#86D7F9"/>
<path d="M59.2556 55.7215C57.9385 59.291 55.9467 62.3946 53.3347 64.9453C50.3615 67.8485 46.4683 70.1555 41.7632 71.8012C41.6088 71.855 41.4477 71.8991 41.2858 71.9316C41.072 71.9739 40.8544 71.9967 40.6387 71.9997V23C41.3864 23.0097 42.131 23.2875 42.7273 23.8337L42.7591 23.8636C46.4837 27.4932 50.8419 29.3306 56.4757 29.645C59.1778 29.7957 61.3259 32.0309 61.3659 34.7326C61.3737 35.2866 61.3879 35.7842 61.41 36.2556L61.4111 36.293C61.5203 42.049 61.6556 49.2126 59.2556 55.7215Z" fill="#48AFCC"/>
<path d="M52.8069 47.5C52.8069 54.219 47.3515 59.6883 40.6381 59.7122H40.5951C33.8618 59.7122 28.3828 54.2336 28.3828 47.5C28.3828 40.7667 33.8618 35.2881 40.5951 35.2881H40.6381C47.3515 35.312 52.8069 40.7813 52.8069 47.5Z" fill="white"/>
<path d="M52.8075 47.5C52.8075 54.219 47.3521 59.6883 40.6387 59.7122V35.2881C47.3521 35.312 52.8075 40.7813 52.8075 47.5Z" fill="#E1EBF0"/>
<path d="M46.1382 45.7415L40.6383 51.2422L39.4498 52.4306C39.1691 52.7113 38.8009 52.8515 38.433 52.8515C38.0648 52.8515 37.6969 52.7113 37.4158 52.4306L34.8606 49.8743C34.2991 49.3128 34.2991 48.4032 34.8606 47.8413C35.4213 47.2798 36.332 47.2798 36.8935 47.8413L38.433 49.3808L44.1053 43.7085C44.6668 43.1466 45.5775 43.1466 46.1382 43.7085C46.6997 44.27 46.6997 45.1807 46.1382 45.7415Z" fill="#FF0000"/>
</g>
<defs>
<clipPath id="clip0">
<rect x="35" y="30" width="69" height="69" fill="white"/>
</clipPath>
<clipPath id="clip1">
<rect x="16" y="23" width="49" height="49" fill="white"/>
</clipPath>
</defs>
</svg>
