<svg width="120" height="120" viewBox="0 0 120 120" fill="none" xmlns="http://www.w3.org/2000/svg">
<circle cx="60" cy="60" r="60" fill="#FFCEDA"/>
<g clip-path="url(#clip0)">
<path d="M50 25C66.5685 25 80 38.4315 80 55C80 71.5685 66.5685 85 50 85C33.4315 85 20 71.5685 20 55C20 38.4315 33.4315 25 50 25Z" fill="#FF003D"/>
<path d="M79.9996 54.9996C79.9996 71.5681 66.5681 84.9996 49.9996 84.9996C41.0565 84.9996 33.0276 81.0866 27.5332 74.8797C32.8272 79.5672 39.7879 82.4134 47.4134 82.4134C63.9819 82.4134 77.4134 68.9819 77.4134 52.4134C77.4134 44.7879 74.5672 37.8272 69.8797 32.5332C76.0866 38.0276 79.9996 46.0565 79.9996 54.9996Z" fill="#E84857"/>
<path d="M74.9711 38.3694C70.2112 35.1922 64.4918 33.3405 58.3405 33.3405C34.2588 33.3405 20.2069 60.2515 33.3694 79.9711C25.3095 74.5931 20 65.4172 20 55C20 38.4315 33.4315 25 50 25C60.4172 25 69.5931 30.3095 74.9711 38.3694Z" fill="#FF8D8D"/>
<path d="M49.9999 76.8534C62.0693 76.8534 71.8534 67.0693 71.8534 54.9999C71.8534 42.9306 62.0693 33.1465 49.9999 33.1465C37.9306 33.1465 28.1465 42.9306 28.1465 54.9999C28.1465 67.0693 37.9306 76.8534 49.9999 76.8534Z" fill="#F1FAFC"/>
<path d="M48.5362 56.4631L38.3853 46.3122C37.5773 45.5043 37.5773 44.1943 38.3853 43.3863C39.1933 42.5783 40.5033 42.5783 41.3112 43.3863L47.9301 50.0053V45.9485C47.9301 44.8059 48.8564 43.8795 49.9991 43.8795C51.1418 43.8795 52.0681 44.8059 52.0681 45.9485V55.0002C52.0681 56.8396 49.8359 57.7634 48.5362 56.4631Z" fill="#4D4E59"/>
<path d="M34.2241 55.0006C34.2241 56.1437 33.2983 57.0696 32.1552 57.0696H28.2435C28.1177 55.7436 28.1106 54.3326 28.2435 52.9316H32.1552C33.2983 52.9316 34.2241 53.8575 34.2241 55.0006Z" fill="#7A96A8"/>
<path d="M52.0696 72.8453V76.757C50.7436 76.8828 49.3326 76.8899 47.9316 76.757V72.8453C47.9316 71.7022 48.8575 70.7764 50.0006 70.7764C51.1437 70.7764 52.0696 71.7022 52.0696 72.8453Z" fill="#7A96A8"/>
<path d="M71.7579 57.0696H67.8463C66.7032 57.0696 65.7773 56.1437 65.7773 55.0006C65.7773 53.8575 66.7032 52.9316 67.8463 52.9316H71.7579C71.8838 54.2576 71.8909 55.6686 71.7579 57.0696Z" fill="#7A96A8"/>
<path d="M52.0696 33.2435V37.1552C52.0696 38.2983 51.1437 39.2241 50.0006 39.2241C48.8575 39.2241 47.9316 38.2983 47.9316 37.1552V33.2435C49.2576 33.1177 50.6686 33.1106 52.0696 33.2435Z" fill="#7A96A8"/>
<path d="M54.4229 33.5942C40.9875 35.3464 30.3466 45.9873 28.5944 59.4227C25.4431 44.0968 38.9784 30.4186 54.4229 33.5942Z" fill="#C9EDF2"/>
</g>
<path d="M45.3203 62.4324H97.2665C97.9674 62.4069 98.6497 62.6617 99.1622 63.1405C99.6748 63.6194 99.9755 64.2827 99.9977 64.9838V88.9651C100.032 90.4427 98.8765 91.6756 97.3997 91.7362H45.3203V62.4324Z" fill="#34A166"/>
<path d="M94.6672 82.33C93.6095 82.3331 92.5968 82.7584 91.8538 83.5113C91.1109 84.2642 90.6993 85.2825 90.7103 86.3402H58.5487C58.5597 85.2825 58.1481 84.2642 57.4052 83.5113C56.6623 82.7584 55.6495 82.3331 54.5918 82.33V71.6717C56.7704 71.6598 58.5487 69.9256 58.6153 67.748H90.6304C90.7094 69.9254 92.4885 71.6546 94.6672 71.6717V82.33Z" fill="#7ED09E"/>
<path d="M94.6696 82.33C93.6118 82.3331 92.5991 82.7584 91.8562 83.5113C91.1133 84.2642 90.7016 85.2825 90.7127 86.3402H57.2987C57.3097 85.2825 56.8981 84.2642 56.1552 83.5113C55.4123 82.7584 54.3995 82.3331 53.3418 82.33V71.6717C55.5318 71.6824 57.3271 69.9375 57.3786 67.748H90.646C90.7127 69.9256 92.491 71.6598 94.6696 71.6717V82.33Z" fill="#4FBA6F"/>
<path d="M73.3652 86.4375C77.7801 86.4199 81.3423 82.2301 81.3217 77.0795C81.3011 71.9289 77.7055 67.7677 73.2906 67.7854C68.8758 67.8031 65.3136 71.9928 65.3342 77.1435C65.3548 82.2941 68.9504 86.4552 73.3652 86.4375Z" fill="#008F55"/>
<path d="M69.3399 74.4459C69.3353 73.3858 69.752 72.3674 70.4983 71.6146C71.2446 70.8618 72.2594 70.4363 73.3194 70.4317C77.2764 70.413 78.5607 75.7369 76.008 75.7489C75.2746 75.7431 74.6815 75.15 74.6757 74.4166C74.673 73.8776 74.3458 73.3934 73.8468 73.1897C73.3478 72.9861 72.7752 73.1032 72.3962 73.4864C72.0172 73.8696 71.9064 74.4434 72.1155 74.9402C72.3246 75.4369 72.8125 75.7588 73.3514 75.7555C74.0846 75.7555 74.6801 76.348 74.6837 77.0812C74.693 79.6352 69.3572 78.4028 69.3399 74.4459Z" fill="white"/>
<path d="M73.3608 83.7536C69.4158 83.7536 68.1368 78.4418 70.6962 78.4351C71.432 78.4351 72.0285 79.0316 72.0285 79.7674C72.0285 80.3069 72.3538 80.7931 72.8525 80.9989C73.3511 81.2047 73.9247 81.0895 74.3052 80.7071C74.6857 80.3247 74.798 79.7505 74.5897 79.2529C74.3814 78.7553 73.8936 78.4324 73.3541 78.4351C72.8781 78.4368 72.4374 78.1844 72.198 77.773C71.9585 77.3616 71.9568 76.8537 72.1933 76.4407C72.4299 76.0276 72.8688 75.7722 73.3448 75.7705C74.4016 75.7779 75.4146 76.1937 76.1719 76.9309C77.3128 78.0721 77.6555 79.7874 77.0408 81.2794C76.426 82.7714 74.9744 83.7474 73.3608 83.7536Z" fill="white"/>
<path d="M73.3294 73.0952C72.5909 73.096 71.9897 72.5014 71.9824 71.7629V67.766C71.9803 67.2901 72.2323 66.8491 72.6434 66.6092C73.0545 66.3694 73.5624 66.3671 73.9757 66.6032C74.389 66.8394 74.6449 67.2781 74.647 67.754V71.7509C74.6537 72.4857 74.0642 73.0872 73.3294 73.0952Z" fill="white"/>
<path d="M73.3912 87.7513C72.6531 87.7521 72.0528 87.1571 72.0469 86.419V82.4222C72.0448 82.0707 72.1824 81.7328 72.4296 81.4829C72.6767 81.233 73.0131 81.0916 73.3645 81.0899C74.1014 81.0869 74.7027 81.6787 74.7115 82.4155V86.4124C74.7152 87.1461 74.1249 87.7448 73.3912 87.7513Z" fill="white"/>
<path d="M47.693 79.7584C46.9521 79.7599 46.3471 79.1668 46.334 78.4261C46.3312 78.0741 46.4688 77.7356 46.7164 77.4856C46.964 77.2355 47.3011 77.0945 47.653 77.0938C48.3927 77.0922 48.9958 77.6864 49.0053 78.4261C49.0095 78.7772 48.8733 79.1155 48.6268 79.3658C48.3804 79.616 48.0442 79.7573 47.693 79.7584Z" fill="black"/>
<path d="M57.3108 83.6485C57.3108 86.5928 51.9417 88.9776 45.3202 88.9776C39.0451 88.9776 33.8891 86.8326 33.3828 84.1014C41.2074 86.361 51.9816 83.9922 51.9816 79.6516V79.2119C52.0216 79.2252 52.0749 79.2386 52.1149 79.2519C55.2458 80.2111 57.3108 81.8232 57.3108 83.6485Z" fill="#F9EAB0"/>
<path d="M57.3114 83.6494V88.9786C57.3114 91.923 51.9422 94.3078 45.3207 94.3078C38.6992 94.3078 33.3301 91.923 33.3301 88.9786V84.0891C33.3487 84.0885 33.3672 84.0931 33.3834 84.1024C33.8896 86.8336 39.0456 88.9786 45.3207 88.9786C51.9422 88.9786 57.3114 86.5938 57.3114 83.6494Z" fill="#F0C419"/>
<path d="M57.3114 66.3292C57.3114 71.5811 42.1019 73.5808 35.515 69.3934C34.3127 68.8104 33.4895 67.6558 33.3301 66.3292C33.3301 63.3848 38.6992 61 45.3207 61C51.9422 61 57.3114 63.3848 57.3114 66.3292Z" fill="#F9EAB0"/>
<path d="M51.9813 76.0952V79.6524C51.9813 84.0077 41.2337 86.3698 33.3825 84.1023C33.2492 84.0357 28 82.6754 28 79.6524V74.3232C28 76.9079 32.1568 79.0662 37.6591 79.5458C41.7146 79.9082 48.4334 79.2794 51.0887 76.335C51.3951 76.2551 51.7015 76.1751 51.9813 76.0952Z" fill="#F3D55B"/>
<path d="M51.0892 76.335C50.1327 77.291 48.9642 78.0077 47.6785 78.4267C44.4625 79.5351 41.0409 79.9173 37.6596 79.5459C27.3077 78.6439 24.37 72.5633 33.3297 69.8867V71.6587C33.3297 74.603 38.6988 76.9879 45.3203 76.9879C47.2622 76.9969 49.1984 76.7778 51.0892 76.335Z" fill="#F9EAB0"/>
<path d="M57.3114 66.3291V71.6583C57.3114 73.5102 55.193 75.1356 51.9822 76.0948C43.8352 78.4237 33.3301 75.8963 33.3301 71.6583V66.3291C33.4895 67.6558 34.3127 68.8103 35.515 69.3934C42.2751 73.6914 57.3114 71.4504 57.3114 66.3291Z" fill="#F3D55B"/>
<defs>
<clipPath id="clip0">
<rect x="20" y="25" width="60" height="60" fill="white"/>
</clipPath>
</defs>
</svg>
