<svg width="48" height="48" viewBox="0 0 48 48" fill="none" xmlns="http://www.w3.org/2000/svg">
<path d="M28.0312 30H19.9048V28.6138L23.9307 24.2227C24.5117 23.5752 24.924 23.0356 25.1675 22.604C25.4165 22.1668 25.541 21.7297 25.541 21.2925C25.541 20.717 25.3778 20.2521 25.0513 19.8979C24.7303 19.5438 24.2959 19.3667 23.748 19.3667C23.0951 19.3667 22.5887 19.5659 22.229 19.9644C21.8693 20.3628 21.6895 20.9079 21.6895 21.5996H19.6724C19.6724 20.8636 19.8384 20.2023 20.1704 19.6157C20.508 19.0236 20.9867 18.5643 21.6064 18.2378C22.2318 17.9113 22.9512 17.748 23.7646 17.748C24.9378 17.748 25.862 18.0441 26.5371 18.6362C27.2178 19.2228 27.5581 20.0363 27.5581 21.0767C27.5581 21.6799 27.3866 22.3135 27.0435 22.9775C26.7059 23.6361 26.1497 24.3859 25.375 25.2271L22.4199 28.3896H28.0312V30Z" fill="#FF0000"/>
<circle cx="24" cy="24" r="23" stroke="#FF0000" stroke-width="2"/>
</svg>
