<svg width="48" height="48" viewBox="0 0 48 48" fill="none" xmlns="http://www.w3.org/2000/svg">
<path d="M20.4443 24.0068L21.1001 17.9141H27.5913V19.6572H22.7769L22.4448 22.5459C23.0037 22.2249 23.6346 22.0645 24.3374 22.0645C25.4884 22.0645 26.3822 22.4325 27.0186 23.1685C27.6605 23.9045 27.9814 24.895 27.9814 26.1401C27.9814 27.3687 27.6273 28.3481 26.9189 29.0786C26.2106 29.8035 25.2394 30.166 24.0054 30.166C22.8986 30.166 21.98 29.8534 21.2495 29.228C20.5246 28.5972 20.1317 27.7671 20.0708 26.7378H22.0215C22.099 27.3244 22.3092 27.7754 22.6523 28.0908C22.9954 28.4007 23.4437 28.5557 23.9971 28.5557C24.6169 28.5557 25.0983 28.3343 25.4414 27.8916C25.79 27.4489 25.9644 26.8457 25.9644 26.082C25.9644 25.346 25.7734 24.765 25.3916 24.3389C25.0098 23.9072 24.484 23.6914 23.8145 23.6914C23.4492 23.6914 23.1393 23.7412 22.8848 23.8408C22.6302 23.9349 22.3535 24.123 22.0547 24.4053L20.4443 24.0068Z" fill="#FF0000"/>
<circle cx="24" cy="24" r="23" stroke="#FF0000" stroke-width="2"/>
</svg>
