<svg width="48" height="48" viewBox="0 0 48 48" fill="none" xmlns="http://www.w3.org/2000/svg">
<path d="M26.1802 17.856V19.5244H25.9312C24.8022 19.541 23.9002 19.8509 23.2251 20.4541C22.55 21.0573 22.1488 21.9123 22.0215 23.019C22.6689 22.3384 23.4963 21.998 24.5034 21.998C25.5715 21.998 26.4126 22.3743 27.0269 23.127C27.6466 23.8796 27.9565 24.8507 27.9565 26.0405C27.9565 27.269 27.5941 28.2651 26.8691 29.0288C26.1497 29.7869 25.2035 30.166 24.0303 30.166C22.8239 30.166 21.8444 29.7205 21.0918 28.8296C20.3447 27.9386 19.9712 26.771 19.9712 25.3267V24.6377C19.9712 22.5182 20.4858 20.8581 21.5151 19.6572C22.55 18.4564 24.0358 17.856 25.9727 17.856H26.1802ZM24.0137 23.625C23.571 23.625 23.1642 23.7495 22.7935 23.9985C22.4282 24.2476 22.1598 24.5796 21.9883 24.9946V25.6089C21.9883 26.5054 22.1764 27.2192 22.5527 27.7505C22.929 28.2762 23.416 28.5391 24.0137 28.5391C24.6113 28.5391 25.0845 28.3149 25.4331 27.8667C25.7817 27.4185 25.9561 26.8291 25.9561 26.0986C25.9561 25.3682 25.779 24.7733 25.4248 24.314C25.0706 23.8547 24.6003 23.625 24.0137 23.625Z" fill="#FF0000"/>
<circle cx="24" cy="24" r="23" stroke="#FF0000" stroke-width="2"/>
</svg>
