<svg width="20" height="10" viewBox="0 0 20 10" fill="none" xmlns="http://www.w3.org/2000/svg">
<path d="M10.0001 -7.94511e-08C10.8224 -1.51345e-07 11.5957 0.315633 12.177 0.888746L19.6906 8.22616C20.1026 8.63131 20.1032 9.28908 19.692 9.69505C19.2808 10.101 18.6132 10.1018 18.2012 9.6964L10.6871 2.35818C10.5029 2.1767 10.2592 2.07717 10.0001 2.07717C9.74093 2.07717 9.49718 2.1767 9.31382 2.35737L1.7986 9.6964C1.38659 10.1018 0.719305 10.101 0.308117 9.69505C-0.103346 9.28909 -0.102524 8.63132 0.309488 8.22616L7.82388 0.887935C8.40443 0.315633 9.17767 -7.55664e-09 10.0001 -7.94511e-08Z" fill="#939393"/>
</svg>
