<svg width="19" height="16" viewBox="0 0 19 16" fill="none" xmlns="http://www.w3.org/2000/svg">
<path d="M17.6203 10.2912C18.051 10.2912 18.4 9.9422 18.4 9.51156V4.34763C18.4 2.73734 17.09 1.42715 15.4795 1.42715H14.618V0.779661C14.618 0.34902 14.2688 0 13.8384 0C13.4077 0 13.0587 0.34902 13.0587 0.779661V1.42715H9.94393V0.779661C9.94393 0.34902 9.59491 0 9.16427 0C8.73362 0 8.3846 0.34902 8.3846 0.779661V1.42715H5.30555V0.779661C5.30555 0.34902 4.95653 0 4.52589 0C4.09545 0 3.74623 0.34902 3.74623 0.779661V1.42715H2.92048C1.30999 1.42715 0 2.73714 0 4.34763V13.0795C0 14.6898 1.30999 16 2.92048 16H15.4795C17.09 16 18.4 14.6898 18.4 13.0795C18.4 12.6489 18.051 12.2999 17.6203 12.2999C17.1897 12.2999 16.8407 12.6489 16.8407 13.0795C16.8407 13.8301 16.2301 14.4407 15.4795 14.4407H2.92048C2.16985 14.4407 1.55932 13.8301 1.55932 13.0795V4.34763C1.55932 3.597 2.16985 2.98647 2.92048 2.98647H3.74643V3.63395C3.74643 4.06459 4.09545 4.41361 4.52609 4.41361C4.95653 4.41361 5.30576 4.06459 5.30576 3.63395V2.98647H8.3846V3.63395C8.3846 4.06459 8.73383 4.41361 9.16427 4.41361C9.59491 4.41361 9.94393 4.06459 9.94393 3.63395V2.98647H13.0587V3.63395C13.0587 4.06459 13.4077 4.41361 13.8384 4.41361C14.269 4.41361 14.618 4.06459 14.618 3.63395V2.98647H15.4795C16.2301 2.98647 16.8407 3.597 16.8407 4.34763V9.51156C16.8407 9.9422 17.1897 10.2912 17.6203 10.2912Z" fill="#939393"/>
<path d="M4.52792 6.74921C4.13383 6.74921 3.81445 7.06879 3.81445 7.46288C3.81445 7.85697 4.13383 8.17635 4.52792 8.17635C4.92202 8.17635 5.2416 7.85697 5.2416 7.46288C5.2416 7.06879 4.92202 6.74921 4.52792 6.74921Z" fill="#939393"/>
<path d="M4.52792 10.6534C4.13383 10.6534 3.81445 10.9728 3.81445 11.3669C3.81445 11.761 4.13383 12.0806 4.52792 12.0806C4.92202 12.0806 5.2416 11.761 5.2416 11.3669C5.2416 10.9728 4.92202 10.6534 4.52792 10.6534Z" fill="#939393"/>
<path d="M7.63164 6.74921C7.23755 6.74921 6.91797 7.06879 6.91797 7.46288C6.91797 7.85697 7.23755 8.17635 7.63164 8.17635C8.02574 8.17635 8.34532 7.85697 8.34532 7.46288C8.34532 7.06879 8.02574 6.74921 7.63164 6.74921Z" fill="#939393"/>
<path d="M7.63164 10.6534C7.23755 10.6534 6.91797 10.9728 6.91797 11.3669C6.91797 11.761 7.23755 12.0806 7.63164 12.0806C8.02574 12.0806 8.34532 11.761 8.34532 11.3669C8.34532 10.9728 8.02574 10.6534 7.63164 10.6534Z" fill="#939393"/>
<path d="M10.733 6.74921C10.3389 6.74921 10.0195 7.06879 10.0195 7.46288C10.0195 7.85697 10.3389 8.17635 10.733 8.17635C11.1271 8.17635 11.4467 7.85697 11.4467 7.46288C11.4467 7.06879 11.1271 6.74921 10.733 6.74921Z" fill="#939393"/>
<path d="M13.8387 6.74922C13.4446 6.74922 13.125 7.0688 13.125 7.4629C13.125 7.85699 13.4444 8.17637 13.8387 8.17637C14.2328 8.17637 14.5521 7.85699 14.5521 7.4629C14.5521 7.0688 14.2328 6.74922 13.8387 6.74922Z" fill="#939393"/>
<path d="M10.733 10.6534C10.3389 10.6534 10.0195 10.9728 10.0195 11.3669C10.0195 11.761 10.3389 12.0806 10.733 12.0806C11.1271 12.0806 11.4467 11.761 11.4467 11.3669C11.4467 10.9728 11.1271 10.6534 10.733 10.6534Z" fill="#939393"/>
</svg>
