<svg width="17" height="17" viewBox="0 0 17 17" fill="none" xmlns="http://www.w3.org/2000/svg">
<path d="M16.5686 16.5686C16.2499 16.8873 15.7186 16.8873 15.3999 16.5686L8.50003 9.66876L1.60019 16.5686C1.28145 16.8873 0.750174 16.8873 0.431436 16.5686C0.112698 16.2499 0.112698 15.7186 0.431436 15.3998L7.33128 8.5L0.431436 1.60016C0.112698 1.28142 0.112698 0.750143 0.431436 0.431406C0.750174 0.112668 1.28145 0.112668 1.60019 0.431406L8.50003 7.33125L15.3999 0.431406C15.7186 0.112668 16.2499 0.112668 16.5686 0.431406C16.8874 0.750143 16.8874 1.28142 16.5686 1.60016L9.66879 8.5L16.5686 15.3998C16.8874 15.7186 16.8874 16.2498 16.5686 16.5686Z" fill="#FF003D"/>
</svg>
