<svg width="24" height="30" viewBox="0 0 24 30" fill="none" xmlns="http://www.w3.org/2000/svg">
<path d="M11.5979 19.155C7.70885 19.155 4.54492 15.9911 4.54492 12.1018C4.54492 8.21276 7.70885 5.04883 11.5979 5.04883C15.4869 5.04883 18.6508 8.21276 18.6508 12.1018C18.6508 12.792 18.5511 13.4744 18.3547 14.1304C18.1822 14.7057 17.5761 15.0321 17.001 14.8597C16.4257 14.6873 16.0993 14.0811 16.2717 13.5061C16.4076 13.0528 16.4764 12.5803 16.4764 12.1018C16.4764 9.41179 14.2878 7.22323 11.5979 7.22323C8.9076 7.22323 6.71904 9.41179 6.71904 12.1018C6.71904 14.792 8.9076 16.9806 11.5979 16.9806C12.0531 16.9806 12.5039 16.918 12.9368 16.7949C13.5146 16.6304 14.1157 16.9653 14.2802 17.5429C14.4447 18.1202 14.1095 18.7218 13.5322 18.886C12.9056 19.0644 12.2547 19.155 11.5979 19.155Z" fill="url(#paint0_linear)"/>
<path d="M11.9391 29.496H11.2574C10.8845 29.496 10.5377 29.3049 10.3383 28.9897C9.09031 27.0155 7.52944 25.3057 6.01953 23.6525C4.48301 21.9696 3.03143 20.3802 1.91534 18.5605C0.628822 16.4623 0.00226501 14.3462 0 12.0911C0.00736123 5.70068 5.21036 0.503906 11.5982 0.503906C17.9861 0.503906 23.1891 5.70068 23.1965 12.0886C23.1942 14.3462 22.5677 16.4623 21.2811 18.5602C20.1651 20.3802 18.7135 21.9696 17.177 23.6525C15.667 25.3057 14.1062 27.0152 12.8582 28.9897C12.6588 29.3049 12.312 29.496 11.9391 29.496ZM11.5982 2.67831C6.40798 2.67831 2.18035 6.90085 2.1744 12.0911C2.17837 16.2213 4.70243 18.9855 7.62542 22.1862C8.98018 23.6698 10.3746 25.1973 11.5982 26.9569C12.8216 25.1973 14.2163 23.6698 15.5711 22.1862C18.4938 18.9855 21.0178 16.2213 21.0221 12.0888C21.0161 6.90085 16.7885 2.67831 11.5982 2.67831Z" fill="url(#paint1_linear)"/>
<defs>
<linearGradient id="paint0_linear" x1="11.5979" y1="5.04883" x2="11.5979" y2="19.155" gradientUnits="userSpaceOnUse">
<stop stop-color="#FF0000"/>
<stop offset="0.491713" stop-color="#FF003D"/>
<stop offset="0.994475" stop-color="#FF3D00"/>
</linearGradient>
<linearGradient id="paint1_linear" x1="11.5982" y1="0.503906" x2="11.5982" y2="29.496" gradientUnits="userSpaceOnUse">
<stop stop-color="#FF0000"/>
<stop offset="0.491713" stop-color="#FF003D"/>
<stop offset="0.994475" stop-color="#FF3D00"/>
</linearGradient>
</defs>
</svg>
