<svg width="26" height="20" viewBox="0 0 26 20" fill="none" xmlns="http://www.w3.org/2000/svg">
<path d="M24.9459 11.8501C25.5281 11.8501 26 11.3753 26 10.7894V4.11679C26 1.84681 24.1647 0 21.9087 0L4.09132 0C1.83526 0 0 1.84681 0 4.11679L0 15.8832C0 18.1532 1.83526 20 4.09132 20L21.909 20C24.1647 20 26 18.1532 26 15.8832C26 15.2974 25.5281 14.8225 24.9459 14.8225C24.364 14.8225 23.8919 15.2974 23.8919 15.8832C23.8919 16.9837 23.0023 17.8786 21.909 17.8786L4.09132 17.8786C2.99774 17.8786 2.10811 16.9834 2.10811 15.8832L2.10811 4.4082L10.8397 9.87183C11.5059 10.2887 12.2528 10.4972 13 10.4972C13.7472 10.4972 14.4941 10.2887 15.1603 9.87183L23.8919 4.4082V10.7894C23.8919 11.3753 24.3637 11.8501 24.9459 11.8501ZM14.0472 8.07033C13.4013 8.47444 12.5987 8.47444 11.9528 8.07033L2.98704 2.46002C3.30298 2.24622 3.6826 2.12137 4.09105 2.12137L21.9087 2.12137C22.3171 2.12137 22.697 2.24622 23.013 2.46002L14.0472 8.07033Z" fill="url(#paint0_linear)"/>
<defs>
<linearGradient id="paint0_linear" x1="13" y1="0" x2="13" y2="20" gradientUnits="userSpaceOnUse">
<stop stop-color="#FF0000"/>
<stop offset="0.491713" stop-color="#FF003D"/>
<stop offset="0.994475" stop-color="#FF3D00"/>
</linearGradient>
</defs>
</svg>
