<svg width="25" height="25" viewBox="0 0 25 25" fill="none" xmlns="http://www.w3.org/2000/svg">
<path d="M21.5737 12.6309H20.2986C20.2986 8.46982 16.9144 5.08633 12.7556 5.08633L12.7549 3.81283C17.6185 3.81054 21.5737 7.76725 21.5737 12.6309ZM12.7549 6.01237L12.7541 7.28586C15.7029 7.28586 18.0983 9.68362 18.0968 12.6301L19.3718 12.6293C19.3718 8.98105 16.4054 6.01237 12.7549 6.01237ZM12.5 0C5.60675 0 0 5.60675 0 12.5008C0 19.3933 5.60675 25 12.5 25C12.9263 25 13.2707 24.6556 13.2707 24.2301C13.2707 23.8023 12.9263 23.4571 12.5 23.4571C6.45702 23.4571 1.54212 18.5407 1.54212 12.5008C1.54212 6.45778 6.45702 1.54212 12.5 1.54212C18.543 1.54212 23.4571 6.45855 23.4571 12.5008C23.4571 15.0256 22.1132 17.5274 20.19 18.5881C19.4912 18.9723 18.7335 19.1629 17.9254 19.1705C18.4106 18.882 18.8307 18.4917 19.143 18.0004C19.2042 17.9078 19.2853 17.8259 19.3251 17.7256C19.5762 17.1218 19.5984 16.4368 19.7499 15.7985C19.9359 14.9842 16.185 13.3931 15.859 14.4102C15.7411 14.7868 15.5605 15.9776 15.324 16.2914C15.1136 16.5715 14.5947 16.4383 14.2702 16.1628C13.4153 15.4342 12.461 14.3636 11.6237 13.5171L11.6252 13.5163C11.6038 13.4942 11.5778 13.4697 11.5548 13.4459C11.5311 13.4237 11.5074 13.3985 11.4837 13.3755V13.3771C10.6372 12.5383 9.56576 11.5862 8.83794 10.7298C8.56242 10.4053 8.42925 9.88643 8.70936 9.67596C9.02314 9.43795 10.214 9.26039 10.5905 9.141C11.6053 8.81651 10.0165 5.06337 9.2007 5.25011C8.56395 5.39934 7.87899 5.42384 7.27515 5.67333C7.17259 5.71695 7.093 5.79578 7.0004 5.85701C4.85826 7.21469 4.58198 10.5117 6.67284 12.9684C7.46954 13.9082 8.30068 14.8174 9.15631 15.7052L9.15172 15.7082C9.17544 15.732 9.19993 15.7541 9.22442 15.7771C9.24738 15.8008 9.26958 15.8246 9.29177 15.8498L9.29636 15.8452C10.1841 16.7009 11.2365 17.9613 12.9462 19.1017C16.5455 21.5055 19.3075 20.8344 20.9346 19.942C23.7433 18.3953 25 15.0914 25 12.5038C25 5.60675 19.3925 0 12.5 0Z" fill="#ED1C24"/>
</svg>
