<svg width="25" height="25" viewBox="0 0 25 25" fill="none" xmlns="http://www.w3.org/2000/svg">
<path d="M11.6141 14.0548H13.6757L13.5024 14.873H10.2692C10.3486 14.5341 10.4868 14.2235 10.6822 13.9441C10.8821 13.6281 11.2653 13.2953 11.8316 12.9435C12.3247 12.6382 12.6476 12.4176 12.8025 12.2863C13.0391 12.0794 13.1834 11.8543 13.2353 11.607C13.2795 11.4078 13.2589 11.2414 13.1757 11.1093C13.0948 10.9765 12.9491 10.9101 12.743 10.9101C12.4613 10.9101 12.2469 11.0162 12.098 11.2261C12.0141 11.3475 11.9385 11.5421 11.8729 11.807H10.9699C11.0699 11.4047 11.2103 11.0803 11.3943 10.8338C11.7416 10.3613 12.2316 10.1255 12.8628 10.1255C13.3627 10.1255 13.7314 10.2644 13.9665 10.5407C14.2046 10.8185 14.2726 11.1849 14.1741 11.6406C14.0993 11.9894 13.9321 12.3008 13.6658 12.571C13.491 12.7519 13.2215 12.9541 12.8605 13.1747L12.4339 13.4388C12.1659 13.6044 11.982 13.7235 11.879 13.7983C11.7828 13.8723 11.6927 13.9578 11.6141 14.0548ZM14.1611 13.8563L14.3351 13.0457L16.6799 10.1781H17.721L17.0928 13.1297H17.6271L17.4752 13.8548H16.9409L16.7272 14.8715H15.8189L16.0342 13.8548L14.1611 13.8563ZM15.003 13.1305H16.1861L16.6181 11.0902L15.003 13.1305ZM15.4884 21.7187C15.4915 21.7187 15.493 21.7187 15.4961 21.7187V23.3117C15.4961 24.2398 14.7374 25 13.8085 25H2.661C1.73211 25 0.972656 24.2398 0.972656 23.3117V1.68758C0.972656 0.758686 1.73211 0 2.661 0H13.8077C14.7366 0 15.4953 0.758686 15.4953 1.68758L15.4869 3.18587C20.2573 3.58048 24.0279 7.58152 24.0279 12.4527C24.0279 17.3223 20.2573 21.3241 15.4884 21.7187ZM6.24606 1.4212C6.24606 1.53416 6.33765 1.62499 6.45061 1.62499H10.0166C10.1296 1.62499 10.2219 1.53493 10.2219 1.4212C10.2219 1.30747 10.1311 1.21588 10.0166 1.21588H6.45061C6.33765 1.21665 6.24606 1.30824 6.24606 1.4212ZM9.07854 23.3117C9.07854 22.8445 8.69996 22.469 8.2336 22.469C7.76877 22.469 7.39096 22.8445 7.39096 23.3117C7.39096 23.7772 7.76877 24.1558 8.2336 24.1558C8.69996 24.1558 9.07854 23.7772 9.07854 23.3117ZM21.7381 12.4519C21.7381 8.58445 18.5911 5.4375 14.7252 5.4375C14.5763 5.4375 14.4451 5.45124 14.2985 5.45964V3.16984C14.3039 3.16984 14.2939 3.16984 14.2985 3.16908V2.67677H2.14732V21.8744H14.3191V21.7378L14.3145 21.7363C9.37392 21.5218 5.41791 17.446 5.41791 12.4519C5.41791 12.3992 5.42249 12.3458 5.42631 12.2939H4.0219L6.52312 9.79346L9.02205 12.2924H7.71534C7.71153 12.3451 7.70695 12.3992 7.70695 12.4519C7.70695 16.3201 10.8539 19.4671 14.7214 19.4671C18.5904 19.4678 21.7381 16.3209 21.7381 12.4519Z" fill="#FF2C12"/>
</svg>
