<svg width="26" height="27" viewBox="0 0 26 27" fill="none" xmlns="http://www.w3.org/2000/svg">
<path d="M13 0C5.83166 0 0 6.0284 0 13.4386C0 15.9755 0.687522 18.4465 1.98837 20.5845C2.97522 22.2066 4.28199 23.5852 5.81474 24.6374H3.25451C2.65614 24.6374 2.17118 25.1387 2.17118 25.7573C2.17118 26.3758 2.65614 26.8771 3.25451 26.8771H6.33778C8.15998 26.8771 9.6428 25.3446 9.6428 23.4606V20.381C9.6428 19.7624 9.15784 19.2611 8.55946 19.2611C7.96109 19.2611 7.47613 19.7624 7.47613 20.381V23.0748C4.18268 21.0608 2.16667 17.436 2.16667 13.4386C2.16667 7.26348 7.02643 2.23976 13 2.23976C18.9736 2.23976 23.8333 7.26348 23.8333 13.4386C23.8333 15.6465 23.198 17.7959 21.9962 19.6542C21.6638 20.1684 21.7973 20.8636 22.2947 21.2075C22.7923 21.551 23.4649 21.4131 23.7975 20.8989C25.2383 18.6711 26 16.0913 26 13.4386C26 6.0284 20.1683 0 13 0Z" fill="#FF3D00"/>
<path d="M18.6043 23.0245C16.9195 24.0797 14.9816 24.6373 13.0003 24.6373C12.402 24.6373 11.917 25.1386 11.917 25.7571C11.917 26.3757 12.402 26.877 13.0003 26.877C15.3775 26.877 17.7035 26.2074 19.7269 24.9403C20.2386 24.6201 20.4023 23.9312 20.0922 23.4022C19.7822 22.8732 19.1164 22.704 18.6043 23.0245Z" fill="#FF3D00"/>
<path d="M7.52595 15.4271C7.19418 15.738 7.08162 16.228 7.24271 16.6602C7.4038 17.0921 7.80553 17.377 8.25325 17.377H11.3842C11.9823 17.377 12.4675 16.8757 12.4675 16.2571C12.4675 15.6388 11.9823 15.1372 11.3842 15.1372H10.8225C12.2167 13.4735 12.4024 12.6321 12.4024 12.0815C12.4024 10.6003 11.2369 9.39551 9.80406 9.39551C9.79813 9.39551 9.79221 9.39638 9.78628 9.39638C9.78008 9.39638 9.77415 9.39551 9.76823 9.39551C8.33535 9.39551 7.16992 10.6003 7.16992 12.0815C7.16992 12.6997 7.65488 13.2014 8.25325 13.2014C8.85163 13.2014 9.33659 12.6997 9.33659 12.0815C9.33659 11.8397 9.53435 11.6353 9.76823 11.6353C9.77415 11.6353 9.78008 11.6344 9.78628 11.6344C9.79221 11.6344 9.79813 11.6353 9.80406 11.6353C10.0329 11.6353 10.227 11.8307 10.2354 12.0657C10.1477 12.5787 8.86347 14.1731 7.52595 15.4271Z" fill="#FF3D00"/>
<path d="M14.8685 9.39551C14.2704 9.39551 13.7852 9.89683 13.7852 10.5154V11.7942C13.7852 13.4046 15.0527 14.7149 16.6106 14.7149C16.8374 14.7149 17.0577 14.6864 17.2693 14.6339V16.2571C17.2693 16.8757 17.7543 17.377 18.3526 17.377C18.951 17.377 19.436 16.8757 19.436 16.2571V10.5154C19.436 9.89683 18.951 9.39551 18.3526 9.39551C17.7543 9.39551 17.2693 9.89683 17.2693 10.5154V11.7942C17.2693 12.1698 16.9739 12.4752 16.6106 12.4752C16.2475 12.4752 15.9518 12.1698 15.9518 11.7942V10.5154C15.9518 9.89683 15.4669 9.39551 14.8685 9.39551Z" fill="#FF3D00"/>
</svg>
