<svg width="25" height="25" viewBox="0 0 25 25" fill="none" xmlns="http://www.w3.org/2000/svg">
<path d="M19.2568 25H19.2568C18.7974 25 18.3569 24.8305 17.9834 24.51C17.9757 24.5034 17.9681 24.4967 17.9606 24.4898L12.4057 19.4387L10.1082 22.0018C9.74081 22.4316 9.25455 22.6678 8.7366 22.6678C7.8817 22.6678 7.13501 22.0286 6.87862 21.0771C6.87409 21.0601 6.86976 21.0432 6.86587 21.026L5.52526 15.1576L1.28633 13.6945C0.539069 13.4367 0.0346602 12.6819 0.00170855 11.7718C-0.031314 10.8616 0.416688 10.0596 1.14297 9.72877L22.1251 0.170318C22.3732 0.0572421 22.6318 0 22.8939 0C23.5292 0 24.1255 0.333844 24.5301 0.915875C24.9306 1.49202 25.0853 2.24131 24.9546 2.97146L21.3722 22.993C21.1642 24.1559 20.2746 25 19.2568 25ZM19.2075 22.5754C19.2242 22.5882 19.2393 22.5938 19.2568 22.5938C19.2654 22.5938 19.3412 22.5913 19.3576 22.5003L22.9399 2.47881C22.944 2.45628 22.9425 2.44725 22.9326 2.43308C22.9219 2.41767 22.9051 2.40599 22.8938 2.40599C22.8886 2.40599 22.881 2.40815 22.8724 2.41212L2.61028 11.6425L6.66178 13.041C7.00575 13.1597 7.27206 13.4794 7.36468 13.8845L8.79407 20.1415L11.6264 16.9819C11.9952 16.5703 12.5663 16.5366 12.9687 16.9026L19.2075 22.5754Z" fill="#0085FF"/>
<path d="M9.66944 20.5866C9.70092 20.7057 10.8496 19.0272 10.8618 18.9031L10.3466 15.9546C10.2787 15.5662 10.3991 15.1657 10.6598 14.9124L20.1034 5.73898C20.3306 5.5039 20.0666 5.08935 19.8089 5.27601L8.70388 13.1939C8.44059 13.3817 8.30474 13.7406 8.36293 14.0946L9.66944 20.5866Z" fill="#0085FF"/>
</svg>
