<svg width="25" height="25" viewBox="0 0 25 25" fill="none" xmlns="http://www.w3.org/2000/svg">
<path d="M12.4998 25H12.4949C10.5444 24.9992 8.61053 24.5351 6.87752 23.6546L1.53542 24.8795C1.20945 24.9541 0.868034 24.8554 0.63076 24.618C0.393486 24.3806 0.29335 24.0372 0.365066 23.708L1.52264 18.4045C0.528145 16.5532 0.00305176 14.5257 0.000190735 12.5153C0 12.5084 0 12.5014 0 12.4947C0.00133515 9.16311 1.30844 6.02549 3.68023 3.65998C6.04668 1.29984 9.17873 0 12.4996 0C15.8279 0.00134579 18.955 1.30234 21.3058 3.66305C23.6893 6.05664 25.0011 9.19675 25 12.5047C24.999 15.0046 24.2554 17.4207 22.8495 19.4915C22.5449 19.9402 21.9372 20.055 21.492 19.748C21.047 19.4409 20.933 18.8284 21.2376 18.3797C22.4203 16.6374 23.0459 14.6057 23.0469 12.5039C23.0478 9.72334 21.94 7.07886 19.9274 5.05768C17.9451 3.06687 15.307 1.96985 12.4992 1.9687C6.6927 1.9687 1.96533 6.68089 1.95312 12.477C1.95312 12.4834 1.95332 12.4895 1.95332 12.4957C1.95255 14.2898 2.45323 16.1089 3.40099 17.7564C3.52364 17.9696 3.56255 18.2212 3.5099 18.4618L2.60334 22.6154L6.79474 21.6544C7.0261 21.6015 7.26871 21.6351 7.47738 21.7491C9.00879 22.5872 10.7439 23.0305 12.4952 23.0313H12.4996C14.4041 23.0313 16.2745 22.5122 17.9083 21.5304C18.3714 21.2518 18.9709 21.4046 19.2471 21.8716C19.5232 22.3386 19.3718 22.9427 18.9085 23.2212C16.9724 24.3848 14.7562 25 12.4996 25H12.4998ZM9.74178 7.49183C9.52759 7.0135 9.30214 6.99715 9.09843 6.98889H8.55045C8.35972 6.98889 8.04996 7.06079 7.78809 7.34821C7.52602 7.63564 6.7873 8.33045 6.7873 9.74372C6.7873 11.157 7.81193 12.5228 7.95479 12.7147C8.09784 12.9061 9.9329 15.899 12.8389 17.0504C15.2542 18.0073 15.7457 17.8169 16.2699 17.7689C16.7942 17.7212 17.9617 17.0742 18.1997 16.4035C18.4381 15.7329 18.4381 15.158 18.3666 15.0379C18.2953 14.9183 18.1046 14.8464 17.8186 14.7028C17.5325 14.5592 16.1312 13.8522 15.8691 13.7565C15.6071 13.6607 15.4165 13.6129 15.2258 13.9005C15.0351 14.1877 14.4735 14.852 14.3066 15.0434C14.1399 15.2355 13.973 15.2594 13.6871 15.1157C13.4012 14.9715 12.4897 14.663 11.3974 13.6846C10.5473 12.9231 9.9575 11.9522 9.79061 11.6646C9.62372 11.3773 9.77268 11.2216 9.91611 11.0784C10.0445 10.9497 10.2182 10.7738 10.3613 10.6062C10.504 10.4385 10.5448 10.3188 10.64 10.1271C10.7353 9.9354 10.6876 9.76775 10.6163 9.62395C10.5448 9.48033 9.99584 8.05975 9.74159 7.49183" fill="url(#paint0_linear)"/>
<defs>
<linearGradient id="paint0_linear" x1="12.5" y1="0" x2="12.5" y2="25" gradientUnits="userSpaceOnUse">
<stop stop-color="#FF003D"/>
<stop offset="0.635359" stop-color="#FF0000"/>
<stop offset="1" stop-color="#FF3D00"/>
</linearGradient>
</defs>
</svg>
