<svg width="120" height="120" viewBox="0 0 120 120" fill="none" xmlns="http://www.w3.org/2000/svg">
<circle cx="60" cy="60" r="60" fill="#FFCEDA"/>
<g clip-path="url(#clip0)">
<path d="M37.8438 28.0342V95.9997H88.1886V28.0342H37.8438Z" fill="#939393"/>
<path d="M32.8105 90.9655H83.1554V34.3276L71.8278 23H32.8105V90.9655Z" fill="white"/>
<path d="M83.1557 34.3276H71.8281V23L83.1557 34.3276Z" fill="#E0E0DE"/>
<path d="M78.1205 85.9309H52.9481C52.253 85.9309 51.6895 85.3674 51.6895 84.6723V74.6033C51.6895 73.9083 52.253 73.3447 52.9481 73.3447H78.1205C78.8156 73.3447 79.3791 73.9083 79.3791 74.6033V84.6723C79.3791 85.3674 78.8156 85.9309 78.1205 85.9309ZM54.2067 83.4137H76.8619V75.862H54.2067V83.4137Z" fill="#FFCDCD"/>
<path d="M56.7246 78.3789H61.7591V80.8961H56.7246V78.3789Z" fill="#FFCDCD"/>
<path d="M64.2754 78.3789H74.3444V80.8961H64.2754V78.3789Z" fill="#FFCDCD"/>
<path d="M61.7578 63.2757L69.3089 55.7246L86.9296 73.3453L79.3785 80.8964L61.7578 63.2757Z" fill="#E0E0DE"/>
<path d="M89.4477 44.3965C85.2773 44.3965 81.8959 47.7778 81.8959 51.9482V52.5775L70.5684 64.5344L76.8615 70.8275L88.8184 59.4999H89.4477C93.6181 59.4999 96.9994 56.1186 96.9994 51.9482C96.9994 47.7778 93.6181 44.3965 89.4477 44.3965Z" fill="#95573A"/>
<path d="M57.9844 67.0513L61.7602 63.2754L79.3809 80.8961L75.6051 84.6719L57.9844 67.0513Z" fill="#EBEBE9"/>
<path d="M92.5428 45.0635C87.3283 58.2501 79.181 64.5457 73.7305 67.6953L76.8629 70.8277L88.8198 59.5001H89.4491C93.0062 59.4958 96.0784 57.0093 96.8238 53.5309C97.5693 50.0525 95.7858 46.5255 92.5428 45.0635Z" fill="#8F4D2E"/>
<path d="M62.8521 34.8307C63.2461 34.0115 63.0795 33.0331 62.4367 32.3903C61.7939 31.7475 60.8155 31.5809 59.9963 31.9749C59.6939 31.12 58.8858 30.5479 57.9787 30.5479C57.0716 30.5479 56.2628 31.12 55.9611 31.9749C55.1425 31.5865 54.1678 31.7555 53.528 32.3971C52.8882 33.0387 52.7217 34.0134 53.1126 34.8307C52.2577 35.1331 51.6855 35.9412 51.6855 36.8483C51.6855 37.7554 52.2577 38.5642 53.1126 38.8659C52.7242 39.6845 52.8932 40.6592 53.5348 41.299C54.1764 41.9387 55.1511 42.1053 55.9684 41.7144C56.2708 42.5693 57.0789 43.1414 57.986 43.1414C58.8931 43.1414 59.7019 42.5693 60.0036 41.7144C60.8222 42.1028 61.7969 41.9338 62.4367 41.2922C63.0764 40.6506 63.243 39.6759 62.8521 38.8586C63.7021 38.5531 64.2687 37.7474 64.2687 36.8446C64.2687 35.9419 63.7021 35.1362 62.8521 34.8307Z" fill="#FFDC64"/>
<path d="M46.6562 58.2422H59.2425V60.7594H46.6562V58.2422Z" fill="#86A0AF"/>
<path d="M39.1035 63.2764H54.207V65.7936H39.1035V63.2764Z" fill="#86A0AF"/>
<path d="M39.1035 53.208H65.5345V55.7253H39.1035V53.208Z" fill="#86A0AF"/>
<path d="M39.1035 68.3105H46.6552V70.8278H39.1035V68.3105Z" fill="#86A0AF"/>
<path d="M39.1035 73.3447H49.1725V75.862H39.1035V73.3447Z" fill="#86A0AF"/>
<path d="M39.1035 78.3799H49.1725V80.8971H39.1035V78.3799Z" fill="#86A0AF"/>
<path d="M39.1035 83.4141H49.1725V85.9313H39.1035V83.4141Z" fill="#86A0AF"/>
<path d="M39.1035 58.2422H44.138V60.7594H39.1035V58.2422Z" fill="#86A0AF"/>
<path d="M49.1719 68.3105H54.2064V70.8278H49.1719V68.3105Z" fill="#86A0AF"/>
<path d="M49.1719 46.9141H54.2064V49.4313H49.1719V46.9141Z" fill="#86A0AF"/>
<path d="M56.7246 46.9141H66.7936V49.4313H56.7246V46.9141Z" fill="#86A0AF"/>
<path d="M51.6897 41.879C51.6897 49.5254 45.4912 55.7238 37.8448 55.7238C30.1985 55.7238 24 49.5254 24 41.879C24 34.2326 30.1985 28.0342 37.8448 28.0342C45.4912 28.0342 51.6897 34.2326 51.6897 41.879Z" fill="#FF003D"/>
<path d="M32.8103 49.431C32.4766 49.431 32.1564 49.2983 31.9204 49.0623L28.1445 45.2864L29.9243 43.5066L32.8103 46.3926L44.5066 34.6963L46.2864 36.4761L33.7002 49.0623C33.4642 49.2983 33.144 49.431 32.8103 49.431Z" fill="white"/>
</g>
<defs>
<clipPath id="clip0">
<rect x="24" y="23" width="73" height="73" fill="white"/>
</clipPath>
</defs>
</svg>
