<svg width="120" height="120" viewBox="0 0 120 120" fill="none" xmlns="http://www.w3.org/2000/svg">
<circle cx="60" cy="60" r="60" fill="#FFCEDA"/>
<g clip-path="url(#clip0)">
<path d="M22.7227 30.7764H40.5252V51.1226H22.7227V30.7764Z" fill="#42A2CE"/>
<path d="M70.886 51.9176L62.1427 43.4932H57.0564L48.3126 51.9176C43.403 56.521 40.5901 62.9324 40.5254 69.6617C40.5254 79.0866 49.0652 86.7277 59.5995 86.7277C70.1333 86.7277 78.6736 79.0866 78.6736 69.6617C78.6089 62.9324 75.796 56.521 70.886 51.9176Z" fill="#34A166"/>
<path d="M73.3082 54.6338C73.4917 55.9209 73.5842 57.2193 73.5871 58.5186C73.5871 69.8844 63.287 79.0985 50.5858 79.0985C47.9755 79.096 45.3802 78.6891 42.8926 77.8946C46.569 83.5198 52.8802 86.8579 59.5993 86.7279C70.1331 86.7279 78.6734 79.0868 78.6734 69.6619C78.6325 64.1901 76.7417 58.894 73.3082 54.6338Z" fill="#008F55"/>
<path d="M71.6795 30.7768H58.3279V24.4189H51.9696L45.6117 30.7768H40.5254V51.123H68.5005C69.906 51.123 71.0437 49.9848 71.0437 48.5794V37.1352H71.6795C73.4359 37.1352 74.8589 35.7122 74.8589 33.9563C74.8589 32.1998 73.4359 30.7768 71.6795 30.7768Z" fill="#FFB782"/>
<path d="M34.168 44.7646H36.7116V47.3078H34.168V44.7646Z" fill="white"/>
<path d="M68.6824 78.7683L68.0768 79.0989H58.3277C56.2207 79.0989 54.513 80.8067 54.513 82.9136C54.513 85.0206 56.2207 86.7283 58.3277 86.7283H55.7845L42.6282 80.7025C40.8391 79.8861 38.7268 80.6733 37.9104 82.4623C37.8875 82.5105 37.8676 82.5602 37.8471 82.6098C37.1924 84.2475 37.8228 86.1193 39.3349 87.0273L53.9721 95.809C55.1575 96.5227 56.5143 96.9 57.8978 96.9015H85.0313V80.3705C80.4269 76.5328 73.9439 75.8985 68.6824 78.7683Z" fill="#FFB782"/>
<path d="M85.0312 80.3701H96.4759V96.9011H85.0312V80.3701Z" fill="#FF003D"/>
<path d="M88.8457 90.543H91.3888V93.0861H88.8457V90.543Z" fill="white"/>
<path d="M65.3209 30.7769L68.4998 23.1475H50.6973L53.8762 30.7769H65.3209Z" fill="#34A166"/>
<path d="M83.7601 53.6663C83.3254 51.0579 81.2817 49.0147 78.6738 48.5795C81.2817 48.1447 83.3254 46.1011 83.7601 43.4932C84.1949 46.1011 86.2386 48.1447 88.8465 48.5795C86.2386 49.0147 84.1949 51.0579 83.7601 53.6663Z" fill="#FFC850"/>
<path d="M85.5308 74.4136L83.1147 73.6098C83.8702 71.3476 83.9627 68.9178 83.3844 66.6045L83.0879 65.4181L85.5546 64.8027L85.8511 65.9877C86.5492 68.7703 86.4372 71.6922 85.5308 74.4136Z" fill="#FFC850"/>
<path d="M41.7971 26.9623H39.2539C39.2539 24.1533 41.5313 21.876 44.3402 21.876V24.4191C42.9352 24.4191 41.7971 25.5573 41.7971 26.9623Z" fill="#FFC850"/>
<path d="M60.8715 63.8394H58.3284C57.6264 63.8394 57.0568 63.2698 57.0568 62.5678C57.0568 61.8658 57.6264 61.2963 58.3284 61.2963H63.4147V58.7531H60.8715V56.21H58.3284V58.7531C56.2214 58.7531 54.5137 60.4609 54.5137 62.5678C54.5137 64.6748 56.2214 66.3826 58.3284 66.3826H60.8715C61.5735 66.3826 62.1431 66.9526 62.1431 67.6542C62.1431 68.3561 61.5735 68.9262 60.8715 68.9262H55.7852V71.4694H58.3284V74.0125H60.8715V71.4694C62.9785 71.4694 64.6863 69.7616 64.6863 67.6542C64.6863 65.5472 62.9785 63.8394 60.8715 63.8394Z" fill="white"/>
<path d="M68.4989 87.9997H58.3263C57.6243 87.9997 57.0547 87.4296 57.0547 86.7276C57.0547 86.0261 57.6243 85.4561 58.3263 85.4561H68.4989C69.2009 85.4561 69.7704 86.0261 69.7704 86.7276C69.7704 87.4296 69.2009 87.9997 68.4989 87.9997Z" fill="#F2A46F"/>
<path d="M68.4998 51.1232C69.9052 51.1232 71.0429 49.985 71.0429 48.5795V38.1396C64.6383 44.8325 55.672 48.8531 48.8906 51.1232H68.4998Z" fill="#F5AB76"/>
</g>
<defs>
<clipPath id="clip0">
<rect x="22" y="22" width="75" height="75" fill="white"/>
</clipPath>
</defs>
</svg>
