<svg width="43" height="43" viewBox="0 0 43 43" fill="none" xmlns="http://www.w3.org/2000/svg">
<circle cx="21.5" cy="21.5" r="21.5" fill="white"/>
<path d="M9.49023 32H7.6748V26.2207L5.8916 26.7417V25.3667L9.32373 24.1797H9.49023V32ZM16.6284 28.9438H17.4233V30.3403H16.6284V32H14.8184V30.3403H11.7944L11.687 29.2339L14.8184 24.1958V24.1797H16.6284V28.9438ZM13.4111 28.9438H14.8184V26.5376L14.7056 26.7202L13.4111 28.9438ZM23.6484 28.8042C23.6484 29.8605 23.4103 30.6751 22.9341 31.248C22.4614 31.821 21.7936 32.1074 20.9307 32.1074C20.0605 32.1074 19.3874 31.8192 18.9111 31.2427C18.4349 30.6662 18.1968 29.8534 18.1968 28.8042V27.3755C18.1968 26.3192 18.4331 25.5046 18.9058 24.9316C19.382 24.3587 20.0534 24.0723 20.9199 24.0723C21.7865 24.0723 22.4578 24.3605 22.9341 24.937C23.4103 25.5135 23.6484 26.3281 23.6484 27.3809V28.8042ZM21.8384 27.1445C21.8384 26.5824 21.765 26.1634 21.6182 25.8877C21.4714 25.6084 21.2386 25.4688 20.9199 25.4688C20.6084 25.4688 20.381 25.5977 20.2378 25.8555C20.0981 26.1133 20.0229 26.5036 20.0122 27.0264V29.0244C20.0122 29.6081 20.0856 30.036 20.2324 30.3081C20.3792 30.5767 20.612 30.7109 20.9307 30.7109C21.2386 30.7109 21.466 30.5802 21.6128 30.3188C21.7596 30.0539 21.8348 29.6403 21.8384 29.0781V27.1445ZM30.0186 28.8042C30.0186 29.8605 29.7804 30.6751 29.3042 31.248C28.8315 31.821 28.1637 32.1074 27.3008 32.1074C26.4307 32.1074 25.7575 31.8192 25.2812 31.2427C24.805 30.6662 24.5669 29.8534 24.5669 28.8042V27.3755C24.5669 26.3192 24.8032 25.5046 25.2759 24.9316C25.7521 24.3587 26.4235 24.0723 27.29 24.0723C28.1566 24.0723 28.828 24.3605 29.3042 24.937C29.7804 25.5135 30.0186 26.3281 30.0186 27.3809V28.8042ZM28.2085 27.1445C28.2085 26.5824 28.1351 26.1634 27.9883 25.8877C27.8415 25.6084 27.6087 25.4688 27.29 25.4688C26.9785 25.4688 26.7511 25.5977 26.6079 25.8555C26.4683 26.1133 26.3931 26.5036 26.3823 27.0264V29.0244C26.3823 29.6081 26.4557 30.036 26.6025 30.3081C26.7493 30.5767 26.9821 30.7109 27.3008 30.7109C27.6087 30.7109 27.8361 30.5802 27.9829 30.3188C28.1297 30.0539 28.2049 29.6403 28.2085 29.0781V27.1445ZM34.9707 32H33.1553V26.2207L31.3721 26.7417V25.3667L34.8042 24.1797H34.9707V32Z" fill="#484848"/>
<path d="M13.8369 22H12.1143V12.0469H13.8369V22ZM21.165 19.4365C21.165 18.999 21.0101 18.6618 20.7002 18.4248C20.3949 18.1878 19.8411 17.9486 19.0391 17.707C18.237 17.4655 17.599 17.1966 17.125 16.9004C16.2181 16.3307 15.7646 15.5879 15.7646 14.6719C15.7646 13.8698 16.0905 13.209 16.7422 12.6895C17.3984 12.1699 18.2484 11.9102 19.292 11.9102C19.9847 11.9102 20.6022 12.0378 21.1445 12.293C21.6868 12.5482 22.113 12.9128 22.4229 13.3867C22.7327 13.8561 22.8877 14.3779 22.8877 14.9521H21.165C21.165 14.4326 21.001 14.027 20.6729 13.7354C20.3493 13.4391 19.8844 13.291 19.2783 13.291C18.7132 13.291 18.2734 13.4118 17.959 13.6533C17.6491 13.8949 17.4941 14.2321 17.4941 14.665C17.4941 15.0296 17.6628 15.335 18 15.5811C18.3372 15.8226 18.8932 16.0596 19.668 16.292C20.4427 16.5199 21.0648 16.7819 21.5342 17.0781C22.0036 17.3698 22.3477 17.707 22.5664 18.0898C22.7852 18.4681 22.8945 18.9124 22.8945 19.4229C22.8945 20.2523 22.5755 20.9131 21.9375 21.4053C21.304 21.8929 20.4427 22.1367 19.3535 22.1367C18.6335 22.1367 17.9704 22.0046 17.3643 21.7402C16.7627 21.4714 16.2933 21.1022 15.9561 20.6328C15.6234 20.1634 15.457 19.6165 15.457 18.9922H17.1865C17.1865 19.5573 17.3734 19.9948 17.7471 20.3047C18.1208 20.6146 18.6562 20.7695 19.3535 20.7695C19.9551 20.7695 20.4062 20.6488 20.707 20.4072C21.0124 20.1611 21.165 19.8376 21.165 19.4365ZM32.3555 17.2832C32.3555 18.2585 32.1868 19.1152 31.8496 19.8535C31.5124 20.5872 31.0293 21.1523 30.4004 21.5488C29.776 21.9408 29.056 22.1367 28.2402 22.1367C27.4336 22.1367 26.7135 21.9408 26.0801 21.5488C25.4512 21.1523 24.9635 20.5895 24.6172 19.8604C24.2754 19.1312 24.1022 18.2904 24.0977 17.3379V16.7773C24.0977 15.8066 24.2686 14.9499 24.6104 14.207C24.9567 13.4642 25.4421 12.8968 26.0664 12.5049C26.6953 12.1084 27.4154 11.9102 28.2266 11.9102C29.0378 11.9102 29.7555 12.1061 30.3799 12.498C31.0088 12.8854 31.4941 13.446 31.8359 14.1797C32.1777 14.9089 32.3509 15.7588 32.3555 16.7295V17.2832ZM30.626 16.7637C30.626 15.6608 30.4163 14.8154 29.9971 14.2275C29.5824 13.6396 28.9922 13.3457 28.2266 13.3457C27.4792 13.3457 26.8936 13.6396 26.4697 14.2275C26.0505 14.8109 25.8363 15.638 25.8271 16.709V17.2832C25.8271 18.377 26.0391 19.2223 26.4629 19.8193C26.8913 20.4163 27.4837 20.7148 28.2402 20.7148C29.0059 20.7148 29.5938 20.4232 30.0039 19.8398C30.4186 19.2565 30.626 18.4043 30.626 17.2832V16.7637Z" fill="#484848"/>
</svg>
