<svg width="43" height="43" viewBox="0 0 43 43" fill="none" xmlns="http://www.w3.org/2000/svg">
<circle cx="21.5" cy="21.5" r="21.5" fill="white"/>
<path d="M9.49023 32H7.6748V26.2207L5.8916 26.7417V25.3667L9.32373 24.1797H9.49023V32ZM17.1226 26.269C17.1226 26.6486 17.0277 26.9834 16.8379 27.2734C16.6517 27.5635 16.3939 27.7962 16.0645 27.9717C16.4368 28.1543 16.7323 28.4049 16.9507 28.7236C17.1691 29.0387 17.2783 29.4129 17.2783 29.8462C17.2783 30.5444 17.0366 31.0959 16.5532 31.5005C16.0734 31.9051 15.411 32.1074 14.5659 32.1074C13.7173 32.1074 13.0477 31.9051 12.5571 31.5005C12.0666 31.0923 11.8213 30.5409 11.8213 29.8462C11.8213 29.4272 11.9287 29.0566 12.1436 28.7344C12.3584 28.4121 12.6628 28.1579 13.0566 27.9717C12.7236 27.7962 12.4622 27.5635 12.2725 27.2734C12.0827 26.9834 11.9878 26.6486 11.9878 26.269C11.9878 25.5887 12.2188 25.0516 12.6807 24.6577C13.1426 24.2638 13.7656 24.0669 14.5498 24.0669C15.3411 24.0669 15.9678 24.2638 16.4297 24.6577C16.8916 25.0516 17.1226 25.5887 17.1226 26.269ZM15.4629 29.7012C15.4629 29.3789 15.3787 29.1318 15.2104 28.96C15.0457 28.7845 14.8273 28.6968 14.5552 28.6968C14.283 28.6968 14.0628 28.7845 13.8945 28.96C13.7262 29.1318 13.6421 29.3789 13.6421 29.7012C13.6421 30.0127 13.7262 30.2598 13.8945 30.4424C14.0664 30.6214 14.2902 30.7109 14.5659 30.7109C14.8345 30.7109 15.0511 30.6214 15.2158 30.4424C15.3805 30.2633 15.4629 30.0163 15.4629 29.7012ZM14.5498 25.4634C14.3063 25.4634 14.1201 25.5439 13.9912 25.7051C13.8659 25.8626 13.8032 26.0828 13.8032 26.3657C13.8032 26.645 13.8677 26.8706 13.9966 27.0425C14.1255 27.2144 14.3153 27.3003 14.5659 27.3003C14.813 27.3003 14.9974 27.2144 15.1191 27.0425C15.2445 26.8706 15.3071 26.645 15.3071 26.3657C15.3071 26.0864 15.2427 25.8662 15.1138 25.7051C14.9884 25.5439 14.8005 25.4634 14.5498 25.4634ZM23.6484 28.8042C23.6484 29.8605 23.4103 30.6751 22.9341 31.248C22.4614 31.821 21.7936 32.1074 20.9307 32.1074C20.0605 32.1074 19.3874 31.8192 18.9111 31.2427C18.4349 30.6662 18.1968 29.8534 18.1968 28.8042V27.3755C18.1968 26.3192 18.4331 25.5046 18.9058 24.9316C19.382 24.3587 20.0534 24.0723 20.9199 24.0723C21.7865 24.0723 22.4578 24.3605 22.9341 24.937C23.4103 25.5135 23.6484 26.3281 23.6484 27.3809V28.8042ZM21.8384 27.1445C21.8384 26.5824 21.765 26.1634 21.6182 25.8877C21.4714 25.6084 21.2386 25.4688 20.9199 25.4688C20.6084 25.4688 20.381 25.5977 20.2378 25.8555C20.0981 26.1133 20.0229 26.5036 20.0122 27.0264V29.0244C20.0122 29.6081 20.0856 30.036 20.2324 30.3081C20.3792 30.5767 20.612 30.7109 20.9307 30.7109C21.2386 30.7109 21.466 30.5802 21.6128 30.3188C21.7596 30.0539 21.8348 29.6403 21.8384 29.0781V27.1445ZM30.0186 28.8042C30.0186 29.8605 29.7804 30.6751 29.3042 31.248C28.8315 31.821 28.1637 32.1074 27.3008 32.1074C26.4307 32.1074 25.7575 31.8192 25.2812 31.2427C24.805 30.6662 24.5669 29.8534 24.5669 28.8042V27.3755C24.5669 26.3192 24.8032 25.5046 25.2759 24.9316C25.7521 24.3587 26.4235 24.0723 27.29 24.0723C28.1566 24.0723 28.828 24.3605 29.3042 24.937C29.7804 25.5135 30.0186 26.3281 30.0186 27.3809V28.8042ZM28.2085 27.1445C28.2085 26.5824 28.1351 26.1634 27.9883 25.8877C27.8415 25.6084 27.6087 25.4688 27.29 25.4688C26.9785 25.4688 26.7511 25.5977 26.6079 25.8555C26.4683 26.1133 26.3931 26.5036 26.3823 27.0264V29.0244C26.3823 29.6081 26.4557 30.036 26.6025 30.3081C26.7493 30.5767 26.9821 30.7109 27.3008 30.7109C27.6087 30.7109 27.8361 30.5802 27.9829 30.3188C28.1297 30.0539 28.2049 29.6403 28.2085 29.0781V27.1445ZM34.9707 32H33.1553V26.2207L31.3721 26.7417V25.3667L34.8042 24.1797H34.9707V32Z" fill="#484848"/>
<path d="M10.1221 18.2671C10.1221 19.0369 9.986 19.7119 9.71387 20.292C9.44173 20.8721 9.05143 21.3197 8.54297 21.6348C8.03809 21.9499 7.45801 22.1074 6.80273 22.1074C6.15462 22.1074 5.57633 21.9517 5.06787 21.6401C4.55941 21.3286 4.16553 20.8846 3.88623 20.3081C3.60693 19.728 3.46549 19.062 3.46191 18.3101V17.9233C3.46191 17.1535 3.59977 16.4767 3.87549 15.8931C4.15479 15.3058 4.54688 14.8564 5.05176 14.5449C5.56022 14.2298 6.1403 14.0723 6.79199 14.0723C7.44368 14.0723 8.02197 14.2298 8.52686 14.5449C9.03532 14.8564 9.42741 15.3058 9.70312 15.8931C9.98242 16.4767 10.1221 17.1517 10.1221 17.918V18.2671ZM8.48926 17.9126C8.48926 17.0926 8.34245 16.4696 8.04883 16.0435C7.75521 15.6174 7.33626 15.4043 6.79199 15.4043C6.2513 15.4043 5.83415 15.6156 5.54053 16.0381C5.24691 16.457 5.09831 17.0729 5.09473 17.8857V18.2671C5.09473 19.0656 5.24154 19.6851 5.53516 20.1255C5.82878 20.5659 6.2513 20.7861 6.80273 20.7861C7.34342 20.7861 7.75879 20.5749 8.04883 20.1523C8.33887 19.7262 8.48568 19.1068 8.48926 18.2939V17.9126ZM17.6577 22H16.0464V18.6484H12.9043V22H11.293V14.1797H12.9043V17.3486H16.0464V14.1797H17.6577V22ZM23.1255 19.9482C23.1255 19.6439 23.0181 19.4111 22.8032 19.25C22.5884 19.0853 22.2017 18.9134 21.6431 18.7344C21.0845 18.5518 20.6423 18.3727 20.3164 18.1973C19.4284 17.7174 18.9844 17.0711 18.9844 16.2583C18.9844 15.8358 19.1025 15.4598 19.3389 15.1304C19.5788 14.7974 19.9207 14.5378 20.3647 14.3516C20.8123 14.1654 21.3136 14.0723 21.8687 14.0723C22.4272 14.0723 22.925 14.1743 23.3618 14.3784C23.7987 14.5789 24.137 14.8636 24.377 15.2324C24.6204 15.6012 24.7422 16.0202 24.7422 16.4893H23.1309C23.1309 16.1312 23.0181 15.8537 22.7925 15.6567C22.5669 15.4562 22.25 15.356 21.8418 15.356C21.4479 15.356 21.1418 15.4401 20.9233 15.6084C20.7049 15.7731 20.5957 15.9915 20.5957 16.2637C20.5957 16.5179 20.7228 16.731 20.9771 16.9028C21.2349 17.0747 21.6126 17.2358 22.1104 17.3862C23.027 17.6619 23.6948 18.0039 24.1138 18.4121C24.5327 18.8203 24.7422 19.3288 24.7422 19.9375C24.7422 20.6143 24.4862 21.146 23.9741 21.5327C23.4621 21.9159 22.7728 22.1074 21.9062 22.1074C21.3047 22.1074 20.7568 21.9982 20.2627 21.7798C19.7686 21.5578 19.3908 21.2552 19.1294 20.8721C18.8716 20.4889 18.7427 20.0449 18.7427 19.54H20.3594C20.3594 20.403 20.875 20.8345 21.9062 20.8345C22.2894 20.8345 22.5884 20.7575 22.8032 20.6035C23.0181 20.446 23.1255 20.2275 23.1255 19.9482ZM30.2529 20.3887H27.4277L26.8906 22H25.1772L28.0884 14.1797H29.5815L32.5088 22H30.7954L30.2529 20.3887ZM27.8628 19.0835H29.8179L28.835 16.1562L27.8628 19.0835ZM37.2944 19.9482C37.2944 19.6439 37.187 19.4111 36.9722 19.25C36.7573 19.0853 36.3706 18.9134 35.812 18.7344C35.2534 18.5518 34.8112 18.3727 34.4854 18.1973C33.5973 17.7174 33.1533 17.0711 33.1533 16.2583C33.1533 15.8358 33.2715 15.4598 33.5078 15.1304C33.7477 14.7974 34.0897 14.5378 34.5337 14.3516C34.9813 14.1654 35.4826 14.0723 36.0376 14.0723C36.5962 14.0723 37.0939 14.1743 37.5308 14.3784C37.9676 14.5789 38.306 14.8636 38.5459 15.2324C38.7894 15.6012 38.9111 16.0202 38.9111 16.4893H37.2998C37.2998 16.1312 37.187 15.8537 36.9614 15.6567C36.7358 15.4562 36.4189 15.356 36.0107 15.356C35.6169 15.356 35.3107 15.4401 35.0923 15.6084C34.8739 15.7731 34.7646 15.9915 34.7646 16.2637C34.7646 16.5179 34.8918 16.731 35.146 16.9028C35.4038 17.0747 35.7816 17.2358 36.2793 17.3862C37.196 17.6619 37.8638 18.0039 38.2827 18.4121C38.7017 18.8203 38.9111 19.3288 38.9111 19.9375C38.9111 20.6143 38.6551 21.146 38.1431 21.5327C37.631 21.9159 36.9417 22.1074 36.0752 22.1074C35.4736 22.1074 34.9258 21.9982 34.4316 21.7798C33.9375 21.5578 33.5597 21.2552 33.2983 20.8721C33.0405 20.4889 32.9116 20.0449 32.9116 19.54H34.5283C34.5283 20.403 35.0439 20.8345 36.0752 20.8345C36.4583 20.8345 36.7573 20.7575 36.9722 20.6035C37.187 20.446 37.2944 20.2275 37.2944 19.9482Z" fill="#484848"/>
</svg>
