<svg width="43" height="43" viewBox="0 0 43 43" fill="none" xmlns="http://www.w3.org/2000/svg">
<circle cx="21.5" cy="21.5" r="21.5" fill="white"/>
<path d="M11.9136 25.1465L8.9917 32H7.07959L10.0068 25.5762H6.2793V24.1797H11.9136V25.1465ZM18.2837 25.1465L15.3618 32H13.4497L16.377 25.5762H12.6494V24.1797H18.2837V25.1465ZM22.7847 29.3306H19.5566V27.9287H22.7847V29.3306ZM29.6006 28.8042C29.6006 29.8605 29.3625 30.6751 28.8862 31.248C28.4136 31.821 27.7458 32.1074 26.8828 32.1074C26.0127 32.1074 25.3395 31.8192 24.8633 31.2427C24.387 30.6662 24.1489 29.8534 24.1489 28.8042V27.3755C24.1489 26.3192 24.3853 25.5046 24.8579 24.9316C25.3341 24.3587 26.0055 24.0723 26.8721 24.0723C27.7386 24.0723 28.41 24.3605 28.8862 24.937C29.3625 25.5135 29.6006 26.3281 29.6006 27.3809V28.8042ZM27.7905 27.1445C27.7905 26.5824 27.7171 26.1634 27.5703 25.8877C27.4235 25.6084 27.1908 25.4688 26.8721 25.4688C26.5605 25.4688 26.3332 25.5977 26.1899 25.8555C26.0503 26.1133 25.9751 26.5036 25.9644 27.0264V29.0244C25.9644 29.6081 26.0378 30.036 26.1846 30.3081C26.3314 30.5767 26.5641 30.7109 26.8828 30.7109C27.1908 30.7109 27.4181 30.5802 27.5649 30.3188C27.7118 30.0539 27.7869 29.6403 27.7905 29.0781V27.1445ZM34.5527 32H32.7373V26.2207L30.9541 26.7417V25.3667L34.3862 24.1797H34.5527V32Z" fill="#484848"/>
<path d="M15.7412 20.6191H20.2598V22H14.0117V12.0469H15.7412V20.6191ZM29.0918 17.2832C29.0918 18.2585 28.9232 19.1152 28.5859 19.8535C28.2487 20.5872 27.7656 21.1523 27.1367 21.5488C26.5124 21.9408 25.7923 22.1367 24.9766 22.1367C24.1699 22.1367 23.4499 21.9408 22.8164 21.5488C22.1875 21.1523 21.6999 20.5895 21.3535 19.8604C21.0117 19.1312 20.8385 18.2904 20.834 17.3379V16.7773C20.834 15.8066 21.0049 14.9499 21.3467 14.207C21.693 13.4642 22.1784 12.8968 22.8027 12.5049C23.4316 12.1084 24.1517 11.9102 24.9629 11.9102C25.7741 11.9102 26.4919 12.1061 27.1162 12.498C27.7451 12.8854 28.2305 13.446 28.5723 14.1797C28.9141 14.9089 29.0872 15.7588 29.0918 16.7295V17.2832ZM27.3623 16.7637C27.3623 15.6608 27.1527 14.8154 26.7334 14.2275C26.3187 13.6396 25.7285 13.3457 24.9629 13.3457C24.2155 13.3457 23.6299 13.6396 23.2061 14.2275C22.7868 14.8109 22.5726 15.638 22.5635 16.709V17.2832C22.5635 18.377 22.7754 19.2223 23.1992 19.8193C23.6276 20.4163 24.2201 20.7148 24.9766 20.7148C25.7422 20.7148 26.3301 20.4232 26.7402 19.8398C27.1549 19.2565 27.3623 18.4043 27.3623 17.2832V16.7637Z" fill="#484848"/>
</svg>
