<svg width="39" height="48" viewBox="0 0 39 48" fill="none" xmlns="http://www.w3.org/2000/svg">
<path d="M4.00016 16.0001H8.80016C9.24172 16.0001 9.60013 15.6417 9.60013 15.2001C9.60013 14.7586 9.24172 14.4001 8.80016 14.4001H4.00016C3.5586 14.4001 3.2002 14.7586 3.2002 15.2001C3.2001 15.6417 3.55851 16.0001 4.00016 16.0001Z" fill="url(#paint0_linear)"/>
<path d="M36 0C34.6888 0 34.0016 0.795187 33.7344 1.60003H13.6C13.1585 1.60003 12.8001 1.95844 12.8001 2.4V4.8H4.00003C1.79437 4.8 0 6.59437 0 8.80003V17.6001C0 18.0416 0.358406 18.4 0.799969 18.4C1.24153 18.4 1.59994 18.0416 1.59994 17.6001V8.80003C1.59994 7.47684 2.67675 6.40003 3.99994 6.40003H23.1999C24.5231 6.40003 25.5999 7.47684 25.5999 8.80003V34.4001C25.5999 37.4881 23.0879 40 20 40H18.3999C17.9584 40 17.6 40.3584 17.6 40.8V43.2H9.6V40.8C9.6 40.3584 9.2416 40 8.80003 40H7.2C4.11197 40 1.60003 37.488 1.60003 34.4001V21.4688C3.54319 21.1417 9.40406 20.304 12.5024 21.5433C16.6952 23.2201 23.1224 21.6449 23.3944 21.5761C23.8223 21.4689 24.0832 21.0345 23.976 20.6065C23.8688 20.1777 23.4328 19.9169 23.0064 20.0242C22.9448 20.0393 16.8056 21.5402 13.0976 20.057C8.92481 18.3881 0.980063 19.949 0.643219 20.0162C0.268781 20.0906 0 20.4186 0 20.8002V34.4002C0 38.3698 3.23044 41.6003 7.2 41.6003H7.99997V43.2C7.99997 44.0824 8.71753 44.8 9.6 44.8H12.8V47.2C12.8 47.6416 13.1584 48 13.5999 48C14.0415 48 14.3999 47.6416 14.3999 47.2V44.8H17.5999C18.4823 44.8 19.1999 44.0825 19.1999 43.2V41.6H19.9999C23.9694 41.6 27.1999 38.3695 27.1999 34.4V8.80003C27.1999 6.59447 25.4055 4.8 23.1998 4.8H14.4V3.19997H33.6V47.1999C33.6 47.6415 33.9584 47.9999 34.4 47.9999C34.8415 47.9999 35.1999 47.6415 35.1999 47.1999V2.40956C35.2095 2.04 35.3559 1.59994 35.9999 1.59994C36.6439 1.59994 36.7903 2.03991 36.7999 2.39991V47.1999C36.7999 47.6415 37.1583 47.9999 37.5998 47.9999C38.0414 47.9999 38.3998 47.6415 38.3998 47.1999V2.4C38.4 1.43522 37.7608 0 36 0Z" fill="url(#paint1_linear)"/>
<path d="M4.00016 11.2H5.60019C6.04176 11.2 6.40016 10.8416 6.40016 10.4001C6.40016 9.9585 6.04176 9.6001 5.60019 9.6001H4.00016C3.5586 9.6001 3.2002 9.9585 3.2002 10.4001C3.2002 10.8416 3.55851 11.2 4.00016 11.2Z" fill="url(#paint2_linear)"/>
<path d="M4.00016 30.4H5.60019C6.04176 30.4 6.40016 30.0416 6.40016 29.6C6.40016 29.1585 6.04176 28.8 5.60019 28.8H4.00016C3.5586 28.8 3.2002 29.1585 3.2002 29.6C3.2002 30.0416 3.55851 30.4 4.00016 30.4Z" fill="url(#paint3_linear)"/>
<path d="M4.00016 35.2H8.80016C9.24172 35.2 9.60013 34.8416 9.60013 34.4001C9.60013 33.9585 9.24172 33.6001 8.80016 33.6001H4.00016C3.5586 33.6001 3.2002 33.9585 3.2002 34.4001C3.2002 34.8416 3.55851 35.2 4.00016 35.2Z" fill="url(#paint4_linear)"/>
<path d="M4.00016 25.5999H5.60019C6.04176 25.5999 6.40016 25.2415 6.40016 24.8C6.40016 24.3584 6.04176 24 5.60019 24H4.00016C3.5586 24 3.2002 24.3584 3.2002 24.8C3.2001 25.2415 3.55851 25.5999 4.00016 25.5999Z" fill="url(#paint5_linear)"/>
<defs>
<linearGradient id="paint0_linear" x1="6.40016" y1="14.4001" x2="6.40016" y2="16.0001" gradientUnits="userSpaceOnUse">
<stop stop-color="#FF003D"/>
<stop offset="0.563536" stop-color="#FF0000"/>
<stop offset="1" stop-color="#FF3D00"/>
</linearGradient>
<linearGradient id="paint1_linear" x1="19.1999" y1="0" x2="19.1999" y2="48" gradientUnits="userSpaceOnUse">
<stop stop-color="#FF003D"/>
<stop offset="0.563536" stop-color="#FF0000"/>
<stop offset="1" stop-color="#FF3D00"/>
</linearGradient>
<linearGradient id="paint2_linear" x1="4.80018" y1="9.6001" x2="4.80018" y2="11.2" gradientUnits="userSpaceOnUse">
<stop stop-color="#FF003D"/>
<stop offset="0.563536" stop-color="#FF0000"/>
<stop offset="1" stop-color="#FF3D00"/>
</linearGradient>
<linearGradient id="paint3_linear" x1="4.80018" y1="28.8" x2="4.80018" y2="30.4" gradientUnits="userSpaceOnUse">
<stop stop-color="#FF003D"/>
<stop offset="0.563536" stop-color="#FF0000"/>
<stop offset="1" stop-color="#FF3D00"/>
</linearGradient>
<linearGradient id="paint4_linear" x1="6.40016" y1="33.6001" x2="6.40016" y2="35.2" gradientUnits="userSpaceOnUse">
<stop stop-color="#FF003D"/>
<stop offset="0.563536" stop-color="#FF0000"/>
<stop offset="1" stop-color="#FF3D00"/>
</linearGradient>
<linearGradient id="paint5_linear" x1="4.80018" y1="24" x2="4.80018" y2="25.5999" gradientUnits="userSpaceOnUse">
<stop stop-color="#FF003D"/>
<stop offset="0.563536" stop-color="#FF0000"/>
<stop offset="1" stop-color="#FF3D00"/>
</linearGradient>
</defs>
</svg>
