<svg width="50" height="50" viewBox="0 0 50 50" fill="none" xmlns="http://www.w3.org/2000/svg">
<path d="M20.3027 15.6567C19.8982 15.6567 19.5703 15.9846 19.5703 16.3892V17.1721C19.5703 17.5766 19.8982 17.9045 20.3027 17.9045C20.7072 17.9045 21.0351 17.5766 21.0351 17.1721V16.3892C21.0351 15.9847 20.7071 15.6567 20.3027 15.6567Z" fill="#FF0000"/>
<path d="M29.6973 15.6567C29.2927 15.6567 28.9648 15.9846 28.9648 16.3892V17.1721C28.9648 17.5766 29.2927 17.9045 29.6973 17.9045C30.1018 17.9045 30.4297 17.5766 30.4297 17.1721V16.3892C30.4297 15.9847 30.1018 15.6567 29.6973 15.6567Z" fill="#FF0000"/>
<path d="M27.8696 21.3539C27.5856 21.0657 27.1219 21.0628 26.834 21.3469C26.5666 21.6106 25.9258 21.9186 24.9998 21.9186C24.0738 21.9186 23.4331 21.6106 23.1657 21.3469C22.8776 21.0626 22.4139 21.0658 22.13 21.3538C21.8459 21.6418 21.849 22.1055 22.1369 22.3896C22.7677 23.0118 23.8379 23.3834 24.9998 23.3834C26.1616 23.3834 27.2318 23.0118 27.8626 22.3896C28.1506 22.1056 28.1537 21.6418 27.8696 21.3539Z" fill="#FF0000"/>
<path d="M21.086 13.3081H19.5205C19.116 13.3081 18.7881 13.6359 18.7881 14.0405C18.7881 14.4451 19.116 14.7729 19.5205 14.7729H21.0861C21.4906 14.7729 21.8185 14.4451 21.8185 14.0405C21.8185 13.6359 21.4905 13.3081 21.086 13.3081Z" fill="#FF0000"/>
<path d="M30.4797 13.3081H28.9141C28.5095 13.3081 28.1816 13.6359 28.1816 14.0405C28.1816 14.4451 28.5096 14.7729 28.9141 14.7729H30.4797C30.8843 14.7729 31.2121 14.4451 31.2121 14.0405C31.2121 13.6359 30.8843 13.3081 30.4797 13.3081Z" fill="#FF0000"/>
<path d="M40.6859 34.8864L35.4068 33.2634C35.4154 33.1039 35.4036 32.9426 35.366 32.7832C35.2504 32.2939 34.9263 31.8842 34.4766 31.6593L31.2118 30.027V27.6991C33.6544 26.0002 35.3736 23.3298 35.8034 20.2525H36.2388C37.6662 20.2525 38.8906 19.1919 39.0262 17.8377C39.1021 17.0788 38.8539 16.3212 38.3451 15.759C38.0989 15.4868 37.8014 15.2715 37.4743 15.121V6.99498C37.4743 4.00125 35.0388 1.56562 32.045 1.56562C32.0412 1.56562 31.9902 1.56562 31.9211 1.56571C30.6025 0.593063 28.6653 0 26.5164 0C21.9413 0 19.8395 0.95312 17.4059 2.05673C16.1058 2.64627 14.7616 3.25584 12.8561 3.81306C12.6561 3.87156 12.4904 4.01248 12.4006 4.20066C12.3109 4.38874 12.3055 4.60622 12.3859 4.79851C12.4082 4.85183 12.7354 5.61149 13.5796 6.53434C13.2151 6.98306 12.5251 8.13062 12.5251 10.3871V15.1536C11.6823 15.5555 11.0672 16.3515 10.9733 17.2881C10.8972 18.047 11.1454 18.8047 11.6542 19.3671C12.1632 19.9298 12.8903 20.2524 13.6489 20.2524H14.1956C14.625 23.3307 16.3443 26.0014 18.7875 27.7V30.0269L15.5226 31.6592C15.0729 31.8842 14.7487 32.2939 14.6332 32.7832C14.5956 32.9425 14.5839 33.1038 14.5924 33.2633L9.31326 34.8863C7.02021 35.5914 5.47949 37.6768 5.47949 40.0759V49.2673C5.47949 49.6719 5.80742 49.9997 6.21191 49.9997C6.6164 49.9997 6.94433 49.6719 6.94433 49.2673V40.076C6.94433 38.3243 8.06932 36.8014 9.74382 36.2866L15.2351 34.5983L16.2043 35.8907L15.1032 36.992C14.4026 37.6925 14.2295 38.7585 14.6726 39.6447L16.7693 43.8379H14.7727V43.0047C14.7727 42.6001 14.4448 42.2723 14.0403 42.2723C13.6358 42.2723 13.3079 42.6001 13.3079 43.0047V43.8379H10.1261C9.72166 43.8379 9.39373 44.1658 9.39373 44.5703V49.2673C9.39373 49.6719 9.72166 49.9997 10.1261 49.9997H17.9544C18.3589 49.9997 18.6868 49.6719 18.6868 49.2673V47.673L19.6478 49.5949C19.7761 49.8516 20.0347 49.9999 20.3034 49.9999C20.4135 49.9999 20.5252 49.9749 20.6304 49.9224C20.9922 49.7414 21.1389 49.3016 20.9579 48.9397L15.9829 38.9894C15.8222 38.6681 15.885 38.2817 16.139 38.0276L17.6895 36.477C17.9472 36.2193 17.9762 35.8113 17.7575 35.5197L16.0982 33.3073C16.043 33.2337 16.0499 33.1582 16.059 33.1197C16.0681 33.0812 16.0956 33.0105 16.178 32.9693L19.0627 31.527L21.0992 38.5092C21.2125 38.8977 21.6189 39.1204 22.0074 39.0074C22.3958 38.8941 22.6187 38.4876 22.5055 38.0992L22.1845 36.9986C23.0851 37.3116 24.0373 37.4745 24.9999 37.4745C25.9629 37.4745 26.9147 37.3121 27.8151 36.9991L24.9998 46.6514L23.4191 41.2321C23.3059 40.8436 22.8993 40.6207 22.5109 40.7339C22.1226 40.8472 21.8996 41.2539 22.0129 41.6421L24.2967 49.4722C24.3879 49.7847 24.6743 49.9995 24.9998 49.9995C25.3253 49.9995 25.6118 49.7847 25.7029 49.4722L30.937 31.527L33.8216 32.9693C33.904 33.0105 33.9315 33.0813 33.9407 33.1196C33.9497 33.1582 33.9567 33.2337 33.9015 33.3073L32.2421 35.5197C32.0235 35.8112 32.0525 36.2193 32.3101 36.4771L33.8607 38.0277C34.1148 38.2817 34.1774 38.6682 34.0168 38.9894L29.0415 48.9398C28.8605 49.3016 29.0072 49.7415 29.369 49.9225C29.4742 49.9751 29.586 50 29.6961 50C29.9647 50 30.2234 49.8516 30.3517 49.595L35.3268 39.6448C35.7698 38.7587 35.5969 37.6926 34.8964 36.9921L33.7951 35.8907L34.7642 34.5984L40.2556 36.2868C41.93 36.8015 43.055 38.3244 43.055 40.0762V49.2673C43.055 49.6719 43.3828 49.9997 43.7874 49.9997C44.192 49.9997 44.5198 49.6719 44.5198 49.2673V40.076C44.5197 37.6769 42.9791 35.5914 40.6859 34.8864ZM17.2218 48.5349H10.8584V45.3028H13.3077V45.3532C13.3077 45.7577 13.6356 46.0856 14.0401 46.0856C14.4446 46.0856 14.7725 45.7577 14.7725 45.3532V45.3028H17.2218V48.5349ZM18.0108 3.3908C20.3837 2.31473 22.2579 1.46484 26.5164 1.46484C29.2185 1.46484 31.6332 2.59569 32.1331 4.09539C32.2611 4.47917 32.6755 4.6863 33.0595 4.55857C33.4432 4.43064 33.6506 4.0158 33.5227 3.63211C33.4806 3.50574 33.4303 3.38182 33.3734 3.26014C34.9079 3.80759 36.0096 5.27477 36.0096 6.99498V14.8736H35.1764C34.7169 14.8736 34.3432 14.4999 34.3432 14.0404V13.2575C34.3432 9.86195 31.8848 7.36461 31.7801 7.25992C31.5871 7.06676 31.3024 6.99752 31.0416 7.07935C26.9759 8.36333 21.2432 9.44545 17.0227 7.31002C15.5208 6.55006 14.634 5.58434 14.1676 4.93952C15.7224 4.42859 16.9276 3.88201 18.0108 3.3908ZM29.747 30.375L28.3482 35.1711C27.3232 35.7203 26.1717 36.0098 24.9998 36.0098C23.8286 36.0098 22.676 35.7207 21.6515 35.1719L20.2524 30.375V28.5579C21.6884 29.2549 23.2991 29.6465 24.9997 29.6465C26.7001 29.6465 28.3108 29.2547 29.747 28.5573V30.375ZM24.9997 28.1816C19.7921 28.1816 15.5555 23.9449 15.5555 18.7373C15.5555 18.3327 15.2276 18.0049 14.8231 18.0049C14.4186 18.0049 14.0907 18.3327 14.0907 18.7373V18.7877H13.6489C13.3035 18.7877 12.9723 18.6406 12.7404 18.3843C12.5054 18.1246 12.3955 17.7872 12.4308 17.4342C12.4924 16.8197 13.0766 16.3384 13.7608 16.3384H14.8231C16.0903 16.3384 17.1211 15.3074 17.1211 14.0403V11.2759C17.1211 10.8713 16.7932 10.5435 16.3887 10.5435C15.9842 10.5435 15.6563 10.8713 15.6563 11.2759V14.0403C15.6563 14.4998 15.2825 14.8735 14.8231 14.8735H13.9899V10.3871C13.9899 8.68296 14.4479 7.8355 14.6594 7.53501C15.1069 7.88794 15.6317 8.23755 16.2459 8.55766C17.9058 9.4228 19.8814 9.90189 22.1177 9.98158C24.7389 10.0758 27.7347 9.61606 31.0278 8.61704C31.609 9.32094 32.8785 11.1048 32.8785 13.2574V14.0403C32.8785 15.3075 33.9094 16.3384 35.1765 16.3384H36.3507C36.6961 16.3384 37.0273 16.4854 37.2592 16.7418C37.4942 17.0015 37.6041 17.3388 37.5688 17.6918C37.5072 18.3063 36.9232 18.7877 36.239 18.7877H35.9085V18.7449C35.9085 18.3405 35.5808 18.0127 35.1764 18.0125C35.1763 18.0125 35.1762 18.0125 35.1761 18.0125C34.7718 18.0125 34.444 18.34 34.4437 18.7443C34.4397 23.948 30.2032 28.1816 24.9997 28.1816Z" fill="#FF0000"/>
<path d="M39.8741 44.2295H38.6495V43.0049C38.6495 42.6003 38.3217 42.2725 37.9171 42.2725C37.5125 42.2725 37.1847 42.6003 37.1847 43.0049V44.2295H35.96C35.5554 44.2295 35.2275 44.5573 35.2275 44.9619C35.2275 45.3665 35.5554 45.6943 35.96 45.6943H37.1847V46.9189C37.1847 47.3235 37.5125 47.6513 37.9171 47.6513C38.3217 47.6513 38.6495 47.3235 38.6495 46.9189V45.6943H39.8741C40.2787 45.6943 40.6065 45.3665 40.6065 44.9619C40.6065 44.5573 40.2785 44.2295 39.8741 44.2295Z" fill="#FF0000"/>
</svg>
