<svg width="18" height="18" viewBox="0 0 18 18" fill="none" xmlns="http://www.w3.org/2000/svg">
<path d="M14.188 8.94863C12.9885 8.94863 12.0126 9.92445 12.0126 11.124C12.0126 12.3234 12.9885 13.2995 14.188 13.2995H17.1477C17.1595 13.2995 17.1711 13.2982 17.1827 13.2976C17.1944 13.2982 17.2058 13.2992 17.2174 13.2992C17.6497 13.2992 18 12.9489 18 12.5166V7.05019C18 6.10047 17.5363 5.25733 16.8238 4.73436L14.4638 0.86269C14.3554 0.684565 14.1801 0.557187 13.9771 0.508885C13.7743 0.46038 13.5605 0.495026 13.3832 0.605081L11.711 1.64204L10.9677 0.384361C10.8613 0.204197 10.6873 0.0743739 10.4841 0.0234228C10.2813 -0.0273245 10.0663 0.00508041 9.88757 0.113912L3.19952 4.17839H2.17541C1.84463 4.17839 1.57459 3.91405 1.56542 3.58552C1.57459 3.25719 1.84463 2.99285 2.17541 2.99285H3.46365C3.89592 2.99285 4.24626 2.64251 4.24626 2.21025C4.24626 1.77798 3.89592 1.42764 3.46365 1.42764H2.17541C1.15211 1.42764 0.291644 2.13789 0.0607337 3.09109C0.0216033 3.18423 0 3.28654 0 3.39415V15.1282C0 16.7118 1.28825 18 2.8716 18H15.1282C16.3663 18 17.4611 17.2113 17.8529 16.0374C17.9896 15.6273 17.7681 15.184 17.358 15.0473C16.9482 14.9105 16.5049 15.1321 16.3679 15.5421C16.1898 16.0759 15.6917 16.4346 15.1282 16.4346H2.87181C2.15136 16.4346 1.56522 15.8486 1.56522 15.1282V5.65597C1.75904 5.71263 1.96365 5.7436 2.17541 5.7436H15.1282C15.8486 5.7436 16.4348 6.32954 16.4348 7.04999V8.94863H14.188ZM13.5779 11.124C13.5779 10.7876 13.8516 10.5139 14.188 10.5139H16.4348V11.734H14.188C13.8516 11.7342 13.5779 11.4603 13.5779 11.124ZM13.5379 2.35087L14.6519 4.17839H13.2096L12.5073 2.9898L13.5379 2.35087ZM10.0233 1.86296L10.7181 3.03871C10.7336 3.07478 10.7509 3.11045 10.7723 3.14489C10.7882 3.17078 10.8057 3.19482 10.8243 3.21806L11.3916 4.17839H6.21338L10.0233 1.86296Z" fill="#FF0000"/>
</svg>
