<svg width="120" height="120" viewBox="0 0 120 120" fill="none" xmlns="http://www.w3.org/2000/svg">
<circle cx="60" cy="60" r="60" fill="#FFF9F9"/>
<path d="M60.2967 46.3908L55.7235 49.3303L55.7234 49.3303L47.6654 54.511L45.1397 51.9853L43.8594 50.705V52.5156V63.5781H28.4156L25.6719 55.347V41.1977L31.9664 38.5H41.5512L47.7969 40.2845V48.5781V49.6187L48.784 49.2896L54.6903 47.3209L55.0461 47.2023L55.1646 46.8465L55.8756 44.7138L57.0708 45.3114L57.4062 45.4792L57.7417 45.3114L59.1182 44.6232L60.2967 46.3908Z" fill="white" stroke="#CBCBCB" stroke-width="1.5"/>
<path d="M35.75 42.6719H37.7188V64.3281H35.75V42.6719Z" fill="#D0E2E7"/>
<path d="M41.6562 37.75L36.7344 45.625L31.8125 37.75L33.7812 36.7656H39.6875L41.6562 37.75Z" fill="#90D8F9"/>
<path d="M33.7812 36.7656L31.8125 37.75L34.5115 42.0686L36.7344 38.7344L33.7812 36.7656Z" fill="#B1E4F9"/>
<path d="M39.6875 36.7656L41.6562 37.75L38.9572 42.0686L36.7344 38.7344L39.6875 36.7656Z" fill="#B1E4F9"/>
<path d="M33.8169 64.3281H31.7768L28.8938 53.7584C28.8707 53.6742 28.8591 53.5873 28.8594 53.5V50.5469H30.8281V53.3683L33.8169 64.3281Z" fill="#D0E2E7"/>
<path d="M42.6406 47.5938C43.7279 47.5938 44.6094 46.7123 44.6094 45.625C44.6094 44.5377 43.7279 43.6562 42.6406 43.6562C41.5533 43.6562 40.6719 44.5377 40.6719 45.625C40.6719 46.7123 41.5533 47.5938 42.6406 47.5938Z" fill="#4F5761"/>
<path d="M31.8125 43.6562H29.8438V38.7344C29.8446 37.9514 30.156 37.2008 30.7097 36.6472C31.2633 36.0935 32.0139 35.7821 32.7969 35.7812H33.7812V36.7656L31.8125 37.75V43.6562Z" fill="#FF003D"/>
<path d="M43.625 45.625H41.6562V37.75L39.6875 36.7656V35.7812H40.6719C41.4551 35.7812 42.2062 36.0924 42.7601 36.6462C43.3139 37.2 43.625 37.9512 43.625 38.7344V45.625Z" fill="#FF003D"/>
<path d="M33.7812 48.5781H31.8125V45.625C31.8125 45.3639 31.7088 45.1135 31.5242 44.9289C31.3396 44.7443 31.0892 44.6406 30.8281 44.6406C30.5671 44.6406 30.3167 44.7443 30.1321 44.9289C29.9475 45.1135 29.8438 45.3639 29.8438 45.625V48.5781H27.875V45.625C27.875 44.8418 28.1861 44.0906 28.7399 43.5368C29.2938 42.983 30.0449 42.6719 30.8281 42.6719C31.6113 42.6719 32.3625 42.983 32.9163 43.5368C33.4701 44.0906 33.7812 44.8418 33.7812 45.625V48.5781Z" fill="#E04446"/>
<path d="M61.3438 46.6094L56.129 49.9612L54.4531 46.6094L55.4375 43.6562L57.4062 44.6406L59.375 43.6562L61.3438 46.6094Z" fill="#FDC5CA"/>
<path d="M46.5781 49.5625V54.4844L44.6094 52.5156V49.5625H46.5781Z" fill="#D0E2E7"/>
<path d="M43.625 32.8281L42.6406 33.8125L41.6562 35.7812H39.6875V36.7656L38.6071 37.4854L36.7344 38.7344L33.7812 36.7656V27.9062H41.6562L42.6406 30.8594L43.625 32.8281Z" fill="#FDC5CA"/>
<path d="M40.6719 28.8906H38.7031L35.75 33.8125H33.7812V24.9531H44.6094C44.6094 25.9974 44.1945 26.9989 43.4561 27.7374C42.7177 28.4758 41.7162 28.8906 40.6719 28.8906Z" fill="#BA8B5D"/>
<path d="M39.6885 35.7812V36.7656L38.6082 37.4854L37.3125 36.1885L38.7042 34.7969L39.6885 35.7812Z" fill="#FC979E"/>
<path d="M42.6406 46.6094C43.1843 46.6094 43.625 46.1687 43.625 45.625C43.625 45.0813 43.1843 44.6406 42.6406 44.6406C42.097 44.6406 41.6562 45.0813 41.6562 45.625C41.6562 46.1687 42.097 46.6094 42.6406 46.6094Z" fill="#68737F"/>
<path d="M27.875 45.625H29.8438V48.5781H27.875V45.625Z" fill="#86A0AF"/>
<path d="M31.8125 45.625H33.7812V48.5781H31.8125V45.625Z" fill="#86A0AF"/>
<path d="M26.8906 78.1094H76.1094V82.0469H26.8906V78.1094Z" fill="#86A0AF"/>
<path d="M65.7889 77.3594H27.6406V72.9531H63.3125H63.776L63.9833 72.5385L76.1594 48.1865C76.2836 47.9379 76.4746 47.7289 76.711 47.5828C76.9474 47.4368 77.2197 47.3594 77.4976 47.3594C77.7494 47.3594 77.9972 47.4229 78.2179 47.5442C78.4386 47.6654 78.6252 47.8404 78.7603 48.0529C78.8954 48.2655 78.9747 48.5086 78.9907 48.76C79.0068 49.0113 78.9592 49.2626 78.8524 49.4906L65.7889 77.3594Z" fill="white" stroke="#CBCBCB" stroke-width="1.5"/>
<path d="M24.9219 62.3594C25.444 62.3594 25.9448 62.5668 26.314 62.936C26.6832 63.3052 26.8906 63.806 26.8906 64.3281V82.0469H22.9531V64.3281C22.9531 63.806 23.1605 63.3052 23.5298 62.936C23.899 62.5668 24.3997 62.3594 24.9219 62.3594Z" fill="#BA8B5D"/>
<path d="M80.0469 82.0477H76.1094V57.5487C76.1094 57.2599 76.1729 56.9746 76.2955 56.7131V56.7131C77.1887 54.8074 80.0469 55.444 80.0469 57.5487V82.0477Z" fill="#BA8B5D"/>
<path d="M26.8906 64.3281H50.5156V72.2031H26.8906V64.3281Z" fill="#529DDF"/>
<path d="M50.5156 61.375H56.4219V72.2031H50.5156V61.375Z" fill="#B1E4F9"/>
<path d="M73.8945 51.0383L63.3125 72.2023H56.4219V61.3742L59.375 57.4367H63.3125L65.2812 56.4523L64.2969 54.4836V52.5148L63.3125 50.5461L67.25 49.5617L69.0871 47.7246L73.8945 51.0383Z" fill="#7AB355"/>
<path d="M50.5156 68.6133V72.2026H49.5313V71.2182C49.5297 70.2587 49.8799 69.3319 50.5156 68.6133Z" fill="#4384C3"/>
<path d="M68.1827 62.3072C68.1276 62.5216 68.0496 62.7295 67.9501 62.9273L63.3125 72.2026H56.4219V67.2807H58.5051L62.429 60.0505C62.6333 59.6735 62.9133 59.3428 63.2514 59.0791C63.5896 58.8155 63.9786 58.6246 64.3941 58.5186L68.1827 62.3072Z" fill="#699949"/>
<path d="M56.4219 67.2813V72.2031H50.5156V68.6138C50.8849 68.1947 51.3393 67.859 51.8486 67.6292C52.3578 67.3995 52.9101 67.2808 53.4688 67.2813H56.4219Z" fill="#C1D7E6"/>
<path d="M73.8945 51.0383L68.2344 62.3586L68.1827 62.3069L64.3941 58.5183L63.3125 57.4367L65.2812 56.4523L64.2969 54.4836V52.5148L63.3125 50.5461L67.25 49.5617L69.0871 47.7246L73.8945 51.0383Z" fill="#FDC5CA"/>
<path d="M67.8443 63.1396L65.8866 67.0537L63.3125 72.2032H50.5156C50.5155 71.6861 50.6172 71.174 50.8151 70.6962C51.0129 70.2184 51.3029 69.7843 51.6686 69.4186C52.0342 69.053 52.4684 68.7629 52.9461 68.5651C53.4239 68.3673 53.936 68.2655 54.4531 68.2657H59.375L61.3991 64.3614L63.2473 60.798C63.5608 60.1936 64.1005 59.7377 64.7488 59.5297C65.397 59.3216 66.1013 59.3782 66.7079 59.6873C67.3146 59.9963 67.7745 60.5326 67.9874 61.1793C68.2002 61.826 68.1488 62.5306 67.8443 63.1396H67.8443Z" fill="#FDC5CA"/>
<path d="M67.8436 63.1396L65.886 67.0537L61.3984 64.3614L63.2466 60.798C63.5601 60.1936 64.0998 59.7377 64.7481 59.5297C65.3963 59.3216 66.1006 59.3782 66.7072 59.6873C67.3139 59.9963 67.7738 60.5326 67.9867 61.1793C68.1995 61.826 68.1481 62.5306 67.8436 63.1396H67.8436Z" fill="#7AB355"/>
<path d="M71.187 56.4526L70.2026 48.5776L69.1165 47.7481C68.3521 47.1643 67.8387 46.3115 67.6805 45.3628C67.5223 44.4142 67.7311 43.4409 68.2646 42.6406L75.488 47.8506L71.187 56.4526Z" fill="#BA8B5D"/>
<path d="M99.4297 80.159C99.4297 90.1521 91.3506 98.2497 81.3887 98.2497C71.4268 98.2497 63.3477 90.1521 63.3477 80.159C63.3477 70.166 71.4268 62.0684 81.3887 62.0684C91.3506 62.0684 99.4297 70.166 99.4297 80.159Z" fill="white" stroke="#B1E4F9" stroke-width="1.5"/>
<path d="M85.508 71.9307H77.3656C77.3656 73.263 76.2496 74.3431 74.873 74.3431V80.077C74.873 82.1987 75.7913 84.2234 77.4049 85.6596L79.7584 87.7543C80.7073 88.5988 82.1664 88.5988 83.1152 87.7543L85.4688 85.6596C87.0824 84.2234 88.0006 82.1987 88.0006 80.077V74.3431C86.624 74.3431 85.508 73.263 85.508 71.9307Z" fill="#B1E4F9"/>
<path d="M85.5101 71.9307H81.4414V88.3876C82.0425 88.387 82.6434 88.1759 83.1172 87.7543L85.4707 85.6596C87.0844 84.2234 88.0026 82.1988 88.0026 80.077V74.3431C86.626 74.3431 85.5101 73.263 85.5101 71.9307Z" fill="#90D8F9"/>
<path d="M81.4383 89.1706C80.6117 89.1706 79.8214 88.8724 79.2129 88.3309L76.8594 86.2362C75.0844 84.6564 74.0664 82.4118 74.0664 80.0779V73.5619H74.8745C75.8033 73.5619 76.5589 72.8305 76.5589 71.9315V71.1494H86.3176V71.9315C86.3176 72.8305 87.0732 73.5619 88.002 73.5619H88.8101V80.0779C88.8101 82.4118 87.7921 84.6564 86.0171 86.2362L83.6636 88.3309C83.0553 88.8724 82.2649 89.1706 81.4383 89.1706ZM75.6827 75.0292V80.0779C75.6827 81.9754 76.5103 83.8004 77.9534 85.0848L80.3069 87.1795C80.9414 87.7441 81.9353 87.7441 82.5698 87.1795L84.9233 85.0848C86.3664 83.8004 87.1941 81.9754 87.1941 80.0779V75.0292C86.0222 74.7427 85.0976 73.8479 84.8016 72.7137H78.0751C77.7791 73.8479 76.8545 74.7427 75.6827 75.0292Z" fill="#86A0AF"/>
<path d="M88.0026 73.5609C87.0738 73.5609 86.3182 72.8295 86.3182 71.9305V71.1484H81.4415V72.7126H84.8021C85.0981 73.8468 86.0227 74.7417 87.1945 75.0282V80.0768C87.1945 81.9744 86.3669 83.7994 84.9238 85.0838L82.5702 87.1785C82.2537 87.4602 81.8477 87.6013 81.4414 87.6019V89.1696C82.267 89.169 83.0564 88.8708 83.6642 88.3299L86.0177 86.2352C87.7927 84.6554 88.8107 82.4108 88.8107 80.0769V73.5609H88.0026Z" fill="#86A0AF"/>
<path d="M80.4863 82.3157L78.0215 79.9301L79.1643 78.8241L80.4863 80.1036L83.7052 76.9883L84.8479 78.0943L80.4863 82.3157Z" fill="white"/>
<path d="M83.7092 76.9883L81.4414 79.1832V81.3953L84.852 78.0943L83.7092 76.9883Z" fill="#E9EDF5"/>
</svg>
