<svg width="120" height="120" viewBox="0 0 120 120" fill="none" xmlns="http://www.w3.org/2000/svg">
<circle cx="60" cy="60" r="60" fill="#FFF2F4"/>
<path d="M82.1399 89.2818H19.3171C18.5896 89.2818 18 88.6991 18 87.9804V85.0752H83.457V87.9804C83.457 88.6991 82.8673 89.2818 82.1399 89.2818V89.2818Z" fill="#AFAFAF"/>
<path d="M70.7042 51.0357L70.7043 51.0358L74.3413 68.0456L75.0748 67.8887L74.3413 68.0456C74.4748 68.6693 74.8919 69.1932 75.4661 69.4678L75.4662 69.4678L82.39 72.778L82.3901 72.778C82.5873 72.8723 82.707 73.0662 82.707 73.2727V84.3264H18.75V51.148C18.75 50.8519 18.9953 50.5967 19.3171 50.5967H70.1491C70.4239 50.5967 70.6508 50.7858 70.7042 51.0357Z" fill="white" stroke="#CBCBCB" stroke-width="1.5"/>
<path d="M60.3086 67.2134V55.356C60.3086 54.6373 60.8982 54.0547 61.6257 54.0547H66.5747C67.1896 54.0547 67.7228 54.4751 67.859 55.0676L70.5865 66.925C70.7738 67.7392 70.1473 68.5147 69.3022 68.5147H61.6258C60.8982 68.5147 60.3086 67.9321 60.3086 67.2134V67.2134Z" fill="#B1E4F9"/>
<path d="M66.5741 54.0547H65.0977L68.4237 68.5146H69.3016C70.1468 68.5146 70.7732 67.7392 70.5859 66.9249L67.8585 55.0675C67.7222 54.4751 67.1891 54.0547 66.5741 54.0547V54.0547Z" fill="#90D8F9"/>
<path d="M48.0664 67.2134V55.356C48.0664 54.6373 48.656 54.0547 49.3835 54.0547H54.7319C55.4593 54.0547 56.049 54.6373 56.049 55.356V67.2134C56.049 67.9321 55.4593 68.5147 54.7319 68.5147H49.3835C48.656 68.5147 48.0664 67.9321 48.0664 67.2134Z" fill="#B1E4F9"/>
<path d="M70.2872 95.0655C74.6959 95.0655 78.2698 91.5343 78.2698 87.1783C78.2698 82.8223 74.6959 79.291 70.2872 79.291C65.8786 79.291 62.3047 82.8223 62.3047 87.1783C62.3047 91.5343 65.8786 95.0655 70.2872 95.0655Z" fill="#86A0AF"/>
<path d="M70.2891 89.4138C71.5382 89.4138 72.5508 88.4133 72.5508 87.1791C72.5508 85.9449 71.5382 84.9443 70.2891 84.9443C69.0399 84.9443 68.0273 85.9449 68.0273 87.1791C68.0273 88.4133 69.0399 89.4138 70.2891 89.4138Z" fill="#D0E2E7"/>
<path d="M31.172 95.0655C35.5806 95.0655 39.1546 91.5343 39.1546 87.1783C39.1546 82.8223 35.5806 79.291 31.172 79.291C26.7634 79.291 23.1895 82.8223 23.1895 87.1783C23.1895 91.5343 26.7634 95.0655 31.172 95.0655Z" fill="#86A0AF"/>
<path d="M31.168 89.4138C32.4171 89.4138 33.4297 88.4133 33.4297 87.1791C33.4297 85.9449 32.4171 84.9443 31.168 84.9443C29.9189 84.9443 28.9062 85.9449 28.9062 87.1791C28.9062 88.4133 29.9189 89.4138 31.168 89.4138Z" fill="#D0E2E7"/>
<path d="M41.0242 60.7588H35.8195C35.383 60.7588 35.0293 60.4093 35.0293 59.9781V54.8355C35.0293 54.4042 34.6755 54.0547 34.2391 54.0547H31.2961C30.8596 54.0547 30.5059 54.4042 30.5059 54.8355V59.9781C30.5059 60.4093 30.1521 60.7588 29.7156 60.7588H24.5109C24.0745 60.7588 23.7207 61.1084 23.7207 61.5396V64.4475C23.7207 64.8787 24.0745 65.2283 24.5109 65.2283H29.7156C30.1521 65.2283 30.5059 65.5778 30.5059 66.009V71.1516C30.5059 71.5829 30.8596 71.9324 31.2961 71.9324H34.2391C34.6755 71.9324 35.0293 71.5829 35.0293 71.1516V66.009C35.0293 65.5778 35.383 65.2283 35.8195 65.2283H41.0242C41.4607 65.2283 41.8144 64.8787 41.8144 64.4475V61.5396C41.8144 61.1084 41.4607 60.7588 41.0242 60.7588V60.7588Z" fill="#FF0000"/>
<path d="M54.719 49.8469H46.7363L47.8483 44.5731C47.9755 43.9696 48.5139 43.5371 49.1377 43.5371H52.3174C52.9413 43.5371 53.4795 43.9696 53.6068 44.5731L54.719 49.8469Z" fill="#FF0000"/>
<path d="M63.9572 73.6941H61.2963C60.7507 73.6941 60.3086 73.2571 60.3086 72.7181C60.3086 72.1791 60.7508 71.7422 61.2963 71.7422H63.9572C64.5028 71.7422 64.9449 72.1791 64.9449 72.7181C64.9449 73.2571 64.5028 73.6941 63.9572 73.6941Z" fill="#D0E2E7"/>
<path d="M83.4591 76.8513H80.7983C80.2526 76.8513 79.8105 76.4144 79.8105 75.8754C79.8105 75.3363 80.2528 74.8994 80.7983 74.8994H83.4591V76.8513Z" fill="#86A0AF"/>
<path d="M83.4591 81.0564H80.7983C80.2526 81.0564 79.8105 80.6194 79.8105 80.0804C79.8105 79.5414 80.2528 79.1045 80.7983 79.1045H83.4591V81.0564Z" fill="#86A0AF"/>
<path d="M49.0541 82.1072C48.5085 82.1072 48.0664 81.6703 48.0664 81.1312V72.7181C48.0664 72.1791 48.5086 71.7422 49.0541 71.7422C49.5997 71.7422 50.0419 72.1791 50.0419 72.7181V81.1312C50.042 81.6701 49.5998 82.1072 49.0541 82.1072Z" fill="#D0E2E7"/>
<path d="M100.248 45.3821C100.248 56.4449 91.3044 65.4097 80.2756 65.4097C69.2467 65.4097 60.3027 56.4449 60.3027 45.3821C60.3027 34.3193 69.2467 25.3545 80.2756 25.3545C91.3044 25.3545 100.248 34.3193 100.248 45.3821Z" fill="white" stroke="#B1E4F9" stroke-width="1.5"/>
<g clip-path="url(#clip0)">
<path d="M83.4219 47.4383C83.1013 47.4383 82.8408 47.1787 82.8398 46.8577C82.8388 46.5363 83.0987 46.2747 83.4203 46.2738C84.8829 46.2693 86.2744 45.3862 87.3384 43.7871C88.3596 42.2523 88.9596 40.2452 89.051 38.0835H86.4864C86.1648 38.0835 85.9041 37.8228 85.9041 37.5012C85.9041 37.1796 86.1648 36.9189 86.4864 36.9189H89.6455C89.9672 36.9189 90.2278 37.1796 90.2278 37.5012C90.2278 40.1101 89.5459 42.5715 88.308 44.4323C87.0219 46.3649 85.2874 47.4326 83.4239 47.4383C83.4233 47.4383 83.4227 47.4383 83.4219 47.4383Z" fill="#FF8E1D"/>
<path d="M77.1574 47.4383C77.1567 47.4383 77.1562 47.4383 77.1556 47.4383C75.2921 47.4326 73.5574 46.3649 72.2715 44.4323C71.0334 42.5715 70.3516 40.1101 70.3516 37.5012C70.3516 37.1796 70.6122 36.9189 70.9338 36.9189H74.093C74.4146 36.9189 74.6752 37.1796 74.6752 37.5012C74.6752 37.8228 74.4146 38.0835 74.093 38.0835H71.5284C71.6198 40.2452 72.2198 42.2523 73.241 43.7871C74.305 45.3862 75.6965 46.2693 77.1591 46.2738C77.4807 46.2747 77.7406 46.5363 77.7395 46.8577C77.7386 47.1787 77.4781 47.4382 77.1574 47.4383Z" fill="#FFB023"/>
<path d="M86.5243 35.4844H74.051C73.7296 35.4844 73.4688 35.745 73.4688 36.0666C73.4688 39.4869 74.1394 42.7117 75.357 45.1469C76.1371 46.707 77.0912 47.8395 78.1462 48.4879V51.658C78.1462 51.9796 78.407 52.2402 78.7284 52.2402H81.8468C82.1684 52.2402 82.4291 51.9796 82.4291 51.658V48.4879C83.4841 47.8397 84.4383 46.707 85.2183 45.1469C86.4359 42.7117 87.1065 39.4869 87.1065 36.0666C87.1065 35.745 86.8459 35.4844 86.5243 35.4844Z" fill="#FFD12B"/>
<path d="M82.4305 51.658V48.4879C83.4855 47.8397 84.4397 46.707 85.2197 45.1469C86.4373 42.7117 87.1079 39.4869 87.1079 36.0666C87.1079 35.745 86.8473 35.4844 86.5257 35.4844H80.2891V52.2402H81.8483C82.1699 52.2402 82.4305 51.9796 82.4305 51.658Z" fill="#FFB023"/>
<path d="M83.4092 51.0762H77.1727C75.992 51.0762 75.0312 52.0369 75.0312 53.2176V54.7768C75.0312 55.0983 75.2919 55.3589 75.6135 55.3589H84.9684C85.29 55.3589 85.5506 55.0983 85.5506 54.7768V53.2176C85.5506 52.0369 84.5901 51.0762 83.4092 51.0762Z" fill="#FF8E1D"/>
<path d="M83.4073 51.0762H80.2891V55.3589H84.9665C85.2881 55.3589 85.5488 55.0983 85.5488 54.7768V53.2176C85.5488 52.0369 84.5882 51.0762 83.4073 51.0762Z" fill="#FF6D15"/>
<path d="M85.5907 55.3587H74.9885C74.6671 55.3587 74.4062 55.098 74.4062 54.7766C74.4062 54.455 74.6671 54.1943 74.9885 54.1943H85.5907C85.9123 54.1943 86.1729 54.455 86.1729 54.7766C86.1729 55.098 85.9123 55.3587 85.5907 55.3587Z" fill="#FFB023"/>
<path d="M85.5901 54.1943H80.2891V55.3587H85.5901C85.9117 55.3587 86.1724 55.098 86.1724 54.7766C86.1724 54.455 85.9117 54.1943 85.5901 54.1943Z" fill="#FF8E1D"/>
</g>
<defs>
<clipPath id="clip0">
<rect x="70.3906" y="35.4453" width="19.8742" height="19.8742" fill="white"/>
</clipPath>
</defs>
</svg>
