<svg width="43" height="43" viewBox="0 0 43 43" fill="none" xmlns="http://www.w3.org/2000/svg">
<circle cx="21.5" cy="21.5" r="21.5" fill="#FF003D"/>
<path d="M17.9131 27V14.9141H22.2544C23.8094 14.9141 24.9909 15.1991 25.7988 15.769C26.6123 16.339 27.019 17.1663 27.019 18.251C27.019 18.8763 26.8752 19.4103 26.5874 19.853C26.2996 20.2957 25.8763 20.6222 25.3174 20.8325C25.9482 20.9985 26.4325 21.3084 26.77 21.7622C27.1076 22.216 27.2764 22.7694 27.2764 23.4224C27.2764 24.6066 26.9001 25.4976 26.1475 26.0952C25.4004 26.6873 24.2909 26.9889 22.8188 27H17.9131ZM20.8267 21.8618V24.7588H22.7358C23.2616 24.7588 23.6655 24.6398 23.9478 24.4019C24.23 24.1584 24.3711 23.818 24.3711 23.3809C24.3711 22.3737 23.8703 21.8674 22.8687 21.8618H20.8267ZM20.8267 19.9526H22.3457C22.9821 19.9471 23.4359 19.8309 23.707 19.604C23.9782 19.3771 24.1138 19.0423 24.1138 18.5996C24.1138 18.0905 23.9671 17.7253 23.6738 17.5039C23.3805 17.277 22.9074 17.1636 22.2544 17.1636H20.8267V19.9526Z" fill="white"/>
<path d="M26.9802 34H17.0198C13.1492 34 10 30.8508 10 26.9802L10 17.0198C10 13.1492 13.1492 10 17.0198 10L26.9802 10C30.8511 10 34 13.1492 34 17.0198V26.0391C34 26.6152 33.5329 27.0826 32.9565 27.0826C32.3802 27.0826 31.913 26.6152 31.913 26.0391L31.913 17.0198C31.913 14.2997 29.7003 12.087 26.9802 12.087L17.0198 12.087C14.2997 12.087 12.087 14.2997 12.087 17.0198L12.087 26.9802C12.087 29.7003 14.2997 31.913 17.0198 31.913L26.9802 31.913C28.5372 31.913 29.9704 31.2005 30.913 29.9582C31.2614 29.4989 31.9158 29.4092 32.375 29.7573C32.8342 30.1057 32.9239 30.7603 32.5758 31.2196C31.2351 32.9867 29.1957 34 26.9802 34Z" fill="white"/>
</svg>
