<svg width="56" height="48" viewBox="0 0 56 48" fill="none" xmlns="http://www.w3.org/2000/svg">
<path d="M12.9226 26.7692C12.9226 26.2597 12.5101 25.8462 11.9996 25.8462H2.76875C2.25925 25.8462 1.8457 26.2597 1.8457 26.7692C1.8457 27.2787 2.25925 27.6923 2.76875 27.6923H11.9995C12.51 27.6923 12.9226 27.2787 12.9226 26.7692Z" fill="white"/>
<path d="M11.9996 5.53847C12.9319 5.53847 27.1381 4.18987 31.3842 3.78466V9.23085H30.4612C29.9517 9.23085 29.5382 9.6444 29.5382 10.1539C29.5382 10.6634 29.9517 11.0769 30.4612 11.0769H34.1535C34.6639 11.0769 35.0765 10.6634 35.0765 10.1539C35.0765 9.6444 34.6639 9.23085 34.1535 9.23085H33.2304V3.78466C37.4775 4.18987 51.6837 5.53847 52.6151 5.53847C54.1428 5.53847 55.3843 4.29599 55.3843 2.76923C55.3843 1.24248 54.1428 0 52.6151 0C51.5933 0 34.6224 1.62 32.3074 1.84154C29.9932 1.62 13.0215 0 11.9997 0C10.4729 0 9.23047 1.24248 9.23047 2.76923C9.23047 4.29599 10.4728 5.53847 11.9996 5.53847ZM52.6151 1.84619C53.1246 1.84619 53.5381 2.2606 53.5381 2.76923C53.5381 3.27786 53.1246 3.69228 52.6151 3.69228C52.1581 3.69044 47.4625 3.26672 42.1187 2.76923C47.4625 2.27077 52.1581 1.84717 52.6151 1.84619ZM11.9996 1.84619C12.4575 1.84706 17.1532 2.27077 22.4968 2.76923C17.1532 3.26672 12.4574 3.69044 11.9996 3.69228C11.491 3.69228 11.0766 3.27786 11.0766 2.76923C11.0766 2.2606 11.491 1.84619 11.9996 1.84619Z" fill="white"/>
<path d="M13.8458 32.3078C13.8458 31.7983 13.4332 31.3848 12.9227 31.3848H6.46113C5.95163 31.3848 5.53809 31.7983 5.53809 32.3078C5.53809 32.8173 5.95163 33.2308 6.46113 33.2308H12.9226C13.4332 33.2308 13.8458 32.8173 13.8458 32.3078Z" fill="white"/>
<path d="M49.0931 24.3408C49.2527 24.3408 49.4152 24.2992 49.5629 24.2115C50.0013 23.9521 50.1462 23.3854 49.886 22.9468C49.6616 22.5684 49.4143 22.1963 49.1503 21.841C48.8466 21.4321 48.2678 21.3453 47.8598 21.6508C47.4499 21.9545 47.3641 22.5333 47.6687 22.9422C47.894 23.2458 48.1063 23.5643 48.2983 23.8884C48.4708 24.1792 48.7773 24.3408 49.0931 24.3408Z" fill="white"/>
<path d="M38.7688 12.923H9.71125C9.07801 12.923 8.52416 12.2399 8.21035 11.5873L7.30386 9.7771C6.7869 8.62051 5.70322 7.38452 4.21151 7.38452H0.922611C0.658668 7.38452 0.405651 7.4981 0.231276 7.69649C0.0559271 7.89499 -0.025311 8.15893 0.00692465 8.42201L0.942948 15.8841C1.69161 19.3992 4.92697 22.1536 8.30727 22.1536H19.3842C19.8947 22.1536 20.3073 21.7401 20.3073 21.2306C20.3073 20.7211 19.8947 20.3075 19.3842 20.3075H8.30727C5.80663 20.3075 3.31346 18.1504 2.76231 15.5777L1.96843 9.23061H4.21151C4.7792 9.23061 5.33954 9.90442 5.63583 10.5663L6.55249 12.3995C7.266 13.8829 8.4466 14.7691 9.71125 14.7691H38.7688C46.9132 14.7691 53.5381 21.3949 53.5381 29.5383C53.5381 37.7167 50.6396 40.6152 42.4611 40.6152H32.3072C23.8306 40.6152 19.9444 37.462 18.4435 29.3573L17.5205 24.7419C17.4208 24.2416 16.938 23.9166 16.434 24.0172C15.9346 24.1178 15.6106 24.6043 15.7103 25.1037L16.6307 29.7062C18.2857 38.6471 22.975 42.4613 32.3073 42.4613H42.4612C51.6404 42.4613 55.3844 38.7173 55.3844 29.5382C55.3843 20.3769 47.9313 12.923 38.7688 12.923Z" fill="white"/>
<path d="M35.0592 26.5884L33.213 17.3576C33.1132 16.8582 32.6305 16.5324 32.1265 16.633C31.627 16.7336 31.3031 17.22 31.4028 17.7195L33.2508 26.9614C33.776 29.4232 35.0665 30.9242 36.9229 31.2906V37.8463C36.9229 38.3558 37.3364 38.7693 37.8459 38.7693C38.3564 38.7693 38.769 38.3558 38.769 37.8463V31.3848H50.7689C51.2794 31.3848 51.692 30.9712 51.692 30.4617C51.692 29.9522 51.2794 29.5387 50.7689 29.5387H37.8459C37.3123 29.5385 35.6886 29.5385 35.0592 26.5884Z" fill="white"/>
<path d="M45.6407 20.8486C45.8124 20.9917 46.0211 21.061 46.2288 21.061C46.4946 21.061 46.7577 20.9474 46.9396 20.7268C47.2654 20.3345 47.21 19.7521 46.8178 19.4271C45.8079 18.5908 43.5962 17.2661 41.6421 17.0446C41.1353 16.9882 40.6794 17.351 40.6212 17.8578C40.5639 18.3637 40.9276 18.8215 41.4344 18.8788C42.8945 19.0449 44.773 20.1304 45.6407 20.8486Z" fill="white"/>
<path d="M13.8458 36.9231H10.1535C9.64401 36.9231 9.23047 37.3366 9.23047 37.8461C9.23047 38.3556 9.64401 38.7692 10.1535 38.7692H13.8458C14.3563 38.7692 14.7688 38.3556 14.7688 37.8461C14.7688 37.3366 14.3563 36.9231 13.8458 36.9231Z" fill="white"/>
<path d="M54.4614 42.4617C53.9519 42.4617 53.5383 42.8752 53.5383 43.3847C53.5383 45.9906 51.2278 46.1484 50.7691 46.1539H44.9232L44.2374 44.5016C44.0417 44.0308 43.5027 43.8065 43.0309 44.0031C42.5602 44.1988 42.3368 44.7388 42.5325 45.2096L42.9248 46.1539H29.0758L29.4682 45.2096C29.6638 44.7388 29.4405 44.1988 28.9697 44.0031C28.4989 43.8065 27.9589 44.0318 27.7632 44.5016L27.0764 46.1539H17.5383C17.0288 46.1539 16.6152 46.5675 16.6152 47.077C16.6152 47.5865 17.0288 48 17.5383 48H27.6894H27.6922H27.695H44.3047H44.3083H44.3102H50.769C52.3659 48 55.3844 47.0354 55.3844 43.3846C55.3844 42.8752 54.9718 42.4617 54.4614 42.4617Z" fill="white"/>
</svg>
