<svg width="50" height="50" viewBox="0 0 50 50" fill="none" xmlns="http://www.w3.org/2000/svg">
<path d="M18.5158 25.3996L17.6494 24.0996C18.1781 23.7479 18.7313 23.4346 19.3049 23.1621L19.976 24.573C19.4701 24.8133 18.9822 25.0896 18.5158 25.3996Z" fill="white"/>
<path d="M24.2188 4.6875H25.7812V14.0625H24.2188V4.6875Z" fill="white"/>
<path d="M11.041 8.63623L12.3941 7.85498L17.0816 15.9737L15.7285 16.755L11.041 8.63623Z" fill="white"/>
<path d="M1.60547 18.646L2.38672 17.2929L10.5055 21.9804L9.72422 23.3335L1.60547 18.646Z" fill="white"/>
<path d="M39.4922 21.9746L47.6109 17.2871L48.3922 18.6402L40.2734 23.3277L39.4922 21.9746Z" fill="white"/>
<path d="M32.9189 15.978L37.6064 7.85928L38.9596 8.64053L34.2721 16.7593L32.9189 15.978Z" fill="white"/>
<path d="M45.3125 42.1875H41.4062V35.1562C41.4062 30.805 39.6777 26.632 36.601 23.5553C33.5242 20.4785 29.3512 18.75 25 18.75C20.6488 18.75 16.4758 20.4785 13.399 23.5553C10.3223 26.632 8.59375 30.805 8.59375 35.1562V42.1875H4.6875C3.8587 42.1875 3.06384 42.5167 2.47779 43.1028C1.89174 43.6888 1.5625 44.4837 1.5625 45.3125C1.5625 46.1413 1.89174 46.9362 2.47779 47.5222C3.06384 48.1083 3.8587 48.4375 4.6875 48.4375H45.3125C46.1413 48.4375 46.9362 48.1083 47.5222 47.5222C48.1083 46.9362 48.4375 46.1413 48.4375 45.3125C48.4375 44.4837 48.1083 43.6888 47.5222 43.1028C46.9362 42.5167 46.1413 42.1875 45.3125 42.1875ZM10.1562 35.1562C10.1562 31.2194 11.7201 27.4439 14.5039 24.6601C17.2876 21.8764 21.0632 20.3125 25 20.3125C28.9368 20.3125 32.7124 21.8764 35.4961 24.6601C38.2799 27.4439 39.8438 31.2194 39.8438 35.1562V42.1875H10.1562V35.1562ZM45.3125 46.875H4.6875C4.2731 46.875 3.87567 46.7104 3.58265 46.4174C3.28962 46.1243 3.125 45.7269 3.125 45.3125C3.125 44.8981 3.28962 44.5007 3.58265 44.2076C3.87567 43.9146 4.2731 43.75 4.6875 43.75H45.3125C45.7269 43.75 46.1243 43.9146 46.4174 44.2076C46.7104 44.5007 46.875 44.8981 46.875 45.3125C46.875 45.7269 46.7104 46.1243 46.4174 46.4174C46.1243 46.7104 45.7269 46.875 45.3125 46.875Z" fill="white"/>
<path d="M11.7188 35.1561V39.0623H13.2813V35.1561C13.2828 33.4886 13.64 31.8407 14.3289 30.3223C15.0179 28.8039 16.0228 27.4498 17.2766 26.3506L16.2453 25.1787C14.825 26.4245 13.6866 27.9588 12.906 29.6792C12.1255 31.3997 11.7207 33.2668 11.7188 35.1561Z" fill="white"/>
<path d="M30.4688 29.6875H27.3438V26.5625C27.3438 26.1481 27.1791 25.7507 26.8861 25.4576C26.5931 25.1646 26.1957 25 25.7812 25H24.2188C23.8043 25 23.4069 25.1646 23.1139 25.4576C22.8209 25.7507 22.6562 26.1481 22.6562 26.5625V29.6875H19.5312C19.1168 29.6875 18.7194 29.8521 18.4264 30.1451C18.1334 30.4382 17.9688 30.8356 17.9688 31.25V32.8125C17.9688 33.2269 18.1334 33.6243 18.4264 33.9174C18.7194 34.2104 19.1168 34.375 19.5312 34.375H22.6562V37.5C22.6562 37.9144 22.8209 38.3118 23.1139 38.6049C23.4069 38.8979 23.8043 39.0625 24.2188 39.0625H25.7812C26.1957 39.0625 26.5931 38.8979 26.8861 38.6049C27.1791 38.3118 27.3438 37.9144 27.3438 37.5V34.375H30.4688C30.8832 34.375 31.2806 34.2104 31.5736 33.9174C31.8666 33.6243 32.0312 33.2269 32.0312 32.8125V31.25C32.0312 30.8356 31.8666 30.4382 31.5736 30.1451C31.2806 29.8521 30.8832 29.6875 30.4688 29.6875ZM30.4688 32.8125H27.3438C26.9293 32.8125 26.5319 32.9771 26.2389 33.2701C25.9459 33.5632 25.7812 33.9606 25.7812 34.375V37.5H24.2188V34.375C24.2188 33.9606 24.0541 33.5632 23.7611 33.2701C23.4681 32.9771 23.0707 32.8125 22.6562 32.8125H19.5312V31.25H22.6562C23.0707 31.25 23.4681 31.0854 23.7611 30.7924C24.0541 30.4993 24.2188 30.1019 24.2188 29.6875V26.5625H25.7812V29.6875C25.7812 30.1019 25.9459 30.4993 26.2389 30.7924C26.5319 31.0854 26.9293 31.25 27.3438 31.25H30.4688V32.8125Z" fill="white"/>
</svg>
