<svg width="52" height="50" viewBox="0 0 52 50" fill="none" xmlns="http://www.w3.org/2000/svg">
<g clip-path="url(#clip0)">
<path d="M21.6668 15.6255V21.8754C21.6668 24.7519 19.2418 27.0837 16.2503 27.0837C13.2588 27.0837 10.8337 24.7519 10.8337 21.8754V15.6255H8.66699V21.8754C8.67177 25.9006 12.0641 29.1625 16.2503 29.167C20.4364 29.1625 23.8288 25.9006 23.8336 21.8754V15.6255H21.6668Z" fill="white"/>
<path d="M16.25 13.5422C16.25 12.9669 15.765 12.5005 15.1667 12.5005C14.5684 12.5005 14.0833 12.9669 14.0833 13.5422C14.0833 13.712 14.0346 17.7088 9.75 17.7088V19.7921C12.0408 19.9297 14.2111 18.7938 15.3346 16.8692C16.4667 18.3609 18.6333 19.7921 22.7498 19.7921V17.7088C16.5089 17.7088 16.2575 13.9589 16.25 13.5422Z" fill="white"/>
<path d="M5.91873 26.0417C7.10466 22.3319 7.6667 18.4637 7.58383 14.5835C7.5755 12.676 8.25586 10.825 9.50892 9.34608L7.82422 8.03564C6.26861 9.89031 5.41925 12.2007 5.41712 14.5835C5.41712 22.5189 3.38376 26.5803 3.36426 26.6178C3.289 26.7625 3.2499 26.922 3.25 27.0839C3.2503 27.6591 3.73557 28.1253 4.33386 28.1251H13.0004V26.0418H5.91873V26.0417Z" fill="white"/>
<path d="M29.1415 26.6209C29.1167 26.5803 27.0832 22.5189 27.0832 14.5835C27.0815 12.2007 26.2321 9.89021 24.6761 8.03564L22.9915 9.34608C24.2447 10.8249 24.925 12.676 24.9166 14.5835C24.8336 18.4638 25.3957 22.3319 26.5817 26.0417H19.5V28.125H28.1666C28.3348 28.1256 28.501 28.0885 28.6519 28.0167C29.188 27.7613 29.4072 27.1363 29.1415 26.6209Z" fill="white"/>
<path d="M18.4169 27.0835V30.8189L17.0162 32.1658C16.5873 32.5586 15.9132 32.5586 15.4843 32.1658L14.0836 30.8189V27.0835H11.917V31.2502C11.9171 31.5264 12.0312 31.7913 12.2344 31.9866L13.9525 33.6386C14.5615 34.2249 15.3885 34.5536 16.2502 34.5522C17.112 34.5537 17.9389 34.2249 18.5479 33.6386L20.266 31.9866C20.4693 31.7913 20.5834 31.5263 20.5834 31.2502V27.0835H18.4169Z" fill="white"/>
<path d="M22.7497 30.2085H19.4998V32.2918H22.7497C26.9359 32.2964 30.3282 35.5582 30.333 39.5834V47.9166H2.16661V39.5834C2.17138 35.5582 5.56373 32.2964 9.74989 32.2918H12.9998V30.2085H9.74989C4.36785 30.2148 0.00660148 34.4084 0 39.5834V48.9583C0 49.5336 0.485057 50 1.08335 50H31.4164C32.0147 50 32.4997 49.5336 32.4997 48.9583V39.5834C32.493 34.4083 28.1317 30.2148 22.7497 30.2085Z" fill="white"/>
<path d="M20.5831 31.2505C20.5831 31.3338 20.4531 39.5837 16.2498 39.5837C12.0465 39.5837 11.9165 31.3327 11.9165 31.2505H9.75C9.75 31.6755 9.82363 41.6671 16.2499 41.6671C22.6762 41.6671 22.7498 31.6755 22.7498 31.2505H20.5831Z" fill="white"/>
<path d="M27.0836 43.75H24.917V48.9582H27.0836V43.75Z" fill="white"/>
<path d="M7.5836 43.75H5.41699V48.9582H7.5836V43.75Z" fill="white"/>
<path d="M17.3336 40.625H15.167V48.9582H17.3336V40.625Z" fill="white"/>
<path d="M24.4359 3.06821L16.6533 0.0745C16.4057 -0.0207137 16.1304 -0.0248152 15.8798 0.0630744L7.16019 3.11196C6.71393 3.26811 6.3086 3.51645 5.97283 3.8394C4.70393 5.06009 4.70444 7.03868 5.97395 8.25878L8.98453 11.1536C9.18765 11.349 9.46319 11.4587 9.7504 11.4587H21.6669C21.9542 11.4586 22.2296 11.3489 22.4328 11.1536L25.5267 8.17968C25.8381 7.88037 26.083 7.52334 26.2464 7.13028C26.913 5.52776 26.1024 3.70913 24.4359 3.06821ZM23.9939 6.70675L21.2184 9.37546H10.1989L7.5057 6.78897C7.39378 6.68136 7.30765 6.55147 7.25352 6.40841C7.04898 5.86779 7.33883 5.27004 7.90108 5.07337L16.2318 2.1567L23.6309 5.00042C23.7685 5.05315 23.8935 5.13255 23.998 5.23352C24.42 5.64152 24.4181 6.30099 23.9939 6.70675Z" fill="white"/>
<path d="M17.3336 4.16748H15.167V8.33413H17.3336V4.16748Z" fill="white"/>
<path d="M18.4163 5.20898H14.083V7.29227H18.4163V5.20898Z" fill="white"/>
<path d="M46.5828 23.959H30.333V26.0423H46.5828C48.3777 26.0423 49.8328 27.4414 49.8328 29.1672V44.792C49.8328 46.5179 48.3777 47.917 46.5828 47.917H34.6663V50.0003H46.5828C49.5729 49.9969 51.9958 47.667 51.9994 44.792V29.1672C51.9958 26.2923 49.5729 23.9624 46.5828 23.959Z" fill="white"/>
<path d="M50.9168 28.1255H31.417V30.2088H50.9168V28.1255Z" fill="white"/>
<path d="M38.9999 18.7505H29.25V20.8338H38.9999C39.5982 20.8338 40.0832 21.3002 40.0832 21.8755V25.0004H42.2498V21.8755C42.2498 20.1495 40.7948 18.7505 38.9999 18.7505Z" fill="white"/>
<path d="M37.9166 19.792H35.75V25.0002H37.9166V19.792Z" fill="white"/>
<path d="M33.5836 19.792H31.417V25.0002H33.5836V19.792Z" fill="white"/>
<path d="M47.6666 43.75H45.5V45.8333H47.6666V43.75Z" fill="white"/>
<path d="M43.3336 43.75H41.167V45.8333H43.3336V43.75Z" fill="white"/>
<path d="M38.9996 43.75H36.833V45.8333H38.9996V43.75Z" fill="white"/>
<path d="M46.5833 9.37549H40.0834C39.4851 9.37549 39 9.84189 39 10.4172V16.6671H41.1666V11.4589H45.4999V21.8754H47.6665V10.4171C47.6666 9.84179 47.1817 9.37549 46.5833 9.37549Z" fill="white"/>
<path d="M44.4166 1.04248H42.25V10.4174H44.4166V1.04248Z" fill="white"/>
<path d="M44.417 7.29248H42.2503C41.652 7.29248 41.167 7.75888 41.167 8.33417V10.4174H45.5003V8.33417C45.5003 7.75888 45.0153 7.29248 44.417 7.29248Z" fill="white"/>
<path d="M46.583 13.542H43.333V15.6253H46.583V13.542Z" fill="white"/>
<path d="M46.583 17.709H43.333V19.7923H46.583V17.709Z" fill="white"/>
</g>
<defs>
<clipPath id="clip0">
<rect width="52" height="50" fill="white"/>
</clipPath>
</defs>
</svg>
