<svg width="120" height="120" viewBox="0 0 120 120" fill="none" xmlns="http://www.w3.org/2000/svg">
<circle cx="60" cy="60" r="60" fill="#FFCEDA"/>
<g clip-path="url(#clip0)">
<path d="M70.4893 67.7227L67.7552 70.4568L39.7774 42.479H34.906C34.3943 42.479 33.9019 42.2754 33.5396 41.9131L27.6525 36.026C26.8971 35.2719 26.8971 34.0473 27.6525 33.2919L33.2599 27.6845C34.0153 26.9291 35.2399 26.9291 35.994 27.6845L42.0101 33.7005C42.3723 34.0627 42.576 34.5552 42.576 35.0669V39.8094L70.4893 67.7227Z" fill="#F6F3F3"/>
<path d="M70.489 67.7227L69.1059 69.1059C68.4933 68.4933 30.7233 30.7233 30.4727 30.4727L33.2596 27.6845C34.015 26.9291 35.2396 26.9291 35.9937 27.6845L42.0098 33.7005C42.372 34.0627 42.5757 34.5552 42.5757 35.0669V39.8094L70.489 67.7227Z" fill="#E7ECF1"/>
<path d="M90.0782 76.3653L76.8648 63.1675C76.1097 62.4132 74.886 62.4137 74.1311 63.1683L63.1933 74.1061C62.4382 74.8613 62.4382 76.0855 63.1933 76.8406L76.4007 90.0482C80.1793 93.827 86.307 93.8286 90.0868 90.0423C93.8531 86.2695 93.8494 80.1342 90.0782 76.3653Z" fill="#FF0000"/>
<path d="M90.0656 90.0648C89.0949 89.0941 69.9561 69.9553 68.6504 68.6496L74.1315 63.1685C74.8869 62.4144 76.1102 62.4131 76.8656 63.1672L90.0785 76.3659C93.8237 80.1074 93.8891 86.2427 90.0656 90.0648Z" fill="#D30202"/>
<path d="M84.4844 81.7177L76.879 74.1122C76.124 73.3571 74.8996 73.3571 74.1445 74.1122C73.3893 74.8674 73.3893 76.0916 74.1445 76.8467L81.75 84.4522C82.505 85.2073 83.7293 85.2075 84.4844 84.4522C85.2396 83.6971 85.2396 82.4728 84.4844 81.7177Z" fill="white"/>
<path d="M84.4672 84.4677L74.1289 74.1294C74.1341 74.123 74.1392 74.1178 74.1444 74.1127C74.8985 73.3573 76.1231 73.3573 76.8785 74.1127L84.4839 81.7182C85.2121 82.4452 85.273 83.6619 84.4672 84.4677Z" fill="#FF8D8D"/>
<path d="M92.1399 34.7647C91.671 33.4199 89.9538 33.0271 88.9469 34.0342L83.4025 39.5784H81.3636L80.4702 38.685C80.4877 38.0172 80.5238 37.4611 80.5411 36.7364L86.1571 31.1204C87.1564 30.1211 86.7783 28.4207 85.4531 27.9368C83.7506 27.3152 81.961 27 80.1343 27C69.7574 27 64.9946 34.3982 67.8991 43.9094L43.9094 67.8991C34.3879 64.9914 27 69.7666 27 80.1343C27 81.961 27.3152 83.7506 27.9368 85.4531C28.4205 86.7781 30.1211 87.1567 31.1204 86.1571L36.7268 80.5508H38.7655L39.5784 81.3636V83.4025L34.0342 88.9469C33.0271 89.9538 33.42 91.671 34.7647 92.1399C36.4013 92.7106 38.1175 93 39.8657 93C50.0961 93 54.9188 85.8146 52.1548 76.2953L76.2952 52.1548C85.7926 54.9127 93 50.1171 93 39.8657C93 38.1175 92.7106 36.4013 92.1399 34.7647Z" fill="#F7F3F3"/>
<path d="M92.9997 39.8661C92.9997 50.1167 85.7925 54.912 76.2947 52.1547L52.1545 76.295C54.9182 85.8147 50.0958 92.9999 39.8658 92.9999C38.1166 92.9999 36.4008 92.7112 34.7637 92.1401C33.4192 91.6709 33.0273 89.9539 34.0341 88.9471L39.5784 83.4029V81.3636L39.1079 80.8931L80.8928 39.1081L81.3633 39.5786H83.4026L88.9469 34.0343C89.9536 33.0276 91.6707 33.4195 92.1399 34.764C92.7109 36.4011 92.9997 38.1168 92.9997 39.8661Z" fill="#E7ECF1"/>
</g>
<defs>
<clipPath id="clip0">
<rect x="27" y="27" width="66" height="66" fill="white"/>
</clipPath>
</defs>
</svg>
