<svg width="120" height="120" viewBox="0 0 120 120" fill="none" xmlns="http://www.w3.org/2000/svg">
<circle cx="60" cy="60" r="60" fill="#FFCEDA"/>
<path d="M85.2908 31.5198C87.8912 31.9925 89.546 34.4747 89.0732 37.0751L79.1445 88.1371C78.6717 90.7375 76.1895 92.3923 73.5891 91.9195L31.8648 83.7638C29.2644 83.291 27.6097 80.8088 28.0825 78.2084L38.0112 27.1464C38.484 25.0188 40.257 23.4822 42.3845 23.364C42.7391 23.364 43.2119 23.364 43.5665 23.4822L85.2908 31.5198Z" fill="#CCD1D9"/>
<path d="M75.1263 25.728C77.7267 25.728 79.8543 27.8556 79.8543 30.456V82.4636C79.8543 85.064 77.7267 87.1916 75.1263 87.1916H32.5746C29.9743 87.1916 27.8467 85.064 27.8467 82.4636V30.456C27.8467 28.2102 29.3833 26.4372 31.3927 25.8462C31.3927 25.8462 31.3927 25.8462 31.5109 25.8462C31.8654 25.728 32.22 25.728 32.5746 25.728H75.1263Z" fill="#F6F3F3"/>
<path d="M47.9404 26.91V50.5498C47.9404 53.8594 45.34 56.4597 42.0305 56.4597C38.7209 56.4597 36.1205 53.8594 36.1205 50.5498V31.6379C36.1205 30.9287 36.7115 30.4559 37.3025 30.4559C37.8935 30.4559 38.4845 30.9287 38.4845 31.6379V50.5498C38.4845 52.441 40.0211 54.0958 42.0305 54.0958C44.0399 54.0958 45.5764 52.441 45.5764 50.5498V26.91C45.5764 26.4372 45.4582 26.0826 45.34 25.728C44.8672 24.3096 43.5671 23.364 42.0305 23.364H37.3025C35.7659 23.364 34.4657 24.3096 33.9929 25.728H32.5745C32.2199 25.728 31.8653 25.728 31.5107 25.8462C31.9835 23.1276 34.3475 21 37.3025 21H42.0305C44.8672 21 47.2312 23.0094 47.8222 25.728C47.9404 26.0826 47.9404 26.5554 47.9404 26.91Z" fill="#FF003D"/>
<path d="M70.3981 36.3659H56.2142C55.505 36.3659 55.0322 35.8931 55.0322 35.1839C55.0322 34.4747 55.505 34.002 56.2142 34.002H70.3981C71.1073 34.002 71.5801 34.4747 71.5801 35.1839C71.5801 35.8931 71.1073 36.3659 70.3981 36.3659Z" fill="#CCD1D9"/>
<path d="M70.3981 45.8217H56.2142C55.505 45.8217 55.0322 45.3489 55.0322 44.6398C55.0322 43.9306 55.505 43.4578 56.2142 43.4578H70.3981C71.1073 43.4578 71.5801 43.9306 71.5801 44.6398C71.5801 45.3489 71.1073 45.8217 70.3981 45.8217Z" fill="#CCD1D9"/>
<path d="M60.9422 55.2778H56.2142C55.505 55.2778 55.0322 54.805 55.0322 54.0958C55.0322 53.3866 55.505 52.9138 56.2142 52.9138H60.9422C61.6514 52.9138 62.1242 53.3866 62.1242 54.0958C62.1242 54.805 61.6514 55.2778 60.9422 55.2778Z" fill="#CCD1D9"/>
<path d="M70.3982 55.2778H65.6703C64.9611 55.2778 64.4883 54.805 64.4883 54.0958C64.4883 53.3866 64.9611 52.9138 65.6703 52.9138H70.3982C71.1074 52.9138 71.5802 53.3866 71.5802 54.0958C71.5802 54.805 71.1074 55.2778 70.3982 55.2778Z" fill="#CCD1D9"/>
<path d="M51.486 69.4616H37.3021C36.5929 69.4616 36.1201 68.9888 36.1201 68.2796C36.1201 67.5705 36.5929 67.0977 37.3021 67.0977H51.486C52.1952 67.0977 52.668 67.5705 52.668 68.2796C52.668 68.9888 52.1952 69.4616 51.486 69.4616Z" fill="#CCD1D9"/>
<path d="M70.3981 69.4616H56.2142C55.505 69.4616 55.0322 68.9888 55.0322 68.2796C55.0322 67.5705 55.505 67.0977 56.2142 67.0977H70.3981C71.1073 67.0977 71.5801 67.5705 71.5801 68.2796C71.5801 68.9888 71.1073 69.4616 70.3981 69.4616Z" fill="#CCD1D9"/>
<path d="M70.3981 50.5498H56.2142C55.505 50.5498 55.0322 50.077 55.0322 49.3678C55.0322 48.6586 55.505 48.1858 56.2142 48.1858H70.3981C71.1073 48.1858 71.5801 48.6586 71.5801 49.3678C71.5801 50.077 71.1073 50.5498 70.3981 50.5498Z" fill="#CCD1D9"/>
<path d="M60.9419 64.7339H37.3021C36.5929 64.7339 36.1201 64.2611 36.1201 63.5519C36.1201 62.8427 36.5929 62.3699 37.3021 62.3699H60.9419C61.6511 62.3699 62.1239 62.8427 62.1239 63.5519C62.1239 64.2611 61.6511 64.7339 60.9419 64.7339Z" fill="#CCD1D9"/>
<path d="M70.3982 64.7339H65.6703C64.9611 64.7339 64.4883 64.2611 64.4883 63.5519C64.4883 62.8427 64.9611 62.3699 65.6703 62.3699H70.3982C71.1074 62.3699 71.5802 62.8427 71.5802 63.5519C71.5802 64.2611 71.1074 64.7339 70.3982 64.7339Z" fill="#CCD1D9"/>
<path d="M60.9422 41.094H56.2142C55.505 41.094 55.0322 40.6212 55.0322 39.912C55.0322 39.2028 55.505 38.73 56.2142 38.73H60.9422C61.6514 38.73 62.1242 39.2028 62.1242 39.912C62.1242 40.6212 61.6514 41.094 60.9422 41.094Z" fill="#CCD1D9"/>
<path d="M70.3982 41.094H65.6703C64.9611 41.094 64.4883 40.6212 64.4883 39.912C64.4883 39.2028 64.9611 38.73 65.6703 38.73H70.3982C71.1074 38.73 71.5802 39.2028 71.5802 39.912C71.5802 40.6212 71.1074 41.094 70.3982 41.094Z" fill="#CCD1D9"/>
<path d="M70.3981 60.0058H56.2142C55.505 60.0058 55.0322 59.533 55.0322 58.8238C55.0322 58.1146 55.505 57.6418 56.2142 57.6418H70.3981C71.1073 57.6418 71.5801 58.1146 71.5801 58.8238C71.5801 59.533 71.1073 60.0058 70.3981 60.0058Z" fill="#CCD1D9"/>
<g clip-path="url(#clip0)">
<path d="M93.5062 73.1562C93.1499 72.6499 92.7188 72.1812 92.2687 71.7312C91.8187 71.2813 91.35 70.8499 90.8438 70.4937C88.05 68.2625 84.6187 67 81 67C76.7437 67 72.7499 68.7125 69.7312 71.7312C66.7126 74.75 65 78.7437 65 83C65 86.6375 66.2625 90.0687 68.4938 92.8625C68.8688 93.3499 69.2812 93.8186 69.7312 94.2687C70.1812 94.7188 70.65 95.1312 71.1375 95.5062C73.9312 97.7375 77.3625 99 81 99C85.2563 99 89.2501 97.2875 92.2687 94.2687C95.2875 91.2499 97 87.2562 97 83C97 79.3813 95.7375 75.95 93.5062 73.1562ZM68.8125 83C68.8125 79.7375 70.0875 76.6812 72.3751 74.3749C74.6812 72.0875 77.7375 70.8125 81 70.8125C83.6251 70.8125 86.1187 71.6375 88.1813 73.1562L71.175 90.1812C69.6375 88.1187 68.8125 85.6249 68.8125 83ZM89.6249 91.6249C87.3188 93.9125 84.2625 95.1875 81 95.1875C78.3749 95.1875 75.8813 94.3625 73.8187 92.825L90.8438 75.8188C92.3625 77.8812 93.1875 80.3749 93.1875 83C93.1875 86.2625 91.9125 89.3188 89.6249 91.6249Z" fill="#FD003A"/>
<path d="M71.1396 95.5071C73.9333 97.7384 77.3646 99.0009 81.0021 99.0009C85.2585 99.0009 89.2522 97.2884 92.2709 94.2697C95.2896 91.2509 97.0021 87.2571 97.0021 83.0009C97.0021 79.3822 95.7396 75.9509 93.5083 73.1572C93.1521 72.6509 92.7209 72.1821 92.2709 71.7322L69.7334 94.2697C70.1833 94.7197 70.6521 95.1321 71.1396 95.5071ZM90.8459 75.8196C92.3646 77.8821 93.1896 80.3759 93.1896 83.0009C93.1896 86.2634 91.9146 89.3197 89.6271 91.6259C87.3209 93.9134 84.2646 95.1884 81.0021 95.1884C78.3771 95.1884 75.8835 94.3634 73.8208 92.8259L90.8459 75.8196Z" fill="#E50027"/>
</g>
<defs>
<clipPath id="clip0">
<rect x="65" y="67" width="32" height="32" fill="white"/>
</clipPath>
</defs>
</svg>
