<svg width="120" height="120" viewBox="0 0 120 120" fill="none" xmlns="http://www.w3.org/2000/svg">
<circle cx="60" cy="60" r="60" fill="#FFCEDA"/>
<path d="M88.4501 85.4712C88.4501 88.0818 86.3554 90.1977 83.7708 90.1977H37.2223C34.6377 90.1977 32.543 88.0818 32.543 85.4712V38.4531C32.543 35.8425 34.6377 33.7266 37.2223 33.7266H83.7708C86.3554 33.7266 88.4501 35.8425 88.4501 38.4531V85.4712Z" fill="#90D8F9"/>
<path d="M87.9501 80.7446C87.9501 83.0838 86.0745 84.9712 83.7708 84.9712H37.2223C34.9186 84.9712 33.043 83.0838 33.043 80.7446V33.7265C33.043 31.3873 34.9186 29.5 37.2223 29.5H83.7708C86.0745 29.5 87.9501 31.3873 87.9501 33.7265V80.7446Z" fill="#B1E4F9" stroke="#90D8F9"/>
<path d="M32.5425 43.8545H20V71.8128H32.5425V43.8545Z" fill="#90D8F9"/>
<path d="M32.5426 43.8545H26.2715V71.8128H32.5426V43.8545Z" fill="#48AFCC"/>
<path d="M100.999 43.8545H88.457V71.8128H100.999V43.8545Z" fill="#90D8F9"/>
<path d="M94.7281 43.8545H88.457V71.8128H94.7281V43.8545Z" fill="#48AFCC"/>
<path d="M80.6449 36.8848H40.3535V77.5827H80.6449V36.8848Z" fill="white"/>
<path d="M80.6449 36.8848H40.3535V39.6297H80.6449V36.8848Z" fill="#90D8F9"/>
<path d="M60.4963 61.2669L60.494 61.2704L60.4906 61.2669C58.6983 59.4566 55.7934 59.4566 54.0024 61.2669C52.2102 63.0772 52.2102 66.0114 54.0024 67.8206L60.4906 74.3742L66.954 67.8456L66.9848 67.8192C68.777 66.0089 68.777 63.0746 66.9848 61.2655C65.1935 59.4578 62.2888 59.4578 60.4963 61.2669Z" fill="#FF0000"/>
<path d="M76.8817 49.1027L74.0669 42.8066L70.5807 53.1609L69.0695 49.1087H68.0472L64.2858 49.1027L61.4712 42.8066L57.985 53.1609L56.4738 49.1087H55.4514L51.69 49.1027L48.8752 42.8066L45.3893 53.1609L43.8781 49.1087H40.3516V50.6843H42.7985L45.4639 57.8324L49.0805 47.0923L50.6829 50.6783L52.9473 50.6806V50.6843H55.3944L58.0596 57.8324L61.6762 47.0923L63.2787 50.6783L65.543 50.6806V50.6843H67.9902L70.6556 57.8324L74.2722 47.0923L75.8747 50.6783L80.6418 50.6843L80.6429 49.1087L76.8817 49.1027Z" fill="#FF0000"/>
<path d="M56.2013 64.9876C57.0288 64.9876 57.6996 64.3101 57.6996 63.4743C57.6996 62.6385 57.0288 61.9609 56.2013 61.9609C55.3739 61.9609 54.7031 62.6385 54.7031 63.4743C54.7031 64.3101 55.3739 64.9876 56.2013 64.9876Z" fill="white"/>
<path d="M66.986 61.2669C65.1938 59.4566 62.2889 59.4566 60.4978 61.2669L60.4941 61.2707V74.3733L66.9541 67.8482L66.9849 67.8217C68.7771 66.0117 68.7771 63.0774 66.986 61.2669Z" fill="#FF003D"/>
</svg>
