<svg width="22" height="11" viewBox="0 0 22 11" fill="none" xmlns="http://www.w3.org/2000/svg">
<path d="M16.573 10.7159C16.7587 10.9053 17.0026 11 17.2467 11C17.4888 11 17.7309 10.9068 17.9162 10.7204L21.221 7.39418C21.7233 6.88862 22 6.21596 22 5.49996C22 4.7842 21.7233 4.11154 21.221 3.60598L17.9162 0.279498C17.544 -0.0947878 16.9427 -0.0930341 16.573 0.284007C16.2033 0.660798 16.2053 1.27008 16.5772 1.64436L19.4522 4.53794H0.949673C0.425127 4.53794 0 4.96859 0 5.49996C0 6.03132 0.425127 6.46198 0.949673 6.46198H19.4522L16.5772 9.35555C16.2053 9.73009 16.2033 10.3391 16.573 10.7159Z" fill="#FF0000"/>
</svg>
