<svg width="26" height="26" viewBox="0 0 26 26" fill="none" xmlns="http://www.w3.org/2000/svg">
<path d="M12.9883 0C5.82657 0 0 5.82657 0 12.9883C0 20.15 5.82657 25.9766 12.9883 25.9766C15.3632 25.9766 17.6872 25.3293 19.7089 24.1047C20.1933 23.8112 20.3481 23.1808 20.0547 22.6964C19.7612 22.212 19.1307 22.0571 18.6464 22.3508C16.9451 23.381 14.9889 23.9258 12.9883 23.9258C6.95717 23.9258 2.05078 19.0191 2.05078 12.9883C2.05078 6.95744 6.95717 2.05078 12.9883 2.05078C14.1053 2.05078 15.1833 2.21981 16.199 2.53223L14.0017 4.72935C13.9296 4.23374 13.5042 3.85242 12.9883 3.85242C12.4219 3.85242 11.9629 4.31145 11.9629 4.87782V12.9883C11.9629 13.2601 12.0708 13.521 12.2633 13.7133L16.2778 17.7278C16.4781 17.928 16.7403 18.0282 17.0028 18.0282C17.265 18.0282 17.5275 17.928 17.7278 17.7278C18.1283 17.3272 18.1283 16.6781 17.7278 16.2775L14.4003 12.9501L21.3749 5.97557C21.8171 6.50349 22.2101 7.07359 22.5476 7.67895L19.1088 11.0948C18.707 11.494 18.7048 12.1431 19.104 12.545C19.3043 12.7469 19.5679 12.8478 19.8314 12.8478C20.0928 12.8478 20.3543 12.7485 20.554 12.5498L23.4211 9.70196C23.7487 10.7396 23.9258 11.8438 23.9258 12.9883C23.9258 15.1448 23.2844 17.2439 22.071 19.0589C21.7564 19.5297 21.8827 20.1665 22.3538 20.4811C22.8246 20.7959 23.4612 20.6694 23.776 20.1986C25.2155 18.0453 25.9766 15.552 25.9766 12.9883C25.9766 5.82657 20.15 0 12.9883 0ZM14.0137 10.4368V7.58469L18.2159 3.38326C18.8199 3.7133 19.3895 4.09863 19.9179 4.53255L14.0137 10.4368Z" fill="url(#paint0_linear)"/>
<defs>
<linearGradient id="paint0_linear" x1="12.9883" y1="0" x2="12.9883" y2="25.9766" gradientUnits="userSpaceOnUse">
<stop stop-color="#FF0000"/>
<stop offset="0.491713" stop-color="#FF003D"/>
<stop offset="0.994475" stop-color="#FF3D00"/>
</linearGradient>
</defs>
</svg>
