<svg width="120" height="120" viewBox="0 0 120 120" fill="none" xmlns="http://www.w3.org/2000/svg">
<circle cx="60" cy="60" r="60" fill="#FFCEDA"/>
<path d="M90.0879 79.8047H89.7193C89.5341 77.3636 87.4734 75.4395 84.9565 75.4395C82.4398 75.4395 80.379 77.3636 80.1937 79.8047H79.8251C77.6662 79.8047 75.916 81.5349 75.916 83.6691C75.916 85.8033 77.6662 87.5335 79.8251 87.5335H90.0877C92.2466 87.5335 93.9968 85.8033 93.9968 83.6691C93.997 81.5349 92.2468 79.8047 90.0879 79.8047Z" fill="#E7ECF1"/>
<path d="M86.669 75.7527C86.091 75.9706 85.5702 76.2983 85.1262 76.7065C84.2723 77.4926 83.7123 78.5852 83.6191 79.8053H83.2501C81.0916 79.8053 79.3415 81.5355 79.3415 83.6692C79.3415 84.7361 79.779 85.7029 80.486 86.4017C81.1946 87.1005 82.171 87.5331 83.2501 87.5331H79.8263C78.7455 87.5331 77.7691 87.1006 77.0605 86.4017C76.3537 85.7028 75.916 84.736 75.916 83.6692C75.916 81.5355 77.6663 79.8053 79.8263 79.8053H80.1937C80.2868 78.5851 80.8484 77.4924 81.7007 76.7065C82.5546 75.9205 83.6991 75.4395 84.9579 75.4395C85.5621 75.4396 86.1384 75.551 86.669 75.7527Z" fill="#C6D0DA"/>
<path d="M74.4111 25.777H74.1264C73.9834 23.8915 72.3916 22.4053 70.4477 22.4053C68.5038 22.4053 66.912 23.8915 66.7689 25.777H66.4842C64.8167 25.777 63.4648 27.1135 63.4648 28.7619C63.4648 30.4103 64.8167 31.7467 66.4842 31.7467H74.4111C76.0786 31.7467 77.4305 30.4103 77.4305 28.7619C77.4305 27.1133 76.0788 25.777 74.4111 25.777Z" fill="#E7ECF1"/>
<path d="M71.7603 22.6452C71.3097 22.8131 70.9016 23.0664 70.5555 23.386C69.8975 23.9929 69.4633 24.8353 69.3914 25.778H69.1073C67.4403 25.778 66.0886 27.1144 66.0886 28.7624C66.0886 29.5872 66.4266 30.3328 66.9734 30.8735C67.5187 31.4142 68.2731 31.7482 69.1073 31.7482H66.4836C65.6509 31.7482 64.895 31.4141 64.3497 30.8735C63.8028 30.3328 63.4648 29.5871 63.4648 28.7624C63.4648 27.1144 64.8167 25.778 66.4836 25.778H66.7694C66.8395 24.8355 67.2739 23.9929 67.9334 23.386C68.5914 22.7776 69.4747 22.4062 70.4478 22.4062C70.9114 22.4062 71.3538 22.4901 71.7603 22.6452Z" fill="#C6D0DA"/>
<path d="M55.2685 66.0348L66.6394 65.2832L66.6388 77.2351H53.6895L55.2685 66.0348Z" fill="#B9C1CB"/>
<path d="M54.2988 33.5059H46.5449L54.2988 54.2751H76.2815L54.2988 33.5059Z" fill="#D30202"/>
<path d="M57.2173 48.792L46.5484 33.5059H40.2227L52.3125 51.3394" fill="white"/>
<path d="M99.9349 62.945C99.7896 63.7649 99.3994 64.5574 98.7414 65.2062C95.0531 68.8523 90.0783 70.8569 84.9452 70.8569C83.9492 70.8569 82.9485 70.7811 81.9492 70.6277L36.9506 63.7164C33.602 63.2016 30.4133 62.0701 27.5366 60.4093C24.6613 58.747 22.098 56.5567 20 53.9244V48.7919H25.0288L23.1577 32.1367H33.2656L40.1278 44.6712C41.5172 47.2102 44.203 48.7919 47.1239 48.7919H85.4219C88.4081 48.7919 91.1444 50.2929 92.7363 52.701H92.7378C93.0464 53.1658 91.767 54.5785 91.9825 55.1063L94.6856 57.0218L97.5413 58.3582C99.3863 59.2231 100.255 61.1486 99.9349 62.945Z" fill="white"/>
<path d="M28.1163 48.7917H25.0272L23.1562 32.1367H27.5172L30.8625 45.312C31.3116 47.0793 29.9597 48.7917 28.1163 48.7917Z" fill="#FF0000"/>
<path d="M94.6847 57.0229C94.6847 57.0229 91.6594 57.9139 88.8772 57.5975C86.4069 57.3167 86.198 53.8498 88.6225 53.3042C89.7556 53.0492 91.1255 52.8249 92.7353 52.7021H92.7369C93.0455 53.1669 93.3116 53.6674 93.527 54.1952L94.6847 57.0229Z" fill="#B1E4F9"/>
<path d="M99.9352 62.9458C99.7902 63.7668 99.3988 64.5582 98.7411 65.2084C95.0538 68.8535 90.0788 70.8589 84.945 70.8589C83.9497 70.8589 82.9483 70.7823 81.9489 70.6291L36.9508 63.7176C33.6011 63.2031 30.4123 62.0718 27.5355 60.4103C24.6609 58.7487 22.098 56.5588 20 53.925V48.793H25.0284C25.0284 48.793 25.9323 58.1908 54.4742 61.5258C79.7677 64.4816 91.5192 64.8176 99.9352 62.9458Z" fill="#F0F8FB"/>
<path d="M66.637 77.2352C68.7169 77.2352 70.403 74.5597 70.403 71.2592C70.403 67.9588 68.7169 65.2832 66.637 65.2832C64.5572 65.2832 62.8711 67.9588 62.8711 71.2592C62.8711 74.5597 64.5572 77.2352 66.637 77.2352Z" fill="#544F57"/>
<path d="M49.9274 82.2938H40.5996L49.9274 61.5244H73.0119L49.9274 82.2938Z" fill="#E7ECF1"/>
<path d="M40.6013 82.2938L58.0431 61.5244H49.9291L35.1445 82.2938H40.6013Z" fill="#FF0000"/>
<path d="M35.5493 88.7792H35.1573C34.9602 86.1825 32.7682 84.1357 30.091 84.1357C27.4138 84.1357 25.2218 86.1825 25.0248 88.7792H24.6327C22.3362 88.7792 20.4746 90.6196 20.4746 92.8898C20.4746 95.1601 22.3363 97.0004 24.6327 97.0004H35.5493C37.8459 97.0004 39.7074 95.1599 39.7074 92.8898C39.7074 90.6196 37.8457 88.7792 35.5493 88.7792Z" fill="#E7ECF1"/>
<path d="M32.2087 84.59C31.7107 84.816 31.2568 85.1178 30.8616 85.4825C29.9555 86.3186 29.3579 87.4806 29.2599 88.7782H28.868C26.5709 88.7782 24.7096 90.6182 24.7096 92.8891C24.7096 94.0238 25.1749 95.0502 25.9276 95.7943C26.6802 96.5383 27.7202 96.9983 28.868 96.9983H24.633C23.4852 96.9983 22.4452 96.5383 21.6926 95.7943C20.9399 95.0502 20.4746 94.0236 20.4746 92.8891C20.4746 90.6182 22.3359 88.7782 24.633 88.7782H25.0249C25.1245 87.4806 25.7204 86.3184 26.6282 85.4825C27.5343 84.6463 28.7523 84.1348 30.0912 84.1348C30.847 84.1349 31.5637 84.2979 32.2087 84.59Z" fill="#C6D0DA"/>
<path d="M73.8314 56.8278C74.5171 56.8278 75.073 56.2783 75.073 55.6004C75.073 54.9226 74.5171 54.373 73.8314 54.373C73.1457 54.373 72.5898 54.9226 72.5898 55.6004C72.5898 56.2783 73.1457 56.8278 73.8314 56.8278Z" fill="#B1E4F9"/>
<path d="M78.3099 56.8278C78.9956 56.8278 79.5515 56.2783 79.5515 55.6004C79.5515 54.9226 78.9956 54.373 78.3099 54.373C77.6242 54.373 77.0684 54.9226 77.0684 55.6004C77.0684 56.2783 77.6242 56.8278 78.3099 56.8278Z" fill="#B1E4F9"/>
<path d="M69.3509 56.8278C70.0366 56.8278 70.5925 56.2783 70.5925 55.6004C70.5925 54.9226 70.0366 54.373 69.3509 54.373C68.6652 54.373 68.1094 54.9226 68.1094 55.6004C68.1094 56.2783 68.6652 56.8278 69.3509 56.8278Z" fill="#B1E4F9"/>
<path d="M64.8668 54.373C64.1815 54.373 63.627 54.9229 63.627 55.6004C63.627 56.2779 64.1815 56.8278 64.8668 56.8278C65.5538 56.8278 66.1099 56.2779 66.1099 55.6004C66.1101 54.9229 65.5538 54.373 64.8668 54.373Z" fill="#B1E4F9"/>
<path d="M60.3861 56.8278C61.0718 56.8278 61.6277 56.2783 61.6277 55.6004C61.6277 54.9226 61.0718 54.373 60.3861 54.373C59.7004 54.373 59.1445 54.9226 59.1445 55.6004C59.1445 56.2783 59.7004 56.8278 60.3861 56.8278Z" fill="#B1E4F9"/>
<path d="M55.9056 56.8278C56.5913 56.8278 57.1472 56.2783 57.1472 55.6004C57.1472 54.9226 56.5913 54.373 55.9056 54.373C55.2199 54.373 54.6641 54.9226 54.6641 55.6004C54.6641 56.2783 55.2199 56.8278 55.9056 56.8278Z" fill="#B1E4F9"/>
<path d="M51.4252 56.8278C52.1109 56.8278 52.6667 56.2783 52.6667 55.6004C52.6667 54.9226 52.1109 54.373 51.4252 54.373C50.7395 54.373 50.1836 54.9226 50.1836 55.6004C50.1836 56.2783 50.7395 56.8278 51.4252 56.8278Z" fill="#B1E4F9"/>
<path d="M46.9427 56.8278C47.6284 56.8278 48.1843 56.2783 48.1843 55.6004C48.1843 54.9226 47.6284 54.373 46.9427 54.373C46.257 54.373 45.7012 54.9226 45.7012 55.6004C45.7012 56.2783 46.257 56.8278 46.9427 56.8278Z" fill="#B1E4F9"/>
<path d="M42.4623 56.8278C43.148 56.8278 43.7038 56.2783 43.7038 55.6004C43.7038 54.9226 43.148 54.373 42.4623 54.373C41.7766 54.373 41.2207 54.9226 41.2207 55.6004C41.2207 56.2783 41.7766 56.8278 42.4623 56.8278Z" fill="#B1E4F9"/>
<path d="M37.9801 54.373C37.2948 54.373 36.7402 54.9229 36.7402 55.6004C36.7402 56.2779 37.2948 56.8278 37.9801 56.8278C38.667 56.8278 39.2216 56.2779 39.2216 55.6004C39.2216 54.9229 38.6671 54.373 37.9801 54.373Z" fill="#B1E4F9"/>
<path d="M33.5013 56.8278C34.187 56.8278 34.7429 56.2783 34.7429 55.6004C34.7429 54.9226 34.187 54.373 33.5013 54.373C32.8156 54.373 32.2598 54.9226 32.2598 55.6004C32.2598 56.2783 32.8156 56.8278 33.5013 56.8278Z" fill="#B1E4F9"/>
</svg>
