<svg width="120" height="120" viewBox="0 0 120 120" fill="none" xmlns="http://www.w3.org/2000/svg">
<circle cx="60" cy="60" r="60" fill="#FFCEDA"/>
<path d="M89.4737 85.8912H22.4061C21.6295 85.8912 21 85.2691 21 84.5019V81.4004H90.8797V84.5019C90.8797 85.2691 90.2503 85.8912 89.4737 85.8912Z" fill="#7A96A8"/>
<path d="M81.9312 63.0541L78.0483 44.895C77.911 44.2526 77.3373 43.793 76.6727 43.793H22.4061C21.6295 43.793 21 44.4149 21 45.1822V81.403H90.8797V68.8018C90.8797 68.2692 90.5714 67.7833 90.0861 67.5513L82.6944 64.0175C82.3029 63.8303 82.0211 63.4746 81.9312 63.0541Z" fill="white"/>
<path d="M66.168 62.332V49.6734C66.168 48.9061 66.7974 48.2842 67.574 48.2842H72.8575C73.5139 48.2842 74.0831 48.733 74.2286 49.3656L77.1403 62.0241C77.3403 62.8934 76.6715 63.7212 75.7692 63.7212H67.5742C66.7974 63.7212 66.168 63.0993 66.168 62.332Z" fill="#B1E4F9"/>
<path d="M72.8555 48.2842H71.2793L74.8301 63.7211H75.7673C76.6696 63.7211 77.3384 62.8934 77.1384 62.024L74.2267 49.3654C74.0812 48.733 73.512 48.2842 72.8555 48.2842Z" fill="#90D8F9"/>
<path d="M53.0977 62.332V49.6734C53.0977 48.9061 53.7271 48.2842 54.5037 48.2842H60.2135C60.9901 48.2842 61.6196 48.9061 61.6196 49.6734V62.332C61.6196 63.0993 60.9901 63.7212 60.2135 63.7212H54.5037C53.7271 63.7212 53.0977 63.0993 53.0977 62.332Z" fill="#B1E4F9"/>
<path d="M76.8207 92.0659C81.5273 92.0659 85.3427 88.2961 85.3427 83.6458C85.3427 78.9954 81.5273 75.2256 76.8207 75.2256C72.1142 75.2256 68.2988 78.9954 68.2988 83.6458C68.2988 88.2961 72.1142 92.0659 76.8207 92.0659Z" fill="#44697E"/>
<path d="M76.8227 86.0312C78.1562 86.0312 79.2373 84.9631 79.2373 83.6455C79.2373 82.3279 78.1562 81.2598 76.8227 81.2598C75.4892 81.2598 74.4082 82.3279 74.4082 83.6455C74.4082 84.9631 75.4892 86.0312 76.8227 86.0312Z" fill="#D0E2E7"/>
<path d="M35.0629 92.0659C39.7695 92.0659 43.5848 88.2961 43.5848 83.6458C43.5848 78.9954 39.7695 75.2256 35.0629 75.2256C30.3564 75.2256 26.541 78.9954 26.541 83.6458C26.541 88.2961 30.3564 92.0659 35.0629 92.0659Z" fill="#44697E"/>
<path d="M35.0571 86.0312C36.3906 86.0312 37.4716 84.9631 37.4716 83.6455C37.4716 82.3279 36.3906 81.2598 35.0571 81.2598C33.7236 81.2598 32.6426 82.3279 32.6426 83.6455C32.6426 84.9631 33.7236 86.0312 35.0571 86.0312Z" fill="#D0E2E7"/>
<path d="M45.5801 55.4413H40.0237C39.5578 55.4413 39.1801 55.0682 39.1801 54.6078V49.1177C39.1801 48.6573 38.8025 48.2842 38.3365 48.2842H35.1946C34.7287 48.2842 34.351 48.6573 34.351 49.1177V54.6078C34.351 55.0682 33.9734 55.4413 33.5074 55.4413H27.951C27.4851 55.4413 27.1074 55.8144 27.1074 56.2748V59.3792C27.1074 59.8396 27.4851 60.2127 27.951 60.2127H33.5074C33.9734 60.2127 34.351 60.5859 34.351 61.0463V66.5363C34.351 66.9967 34.7287 67.3698 35.1946 67.3698H38.3365C38.8025 67.3698 39.1801 66.9967 39.1801 66.5363V61.0463C39.1801 60.5859 39.5578 60.2127 40.0237 60.2127H45.5801C46.0461 60.2127 46.4237 59.8396 46.4237 59.3792V56.2748C46.4237 55.8144 46.0461 55.4413 45.5801 55.4413Z" fill="#FF0000"/>
<path d="M60.1998 43.7918H51.6777L52.8649 38.1616C53.0007 37.5174 53.5754 37.0557 54.2413 37.0557H57.6359C58.302 37.0557 58.8766 37.5174 59.0124 38.1616L60.1998 43.7918Z" fill="#FF0000"/>
<path d="M70.0631 69.2498H67.2224C66.6399 69.2498 66.168 68.7833 66.168 68.2079C66.168 67.6325 66.6401 67.166 67.2224 67.166H70.0631C70.6456 67.166 71.1176 67.6325 71.1176 68.2079C71.1176 68.7833 70.6456 69.2498 70.0631 69.2498Z" fill="#D0E2E7"/>
<path d="M90.8814 72.6209H88.0408C87.4583 72.6209 86.9863 72.1544 86.9863 71.579C86.9863 71.0036 87.4584 70.5371 88.0408 70.5371H90.8814V72.6209Z" fill="#86A0AF"/>
<path d="M90.8814 77.1101H88.0408C87.4583 77.1101 86.9863 76.6437 86.9863 76.0683C86.9863 75.4928 87.4584 75.0264 88.0408 75.0264H90.8814V77.1101Z" fill="#86A0AF"/>
<path d="M54.1521 78.2314C53.5696 78.2314 53.0977 77.7649 53.0977 77.1895V68.2079C53.0977 67.6325 53.5698 67.166 54.1521 67.166C54.7345 67.166 55.2066 67.6325 55.2066 68.2079V77.1895C55.2067 77.7648 54.7346 78.2314 54.1521 78.2314Z" fill="#D0E2E7"/>
<g clip-path="url(#clip0)">
<path d="M89.3259 45.3096C88.8257 45.3096 88.4194 44.8916 88.418 44.3748C88.4163 43.8572 88.8217 43.436 89.3233 43.4346C91.6047 43.4272 93.7752 42.0054 95.4348 39.4307C97.0277 36.9595 97.9636 33.7278 98.1062 30.2471H94.1058C93.6042 30.2471 93.1976 29.8274 93.1976 29.3096C93.1976 28.7917 93.6042 28.3721 94.1058 28.3721H99.0336C99.5352 28.3721 99.9418 28.7917 99.9418 29.3096C99.9418 33.5103 98.8782 37.4734 96.9473 40.4695C94.9412 43.5813 92.2357 45.3003 89.329 45.3096C89.3281 45.3096 89.3271 45.3096 89.3259 45.3096Z" fill="#FF8E1D"/>
<path d="M79.5553 45.3096C79.5541 45.3096 79.5534 45.3096 79.5524 45.3096C76.6457 45.3003 73.94 43.5813 71.9342 40.4695C70.003 37.4734 68.9395 33.5103 68.9395 29.3096C68.9395 28.7917 69.346 28.3721 69.8477 28.3721H74.7754C75.277 28.3721 75.6836 28.7917 75.6836 29.3096C75.6836 29.8274 75.277 30.2471 74.7754 30.2471H70.775C70.9176 33.7278 71.8535 36.9595 73.4464 39.4307C75.106 42.0054 77.2765 43.4272 79.5579 43.4346C80.0595 43.436 80.4649 43.8572 80.4632 44.3748C80.4618 44.8916 80.0555 45.3093 79.5553 45.3096Z" fill="#FFB023"/>
<path d="M94.1649 26.0625H74.709C74.2076 26.0625 73.8008 26.4822 73.8008 27C73.8008 32.5071 74.8469 37.6995 76.7461 41.6204C77.9629 44.1323 79.451 45.9558 81.0967 46.9998V52.104C81.0967 52.6218 81.5035 53.0415 82.0049 53.0415H86.869C87.3706 53.0415 87.7772 52.6218 87.7772 52.104V46.9998C89.4228 45.9561 90.9112 44.1323 92.1278 41.6204C94.027 37.6995 95.0731 32.5071 95.0731 27C95.0731 26.4822 94.6665 26.0625 94.1649 26.0625Z" fill="#FFD12B"/>
<path d="M87.7797 52.104V46.9998C89.4253 45.9561 90.9137 44.1323 92.1303 41.6204C94.0295 37.6995 95.0756 32.5071 95.0756 27C95.0756 26.4822 94.669 26.0625 94.1674 26.0625H84.4395V53.0415H86.8715C87.3731 53.0415 87.7797 52.6218 87.7797 52.104Z" fill="#FFB023"/>
<path d="M89.3062 51.168H79.5785C77.7368 51.168 76.2383 52.7148 76.2383 54.616V57.1265C76.2383 57.6441 76.6448 58.0637 77.1465 58.0637H91.7383C92.2399 58.0637 92.6465 57.6441 92.6465 57.1265V54.616C92.6465 52.7148 91.1482 51.168 89.3062 51.168Z" fill="#FF8E1D"/>
<path d="M89.3033 51.168H84.4395V58.0637H91.7354C92.237 58.0637 92.6436 57.6441 92.6436 57.1265V54.616C92.6436 52.7148 91.1453 51.168 89.3033 51.168Z" fill="#FF6D15"/>
<path d="M92.7092 58.0623H76.1719C75.6705 58.0623 75.2637 57.6426 75.2637 57.125C75.2637 56.6072 75.6705 56.1875 76.1719 56.1875H92.7092C93.2108 56.1875 93.6174 56.6072 93.6174 57.125C93.6174 57.6426 93.2108 58.0623 92.7092 58.0623Z" fill="#FFB023"/>
<path d="M92.7081 56.1875H84.4395V58.0623H92.7081C93.2098 58.0623 93.6163 57.6426 93.6163 57.125C93.6163 56.6072 93.2098 56.1875 92.7081 56.1875Z" fill="#FF8E1D"/>
</g>
<defs>
<clipPath id="clip0">
<rect x="69" y="26" width="31" height="32" fill="white"/>
</clipPath>
</defs>
</svg>
