<svg width="120" height="120" viewBox="0 0 120 120" fill="none" xmlns="http://www.w3.org/2000/svg">
<circle cx="60" cy="60" r="60" fill="#FFCEDA"/>
<path d="M54.6211 27.3115H70.6075V31.686H54.6211V27.3115Z" fill="#EEF3F7"/>
<path d="M54.6211 27.3115H70.6075V31.686L54.6211 27.3115Z" fill="#D9DADA"/>
<path d="M55.0332 31.6592H70.1998C74.371 31.6592 77.7836 35.0424 77.7836 39.1778V79.8865C77.7836 81.3302 76.5927 82.511 75.1363 82.511H50.0964C48.6405 82.511 47.4492 81.3304 47.4492 79.8865V39.1776C47.4496 35.0424 50.8622 31.6592 55.0332 31.6592Z" fill="#FEFEFE"/>
<path d="M77.3531 81.3154C76.8794 82.0338 76.0613 82.5108 75.1359 82.5108H50.096C49.1705 82.5108 48.3526 82.0338 47.8789 81.3154H77.3531Z" fill="#EEF3F7"/>
<path d="M47.4492 41.0303H77.7834V79.8882H47.4492V41.0303Z" fill="#FF003D"/>
<path d="M76.2891 41.0303H77.7827V79.8882H76.2891V41.0303Z" fill="#D9DADA"/>
<path d="M76.2891 41.0303H77.7827V79.8882H76.2891V41.0303Z" fill="#D9DADA"/>
<path d="M53.6065 20H71.6182C72.3201 20 72.8946 20.5692 72.8946 21.2652V26.2987C72.8946 26.9948 72.3201 27.564 71.6182 27.564H53.6065C52.9042 27.564 52.3301 26.9948 52.3301 26.2987V21.2652C52.3301 20.5692 52.9042 20 53.6065 20Z" fill="#44697E"/>
<path d="M55.5645 48.5088H77.7811V75.9098H55.5645V48.5088Z" fill="white"/>
<path d="M76.2891 48.5088H77.7827V75.9098H76.2891V48.5088Z" fill="#EEF3F7"/>
<path d="M50.4653 48.5088H47.4492V75.9098H50.4653V48.5088Z" fill="white"/>
<path d="M73.5296 45.4954L80.4201 53.3101C80.8351 53.7809 80.786 54.5021 80.3113 54.9134L48.231 82.716L39.832 73.1904L71.9123 45.3881C72.3869 44.9766 73.1148 45.0248 73.5296 45.4954Z" fill="#E6E6E6"/>
<path d="M53.4352 64.2041L59.0329 70.5525L28.0487 97.4051L22.4512 91.0569L53.4352 64.2041Z" fill="white"/>
<path d="M39.9939 71.1451L50.2941 82.8271C50.632 83.2102 50.592 83.7977 50.2057 84.1325C49.8192 84.4673 49.2269 84.4279 48.889 84.0449L38.5888 72.3629C38.2511 71.9798 38.2909 71.3923 38.6772 71.0575C39.0637 70.7228 39.656 70.7621 39.9939 71.1451Z" fill="#44697E"/>
<path d="M75.5801 47.8203L78.3695 50.9835L81.6118 48.174L78.8223 45.0107L75.5801 47.8203Z" fill="#EEF3F7"/>
<path d="M97.0863 31.159L100 30.2637L82.4262 45.494L81.6113 44.57L97.0863 31.159Z" fill="white"/>
<path d="M77.4746 46.1783L80.2641 49.3416L83.5063 46.532C83.9715 46.1289 84.0195 45.4217 83.6128 44.9605L82.302 43.4742C81.8951 43.013 81.1819 42.9654 80.7167 43.3686L77.4746 46.1783Z" fill="#FF0000"/>
<path d="M76.4137 46.663L79.6418 50.3238C79.8453 50.5546 80.2013 50.5782 80.4341 50.3765L80.4345 50.3762C80.6673 50.1747 80.6911 49.8215 80.4876 49.5908L77.2595 45.9299C77.056 45.6992 76.6998 45.6757 76.467 45.8772L76.4667 45.8776C76.2341 46.0793 76.2102 46.4324 76.4137 46.663Z" fill="#ED4C54"/>
<path d="M21.2956 89.21L29.7388 98.7857C30.0066 99.0895 29.975 99.5544 29.6689 99.8199L29.6687 99.8201C29.3622 100.086 28.8929 100.055 28.6252 99.7508L20.1822 90.1751C19.9142 89.8711 19.9455 89.406 20.2519 89.1405L20.2521 89.1403C20.5582 88.8748 21.0276 88.9061 21.2956 89.21Z" fill="#44697E"/>
<path d="M55.0675 61.46L61.9943 69.3149L59.6964 71.3062L52.7695 63.4515L55.0675 61.46Z" fill="#5FA7E0"/>
<path d="M73.0527 46.4956L79.3568 53.645C79.5277 53.839 79.5077 54.1364 79.3119 54.306L61.9942 69.3148L55.0684 61.4598L72.386 46.4512C72.5818 46.2816 72.8818 46.3014 73.0527 46.4956Z" fill="#76B7EB"/>
<path d="M71.5826 47.1475L74.2801 50.207L73.629 50.7713L70.9315 47.7121L71.5826 47.1475ZM55.8268 60.8025L57.4051 62.5925L56.7541 63.1567L55.1758 61.3667L55.8268 60.8025ZM58.1055 58.8278L60.803 61.8873L60.152 62.4516L57.4544 59.392L58.1055 58.8278ZM60.3192 56.9091L61.8975 58.699L61.2464 59.2632L59.6681 57.4732L60.3192 56.9091ZM62.5977 54.9343L65.2956 57.9938L64.6443 58.5581L61.9468 55.4989L62.5977 54.9343ZM64.8114 53.0158L66.3898 54.8059L65.7388 55.3701L64.1603 53.5801L64.8114 53.0158ZM67.0902 51.041L69.7877 54.1005L69.1367 54.6648L66.4392 51.6052L67.0902 51.041ZM69.3037 49.1227L70.8822 50.9125L70.2312 51.4768L68.6527 49.687L69.3037 49.1227Z" fill="#FEFEFE"/>
<path d="M70.6117 74.0402C72.7704 74.0402 74.5203 72.3055 74.5203 70.1656C74.5203 68.0257 72.7704 66.291 70.6117 66.291C68.4531 66.291 66.7031 68.0257 66.7031 70.1656C66.7031 72.3055 68.4531 74.0402 70.6117 74.0402Z" fill="#FF0000"/>
<path d="M69.8671 67.4482H71.3566V69.4286H73.3545V70.9051H71.3566V72.8857H69.8671V70.9051H67.8691V69.4286H69.8671V67.4482Z" fill="#FEFEFE"/>
</svg>
