<svg width="120" height="120" viewBox="0 0 120 120" fill="none" xmlns="http://www.w3.org/2000/svg">
<circle cx="60" cy="60" r="60" fill="#FFCEDA"/>
<g clip-path="url(#clip0)">
<path fill-rule="evenodd" clip-rule="evenodd" d="M25.1002 44.999H84.8998C87.4789 44.999 89.5898 47.0825 89.5898 49.6321V83.7621C89.5898 86.3117 87.4789 88.3952 84.8998 88.3952H40.4556L27.3917 96.8385C26.7592 97.248 26.595 96.8345 26.595 96.1049V88.3952H25.1002C22.5211 88.3952 20.4102 86.3117 20.4102 83.7621V49.6321C20.4102 47.0825 22.5211 44.999 25.1002 44.999Z" fill="white"/>
<path fill-rule="evenodd" clip-rule="evenodd" d="M83.0371 47.2527V48.2255C83.0371 51.9831 76.9467 52.0479 76.9467 47.9661V47.6297C76.9467 44.1722 76.8975 43.1547 79.2712 40.5362C82.877 36.5598 77.8173 32.6523 75.3409 35.4896L73.9282 37.3501C71.8707 39.5632 67.4845 37.2893 69.2792 33.0291C69.7227 31.9793 70.8891 30.8808 71.7927 30.1633C76.495 26.4017 84.9674 27.0583 86.7539 36.0368C87.3946 39.2512 86.1666 42.3359 84.0023 44.7192C83.0207 45.8015 83.0371 45.8786 83.0371 47.2527Z" fill="#FFC850"/>
<path d="M57.8146 59.7623H29.9626C29.3695 59.7623 28.8887 59.0268 28.8887 58.1194C28.8887 57.2121 29.3695 56.4766 29.9626 56.4766H57.8147C58.4079 56.4766 58.8887 57.2121 58.8887 58.1194C58.8887 59.0268 58.4079 59.7623 57.8146 59.7623Z" fill="#86A0AF"/>
<path d="M44.9782 68.5236H29.9828C29.3785 68.5236 28.8887 67.779 28.8887 66.8604C28.8887 65.9419 29.3785 65.1973 29.9828 65.1973H44.9782C45.5825 65.1973 46.0724 65.9419 46.0724 66.8604C46.0724 67.779 45.5825 68.5236 44.9782 68.5236Z" fill="#86A0AF"/>
<path d="M40.3467 77.2859H29.9982C29.3854 77.2859 28.8887 76.5951 28.8887 75.743C28.8887 74.8907 29.3854 74.2002 29.9982 74.2002H40.3468C40.9596 74.2002 41.4563 74.8909 41.4563 75.743C41.4563 76.5951 40.9596 77.2859 40.3467 77.2859Z" fill="#86A0AF"/>
<path d="M70.5802 71.7714C70.461 71.7714 70.3398 71.7514 70.2214 71.7089C69.6737 71.5131 69.3906 70.9162 69.5888 70.3755C71.5259 65.0923 70.1453 62.7113 69.1497 61.7621C67.9032 60.5735 66.1874 60.5011 65.0403 60.9564C64.4184 61.2033 63.3666 61.8369 63.3095 63.3075C63.2872 63.8821 62.7969 64.3321 62.2153 64.3081C61.6333 64.2862 61.1795 63.8024 61.202 63.2279C61.2758 61.3248 62.4166 59.7535 64.2535 59.0242C66.391 58.1763 68.9474 58.6741 70.6149 60.2642C71.9776 61.5636 73.9142 64.6971 71.5719 71.0845C71.4165 71.508 71.0115 71.7714 70.5802 71.7714Z" fill="#685D68"/>
<path fill-rule="evenodd" clip-rule="evenodd" d="M79.9926 61.0426C81.6724 61.0426 83.0359 59.6968 83.0359 58.039C83.0359 56.377 81.6724 55.0312 79.9926 55.0312C78.3088 55.0312 76.9453 56.377 76.9453 58.039C76.9453 59.697 78.3088 61.0426 79.9926 61.0426Z" fill="#FFC850"/>
<path fill-rule="evenodd" clip-rule="evenodd" d="M76.5546 73.016C79.5896 73.8632 82.1275 76.1818 83.0885 79.384C84.5793 84.3575 81.7045 89.5783 76.6695 91.0458C71.6346 92.5171 66.3449 89.6798 64.8542 84.7103C63.8932 81.5041 64.7474 78.1964 66.8296 75.8535L66.1232 73.5066C65.9014 72.7608 66.3367 71.9662 67.0924 71.7473L74.07 69.7085C74.8256 69.4896 75.6265 69.9192 75.8483 70.665L76.5546 73.016ZM76.6736 85.8167C78.7352 84.4264 79.2609 81.6457 77.8482 79.6109C76.4396 77.5801 73.6263 77.0572 71.5647 78.4517C69.5032 79.842 68.9734 82.6186 70.3861 84.6534C71.7947 86.6883 74.6119 87.2112 76.6736 85.8167Z" fill="#C6D0DA"/>
<path fill-rule="evenodd" clip-rule="evenodd" d="M65.8724 68.4853C67.893 70.8768 68.665 74.2047 67.6219 77.3867C66.0079 82.3198 60.6485 85.0233 55.6546 83.4304C50.6566 81.8373 47.9132 76.5476 49.5272 71.6145C50.5703 68.4366 53.1699 66.1829 56.2213 65.4087L56.9852 63.0739C57.2274 62.3362 58.0406 61.9268 58.7922 62.166L65.7163 64.371C66.4637 64.6102 66.8785 65.4128 66.6363 66.1545L65.8724 68.4853ZM58.6485 79.1175C61.1454 79.1175 63.17 77.1192 63.17 74.6546C63.17 72.1861 61.1454 70.1876 58.6485 70.1876C56.1475 70.1876 54.1227 72.1859 54.1227 74.6546C54.1228 77.1192 56.1475 79.1175 58.6485 79.1175Z" fill="#C6D0DA"/>
<path fill-rule="evenodd" clip-rule="evenodd" d="M75.0871 74.8037C85.0586 78.1438 82.7095 88.3058 75.5923 91.2972C75.9537 91.2364 76.311 91.1512 76.6683 91.0458C80.7711 89.8501 83.4405 86.1614 83.4815 82.1485C83.4856 81.6135 83.4446 81.0743 83.3542 80.5352C83.2926 80.1502 83.2023 79.7691 83.0874 79.384C82.1264 76.1819 79.5883 73.8632 76.5534 73.0161L75.847 70.6651C75.6253 69.9193 74.8244 69.4895 74.0687 69.7085L72.5738 70.1462L71.543 70.4462C71.9537 70.3287 72.3808 70.4016 72.7175 70.6124C73.0009 70.7907 73.2186 71.0624 73.3213 71.4028L74.0482 73.8309C74.3233 74.747 74.1712 74.4957 75.0871 74.8037Z" fill="#A0AAB7"/>
<path fill-rule="evenodd" clip-rule="evenodd" d="M63.6417 69.1407C69.958 77.4583 62.2042 84.5357 54.623 83.0359C54.9516 83.1859 55.2965 83.3155 55.6539 83.4291C59.7237 84.7303 64.036 83.1737 66.3646 79.8864C66.6767 79.4487 66.9519 78.9785 67.186 78.4799C67.3544 78.1312 67.4981 77.7624 67.6213 77.3854C68.6645 74.2035 67.8924 70.8756 65.8719 68.484L66.6357 66.1533C66.878 65.4115 66.4632 64.6088 65.7157 64.3698L64.2331 63.8996L63.2064 63.5713C63.6171 63.7009 63.9251 64.0009 64.0852 64.3657C64.2166 64.6657 64.2412 65.0184 64.1303 65.3548L63.3419 67.7625C63.0422 68.6746 63.0627 68.3786 63.6417 69.1407Z" fill="#A0AAB7"/>
<path d="M71.5319 75.8015C71.0836 75.8015 70.6677 75.5168 70.5261 75.0723L70.3906 74.6465C70.216 74.098 70.5248 73.5134 71.0805 73.3409C71.6357 73.1691 72.2281 73.4735 72.4028 74.022L72.5383 74.4478C72.7129 74.9963 72.404 75.5809 71.8484 75.7534C71.7433 75.7858 71.6366 75.8015 71.5319 75.8015Z" fill="#685D68"/>
<path d="M60.8678 67.8319C60.765 67.8319 60.6605 67.8169 60.5572 67.7855C60.0004 67.6164 59.688 67.0338 59.8595 66.4841L59.9909 66.0624C60.1622 65.5128 60.7525 65.2043 61.309 65.3735C61.8657 65.5426 62.1781 66.1252 62.0067 66.6749L61.8753 67.0966C61.7357 67.5443 61.3184 67.8319 60.8678 67.8319Z" fill="#685D68"/>
</g>
<g clip-path="url(#clip1)">
<path d="M96.3052 30.2725C95.8265 29.5921 95.2471 28.9622 94.6424 28.3576C94.0377 27.753 93.4078 27.1734 92.7275 26.6946C88.9734 23.6965 84.3627 22 79.5 22C73.7806 22 68.414 24.3012 64.3576 28.3576C60.3013 32.4141 58 37.7806 58 43.5C58 48.3879 59.6965 52.9985 62.6948 56.7527C63.1987 57.4076 63.7529 58.0375 64.3576 58.6424C64.9623 59.2471 65.5922 59.8013 66.2473 60.3052C70.0013 63.3035 74.6121 65 79.5 65C85.2194 65 90.586 62.6988 94.6424 58.6424C98.6988 54.5859 101 49.2193 101 43.5C101 38.6373 99.3035 34.0266 96.3052 30.2725ZM63.123 43.5C63.123 39.116 64.8363 35.0092 67.9102 31.9101C71.0092 28.8363 75.116 27.123 79.5 27.123C83.0274 27.123 86.3782 28.2316 89.1499 30.2725L66.2977 53.1497C64.2316 50.3782 63.123 47.0273 63.123 43.5ZM91.0898 55.0898C87.9908 58.1637 83.884 59.877 79.5 59.877C75.9726 59.877 72.6218 58.7684 69.8501 56.7023L92.7275 33.8502C94.7684 36.6216 95.877 39.9726 95.877 43.5C95.877 47.884 94.1637 51.9908 91.0898 55.0898Z" fill="#FD003A"/>
<path d="M66.249 60.306C70.003 63.3043 74.6139 65.0008 79.5018 65.0008C85.2212 65.0008 90.5878 62.6996 94.6441 58.6432C98.7006 54.5866 101.002 49.22 101.002 43.5008C101.002 38.6381 99.3053 34.0273 96.3069 30.2732C95.8282 29.5929 95.2488 28.963 94.6441 28.3584L64.3594 58.6432C64.964 59.2479 65.5939 59.8021 66.249 60.306ZM92.7293 33.8509C94.7701 36.6224 95.8787 39.9734 95.8787 43.5008C95.8787 47.8848 94.1654 51.9916 91.0915 55.0905C87.9926 58.1645 83.8857 59.8777 79.5018 59.8777C75.9743 59.8777 72.6235 58.7691 69.8519 56.7031L92.7293 33.8509Z" fill="#E50027"/>
</g>
<defs>
<clipPath id="clip0">
<rect x="20" y="28" width="70" height="69" fill="white"/>
</clipPath>
<clipPath id="clip1">
<rect x="58" y="22" width="43" height="43" fill="white"/>
</clipPath>
</defs>
</svg>
