<svg width="120" height="120" viewBox="0 0 120 120" fill="none" xmlns="http://www.w3.org/2000/svg">
<circle cx="60" cy="60" r="60" fill="#FFCEDA"/>
<path d="M57.2445 23.6637L51.2227 56.3538L55.524 57.214C64.6284 50.547 68.5354 23.6637 57.2445 23.6637Z" fill="#80362D"/>
<path d="M57.2427 23.6634C55.7372 22.7494 47.7916 20.4279 41.7579 23.6634C34.3381 27.6422 27.8502 41.8724 38.3168 56.3536C38.3317 56.3741 46.0592 55.4933 46.0592 55.4933L57.2427 23.6634Z" fill="#80362D"/>
<path d="M55.5689 52.3409H55.5221V50.3315H43.4784V52.3388C43.4784 54.3053 43.4702 56.4428 41.7578 57.7357V76.9998H49.5002C49.5002 76.9998 53.5544 76.9998 57.2427 76.9998V57.7057C55.5741 56.4095 55.5689 54.2905 55.5689 52.3409Z" fill="#FFD7A3"/>
<path d="M49.5005 68.3973C47.6506 68.3973 45.9051 68.152 44.3389 67.7261V76.9999H56.3825V67.1584C54.431 67.9372 52.0614 68.3973 49.5005 68.3973Z" fill="#86A0AF"/>
<path d="M56.3835 61.5155C56.6974 61.6011 56.9801 61.6468 57.2437 61.669V57.7062C55.5753 56.41 55.57 54.2909 55.57 52.3413L55.5688 52.2914V50.282L46.0603 50.3319L43.4795 51.1921C45.2001 53.1279 50.4693 59.9025 56.3835 61.5155Z" fill="#FDC88E"/>
<path d="M61.5434 39.148C61.5434 46.0372 54.6919 54.6329 49.4997 54.6329C44.3075 54.6329 37.4561 46.0372 37.4561 39.148C37.4561 32.2589 42.8483 29.6851 49.4997 29.6851C56.1512 29.6851 61.5434 32.2589 61.5434 39.148Z" fill="#FFE1B2"/>
<path d="M51.2221 25.384C50.7388 25.384 49.1695 25.9271 47.8869 26.403L47.7811 26.2443C47.7811 26.2443 47.6041 26.3834 47.2976 26.6244C46.5842 26.8953 46.0606 27.1045 46.0606 27.1045L46.2618 27.4399C42.9967 30.0125 35.547 35.8975 34.8771 36.5675C34.0169 37.4277 40.0387 59.3757 40.0387 46.8907C40.0387 36.46 45.8337 34.3943 51.2221 33.1264C53.6595 32.5529 54.3764 31.1192 54.6631 29.6854C54.95 28.2517 52.0825 25.384 51.2221 25.384Z" fill="#80362D"/>
<path d="M53.8025 30.5458C55.3796 36.2091 58.534 38.772 61.4912 39.5248C63.1116 39.9372 62.4052 34.8471 62.4052 34.8471C62.4052 34.8471 60.1111 28.9686 59.8244 28.8253C59.5377 28.6819 57.2436 23.6637 57.2436 23.6637L52.082 27.9651L53.8025 30.5458Z" fill="#80362D"/>
<path d="M42.7029 56.7048C41.8972 58.0139 40.2546 58.9341 36.8835 58.9341H36.5968C31.3706 58.9341 27.1338 63.1708 27.1338 68.3971V74.4189C27.1338 75.8442 28.2892 76.9997 29.7146 76.9997H47.3672L42.7029 56.7048Z" fill="white"/>
<path d="M56.2991 56.7048C57.1048 58.0139 58.7474 58.9341 62.1185 58.9341H62.4052C67.6314 58.9341 71.8682 63.1708 71.8682 68.3971V74.4189C71.8682 75.8442 70.7128 76.9997 69.2874 76.9997H51.6348L56.2991 56.7048Z" fill="white"/>
<path d="M36.5955 75.2795C38.0208 75.2795 39.1763 74.1241 39.1763 72.6987C39.1763 71.2734 38.0208 70.1179 36.5955 70.1179C35.1701 70.1179 34.0146 71.2734 34.0146 72.6987C34.0146 74.1241 35.1701 75.2795 36.5955 75.2795Z" fill="#D0E2E7"/>
<path d="M65.6378 75.6446L64.5743 74.9137C65.5193 73.5386 66.0615 71.4769 66.0615 69.2572C66.0615 65.4101 64.3872 62.16 62.4054 62.16C60.4236 62.16 58.7493 65.4101 58.7493 69.2572C58.7493 71.4769 59.2913 73.5386 60.2365 74.9137L59.173 75.6446C58.0839 74.0597 57.459 71.7316 57.459 69.2572C57.459 64.5538 59.6316 60.8696 62.4055 60.8696C65.1793 60.8696 67.3521 64.554 67.3521 69.2572C67.3517 71.7316 66.7269 74.0597 65.6378 75.6446Z" fill="#D0E2E7"/>
<path d="M59.8231 76.1399C60.2982 76.1399 60.6833 75.7548 60.6833 75.2797C60.6833 74.8046 60.2982 74.4194 59.8231 74.4194C59.348 74.4194 58.9629 74.8046 58.9629 75.2797C58.9629 75.7548 59.348 76.1399 59.8231 76.1399Z" fill="#86A0AF"/>
<path d="M64.9872 76.1399C65.4623 76.1399 65.8474 75.7548 65.8474 75.2797C65.8474 74.8046 65.4623 74.4194 64.9872 74.4194C64.5121 74.4194 64.127 74.8046 64.127 75.2797C64.127 75.7548 64.5121 76.1399 64.9872 76.1399Z" fill="#86A0AF"/>
<path d="M36.5973 71.6233C36.2409 71.6233 35.9521 71.3345 35.9521 70.9781C35.9521 59.83 41.2212 56.7745 41.4456 56.6499C41.7576 56.4761 42.1499 56.589 42.3228 56.9005C42.4955 57.2109 42.3845 57.6021 42.0754 57.7761C42.0122 57.8128 37.2425 60.6748 37.2425 70.9781C37.2425 71.3345 36.9537 71.6233 36.5973 71.6233Z" fill="#D0E2E7"/>
<path d="M36.5955 74.0609C37.3478 74.0609 37.9576 73.4511 37.9576 72.6988C37.9576 71.9465 37.3478 71.3367 36.5955 71.3367C35.8432 71.3367 35.2334 71.9465 35.2334 72.6988C35.2334 73.4511 35.8432 74.0609 36.5955 74.0609Z" fill="#86A0AF"/>
<path d="M62.4039 62.1608C62.138 62.1608 61.8891 61.995 61.7955 61.73C61.2349 60.1416 60.3224 59.4695 60.3133 59.4633C60.0214 59.2589 59.9504 58.8565 60.1548 58.5646C60.3591 58.2731 60.7608 58.2019 61.0534 58.406C61.1043 58.4417 62.3065 59.3005 63.0123 61.3008C63.1311 61.6367 62.9546 62.0052 62.6186 62.1239C62.5475 62.1488 62.475 62.1608 62.4039 62.1608Z" fill="#D0E2E7"/>
<path d="M60.2633 39.2268C61.6709 38.9042 62.5931 39.5935 62.5931 40.9474C62.5931 42.7396 60.7002 47.1306 58.7102 44.3884C56.7201 41.6463 60.2633 39.2268 60.2633 39.2268Z" fill="#FFE1B2"/>
<path d="M92.2477 52.4565H57.8633V97.073H92.2477V52.4565Z" fill="#86A0AF"/>
<path d="M59.0996 54.0001H89.9637L91.01 95.7306H60.1458L59.0996 54.0001Z" fill="#DCE3DB"/>
<path d="M89.9638 54.0001H59.6152V94.7048H89.9638V54.0001Z" fill="white"/>
<path d="M71.0737 51.3718H79.3852C79.9836 51.3718 80.4736 51.8615 80.4736 52.4602V56.0327H69.9854V52.4602C69.9852 51.8618 70.475 51.3718 71.0737 51.3718Z" fill="#666666"/>
<path d="M69.7589 55.7631H80.6962C80.9278 55.7631 81.1153 55.9507 81.1153 56.182C81.1153 56.4134 80.9277 56.601 80.6962 56.601H69.7589C69.5274 56.601 69.3398 56.4133 69.3398 56.182C69.3397 55.9506 69.5275 55.7631 69.7589 55.7631Z" fill="#B0B0B0"/>
<path d="M74.134 50.287L73.2493 55.7624H72.7939L73.6762 50.3008C73.4254 49.9527 73.2977 49.5357 73.2977 49.1263C73.2977 48.864 73.3501 48.6034 73.4555 48.3652C73.5623 48.1243 73.7234 47.9065 73.9397 47.7319C74.628 47.1763 75.8219 47.1757 76.5105 47.7316C76.7275 47.9068 76.8892 48.1255 76.9963 48.3668C77.1023 48.6061 77.1549 48.8674 77.1549 49.1309C77.1549 49.5388 77.0284 49.9544 76.7785 50.3009L77.6607 55.7627H77.2053L76.3206 50.2874C76.3073 50.2178 76.3278 50.1498 76.3704 50.0999C76.5941 49.8201 76.7072 49.4728 76.7072 49.1309C76.7072 48.928 76.6675 48.7284 76.587 48.5471C76.5078 48.3685 76.3892 48.2077 76.2306 48.0799C75.7072 47.6575 74.7428 47.6583 74.2196 48.0802C74.0616 48.2076 73.9437 48.3679 73.8648 48.5455C73.7847 48.7257 73.7455 48.9248 73.7455 49.1264C73.7455 49.4719 73.8613 49.8235 74.0885 50.1052C74.1313 50.1584 74.1457 50.225 74.134 50.287Z" fill="#FEFEFE"/>
<path d="M71.5566 65.9468H87.3777V66.3468H71.5566V65.9468ZM71.5566 69.806H81.4263V70.2061H71.5566V69.806ZM71.5566 67.8765H87.3777V68.2765H71.5566V67.8765Z" fill="#86A0AF"/>
<path d="M71.5557 76.2003H87.3768V76.6004H71.5557V76.2003ZM71.5557 80.0595H81.4253V80.4595H71.5557V80.0595ZM71.5557 78.1299H87.3768V78.53H71.5557V78.1299Z" fill="#86A0AF"/>
<path d="M71.5557 86.4534H87.3768V86.8534H71.5557V86.4534ZM71.5557 90.3125H81.4253V90.7126H71.5557V90.3125ZM71.5557 88.383H87.3768V88.783H71.5557V88.383Z" fill="#86A0AF"/>
<path d="M64.6528 65.0991C65.475 65.0991 66.2193 65.4324 66.7579 65.9711L66.7576 65.9714C67.2965 66.5107 67.6301 67.255 67.6301 68.0762C67.6301 68.8983 67.2968 69.6426 66.7581 70.1812C66.2195 70.7199 65.4752 71.0532 64.653 71.0532C63.8317 71.0532 63.0874 70.7197 62.5483 70.1807L62.5478 70.1812C62.0091 69.6426 61.6758 68.898 61.6758 68.0762C61.6758 67.2552 62.009 66.5109 62.5478 65.9719L62.5483 65.9714L62.5488 65.9711C63.0877 65.4325 63.832 65.0991 64.653 65.0991H64.6528ZM66.4439 66.2852C65.9854 65.8268 65.3522 65.5434 64.6529 65.5434C63.9529 65.5434 63.3196 65.8266 62.862 66.2844L62.8609 66.2853C62.4033 66.7431 62.1198 67.3761 62.1198 68.0762C62.1198 68.7754 62.4036 69.4087 62.8619 69.8671V69.8683C63.3195 70.3258 63.9529 70.6093 64.6528 70.6093C65.3521 70.6093 65.9853 70.3255 66.4438 69.8672C66.9021 69.4088 67.1855 68.7755 67.1855 68.0763C67.1855 67.3762 66.9023 66.7432 66.4445 66.2854H66.4439V66.2852Z" fill="#B1E4F9"/>
<path d="M64.6528 75.3527C65.475 75.3527 66.2193 75.6857 66.7579 76.2246L66.7576 76.225C67.2965 76.7642 67.6301 77.5085 67.6301 78.3297C67.6301 79.1519 67.2968 79.8962 66.7581 80.4348C66.2195 80.9734 65.4752 81.3068 64.653 81.3068C63.8317 81.3068 63.0874 80.9732 62.5483 80.4343L62.5478 80.4348C62.0091 79.8962 61.6758 79.1516 61.6758 78.3297C61.6758 77.5087 62.009 76.7644 62.5478 76.2255L62.5483 76.225L62.5488 76.2246C63.0877 75.686 63.832 75.3527 64.653 75.3527H64.6528ZM66.4439 76.5388C65.9854 76.0805 65.3522 75.797 64.6529 75.797C63.9529 75.797 63.3196 76.0803 62.862 76.5381L62.8609 76.5389C62.4033 76.9968 62.1198 77.6297 62.1198 78.3298C62.1198 79.0291 62.4036 79.6623 62.8619 80.1207V80.1216C63.3195 80.5791 63.9529 80.8626 64.6528 80.8626C65.3521 80.8626 65.9853 80.5788 66.4438 80.1208C66.9021 79.6625 67.1855 79.0292 67.1855 78.3299C67.1855 77.6299 66.9023 76.9969 66.4445 76.539H66.4439V76.5388Z" fill="#B1E4F9"/>
<path d="M64.6528 85.6057C65.475 85.6057 66.2193 85.9388 66.7579 86.4777L66.7576 86.4782C67.2965 87.0172 67.6301 87.7614 67.6301 88.5828C67.6301 89.4049 67.2968 90.1492 66.7581 90.6878C66.2195 91.2265 65.4752 91.5598 64.653 91.5598C63.8317 91.5598 63.0874 91.2262 62.5483 90.6873L62.5478 90.6878C62.0091 90.1492 61.6758 89.4049 61.6758 88.5828C61.6758 87.7618 62.009 87.0175 62.5478 86.4785L62.5483 86.4782L62.5488 86.4777C63.0877 85.9391 63.832 85.6057 64.653 85.6057H64.6528ZM66.4439 86.7917C65.9854 86.3334 65.3522 86.05 64.6529 86.05C63.9529 86.05 63.3196 86.3332 62.862 86.791L62.8609 86.7919C62.4033 87.2497 62.1198 87.8828 62.1198 88.5828C62.1198 89.282 62.4036 89.9153 62.8619 90.3737V90.3745C63.3195 90.8324 63.9529 91.1155 64.6528 91.1155C65.3521 91.1155 65.9853 90.8318 66.4438 90.3738C66.9021 89.9155 67.1855 89.2821 67.1855 88.5829C67.1855 87.8828 66.9023 87.2498 66.4445 86.792H66.4439V86.7917Z" fill="#B1E4F9"/>
<path d="M63.0452 68.3862C62.9359 68.3026 62.9148 68.1461 62.9985 68.0368C63.0821 67.9274 63.2388 67.9063 63.3481 67.99L64.2082 68.6491L65.5739 66.7995C65.6558 66.6888 65.812 66.6658 65.9227 66.7478C66.0332 66.8297 66.0564 66.9862 65.9742 67.0966L64.4628 69.1441L64.4562 69.1529C64.3726 69.2623 64.2159 69.2834 64.1065 69.1997L63.0454 68.3865C63.0452 68.3865 63.0452 68.3862 63.0452 68.3862Z" fill="#FF003D"/>
<path d="M63.2152 78.7419C63.1058 78.6583 63.0847 78.5016 63.1684 78.3923C63.252 78.283 63.4087 78.2619 63.518 78.3456L64.3781 79.0047L65.7438 77.1548C65.8257 77.0443 65.9819 77.0211 66.0926 77.1033C66.2031 77.1852 66.2263 77.3417 66.1441 77.4521L64.6327 79.4995L64.6261 79.5084C64.5425 79.6177 64.3858 79.6388 64.2765 79.5551L63.2152 78.7419Z" fill="#FF003D"/>
<path d="M63.2152 88.9952C63.1058 88.9116 63.0847 88.7551 63.1684 88.6459C63.252 88.5365 63.4087 88.5154 63.518 88.5991L64.3781 89.2582L65.7438 87.4083C65.8257 87.2978 65.9819 87.2746 66.0926 87.3568C66.2031 87.4387 66.2263 87.5952 66.1441 87.7056L64.6327 89.7531L64.6261 89.7619C64.5425 89.8712 64.3858 89.8924 64.2765 89.8087L63.2153 88.9955V88.9952H63.2152Z" fill="#FF003D"/>
<path d="M98.1402 56.3013H95.5195V69.3296H98.1402V56.3013Z" fill="#86A0AF"/>
<path d="M95.5205 69.3286H98.1415L97.3232 71.9142H96.3389L95.5206 69.3286H95.5205Z" fill="#FF0000"/>
<path d="M96.1375 47.7309H97.5206C97.9187 47.7309 98.2445 48.0567 98.2445 48.4549V56.2634C98.2445 56.2842 98.2279 56.3005 98.2075 56.3005H95.4511C95.4306 56.3005 95.4141 56.2838 95.4141 56.2634V48.4548C95.4141 48.0567 95.7398 47.7308 96.138 47.7308C96.1379 47.7309 96.1375 47.7309 96.1375 47.7309Z" fill="#FF0000"/>
<path d="M98.2453 48.456V56.2664C98.2441 56.2855 98.2293 56.3007 98.2102 56.3016H98.2083H97.875V47.8248C98.0955 47.9491 98.2453 48.1861 98.2453 48.456Z" fill="#ED4C54"/>
<path d="M96.5781 71.9143H97.0817V73.1184C97.0817 73.257 96.9685 73.37 96.8301 73.37H96.8298C96.6915 73.37 96.5782 73.257 96.5782 73.1184V71.9143H96.5781Z" fill="#EEF3F7"/>
<path d="M95.4141 48.4973H98.8162H98.9997V48.6904V56.8923V56.9674L98.9504 57.0236L98.6269 57.3912C98.4716 57.5292 98.2067 57.3178 98.3589 57.1285L98.633 56.8171V48.8837H95.4141V48.4969V48.4973Z" fill="#FAD24D"/>
<path d="M98.1404 56.3013H97.8154V69.3296H98.1404V56.3013Z" fill="#86A0AF"/>
<path d="M66.5468 61.5641C66.4045 61.5641 66.2891 61.4487 66.2891 61.3064C66.2891 61.1642 66.4045 61.0487 66.5468 61.0487H70.8006L71.7552 58.7352C71.8091 58.6039 71.9592 58.5415 72.0905 58.5952C72.1578 58.6228 72.207 58.6759 72.2319 58.7385L72.2327 58.7382L73.6486 62.3128L74.8535 60.2722C74.9258 60.1501 75.0836 60.1097 75.2059 60.1818C75.2446 60.2048 75.2748 60.236 75.2963 60.2722L75.9949 61.3435L77.0077 60.2661C77.1047 60.1629 77.2678 60.1578 77.3713 60.255C77.391 60.2736 77.4067 60.2943 77.4194 60.3165L77.8299 61.0491H83.3466C83.4889 61.0491 83.6043 61.1646 83.6043 61.3068C83.6043 61.4491 83.4889 61.5645 83.3466 61.5645H77.6797V61.564C77.5894 61.564 77.5022 61.5167 77.4552 61.4325L77.1422 60.8739L76.1457 61.9335L76.1454 61.9331C76.1316 61.9476 76.1158 61.9613 76.0983 61.9724C75.9796 62.0496 75.8201 62.0156 75.7429 61.8968L75.086 60.8894L73.8315 63.0139C73.8038 63.0676 73.7575 63.1116 73.6972 63.1354C73.5649 63.1874 73.4152 63.1223 73.3628 62.9904L71.9877 59.5184L71.2173 61.3851C71.1839 61.4883 71.0869 61.5635 70.9724 61.5635H66.5469L66.5468 61.5641Z" fill="#FF0000"/>
</svg>
