<svg width="120" height="120" viewBox="0 0 120 120" fill="none" xmlns="http://www.w3.org/2000/svg">
<circle cx="60" cy="60" r="60" fill="#FFCEDA"/>
<path d="M31.5527 31.5107H89.4493V71.566H31.5527V31.5107Z" fill="white"/>
<path d="M39.1055 50.2871H81.8986V52.7906H39.1055V50.2871Z" fill="#D0E2E7"/>
<path d="M44.1367 55.292H76.8609V57.7954H44.1367V55.292Z" fill="#D0E2E7"/>
<path d="M65.5332 61.5518H73.0849V64.0552H65.5332V61.5518Z" fill="#D0E2E7"/>
<path d="M47.9141 61.5518H54.2072V64.0552H47.9141V61.5518Z" fill="#D0E2E7"/>
<path d="M59.2427 35.2656V39.0208H55.4668V41.5243H59.2427V45.2794H61.7599V41.5243H65.5358V39.0208H61.7599V35.2656H59.2427Z" fill="#FF0000"/>
<path d="M24 79.0759L31.5517 71.5656V31.5104L24 24V79.0759Z" fill="#B1E4F9"/>
<path d="M31.5517 31.5104H89.4483L97 24H24L31.5517 31.5104Z" fill="#90D8F9"/>
<path d="M31.5517 71.5654H89.4483L97 79.0758H24L31.5517 71.5654Z" fill="#90D8F9"/>
<path d="M89.4473 71.5656L96.999 79.0759V24L89.4473 31.5104V71.5656Z" fill="#B1E4F9"/>
<path d="M51.061 91.5831L51.9798 95.0003L59.6511 81.7808C58.4114 82.2565 56.9904 83.4281 56.0943 82.9073C55.1729 82.3779 55.4763 80.5691 55.2913 79.2773L47.625 92.4968L51.061 91.5831Z" fill="#DC0135"/>
<path d="M64.9084 82.9085C64.0123 83.4242 62.5913 82.2538 61.3516 81.7819L69.0291 95.0001L69.9479 91.5829L73.384 92.4967L65.7127 79.2822C65.5277 80.5677 65.8297 82.379 64.9084 82.9085Z" fill="#DC0135"/>
<path d="M69.3101 75.3204C69.3101 76.6848 66.5915 77.3482 65.9496 78.4498C65.8221 78.7136 65.7413 78.9973 65.7105 79.2884C65.5217 80.5652 65.8238 82.3802 64.905 82.9059C64.0113 83.4191 62.5891 82.255 61.3557 81.7793C61.0898 81.6476 60.7968 81.5791 60.4998 81.5791C60.2028 81.5791 59.9098 81.6476 59.6439 81.7793C58.4105 82.255 56.9882 83.4191 56.0946 82.9059C55.1758 82.3802 55.4779 80.5652 55.2891 79.2884C55.2583 78.9973 55.1775 78.7136 55.05 78.4498C54.4081 77.3482 51.6895 76.6848 51.6895 75.3204C51.6895 73.9561 54.4081 73.2926 55.05 72.1911C55.717 71.0521 54.9493 68.3859 56.0946 67.735C57.2022 67.0966 59.1279 69.0618 60.4998 69.0618C61.8717 69.0618 63.7974 67.0966 64.905 67.735C66.0503 68.3859 65.2826 71.0521 65.9496 72.1911C66.5915 73.2926 69.3101 73.9561 69.3101 75.3204Z" fill="#FF003D"/>
<path d="M60.5005 79.0758C62.5858 79.0758 64.2763 77.3945 64.2763 75.3206C64.2763 73.2467 62.5858 71.5654 60.5005 71.5654C58.4151 71.5654 56.7246 73.2467 56.7246 75.3206C56.7246 77.3945 58.4151 79.0758 60.5005 79.0758Z" fill="#FFCD00"/>
</svg>
