<svg width="120" height="120" viewBox="0 0 120 120" fill="none" xmlns="http://www.w3.org/2000/svg">
<circle cx="60" cy="60" r="60" fill="#FFCEDA"/>
<path d="M68.9062 44.5156L62.8638 48.3995L52.9375 54.7812L49.5156 51.3594V65.0469H30.125L26.7031 54.7812V37.6719L34.6875 34.25H46.0938L54.0781 36.5312V46.7969L60.9219 44.5156L62.0625 41.0938L64.3438 42.2344L66.625 41.0938L68.9062 44.5156Z" fill="white"/>
<path d="M39.25 39.9531H41.5312V65.0469H39.25V39.9531Z" fill="#D0E2E7"/>
<path d="M46.0938 34.25L40.3906 43.375L34.6875 34.25L36.9688 33.1094H43.8125L46.0938 34.25Z" fill="#90D8F9"/>
<path d="M36.9688 33.1094L34.6875 34.25L37.815 39.2541L40.3906 35.3906L36.9688 33.1094Z" fill="#B1E4F9"/>
<path d="M43.8125 33.1094L46.0938 34.25L42.9663 39.2541L40.3906 35.3906L43.8125 33.1094Z" fill="#B1E4F9"/>
<path d="M37.0101 65.0469H34.6462L31.3056 52.7994C31.2787 52.7019 31.2653 52.6012 31.2656 52.5V49.0781H33.5469V52.3474L37.0101 65.0469Z" fill="#D0E2E7"/>
<path d="M47.2344 45.6562C48.4943 45.6562 49.5156 44.6349 49.5156 43.375C49.5156 42.1151 48.4943 41.0938 47.2344 41.0938C45.9745 41.0938 44.9531 42.1151 44.9531 43.375C44.9531 44.6349 45.9745 45.6562 47.2344 45.6562Z" fill="#4F5761"/>
<path d="M34.6875 41.0938H32.4062V35.3906C32.4073 34.4834 32.7681 33.6136 33.4096 32.9721C34.0511 32.3306 34.9209 31.9698 35.8281 31.9688H36.9688V33.1094L34.6875 34.25V41.0938Z" fill="#FF003D"/>
<path d="M48.375 43.375H46.0938V34.25L43.8125 33.1094V31.9688H44.9531C45.8607 31.9688 46.731 32.3293 47.3728 32.971C48.0145 33.6127 48.375 34.4831 48.375 35.3906V43.375Z" fill="#FF003D"/>
<path d="M36.9688 46.7969H34.6875V43.375C34.6875 43.0725 34.5673 42.7824 34.3534 42.5685C34.1395 42.3545 33.8494 42.2344 33.5469 42.2344C33.2444 42.2344 32.9542 42.3545 32.7403 42.5685C32.5264 42.7824 32.4062 43.0725 32.4062 43.375V46.7969H30.125V43.375C30.125 42.4675 30.4855 41.5971 31.1272 40.9554C31.769 40.3136 32.6393 39.9531 33.5469 39.9531C34.4544 39.9531 35.3248 40.3136 35.9665 40.9554C36.6082 41.5971 36.9688 42.4675 36.9688 43.375V46.7969Z" fill="#E04446"/>
<path d="M68.9062 44.5156L62.8638 48.3995L60.9219 44.5156L62.0625 41.0938L64.3438 42.2344L66.625 41.0938L68.9062 44.5156Z" fill="#FFEED6"/>
<path d="M51.7969 47.9375V53.6406L49.5156 51.3594V47.9375H51.7969Z" fill="#D0E2E7"/>
<path d="M48.375 28.5469L47.2344 29.6875L46.0938 31.9688H43.8125V33.1094L42.5607 33.9435L40.3906 35.3906L36.9688 33.1094V22.8438H46.0938L47.2344 26.2656L48.375 28.5469Z" fill="#FFEED6"/>
<path d="M44.9531 23.9844H42.6719L39.25 29.6875H36.9688V19.4219H49.5156C49.5156 20.6319 49.0349 21.7924 48.1793 22.648C47.3237 23.5037 46.1632 23.9844 44.9531 23.9844Z" fill="#BA8B5D"/>
<path d="M43.8137 31.9687V33.1094L42.5619 33.9435L41.0605 32.4407L42.6731 30.8281L43.8137 31.9687Z" fill="#FC979E"/>
<path d="M47.2344 44.5156C47.8643 44.5156 48.375 44.0049 48.375 43.375C48.375 42.7451 47.8643 42.2344 47.2344 42.2344C46.6044 42.2344 46.0938 42.7451 46.0938 43.375C46.0938 44.0049 46.6044 44.5156 47.2344 44.5156Z" fill="#68737F"/>
<path d="M30.125 43.375H32.4062V46.7969H30.125V43.375Z" fill="#86A0AF"/>
<path d="M34.6875 43.375H36.9688V46.7969H34.6875V43.375Z" fill="#86A0AF"/>
<path d="M28.9844 81.0156H86.0156V85.5781H28.9844V81.0156Z" fill="#44697E"/>
<path d="M28.9844 74.1719H71.1875L85.2962 45.9544C85.5124 45.5221 85.8447 45.1585 86.2559 44.9043C86.667 44.6502 87.1409 44.5156 87.6242 44.5156C88.0623 44.5156 88.4933 44.6262 88.8772 44.8371C89.2612 45.048 89.5857 45.3524 89.8207 45.7221C90.0557 46.0918 90.1936 46.5149 90.2216 46.952C90.2496 47.3892 90.1668 47.8264 89.9809 48.2231L74.6094 81.0156H28.9844V74.1719Z" fill="white"/>
<path d="M26.7031 62.7656C27.3082 62.7656 27.8884 63.006 28.3162 63.4338C28.744 63.8616 28.9844 64.4418 28.9844 65.0469V85.5781H24.4219V65.0469C24.4219 64.4418 24.6622 63.8616 25.09 63.4338C25.5179 63.006 26.0981 62.7656 26.7031 62.7656Z" fill="#BA8B5D"/>
<path d="M90.5781 85.5784H86.0156V57.1907C86.0156 56.8561 86.0892 56.5255 86.2313 56.2225V56.2225C87.2663 54.0143 90.5781 54.752 90.5781 57.1907V85.5784Z" fill="#BA8B5D"/>
<path d="M28.9844 65.0469H56.3594V74.1719H28.9844V65.0469Z" fill="#529DDF"/>
<path d="M56.3594 61.625H63.2031V74.1719H56.3594V61.625Z" fill="#B1E4F9"/>
<path d="M83.4492 49.6482L71.1875 74.1717H63.2031V61.6248L66.625 57.0623H71.1875L73.4688 55.9217L72.3281 53.6404V51.3592L71.1875 49.0779L75.75 47.9373L77.8787 45.8086L83.4492 49.6482Z" fill="#7AB355"/>
<path d="M56.3594 70.0127V74.1717H55.2188V73.0311C55.2169 71.9193 55.6227 70.8454 56.3594 70.0127Z" fill="#4384C3"/>
<path d="M76.8308 62.7054C76.7669 62.9539 76.6765 63.1948 76.5613 63.424L71.1875 74.1715H63.2031V68.4684H65.617L70.1638 60.0905C70.4005 59.6537 70.7249 59.2705 71.1168 58.965C71.5086 58.6595 71.9594 58.4384 72.4408 58.3154L76.8308 62.7054Z" fill="#699949"/>
<path d="M63.2031 68.4688V74.1719H56.3594V70.0129C56.7873 69.5272 57.3138 69.1382 57.9039 68.872C58.4939 68.6057 59.1339 68.4683 59.7812 68.4688H63.2031Z" fill="#C1D7E6"/>
<path d="M83.4492 49.6482L76.8906 62.7654L76.8307 62.7055L72.4408 58.3156L71.1875 57.0623L73.4688 55.9217L72.3281 53.6404V51.3592L71.1875 49.0779L75.75 47.9373L77.8787 45.8086L83.4492 49.6482Z" fill="#FFEED6"/>
<path d="M76.4386 63.6696L74.1702 68.205L71.1875 74.1719H56.3594C56.3592 73.5727 56.4771 72.9794 56.7063 72.4258C56.9356 71.8721 57.2716 71.3691 57.6953 70.9454C58.119 70.5217 58.6221 70.1856 59.1757 69.9564C59.7293 69.7272 60.3227 69.6093 60.9219 69.6094H66.625L68.9704 65.0854L71.1119 60.9564C71.4752 60.2561 72.1006 59.7278 72.8517 59.4868C73.6029 59.2457 74.4189 59.3113 75.1219 59.6694C75.8248 60.0274 76.3577 60.6489 76.6044 61.3982C76.8511 62.1476 76.7915 62.964 76.4387 63.6696H76.4386Z" fill="#FFEED6"/>
<path d="M76.439 63.6696L74.1705 68.205L68.9707 65.0854L71.1122 60.9564C71.4755 60.2561 72.1009 59.7278 72.852 59.4868C73.6032 59.2457 74.4192 59.3113 75.1222 59.6694C75.8251 60.0274 76.358 60.6489 76.6047 61.3982C76.8513 62.1476 76.7918 62.964 76.4389 63.6696H76.439Z" fill="#7AB355"/>
<path d="M80.3123 55.9214L79.1716 46.7964L77.9131 45.8351C77.0275 45.1587 76.4326 44.1705 76.2492 43.0713C76.0659 41.972 76.3079 40.8442 76.926 39.917L85.296 45.9539L80.3123 55.9214Z" fill="#BA8B5D"/>
<path d="M92.9768 73.0273H78.3474C78.3474 75.421 76.3424 77.3614 73.8691 77.3614V87.6627C73.8691 91.4745 75.519 95.112 78.4181 97.6922L82.6466 101.455C84.3514 102.973 86.973 102.973 88.6777 101.455L92.9063 97.6922C95.8054 95.112 97.4552 91.4745 97.4552 87.6627V77.3615C94.9818 77.3615 92.9768 75.421 92.9768 73.0273Z" fill="#B1E4F9"/>
<path d="M92.978 73.0273H85.668V102.593C86.748 102.592 87.8276 102.213 88.6788 101.456L92.9074 97.6923C95.8065 95.1121 97.4563 91.4746 97.4563 87.6628V77.3615C94.983 77.3615 92.978 75.421 92.978 73.0273Z" fill="#90D8F9"/>
<path d="M85.6649 103.999C84.1797 103.999 82.7597 103.463 81.6666 102.491L77.438 98.7273C74.249 95.8891 72.4199 91.8565 72.4199 87.6636V75.9572H73.8718C75.5405 75.9572 76.8982 74.6432 76.8982 73.0281V71.623H94.4313V73.0281C94.4313 74.6432 95.7889 75.9572 97.4578 75.9572H98.9096V87.6636C98.9096 91.8565 97.0807 95.8891 93.8915 98.7273L89.663 102.491C88.57 103.463 87.15 103.999 85.6649 103.999ZM75.3238 78.5934V87.6636C75.3238 91.0727 76.8108 94.3513 79.4036 96.6588L83.6322 100.422C84.7721 101.437 86.5578 101.437 87.6977 100.422L91.9263 96.6588C94.5191 94.3513 96.0061 91.0727 96.0061 87.6636V78.5934C93.9006 78.0787 92.2395 76.471 91.7077 74.4333H79.6223C79.0904 76.471 77.4293 78.0786 75.3238 78.5934Z" fill="#86A0AF"/>
<path d="M97.4564 75.9572C95.7877 75.9572 94.43 74.6432 94.43 73.0281V71.623H85.6681V74.4332H91.706C92.2379 76.4709 93.899 78.0786 96.0045 78.5933V87.6635C96.0045 91.0726 94.5175 94.3512 91.9247 96.6588L87.6961 100.422C87.1274 100.928 86.3979 101.182 85.668 101.183V103.999C87.1514 103.998 88.5695 103.462 89.6615 102.491L93.8901 98.7273C97.0791 95.8891 98.9082 91.8566 98.9082 87.6636V75.9572H97.4564Z" fill="#86A0AF"/>
<path d="M83.9539 91.6863L79.5254 87.4004L81.5786 85.4133L83.9539 87.7121L89.7371 82.1152L91.7903 84.1023L83.9539 91.6863Z" fill="white"/>
<path d="M89.7425 82.1152L85.668 86.0586V90.0327L91.7957 84.1023L89.7425 82.1152Z" fill="#E9EDF5"/>
</svg>
