<svg width="120" height="120" viewBox="0 0 120 120" fill="none" xmlns="http://www.w3.org/2000/svg">
<circle cx="60" cy="60" r="60" fill="#FFCEDA"/>
<path d="M70.8653 62.9402H17.1266C16.5044 62.9402 16 62.4569 16 61.8609V59.4512H71.9919V61.8609C71.9919 62.4569 71.4875 62.9402 70.8653 62.9402Z" fill="#7A96A8"/>
<path d="M64.8218 45.201L61.7106 31.0925C61.6006 30.5934 61.1408 30.2363 60.6084 30.2363H17.1266C16.5044 30.2363 16 30.7195 16 31.3157V59.457H71.9919V49.6667C71.9919 49.2528 71.7449 48.8753 71.356 48.6951L65.4333 45.9495C65.1197 45.8041 64.8938 45.5277 64.8218 45.201Z" fill="white"/>
<path d="M52.1875 44.634V34.7991C52.1875 34.2029 52.6919 33.7197 53.3141 33.7197H57.5475C58.0735 33.7197 58.5296 34.0684 58.6461 34.5599L60.9792 44.3948C61.1394 45.0702 60.6036 45.7134 59.8806 45.7134H53.3142C52.6919 45.7134 52.1875 45.2301 52.1875 44.634Z" fill="#B1E4F9"/>
<path d="M57.5423 33.7197H56.2793L59.1244 45.7133H59.8754C60.5983 45.7133 61.1342 45.0702 60.974 44.3947L58.6409 34.5598C58.5243 34.0684 58.0683 33.7197 57.5423 33.7197Z" fill="#90D8F9"/>
<path d="M41.7188 44.634V34.7991C41.7188 34.2029 42.2231 33.7197 42.8454 33.7197H47.4204C48.0427 33.7197 48.547 34.2029 48.547 34.7991V44.634C48.547 45.2301 48.0427 45.7134 47.4204 45.7134H42.8454C42.2231 45.7134 41.7188 45.2301 41.7188 44.634Z" fill="#B1E4F9"/>
<path d="M60.7248 67.7421C64.4959 67.7421 67.553 64.8132 67.553 61.2002C67.553 57.5871 64.4959 54.6582 60.7248 54.6582C56.9536 54.6582 53.8965 57.5871 53.8965 61.2002C53.8965 64.8132 56.9536 67.7421 60.7248 67.7421Z" fill="#44697E"/>
<path d="M60.7237 63.0528C61.7922 63.0528 62.6584 62.2229 62.6584 61.1993C62.6584 60.1756 61.7922 59.3457 60.7237 59.3457C59.6552 59.3457 58.7891 60.1756 58.7891 61.1993C58.7891 62.2229 59.6552 63.0528 60.7237 63.0528Z" fill="#D0E2E7"/>
<path d="M27.256 67.7421C31.0272 67.7421 34.0843 64.8132 34.0843 61.2002C34.0843 57.5871 31.0272 54.6582 27.256 54.6582C23.4849 54.6582 20.4277 57.5871 20.4277 61.2002C20.4277 64.8132 23.4849 67.7421 27.256 67.7421Z" fill="#44697E"/>
<path d="M27.2667 63.0528C28.3352 63.0528 29.2014 62.2229 29.2014 61.1993C29.2014 60.1756 28.3352 59.3457 27.2667 59.3457C26.1982 59.3457 25.332 60.1756 25.332 61.1993C25.332 62.2229 26.1982 63.0528 27.2667 63.0528Z" fill="#D0E2E7"/>
<path d="M35.7038 39.2804H31.2517C30.8783 39.2804 30.5757 38.9905 30.5757 38.6328V34.3673C30.5757 34.0096 30.2731 33.7197 29.8998 33.7197H27.3823C27.009 33.7197 26.7064 34.0096 26.7064 34.3673V38.6328C26.7064 38.9905 26.4038 39.2804 26.0304 39.2804H21.5783C21.2049 39.2804 20.9023 39.5703 20.9023 39.928V42.3399C20.9023 42.6976 21.2049 42.9875 21.5783 42.9875H26.0304C26.4038 42.9875 26.7064 43.2774 26.7064 43.6351V47.9005C26.7064 48.2582 27.009 48.5481 27.3823 48.5481H29.8998C30.2731 48.5481 30.5757 48.2582 30.5757 47.9005V43.6351C30.5757 43.2774 30.8783 42.9875 31.2517 42.9875H35.7038C36.0771 42.9875 36.3797 42.6976 36.3797 42.3399V39.928C36.3797 39.5703 36.0771 39.2804 35.7038 39.2804Z" fill="#FF0000"/>
<path d="M47.4104 30.2335H40.582L41.5332 25.8592C41.642 25.3587 42.1026 25 42.6361 25H45.3561C45.8898 25 46.3502 25.3587 46.459 25.8592L47.4104 30.2335Z" fill="#FF0000"/>
<path d="M55.3085 50.0174H53.0324C52.5657 50.0174 52.1875 49.655 52.1875 49.2079C52.1875 48.7608 52.5658 48.3984 53.0324 48.3984H55.3085C55.7752 48.3984 56.1534 48.7608 56.1534 49.2079C56.1534 49.655 55.7752 50.0174 55.3085 50.0174Z" fill="#D0E2E7"/>
<path d="M71.9999 52.6297H69.7238C69.2571 52.6297 68.8789 52.2673 68.8789 51.8202C68.8789 51.3732 69.2572 51.0107 69.7238 51.0107H71.9999V52.6297Z" fill="#86A0AF"/>
<path d="M71.9999 56.1209H69.7238C69.2571 56.1209 68.8789 55.7585 68.8789 55.3114C68.8789 54.8644 69.2572 54.502 69.7238 54.502H71.9999V56.1209Z" fill="#86A0AF"/>
<path d="M42.5637 56.9955C42.0969 56.9955 41.7188 56.6331 41.7188 56.186V49.2079C41.7188 48.7609 42.097 48.3984 42.5637 48.3984C43.0303 48.3984 43.4086 48.7609 43.4086 49.2079V56.186C43.4087 56.633 43.0304 56.9955 42.5637 56.9955Z" fill="#D0E2E7"/>
<path d="M51.7966 61.876H70.4609V89.9801H45.916V67.6474C45.916 66.1167 46.5356 64.6487 47.6384 63.5664C48.7412 62.484 50.2369 61.876 51.7966 61.876Z" fill="#DBDBDB"/>
<path d="M97.2773 77.2645L89.9357 63.3997C89.6502 62.8606 89.2263 62.41 88.7092 62.096C88.1921 61.782 87.6009 61.6162 86.9985 61.6162H51.7879C50.2228 61.6162 48.7218 62.2482 47.6151 63.3731C46.5085 64.4981 45.8867 66.0238 45.8867 67.6147V90.8263H105.412V80.9763C105.412 80.5118 105.259 80.0606 104.979 79.6941C104.698 79.3277 104.305 79.067 103.862 78.9533L97.2773 77.2645Z" fill="white"/>
<path d="M97.1193 76.929H84.7715V67.8955H92.1643L97.1193 76.929Z" fill="#DBDBDB"/>
<path d="M69.7637 62.1162H85.7709V90.3263H69.7637V62.1162Z" fill="white" stroke="#CBCBCB"/>
<path d="M69.7637 62.1162H85.7709V77.8077H69.7637V62.1162Z" fill="white" stroke="#CBCBCB"/>
<path d="M62.2656 71.9108H60.2202V69.9033H56.1294V71.9108H54.084V75.9256H56.1294V77.9331H60.2202V75.9256H62.2656V71.9108Z" fill="#FF0000"/>
<path d="M79.6565 65.8926H75.5657C75.0008 65.8926 74.543 66.342 74.543 66.8963V72.9186C74.543 73.4729 75.0008 73.9223 75.5657 73.9223H79.6565C80.2213 73.9223 80.6792 73.4729 80.6792 72.9186V66.8963C80.6792 66.342 80.2213 65.8926 79.6565 65.8926Z" fill="#C1E3F7"/>
<path d="M78.6338 65.8926H75.5657C75.0008 65.8926 74.543 66.342 74.543 66.8963V72.9186C74.543 73.4729 75.0008 73.9223 75.5657 73.9223H78.6338C79.1986 73.9223 79.6565 73.4729 79.6565 72.9186V66.8963C79.6565 66.342 79.1986 65.8926 78.6338 65.8926Z" fill="#B1E4F9"/>
<path d="M96.901 78.3101H86.2715V67.8779H91.5862L96.901 78.3101Z" fill="#B1E4F9"/>
<path d="M88.8574 79.9424H92.9482V81.9498H88.8574V79.9424Z" fill="#CBCBCB"/>
<path d="M105.408 90.8233H96.9043L99.7388 86.6504H105.408V90.8233Z" fill="#CBCBCB"/>
<path d="M102.162 80.9443H105.23V82.9518H102.162V80.9443Z" fill="#F7BA61"/>
<path d="M45.8867 82.4834H69.2716V86.6563H45.8867V82.4834Z" fill="#E00000"/>
<path d="M73.5234 57.4453H82.027V61.6182H73.5234V57.4453Z" fill="#F7BA61"/>
<path d="M77.6157 53.8447C78.1582 53.8447 78.6785 54.0562 79.062 54.4327C79.4456 54.8092 79.6611 55.3198 79.6611 55.8522V57.8596H75.5703V55.8522C75.5703 55.3198 75.7858 54.8092 76.1694 54.4327C76.553 54.0562 77.0732 53.8447 77.6157 53.8447Z" fill="#FF003D"/>
<path d="M77.6067 50.8352C77.3354 50.8352 77.0753 50.7294 76.8835 50.5412C76.6917 50.353 76.584 50.0977 76.584 49.8315V47.824C76.584 47.5578 76.6917 47.3025 76.8835 47.1143C77.0753 46.9261 77.3354 46.8203 77.6067 46.8203C77.8779 46.8203 78.1381 46.9261 78.3298 47.1143C78.5216 47.3025 78.6294 47.5578 78.6294 47.824V49.8315C78.6294 50.0977 78.5216 50.353 78.3298 50.5412C78.1381 50.7294 77.8779 50.8352 77.6067 50.8352Z" fill="#F7BA61"/>
<path d="M72.2931 53.8447C72.1139 53.8447 71.9379 53.7983 71.7828 53.7101L70.0114 52.7063C69.8941 52.6409 69.7912 52.5534 69.7086 52.4488C69.6259 52.3441 69.5652 52.2245 69.5299 52.0968C69.4945 51.969 69.4853 51.8357 69.5027 51.7044C69.5201 51.5732 69.5637 51.4466 69.6312 51.3319C69.6986 51.2173 69.7885 51.1169 69.8956 51.0365C70.0028 50.9561 70.125 50.8973 70.2554 50.8634C70.3858 50.8296 70.5218 50.8214 70.6554 50.8393C70.789 50.8573 70.9177 50.901 71.0341 50.9679L72.8055 51.9716C73.0006 52.0821 73.1531 52.2527 73.2393 52.457C73.3254 52.6613 73.3405 52.8877 73.2821 53.1012C73.2237 53.3147 73.0951 53.5033 72.9162 53.6378C72.7374 53.7722 72.5184 53.8449 72.2931 53.8447Z" fill="#F7BA61"/>
<path d="M82.9262 53.8447C82.701 53.8449 82.482 53.7722 82.3031 53.6378C82.1243 53.5033 81.9957 53.3147 81.9373 53.1012C81.8789 52.8877 81.894 52.6613 81.9801 52.457C82.0663 52.2527 82.2188 52.0821 82.4139 51.9716L84.1853 50.9679C84.3017 50.901 84.4304 50.8573 84.564 50.8393C84.6976 50.8214 84.8336 50.8296 84.964 50.8634C85.0944 50.8973 85.2166 50.9561 85.3238 51.0365C85.4309 51.1169 85.5208 51.2173 85.5882 51.3319C85.6557 51.4466 85.6993 51.5732 85.7167 51.7044C85.7341 51.8357 85.7249 51.969 85.6895 52.0968C85.6542 52.2245 85.5935 52.3441 85.5108 52.4488C85.4282 52.5534 85.3253 52.6409 85.208 52.7063L83.4366 53.7101C83.2815 53.7982 83.1055 53.8447 82.9262 53.8447Z" fill="#F7BA61"/>
<path d="M85.2168 61.877H86.2678V67.8993H85.2168V61.877Z" fill="#CBCBCB"/>
<path d="M85.2148 74.8486H86.2659V87.897H85.2148V74.8486Z" fill="#CBCBCB"/>
<path d="M58.292 94.1391C60.5513 94.1391 62.3828 92.3416 62.3828 90.1242C62.3828 87.9069 60.5513 86.1094 58.292 86.1094C56.0327 86.1094 54.2012 87.9069 54.2012 90.1242C54.2012 92.3416 56.0327 94.1391 58.292 94.1391Z" fill="#44697E"/>
<path d="M58.1749 91.2349C58.8809 91.2349 59.4532 90.6732 59.4532 89.9802C59.4532 89.2873 58.8809 88.7256 58.1749 88.7256C57.4688 88.7256 56.8965 89.2873 56.8965 89.9802C56.8965 90.6732 57.4688 91.2349 58.1749 91.2349Z" fill="#D0E2E7"/>
<path d="M58.1887 94.9986C57.7619 94.9983 57.3368 94.9459 56.9232 94.8425C55.6087 94.5154 54.4804 93.6892 53.7865 92.5457C53.0926 91.4022 52.89 90.0351 53.2231 88.7449C53.459 87.8354 53.9501 87.0091 54.6406 86.3599C55.3312 85.7106 56.1934 85.2645 57.1294 85.0722C58.0653 84.88 59.0375 84.9492 59.9353 85.2721C60.8332 85.595 61.6208 86.1586 62.2085 86.8989C62.7963 87.6392 63.1607 88.5264 63.2603 89.4598C63.3599 90.3932 63.1908 91.3353 62.772 92.179C62.3533 93.0228 61.7018 93.7343 60.8916 94.2328C60.0814 94.7313 59.145 94.9967 58.1887 94.999V94.9986ZM58.1743 86.9655C57.4928 86.9673 56.8312 87.1916 56.2938 87.603C55.7564 88.0143 55.3737 88.5894 55.2058 89.2376C55.0566 89.8149 55.0852 90.4226 55.288 90.9839C55.4907 91.5452 55.8585 92.0349 56.3449 92.3911C56.8312 92.7473 57.4142 92.9539 58.0202 92.9849C58.6262 93.0158 59.2279 92.8697 59.7493 92.5651C60.2707 92.2604 60.6884 91.8108 60.9494 91.2732C61.2105 90.7356 61.3032 90.1341 61.216 89.5447C61.1287 88.9554 60.8653 88.4047 60.4591 87.9622C60.053 87.5198 59.5222 87.2055 58.934 87.0591C58.6857 86.997 58.4305 86.9656 58.1743 86.9655Z" fill="#44697E"/>
<path d="M94.0752 94.1391C96.3345 94.1391 98.166 92.3416 98.166 90.1242C98.166 87.9069 96.3345 86.1094 94.0752 86.1094C91.8159 86.1094 89.9844 87.9069 89.9844 90.1242C89.9844 92.3416 91.8159 94.1391 94.0752 94.1391Z" fill="#44697E"/>
<path d="M93.9678 91.2349C94.6738 91.2349 95.2462 90.6732 95.2462 89.9802C95.2462 89.2873 94.6738 88.7256 93.9678 88.7256C93.2618 88.7256 92.6895 89.2873 92.6895 89.9802C92.6895 90.6732 93.2618 91.2349 93.9678 91.2349Z" fill="#D0E2E7"/>
<path d="M93.9778 94.9986C93.551 94.9983 93.1259 94.9459 92.7122 94.8425C91.3977 94.5154 90.2694 93.6892 89.5756 92.5457C88.8817 91.4022 88.679 90.0351 89.0122 88.7449C89.2481 87.8354 89.7392 87.0091 90.4297 86.3599C91.1202 85.7107 91.9824 85.2646 92.9184 85.0723C93.8543 84.88 94.8265 84.9492 95.7244 85.2721C96.6222 85.595 97.4098 86.1586 97.9976 86.8989C98.5853 87.6391 98.9497 88.5264 99.0494 89.4598C99.149 90.3931 98.9799 91.3352 98.5611 92.179C98.1424 93.0227 97.491 93.7343 96.6808 94.2328C95.8706 94.7313 94.9342 94.9967 93.9779 94.999L93.9778 94.9986ZM93.9632 86.9655C93.2817 86.9673 92.6202 87.1916 92.0828 87.6029C91.5454 88.0143 91.1627 88.5894 90.9948 89.2376C90.8457 89.8149 90.8744 90.4226 91.0772 90.984C91.28 91.5453 91.6478 92.0349 92.1342 92.3911C92.6205 92.7472 93.2036 92.9538 93.8096 92.9847C94.4156 93.0156 95.0173 92.8695 95.5387 92.5648C96.06 92.2601 96.4776 91.8105 96.7386 91.2728C96.9997 90.7352 97.0924 90.1337 97.005 89.5443C96.9177 88.955 96.6543 88.4043 96.2481 87.9618C95.8418 87.5194 95.3111 87.2052 94.7228 87.0588C94.4746 86.9969 94.2194 86.9656 93.9632 86.9655Z" fill="#44697E"/>
<path d="M69.2637 76.2217H86.2709V78.3081H69.2637V76.2217Z" fill="#E00000"/>
</svg>
