<svg width="120" height="120" viewBox="0 0 120 120" fill="none" xmlns="http://www.w3.org/2000/svg">
<circle cx="60" cy="60" r="60" fill="#FFCEDA"/>
<path d="M77.3354 66.6896L70.7302 78.0126C70.604 78.2291 70.3722 78.3622 70.1216 78.3622H67.8619C67.3181 78.3622 66.9793 77.7723 67.2533 77.3027L73.4443 66.6897V66.0908H77.3353V66.6896H77.3354Z" fill="#58565C"/>
<path d="M90.9534 66.6894L97.144 77.3024C97.4179 77.7722 97.0792 78.3621 96.5353 78.362L94.276 78.3616C94.0254 78.3616 93.7937 78.2285 93.6675 78.012L87.0625 66.6887V66.0908H90.9534V66.6894Z" fill="#58565C"/>
<path d="M73.7928 72.4333L90.6017 72.4332C91.0882 72.4332 91.4824 72.0389 91.4824 71.5526C91.4824 71.066 91.0881 70.6719 90.6017 70.6719L73.7928 70.672C73.3064 70.672 72.9121 71.0663 72.9121 71.5527C72.9121 72.0391 73.3064 72.4333 73.7928 72.4333Z" fill="#49484D"/>
<path d="M93.0795 74.5625L71.3162 74.5626C70.8298 74.5626 70.4355 74.9568 70.4355 75.4433C70.4355 75.9298 70.8298 76.324 71.3162 76.324L93.0795 76.3239C93.566 76.3239 93.9601 75.9296 93.9601 75.4432C93.9601 74.9567 93.5657 74.5625 93.0795 74.5625Z" fill="#49484D"/>
<path d="M66.6369 21.9454C64.4881 21.9454 62.7461 23.6874 62.7461 25.8362V64.7443C62.7461 66.8931 64.4881 68.6352 66.637 68.6352H69.8234C70.2126 68.6352 70.528 68.3198 70.528 67.9306V66.6901H93.873V67.9306C93.873 68.3198 94.1884 68.6352 94.5775 68.6352H97.7636C99.9124 68.6352 101.655 66.8932 101.655 64.7443V25.8362C101.655 23.6874 99.9126 21.9453 97.7636 21.9453H66.6369V21.9454Z" fill="#90D8F9"/>
<path d="M68.1777 68.6346H69.8218C70.211 68.6346 70.5264 68.3191 70.5264 67.93V66.6895H68.1777V68.6346Z" fill="#0094D4"/>
<path d="M97.7627 21.9453H95.4141C97.5629 21.9453 99.305 23.6873 99.305 25.8361V64.7442C99.305 66.893 97.563 68.6351 95.4141 68.6351H97.7627C99.9115 68.6351 101.654 66.893 101.654 64.7442V25.8361C101.654 23.6873 99.9116 21.9453 97.7627 21.9453Z" fill="#5FA8E3"/>
<path d="M101.652 29.7266H62.7441V53.0715H101.652V29.7266Z" fill="#76B7EB"/>
<path d="M98.0295 50.1542H66.3667C65.9775 50.1542 65.6621 49.8388 65.6621 49.4497V33.3501C65.6621 32.9609 65.9775 32.6455 66.3667 32.6455H98.0295C98.4187 32.6455 98.7341 32.9609 98.7341 33.3501V49.4497C98.7341 49.8388 98.4187 50.1542 98.0295 50.1542Z" fill="#F4F4F4"/>
<path d="M72.4712 59.8804C73.5457 59.8804 74.4168 59.0093 74.4168 57.9348C74.4168 56.8604 73.5457 55.9893 72.4712 55.9893H68.5803C67.5059 55.9893 66.6348 56.8604 66.6348 57.9348C66.6348 59.0093 67.5059 59.8804 68.5803 59.8804H72.4712Z" fill="#FFCD00"/>
<path d="M95.8168 59.8804C96.8913 59.8804 97.7624 59.0093 97.7624 57.9348C97.7624 56.8604 96.8913 55.9893 95.8168 55.9893H91.926C90.8516 55.9893 89.9805 56.8604 89.9805 57.9348C89.9805 59.0093 90.8516 59.8804 91.926 59.8804H95.8168Z" fill="#FFCD00"/>
<path d="M101.655 29.7266H99.3066V53.0715H101.655V29.7266Z" fill="#4894D1"/>
<path d="M75.8262 20H88.573C88.84 20 89.0838 20.1508 89.2033 20.3894L89.9068 21.7964C89.9558 21.8942 89.9812 22.0021 89.9812 22.1115V25.1314C89.9812 25.5206 89.6658 25.836 89.2767 25.836H75.1225C74.7334 25.836 74.418 25.5206 74.418 25.1314V22.1118C74.418 22.0023 74.4435 21.8945 74.4923 21.7967L75.1959 20.3895C75.3154 20.1508 75.5593 20 75.8262 20Z" fill="#FF0000"/>
<path d="M89.9051 21.7965L89.2015 20.3895C89.0821 20.1508 88.8383 20 88.5713 20H86.2227C86.4896 20 86.7334 20.1508 86.8529 20.3894L87.5564 21.7964C87.6055 21.8942 87.6309 22.0021 87.6309 22.1114V25.1313C87.6309 25.5205 87.3155 25.8359 86.9263 25.8359H89.2749C89.6641 25.8359 89.9795 25.5205 89.9795 25.1313V22.1115C89.9794 22.0022 89.9539 21.8943 89.9051 21.7965Z" fill="#ED1C24"/>
<path d="M82.1992 22.8259C82.6857 22.8259 83.0798 22.4317 83.0798 21.9452V20H81.3184V21.9451C81.3185 22.4316 81.7128 22.8259 82.1992 22.8259Z" fill="white"/>
<path d="M98.0303 32.6455H95.6816C96.0708 32.6455 96.3862 32.9609 96.3862 33.3501V49.4497C96.3862 49.8388 96.0708 50.1542 95.6816 50.1542H98.0303C98.4194 50.1542 98.7348 49.8388 98.7348 49.4497V33.3501C98.7348 32.9609 98.4194 32.6455 98.0303 32.6455Z" fill="#96D2E0"/>
<path d="M95.8158 55.9893H93.4668C94.5413 55.9893 95.4124 56.8604 95.4124 57.9348C95.4124 59.0093 94.5413 59.8804 93.4668 59.8804H95.8158C96.8902 59.8804 97.7613 59.0093 97.7613 57.9348C97.7613 56.8604 96.8902 55.9893 95.8158 55.9893Z" fill="#F79B4A"/>
<path d="M72.4291 55.9893H70.0801C71.1545 55.9893 72.0256 56.8604 72.0256 57.9348C72.0256 59.0093 71.1545 59.8804 70.0801 59.8804H72.4291C73.5035 59.8804 74.3746 59.0093 74.3746 57.9348C74.3746 56.8604 73.5036 55.9893 72.4291 55.9893Z" fill="#F79B4A"/>
<path d="M101.652 63.6805V61.9191H88.5058L86.8217 59.3932C86.6584 59.1481 86.3834 59.001 86.089 59.001H78.3074C78.0129 59.001 77.7379 59.1481 77.5747 59.3932L75.8907 61.9191L62.7441 61.9189V63.6803L76.3621 63.6806C76.6566 63.6806 76.9314 63.5334 77.0948 63.2883L78.7787 60.7624H85.6177L87.3018 63.2883C87.4652 63.5334 87.7401 63.6806 88.0345 63.6806H101.652V63.6805Z" fill="#76B7EB"/>
<path d="M80.2181 92.3881H19.2776C18.572 92.3881 18 91.8229 18 91.1258V88.3076H81.4957V91.1258C81.4957 91.8229 80.9238 92.3881 80.2181 92.3881Z" fill="#7A96A8"/>
<path d="M73.3647 71.6362L69.8366 55.1361C69.7118 54.5524 69.1904 54.1348 68.5866 54.1348H19.2776C18.572 54.1348 18 54.6999 18 55.3971V88.3089H81.4957V76.8589C81.4957 76.3749 81.2156 75.9334 80.7746 75.7226L74.0582 72.5116C73.7025 72.3416 73.4464 72.0183 73.3647 71.6362Z" fill="white"/>
<path d="M59.0371 70.9812V59.4791C59.0371 58.7819 59.6091 58.2168 60.3147 58.2168H65.1155C65.712 58.2168 66.2291 58.6246 66.3613 59.1994L69.0071 70.7015C69.1887 71.4913 68.5811 72.2436 67.7612 72.2436H60.3148C59.6091 72.2436 59.0371 71.6784 59.0371 70.9812Z" fill="#B1E4F9"/>
<path d="M65.1197 58.2168H63.6875L66.9139 72.2434H67.7655C68.5854 72.2434 69.193 71.4913 69.0113 70.7013L66.3656 59.1993C66.2334 58.6246 65.7163 58.2168 65.1197 58.2168Z" fill="#90D8F9"/>
<path d="M47.1641 70.9812V59.4791C47.1641 58.7819 47.736 58.2168 48.4417 58.2168H53.6298C54.3355 58.2168 54.9074 58.7819 54.9074 59.4791V70.9812C54.9074 71.6784 54.3355 72.2436 53.6298 72.2436H48.4417C47.736 72.2436 47.1641 71.6784 47.1641 70.9812Z" fill="#B1E4F9"/>
<path d="M68.7219 98.0001C72.9984 98.0001 76.4653 94.5747 76.4653 90.3492C76.4653 86.1237 72.9984 82.6982 68.7219 82.6982C64.4453 82.6982 60.9785 86.1237 60.9785 90.3492C60.9785 94.5747 64.4453 98.0001 68.7219 98.0001Z" fill="#44697E"/>
<path d="M68.7232 92.5152C69.9349 92.5152 70.9172 91.5447 70.9172 90.3474C70.9172 89.1502 69.9349 88.1797 68.7232 88.1797C67.5116 88.1797 66.5293 89.1502 66.5293 90.3474C66.5293 91.5447 67.5116 92.5152 68.7232 92.5152Z" fill="#D0E2E7"/>
<path d="M30.7805 98.0001C35.057 98.0001 38.5239 94.5747 38.5239 90.3492C38.5239 86.1237 35.057 82.6982 30.7805 82.6982C26.5039 82.6982 23.0371 86.1237 23.0371 90.3492C23.0371 94.5747 26.5039 98.0001 30.7805 98.0001Z" fill="#44697E"/>
<path d="M30.7779 92.5152C31.9896 92.5152 32.9719 91.5447 32.9719 90.3474C32.9719 89.1502 31.9896 88.1797 30.7779 88.1797C29.5662 88.1797 28.584 89.1502 28.584 90.3474C28.584 91.5447 29.5662 92.5152 30.7779 92.5152Z" fill="#D0E2E7"/>
<path d="M40.3339 64.7201H35.2851C34.8617 64.7201 34.5186 64.381 34.5186 63.9627V58.9742C34.5186 58.5558 34.1754 58.2168 33.752 58.2168H30.8972C30.4738 58.2168 30.1307 58.5558 30.1307 58.9742V63.9627C30.1307 64.381 29.7875 64.7201 29.3641 64.7201H24.3154C23.892 64.7201 23.5488 65.0591 23.5488 65.4775V68.2982C23.5488 68.7165 23.892 69.0556 24.3154 69.0556H29.3641C29.7875 69.0556 30.1307 69.3946 30.1307 69.813V74.8015C30.1307 75.2198 30.4738 75.5589 30.8972 75.5589H33.752C34.1754 75.5589 34.5186 75.2198 34.5186 74.8015V69.813C34.5186 69.3946 34.8617 69.0556 35.2851 69.0556H40.3339C40.7573 69.0556 41.1004 68.7165 41.1004 68.2982V65.4775C41.1004 65.0591 40.7573 64.7201 40.3339 64.7201Z" fill="#FF0000"/>
<path d="M53.6205 54.1354H45.877L46.9556 49.0196C47.079 48.4342 47.6013 48.0146 48.2063 48.0146H51.2908C51.896 48.0146 52.4181 48.4342 52.5415 49.0196L53.6205 54.1354Z" fill="#FF0000"/>
<path d="M62.5764 77.2694H59.9953C59.466 77.2694 59.0371 76.8455 59.0371 76.3227C59.0371 75.7998 59.4661 75.376 59.9953 75.376H62.5764C63.1057 75.376 63.5345 75.7998 63.5345 76.3227C63.5345 76.8455 63.1057 77.2694 62.5764 77.2694Z" fill="#D0E2E7"/>
<path d="M81.5002 80.3299H78.9191C78.3898 80.3299 77.9609 79.9061 77.9609 79.3832C77.9609 78.8604 78.3899 78.4365 78.9191 78.4365H81.5002V80.3299Z" fill="#86A0AF"/>
<path d="M81.5002 84.412H78.9191C78.3898 84.412 77.9609 83.9881 77.9609 83.4653C77.9609 82.9424 78.3899 82.5186 78.9191 82.5186H81.5002V84.412Z" fill="#86A0AF"/>
<path d="M48.1222 85.4304C47.5929 85.4304 47.1641 85.0066 47.1641 84.4837V76.3227C47.1641 75.7998 47.593 75.376 48.1222 75.376C48.6514 75.376 49.0803 75.7998 49.0803 76.3227V84.4837C49.0805 85.0065 48.6515 85.4304 48.1222 85.4304Z" fill="#D0E2E7"/>
</svg>
