<svg width="120" height="120" viewBox="0 0 120 120" fill="none" xmlns="http://www.w3.org/2000/svg">
<circle cx="60" cy="60" r="60" fill="#FFCEDA"/>
<path d="M60.2202 17.999L61.4942 21.9532H65.6178L62.282 24.3969L63.556 28.3511L60.2202 25.9058L56.885 28.3511L58.1592 24.3969L54.8223 21.9532H58.9459L60.2202 17.999Z" fill="#FF8E1D"/>
<path d="M60.2202 92.6465L61.4942 96.6025H65.6178L62.282 99.0462L63.556 103L60.2202 100.557L56.885 103L58.1592 99.0462L54.8223 96.6025H58.9459L60.2202 92.6465Z" fill="#FF8E1D"/>
<path d="M80.5337 24.6152L81.8071 28.5703H85.9307L82.5947 31.0156L83.8689 34.9698L80.5337 32.5245L77.1979 34.9698L78.4719 31.0156L75.1367 28.5703H79.2603L80.5337 24.6152Z" fill="#FF8E1D"/>
<path d="M94.3901 38.4053L95.6635 42.3595H99.7871L96.451 44.8041L97.7253 48.7583L94.3901 46.3145L91.054 48.7583L92.3283 44.8041L88.9922 42.3595H93.1149L94.3901 38.4053Z" fill="#FF8E1D"/>
<path d="M94.7221 73.2471L95.9955 77.2028H100.119L96.783 79.6466L98.058 83.5999L94.7221 81.157L91.386 83.5999L92.6603 79.6466L89.3242 77.2028H93.4478L94.7221 73.2471Z" fill="#FF8E1D"/>
<path d="M26.5493 38.4053L27.8227 42.3595H31.9455L28.6103 44.8041L29.8837 48.7583L26.5493 46.3145L23.2135 48.7583L24.4875 44.8041L21.1523 42.3595H25.276L26.5493 38.4053Z" fill="#FF8E1D"/>
<path d="M97.6027 55.0215L98.8761 58.9757H103L99.6639 61.4194L100.938 65.3745L97.6027 62.9316L94.2669 65.3745L95.5418 61.4194L92.2051 58.9757H96.3278L97.6027 55.0215Z" fill="#FF8E1D"/>
<path d="M23.3977 55.0215L24.671 58.9757H28.7938L25.4579 61.4194L26.7329 65.3745L23.3977 62.9316L20.0616 65.3745L21.3359 61.4194L18 58.9757H22.1234L23.3977 55.0215Z" fill="#FF8E1D"/>
<path d="M26.1008 73.2471L27.3742 77.2028H31.4969L28.1619 79.6466L29.4351 83.5999L26.1008 81.157L22.7649 83.5999L24.039 79.6466L20.7031 77.2028H24.8267L26.1008 73.2471Z" fill="#FF8E1D"/>
<path d="M81.132 87.627L82.4054 91.5811H86.529L83.1923 94.0264L84.4672 97.9806L81.132 95.5369L77.7953 97.9806L79.0705 94.0264L75.7344 91.5811H79.858L81.132 87.627Z" fill="#FF8E1D"/>
<path d="M40.5611 24.6152L41.8342 28.5703H45.9578L42.622 31.0156L43.8969 34.9698L40.5611 32.5245L37.2259 34.9698L38.4999 31.0156L35.1641 28.5703H39.2868L40.5611 24.6152Z" fill="#FF8E1D"/>
<path d="M39.0572 87.3721L40.3312 91.328H44.4548L41.119 93.7709L42.393 97.7251L39.0572 95.2829L35.722 97.7251L36.996 93.7709L33.6602 91.328H37.7829L39.0572 87.3721Z" fill="#FF8E1D"/>
<path d="M42.7759 50.1719V69.8223H39V50.1719H42.7759Z" fill="#FF0000"/>
<path d="M61.0784 55.9051H57.3878C57.3707 55.7198 57.3579 55.585 57.3579 55.5008C57.2683 54.3932 57.0209 53.7025 56.6156 53.4203C56.2102 53.1382 55.246 52.9908 53.7271 52.9908C51.9394 52.9908 50.7703 53.155 50.2199 53.4835C49.6695 53.8078 49.3965 54.4942 49.3965 55.5387C49.3965 56.7768 49.6183 57.5223 50.0663 57.7665C50.5143 58.0192 51.9906 58.2087 54.4993 58.3435C57.4646 58.5077 59.3846 58.9289 60.255 59.5985C61.1253 60.2681 61.5605 61.6663 61.5605 63.7888C61.5605 66.3957 61.0485 68.0845 60.0288 68.8467C59.0091 69.609 56.7564 69.988 53.2748 69.988C50.1431 69.988 48.0653 69.6132 47.0413 68.8636C46.0131 68.114 45.5011 66.5979 45.5011 64.3153L45.4883 63.6077H49.1618L49.1746 64.0289C49.1746 65.3976 49.4178 66.2357 49.9042 66.5473C50.3906 66.859 51.7175 67.0064 53.8849 67.0064C55.5745 67.0064 56.654 66.8295 57.1233 66.4715C57.5883 66.1178 57.823 65.3007 57.823 64.012C57.823 63.0603 57.6438 62.4328 57.2897 62.1211C56.9356 61.8095 56.1718 61.62 54.9943 61.5526L52.9079 61.422C49.7591 61.2409 47.7453 60.8072 46.8707 60.1249C45.996 59.4427 45.5565 57.9813 45.5565 55.7366C45.5565 53.4414 46.0856 51.9127 47.1395 51.1504C48.1976 50.3839 50.301 50.0049 53.4625 50.0049C56.4577 50.0049 58.4758 50.3586 59.5126 51.0577C60.5494 51.7568 61.0741 53.1255 61.0741 55.1639V55.9051H61.0784Z" fill="#FF0000"/>
<path d="M72.4541 50C76.0722 50 78.4018 50.598 79.4428 51.7814C80.4796 52.9648 81.0001 55.618 81.0001 59.7326C81.0001 64.2346 80.4796 67.0689 79.4343 68.2438C78.389 69.4188 75.8589 70 71.844 70C68.2259 70 65.8878 69.4188 64.8297 68.2649C63.7673 67.111 63.2383 64.5631 63.2383 60.6338C63.2383 55.9507 63.7588 53.0069 64.7999 51.8067C65.8366 50.6022 68.3881 50 72.4541 50ZM72.1597 53.2007C69.6211 53.2007 68.1406 53.5207 67.7139 54.1651C67.283 54.8052 67.074 57.0373 67.074 60.8444C67.074 63.666 67.3257 65.3632 67.8249 65.9402C68.3241 66.5172 69.8003 66.8035 72.2493 66.8035C74.596 66.8035 75.9997 66.4793 76.4647 65.8349C76.9298 65.1864 77.1644 63.2238 77.1644 59.9431C77.1644 56.6498 76.9426 54.7041 76.5031 54.1019C76.0551 53.4955 74.6088 53.2007 72.1597 53.2007Z" fill="#FF0000"/>
</svg>
