<svg width="120" height="120" viewBox="0 0 120 120" fill="none" xmlns="http://www.w3.org/2000/svg">
<circle cx="60" cy="60" r="60" fill="#FFCEDA"/>
<g clip-path="url(#clip0)">
<path d="M64.3711 68.4656C66.4327 67.1381 66.2021 63.1875 66.2021 62.2656H82.7959C82.7959 63.1875 82.5402 67.1381 84.6018 68.4656L74.499 79.7812L64.3711 68.4656Z" fill="#FFD7A3"/>
<path d="M80.9531 72.4063L84.6027 68.4656C82.5411 67.1383 82.7969 63.1875 82.7969 62.2656H66.2031C67.3937 65.6886 75.2683 71.5612 80.9531 72.4063Z" fill="#FDC88E"/>
<path d="M87.4061 50.2813C87.4061 57.6638 83.1552 66.8751 74.4999 66.8751C65.8447 66.8751 61.5938 57.6638 61.5938 50.2813C61.5938 42.8988 67.3721 40.1406 74.4999 40.1406C81.6277 40.1406 87.4061 42.8988 87.4061 50.2813Z" fill="#FFE1B2"/>
<path d="M62.0255 51.8948C60.6436 51.549 59.7383 52.2878 59.7383 53.7386C59.7383 55.6592 61.5967 60.3646 63.5503 57.4261C65.5041 54.4875 62.0255 51.8948 62.0255 51.8948Z" fill="#FFE1B2"/>
<path d="M86.7402 51.8948C88.2486 51.549 89.2368 52.2878 89.2368 53.7386C89.2368 55.6592 87.2084 60.3646 85.0759 57.4261C82.9433 54.4875 86.7402 51.8948 86.7402 51.8948Z" fill="#FFE1B2"/>
<path d="M64.3583 46.5928C63.9742 47.6977 63.4365 53.9678 63.4365 53.9678L61.5927 52.9478L61.0742 46.1904L64.3583 46.5928Z" fill="#7E5449"/>
<path d="M84.6406 46.5928C85.0248 47.6977 85.5625 53.9678 85.5625 53.9678L87.4063 52.9478L87.9247 46.1904L84.6406 46.5928Z" fill="#7E5449"/>
<path d="M95.7031 88.9998C97.2306 88.9998 98.4687 87.7617 98.4687 86.2342V79.187C98.4687 75.1306 95.3079 70.8003 91.4446 69.5642L85.6772 67.7188C82.5742 70.0914 78.1398 73.328 74.5001 73.328C70.8604 73.328 66.4259 70.0914 63.323 67.7188L57.5554 69.5642C53.6921 70.8003 50.5312 75.1306 50.5312 79.187V86.2342C50.5312 87.7617 51.7694 88.9998 53.2969 88.9998H95.7031Z" fill="#86A0AF"/>
<path d="M76.3437 76.0938C76.3437 76.6008 75.9289 77.0156 75.4219 77.0156H73.5781C73.0711 77.0156 72.6562 76.6008 72.6562 76.0938V74.25C72.6562 73.743 73.0711 73.3281 73.5781 73.3281H75.4219C75.9289 73.3281 76.3437 73.743 76.3437 74.25V76.0938Z" fill="#E00000"/>
<path d="M74.5 82.5468C75.0091 82.5468 75.4218 82.1341 75.4218 81.625C75.4218 81.1158 75.0091 80.7031 74.5 80.7031C73.9908 80.7031 73.5781 81.1158 73.5781 81.625C73.5781 82.1341 73.9908 82.5468 74.5 82.5468Z" fill="#D0D7DC"/>
<path d="M74.5 73.3274L70.6535 77.1738C70.253 77.5744 69.5893 77.5223 69.256 77.0642L62.5156 67.796L64.6627 65.6489C65.0095 65.3022 65.5669 65.2876 65.9313 65.6156L74.5 73.3274Z" fill="#658FA7"/>
<path d="M74.5 73.3274L78.3465 77.1738C78.747 77.5744 79.4106 77.5223 79.7439 77.0642L86.4843 67.796L84.3372 65.6489C83.9905 65.3022 83.4331 65.2876 83.0687 65.6156L74.5 73.3274Z" fill="#658FA7"/>
<path d="M75.7665 76.4971L74.4999 77.0156L73.2334 76.4971L72.6562 89H74.4999H76.3437L75.7665 76.4971Z" fill="#FF0000"/>
<path d="M96.0277 88.9673C97.4002 88.8048 98.4686 87.6506 98.4686 86.2345V79.1872C98.4686 75.1309 95.3078 70.8006 91.4445 69.5645L86.418 67.9561L79.1094 88.9673H96.0277Z" fill="#B1E4F9"/>
<path d="M57.6315 69.8026L57.6316 69.8026L62.4258 68.2685L69.539 88.7173H52.9872C51.7441 88.563 50.7812 87.5156 50.7812 86.2345V79.1872C50.7812 77.2217 51.5484 75.1755 52.7965 73.4657C54.0446 71.7558 55.7595 70.4016 57.6315 69.8026Z" fill="#B1E4F9" stroke="#7DD6FF" stroke-width="0.5"/>
<path d="M62.5148 67.7969L58.5936 72.5373C58.2287 72.9566 58.3151 73.6012 58.7777 73.9095L60.6711 75.1718L58.481 77.3619C58.1522 77.6907 58.1197 78.2127 58.4052 78.5798L64.3587 88.9999L69.8899 88.9671L62.5148 67.7969Z" fill="#90D8F9"/>
<path d="M86.4846 67.7969L90.4057 72.5373C90.7707 72.9566 90.6842 73.6012 90.2216 73.9095L88.3282 75.1718L90.5184 77.3619C90.8472 77.6907 90.8797 78.2127 90.5941 78.5798L84.6406 88.9999L79.1094 88.9671L86.4846 67.7969Z" fill="#90D8F9"/>
<path d="M88.3281 46.5938C79.1094 46.5938 69.8907 46.5938 60.6719 46.5938C60.6719 41.6771 60.6719 38.2365 60.6719 33.3198C69.3592 28.8934 79.6407 28.8934 88.3281 33.3198C88.3281 38.2365 88.3281 41.6771 88.3281 46.5938Z" fill="#90D8F9"/>
</g>
<path d="M53.8055 31.7852L47.3457 66.8527L51.9599 67.7755C61.7264 60.6236 65.9175 31.7852 53.8055 31.7852Z" fill="#80362D"/>
<path d="M53.8058 31.7844C52.1908 30.8039 43.6673 28.3136 37.1948 31.7844C29.2354 36.0525 22.2757 51.3176 33.5035 66.852C33.5195 66.874 41.809 65.9292 41.809 65.9292L53.8058 31.7844Z" fill="#80362D"/>
<path d="M52.0089 62.5471H51.9587V60.3916H39.0391V62.5449C39.0391 64.6544 39.0302 66.9473 37.1934 68.3343V88.9994H45.4989C45.4989 88.9994 49.8479 88.9994 53.8044 88.9994V68.302C52.0145 66.9115 52.0089 64.6385 52.0089 62.5471Z" fill="#FFD7A3"/>
<path d="M45.4999 79.7713C43.5155 79.7713 41.643 79.5082 39.9629 79.0513V88.9996H52.8825V78.4424C50.7889 79.2778 48.2471 79.7713 45.4999 79.7713Z" fill="#86A0AF"/>
<path d="M52.8816 72.3894C53.2183 72.4812 53.5215 72.5302 53.8043 72.554V68.303C52.0146 66.9125 52.0088 64.6394 52.0088 62.5479L52.0076 62.4944V60.3389L41.8076 60.3924L39.0391 61.3152C40.8848 63.3918 46.5372 70.6591 52.8816 72.3894Z" fill="#FDC88E"/>
<path d="M58.4173 48.3953C58.4173 55.7855 51.0675 65.0063 45.4977 65.0063C39.9279 65.0063 32.5781 55.7855 32.5781 48.3953C32.5781 41.0052 38.3625 38.2441 45.4977 38.2441C52.6329 38.2441 58.4173 41.0052 58.4173 48.3953Z" fill="#FFE1B2"/>
<path d="M47.3467 33.6299C46.8282 33.6299 45.1447 34.2124 43.7688 34.7229L43.6554 34.5527C43.6554 34.5527 43.4655 34.7019 43.1368 34.9605C42.3715 35.2511 41.8098 35.4755 41.8098 35.4755L42.0256 35.8353C38.523 38.595 30.5315 44.9079 29.8129 45.6267C28.8901 46.5494 35.3499 70.0937 35.3499 56.7007C35.3499 45.5114 41.5663 43.2954 47.3467 41.9354C49.9613 41.3201 50.7304 39.7821 51.0379 38.2441C51.3456 36.7061 48.2696 33.6299 47.3467 33.6299Z" fill="#80362D"/>
<path d="M50.1132 39.1677C51.805 45.243 55.1888 47.9923 58.361 48.7998C60.0993 49.2422 59.3416 43.7819 59.3416 43.7819C59.3416 43.7819 56.8806 37.4759 56.5731 37.3222C56.2655 37.1683 53.8046 31.7852 53.8046 31.7852L48.2676 36.3994L50.1132 39.1677Z" fill="#80362D"/>
<path d="M38.2073 67.2285C37.343 68.6328 35.5809 69.6199 31.9646 69.6199H31.6571C26.0508 69.6199 21.5059 74.1647 21.5059 79.7711V86.2309C21.5059 87.7598 22.7453 88.9994 24.2744 88.9994H43.2108L38.2073 67.2285Z" fill="white"/>
<path d="M52.7926 67.2285C53.6569 68.6328 55.419 69.6199 59.0353 69.6199H59.3428C64.9491 69.6199 69.4941 74.1647 69.4941 79.7711V86.2309C69.4941 87.7598 68.2546 88.9994 66.7256 88.9994H47.7891L52.7926 67.2285Z" fill="white"/>
<path d="M31.6552 87.1542C33.1842 87.1542 34.4237 85.9147 34.4237 84.3857C34.4237 82.8567 33.1842 81.6172 31.6552 81.6172C30.1262 81.6172 28.8867 82.8567 28.8867 84.3857C28.8867 85.9147 30.1262 87.1542 31.6552 87.1542Z" fill="#D0E2E7"/>
<path d="M62.8107 87.5458L61.6699 86.7617C62.6837 85.2866 63.2653 83.075 63.2653 80.6939C63.2653 76.567 61.4692 73.0805 59.3433 73.0805C57.2174 73.0805 55.4213 76.567 55.4213 80.6939C55.4213 83.075 56.0027 85.2866 57.0167 86.7617L55.8758 87.5458C54.7075 85.8456 54.0371 83.3482 54.0371 80.6939C54.0371 75.6484 56.3678 71.6963 59.3434 71.6963C62.3189 71.6963 64.6497 75.6486 64.6497 80.6939C64.6493 83.3482 63.9791 85.8456 62.8107 87.5458Z" fill="#D0E2E7"/>
<path d="M56.5732 88.077C57.0828 88.077 57.496 87.6639 57.496 87.1542C57.496 86.6446 57.0828 86.2314 56.5732 86.2314C56.0635 86.2314 55.6504 86.6446 55.6504 87.1542C55.6504 87.6639 56.0635 88.077 56.5732 88.077Z" fill="#86A0AF"/>
<path d="M62.1122 88.077C62.6219 88.077 63.035 87.6639 63.035 87.1542C63.035 86.6446 62.6219 86.2314 62.1122 86.2314C61.6026 86.2314 61.1895 86.6446 61.1895 87.1542C61.1895 87.6639 61.6026 88.077 62.1122 88.077Z" fill="#86A0AF"/>
<path d="M31.6569 83.232C31.2746 83.232 30.9648 82.9222 30.9648 82.5399C30.9648 70.581 36.6171 67.3033 36.8578 67.1696C37.1925 66.9832 37.6134 67.1043 37.7988 67.4385C37.984 67.7714 37.865 68.1911 37.5335 68.3778C37.4656 68.4171 32.349 71.4872 32.349 82.5399C32.349 82.9222 32.0392 83.232 31.6569 83.232Z" fill="#D0E2E7"/>
<path d="M31.6565 85.8472C32.4635 85.8472 33.1177 85.193 33.1177 84.386C33.1177 83.579 32.4635 82.9248 31.6565 82.9248C30.8495 82.9248 30.1953 83.579 30.1953 84.386C30.1953 85.193 30.8495 85.8472 31.6565 85.8472Z" fill="#86A0AF"/>
<path d="M59.3406 73.0815C59.0554 73.0815 58.7883 72.9037 58.6879 72.6194C58.0866 70.9155 57.1077 70.1945 57.098 70.1878C56.7849 69.9686 56.7087 69.5369 56.9279 69.2238C57.1471 68.911 57.5781 68.8347 57.8919 69.0536C57.9465 69.0919 59.2361 70.0132 59.9933 72.159C60.1206 72.5193 59.9313 72.9146 59.5709 73.042C59.4946 73.0686 59.4169 73.0815 59.3406 73.0815Z" fill="#D0E2E7"/>
<path d="M57.0434 48.4798C58.5534 48.1337 59.5426 48.8732 59.5426 50.3256C59.5426 52.2481 57.5121 56.9584 55.3773 54.0168C53.2426 51.0753 57.0434 48.4798 57.0434 48.4798Z" fill="#FFE1B2"/>
<defs>
<clipPath id="clip0">
<rect x="45" y="30" width="59" height="59" fill="white"/>
</clipPath>
</defs>
</svg>
