<svg width="120" height="120" viewBox="0 0 120 120" fill="none" xmlns="http://www.w3.org/2000/svg">
<circle cx="60" cy="60" r="60" fill="#FFCEDA"/>
<g clip-path="url(#clip0)">
<path d="M57.8857 44.5806H53.3776L56.5651 41.393C58.1724 39.7858 58.1724 37.18 56.5651 35.5728L55.4281 34.4358C53.8209 32.8285 51.2152 32.8285 49.6079 34.4358L46.4204 37.6234V33.1155C46.4204 30.8425 44.5779 29 42.3049 29H40.697C38.424 29 36.5816 30.8426 36.5816 33.1155V37.6236L33.3938 34.4359C31.7865 32.8286 29.1809 32.8286 27.5737 34.4359L26.4368 35.573C24.8295 37.1801 24.8294 39.7858 26.4367 41.3929L29.6243 44.5807H25.1165C22.8435 44.5807 21.001 46.4232 21.001 48.6962V50.3039C21.001 52.5769 22.8434 54.4193 25.1165 54.4193H29.6243L26.4367 57.6071C24.8294 59.2144 24.8295 61.8199 26.4367 63.427L27.5737 64.564C29.1809 66.1714 31.7865 66.1715 33.3938 64.5642L36.5814 61.3765V65.8845C36.5814 68.1576 38.4239 70 40.6968 70H42.3048C44.5778 70 46.4203 68.1576 46.4203 65.8845V61.3766L49.6077 64.564C51.2149 66.1714 53.8207 66.1714 55.4279 64.564L56.5648 63.427C58.1721 61.8199 58.1721 59.2142 56.5648 57.6068L53.3774 54.4193H57.8855C60.1584 54.4193 62.0009 52.5769 62.0009 50.3039V48.6962C62.0011 46.423 60.1587 44.5806 57.8857 44.5806ZM49.2257 46.3249C49.2257 46.3249 48.3493 47.2337 46.9213 46.5976C46.9213 46.5976 46.1878 47.2653 45.0065 46.6552C45.0065 46.6552 44.1303 47.323 43.202 46.7469C43.202 46.7469 42.6527 47.1152 42.1923 47.056V50.4026C42.2169 50.3992 42.2431 50.3956 42.2662 50.3924C42.4755 50.347 43.2614 50.1702 44.2081 49.9079C45.24 49.6344 46.376 49.1921 46.5449 48.9667C46.5318 48.9537 46.5059 48.9399 46.4799 48.9269C46.3826 48.8749 46.2269 48.8304 46.0385 48.7906C45.6621 48.7128 45.1493 48.6736 44.63 48.6544C43.5977 48.6163 43.5581 48.6581 43.3967 48.6609C43.1203 48.6654 42.6286 48.5557 42.6372 48.1295C42.6458 47.7032 42.9914 47.5624 43.2588 47.5614C43.5262 47.5603 43.4552 47.5637 44.0264 47.5712C44.9739 47.6425 47.8756 47.4081 48.2391 48.9336C48.2391 48.9782 48.2456 49.0049 48.252 49.0447C48.1288 50.3737 45.37 50.9531 43.3773 51.3475C44.0524 51.8165 44.4159 52.4201 44.5585 53.1992C44.63 54.0299 43.9678 54.8219 42.4343 55.703C43.5977 56.5274 44.3639 57.3064 44.2989 58.2426C44.1951 59.0086 43.52 60.0277 42.1958 60.6703C42.1894 60.6703 42.183 60.6703 42.183 60.6703C42.183 60.6703 43.1112 59.2553 43.1696 58.4812C43.2226 58.0884 42.9215 57.372 42.1924 56.8033V59.5681C42.1924 59.9393 41.8918 60.2402 41.5209 60.2402C41.1502 60.2402 40.8494 59.9392 40.8494 59.5681C40.8494 59.5579 40.8504 59.5483 40.8509 59.5385V56.684C40.7825 56.7304 40.7144 56.7843 40.6468 56.848C39.8397 57.519 39.6464 58.0839 39.7033 58.4813C39.7617 59.2554 40.6899 60.6704 40.6899 60.6704H40.6835C40.6835 60.6704 40.6835 60.6704 40.6771 60.6704C39.3529 60.0278 38.6778 59.0088 38.574 58.2427C38.509 57.3064 39.275 56.5275 40.4434 55.7031C38.9049 54.822 38.2429 54.0299 38.3143 53.1993C38.4571 52.4137 38.8206 51.8101 39.4956 51.3476C37.5029 50.9532 34.7441 50.3739 34.6209 49.0448C34.6275 49.005 34.6339 48.9783 34.6339 48.9337C34.9974 47.4082 37.899 47.6426 38.8466 47.5713C39.4177 47.564 39.2382 47.5461 39.66 47.6037C39.9261 47.6573 40.2656 47.6921 40.246 48.1691C40.2263 48.6458 39.5989 48.6537 39.4763 48.6611C39.3535 48.6683 39.2751 48.6165 38.243 48.6482C37.7238 48.6739 37.2108 48.713 36.8279 48.7909C36.6462 48.8307 36.4838 48.8752 36.3932 48.9272C36.3606 48.9403 36.3412 48.954 36.3281 48.967C36.497 49.1924 37.6329 49.6346 38.665 49.9083C39.7427 50.2068 40.2467 50.3103 40.7617 50.4275C40.7909 50.4342 40.8214 50.4378 40.8512 50.443V47.0388C40.2575 47.0994 39.801 46.7471 39.801 46.7471C38.8662 47.3232 37.9965 46.6554 37.9965 46.6554C36.8151 47.2655 36.0751 46.5978 36.0751 46.5978C34.6537 47.234 33.7773 46.3251 33.7773 46.3251C32.1352 46.6236 31.5314 45.2597 31.5314 45.2597C34.5694 45.5324 37.0619 42.5528 37.698 42.0345C38.3212 41.5209 38.7626 41.6384 39.3922 42.7671C39.7987 43.4921 40.4409 43.5934 40.8514 43.5784V43.527C40.356 43.2777 40.0154 42.7662 40.0154 42.1737C40.0154 41.3368 40.6939 40.6584 41.5307 40.6584C42.3676 40.6584 43.046 41.3368 43.046 42.1737C43.046 42.7729 42.6975 43.2892 42.1928 43.5352V43.5797C42.6041 43.5863 43.2183 43.4685 43.6116 42.7671C44.2411 41.6384 44.6761 41.5209 45.3057 42.0345C45.9418 42.5528 48.4345 45.5323 51.4723 45.2597C51.4716 45.2596 50.8678 46.6234 49.2257 46.3249Z" fill="#ED1C24"/>
<path d="M39.6437 53.3061C39.6437 53.6059 39.8066 53.9599 40.1572 54.2311C40.4315 54.4434 40.5956 54.5087 40.8503 54.6685V51.972C39.5599 52.4783 39.6437 53.0136 39.6437 53.3061Z" fill="#E74424"/>
<path d="M42.1914 54.6008C42.3649 54.5014 42.5453 54.375 42.7143 54.2309C43.0516 53.9436 43.2293 53.6427 43.2293 53.3568C43.2293 53.0849 43.3026 52.5411 42.1914 52.0458V54.6008Z" fill="#E74424"/>
<path d="M45.3046 42.0344C44.675 41.5208 44.2401 41.6383 43.6105 42.7671C43.2172 43.4684 42.603 43.5861 42.1917 43.5797V43.5352C42.6963 43.2892 43.0449 42.7728 43.0449 42.1736C43.0449 41.3368 42.3665 40.6583 41.5296 40.6583C40.6928 40.6583 40.0143 41.3368 40.0143 42.1736C40.0143 42.766 40.3549 43.2777 40.8503 43.527V43.5784C40.4398 43.5934 39.7976 43.4919 39.3911 42.7671C38.7616 41.6383 38.3202 41.5208 37.6969 42.0344C37.0608 42.5528 34.5683 45.5322 31.5303 45.2596C31.5303 45.2596 32.1341 46.6235 33.7762 46.325C33.7762 46.325 34.6526 47.2338 36.074 46.5977C36.074 46.5977 36.814 47.2655 37.9954 46.6553C37.9954 46.6553 38.8651 47.3231 39.7999 46.7471C39.7999 46.7471 40.2565 47.0995 40.8501 47.0387V50.443C40.8203 50.4377 40.79 50.434 40.7606 50.4274C40.2457 50.3103 39.7416 50.2068 38.6639 49.9082C37.6318 49.6347 36.4959 49.1924 36.327 48.9669C36.3402 48.954 36.3596 48.9402 36.3921 48.9271C36.4828 48.8752 36.6452 48.8307 36.8268 48.7909C37.2097 48.7131 37.7227 48.6739 38.2419 48.6481C39.2741 48.6164 39.3525 48.6683 39.4752 48.661C39.5978 48.6537 40.2252 48.6458 40.2449 48.169C40.2645 47.6922 39.925 47.6573 39.6589 47.6036C39.2372 47.546 39.4166 47.5639 38.8455 47.5713C37.8979 47.6426 34.9963 47.4082 34.6328 48.9336C34.6328 48.9782 34.6264 49.0049 34.6198 49.0447C34.743 50.3738 37.5018 50.9532 39.4945 51.3475C38.8195 51.81 38.456 52.4137 38.3132 53.1992C38.2418 54.03 38.9039 54.8219 40.4423 55.7031C39.2739 56.5275 38.5079 57.3064 38.5729 58.2427C38.6767 59.0087 39.3518 60.0277 40.6759 60.6703C40.6824 60.6703 40.6824 60.6703 40.6824 60.6703H40.6888C40.6888 60.6703 39.7608 59.2554 39.7022 58.4812C39.6453 58.084 39.8386 57.519 40.6457 56.848C40.7133 56.7842 40.7814 56.7304 40.8498 56.6839V59.5384C40.8493 59.5483 40.8483 59.558 40.8483 59.568C40.8483 59.9392 41.149 60.2402 41.5198 60.2402C41.8907 60.2402 42.1913 59.9393 42.1913 59.568V56.8034C42.9204 57.3721 43.2215 58.0884 43.1685 58.4812C43.1101 59.2554 42.1819 60.6703 42.1819 60.6703C42.1819 60.6703 42.1883 60.6703 42.1947 60.6703C43.5189 60.0277 44.194 59.0088 44.2978 58.2427C44.3629 57.3063 43.5967 56.5275 42.4332 55.7031C43.9667 54.8219 44.6289 54.0299 44.5574 53.1992C44.4148 52.4203 44.0513 51.8166 43.3762 51.3475C45.3689 50.9532 48.1277 50.3739 48.2509 49.0447C48.2444 49.0049 48.238 48.9782 48.238 48.9336C47.8745 47.4082 44.9728 47.6426 44.0253 47.5713C43.454 47.5639 43.525 47.5604 43.2577 47.5615C42.9902 47.5624 42.6447 47.7032 42.6361 48.1296C42.6275 48.5558 43.1192 48.6655 43.3956 48.6609C43.5571 48.6583 43.5967 48.6163 44.6289 48.6544C45.1481 48.6738 45.661 48.7129 46.0374 48.7907C46.2258 48.8305 46.3815 48.875 46.4788 48.9269C46.5048 48.94 46.5307 48.9537 46.5438 48.9667C46.3749 49.1922 45.239 49.6343 44.207 49.908C43.2602 50.1703 42.4744 50.3471 42.2651 50.3924C42.2419 50.3955 42.2158 50.3991 42.1912 50.4026V47.0561C42.6516 47.1153 43.2009 46.747 43.2009 46.747C44.1292 47.323 45.0054 46.6552 45.0054 46.6552C46.1867 47.2653 46.9202 46.5976 46.9202 46.5976C48.3484 47.2338 49.2246 46.3249 49.2246 46.3249C50.8667 46.6235 51.4705 45.2595 51.4705 45.2595C48.4333 45.5322 45.9407 42.5528 45.3046 42.0344ZM40.8503 54.6686C40.5956 54.5088 40.4314 54.4435 40.1571 54.2312C39.8066 53.9599 39.6437 53.606 39.6437 53.3062C39.6437 53.0137 39.5599 52.4784 40.8503 51.9722V54.6686ZM43.2296 53.3571C43.2296 53.643 43.0519 53.9438 42.7145 54.2312C42.5456 54.3752 42.3652 54.5017 42.1917 54.6011V52.046C43.303 52.5413 43.2296 53.0851 43.2296 53.3571Z" fill="#F7F1E6"/>
</g>
<path d="M85.3619 30H56.0869V73.6079H85.3619V30Z" fill="#64798A"/>
<path d="M63.1309 33.3733H59.373V39.5894H63.1309V33.3733Z" fill="#44C4A1"/>
<path d="M69.4454 33.3733H65.6875V39.5894H69.4454V33.3733Z" fill="#44C4A1"/>
<path d="M75.7598 33.3733H72.002V39.5894H75.7598V33.3733Z" fill="#44C4A1"/>
<path d="M82.0762 33.3733H78.3184V39.5894H82.0762V33.3733Z" fill="#44C4A1"/>
<path d="M63.1309 43.1927H59.373V49.4089H63.1309V43.1927Z" fill="#44C4A1"/>
<path d="M69.4454 43.1927H65.6875V49.4089H69.4454V43.1927Z" fill="#44C4A1"/>
<path d="M75.7598 43.1929H72.002V49.409H75.7598V43.1929Z" fill="#27A2DB"/>
<path d="M82.0762 43.1929H78.3184V49.409H82.0762V43.1929Z" fill="#27A2DB"/>
<path d="M75.7608 59.2246H72.0029L75.7608 53.0083V59.2246Z" fill="#2D93BA"/>
<path d="M82.0751 59.2246H78.3174L82.0751 53.0083V59.2246Z" fill="#2D93BA"/>
<path d="M63.1309 62.8256H59.373V69.0417H63.1309V62.8256Z" fill="#44C4A1"/>
<path d="M69.4454 62.8256H65.6875V69.0417H69.4454V62.8256Z" fill="#44C4A1"/>
<path d="M75.7598 62.8256H72.002V69.0417H75.7598V62.8256Z" fill="#27A2DB"/>
<path d="M82.0762 62.8256H78.3184V69.0417H82.0762V62.8256Z" fill="#27A2DB"/>
<path d="M63.1308 39.5899H59.373L63.1308 33.3735V39.5899Z" fill="#3EA69B"/>
<path d="M69.4454 39.5899H65.6875L69.4454 33.3735V39.5899Z" fill="#3EA69B"/>
<path d="M75.7598 39.5899H72.002L75.7598 33.3735V39.5899Z" fill="#3EA69B"/>
<path d="M82.0742 39.5899H78.3164L82.0742 33.3735V39.5899Z" fill="#3EA69B"/>
<path d="M63.1308 49.4071H59.373L63.1308 43.1909V49.4071Z" fill="#3EA69B"/>
<path d="M69.4454 49.4071H65.6875L69.4454 43.1909V49.4071Z" fill="#3EA69B"/>
<path d="M75.7608 49.4073H72.0029L75.7608 43.191V49.4073Z" fill="#2D93BA"/>
<path d="M82.0751 49.4073H78.3174L82.0751 43.191V49.4073Z" fill="#2D93BA"/>
<path d="M63.1309 53.0062H59.373V59.2224H63.1309V53.0062Z" fill="#44C4A1"/>
<path d="M69.4454 53.0062H65.6875V59.2224H69.4454V53.0062Z" fill="#44C4A1"/>
<path d="M75.7598 53.0062H72.002V59.2224H75.7598V53.0062Z" fill="#27A2DB"/>
<path d="M82.0762 53.0062H78.3184V59.2224H82.0762V53.0062Z" fill="#27A2DB"/>
<path d="M63.1308 69.0419H59.373L63.1308 62.8257V69.0419Z" fill="#3EA69B"/>
<path d="M69.4454 69.0419H65.6875L69.4454 62.8257V69.0419Z" fill="#3EA69B"/>
<path d="M75.7608 69.0419H72.0029L75.7608 62.8257V69.0419Z" fill="#2D93BA"/>
<path d="M82.0751 69.0419H78.3174L82.0751 62.8257V69.0419Z" fill="#2D93BA"/>
<path d="M97.1057 43.1271H72.002V73.6103H97.1057V43.1271Z" fill="#F3F3F3"/>
<path d="M88.7408 65.2439H80.373V73.6104H88.7408V65.2439Z" fill="#64798A"/>
<path d="M89.7857 63.8357H79.3223V65.2445H89.7857V63.8357Z" fill="#3A556A"/>
<path d="M77.5557 45.9718H74.0928V52.0119H77.5557V45.9718Z" fill="#27A2DB"/>
<path d="M83.376 45.9718H79.9131V52.0119H83.376V45.9718Z" fill="#27A2DB"/>
<path d="M89.1972 45.9718H85.7344V52.0119H89.1972V45.9718Z" fill="#27A2DB"/>
<path d="M95.0136 45.9718H91.5508V52.0119H95.0136V45.9718Z" fill="#27A2DB"/>
<path d="M77.5567 52.012H74.0938L77.5567 45.9718V52.012Z" fill="#2D93BA"/>
<path d="M83.3761 52.012H79.9131L83.3761 45.9718V52.012Z" fill="#2D93BA"/>
<path d="M89.1953 52.012H85.7324L89.1953 45.9718V52.012Z" fill="#2D93BA"/>
<path d="M95.0137 52.012H91.5508L95.0137 45.9718V52.012Z" fill="#2D93BA"/>
<path d="M77.5557 54.9504H74.0928V60.9905H77.5557V54.9504Z" fill="#27A2DB"/>
<path d="M83.376 54.9504H79.9131V60.9905H83.376V54.9504Z" fill="#27A2DB"/>
<path d="M89.1972 54.9504H85.7344V60.9905H89.1972V54.9504Z" fill="#27A2DB"/>
<path d="M95.0136 54.9504H91.5508V60.9905H95.0136V54.9504Z" fill="#27A2DB"/>
<path d="M95.0136 63.8357H91.5508V69.8758H95.0136V63.8357Z" fill="#27A2DB"/>
<path d="M77.5557 63.8357H74.0928V69.8758H77.5557V63.8357Z" fill="#27A2DB"/>
<path d="M77.5567 60.991H74.0938L77.5567 54.9508V60.991Z" fill="#2D93BA"/>
<path d="M83.3761 60.991H79.9131L83.3761 54.9508V60.991Z" fill="#2D93BA"/>
<path d="M89.1953 60.991H85.7324L89.1953 54.9508V60.991Z" fill="#2D93BA"/>
<path d="M95.0137 60.991H91.5508L95.0137 54.9508V60.991Z" fill="#2D93BA"/>
<path d="M95.0137 69.8758H91.5508L95.0137 63.8357V69.8758Z" fill="#2D93BA"/>
<path d="M77.5567 69.8758H74.0938L77.5567 63.8357V69.8758Z" fill="#2D93BA"/>
<path d="M98.7895 76H55.211C54.8723 76 54.5977 75.7253 54.5977 75.3866V74.2237C54.5977 73.885 54.8722 73.6104 55.211 73.6104H98.7895C99.1281 73.6104 99.4028 73.8849 99.4028 74.2237V75.3866C99.4028 75.7253 99.1281 76 98.7895 76Z" fill="#40596B"/>
<path d="M63.1308 59.2246H59.373L63.1308 53.0083V59.2246Z" fill="#3EA69B"/>
<path d="M69.4454 59.2246H65.6875L69.4454 53.0083V59.2246Z" fill="#3EA69B"/>
<path d="M68.9999 60.2499V64.7499L65.9999 61.7499C65.9999 61.7499 62.5724 63.2499 58.4999 63.2499C54.4275 63.2499 51 61.7499 51 61.7499L48 64.7424V60.9999C48 56.0192 52.0275 52 56.9999 52H64.4999V55.75C66.9899 55.75 68.9999 57.76 68.9999 60.2499Z" fill="#80362D"/>
<path d="M69 64.7499V60.2499C69 57.76 66.99 55.75 64.5 55.75V52H61.5V55.75C61.5 57.4067 62.8432 58.75 64.5 58.75C65.3272 58.75 66 59.422 66 60.2499V61.7499L69 64.7499Z" fill="#792E25"/>
<path d="M62.9999 77.9874V81.2499L58.5 87.2574L54 81.2499V77.9874C55.365 78.6392 56.895 78.9999 58.5 78.9999C60.105 78.9999 61.635 78.6399 62.9999 77.9874Z" fill="#F0B671"/>
<path d="M68.9999 64.75V68.4999C68.9999 72.6849 66.5474 76.2999 62.9999 77.9874C61.6349 78.6391 60.1049 78.9999 58.4999 78.9999C56.8949 78.9999 55.365 78.6399 54 77.9874C50.4525 76.2999 48 72.6849 48 68.4999V68.4782V64.7432L51 61.7507C51 61.7507 54.4275 63.2507 58.4999 63.2507C62.5724 63.2507 65.9999 61.7507 65.9999 61.7507L68.9999 64.75Z" fill="#F0C087"/>
<path d="M65.9995 61.7499L65.9965 61.7514V68.4998C65.9965 72.6848 63.544 76.2998 59.9965 77.9873C59.0658 78.4328 58.054 78.7283 56.998 78.879C57.49 78.9495 57.9888 78.999 58.4995 78.999C60.1045 78.999 61.6345 78.639 62.9995 77.9865C66.547 76.299 68.9995 72.6841 68.9995 68.4991V64.7491L65.9995 61.7499Z" fill="#F0B671"/>
<path d="M71.9998 88.0072V90.9922H45V86.6047V86.499C45 83.5973 47.3475 81.249 50.25 81.249H53.9999L58.4999 87.2565L62.9999 81.249H66.7499C69.6524 81.249 71.9998 83.5973 71.9998 86.499V86.6047V88.0072Z" fill="#4FBA6F"/>
<path d="M66.7501 81.2499H63.7471C66.6496 81.2499 68.997 83.5981 68.997 86.4998V86.6056V88.0073V90.9923H72V88.0073V86.6056V86.4998C72 83.5981 69.6525 81.2499 66.7501 81.2499Z" fill="#33B95B"/>
<defs>
<clipPath id="clip0">
<rect x="21" y="29" width="41" height="41" fill="white"/>
</clipPath>
</defs>
</svg>
