<svg width="43" height="43" viewBox="0 0 43 43" fill="none" xmlns="http://www.w3.org/2000/svg">
<circle cx="21.5" cy="21.5" r="21.5" fill="#FF003D"/>
<path d="M13.0444 28.9761C12.6541 29.327 12.2173 29.5024 11.7339 29.5024C11.0249 29.5024 10.4627 29.2625 10.0474 28.7827C9.632 28.3029 9.42432 27.6619 9.42432 26.8599C9.42432 26.3586 9.54069 25.8931 9.77344 25.4634C10.0062 25.0337 10.332 24.6935 10.751 24.4429C11.1735 24.1922 11.639 24.0669 12.1475 24.0669C12.6631 24.0669 13.1286 24.1976 13.5439 24.459C13.9629 24.7168 14.2887 25.0838 14.5215 25.5601C14.7542 26.0327 14.8742 26.5788 14.8813 27.1982V27.8911C14.8813 28.7541 14.7113 29.5024 14.3711 30.1362C14.0345 30.77 13.5529 31.257 12.9263 31.5972C12.2996 31.9373 11.5692 32.1074 10.7349 32.1074H10.6221V30.6572L10.9658 30.6519C12.2119 30.591 12.9048 30.0324 13.0444 28.9761ZM12.2227 28.1973C12.6165 28.1973 12.8994 28.0272 13.0713 27.687V26.9351C13.0713 26.4338 12.9871 26.0632 12.8188 25.8232C12.6506 25.5833 12.4232 25.4634 12.1367 25.4634C11.8825 25.4634 11.6694 25.5994 11.4976 25.8716C11.3257 26.1437 11.2397 26.4731 11.2397 26.8599C11.2397 27.2681 11.3275 27.5939 11.5029 27.8374C11.6784 28.0773 11.9183 28.1973 12.2227 28.1973ZM21.2783 28.8042C21.2783 29.8605 21.0402 30.6751 20.564 31.248C20.0913 31.821 19.4235 32.1074 18.5605 32.1074C17.6904 32.1074 17.0173 31.8192 16.541 31.2427C16.0648 30.6662 15.8267 29.8534 15.8267 28.8042V27.3755C15.8267 26.3192 16.063 25.5046 16.5356 24.9316C17.0119 24.3587 17.6833 24.0723 18.5498 24.0723C19.4163 24.0723 20.0877 24.3605 20.564 24.937C21.0402 25.5135 21.2783 26.3281 21.2783 27.3809V28.8042ZM19.4683 27.1445C19.4683 26.5824 19.3949 26.1634 19.248 25.8877C19.1012 25.6084 18.8685 25.4688 18.5498 25.4688C18.2383 25.4688 18.0109 25.5977 17.8677 25.8555C17.728 26.1133 17.6528 26.5036 17.6421 27.0264V29.0244C17.6421 29.6081 17.7155 30.036 17.8623 30.3081C18.0091 30.5767 18.2419 30.7109 18.5605 30.7109C18.8685 30.7109 19.0959 30.5802 19.2427 30.3188C19.3895 30.0539 19.4647 29.6403 19.4683 29.0781V27.1445ZM27.6484 28.8042C27.6484 29.8605 27.4103 30.6751 26.9341 31.248C26.4614 31.821 25.7936 32.1074 24.9307 32.1074C24.0605 32.1074 23.3874 31.8192 22.9111 31.2427C22.4349 30.6662 22.1968 29.8534 22.1968 28.8042V27.3755C22.1968 26.3192 22.4331 25.5046 22.9058 24.9316C23.382 24.3587 24.0534 24.0723 24.9199 24.0723C25.7865 24.0723 26.4578 24.3605 26.9341 24.937C27.4103 25.5135 27.6484 26.3281 27.6484 27.3809V28.8042ZM25.8384 27.1445C25.8384 26.5824 25.765 26.1634 25.6182 25.8877C25.4714 25.6084 25.2386 25.4688 24.9199 25.4688C24.6084 25.4688 24.381 25.5977 24.2378 25.8555C24.0981 26.1133 24.0229 26.5036 24.0122 27.0264V29.0244C24.0122 29.6081 24.0856 30.036 24.2324 30.3081C24.3792 30.5767 24.612 30.7109 24.9307 30.7109C25.2386 30.7109 25.466 30.5802 25.6128 30.3188C25.7596 30.0539 25.8348 29.6403 25.8384 29.0781V27.1445ZM32.6006 32H30.7852V26.2207L29.002 26.7417V25.3667L32.4341 24.1797H32.6006V32Z" fill="white"/>
<path d="M13.8369 22H12.1143V12.0469H13.8369V22ZM21.165 19.4365C21.165 18.999 21.0101 18.6618 20.7002 18.4248C20.3949 18.1878 19.8411 17.9486 19.0391 17.707C18.237 17.4655 17.599 17.1966 17.125 16.9004C16.2181 16.3307 15.7646 15.5879 15.7646 14.6719C15.7646 13.8698 16.0905 13.209 16.7422 12.6895C17.3984 12.1699 18.2484 11.9102 19.292 11.9102C19.9847 11.9102 20.6022 12.0378 21.1445 12.293C21.6868 12.5482 22.113 12.9128 22.4229 13.3867C22.7327 13.8561 22.8877 14.3779 22.8877 14.9521H21.165C21.165 14.4326 21.001 14.027 20.6729 13.7354C20.3493 13.4391 19.8844 13.291 19.2783 13.291C18.7132 13.291 18.2734 13.4118 17.959 13.6533C17.6491 13.8949 17.4941 14.2321 17.4941 14.665C17.4941 15.0296 17.6628 15.335 18 15.5811C18.3372 15.8226 18.8932 16.0596 19.668 16.292C20.4427 16.5199 21.0648 16.7819 21.5342 17.0781C22.0036 17.3698 22.3477 17.707 22.5664 18.0898C22.7852 18.4681 22.8945 18.9124 22.8945 19.4229C22.8945 20.2523 22.5755 20.9131 21.9375 21.4053C21.304 21.8929 20.4427 22.1367 19.3535 22.1367C18.6335 22.1367 17.9704 22.0046 17.3643 21.7402C16.7627 21.4714 16.2933 21.1022 15.9561 20.6328C15.6234 20.1634 15.457 19.6165 15.457 18.9922H17.1865C17.1865 19.5573 17.3734 19.9948 17.7471 20.3047C18.1208 20.6146 18.6562 20.7695 19.3535 20.7695C19.9551 20.7695 20.4062 20.6488 20.707 20.4072C21.0124 20.1611 21.165 19.8376 21.165 19.4365ZM32.3555 17.2832C32.3555 18.2585 32.1868 19.1152 31.8496 19.8535C31.5124 20.5872 31.0293 21.1523 30.4004 21.5488C29.776 21.9408 29.056 22.1367 28.2402 22.1367C27.4336 22.1367 26.7135 21.9408 26.0801 21.5488C25.4512 21.1523 24.9635 20.5895 24.6172 19.8604C24.2754 19.1312 24.1022 18.2904 24.0977 17.3379V16.7773C24.0977 15.8066 24.2686 14.9499 24.6104 14.207C24.9567 13.4642 25.4421 12.8968 26.0664 12.5049C26.6953 12.1084 27.4154 11.9102 28.2266 11.9102C29.0378 11.9102 29.7555 12.1061 30.3799 12.498C31.0088 12.8854 31.4941 13.446 31.8359 14.1797C32.1777 14.9089 32.3509 15.7588 32.3555 16.7295V17.2832ZM30.626 16.7637C30.626 15.6608 30.4163 14.8154 29.9971 14.2275C29.5824 13.6396 28.9922 13.3457 28.2266 13.3457C27.4792 13.3457 26.8936 13.6396 26.4697 14.2275C26.0505 14.8109 25.8363 15.638 25.8271 16.709V17.2832C25.8271 18.377 26.0391 19.2223 26.4629 19.8193C26.8913 20.4163 27.4837 20.7148 28.2402 20.7148C29.0059 20.7148 29.5938 20.4232 30.0039 19.8398C30.4186 19.2565 30.626 18.4043 30.626 17.2832V16.7637Z" fill="white"/>
</svg>
