<svg width="120" height="120" viewBox="0 0 120 120" fill="none" xmlns="http://www.w3.org/2000/svg">
<circle cx="60" cy="60" r="60" fill="#FFCEDA"/>
<path d="M82.2826 28.2666H27V100H82.2826V28.2666Z" fill="#86A0AF"/>
<path d="M28.9863 30.748H78.6091L80.2913 97.8415H30.6684L28.9863 30.748Z" fill="#DCE3DB"/>
<path d="M78.6102 30.748H29.8164V96.1923H78.6102V30.748Z" fill="white"/>
<path d="M48.2381 26.5225H61.6011C62.5633 26.5225 63.3511 27.3097 63.3511 28.2724V34.0161H46.4883V28.2724C46.4881 27.3102 47.2755 26.5225 48.2381 26.5225Z" fill="#666666"/>
<path d="M46.1249 33.583H63.7098C64.082 33.583 64.3835 33.8847 64.3835 34.2566C64.3835 34.6287 64.0819 34.9302 63.7098 34.9302H46.1249C45.7527 34.9302 45.4512 34.6285 45.4512 34.2566C45.451 33.8845 45.7528 33.583 46.1249 33.583Z" fill="#B0B0B0"/>
<path d="M53.1604 24.7785L51.738 33.5816H51.0059L52.4243 24.8005C52.0211 24.241 51.8158 23.5705 51.8158 22.9123C51.8158 22.4905 51.9 22.0716 52.0695 21.6885C52.2412 21.3013 52.5003 20.9511 52.8479 20.6704C53.9547 19.7771 55.8741 19.7762 56.9813 20.6698C57.3302 20.9517 57.5901 21.3032 57.7623 21.6912C57.9328 22.0759 58.0173 22.496 58.0173 22.9196C58.0173 23.5755 57.8139 24.2437 57.4121 24.8007L58.8305 33.5821H58.0984L56.6759 24.779C56.6546 24.6672 56.6875 24.5579 56.756 24.4777C57.1157 24.0277 57.2976 23.4693 57.2976 22.9196C57.2976 22.5935 57.2336 22.2725 57.1043 21.981C56.9769 21.6939 56.7862 21.4354 56.5312 21.2299C55.6897 20.5507 54.1393 20.5521 53.298 21.2304C53.0439 21.4352 52.8544 21.6929 52.7276 21.9785C52.5989 22.2683 52.5357 22.5883 52.5357 22.9125C52.5357 23.468 52.7219 24.0331 53.0872 24.4861C53.156 24.5717 53.1791 24.6787 53.1604 24.7785Z" fill="#FEFEFE"/>
<path d="M49.0156 49.9561H74.4525V50.5993H49.0156V49.9561ZM49.0156 56.1609H64.8838V56.8041H49.0156V56.1609ZM49.0156 53.0586H74.4525V53.7018H49.0156V53.0586Z" fill="#86A0AF"/>
<path d="M49.0156 66.4414H74.4525V67.0846H49.0156V66.4414ZM49.0156 72.6461H64.8838V73.2893H49.0156V72.6461ZM49.0156 69.5438H74.4525V70.187H49.0156V69.5438Z" fill="#86A0AF"/>
<path d="M49.0156 82.9258H74.4525V83.569H49.0156V82.9258ZM49.0156 89.1305H64.8838V89.7737H49.0156V89.1305ZM49.0156 86.0281H74.4525V86.6713H49.0156V86.0281Z" fill="#86A0AF"/>
<path d="M37.9154 48.5928C39.2372 48.5928 40.4339 49.1286 41.2999 49.9947L41.2994 49.9952C42.1658 50.8622 42.7022 52.0589 42.7022 53.3792C42.7022 54.7011 42.1663 55.8977 41.3002 56.7637C40.4342 57.6297 39.2376 58.1657 37.9157 58.1657C36.5952 58.1657 35.3985 57.6294 34.5317 56.7629L34.5309 56.7637C33.6649 55.8977 33.1289 54.7006 33.1289 53.3792C33.1289 52.0592 33.6647 50.8626 34.5309 49.9961L34.5317 49.9952L34.5326 49.9947C35.399 49.1287 36.5957 48.5928 37.9157 48.5928H37.9154ZM40.7949 50.4997C40.0579 49.7628 39.0397 49.3071 37.9155 49.3071C36.79 49.3071 35.7718 49.7625 35.0361 50.4985L35.0343 50.4998C34.2986 51.236 33.8429 52.2537 33.8429 53.3792C33.8429 54.5034 34.2991 55.5216 35.036 56.2586V56.2605C35.7716 56.9962 36.79 57.4519 37.9154 57.4519C39.0396 57.4519 40.0577 56.9957 40.7948 56.2588C41.5316 55.5218 41.9874 54.5036 41.9874 53.3794C41.9874 52.2538 41.532 51.2362 40.796 50.5H40.7949V50.4997Z" fill="#B1E4F9"/>
<path d="M37.9154 65.0781C39.2372 65.0781 40.4339 65.6136 41.2999 66.4801L41.2994 66.4806C42.1658 67.3476 42.7022 68.5442 42.7022 69.8646C42.7022 71.1864 42.1663 72.3831 41.3002 73.2491C40.4342 74.1151 39.2376 74.651 37.9157 74.651C36.5952 74.651 35.3985 74.1147 34.5317 73.2482L34.5309 73.2491C33.6649 72.3831 33.1289 71.1859 33.1289 69.8646C33.1289 68.5446 33.6647 67.3479 34.5309 66.4814L34.5317 66.4806L34.5326 66.4801C35.399 65.6141 36.5957 65.0781 37.9157 65.0781H37.9154ZM40.7949 66.9852C40.0579 66.2483 39.0397 65.7926 37.9155 65.7926C36.79 65.7926 35.7718 66.248 35.0361 66.984L35.0343 66.9853C34.2986 67.7215 33.8429 68.7392 33.8429 69.8647C33.8429 70.989 34.2991 72.0071 35.036 72.7442V72.7455C35.7716 73.481 36.79 73.9369 37.9154 73.9369C39.0396 73.9369 40.0577 73.4807 40.7948 72.7443C41.5316 72.0075 41.9874 70.9891 41.9874 69.8649C41.9874 68.7394 41.532 67.7217 40.796 66.9855H40.7949V66.9852Z" fill="#B1E4F9"/>
<path d="M37.9154 81.5625C39.2372 81.5625 40.4339 82.098 41.2999 82.9645L41.2994 82.9653C42.1658 83.8318 42.7022 85.0284 42.7022 86.3489C42.7022 87.6708 42.1663 88.8675 41.3002 89.7335C40.4342 90.5994 39.2376 91.1354 37.9157 91.1354C36.5952 91.1354 35.3985 90.5991 34.5317 89.7326L34.5309 89.7335C33.6649 88.8675 33.1289 87.6708 33.1289 86.3489C33.1289 85.0289 33.6647 83.8323 34.5309 82.9658L34.5317 82.9653L34.5326 82.9645C35.399 82.0985 36.5957 81.5625 37.9157 81.5625H37.9154ZM40.7949 83.4694C40.0579 82.7325 39.0397 82.2768 37.9155 82.2768C36.79 82.2768 35.7718 82.7322 35.0361 83.4682L35.0343 83.4695C34.2986 84.2057 33.8429 85.2236 33.8429 86.3489C33.8429 87.4732 34.2991 88.4913 35.036 89.2284V89.2297C35.7716 89.9659 36.79 90.4211 37.9154 90.4211C39.0396 90.4211 40.0577 89.9649 40.7948 89.2285C41.5316 88.4917 41.9874 87.4733 41.9874 86.3491C41.9874 85.2236 41.532 84.2059 40.796 83.4697H40.7949V83.4694Z" fill="#B1E4F9"/>
<path d="M35.3314 53.8781C35.1556 53.7437 35.1216 53.4921 35.2562 53.3163C35.3906 53.1405 35.6425 53.1066 35.8183 53.2411L37.2011 54.3009L39.3969 51.3271C39.5286 51.1491 39.7797 51.1122 39.9576 51.244C40.1353 51.3757 40.1726 51.6273 40.0404 51.8047L37.6105 55.0966L37.5998 55.1109C37.4654 55.2866 37.2135 55.3206 37.0377 55.186L35.3315 53.8786C35.3314 53.8786 35.3314 53.8781 35.3314 53.8781Z" fill="#FF003D"/>
<path d="M35.6028 70.5281C35.4271 70.3938 35.3931 70.1418 35.5277 69.966C35.6621 69.7903 35.914 69.7563 36.0898 69.8909L37.4726 70.9506L39.6684 67.9764C39.8001 67.7987 40.0512 67.7614 40.2291 67.8936C40.4068 68.0252 40.4441 68.2768 40.3119 68.4543L37.882 71.7462L37.8713 71.7604C37.7369 71.9362 37.485 71.9701 37.3092 71.8356L35.6028 70.5281Z" fill="#FF003D"/>
<path d="M35.6028 87.013C35.4271 86.8786 35.3931 86.627 35.5277 86.4514C35.6621 86.2756 35.914 86.2417 36.0898 86.3762L37.4726 87.436L39.6684 84.4617C39.8001 84.2841 40.0512 84.2468 40.2291 84.3789C40.4068 84.5106 40.4441 84.7622 40.3119 84.9397L37.882 88.2315L37.8713 88.2458C37.7369 88.4216 37.485 88.4555 37.3092 88.3209L35.603 87.0135V87.013H35.6028Z" fill="#FF003D"/>
<path d="M91.7565 34.4482H87.543V55.3949H91.7565V34.4482Z" fill="#86A0AF"/>
<path d="M87.543 55.3936H91.757L90.4414 59.5505H88.8587L87.5431 55.3936H87.543Z" fill="#FF0000"/>
<path d="M88.5361 20.6691H90.7599C91.3999 20.6691 91.9238 21.1929 91.9238 21.833V34.3875C91.9238 34.4209 91.897 34.447 91.8643 34.447H87.4326C87.3997 34.447 87.373 34.4202 87.373 34.3875V21.8329C87.373 21.1929 87.8968 20.6689 88.537 20.6689C88.5368 20.6691 88.5361 20.6691 88.5361 20.6691Z" fill="#FF0000"/>
<path d="M91.9255 21.8341V34.3916C91.9236 34.4223 91.8997 34.4467 91.869 34.4481H91.8659H91.3301V20.8193C91.6845 21.0192 91.9255 21.4001 91.9255 21.8341Z" fill="#ED4C54"/>
<path d="M89.2441 59.5508H90.0538V61.4867C90.0538 61.7096 89.8717 61.8911 89.6493 61.8911H89.6488C89.4264 61.8911 89.2443 61.7096 89.2443 61.4867V59.5508H89.2441Z" fill="#EEF3F7"/>
<path d="M87.373 21.9009H92.8429H93.138V22.2114V35.3983V35.519L93.0587 35.6094L92.5385 36.2004C92.2889 36.4223 91.8629 36.0824 92.1077 35.7781L92.5484 35.2774V22.5222H87.373V21.9004V21.9009Z" fill="#FAD24D"/>
<path d="M91.7587 34.4482H91.2363V55.3949H91.7587V34.4482Z" fill="#86A0AF"/>
<path d="M40.9612 42.9088C40.7325 42.9088 40.5469 42.7232 40.5469 42.4945C40.5469 42.2658 40.7325 42.0802 40.9612 42.0802H47.8004L49.3352 38.3606C49.4219 38.1495 49.6632 38.0491 49.8743 38.1355C49.9825 38.1799 50.0616 38.2652 50.1016 38.3659L50.103 38.3653L52.3794 44.1126L54.3166 40.8318C54.4328 40.6355 54.6865 40.5705 54.8831 40.6864C54.9454 40.7234 54.9939 40.7736 55.0285 40.8318L56.1517 42.5541L57.78 40.8219C57.9361 40.656 58.1982 40.6479 58.3647 40.8041C58.3964 40.834 58.4215 40.8672 58.4421 40.9029L59.1021 42.0809H67.9717C68.2004 42.0809 68.386 42.2665 68.386 42.4952C68.386 42.7239 68.2004 42.9095 67.9717 42.9095H58.8604V42.9087C58.7154 42.9087 58.5751 42.8327 58.4996 42.6973L57.9963 41.799L56.3942 43.5027L56.3937 43.5022C56.3714 43.5254 56.3462 43.5475 56.318 43.5653C56.1271 43.6895 55.8708 43.6347 55.7466 43.4438L54.6904 41.824L52.6734 45.2397C52.629 45.3261 52.5545 45.3968 52.4576 45.4352C52.2448 45.5188 52.0041 45.4141 51.9199 45.202L49.709 39.6199L48.4704 42.6211C48.4167 42.787 48.2607 42.9078 48.0766 42.9078H40.9614L40.9612 42.9088Z" fill="#FF0000"/>
</svg>
