<svg xmlns="http://www.w3.org/2000/svg" viewBox="0 0 141.52 90"><defs><style>.cls-1{fill:#ff3501;}</style></defs><title>Ресурс 272</title><g id="Шар_2" data-name="Шар 2"><g id="Шар_1-2" data-name="Шар 1"><path class="cls-1" d="M101.66,57a5.27,5.27,0,0,0,3.91-2.19l14.05-19.41a1.51,1.51,0,0,0-2.1-2.1l-19.42,14A5.35,5.35,0,0,0,101.24,57a3,3,0,0,0,.42,0Zm-2.76-5.5a2.38,2.38,0,0,1,1-1.72l11.85-8.57L103.14,53a2.4,2.4,0,0,1-1.72,1,2.36,2.36,0,0,1-1.83-.69,2.32,2.32,0,0,1-.69-1.83Z"/><path class="cls-1" d="M135.26,29.35a.29.29,0,0,0,0-.1s0-.05-.06-.08A41.08,41.08,0,0,0,129.82,22L133,18.74l2.13,2.12,6.36-6.37-6.36-6.35-6.37,6.35,2.13,2.13-3.22,3.22a40.79,40.79,0,0,0-7.22-5.35s0-.05-.07-.06l-.1,0a40.21,40.21,0,0,0-15.41-5.1V7.5h2.25a3.75,3.75,0,0,0,0-7.5H93.65a3.75,3.75,0,0,0,0,7.5H95.9V9.24a39.55,39.55,0,0,0-4.83.8A1.5,1.5,0,1,0,91.73,13a37.44,37.44,0,0,1,4.17-.71l1.61-.13L98.9,12v3a1.5,1.5,0,0,0,3,0V12.05a37.07,37.07,0,0,1,15.68,4.26l-1.48,2.56a1.51,1.51,0,0,0,.55,2.05,1.49,1.49,0,0,0,.76.2,1.51,1.51,0,0,0,1.29-.74l1.47-2.56a37.61,37.61,0,0,1,11.66,11.66L129.28,31a1.5,1.5,0,0,0,.75,2.8,1.63,1.63,0,0,0,.76-.2l2.55-1.48A37.25,37.25,0,0,1,137.62,48h-3a1.5,1.5,0,0,0,0,3h3a37.28,37.28,0,0,1-4.28,15.93l-2.55-1.48a1.5,1.5,0,0,0-2.06.55,1.51,1.51,0,0,0,.55,2l2.56,1.47a37.72,37.72,0,0,1-11.66,11.66l-1.47-2.55a1.5,1.5,0,1,0-2.6,1.5l1.48,2.55A37.12,37.12,0,0,1,101.9,87V84a1.5,1.5,0,0,0-3,0v3A38,38,0,0,1,91.74,86,1.5,1.5,0,1,0,91.07,89a40.5,40.5,0,0,0,9.09,1h.27a40.27,40.27,0,0,0,19.83-5.36.59.59,0,0,0,.14-.06s0,0,.08-.06a40.82,40.82,0,0,0,14.66-14.64l.08-.12a.21.21,0,0,0,0-.1,40.36,40.36,0,0,0,0-40.3Zm-.1-17,2.11,2.11-2.11,2.13L133,14.49ZM98.9,9V4.5H93.65a.75.75,0,0,1,0-1.5h13.5a.75.75,0,0,1,0,1.5H101.9V9l-1.5,0h-.24l-.74,0Z"/><path class="cls-1" d="M73.11,79.1a40.66,40.66,0,0,0,7.21,5.34l.08.07.09,0A40.05,40.05,0,0,0,95.9,89.65l9,0a40,40,0,0,0,4.84-.8,1.5,1.5,0,1,0-.67-2.92,37.44,37.44,0,0,1-4.17.71l-1.61.12-1.38.09v-3a1.51,1.51,0,1,0-3,0v3a37.25,37.25,0,0,1-15.68-4.26l1.48-2.57a1.51,1.51,0,0,0-.55-2,1.56,1.56,0,0,0-.75-.2,1.51,1.51,0,0,0-1.3.75l-1.47,2.56A37.83,37.83,0,0,1,69,69.46L71.53,68a1.5,1.5,0,0,0,.54-2,1.51,1.51,0,0,0-1.3-.74,1.58,1.58,0,0,0-.75.19l-2.56,1.48a37.34,37.34,0,0,1-4.28-15.92h3a1.5,1.5,0,0,0,0-3h-3A37.35,37.35,0,0,1,67.46,32L70,33.49a1.5,1.5,0,1,0,1.5-2.6L69,29.42A38,38,0,0,1,80.62,17.75l1.48,2.56a1.49,1.49,0,0,0,2.05.55,1.51,1.51,0,0,0,.55-2.05l-1.48-2.56A37.41,37.41,0,0,1,98.9,12v2.95a1.5,1.5,0,1,0,3,0V12a37.74,37.74,0,0,1,7.16.92,1.5,1.5,0,1,0,.68-2.92,40.63,40.63,0,0,0-9.09-1h-.28A40.27,40.27,0,0,0,80.54,14.3l-.14.06-.08.07A40.71,40.71,0,0,0,65.67,29.07a.54.54,0,0,0-.09.12s0,.06,0,.09a40.38,40.38,0,0,0,0,40.31.32.32,0,0,1,0,.09l.07.08A41.1,41.1,0,0,0,71,77"/><path class="cls-1" d="M40,8H30a2,2,0,0,0,0,4H40a2,2,0,0,0,0-4Z"/><path class="cls-1" d="M40,22H20a2,2,0,1,0,0,4H40a2,2,0,1,0,0-4Z"/><path class="cls-1" d="M40,36H10a2,2,0,0,0,0,4H40a2,2,0,0,0,0-4Z"/><path class="cls-1" d="M40,50H2a2,2,0,0,0,0,4H40a2,2,0,0,0,0-4Z"/><path class="cls-1" d="M40,64H14a2,2,0,1,0,0,4H40a2,2,0,1,0,0-4Z"/><path class="cls-1" d="M40,78H26a2,2,0,0,0,0,4H40a2,2,0,0,0,0-4Z"/></g></g></svg>