<svg width="48" height="48" viewBox="0 0 48 48" fill="none" xmlns="http://www.w3.org/2000/svg">
<path d="M24 48.0002C10.7453 48.0002 0 37.2549 0 24.0002C0 10.7455 10.7453 0.000183105 24 0.000183105C37.2547 0.000183105 48 10.7455 48 24.0002C47.9852 37.2486 37.2484 47.9853 24 48.0002ZM24 1.60018C13.473 1.60057 4.3668 8.93104 2.11797 19.2146C-0.130859 29.4986 5.08437 39.9607 14.65 44.3553C24.216 48.7494 35.5512 45.89 41.8879 37.4842C48.2246 29.0783 47.8531 17.3939 40.9953 9.40721C36.7375 4.45409 30.5316 1.60331 24 1.60018Z" fill="url(#paint0_linear)"/>
<path d="M23.9999 43.9151C13.0012 43.9151 4.08496 34.9988 4.08496 24.0002C4.08496 13.0015 13.0012 4.08527 23.9999 4.08527C34.9985 4.08527 43.9147 13.0015 43.9147 24.0002C43.902 34.9936 34.9933 43.9023 23.9999 43.9151ZM23.9999 5.61718C15.3608 5.61756 7.88782 11.633 6.04174 20.0724C4.19604 28.5121 8.47575 37.0981 16.3261 40.7046C24.1764 44.3111 33.4786 41.965 38.6791 35.0665C43.88 28.1684 43.5755 18.5797 37.9479 12.0253C34.4536 7.95993 29.3604 5.6198 23.9999 5.61718Z" fill="url(#paint1_linear)"/>
<path d="M23.2344 7.14914C23.2344 6.72611 23.5773 6.38318 24.0003 6.38318C24.4234 6.38318 24.7663 6.72611 24.7663 7.14914V8.68105C24.7663 9.10408 24.4234 9.44701 24.0003 9.44701C23.5773 9.44701 23.2344 9.10408 23.2344 8.68105V7.14914Z" fill="url(#paint2_linear)"/>
<path d="M6.38281 24.0002C6.38281 23.5772 6.72574 23.2343 7.14877 23.2343H8.68068C9.10371 23.2343 9.44664 23.5772 9.44664 24.0002C9.44664 24.4232 9.10371 24.7662 8.68069 24.7662H7.14877C6.72574 24.7662 6.38281 24.4232 6.38281 24.0002Z" fill="url(#paint3_linear)"/>
<path d="M23.2344 39.3193C23.2344 38.8963 23.5773 38.5533 24.0003 38.5533C24.4234 38.5533 24.7663 38.8963 24.7663 39.3193V40.8512C24.7663 41.2742 24.4234 41.6172 24.0003 41.6172C23.5773 41.6172 23.2344 41.2742 23.2344 40.8512V39.3193Z" fill="url(#paint4_linear)"/>
<path d="M38.5527 24.0002C38.5527 23.5772 38.8957 23.2343 39.3187 23.2343H40.8506C41.2736 23.2343 41.6166 23.5772 41.6166 24.0002C41.6166 24.4232 41.2736 24.7662 40.8506 24.7662H39.3187C38.8957 24.7662 38.5527 24.4232 38.5527 24.0002Z" fill="url(#paint5_linear)"/>
<path d="M30.9297 34.6528C31.3143 34.43 31.4286 33.9274 31.1781 33.5602L26.6173 26.8757C26.3438 26.4748 26.4152 25.9423 26.6573 25.5216C27.0547 24.8312 27.1718 24.001 26.9597 23.2099C26.7418 22.3989 26.2035 21.7253 25.4872 21.3302C25.0866 21.1093 24.7658 20.7249 24.7658 20.2675V12.5108C24.7658 12.0878 24.4228 11.7449 23.9998 11.7449C23.5768 11.7449 23.2339 12.0878 23.2339 12.5108V20.2775C23.2339 20.7303 22.9192 21.1117 22.5245 21.3336C21.3382 22.0006 20.7061 23.408 21.0744 24.7834C21.4475 26.1784 22.7289 27.0878 24.1123 27.0461C24.5369 27.0333 24.9728 27.1778 25.2122 27.5287L29.9148 34.4221C30.1405 34.7529 30.5831 34.8535 30.9297 34.6528ZM22.4679 24.0002C22.4679 23.1542 23.1538 22.4683 23.9998 22.4683C24.8458 22.4683 25.5317 23.1542 25.5317 24.0002C25.5317 24.8462 24.8458 25.5321 23.9998 25.5321C23.1538 25.5321 22.4679 24.8462 22.4679 24.0002Z" fill="url(#paint6_linear)"/>
<defs>
<linearGradient id="paint0_linear" x1="24" y1="0.000183105" x2="24" y2="48.0002" gradientUnits="userSpaceOnUse">
<stop stop-color="#FF003D"/>
<stop offset="0.563536" stop-color="#FF0000"/>
<stop offset="1" stop-color="#FF3D00"/>
</linearGradient>
<linearGradient id="paint1_linear" x1="23.9999" y1="4.08527" x2="23.9999" y2="43.9151" gradientUnits="userSpaceOnUse">
<stop stop-color="#FF003D"/>
<stop offset="0.563536" stop-color="#FF0000"/>
<stop offset="1" stop-color="#FF3D00"/>
</linearGradient>
<linearGradient id="paint2_linear" x1="24.0003" y1="6.38318" x2="24.0003" y2="9.44701" gradientUnits="userSpaceOnUse">
<stop stop-color="#FF003D"/>
<stop offset="0.563536" stop-color="#FF0000"/>
<stop offset="1" stop-color="#FF3D00"/>
</linearGradient>
<linearGradient id="paint3_linear" x1="7.91473" y1="23.2343" x2="7.91473" y2="24.7662" gradientUnits="userSpaceOnUse">
<stop stop-color="#FF003D"/>
<stop offset="0.563536" stop-color="#FF0000"/>
<stop offset="1" stop-color="#FF3D00"/>
</linearGradient>
<linearGradient id="paint4_linear" x1="24.0003" y1="38.5533" x2="24.0003" y2="41.6172" gradientUnits="userSpaceOnUse">
<stop stop-color="#FF003D"/>
<stop offset="0.563536" stop-color="#FF0000"/>
<stop offset="1" stop-color="#FF3D00"/>
</linearGradient>
<linearGradient id="paint5_linear" x1="40.0846" y1="23.2343" x2="40.0846" y2="24.7662" gradientUnits="userSpaceOnUse">
<stop stop-color="#FF003D"/>
<stop offset="0.563536" stop-color="#FF0000"/>
<stop offset="1" stop-color="#FF3D00"/>
</linearGradient>
<linearGradient id="paint6_linear" x1="25.3059" y1="11.7449" x2="25.3059" y2="33.0088" gradientUnits="userSpaceOnUse">
<stop stop-color="#FF003D"/>
<stop offset="0.563536" stop-color="#FF0000"/>
<stop offset="1" stop-color="#FF3D00"/>
</linearGradient>
</defs>
</svg>
