<svg width="49" height="51" viewBox="0 0 49 51" fill="none" xmlns="http://www.w3.org/2000/svg">
<path d="M48.1243 0.149297H0.875736C0.646049 0.139246 0.422452 0.22446 0.256712 0.384836C0.0914069 0.545212 -0.00168598 0.76633 5.41836e-05 0.997499V31.0599C-0.00255595 31.2932 0.0892319 31.5174 0.254537 31.6813C0.419407 31.8452 0.643874 31.9347 0.875736 31.9295H23.0123L22.7182 32.1633C22.4798 32.3446 22.3397 32.6274 22.3397 32.9276C22.3393 33.2278 22.4794 33.511 22.7173 33.6923L24.1859 34.8023L23.3389 36.441C23.2024 36.7067 23.1984 37.0213 23.3281 37.2905C23.4581 37.5597 23.7061 37.7515 23.9984 37.8092L25.7955 38.1606L25.738 40.0051C25.7233 40.4731 26.0517 40.8821 26.5106 40.9656L24.4878 46.9038C24.2747 47.4225 24.3817 48.0186 24.761 48.4307C25.1408 48.8427 25.7241 48.9957 26.2557 48.8226L28.0541 48.2379L28.8353 49.8465C29.0759 50.3412 29.5762 50.6554 30.1243 50.6558C30.1399 50.6558 30.156 50.6558 30.1717 50.6549C30.7368 50.6362 31.2384 50.2857 31.4524 49.76L32.3489 47.5541L33.1807 49.5961C33.3912 50.1249 33.8945 50.4771 34.4614 50.4911C34.4783 50.4911 34.4949 50.4924 34.5114 50.4924C35.0599 50.4954 35.5611 50.1804 35.7977 49.6831L36.579 48.0741L38.3774 48.6592C38.9089 48.8323 39.4923 48.6793 39.8721 48.2672C40.2514 47.8551 40.3584 47.2591 40.1453 46.7399L38.1842 40.9512C38.614 40.8437 38.9102 40.4487 38.895 40.0038L38.8376 38.1606L40.6351 37.8092C40.9278 37.7515 41.1762 37.5593 41.3054 37.2896C41.4351 37.02 41.4303 36.7049 41.2933 36.4393L40.4467 34.8036L41.9162 33.6949C42.1533 33.5149 42.2929 33.2339 42.2933 32.935C42.2925 32.633 42.1528 32.3481 41.9145 32.1633L41.6199 31.9295H48.1243C48.3561 31.9347 48.5806 31.8452 48.7455 31.6813C48.9108 31.5174 49.0026 31.2932 48.9999 31.0599V0.997499C49.0017 0.76633 48.9086 0.545212 48.7433 0.384836C48.5775 0.22446 48.354 0.139246 48.1243 0.149297ZM30.096 48.3607L29.5227 47.1809C29.2073 46.538 28.4712 45.2193 27.7917 45.4374L26.4206 46.8876L28.6265 40.5037L28.6966 40.4854L29.4426 42.1726C29.5492 42.4134 29.7502 42.5982 29.9977 42.6839C30.2457 42.7695 30.5175 42.7477 30.7485 42.624L31.3845 44.1845L30.096 48.3607ZM36.8396 45.2735C36.1601 45.0559 35.4241 46.3746 35.1091 47.0174L34.5358 48.1977L32.1862 41.4262L32.3159 41.3152L33.7123 42.5091C33.8837 42.6555 34.1016 42.7359 34.327 42.7354C34.397 42.7354 34.467 42.7276 34.5353 42.7123C34.8255 42.645 35.0678 42.4448 35.1891 42.1717L35.9352 40.4854L36.0805 40.5234L38.2107 46.7242L36.8396 45.2735ZM38.5383 35.0125L39.1952 36.2749L37.7966 36.5446C37.342 36.632 37.0184 37.0392 37.0336 37.5042L37.078 38.9367L35.6994 38.5735C35.2514 38.4538 34.7828 38.6797 34.5954 39.1062L34.0155 40.4176L32.9275 39.4877C32.5752 39.1853 32.0557 39.1857 31.7038 39.4886L30.6172 40.4172L30.0373 39.1062C29.8872 38.7627 29.5492 38.5412 29.1755 38.5407C29.0942 38.5407 29.0128 38.5517 28.9337 38.5722L27.5542 38.9354L27.5986 37.5033C27.6156 37.0371 27.291 36.628 26.8347 36.5402L25.437 36.2671L26.0935 34.9985C26.3088 34.5868 26.1944 34.0786 25.8229 33.8003L24.6792 32.9372L25.8211 32.0781C26.1926 31.8001 26.3084 31.2924 26.0943 30.8798L25.437 29.6099L26.8338 29.3368C27.2902 29.2499 27.6151 28.8408 27.5986 28.3746L27.5542 26.9408L28.9337 27.3039C29.3817 27.4232 29.8498 27.1969 30.0364 26.7708L30.6167 25.459L31.7016 26.3867C32.054 26.6913 32.5752 26.6921 32.9284 26.388L34.015 25.4594L34.5958 26.7726C34.7828 27.1982 35.2505 27.4237 35.6981 27.3039L37.0775 26.9412L37.0327 28.3772C37.0184 28.8426 37.3425 29.249 37.7971 29.3364L39.1947 29.6099L38.5383 30.879C38.323 31.2915 38.4383 31.7997 38.8102 32.0776L39.953 32.9529L38.8093 33.8313C38.4374 34.055 38.3238 34.6004 38.5383 35.0125ZM47.2181 30.1396H40.9148L41.2911 29.4251C41.4281 29.1607 41.4325 28.8465 41.3028 28.5782C41.1732 28.3103 40.9248 28.1194 40.6329 28.0643L38.8359 27.7147L38.8933 25.871C38.902 25.5717 38.7702 25.2863 38.537 25.0997C38.3038 24.9136 37.9972 24.8485 37.7092 24.9245L35.9343 25.3917L35.1891 23.7062C35.0682 23.4322 34.8259 23.2316 34.5353 23.1647C34.2443 23.0983 33.9394 23.1735 33.7123 23.3675L32.3154 24.5614L30.9177 23.3671C30.6907 23.173 30.3862 23.0983 30.0956 23.1647C29.8054 23.2316 29.5631 23.4317 29.4422 23.7053L28.6961 25.3917L26.9226 24.9249C26.6342 24.8485 26.3266 24.9136 26.093 25.1002C25.8598 25.2868 25.7276 25.5734 25.7372 25.8728L25.7946 27.716L23.9989 28.0674C23.707 28.125 23.4586 28.3169 23.3285 28.5856C23.1993 28.8513 23.2037 29.1629 23.3403 29.4247L23.7165 30.1396H1.78187V1.93922H47.2181V30.1396Z" fill="url(#paint0_linear)"/>
<path d="M5.90263 17.7105H42.9867C43.4787 17.7105 43.8776 17.3098 43.8776 16.8156C43.8776 16.3214 43.4787 15.9207 42.9867 15.9207H5.90263C5.41063 15.9207 5.01172 16.3214 5.01172 16.8156C5.01172 17.3098 5.41063 17.7105 5.90263 17.7105Z" fill="url(#paint1_linear)"/>
<path d="M5.90263 12.0075H25.1685C25.6605 12.0075 26.0594 11.6068 26.0594 11.1125C26.0594 10.6183 25.6605 10.2176 25.1685 10.2176H5.90263C5.41063 10.2176 5.01172 10.6183 5.01172 11.1125C5.01172 11.6068 5.41063 12.0075 5.90263 12.0075Z" fill="url(#paint2_linear)"/>
<defs>
<linearGradient id="paint0_linear" x1="24.5" y1="0.148499" x2="24.5" y2="53.6695" gradientUnits="userSpaceOnUse">
<stop stop-color="#FF003D"/>
<stop offset="0.563536" stop-color="#FF0000"/>
<stop offset="1" stop-color="#FF3D00"/>
</linearGradient>
<linearGradient id="paint1_linear" x1="24.4446" y1="15.9207" x2="24.4446" y2="17.7105" gradientUnits="userSpaceOnUse">
<stop stop-color="#FF003D"/>
<stop offset="0.563536" stop-color="#FF0000"/>
<stop offset="1" stop-color="#FF3D00"/>
</linearGradient>
<linearGradient id="paint2_linear" x1="15.5356" y1="10.2176" x2="15.5356" y2="12.0075" gradientUnits="userSpaceOnUse">
<stop stop-color="#FF003D"/>
<stop offset="0.563536" stop-color="#FF0000"/>
<stop offset="1" stop-color="#FF3D00"/>
</linearGradient>
</defs>
</svg>
