<svg xmlns="http://www.w3.org/2000/svg" viewBox="0 0 140.05 90"><defs><style>.cls-1{fill:#ff3501;}</style></defs><title>Ресурс 312</title><g id="Шар_2" data-name="Шар 2"><g id="Шар_1-2" data-name="Шар 1"><path class="cls-1" d="M112.87,22.71a1.32,1.32,0,1,0,.95-2.46,8.26,8.26,0,0,0-10.7,4.8h-1.26a1.32,1.32,0,1,0,0,2.64h.74c0,.09,0,.18,0,.26s0,.42,0,.62h-.76a1.33,1.33,0,0,0,0,2.65h1.4a8.28,8.28,0,0,0,10.56,4.44,1.32,1.32,0,0,0-.95-2.47,5.61,5.61,0,0,1-6-1.27,5.69,5.69,0,0,1-.6-.7h5a1.33,1.33,0,0,0,0-2.65h-6.06c0-.2,0-.41,0-.62s0-.17,0-.26h7a1.32,1.32,0,1,0,0-2.64H106a5.62,5.62,0,0,1,6.83-2.34Z"/><path class="cls-1" d="M109,56A28,28,0,1,0,81,28a28,28,0,0,0,28,28ZM95,43.85a21.1,21.1,0,0,0,12.39,5.26v4.2A25.24,25.24,0,0,1,92,46.82Zm15,5.29A21,21,0,0,0,122.87,44l3,3A25.29,25.29,0,0,1,110,53.34Zm-1-2.61A18.53,18.53,0,1,1,127.52,28,18.53,18.53,0,0,1,109,46.53Zm14-34.41a21.1,21.1,0,0,0-13-5.26V2.66a25.32,25.32,0,0,1,15.93,6.49ZM107.37,6.9a21.13,21.13,0,0,0-12.49,5.35l-3-3A25.23,25.23,0,0,1,107.37,2.7ZM93,14.13a21.17,21.17,0,0,0-5.16,12.68h-4.2a25.3,25.3,0,0,1,6.39-15.65ZM87.88,29.45A21.17,21.17,0,0,0,93.11,42l-3,3a25.22,25.22,0,0,1-6.46-15.5Zm39.84,15.64-3-3a21.07,21.07,0,0,0,5.36-12.67h4.2a25.3,25.3,0,0,1-6.59,15.64Zm6.61-18.28h-4.2A21.07,21.07,0,0,0,124.84,14l3-3a25.23,25.23,0,0,1,6.52,15.79Z"/><path class="cls-1" d="M64.69,88.91a1.31,1.31,0,0,0,.54.85,1.33,1.33,0,0,0,1,.22L78,87.92a1.33,1.33,0,0,0,1.07-1.53L78.82,85l2.8-2.27a5.47,5.47,0,0,1,3.93-1.26l19.19,1.4H105a19.92,19.92,0,0,0,11.7-3.83l.15-.12,22.85-22.38a1.32,1.32,0,0,0,.08-1.81,7.41,7.41,0,0,0-10.2-1l-10.59,7.92a9.44,9.44,0,0,0-9-3.39L99.23,60.17A11.67,11.67,0,0,1,94,59.9l-1.2-.34A19.38,19.38,0,0,0,75,63.36l-.49-2.79A1.31,1.31,0,0,0,73,59.5l-11.76,2a1.33,1.33,0,0,0-1.08,1.53ZM92.12,62.1l1.2.34a14.44,14.44,0,0,0,6.37.34l10.73-1.88a6.8,6.8,0,0,1,7.49,4.23L101.7,68a1.33,1.33,0,0,0-1,.84,1.32,1.32,0,0,0,1.48,1.76l17.64-3.09A1.33,1.33,0,0,0,120.87,66a9.77,9.77,0,0,0-.58-2l10.83-8.1,0,0a4.79,4.79,0,0,1,5.65-.21L115,77A17.35,17.35,0,0,1,105,80.31h-.06L85.75,78.88a8.1,8.1,0,0,0-5.81,1.83L78.3,82,75.57,66.45A16.75,16.75,0,0,1,92.12,62.1Zm-20,.23,4.06,23.22-9.17,1.6L63,63.93Z"/><path class="cls-1" d="M40,8H30a2,2,0,0,0,0,4H40a2,2,0,0,0,0-4Z"/><path class="cls-1" d="M40,22H20a2,2,0,1,0,0,4H40a2,2,0,1,0,0-4Z"/><path class="cls-1" d="M40,36H10a2,2,0,0,0,0,4H40a2,2,0,0,0,0-4Z"/><path class="cls-1" d="M40,50H2a2,2,0,0,0,0,4H40a2,2,0,0,0,0-4Z"/><path class="cls-1" d="M40,64H14a2,2,0,1,0,0,4H40a2,2,0,1,0,0-4Z"/><path class="cls-1" d="M40,78H26a2,2,0,0,0,0,4H40a2,2,0,0,0,0-4Z"/></g></g></svg>