<svg width="47" height="48" viewBox="0 0 47 48" fill="none" xmlns="http://www.w3.org/2000/svg">
<path d="M8.61689 4.93848H5.4835C5.05031 4.93848 4.7002 5.29101 4.7002 5.72533V10.4467C4.7002 10.881 5.05031 11.2335 5.4835 11.2335H8.6168C9.04999 11.2335 9.4001 10.881 9.4001 10.4467V5.72533C9.40019 5.29101 9.05008 4.93848 8.61689 4.93848ZM7.8335 9.65981H6.26689V6.51228H7.83359V9.65981H7.8335Z" fill="url(#paint0_linear)"/>
<path d="M21.1505 20.6765C20.7173 20.6765 20.3672 21.0291 20.3672 21.4634V27.7587C20.3672 28.193 20.7173 28.5455 21.1505 28.5455C21.5837 28.5455 21.9338 28.193 21.9338 27.7587V25.3979H25.0671V27.7587C25.0671 28.193 25.4172 28.5455 25.8504 28.5455C26.2836 28.5455 26.6337 28.193 26.6337 27.7587V21.4634C26.6337 21.0291 26.2836 20.6765 25.8504 20.6765C25.4172 20.6765 25.0671 21.0291 25.0671 21.4634V23.8241H21.9338V21.4634C21.9338 21.0291 21.5837 20.6765 21.1505 20.6765Z" fill="url(#paint1_linear)"/>
<path d="M33.6834 44.2834H11.7501C11.3169 44.2834 10.9668 44.636 10.9668 45.0703V46.6441C10.9668 47.0784 11.3169 47.4309 11.7501 47.4309C12.1833 47.4309 12.5334 47.0784 12.5334 46.6441V45.8572H33.6834C34.1166 45.8572 34.4667 45.5047 34.4667 45.0704C34.4667 44.6361 34.1166 44.2834 33.6834 44.2834Z" fill="url(#paint2_linear)"/>
<path d="M8.61689 23.8242H5.4835C5.05031 23.8242 4.7002 24.1767 4.7002 24.6111V26.1848C4.7002 26.6192 5.05031 26.9717 5.4835 26.9717C5.91669 26.9717 6.2668 26.6192 6.2668 26.1848V25.398H7.8335V29.3324C7.8335 29.7667 8.18361 30.1193 8.6168 30.1193C9.04999 30.1193 9.4001 29.7667 9.4001 29.3324V24.6112C9.40019 24.1767 9.05008 23.8242 8.61689 23.8242Z" fill="url(#paint3_linear)"/>
<path d="M3.91669 28.5455C0.0454393 28.5455 0 38.6728 0 38.7751C0 40.6754 1.34813 42.2642 3.1333 42.6301V46.6441C3.1333 47.0784 3.48341 47.431 3.9166 47.431C4.34979 47.431 4.69991 47.0784 4.69991 46.6441V42.6301C6.48508 42.2642 7.83321 40.6754 7.83321 38.7751C7.8333 38.6728 7.78786 28.5455 3.91669 28.5455ZM3.91669 41.1358C2.62107 41.1358 1.5667 40.0766 1.5667 38.7751C1.5667 34.8548 2.61483 30.1192 3.91669 30.1192C5.21856 30.1192 6.26669 34.8548 6.26669 38.7751C6.26669 40.0766 5.21232 41.1358 3.91669 41.1358Z" fill="url(#paint4_linear)"/>
<path d="M8.61689 14.3813H5.4835C5.05031 14.3813 4.7002 14.7339 4.7002 15.1682V19.8895C4.7002 20.3239 5.05031 20.6764 5.4835 20.6764H8.6168C9.04999 20.6764 9.4001 20.3239 9.4001 19.8895V15.1682C9.40019 14.7339 9.05008 14.3813 8.61689 14.3813ZM7.8335 19.1027H6.26689V15.9552H7.83359V19.1027H7.8335Z" fill="url(#paint5_linear)"/>
<path d="M19.5836 11.2338C20.0168 11.2338 20.3669 10.8812 20.3669 10.4469V5.72558C20.3669 5.29125 20.0168 4.93872 19.5836 4.93872H16.4503C16.0171 4.93872 15.667 5.29125 15.667 5.72558V10.4469C15.667 10.8812 16.0171 11.2338 16.4503 11.2338H19.5836ZM17.2336 6.51244H18.8003V9.65996H17.2336V6.51244Z" fill="url(#paint6_linear)"/>
<path d="M15.667 34.0537C15.667 34.4881 16.0171 34.8406 16.4503 34.8406H18.8003V41.9227C18.8003 42.3571 19.1504 42.7096 19.5836 42.7096C20.0168 42.7096 20.3669 42.3571 20.3669 41.9227V34.8406H26.6336V41.9227C26.6336 42.3571 26.9837 42.7096 27.4169 42.7096C27.8501 42.7096 28.2002 42.3571 28.2002 41.9227V34.8406H30.5502C30.9834 34.8406 31.3335 34.4881 31.3335 34.0537C31.3335 33.6194 30.9834 33.2668 30.5502 33.2668H16.4503C16.0171 33.2668 15.667 33.6194 15.667 34.0537Z" fill="url(#paint7_linear)"/>
<path d="M37.5996 29.3324C37.5996 29.7667 37.9497 30.1193 38.3829 30.1193H41.5162C41.9494 30.1193 42.2995 29.7667 42.2995 29.3324V24.6111C42.2995 24.1767 41.9494 23.8242 41.5162 23.8242H38.3829C37.9497 23.8242 37.5996 24.1767 37.5996 24.6111V29.3324ZM39.1663 25.398H40.733V28.5455H39.1663V25.398Z" fill="url(#paint8_linear)"/>
<path d="M37.5996 38.775C37.5996 39.2094 37.9497 39.5619 38.3829 39.5619H41.5162C41.9494 39.5619 42.2995 39.2094 42.2995 38.775V34.0537C42.2995 33.6194 41.9494 33.2668 41.5162 33.2668H38.3829C37.9497 33.2668 37.5996 33.6194 37.5996 34.0537V38.775ZM39.1663 34.8407H40.733V37.9882H39.1663V34.8407Z" fill="url(#paint9_linear)"/>
<path d="M37.5996 19.8895C37.5996 20.3239 37.9497 20.6764 38.3829 20.6764H41.5162C41.9494 20.6764 42.2995 20.3239 42.2995 19.8895V15.1682C42.2995 14.7339 41.9494 14.3813 41.5162 14.3813H38.3829C37.9497 14.3813 37.5996 14.7339 37.5996 15.1682V19.8895ZM39.1663 15.9552H40.733V19.1027H39.1663V15.9552Z" fill="url(#paint10_linear)"/>
<path d="M38.3829 11.2338H41.5162C41.9494 11.2338 42.2995 10.8812 42.2995 10.4469V5.72558C42.2995 5.29125 41.9494 4.93872 41.5162 4.93872H38.3829C37.9497 4.93872 37.5996 5.29125 37.5996 5.72558V10.4469C37.5996 10.8812 37.9497 11.2338 38.3829 11.2338ZM39.1663 6.51244H40.733V9.65996H39.1663V6.51244Z" fill="url(#paint11_linear)"/>
<path d="M46.2167 0.217041H0.783303C0.350113 0.217041 0 0.569576 0 1.00391V26.1846C0 26.6189 0.350113 26.9715 0.783303 26.9715C1.21649 26.9715 1.56661 26.6189 1.56661 26.1846V1.79086H45.4333V42.8542C45.1874 42.766 44.9265 42.7094 44.65 42.7094C44.5145 42.7094 44.3797 42.7212 44.2474 42.7448C43.7077 41.7667 42.6776 41.1356 41.5167 41.1356C40.3558 41.1356 39.3257 41.7667 38.786 42.7448C38.6536 42.7212 38.5189 42.7094 38.3834 42.7094C37.0878 42.7094 36.0334 43.7686 36.0334 45.0701C36.0334 46.3716 37.0878 47.4308 38.3834 47.4308H44.65C45.9456 47.4308 47 46.3716 47 45.0701V1.00391C47 0.569576 46.6499 0.217041 46.2167 0.217041ZM44.65 45.857H38.3833C37.9509 45.857 37.6 45.5037 37.6 45.0701C37.6 44.6365 37.9509 44.2832 38.3833 44.2832C38.5329 44.2832 38.6762 44.3265 38.8079 44.4115C39.0218 44.5507 39.2904 44.5752 39.527 44.4799C39.7636 44.3831 39.9374 44.177 39.9962 43.9276C40.1615 43.2107 40.7858 42.7094 41.5166 42.7094C42.2475 42.7094 42.8718 43.2107 43.037 43.9276C43.0958 44.177 43.2696 44.3832 43.5062 44.4799C43.7428 44.5752 44.0106 44.5507 44.2253 44.4115C44.7353 44.081 45.4332 44.4863 45.4332 45.0701C45.4333 45.5037 45.0824 45.857 44.65 45.857Z" fill="url(#paint12_linear)"/>
<path d="M22.944 38.2165C22.8022 38.366 22.7168 38.5706 22.7168 38.7752C22.7168 38.9799 22.8022 39.1844 22.944 39.334C23.0921 39.4757 23.2965 39.5623 23.5002 39.5623C23.7039 39.5623 23.9075 39.4757 24.0564 39.334C24.1974 39.1845 24.2836 38.9799 24.2836 38.7752C24.2836 38.5706 24.1974 38.3661 24.0564 38.2165C23.7665 37.9252 23.2417 37.9252 22.944 38.2165Z" fill="url(#paint13_linear)"/>
<path d="M33.6831 14.3813H13.3165C12.8833 14.3813 12.5332 14.7339 12.5332 15.1682V41.9227C12.5332 42.3571 12.8833 42.7096 13.3165 42.7096C13.7497 42.7096 14.0998 42.3571 14.0998 41.9227V15.9551H32.8998V41.9227C32.8998 42.3571 33.2499 42.7096 33.6831 42.7096C34.1163 42.7096 34.4664 42.3571 34.4664 41.9227V15.1682C34.4665 14.7339 34.1163 14.3813 33.6831 14.3813Z" fill="url(#paint14_linear)"/>
<path d="M30.5504 11.2338C30.9836 11.2338 31.3337 10.8812 31.3337 10.4469V5.72558C31.3337 5.29125 30.9836 4.93872 30.5504 4.93872H27.4171C26.9839 4.93872 26.6338 5.29125 26.6338 5.72558V10.4469C26.6338 10.8812 26.9839 11.2338 27.4171 11.2338H30.5504ZM28.2004 6.51244H29.7671V9.65996H28.2004V6.51244Z" fill="url(#paint15_linear)"/>
<defs>
<linearGradient id="paint0_linear" x1="7.05015" y1="4.93848" x2="7.05015" y2="11.2335" gradientUnits="userSpaceOnUse">
<stop stop-color="#FF003D"/>
<stop offset="0.563536" stop-color="#FF0000"/>
<stop offset="1" stop-color="#FF3D00"/>
</linearGradient>
<linearGradient id="paint1_linear" x1="23.5004" y1="20.6765" x2="23.5004" y2="28.5455" gradientUnits="userSpaceOnUse">
<stop stop-color="#FF003D"/>
<stop offset="0.563536" stop-color="#FF0000"/>
<stop offset="1" stop-color="#FF3D00"/>
</linearGradient>
<linearGradient id="paint2_linear" x1="22.7168" y1="44.2834" x2="22.7168" y2="47.4309" gradientUnits="userSpaceOnUse">
<stop stop-color="#FF003D"/>
<stop offset="0.563536" stop-color="#FF0000"/>
<stop offset="1" stop-color="#FF3D00"/>
</linearGradient>
<linearGradient id="paint3_linear" x1="7.05015" y1="23.8242" x2="7.05015" y2="30.1193" gradientUnits="userSpaceOnUse">
<stop stop-color="#FF003D"/>
<stop offset="0.563536" stop-color="#FF0000"/>
<stop offset="1" stop-color="#FF3D00"/>
</linearGradient>
<linearGradient id="paint4_linear" x1="3.9166" y1="28.5455" x2="3.9166" y2="47.431" gradientUnits="userSpaceOnUse">
<stop stop-color="#FF003D"/>
<stop offset="0.563536" stop-color="#FF0000"/>
<stop offset="1" stop-color="#FF3D00"/>
</linearGradient>
<linearGradient id="paint5_linear" x1="7.05015" y1="14.3813" x2="7.05015" y2="20.6764" gradientUnits="userSpaceOnUse">
<stop stop-color="#FF003D"/>
<stop offset="0.563536" stop-color="#FF0000"/>
<stop offset="1" stop-color="#FF3D00"/>
</linearGradient>
<linearGradient id="paint6_linear" x1="18.0169" y1="4.93872" x2="18.0169" y2="11.2338" gradientUnits="userSpaceOnUse">
<stop stop-color="#FF003D"/>
<stop offset="0.563536" stop-color="#FF0000"/>
<stop offset="1" stop-color="#FF3D00"/>
</linearGradient>
<linearGradient id="paint7_linear" x1="23.5003" y1="33.2668" x2="23.5003" y2="42.7096" gradientUnits="userSpaceOnUse">
<stop stop-color="#FF003D"/>
<stop offset="0.563536" stop-color="#FF0000"/>
<stop offset="1" stop-color="#FF3D00"/>
</linearGradient>
<linearGradient id="paint8_linear" x1="39.9496" y1="23.8242" x2="39.9496" y2="30.1193" gradientUnits="userSpaceOnUse">
<stop stop-color="#FF003D"/>
<stop offset="0.563536" stop-color="#FF0000"/>
<stop offset="1" stop-color="#FF3D00"/>
</linearGradient>
<linearGradient id="paint9_linear" x1="39.9496" y1="33.2668" x2="39.9496" y2="39.5619" gradientUnits="userSpaceOnUse">
<stop stop-color="#FF003D"/>
<stop offset="0.563536" stop-color="#FF0000"/>
<stop offset="1" stop-color="#FF3D00"/>
</linearGradient>
<linearGradient id="paint10_linear" x1="39.9496" y1="14.3813" x2="39.9496" y2="20.6764" gradientUnits="userSpaceOnUse">
<stop stop-color="#FF003D"/>
<stop offset="0.563536" stop-color="#FF0000"/>
<stop offset="1" stop-color="#FF3D00"/>
</linearGradient>
<linearGradient id="paint11_linear" x1="39.9496" y1="4.93872" x2="39.9496" y2="11.2338" gradientUnits="userSpaceOnUse">
<stop stop-color="#FF003D"/>
<stop offset="0.563536" stop-color="#FF0000"/>
<stop offset="1" stop-color="#FF3D00"/>
</linearGradient>
<linearGradient id="paint12_linear" x1="23.5" y1="0.217041" x2="23.5" y2="47.4308" gradientUnits="userSpaceOnUse">
<stop stop-color="#FF003D"/>
<stop offset="0.563536" stop-color="#FF0000"/>
<stop offset="1" stop-color="#FF3D00"/>
</linearGradient>
<linearGradient id="paint13_linear" x1="23.5002" y1="37.998" x2="23.5002" y2="39.5623" gradientUnits="userSpaceOnUse">
<stop stop-color="#FF003D"/>
<stop offset="0.563536" stop-color="#FF0000"/>
<stop offset="1" stop-color="#FF3D00"/>
</linearGradient>
<linearGradient id="paint14_linear" x1="23.4998" y1="14.3813" x2="23.4998" y2="42.7096" gradientUnits="userSpaceOnUse">
<stop stop-color="#FF003D"/>
<stop offset="0.563536" stop-color="#FF0000"/>
<stop offset="1" stop-color="#FF3D00"/>
</linearGradient>
<linearGradient id="paint15_linear" x1="28.9837" y1="4.93872" x2="28.9837" y2="11.2338" gradientUnits="userSpaceOnUse">
<stop stop-color="#FF003D"/>
<stop offset="0.563536" stop-color="#FF0000"/>
<stop offset="1" stop-color="#FF3D00"/>
</linearGradient>
</defs>
</svg>
