<svg width="48" height="48" viewBox="0 0 48 48" fill="none" xmlns="http://www.w3.org/2000/svg">
<path d="M26.4008 3.19995H21.6007C19.3951 3.19995 17.6006 4.99436 17.6006 7.20006C17.6006 7.64163 17.959 8.00004 18.4006 8.00004C18.8421 8.00004 19.2006 7.64163 19.2006 7.20006C19.2006 5.87684 20.2775 4.80001 21.6007 4.80001H26.4008C27.724 4.80001 28.8008 5.87684 28.8008 7.20006C28.8008 7.64163 29.1592 8.00004 29.6008 8.00004C30.0424 8.00004 30.4008 7.64163 30.4008 7.20006C30.4009 4.99445 28.6064 3.19995 26.4008 3.19995Z" fill="url(#paint0_linear)"/>
<path d="M44.0008 9.6001H4.0001C1.79441 9.6001 0 11.3945 0 13.6002V18.4003C0 19.4851 0.648856 20.3588 1.60006 20.674V44.0008C1.60006 46.2064 3.39447 48.0009 5.60017 48.0009H42.4008C44.6064 48.0009 46.4009 46.2065 46.4009 44.0008V23.2004C46.4009 22.7588 46.0425 22.4004 45.6009 22.4004C45.1594 22.4004 44.801 22.7588 44.801 23.2004V44.0008C44.801 45.324 43.7241 46.4008 42.4009 46.4008H5.60007C4.27686 46.4008 3.20003 45.324 3.20003 44.0008V20.0004C3.20003 19.5588 2.84161 19.2004 2.40004 19.2004C1.90644 19.2004 1.60006 18.894 1.60006 18.4004V13.6003C1.60006 12.2771 2.67689 11.2003 4.0001 11.2003H44.0009C45.3241 11.2003 46.4009 12.2771 46.4009 13.6003V18.4004C46.4009 18.886 46.0865 19.2004 45.6009 19.2004H41.6008V16.0003C41.6008 15.1179 40.8833 14.4003 40.0008 14.4003H38.4007C37.5183 14.4003 36.8006 15.1179 36.8006 16.0003V19.2003H11.2002V16.0002C11.2002 15.1179 10.4827 14.4002 9.60018 14.4002H8.00012C7.11772 14.4002 6.40006 15.1178 6.40006 16.0002V19.2003H5.63364C5.19122 19.2003 4.83365 19.5587 4.83365 20.0003C4.83365 20.4418 5.19122 20.8002 5.63364 20.8002H7.20013C7.6417 20.8002 8.00012 20.4418 8.00012 20.0003V16.0002H9.60018V20.0003C9.60018 20.4418 9.95859 20.8002 10.4002 20.8002H37.6006C38.0422 20.8002 38.4006 20.4418 38.4006 20.0003V16.0002H40.0007V20.0003C40.0007 20.4418 40.3591 20.8002 40.8007 20.8002H45.6007C46.9688 20.8002 48.0008 19.7682 48.0008 18.4002V13.6001C48.0009 11.3945 46.2065 9.6001 44.0008 9.6001Z" fill="url(#paint1_linear)"/>
<path d="M15.2004 8.00012C15.6419 8.00012 16.0004 7.6417 16.0004 7.20013C16.0004 4.32167 18.722 1.60006 21.6004 1.60006H26.4005C29.3318 1.60006 32.0006 4.26889 32.0006 7.20013C32.0006 7.6417 32.359 8.00012 32.8006 8.00012C33.2421 8.00012 33.6007 7.6417 33.6007 7.20013C33.6007 3.36484 30.2359 0 26.4006 0H21.6005C17.8325 0 14.4004 3.43206 14.4004 7.20013C14.4004 7.6417 14.7588 8.00012 15.2004 8.00012Z" fill="url(#paint2_linear)"/>
<path d="M21.6001 41.6008H26.4002C26.8417 41.6008 27.2001 41.2424 27.2001 40.8008V36.8007H31.2002C31.6418 36.8007 32.0002 36.4423 32.0002 36.0007V31.2007C32.0002 30.7591 31.6418 30.4007 31.2002 30.4007H27.2001V26.4006C27.2001 25.959 26.8417 25.6006 26.4002 25.6006H21.6001C21.1585 25.6006 20.8001 25.959 20.8001 26.4006V30.4007H16.8C16.3584 30.4007 16 30.7591 16 31.2007V36.0007C16 36.4423 16.3584 36.8007 16.8 36.8007H20.8001V40.8008C20.8001 41.2424 21.1585 41.6008 21.6001 41.6008ZM17.6 35.2008V32.0007H21.6001C22.0416 32.0007 22.4001 31.6423 22.4001 31.2008V27.2006H25.6001V31.2007C25.6001 31.6422 25.9585 32.0006 26.4001 32.0006H30.4002V35.2007H26.4002C25.9586 35.2007 25.6002 35.5591 25.6002 36.0007V40.0008H22.4001V36.0007C22.4001 35.5592 22.0417 35.2008 21.6002 35.2008H17.6Z" fill="url(#paint3_linear)"/>
<path d="M37.6008 22.4004C37.1592 22.4004 36.8008 22.7588 36.8008 23.2004V24.0005C36.8008 24.8828 37.5184 25.6005 38.4008 25.6005H40.0009C40.8833 25.6005 41.601 24.8829 41.601 24.0005V23.2005C41.601 22.7589 41.2426 22.4005 40.801 22.4005C40.3594 22.4005 40.001 22.7589 40.001 23.2005V24.0005H38.4007V23.2005C38.4007 22.7588 38.0423 22.4004 37.6008 22.4004Z" fill="url(#paint4_linear)"/>
<path d="M7.20037 22.4004C6.7588 22.4004 6.40039 22.7588 6.40039 23.2004V24.0005C6.40039 24.8828 7.11797 25.6005 8.00045 25.6005H9.60042C10.4828 25.6005 11.2005 24.8829 11.2005 24.0005V23.2005C11.2005 22.7589 10.8421 22.4005 10.4005 22.4005C9.95893 22.4005 9.60051 22.7589 9.60051 23.2005V24.0005H8.00036V23.2005C8.00036 22.7588 7.64195 22.4004 7.20037 22.4004Z" fill="url(#paint5_linear)"/>
<defs>
<linearGradient id="paint0_linear" x1="24.0007" y1="3.19995" x2="24.0007" y2="8.00004" gradientUnits="userSpaceOnUse">
<stop stop-color="#FF003D"/>
<stop offset="0.563536" stop-color="#FF0000"/>
<stop offset="1" stop-color="#FF3D00"/>
</linearGradient>
<linearGradient id="paint1_linear" x1="24.0004" y1="9.6001" x2="24.0004" y2="48.0009" gradientUnits="userSpaceOnUse">
<stop stop-color="#FF003D"/>
<stop offset="0.563536" stop-color="#FF0000"/>
<stop offset="1" stop-color="#FF3D00"/>
</linearGradient>
<linearGradient id="paint2_linear" x1="24.0006" y1="0" x2="24.0006" y2="8.00012" gradientUnits="userSpaceOnUse">
<stop stop-color="#FF003D"/>
<stop offset="0.563536" stop-color="#FF0000"/>
<stop offset="1" stop-color="#FF3D00"/>
</linearGradient>
<linearGradient id="paint3_linear" x1="24.0001" y1="25.6006" x2="24.0001" y2="41.6008" gradientUnits="userSpaceOnUse">
<stop stop-color="#FF003D"/>
<stop offset="0.563536" stop-color="#FF0000"/>
<stop offset="1" stop-color="#FF3D00"/>
</linearGradient>
<linearGradient id="paint4_linear" x1="39.2009" y1="22.4004" x2="39.2009" y2="25.6005" gradientUnits="userSpaceOnUse">
<stop stop-color="#FF003D"/>
<stop offset="0.563536" stop-color="#FF0000"/>
<stop offset="1" stop-color="#FF3D00"/>
</linearGradient>
<linearGradient id="paint5_linear" x1="8.80044" y1="22.4004" x2="8.80044" y2="25.6005" gradientUnits="userSpaceOnUse">
<stop stop-color="#FF003D"/>
<stop offset="0.563536" stop-color="#FF0000"/>
<stop offset="1" stop-color="#FF3D00"/>
</linearGradient>
</defs>
</svg>
