<svg width="52" height="49" viewBox="0 0 52 49" fill="none" xmlns="http://www.w3.org/2000/svg">
<path d="M12.8928 46.4143H0.859489C0.384166 46.4143 0 46.7994 0 47.2738C0 47.7482 0.384166 48.1333 0.859489 48.1333H12.8928C13.3682 48.1333 13.7523 47.7482 13.7523 47.2738C13.7523 46.7994 13.3682 46.4143 12.8928 46.4143Z" fill="url(#paint0_linear)"/>
<path d="M4.29764 39.538C4.77297 39.538 5.15713 39.1529 5.15713 38.6785C5.15713 38.2041 4.77297 37.819 4.29764 37.819C2.85103 37.819 1.71908 36.6862 1.71908 35.2404V32.6619H2.57857C3.05389 32.6619 3.43806 32.2768 3.43806 31.8024C3.43806 31.328 3.05389 30.9429 2.57857 30.9429H1.71908V18.9095H6.01672C6.49204 18.9095 6.87621 18.5244 6.87621 18.05C6.87621 17.5756 6.49204 17.1905 6.01672 17.1905H1.71908V9.45478C1.71908 8.03314 2.87601 6.87621 4.29764 6.87621H24.9262C25.4015 6.87621 25.7857 6.49114 25.7857 6.01672V3.43806C25.7857 1.51017 24.2755 0 22.3476 0C20.4515 0 18.9096 1.542 18.9096 3.43806V5.15713H4.29764C1.92788 5.15713 0 7.08502 0 9.45468V35.2403C0 37.6505 1.88749 39.538 4.29764 39.538ZM20.6285 3.43806C20.6285 2.49003 21.3995 1.71898 22.3476 1.71898C23.3284 1.71898 24.0667 2.4582 24.0667 3.43806V5.15713H20.6285V3.43806Z" fill="url(#paint1_linear)"/>
<path d="M26.6451 46.4143H18.0499C17.5746 46.4143 17.1904 46.7994 17.1904 47.2738C17.1904 47.7482 17.5746 48.1333 18.0499 48.1333H26.6451C27.1204 48.1333 27.5046 47.7482 27.5046 47.2738C27.5046 46.7994 27.1204 46.4143 26.6451 46.4143Z" fill="url(#paint2_linear)"/>
<path d="M12.8932 24.0666H16.3313C16.8066 24.0666 17.1908 23.6815 17.1908 23.2071V20.6285H19.7694C20.2447 20.6285 20.6288 20.2434 20.6288 19.769V16.3309C20.6288 15.8565 20.2447 15.4714 19.7694 15.4714H17.1908V12.8928C17.1908 12.4184 16.8066 12.0333 16.3313 12.0333H12.8932C12.4179 12.0333 12.0338 12.4184 12.0338 12.8928V15.4714H9.45519C8.97987 15.4714 8.5957 15.8565 8.5957 16.3309V19.7689C8.5957 20.2433 8.97987 20.6284 9.45519 20.6284H12.0338V23.207C12.0338 23.6815 12.4179 24.0666 12.8932 24.0666ZM10.3147 18.9094V17.1904H12.8932C13.3686 17.1904 13.7527 16.8053 13.7527 16.3309V13.7523H15.4718V16.3309C15.4718 16.8053 15.856 17.1904 16.3313 17.1904H18.9099V18.9094H16.3313C15.856 18.9094 15.4718 19.2945 15.4718 19.7689V22.3475H13.7527V19.7689C13.7527 19.2945 13.3686 18.9094 12.8932 18.9094H10.3147Z" fill="url(#paint3_linear)"/>
<path d="M42.1167 36.0999C40.695 36.0999 39.5381 37.2568 39.5381 38.6784C39.5381 40.1001 40.695 41.257 42.1167 41.257C43.5383 41.257 44.6952 40.1001 44.6952 38.6784C44.6952 37.2568 43.5383 36.0999 42.1167 36.0999ZM42.1167 39.5379C41.6422 39.5379 41.2572 39.152 41.2572 38.6784C41.2572 38.2048 41.6422 37.8189 42.1167 37.8189C42.5911 37.8189 42.9761 38.2048 42.9761 38.6784C42.9762 39.152 42.5912 39.5379 42.1167 39.5379Z" fill="url(#paint4_linear)"/>
<path d="M50.46 25.1779L48.0697 22.7876L45.5539 9.3705C45.5083 7.03952 43.5993 5.15717 41.2571 5.15717H28.3643C27.889 5.15717 27.5048 5.54224 27.5048 6.01665V17.1904H23.2071C22.7318 17.1904 22.3477 17.5755 22.3477 18.0499C22.3477 18.5243 22.7318 18.9094 23.2071 18.9094H27.5048V21.4879C27.5048 23.03 28.5414 24.0665 30.0834 24.0665H46.918L49.2447 26.3933C49.7347 26.8832 49.8507 28.01 49.8524 28.3642V30.9427H48.9928C48.5175 30.9427 48.1333 31.3278 48.1333 31.8022C48.1333 32.2766 48.5175 32.6617 48.9928 32.6617H49.8523V37.8188H48.0645C47.6459 34.9077 45.1422 32.6617 42.1166 32.6617C38.7997 32.6617 36.1 35.3606 36.1 38.6783C36.1 41.9961 38.7997 44.6949 42.1166 44.6949C45.1421 44.6949 47.6459 42.449 48.0645 39.5378H50.7119C51.1872 39.5378 51.5714 39.1527 51.5714 38.6783V28.3641C51.5714 28.1518 51.5405 26.2574 50.46 25.1779ZM41.7883 22.3474L42.8859 20.153C43.0983 19.7285 42.9255 19.2128 42.5009 18.9995C42.0771 18.7872 41.5614 18.9599 41.3474 19.3846L39.8664 22.3473H30.0834C29.5049 22.3473 29.2239 22.0663 29.2239 21.4879V6.87604H41.2571C42.6547 6.87604 43.8357 8.05705 43.8357 9.45461C43.8357 9.50789 43.8408 9.56118 43.8512 9.61275L46.239 22.3474H41.7883ZM42.1166 42.976C39.7469 42.976 37.819 41.0481 37.819 38.6783C37.819 36.3087 39.7468 34.3807 42.1166 34.3807C44.4863 34.3807 46.4142 36.3086 46.4142 38.6783C46.4142 41.0481 44.4864 42.976 42.1166 42.976Z" fill="url(#paint5_linear)"/>
<path d="M50.7115 46.4143H36.9591C36.4838 46.4143 36.0996 46.7994 36.0996 47.2738C36.0996 47.7482 36.4838 48.1333 36.9591 48.1333H50.7114C51.1867 48.1333 51.5709 47.7482 51.5709 47.2738C51.5709 46.7994 51.1868 46.4143 50.7115 46.4143Z" fill="url(#paint6_linear)"/>
<path d="M33.5211 25.7855C33.0458 25.7855 32.6616 26.1706 32.6616 26.645V37.8188H18.8405C18.4219 34.9076 15.9182 32.6616 12.8926 32.6616C9.57572 32.6616 6.87598 35.3606 6.87598 38.6783C6.87598 41.996 9.57572 44.6949 12.8926 44.6949C15.9181 44.6949 18.4219 42.4489 18.8405 39.5377H33.5211C33.9965 39.5377 34.3806 39.1527 34.3806 38.6783V26.645C34.3806 26.1706 33.9965 25.7855 33.5211 25.7855ZM12.8926 42.9759C10.5229 42.9759 8.59495 41.048 8.59495 38.6783C8.59495 36.3086 10.5228 34.3806 12.8926 34.3806C15.2623 34.3806 17.1902 36.3085 17.1902 38.6783C17.1902 41.048 15.2623 42.9759 12.8926 42.9759Z" fill="url(#paint7_linear)"/>
<path d="M33.5209 46.4143H31.8019C31.3265 46.4143 30.9424 46.7994 30.9424 47.2738C30.9424 47.7482 31.3265 48.1333 31.8019 48.1333H33.5209C33.9963 48.1333 34.3804 47.7482 34.3804 47.2738C34.3804 46.7994 33.9963 46.4143 33.5209 46.4143Z" fill="url(#paint8_linear)"/>
<path d="M12.893 36.0999C11.4714 36.0999 10.3145 37.2568 10.3145 38.6784C10.3145 40.1001 11.4714 41.257 12.893 41.257C14.3147 41.257 15.4716 40.1001 15.4716 38.6784C15.4716 37.2568 14.3147 36.0999 12.893 36.0999ZM12.893 39.5379C12.4186 39.5379 12.0335 39.152 12.0335 38.6784C12.0335 38.2048 12.4186 37.8189 12.893 37.8189C13.3674 37.8189 13.7525 38.2048 13.7525 38.6784C13.7525 39.152 13.3674 39.5379 12.893 39.5379Z" fill="url(#paint9_linear)"/>
<defs>
<linearGradient id="paint0_linear" x1="6.87616" y1="46.4143" x2="6.87616" y2="48.1333" gradientUnits="userSpaceOnUse">
<stop stop-color="#FF003D"/>
<stop offset="0.563536" stop-color="#FF0000"/>
<stop offset="1" stop-color="#FF3D00"/>
</linearGradient>
<linearGradient id="paint1_linear" x1="12.8928" y1="0" x2="12.8928" y2="39.538" gradientUnits="userSpaceOnUse">
<stop stop-color="#FF003D"/>
<stop offset="0.563536" stop-color="#FF0000"/>
<stop offset="1" stop-color="#FF3D00"/>
</linearGradient>
<linearGradient id="paint2_linear" x1="22.3475" y1="46.4143" x2="22.3475" y2="48.1333" gradientUnits="userSpaceOnUse">
<stop stop-color="#FF003D"/>
<stop offset="0.563536" stop-color="#FF0000"/>
<stop offset="1" stop-color="#FF3D00"/>
</linearGradient>
<linearGradient id="paint3_linear" x1="14.6123" y1="12.0333" x2="14.6123" y2="24.0666" gradientUnits="userSpaceOnUse">
<stop stop-color="#FF003D"/>
<stop offset="0.563536" stop-color="#FF0000"/>
<stop offset="1" stop-color="#FF3D00"/>
</linearGradient>
<linearGradient id="paint4_linear" x1="42.1167" y1="36.0999" x2="42.1167" y2="41.257" gradientUnits="userSpaceOnUse">
<stop stop-color="#FF003D"/>
<stop offset="0.563536" stop-color="#FF0000"/>
<stop offset="1" stop-color="#FF3D00"/>
</linearGradient>
<linearGradient id="paint5_linear" x1="36.9595" y1="5.15717" x2="36.9595" y2="44.6949" gradientUnits="userSpaceOnUse">
<stop stop-color="#FF003D"/>
<stop offset="0.563536" stop-color="#FF0000"/>
<stop offset="1" stop-color="#FF3D00"/>
</linearGradient>
<linearGradient id="paint6_linear" x1="43.8353" y1="46.4143" x2="43.8353" y2="48.1333" gradientUnits="userSpaceOnUse">
<stop stop-color="#FF003D"/>
<stop offset="0.563536" stop-color="#FF0000"/>
<stop offset="1" stop-color="#FF3D00"/>
</linearGradient>
<linearGradient id="paint7_linear" x1="20.6283" y1="25.7855" x2="20.6283" y2="44.6949" gradientUnits="userSpaceOnUse">
<stop stop-color="#FF003D"/>
<stop offset="0.563536" stop-color="#FF0000"/>
<stop offset="1" stop-color="#FF3D00"/>
</linearGradient>
<linearGradient id="paint8_linear" x1="32.6614" y1="46.4143" x2="32.6614" y2="48.1333" gradientUnits="userSpaceOnUse">
<stop stop-color="#FF003D"/>
<stop offset="0.563536" stop-color="#FF0000"/>
<stop offset="1" stop-color="#FF3D00"/>
</linearGradient>
<linearGradient id="paint9_linear" x1="12.893" y1="36.0999" x2="12.893" y2="41.257" gradientUnits="userSpaceOnUse">
<stop stop-color="#FF003D"/>
<stop offset="0.563536" stop-color="#FF0000"/>
<stop offset="1" stop-color="#FF3D00"/>
</linearGradient>
</defs>
</svg>
