<svg xmlns="http://www.w3.org/2000/svg" viewBox="0 0 158.95 90"><defs><style>.cls-1{fill:#ff3501;}</style></defs><title>Ресурс 292</title><g id="Шар_2" data-name="Шар 2"><g id="Шар_1-2" data-name="Шар 1"><path class="cls-1" d="M40,8H30a2,2,0,0,0,0,4H40a2,2,0,0,0,0-4Z"/><path class="cls-1" d="M40,22H20a2,2,0,1,0,0,4H40a2,2,0,1,0,0-4Z"/><path class="cls-1" d="M40,36H10a2,2,0,0,0,0,4H40a2,2,0,0,0,0-4Z"/><path class="cls-1" d="M40,50H2a2,2,0,0,0,0,4H40a2,2,0,0,0,0-4Z"/><path class="cls-1" d="M40,64H14a2,2,0,1,0,0,4H40a2,2,0,1,0,0-4Z"/><path class="cls-1" d="M40,78H26a2,2,0,0,0,0,4H40a2,2,0,0,0,0-4Z"/><path class="cls-1" d="M152,20.06H134.61V10.23A10.25,10.25,0,0,0,124.37,0H94.73A10.24,10.24,0,0,0,84.5,10.23v9.83H67.11a7,7,0,0,0-7,7V83a7,7,0,0,0,7,7H152a7,7,0,0,0,7-7V27a7,7,0,0,0-7-7Zm-64.6-9.83a7.35,7.35,0,0,1,7.34-7.34h29.64a7.35,7.35,0,0,1,7.34,7.34v9.83h-3.54V10.23a3.8,3.8,0,0,0-3.8-3.8H94.73a3.81,3.81,0,0,0-3.8,3.8v9.83H87.39Zm6.43,9.83V10.23a.9.9,0,0,1,.91-.9h29.64a.9.9,0,0,1,.91.9v9.83ZM152,87.11H67.11A4.07,4.07,0,0,1,63.05,83V43.65h6a1.45,1.45,0,0,0,0-2.89h-6V37.47h6a1.45,1.45,0,0,0,0-2.89h-6V27A4.07,4.07,0,0,1,67.11,23H152A4.08,4.08,0,0,1,156.06,27v7.56h-5.95a1.45,1.45,0,1,0,0,2.89h5.95v3.29h-5.95a1.45,1.45,0,1,0,0,2.89h5.95V83A4.08,4.08,0,0,1,152,87.11Z"/><path class="cls-1" d="M81.46,29.6H77a3.67,3.67,0,0,0-3.67,3.66V45A3.67,3.67,0,0,0,77,48.63h4.45A3.66,3.66,0,0,0,85.12,45V33.26a3.66,3.66,0,0,0-3.66-3.66ZM82.23,45a.78.78,0,0,1-.77.77H77a.77.77,0,0,1-.77-.77V33.26a.77.77,0,0,1,.77-.77h4.45a.78.78,0,0,1,.77.77Z"/><path class="cls-1" d="M142.1,29.6h-4.45A3.66,3.66,0,0,0,134,33.26V45a3.66,3.66,0,0,0,3.67,3.66h4.45A3.66,3.66,0,0,0,145.76,45V33.26a3.66,3.66,0,0,0-3.66-3.66ZM142.86,45a.77.77,0,0,1-.76.77h-4.45a.77.77,0,0,1-.77-.77V33.26a.77.77,0,0,1,.77-.77h4.45a.77.77,0,0,1,.76.77Z"/><path class="cls-1" d="M129.64,34.58H89.47a1.45,1.45,0,1,0,0,2.89h40.17a1.45,1.45,0,0,0,0-2.89Z"/><path class="cls-1" d="M129.64,40.76H89.47a1.45,1.45,0,1,0,0,2.89h40.17a1.45,1.45,0,0,0,0-2.89Z"/><path class="cls-1" d="M122.67,59.72H115V52a3.1,3.1,0,0,0-3.1-3.1h-4.64a3.1,3.1,0,0,0-3.1,3.1v7.7h-7.7a3.1,3.1,0,0,0-3.1,3.1v4.64a3.1,3.1,0,0,0,3.1,3.1h7.7v7.7a3.1,3.1,0,0,0,3.1,3.1h4.64a3.1,3.1,0,0,0,3.1-3.1v-7.7h7.7a3.1,3.1,0,0,0,3.1-3.1V62.82a3.1,3.1,0,0,0-3.1-3.1Zm.21,7.74a.22.22,0,0,1-.21.21h-9.14a1.44,1.44,0,0,0-1.45,1.44v9.15a.2.2,0,0,1-.21.2h-4.64a.21.21,0,0,1-.21-.2V69.11a1.43,1.43,0,0,0-1.44-1.44H96.43a.21.21,0,0,1-.2-.21V62.82a.2.2,0,0,1,.2-.21h9.15A1.44,1.44,0,0,0,107,61.16V52a.22.22,0,0,1,.21-.21h4.64a.21.21,0,0,1,.21.21v9.14a1.45,1.45,0,0,0,1.45,1.45h9.14a.21.21,0,0,1,.21.21Z"/></g></g></svg>