<svg width="43" height="43" viewBox="0 0 43 43" fill="none" xmlns="http://www.w3.org/2000/svg">
<circle cx="21.5" cy="21.5" r="21.5" fill="#FF003D"/>
<path d="M11.9136 25.1465L8.9917 32H7.07959L10.0068 25.5762H6.2793V24.1797H11.9136V25.1465ZM18.2837 25.1465L15.3618 32H13.4497L16.377 25.5762H12.6494V24.1797H18.2837V25.1465ZM22.7847 29.3306H19.5566V27.9287H22.7847V29.3306ZM29.6006 28.8042C29.6006 29.8605 29.3625 30.6751 28.8862 31.248C28.4136 31.821 27.7458 32.1074 26.8828 32.1074C26.0127 32.1074 25.3395 31.8192 24.8633 31.2427C24.387 30.6662 24.1489 29.8534 24.1489 28.8042V27.3755C24.1489 26.3192 24.3853 25.5046 24.8579 24.9316C25.3341 24.3587 26.0055 24.0723 26.8721 24.0723C27.7386 24.0723 28.41 24.3605 28.8862 24.937C29.3625 25.5135 29.6006 26.3281 29.6006 27.3809V28.8042ZM27.7905 27.1445C27.7905 26.5824 27.7171 26.1634 27.5703 25.8877C27.4235 25.6084 27.1908 25.4688 26.8721 25.4688C26.5605 25.4688 26.3332 25.5977 26.1899 25.8555C26.0503 26.1133 25.9751 26.5036 25.9644 27.0264V29.0244C25.9644 29.6081 26.0378 30.036 26.1846 30.3081C26.3314 30.5767 26.5641 30.7109 26.8828 30.7109C27.1908 30.7109 27.4181 30.5802 27.5649 30.3188C27.7118 30.0539 27.7869 29.6403 27.7905 29.0781V27.1445ZM34.5527 32H32.7373V26.2207L30.9541 26.7417V25.3667L34.3862 24.1797H34.5527V32Z" fill="white"/>
<path d="M16.1538 20.915H19.7041V22H14.7949V14.1797H16.1538V20.915ZM26.6436 18.2939C26.6436 19.0602 26.5111 19.7334 26.2461 20.3135C25.9811 20.89 25.6016 21.334 25.1074 21.6455C24.6169 21.9535 24.0511 22.1074 23.4102 22.1074C22.7764 22.1074 22.2106 21.9535 21.7129 21.6455C21.2188 21.334 20.8356 20.8918 20.5635 20.3188C20.2949 19.7459 20.1589 19.0853 20.1553 18.3369V17.8965C20.1553 17.1338 20.2896 16.4606 20.5581 15.877C20.8302 15.2933 21.2116 14.8475 21.7021 14.5396C22.1963 14.228 22.762 14.0723 23.3994 14.0723C24.0368 14.0723 24.6007 14.2262 25.0913 14.5342C25.5854 14.8385 25.9668 15.279 26.2354 15.8555C26.5039 16.4284 26.64 17.0962 26.6436 17.8589V18.2939ZM25.2847 17.8857C25.2847 17.0192 25.12 16.355 24.7905 15.8931C24.4647 15.4312 24.001 15.2002 23.3994 15.2002C22.8122 15.2002 22.3521 15.4312 22.019 15.8931C21.6896 16.3514 21.5213 17.0013 21.5142 17.8428V18.2939C21.5142 19.1533 21.6807 19.8175 22.0137 20.2866C22.3503 20.7557 22.8158 20.9902 23.4102 20.9902C24.0117 20.9902 24.4736 20.7611 24.7959 20.3027C25.1217 19.8444 25.2847 19.1748 25.2847 18.2939V17.8857Z" fill="white"/>
</svg>
