<svg width="29" height="25" viewBox="0 0 29 25" fill="none" xmlns="http://www.w3.org/2000/svg">
<path d="M18.2862 19.1198L15.0717 22.3607V11.4245C15.0717 10.8416 14.5992 10.3692 14.0163 10.3692C13.4336 10.3692 12.9609 10.8416 12.9609 11.4245V22.2497L9.85686 19.1198C9.44652 18.7059 8.77838 18.7034 8.36447 19.1137C7.95056 19.5244 7.94782 20.1925 8.35843 20.6064L11.7587 24.0348C12.376 24.6573 13.1973 25 14.0715 25C14.9458 25 15.767 24.6573 16.3843 24.0348L19.7846 20.6064C20.1952 20.1925 20.1925 19.5244 19.7786 19.1137C19.3647 18.7034 18.6965 18.7062 18.2862 19.1198Z" fill="url(#paint0_linear)"/>
<path d="M25.3859 8.23146V7.47125C25.3859 3.35167 22.0345 0 17.9149 0C16.121 0 14.3865 0.645324 13.031 1.81724C12.1207 2.60438 11.4196 3.59353 10.9785 4.69317C10.2895 4.33175 9.51606 4.13662 8.72177 4.13662C6.04153 4.13662 3.86068 6.3172 3.86068 8.99771V10.0391C1.65591 10.5157 0 12.4643 0 14.7889C0 16.0875 0.491414 17.3053 1.38409 18.2178C2.28722 19.1412 3.50256 19.65 4.80585 19.65H5.192C5.77466 19.65 6.24739 19.1772 6.24739 18.5946C6.24739 18.0116 5.77466 17.5392 5.192 17.5392H4.80585C3.29451 17.5392 2.11077 16.331 2.11077 14.7889C2.11077 13.2723 3.36542 12.0385 4.90782 12.0385H4.91606C5.499 12.0385 5.97145 11.5661 5.97145 10.9832V8.99771C5.97145 7.48115 7.20521 6.24739 8.72177 6.24739C9.50974 6.24739 10.2614 6.58709 10.7839 7.1791C11.0549 7.48609 11.4787 7.6084 11.8717 7.49379C12.2645 7.37863 12.5555 7.0469 12.6182 6.64233C13.0183 4.05884 15.2954 2.11077 17.9149 2.11077C20.8705 2.11077 23.2751 4.51535 23.2751 7.47098V8.82759C23.2751 9.21813 23.4909 9.5768 23.8358 9.75984C25.191 10.4794 26.0328 11.878 26.0328 13.41C26.0328 15.3495 24.7147 17.0052 22.8271 17.4359C22.2587 17.5656 21.9034 18.1312 22.0331 18.6996C22.1625 19.2679 22.7287 19.6233 23.2968 19.4936C24.6526 19.1844 25.8828 18.4148 26.7609 17.3276C27.6525 16.223 28.1436 14.832 28.1436 13.41C28.1436 11.3143 27.1017 9.38441 25.3859 8.23146Z" fill="url(#paint1_linear)"/>
<defs>
<linearGradient id="paint0_linear" x1="14.0715" y1="10.3692" x2="14.0715" y2="25" gradientUnits="userSpaceOnUse">
<stop stop-color="#FF0000"/>
<stop offset="0.491713" stop-color="#FF003D"/>
<stop offset="0.994475" stop-color="#FF3D00"/>
</linearGradient>
<linearGradient id="paint1_linear" x1="14.0718" y1="0" x2="14.0718" y2="19.65" gradientUnits="userSpaceOnUse">
<stop stop-color="#FF0000"/>
<stop offset="0.491713" stop-color="#FF003D"/>
<stop offset="0.994475" stop-color="#FF3D00"/>
</linearGradient>
</defs>
</svg>
