<svg width="326" height="38" viewBox="0 0 326 38" fill="none" xmlns="http://www.w3.org/2000/svg">
<path fill-rule="evenodd" clip-rule="evenodd" d="M15.1091 0.148438H0V15.4386H15.1091V0.148438ZM0 22.4829V37.3248H15.1091V22.4829H0ZM21.9146 37.3248H37.0237V22.4829H21.9146V37.3248ZM43.8292 37.3248H326V0.148438H43.8292V37.3248ZM37.0237 0.148438H21.9146V15.4386H37.0237V0.148438ZM119.895 31.1896C119.655 31.1193 119.256 31.0842 118.7 31.0842L114.349 31.2951C109.949 31.2951 106.445 30.217 103.837 28.0607C102.812 27.2111 101.951 26.2414 101.254 25.1516C100.562 24.0617 100.044 22.8986 99.6978 21.6623C99.358 20.426 99.1881 19.1369 99.1881 17.7951C99.1881 16.1721 99.4869 14.6223 100.085 13.1457C100.688 11.6633 101.579 10.4299 102.756 9.44548C103.993 8.43767 105.352 7.72576 106.835 7.30974C108.317 6.88787 109.946 6.67693 111.721 6.67693L115.676 6.99334L116.828 7.10759C117.525 7.10759 117.994 6.85564 118.234 6.35173L119.895 13.1545L119.605 13.26C119.177 12.2521 118.553 11.3937 117.733 10.6848C116.919 9.97576 115.987 9.44256 114.938 9.08513C113.895 8.72771 112.823 8.549 111.721 8.549C110.45 8.549 109.337 8.72771 108.381 9.08513C107.432 9.44256 106.577 10.0666 105.815 10.9572C105.071 11.8244 104.5 12.8381 104.101 13.9982C103.709 15.1525 103.512 16.3361 103.512 17.549C103.512 19.1076 103.764 20.6018 104.268 22.0314C104.778 23.4611 105.516 24.7355 106.483 25.8547C107.45 26.9738 108.601 27.8498 109.937 28.4826C111.279 29.1096 112.75 29.423 114.349 29.423C117.923 29.423 120.575 27.551 122.303 23.8068L122.664 23.9562L119.895 31.1896ZM72.8993 25.3977C73.4794 26.3645 74.1708 27.2258 74.9735 27.9816C76.1395 29.0832 77.4842 29.9123 79.0077 30.4689C80.537 31.0197 82.1424 31.2951 83.8241 31.2951C85.5116 31.2951 87.1288 31.0051 88.6757 30.425C90.2225 29.8391 91.5965 29.007 92.7977 27.9289C94.0048 26.8449 94.951 25.5646 95.6366 24.0881C96.328 22.6057 96.6737 21.0119 96.6737 19.3068C96.6737 17.4787 96.3544 15.7912 95.7157 14.2443C95.077 12.6975 94.1717 11.3557 92.9999 10.2189C91.8339 9.07634 90.4657 8.20037 88.8954 7.59099C87.3309 6.98162 85.6405 6.67693 83.8241 6.67693C82.0721 6.67693 80.4227 6.98162 78.8758 7.59099C77.329 8.19451 75.9696 9.05877 74.7977 10.1838C73.6317 11.3029 72.7264 12.6184 72.0819 14.1301C71.4374 15.6418 71.1151 17.2853 71.1151 19.0607C71.1151 20.133 71.2674 21.2141 71.5721 22.3039C71.8768 23.3937 72.3192 24.425 72.8993 25.3977ZM88.8075 28.1662C87.6415 29.0041 86.2557 29.423 84.6503 29.423C82.7577 29.423 81.1112 28.8459 79.7108 27.6916C78.3104 26.5373 77.2469 25.0607 76.5204 23.2619C75.7997 21.4572 75.4393 19.6232 75.4393 17.76C75.4393 16.1486 75.7176 14.6428 76.2743 13.2424C76.8368 11.8361 77.6864 10.7023 78.8231 9.84099C79.9657 8.97966 81.3573 8.549 82.9979 8.549C84.662 8.549 86.2118 9.08806 87.6473 10.1662C89.0887 11.2443 90.2342 12.6975 91.0839 14.5256C91.9335 16.3478 92.3583 18.302 92.3583 20.3879C92.3583 21.9816 92.0594 23.467 91.4618 24.8439C90.8641 26.2209 89.9794 27.3283 88.8075 28.1662ZM68.0207 7.97771C66.9894 7.42107 65.6095 7.14275 63.881 7.14275H50.671V7.46795C51.3917 7.5617 51.9191 7.81658 52.2531 8.23259C52.5929 8.64275 52.8039 9.12615 52.8859 9.68279C52.9679 10.2336 53.0089 10.9572 53.0089 11.8537V26.3645C53.0089 27.2316 52.9679 27.9201 52.8859 28.4299C52.8039 28.9396 52.5929 29.3879 52.2531 29.7746C51.9132 30.1613 51.3859 30.4045 50.671 30.5041V30.8293H59.3107V30.5041C58.5958 30.4396 58.0656 30.1994 57.7199 29.7834C57.38 29.3674 57.1691 28.8811 57.0871 28.3244C57.005 27.7619 56.964 27.0236 56.964 26.1096V19.9221C58.2589 19.5646 59.5656 19.1574 60.8839 18.7004C62.2023 18.2375 63.5412 17.6428 64.9005 16.9162C66.2658 16.1838 67.3849 15.3371 68.258 14.3762C69.131 13.4152 69.5675 12.3488 69.5675 11.177C69.5675 9.5949 69.0519 8.52849 68.0207 7.97771ZM65.5333 11.7482C65.5333 14.2268 62.6769 16.3742 56.964 18.1906V12.2492C56.964 11.2531 57.0167 10.5383 57.1222 10.1047C57.2277 9.67107 57.5177 9.34587 57.9923 9.12908C58.4669 8.90641 59.2521 8.79509 60.3478 8.79509C62.0294 8.79509 63.3126 9.00896 64.1974 9.4367C65.088 9.86442 65.5333 10.635 65.5333 11.7482ZM128.07 26.1096V9.62127L135.338 22.4094L143.222 9.62127V26.3645C143.222 27.2434 143.181 27.9436 143.099 28.465C143.017 28.9865 142.806 29.4377 142.466 29.8186C142.132 30.1936 141.605 30.4221 140.884 30.5041V30.8293H149.524V30.5041C148.797 30.3869 148.267 30.1203 147.933 29.7043C147.599 29.2824 147.391 28.799 147.309 28.2541C147.227 27.7092 147.186 26.9943 147.186 26.1096V11.6076C147.186 10.758 147.227 10.0783 147.309 9.56853C147.391 9.05877 147.599 8.61052 147.933 8.22381C148.273 7.83709 148.803 7.58513 149.524 7.46795V7.14275H140.849V7.46795C141.306 7.5617 141.534 7.81365 141.534 8.22381C141.534 8.6867 141.221 9.41912 140.594 10.4211L136.49 17.0744L132.35 9.5158C132.039 8.924 131.884 8.4699 131.884 8.15349C131.884 7.79607 132.089 7.56756 132.499 7.46795V7.14275H123.394V7.46795C124.419 7.60857 125.064 8.04509 125.327 8.77752C125.597 9.50994 125.732 10.5353 125.732 11.8537V26.3645C125.732 27.2316 125.691 27.9201 125.609 28.4299C125.527 28.9396 125.316 29.3879 124.976 29.7746C124.636 30.1613 124.109 30.4045 123.394 30.5041V30.8293H130.408V30.5041C129.687 30.4396 129.157 30.1994 128.817 29.7834C128.483 29.3674 128.275 28.8811 128.193 28.3244C128.111 27.7619 128.07 27.0236 128.07 26.1096ZM170.012 13.9455L169.722 14.051C169.241 12.9025 168.526 11.9299 167.577 11.133C166.634 10.3361 165.564 9.74724 164.369 9.36638C163.18 8.98552 161.94 8.79509 160.651 8.79509C159.767 8.79509 159.093 8.86834 158.63 9.01482C158.173 9.15545 157.842 9.4367 157.637 9.85857C157.438 10.2805 157.338 10.9338 157.338 11.8186V13.8752H160.115H160.906C161.897 13.8752 162.676 13.7404 163.244 13.4709C163.818 13.1955 164.105 12.6096 164.105 11.7131L164.431 11.6076L165.837 19.6672L165.547 19.7814C165.248 18.7561 164.876 17.9533 164.431 17.3732C163.985 16.7873 163.473 16.3684 162.893 16.1164C162.318 15.8645 161.694 15.7092 161.021 15.6506C160.353 15.592 159.412 15.5627 158.199 15.5627H157.338V25.2131C157.338 26.3146 157.399 27.1203 157.522 27.6301C157.651 28.1398 157.974 28.5266 158.489 28.7902C159.011 29.048 159.863 29.177 161.047 29.177C165.969 29.177 169.569 26.8596 171.849 22.2248L172.209 22.3303L169.15 31.2951C168.91 30.9846 168.38 30.8293 167.56 30.8293H151.036V30.5041C151.757 30.3869 152.287 30.135 152.627 29.7482C152.967 29.3615 153.178 28.9133 153.26 28.4035C153.342 27.8937 153.383 27.2141 153.383 26.3645V11.8537C153.383 10.5529 153.248 9.53631 152.979 8.80388C152.709 8.0656 152.062 7.62029 151.036 7.46795V7.14275H166.443C167.381 7.14275 168.031 6.9992 168.395 6.71209L170.012 13.9455ZM185.534 28.9572H179.302C178.57 28.9572 178.013 28.9103 177.633 28.8166C177.252 28.717 176.953 28.4738 176.736 28.0871C176.525 27.6945 176.42 27.0734 176.42 26.2238C176.42 24.2668 176.651 22.3068 177.114 20.3439C177.583 18.3752 178.183 16.5793 178.916 14.9562C179.648 13.3273 180.413 11.9709 181.21 10.8869C181.696 10.2248 182.308 9.71209 183.047 9.34881C183.791 8.97966 184.547 8.79509 185.314 8.79509C186.252 8.79509 186.931 8.90934 187.353 9.13787C187.775 9.36637 188.033 9.68572 188.127 10.0959C188.22 10.5002 188.267 11.1242 188.267 11.968V26.1535C188.267 27.3371 188.024 28.1018 187.538 28.4475C187.052 28.7873 186.384 28.9572 185.534 28.9572ZM196.731 36.7004L194.965 29.5725C194.56 29.8596 194.212 30.0031 193.919 30.0031C193.409 30.0031 192.999 29.6691 192.688 29.0012C192.384 28.3332 192.231 27.4543 192.231 26.3645V11.8537C192.231 10.5529 192.366 9.53631 192.635 8.80388C192.905 8.0656 193.55 7.62029 194.569 7.46795V7.14275H178.731V7.46795C179.475 7.5617 179.847 8.01579 179.847 8.83025C179.847 9.38103 179.689 9.87321 179.373 10.3068C178.541 11.4963 177.788 12.7941 177.114 14.2004C176.44 15.6066 175.875 17.0012 175.418 18.384C174.967 19.7609 174.597 21.0881 174.31 22.3654C174.029 23.6369 173.798 24.9113 173.616 26.1887C173.516 26.9094 173.247 27.7209 172.807 28.6232C172.368 29.5197 171.858 29.968 171.278 29.968C171.009 29.968 170.719 29.8361 170.408 29.5725L168.65 36.7004L168.975 36.8059C169.432 35.6164 170.053 34.5705 170.839 33.6682C171.618 32.7717 172.561 32.0744 173.669 31.5764C174.782 31.0783 176.048 30.8293 177.466 30.8293H187.907C189.319 30.8293 190.582 31.0783 191.695 31.5764C192.814 32.0744 193.76 32.7717 194.534 33.6682C195.313 34.5646 195.937 35.6105 196.406 36.8059L196.731 36.7004ZM202.726 26.1096C202.726 27.0236 202.767 27.7619 202.849 28.3244C202.931 28.8811 203.139 29.3674 203.473 29.7834C203.813 30.1994 204.343 30.4396 205.064 30.5041V30.8293H196.424V30.5041C197.139 30.4045 197.666 30.1613 198.006 29.7746C198.352 29.382 198.566 28.9309 198.648 28.4211C198.73 27.9055 198.771 27.2199 198.771 26.3645V11.8537C198.771 10.5353 198.636 9.50994 198.367 8.77752C198.097 8.04509 197.45 7.60857 196.424 7.46795V7.14275H205.064V7.46795C204.343 7.54412 203.813 7.77263 203.473 8.15349C203.139 8.52849 202.931 8.97673 202.849 9.49822C202.767 10.0197 202.726 10.7228 202.726 11.6076V19.2014L213.457 9.84099C213.457 9.17887 213.326 8.64275 213.062 8.23259C212.798 7.81658 212.151 7.5617 211.12 7.46795V7.14275H219.759V7.46795C219.033 7.5617 218.502 7.799 218.168 8.17986C217.834 8.55486 217.624 9.01189 217.536 9.55095C217.454 10.09 217.413 10.7756 217.413 11.6076V26.1096C217.436 27.0646 217.486 27.8059 217.562 28.3332C217.644 28.8605 217.852 29.3322 218.186 29.7482C218.52 30.1643 219.044 30.4162 219.759 30.5041V30.8293H211.12V30.5041C212.157 30.4279 212.804 30.0529 213.062 29.3791C213.326 28.6994 213.457 27.6945 213.457 26.3645V12.2932L202.726 21.6535V26.1096ZM221.658 30.5041V30.8293H237.892C239.304 30.8293 240.567 31.0783 241.68 31.5764C242.799 32.0744 243.745 32.7717 244.519 33.6682C245.298 34.5646 245.922 35.6105 246.391 36.8059L246.707 36.7004L244.949 29.5725C244.832 29.7131 244.662 29.7834 244.44 29.7834C243.988 29.7834 243.57 29.4846 243.183 28.8869C242.796 28.2893 242.603 27.3635 242.603 26.1096V11.6076C242.603 10.342 242.737 9.37224 243.007 8.69841C243.277 8.01873 243.924 7.60857 244.949 7.46795V7.14275H236.275V7.43279C237.001 7.50896 237.534 7.75213 237.874 8.16228C238.22 8.57244 238.434 9.05584 238.516 9.61248C238.604 10.1633 238.648 10.8986 238.648 11.8186V26.0041C238.648 26.9299 238.583 27.6008 238.454 28.0168C238.331 28.427 238.035 28.7228 237.567 28.9045C237.104 29.0861 236.348 29.177 235.299 29.177H231.3C230.251 29.177 229.492 29.0861 229.024 28.9045C228.561 28.7228 228.265 28.427 228.136 28.0168C228.013 27.6008 227.951 26.9299 227.951 26.0041V11.8186C227.951 10.8986 227.992 10.1633 228.074 9.61248C228.156 9.05584 228.37 8.57244 228.716 8.16228C229.068 7.75213 229.607 7.50896 230.333 7.43279V7.14275H221.658V7.46795C222.379 7.56756 222.906 7.81365 223.24 8.20623C223.58 8.59295 223.791 9.04412 223.873 9.55974C223.955 10.0695 223.996 10.7521 223.996 11.6076V26.1096C223.996 27.4162 223.864 28.4357 223.601 29.1682C223.337 29.8947 222.69 30.34 221.658 30.5041ZM253.106 26.1096C253.106 27.0236 253.147 27.7619 253.229 28.3244C253.311 28.8811 253.519 29.3674 253.853 29.7834C254.193 30.1994 254.724 30.4396 255.444 30.5041V30.8293H246.805V30.5041C247.519 30.4045 248.047 30.1613 248.387 29.7746C248.732 29.382 248.946 28.9309 249.028 28.4211C249.11 27.9055 249.151 27.2199 249.151 26.3645V11.8537C249.151 10.5353 249.017 9.50994 248.747 8.77752C248.477 8.04509 247.83 7.60857 246.805 7.46795V7.14275H255.444V7.46795C254.724 7.54412 254.193 7.77263 253.853 8.15349C253.519 8.52849 253.311 8.97673 253.229 9.49822C253.147 10.0197 253.106 10.7228 253.106 11.6076V19.2014L263.838 9.84099C263.838 9.17887 263.706 8.64275 263.442 8.23259C263.179 7.81658 262.531 7.5617 261.5 7.46795V7.14275H270.14V7.46795C269.413 7.5617 268.883 7.799 268.549 8.17986C268.215 8.55486 268.004 9.01189 267.916 9.55095C267.834 10.09 267.793 10.7756 267.793 11.6076V26.1096C267.816 27.0646 267.866 27.8059 267.942 28.3332C268.024 28.8605 268.232 29.3322 268.566 29.7482C268.9 30.1643 269.425 30.4162 270.14 30.5041V30.8293H261.5V30.5041C262.537 30.4279 263.184 30.0529 263.442 29.3791C263.706 28.6994 263.838 27.6945 263.838 26.3645V12.2932L253.106 21.6535V26.1096ZM278.42 28.3244C278.338 27.7619 278.297 27.0236 278.297 26.1096V15.4572H289.028V26.3645C289.005 27.7297 288.867 28.7434 288.615 29.4055C288.363 30.0617 287.721 30.4279 286.69 30.5041V30.8293H295.278H295.33H302.625V30.5041C302.08 30.4689 301.615 30.2756 301.228 29.924C300.841 29.5666 300.648 29.1125 300.648 28.5617C300.648 27.9406 300.838 27.0881 301.219 26.0041L303.311 20.2824C304.705 20.3059 306.012 20.5578 307.231 21.0383C308.45 21.5129 309.504 22.134 310.395 22.9016C311.291 23.6691 311.983 24.5012 312.469 25.3977C312.961 26.2941 313.207 27.1555 313.207 27.9816C313.207 29.3996 312.618 30.2404 311.441 30.5041V30.8293H319.615V30.5041C319.269 30.4103 318.982 30.2873 318.753 30.135C318.531 29.9768 318.349 29.7922 318.208 29.5812C318.068 29.3703 317.904 29.0422 317.716 28.5969C317.535 28.1516 317.435 27.9113 317.417 27.8762L311.265 10.1662C311.048 9.55681 310.94 9.08806 310.94 8.75994C310.94 8.08611 311.288 7.65545 311.986 7.46795V7.14275H303.996V7.46795C304.741 7.59685 305.113 7.98064 305.113 8.61931C305.113 9.04119 304.931 9.73552 304.568 10.7023L298.776 26.0041C298.213 27.4865 297.671 28.6027 297.15 29.3527C296.898 29.716 296.64 29.9768 296.376 30.135C296.116 30.2851 295.757 30.4068 295.298 30.5C294.599 30.4086 294.085 30.158 293.756 29.7482C293.422 29.3322 293.214 28.8605 293.132 28.3332C293.056 27.8059 293.006 27.0646 292.983 26.1096V11.6076C293.018 10.2717 293.162 9.27849 293.414 8.6281C293.672 7.97771 294.31 7.59099 295.33 7.46795V7.14275H286.69V7.46795C287.417 7.52654 287.947 7.75798 288.281 8.16228C288.615 8.56658 288.82 9.05291 288.896 9.62127C288.972 10.1838 289.016 10.9279 289.028 11.8537V13.7258H278.297V11.6076C278.297 10.7228 278.338 10.0197 278.42 9.49822C278.502 8.97673 278.71 8.52849 279.044 8.15349C279.383 7.77263 279.914 7.54412 280.634 7.46795V7.14275H271.995V7.46795C273.02 7.60857 273.668 8.04509 273.937 8.77752C274.207 9.50994 274.341 10.5353 274.341 11.8537V26.3645C274.341 27.2199 274.3 27.9055 274.218 28.4211C274.136 28.9309 273.922 29.382 273.577 29.7746C273.237 30.1613 272.71 30.4045 271.995 30.5041V30.8293H280.634V30.5041C279.914 30.4396 279.383 30.1994 279.044 29.7834C278.71 29.3674 278.502 28.8811 278.42 28.3244ZM307.125 9.84099L303.847 18.4807C304.738 18.4807 305.628 18.5891 306.519 18.8059C307.41 19.0227 308.244 19.3449 309.024 19.7727C309.809 20.2004 310.509 20.7307 311.124 21.3635L307.125 9.84099Z" fill="#ED1C24"/>
</svg>
