<svg width="120" height="120" viewBox="0 0 120 120" fill="none" xmlns="http://www.w3.org/2000/svg">
<circle cx="60" cy="60" r="60" fill="#FFCEDA"/>
<path d="M89.9989 86.6592H21.4374C20.6435 86.6592 20 86.0232 20 85.239V82.0684H91.4363V85.239C91.4363 86.0232 90.7928 86.6592 89.9989 86.6592Z" fill="#7A96A8"/>
<path d="M82.2884 63.3113L78.3191 44.7477C78.1787 44.0909 77.5922 43.6211 76.9128 43.6211H21.4374C20.6435 43.6211 20 44.2569 20 45.0413V82.0689H91.4363V69.187C91.4363 68.6425 91.1211 68.1458 90.625 67.9087L83.0686 64.2961C82.6685 64.1048 82.3804 63.7411 82.2884 63.3113Z" fill="white"/>
<path d="M66.1719 62.5746V49.6341C66.1719 48.8497 66.8154 48.2139 67.6093 48.2139H73.0104C73.6815 48.2139 74.2633 48.6727 74.412 49.3194L77.3886 62.2598C77.593 63.1485 76.9094 63.9948 75.987 63.9948H67.6094C66.8154 63.9948 66.1719 63.359 66.1719 62.5746Z" fill="#B1E4F9"/>
<path d="M73.0118 48.2139H71.4004L75.0302 63.9946H75.9884C76.9108 63.9946 77.5944 63.1485 77.39 62.2597L74.4134 49.3192C74.2647 48.6727 73.6829 48.2139 73.0118 48.2139Z" fill="#90D8F9"/>
<path d="M52.8125 62.5746V49.6341C52.8125 48.8497 53.456 48.2139 54.2499 48.2139H60.0869C60.8808 48.2139 61.5242 48.8497 61.5242 49.6341V62.5746C61.5242 63.359 60.8808 63.9948 60.0869 63.9948H54.2499C53.456 63.9948 52.8125 63.359 52.8125 62.5746Z" fill="#B1E4F9"/>
<path d="M77.0653 92.9723C81.8766 92.9723 85.777 89.1185 85.777 84.3646C85.777 79.6107 81.8766 75.7568 77.0653 75.7568C72.2539 75.7568 68.3535 79.6107 68.3535 84.3646C68.3535 89.1185 72.2539 92.9723 77.0653 92.9723Z" fill="#44697E"/>
<path d="M77.066 86.8025C78.4292 86.8025 79.5343 85.7106 79.5343 84.3637C79.5343 83.0167 78.4292 81.9248 77.066 81.9248C75.7028 81.9248 74.5977 83.0167 74.5977 84.3637C74.5977 85.7106 75.7028 86.8025 77.066 86.8025Z" fill="#D0E2E7"/>
<path d="M34.3758 92.9723C39.1872 92.9723 43.0875 89.1185 43.0875 84.3646C43.0875 79.6107 39.1872 75.7568 34.3758 75.7568C29.5644 75.7568 25.6641 79.6107 25.6641 84.3646C25.6641 89.1185 29.5644 92.9723 34.3758 92.9723Z" fill="#44697E"/>
<path d="M34.3746 86.8025C35.7378 86.8025 36.8429 85.7106 36.8429 84.3637C36.8429 83.0167 35.7378 81.9248 34.3746 81.9248C33.0114 81.9248 31.9062 83.0167 31.9062 84.3637C31.9062 85.7106 33.0114 86.8025 34.3746 86.8025Z" fill="#D0E2E7"/>
<path d="M45.1283 55.5304H39.4481C38.9718 55.5304 38.5857 55.149 38.5857 54.6783V49.066C38.5857 48.5953 38.1997 48.2139 37.7233 48.2139H34.5115C34.0352 48.2139 33.6491 48.5953 33.6491 49.066V54.6783C33.6491 55.149 33.263 55.5304 32.7867 55.5304H27.1065C26.6302 55.5304 26.2441 55.9119 26.2441 56.3825V59.556C26.2441 60.0267 26.6302 60.4081 27.1065 60.4081H32.7867C33.263 60.4081 33.6491 60.7896 33.6491 61.2602V66.8726C33.6491 67.3432 34.0352 67.7247 34.5115 67.7247H37.7233C38.1997 67.7247 38.5857 67.3432 38.5857 66.8726V61.2602C38.5857 60.7896 38.9718 60.4081 39.4481 60.4081H45.1283C45.6046 60.4081 45.9907 60.0267 45.9907 59.556V56.3825C45.9907 55.9119 45.6046 55.5304 45.1283 55.5304Z" fill="#FF0000"/>
<path d="M60.0752 43.6225H51.3633L52.5769 37.8669C52.7157 37.2084 53.3032 36.7363 53.984 36.7363H57.4542C58.1351 36.7363 58.7225 37.2084 58.8613 37.8669L60.0752 43.6225Z" fill="#FF0000"/>
<path d="M70.1538 69.6497H67.2498C66.6544 69.6497 66.1719 69.1729 66.1719 68.5846C66.1719 67.9964 66.6545 67.5195 67.2498 67.5195H70.1538C70.7492 67.5195 71.2317 67.9964 71.2317 68.5846C71.2317 69.1729 70.7492 69.6497 70.1538 69.6497Z" fill="#D0E2E7"/>
<path d="M91.4389 73.0921H88.535C87.9395 73.0921 87.457 72.6152 87.457 72.027C87.457 71.4388 87.9396 70.9619 88.535 70.9619H91.4389V73.0921Z" fill="#86A0AF"/>
<path d="M91.4389 77.6839H88.535C87.9395 77.6839 87.457 77.207 87.457 76.6188C87.457 76.0306 87.9396 75.5537 88.535 75.5537H91.4389V77.6839Z" fill="#86A0AF"/>
<path d="M53.8905 78.8314C53.295 78.8314 52.8125 78.3545 52.8125 77.7663V68.5846C52.8125 67.9964 53.2951 67.5195 53.8905 67.5195C54.4858 67.5195 54.9684 67.9964 54.9684 68.5846V77.7663C54.9686 78.3544 54.486 78.8314 53.8905 78.8314Z" fill="#D0E2E7"/>
<g clip-path="url(#clip0)">
<path d="M81.8492 57.7645V53.4119C81.6556 53.3891 81.4721 53.3391 81.3054 53.2427C80.6711 52.8757 80.4849 52.0043 80.1179 51.3701C79.7621 50.7552 79.0907 50.1668 79.0907 49.4054C79.0907 48.644 79.7621 48.0557 80.1179 47.4409C80.4849 46.8066 80.6711 45.9351 81.3054 45.5682C81.9202 45.2124 82.7597 45.4767 83.521 45.4767V41.8822H76.8338V39.3745H83.521V36.8668H76.8338V34.3591H83.521V26H76.8338V31.8514H70.9824V60.2722H83.521V56.9286L81.8492 57.7645Z" fill="#80D0F4"/>
<path d="M83.5215 26V34.3591H90.2087V36.8668H83.5215V39.3745H90.2087V41.8822H83.5215V45.4767C84.2828 45.4767 85.1223 45.2124 85.7371 45.5681C86.3714 45.9351 86.5577 46.8066 86.9246 47.4409C87.2804 48.0557 87.9518 48.644 87.9518 49.4054C87.9518 50.1668 87.2804 50.7552 86.9246 51.37C86.5577 52.0043 86.3714 52.8758 85.7371 53.2427C85.5705 53.339 85.387 53.389 85.1933 53.4118V57.7645L83.5215 56.9286V60.2722H96.0601V26H83.5215Z" fill="#76B7EB"/>
<path d="M76.834 36.8671H83.5212H90.2085V34.3594H83.5212H76.834V36.8671Z" fill="white"/>
<path d="M76.834 41.8817H83.5212H90.2085V39.374H83.5212H76.834V41.8817Z" fill="white"/>
<path d="M76.8338 26L70.9824 31.8514H76.8338V26Z" fill="#86A0AF"/>
<path d="M83.5195 53.334C82.9644 53.334 82.3683 53.4734 81.8477 53.4117V57.7643L83.5195 56.9284L85.1913 57.7643V53.4117C84.6705 53.4734 84.0745 53.334 83.5195 53.334Z" fill="#DC0135"/>
<path d="M81.3064 45.5678C80.6722 45.9347 80.4859 46.8062 80.119 47.4405C79.7632 48.0553 79.0918 48.6436 79.0918 49.405C79.0918 50.1663 79.7632 50.7547 80.119 51.3696C80.4859 52.0038 80.6722 52.8753 81.3064 53.2422C81.4731 53.3386 81.6566 53.3886 81.8503 53.4114C82.371 53.4731 82.9671 53.3337 83.5221 53.3337C84.0771 53.3337 84.6732 53.4731 85.1939 53.4114C85.3875 53.3886 85.5711 53.3386 85.7378 53.2422C86.372 52.8753 86.5583 52.0038 86.9253 51.3696C87.281 50.7547 87.9524 50.1664 87.9524 49.405C87.9524 48.6436 87.281 48.0553 86.9253 47.4405C86.5583 46.8062 86.372 45.9346 85.7378 45.5677C85.123 45.212 84.2835 45.4762 83.5221 45.4762C82.7608 45.4762 81.9213 45.212 81.3064 45.5678ZM86.0298 49.405C86.0298 50.7899 84.907 51.9127 83.5221 51.9127C82.1372 51.9127 81.0144 50.7899 81.0144 49.405C81.0144 48.0201 82.1372 46.8973 83.5221 46.8973C84.907 46.8973 86.0298 48.0201 86.0298 49.405Z" fill="#FF003D"/>
<path d="M83.5214 51.9129C84.9064 51.9129 86.0291 50.7902 86.0291 49.4052C86.0291 48.0202 84.9064 46.8975 83.5214 46.8975C82.1364 46.8975 81.0137 48.0202 81.0137 49.4052C81.0137 50.7902 82.1364 51.9129 83.5214 51.9129Z" fill="#FFCD00"/>
</g>
<defs>
<clipPath id="clip0">
<rect x="66.3848" y="26" width="34.2722" height="34.2722" fill="white"/>
</clipPath>
</defs>
</svg>
