<svg width="120" height="120" viewBox="0 0 120 120" fill="none" xmlns="http://www.w3.org/2000/svg">
<circle cx="60" cy="60" r="60" fill="#FFCEDA"/>
<path d="M79.3793 66.5666V40.3621L63.0172 24H26.5172C25.1287 24.0041 24.0041 25.1287 24 26.5172V94.4828C24.0041 95.8713 25.1287 96.9959 26.5172 97H76.8621C78.2506 96.9959 79.3752 95.8713 79.3793 94.4828V66.5666Z" fill="white"/>
<path d="M79.3797 40.3621L63.0176 24V39.1035C63.0176 39.7986 63.5811 40.3621 64.2762 40.3621H79.3797Z" fill="#7FD1F3"/>
<path d="M58.6272 44.1377H44.7522C43.6405 44.1375 42.6603 44.8665 42.3407 45.9312L39.1035 56.7239H64.2759L61.0388 45.9312C60.7191 44.8665 59.7389 44.1375 58.6272 44.1377Z" fill="#B5E4F8"/>
<path d="M64.2749 57.9834H39.1025C38.7047 57.9834 38.3303 57.7954 38.0928 57.4763C37.8552 57.1572 37.7825 56.7446 37.8967 56.3635L41.1339 45.5721C41.6061 43.9697 43.0806 42.8723 44.7512 42.8799H58.6262C60.2967 42.8723 61.7712 43.9697 62.2435 45.5721L65.4806 56.3635C65.5948 56.7446 65.5221 57.1572 65.2846 57.4763C65.0471 57.7954 64.6727 57.9834 64.2749 57.9834ZM40.7941 55.4661H62.5833L59.832 46.2946C59.6745 45.7604 59.183 45.3946 58.6262 45.3972H44.7512C44.1943 45.3946 43.7028 45.7604 43.5454 46.2946L40.7941 55.4661Z" fill="#2980BA"/>
<path d="M51.6903 47.9134C50.9951 47.9134 50.4316 47.3499 50.4316 46.6548V44.1375C50.4316 43.4424 50.9951 42.8789 51.6903 42.8789C52.3854 42.8789 52.9489 43.4424 52.9489 44.1375V46.6548C52.9489 47.3499 52.3854 47.9134 51.6903 47.9134Z" fill="#2980BA"/>
<path d="M44.1386 31.5514H30.2938C29.5987 31.5514 29.0352 30.9879 29.0352 30.2928C29.0352 29.5977 29.5987 29.0342 30.2938 29.0342H44.1386C44.8337 29.0342 45.3972 29.5977 45.3972 30.2928C45.3972 30.9879 44.8337 31.5514 44.1386 31.5514Z" fill="#86A0AF"/>
<path d="M56.7236 31.5514H50.4305C49.7354 31.5514 49.1719 30.9879 49.1719 30.2928C49.1719 29.5977 49.7354 29.0342 50.4305 29.0342H56.7236C57.4187 29.0342 57.9822 29.5977 57.9822 30.2928C57.9822 30.9879 57.4187 31.5514 56.7236 31.5514Z" fill="#86A0AF"/>
<path d="M56.7248 39.1032H30.2938C29.5987 39.1032 29.0352 38.5397 29.0352 37.8446C29.0352 37.1494 29.5987 36.5859 30.2938 36.5859H56.7248C57.4199 36.5859 57.9834 37.1494 57.9834 37.8446C57.9834 38.5397 57.4199 39.1032 56.7248 39.1032Z" fill="#86A0AF"/>
<path d="M36.5869 44.1383H30.2938C29.5987 44.1383 29.0352 43.5748 29.0352 42.8797C29.0352 42.1846 29.5987 41.6211 30.2938 41.6211H36.5869C37.282 41.6211 37.8455 42.1846 37.8455 42.8797C37.8455 43.5748 37.282 44.1383 36.5869 44.1383Z" fill="#86A0AF"/>
<path d="M54.2076 80.6383H30.2938C29.5987 80.6383 29.0352 80.0748 29.0352 79.3797C29.0352 78.6846 29.5987 78.1211 30.2938 78.1211H54.2076C54.9027 78.1211 55.4662 78.6846 55.4662 79.3797C55.4662 80.0748 54.9027 80.6383 54.2076 80.6383Z" fill="#86A0AF"/>
<path d="M66.7928 80.6383H59.241C58.5459 80.6383 57.9824 80.0748 57.9824 79.3797C57.9824 78.6846 58.5459 78.1211 59.241 78.1211H66.7928C67.4879 78.1211 68.0514 78.6846 68.0514 79.3797C68.0514 80.0748 67.4879 80.6383 66.7928 80.6383Z" fill="#86A0AF"/>
<path d="M66.7934 85.6725H49.1727C48.4776 85.6725 47.9141 85.109 47.9141 84.4139C47.9141 83.7188 48.4776 83.1553 49.1727 83.1553H66.7934C67.4885 83.1553 68.052 83.7188 68.052 84.4139C68.052 85.109 67.4885 85.6725 66.7934 85.6725Z" fill="#86A0AF"/>
<path d="M44.1386 85.6725H30.2938C29.5987 85.6725 29.0352 85.109 29.0352 84.4139C29.0352 83.7188 29.5987 83.1553 30.2938 83.1553H44.1386C44.8337 83.1553 45.3972 83.7188 45.3972 84.4139C45.3972 85.109 44.8337 85.6725 44.1386 85.6725Z" fill="#86A0AF"/>
<path d="M60.5007 90.7067H30.2938C29.5987 90.7067 29.0352 90.1432 29.0352 89.4481C29.0352 88.753 29.5987 88.1895 30.2938 88.1895H60.5007C61.1958 88.1895 61.7593 88.753 61.7593 89.4481C61.7593 90.1432 61.1958 90.7067 60.5007 90.7067Z" fill="#86A0AF"/>
<path d="M68.0513 90.7067H65.534C64.8389 90.7067 64.2754 90.1432 64.2754 89.4481C64.2754 88.753 64.8389 88.1895 65.534 88.1895H68.0513C68.7464 88.1895 69.3099 88.753 69.3099 89.4481C69.3099 90.1432 68.7464 90.7067 68.0513 90.7067Z" fill="#86A0AF"/>
<path d="M74.582 90.0009C72.8649 88.787 71.8393 86.8188 71.8281 84.716V69.824L84.4143 64.3867L97.0005 69.824V84.716C96.9897 86.8193 95.9641 88.788 94.2467 90.0022L84.4143 97.0001L74.582 90.0009Z" fill="#FF003D"/>
<path d="M81.8967 87.85C81.6244 87.85 81.3594 87.7616 81.1415 87.5982L76.107 83.8224C75.5509 83.4053 75.4382 82.6164 75.8553 82.0603C76.2724 81.5042 77.0613 81.3915 77.6174 81.8086L81.6764 84.8519L90.9827 73.2185C91.4182 72.6807 92.2063 72.5954 92.7468 73.0276C93.2873 73.4598 93.3775 74.2473 92.9486 74.7905L82.8797 87.3767C82.641 87.6757 82.2792 87.8498 81.8967 87.85Z" fill="white"/>
<path d="M69.3097 61.7581V66.7926C69.3056 68.1811 68.181 69.3057 66.7925 69.3098H36.5856C35.1971 69.3057 34.0725 68.1811 34.0684 66.7926V61.7581C34.0684 58.9776 36.3224 56.7236 39.1028 56.7236H64.2752C67.0557 56.7236 69.3097 58.9776 69.3097 61.7581Z" fill="#3B97D3"/>
<path d="M44.1373 61.7586V63.0172C44.1373 63.7124 43.5738 64.2759 42.8787 64.2759H34.0684V61.7586H41.6201C41.6201 61.0635 42.1836 60.5 42.8787 60.5C43.5738 60.5 44.1373 61.0635 44.1373 61.7586Z" fill="#F3D55B"/>
<path d="M69.3111 61.7586V64.2759H60.5008C59.8057 64.2759 59.2422 63.7124 59.2422 63.0172V61.7586C59.2422 61.0635 59.8057 60.5 60.5008 60.5C61.1959 60.5 61.7594 61.0635 61.7594 61.7586H69.3111Z" fill="#F3D55B"/>
<path d="M47.9129 64.2764H55.4646C56.1598 64.2764 56.7233 64.8399 56.7233 65.535V69.3109H46.6543V65.535C46.6543 64.8399 47.2178 64.2764 47.9129 64.2764Z" fill="#ECF0F1"/>
<path d="M49.1727 65.5342H54.2072C54.9023 65.5342 55.4658 66.0977 55.4658 66.7928V69.31H47.9141V66.7928C47.9141 66.0977 48.4776 65.5342 49.1727 65.5342Z" fill="#FF003D"/>
<path d="M37.8457 69.3105H45.3974V71.8278C45.3974 73.218 44.2704 74.345 42.8802 74.345H40.3629C38.9727 74.345 37.8457 73.218 37.8457 71.8278V69.3105Z" fill="#44697E"/>
<path d="M57.9824 69.3105H65.5341V71.8278C65.5341 73.218 64.4071 74.345 63.0169 74.345H60.4997C59.1094 74.345 57.9824 73.218 57.9824 71.8278V69.3105Z" fill="#44697E"/>
</svg>
