<svg width="120" height="120" viewBox="0 0 120 120" fill="none" xmlns="http://www.w3.org/2000/svg">
<circle cx="60" cy="60" r="60" fill="#FFCEDA"/>
<path d="M41.6214 35.5869L29.0352 48.1731H41.6214V35.5869Z" fill="#86A0AF"/>
<path d="M41.6214 35.5869V48.1731H29.0352V58.2421H45.0196C46.0838 58.2422 47.1206 57.9051 47.9812 57.2792L59.1829 49.136C60.0414 48.5116 61.0753 48.1746 62.1369 48.1731H91.9662V35.5869H41.6214Z" fill="white"/>
<path d="M29.0345 48.1724L41.6207 35.5862H91.9655V48.1724H97V35.5862C97 34.251 96.4696 32.9704 95.5254 32.0263C94.5813 31.0821 93.3008 30.5517 91.9655 30.5517H61.8946C60.9821 30.5517 60.0868 30.3038 59.3043 29.8343L49.1095 23.7174C48.327 23.248 47.4317 23 46.5192 23H29.0345C27.6993 23 26.4187 23.5304 25.4746 24.4746C24.5304 25.4187 24 26.6993 24 28.0345V58.2414H29.0345V48.1724Z" fill="#90D8F9"/>
<path d="M97 48.1729V90.966C97 92.3012 96.4696 93.5817 95.5254 94.5259C94.5813 95.47 93.3008 96.0004 91.9655 96.0004H29.0345C27.6993 96.0004 26.4187 95.47 25.4746 94.5259C24.5304 93.5817 24 92.3012 24 90.966V58.2418H45.019C46.0828 58.2409 47.1187 57.9015 47.9767 57.2727L59.1785 49.142C60.0365 48.5132 61.0724 48.1737 62.1362 48.1729H97Z" fill="#B1E4F9"/>
<path d="M73.0847 88.4487C82.1212 88.4487 89.4468 81.1232 89.4468 72.0867C89.4468 63.0502 82.1212 55.7246 73.0847 55.7246C64.0482 55.7246 56.7227 63.0502 56.7227 72.0867C56.7227 81.1232 64.0482 88.4487 73.0847 88.4487Z" fill="#FF003D"/>
<path d="M64.2762 74.6038H69.3107C69.6445 74.6038 69.9646 74.7364 70.2007 74.9724C70.4367 75.2085 70.5693 75.5286 70.5693 75.8624V80.8969C70.5693 81.2307 70.7019 81.5508 70.9379 81.7869C71.174 82.0229 71.4941 82.1555 71.8279 82.1555H74.3452C74.679 82.1555 74.9991 82.0229 75.2351 81.7869C75.4712 81.5508 75.6038 81.2307 75.6038 80.8969V75.8624C75.6038 75.5286 75.7364 75.2085 75.9724 74.9724C76.2085 74.7364 76.5286 74.6038 76.8624 74.6038H81.8969C82.2307 74.6038 82.5508 74.4712 82.7869 74.2351C83.0229 73.9991 83.1555 73.679 83.1555 73.3452V70.8279C83.1555 70.4941 83.0229 70.174 82.7869 69.9379C82.5508 69.7019 82.2307 69.5693 81.8969 69.5693H76.8624C76.5286 69.5693 76.2085 69.4367 75.9724 69.2007C75.7364 68.9646 75.6038 68.6445 75.6038 68.3107V63.2762C75.6038 62.9424 75.4712 62.6223 75.2351 62.3862C74.9991 62.1502 74.679 62.0176 74.3452 62.0176H71.8279C71.4941 62.0176 71.174 62.1502 70.9379 62.3862C70.7019 62.6223 70.5693 62.9424 70.5693 63.2762V68.3107C70.5693 68.6445 70.4367 68.9646 70.2007 69.2007C69.9646 69.4367 69.6445 69.5693 69.3107 69.5693H64.2762C63.9424 69.5693 63.6223 69.7019 63.3862 69.9379C63.1502 70.174 63.0176 70.4941 63.0176 70.8279V73.3452C63.0176 73.679 63.1502 73.9991 63.3862 74.2351C63.6223 74.4712 63.9424 74.6038 64.2762 74.6038Z" fill="white"/>
<path d="M31.5508 87.1904H46.6542V89.7077H31.5508V87.1904Z" fill="white"/>
<path d="M31.5508 83.4131H46.6542V85.9303H31.5508V83.4131Z" fill="white"/>
<path d="M31.5508 79.6387H39.1025V82.1559H31.5508V79.6387Z" fill="white"/>
<path d="M32.8105 51.9482H45.3968V54.4655H32.8105V51.9482Z" fill="#B1E4F9"/>
<path d="M47.9141 39.3613H50.4313V41.8786H47.9141V39.3613Z" fill="#B1E4F9"/>
<path d="M52.9473 39.3613H85.6714V41.8786H52.9473V39.3613Z" fill="#B1E4F9"/>
<path d="M47.9141 43.1367H50.4313V45.654H47.9141V43.1367Z" fill="#B1E4F9"/>
<path d="M47.9141 46.9131H50.4313V49.4303H47.9141V46.9131Z" fill="#B1E4F9"/>
<path d="M52.9473 43.1367H85.6714V45.654H52.9473V43.1367Z" fill="#B1E4F9"/>
</svg>
