<svg width="120" height="120" viewBox="0 0 120 120" fill="none" xmlns="http://www.w3.org/2000/svg">
<circle cx="60" cy="60" r="60" fill="#FFCEDA"/>
<path d="M47.4961 50.1387L50.4068 46.8275L68.0844 62.2296L65.1737 65.5408L47.4961 50.1387Z" fill="#E4E7E8"/>
<path d="M34.7461 49.0869L36.61 47.9062L44.3413 60.0038L42.4774 61.1845L34.7461 49.0869Z" fill="#E4E7E8"/>
<path d="M79.8366 40.792H20.2085C18.9888 40.792 18 41.7764 18 42.9907C18 44.205 18.9888 45.1893 20.2085 45.1893H79.8366C81.0563 45.1893 82.0451 44.205 82.0451 42.9907C82.0451 41.7764 81.0563 40.792 79.8366 40.792Z" fill="#FF0000"/>
<path d="M23.5217 55.0862C25.3512 55.0862 26.8343 53.6097 26.8343 51.7882C26.8343 49.9668 25.3512 48.4902 23.5217 48.4902C21.6921 48.4902 20.209 49.9668 20.209 51.7882C20.209 53.6097 21.6921 55.0862 23.5217 55.0862Z" fill="#7A96A8"/>
<path d="M34.5627 78.1692C36.3922 78.1692 37.8754 76.6927 37.8754 74.8712C37.8754 73.0498 36.3922 71.5732 34.5627 71.5732C32.7331 71.5732 31.25 73.0498 31.25 74.8712C31.25 76.6927 32.7331 78.1692 34.5627 78.1692Z" fill="#7A96A8"/>
<path d="M41.1871 68.2764L37.8745 74.8724H35.666V68.2764H41.1871Z" fill="#E4E7E8"/>
<path d="M76.5178 55.0862C78.3473 55.0862 79.8304 53.6097 79.8304 51.7882C79.8304 49.9668 78.3473 48.4902 76.5178 48.4902C74.6882 48.4902 73.2051 49.9668 73.2051 51.7882C73.2051 53.6097 74.6882 55.0862 76.5178 55.0862Z" fill="#7A96A8"/>
<path d="M66.5861 78.1692C68.4157 78.1692 69.8988 76.6927 69.8988 74.8712C69.8988 73.0498 68.4157 71.5732 66.5861 71.5732C64.7566 71.5732 63.2734 73.0498 63.2734 74.8712C63.2734 76.6927 64.7566 78.1692 66.5861 78.1692Z" fill="#7A96A8"/>
<path d="M64.377 68.2764L66.5854 74.8724L68.7939 68.2764H64.377Z" fill="#E4E7E8"/>
<path d="M64.377 48.4902H68.7939V68.2782H64.377V48.4902Z" fill="#F7F7F7"/>
<path d="M42.6271 68.2787H35.6616C35.0759 68.2787 34.5141 68.047 34.1 67.6347C33.6858 67.2224 33.4531 66.6631 33.4531 66.08C33.4531 65.4969 33.6858 64.9376 34.1 64.5253C34.5141 64.113 35.0759 63.8813 35.6616 63.8813H39.7383L46.889 47.6094L50.9356 49.3719L42.6271 68.2787Z" fill="#F7F7F7"/>
<path d="M18 34.1973H82.0451V40.7933H18V34.1973Z" fill="white"/>
<path d="M24.625 32H29.0419V40.7947H24.625V32Z" fill="#D0E2E7"/>
<path d="M71.0059 32H75.4228V40.7947H71.0059V32Z" fill="#D0E2E7"/>
<path d="M26.8375 45.1943V51.7903H24.6291L21.3164 45.1943H26.8375Z" fill="#FF0000"/>
<path d="M79.8336 45.1924V51.7884H77.6252L74.3125 45.1924H79.8336Z" fill="#FF0000"/>
<path d="M38.9828 45.1924V48.4904C38.9828 49.3651 38.6338 50.2039 38.0125 50.8224C37.3913 51.4409 36.5487 51.7884 35.6701 51.7884C34.7915 51.7884 33.9489 51.4409 33.3277 50.8224C32.7064 50.2039 32.3574 49.3651 32.3574 48.4904V45.1924H38.9828Z" fill="#FF0000"/>
<path d="M52.2308 45.1924V48.4904C52.2308 49.3651 51.8818 50.2039 51.2606 50.8224C50.6393 51.4409 49.7967 51.7884 48.9181 51.7884C48.0396 51.7884 47.197 51.4409 46.5757 50.8224C45.9545 50.2039 45.6055 49.3651 45.6055 48.4904V45.1924H52.2308Z" fill="#FF0000"/>
<path d="M69.8988 45.1924V48.4904C69.8988 49.3651 69.5498 50.2039 68.9285 50.8224C68.3073 51.4409 67.4647 51.7884 66.5861 51.7884C65.7075 51.7884 64.8649 51.4409 64.2437 50.8224C63.6225 50.2039 63.2734 49.3651 63.2734 48.4904V45.1924H69.8988Z" fill="#FF0000"/>
<path d="M57.7505 32H42.2914C40.5342 32 38.849 32.6949 37.6065 33.9319C36.364 35.1689 35.666 36.8466 35.666 38.596V45.192H40.0829V38.596C40.0829 38.0129 40.3156 37.4536 40.7298 37.0413C41.1439 36.629 41.7057 36.3973 42.2914 36.3973H57.7505C58.3362 36.3973 58.898 36.629 59.3121 37.0413C59.7263 37.4536 59.959 38.0129 59.959 38.596V45.192H64.3759V38.596C64.3759 36.8466 63.6779 35.1689 62.4354 33.9319C61.1929 32.6949 59.5077 32 57.7505 32Z" fill="#7A96A8"/>
<path d="M21.3164 45.1943H26.8375V47.393H22.4206L21.3164 45.1943Z" fill="#E00000"/>
<path d="M32.3574 45.1943H38.9828V47.393H32.3574V45.1943Z" fill="#E00000"/>
<path d="M45.6055 45.1943H52.2308V47.393H45.6055V45.1943Z" fill="#E00000"/>
<path d="M63.2734 45.1943H69.8988V47.393H63.2734V45.1943Z" fill="#E00000"/>
<path d="M79.8336 45.1943V47.393H75.4167L74.3125 45.1943H79.8336Z" fill="#E00000"/>
<g clip-path="url(#clip0)">
<path d="M73.791 74.7303C75.2586 73.8079 75.0945 71.0625 75.0945 70.4219H86.907C86.907 71.0625 86.725 73.8079 88.1925 74.7303L81.0007 82.5937L73.791 74.7303Z" fill="#FFDDAE"/>
<path d="M85.5937 77.4688L88.1918 74.7303C86.7241 73.808 86.9063 71.0625 86.9063 70.4219H75.0938C75.9412 72.8005 81.5469 76.8815 85.5937 77.4688Z" fill="#FFDDAE"/>
<path d="M90.1874 62.0938C90.1874 67.224 87.1613 73.625 80.9999 73.625C74.8386 73.625 71.8125 67.224 71.8125 62.0938C71.8125 56.9636 75.9259 55.0469 80.9999 55.0469C86.074 55.0469 90.1874 56.9636 90.1874 62.0938Z" fill="#FFE7C5"/>
<path d="M72.1184 63.2148C71.1347 62.9745 70.4902 63.4879 70.4902 64.4961C70.4902 65.8307 71.8131 69.1006 73.2039 67.0586C74.5947 65.0165 72.1184 63.2148 72.1184 63.2148Z" fill="#FFE7C5"/>
<path d="M89.714 63.2148C90.7877 62.9745 91.4912 63.4879 91.4912 64.4961C91.4912 65.8307 90.0473 69.1006 88.5292 67.0586C87.0111 65.0165 89.714 63.2148 89.714 63.2148Z" fill="#FFE7C5"/>
<path d="M73.7812 59.5306C73.5077 60.2984 73.125 64.6556 73.125 64.6556L71.8125 63.9468L71.4434 59.251L73.7812 59.5306Z" fill="#7E5449"/>
<path d="M88.2188 59.5306C88.4922 60.2984 88.875 64.6556 88.875 64.6556L90.1875 63.9468L90.5566 59.251L88.2188 59.5306Z" fill="#7E5449"/>
<path d="M96.0937 88.9995C97.1811 88.9995 98.0625 88.1391 98.0625 87.0776V82.1804C98.0625 79.3616 95.8124 76.3523 93.0623 75.4934L88.9566 74.2109C86.7477 75.8597 83.591 78.1089 81 78.1089C78.4091 78.1089 75.2524 75.8597 73.0435 74.2109L68.9377 75.4934C66.1876 76.3523 63.9375 79.3616 63.9375 82.1804V87.0776C63.9375 88.1391 64.8189 88.9995 65.9063 88.9995H96.0937Z" fill="#86A0AF"/>
<path d="M82.3125 80.0313C82.3125 80.3836 82.0172 80.6718 81.6563 80.6718H80.3437C79.9828 80.6718 79.6875 80.3836 79.6875 80.0313V78.75C79.6875 78.3976 79.9828 78.1094 80.3437 78.1094H81.6563C82.0172 78.1094 82.3125 78.3976 82.3125 78.75V80.0313Z" fill="#E00000"/>
<path d="M81 84.5156C81.3624 84.5156 81.6562 84.2288 81.6562 83.875C81.6562 83.5212 81.3624 83.2344 81 83.2344C80.6375 83.2344 80.3438 83.5212 80.3438 83.875C80.3438 84.2288 80.6375 84.5156 81 84.5156Z" fill="#D0D7DC"/>
<path d="M81 78.1085L78.2618 80.7814C77.9767 81.0598 77.5043 81.0236 77.267 80.7052L72.4688 74.2646L73.9972 72.7726C74.244 72.5316 74.6408 72.5215 74.9002 72.7494L81 78.1085Z" fill="#658FA7"/>
<path d="M81 78.1085L83.7382 80.7814C84.0233 81.0598 84.4957 81.0236 84.733 80.7052L89.5312 74.2646L88.0028 72.7726C87.7559 72.5316 87.3591 72.5215 87.0997 72.7494L81 78.1085Z" fill="#658FA7"/>
<path d="M81.9016 80.3115L80.9999 80.6718L80.0984 80.3115L79.6875 89H80.9999H82.3125L81.9016 80.3115Z" fill="#FF0000"/>
<path d="M96.3248 88.978C97.3019 88.8651 98.0624 88.063 98.0624 87.0789V82.1817C98.0624 79.3629 95.8123 76.3536 93.0622 75.4947L89.484 74.377L84.2812 88.978H96.3248Z" fill="#B1E4F9"/>
<path d="M72.5159 74.377L68.9377 75.4947C66.1876 76.3536 63.9375 79.3629 63.9375 82.1817V87.0789C63.9375 88.0631 64.6981 88.8651 65.6751 88.978H77.7188L72.5159 74.377Z" fill="#B1E4F9"/>
<path d="M72.468 74.2656L69.6767 77.5598C69.4169 77.8512 69.4785 78.2991 69.8078 78.5134L71.1556 79.3906L69.5965 80.9125C69.3625 81.141 69.3393 81.5037 69.5426 81.7588L73.7807 89L77.7182 88.9772L72.468 74.2656Z" fill="#90D8F9"/>
<path d="M89.5314 74.2656L92.3227 77.5598C92.5825 77.8512 92.521 78.2991 92.1917 78.5134L90.8438 79.3906L92.4029 80.9125C92.637 81.141 92.6601 81.5037 92.4568 81.7588L88.2188 89L84.2812 88.9772L89.5314 74.2656Z" fill="#90D8F9"/>
<path d="M90.8438 59.5313C84.2813 59.5313 77.7188 59.5313 71.1562 59.5313C71.1562 56.1146 71.1562 53.7237 71.1562 50.307C77.3404 47.231 84.6595 47.231 90.8438 50.307C90.8438 53.7237 90.8438 56.1146 90.8438 59.5313Z" fill="#90D8F9"/>
</g>
<defs>
<clipPath id="clip0">
<rect x="60" y="48" width="42" height="41" fill="white"/>
</clipPath>
</defs>
</svg>
