<svg width="120" height="120" viewBox="0 0 120 120" fill="none" xmlns="http://www.w3.org/2000/svg">
<circle cx="60" cy="60" r="60" fill="#FFCEDA"/>
<path d="M76.0435 36H33V92.6667H88V36H76.0435Z" fill="white"/>
<path d="M59.666 24.333H66.3327V35.9997H59.666V24.333Z" fill="#FF0000"/>
<path d="M54.666 24.333H59.666V35.9997H54.666V24.333Z" fill="#FF0000"/>
<path d="M61.6719 26.8594H59.3281V29.2031H56.9844V31.5469H59.3281V33.8906H61.6719V31.5469H64.0156V29.2031H61.6719V26.8594Z" fill="white"/>
<path d="M39.4062 42.0938H46.4375V46.7812H39.4062V42.0938Z" fill="#B1E4F9"/>
<path d="M51.125 42.0938H58.1562V46.7812H51.125V42.0938Z" fill="#B1E4F9"/>
<path d="M62.8438 42.0938H69.875V46.7812H62.8438V42.0938Z" fill="#B1E4F9"/>
<path d="M74.5625 42.0938H81.5938V46.7812H74.5625V42.0938Z" fill="#B1E4F9"/>
<path d="M39.4062 51.4688H46.4375V56.1562H39.4062V51.4688Z" fill="#B1E4F9"/>
<path d="M51.125 51.4688H58.1562V56.1562H51.125V51.4688Z" fill="#B1E4F9"/>
<path d="M62.8438 51.4688H69.875V56.1562H62.8438V51.4688Z" fill="#B1E4F9"/>
<path d="M74.5625 51.4688H81.5938V56.1562H74.5625V51.4688Z" fill="#B1E4F9"/>
<path d="M39.4062 60.8438H46.4375V65.5312H39.4062V60.8438Z" fill="#B1E4F9"/>
<path d="M51.125 60.8438H58.1562V65.5312H51.125V60.8438Z" fill="#B1E4F9"/>
<path d="M62.8438 60.8438H69.875V65.5312H62.8438V60.8438Z" fill="#B1E4F9"/>
<path d="M74.5625 60.8438H81.5938V65.5312H74.5625V60.8438Z" fill="#B1E4F9"/>
<path d="M69.875 76.0781H73.3906V71.3906H47.6094V76.0781H51.125H60.5H69.875Z" fill="#86A0AF"/>
<path d="M33.5469 91.3125V81.9375H31.2031V91.3125H27.6875V93.6562H37.0625V91.3125H33.5469Z" fill="#8B5E3C"/>
<path d="M90.9688 91.3125V84.2812H88.625V91.3125H86.2812V93.6562H93.3125V91.3125H90.9688Z" fill="#8B5E3C"/>
<path d="M60.5 76.0781H69.875V92.4844H60.5V76.0781Z" fill="#D0E2E7"/>
<path d="M51.125 76.0781H60.5V92.4844H51.125V76.0781Z" fill="#D0E2E7"/>
<path d="M94.4844 79.5938C94.4844 76.3582 92.3855 71.3906 89.7969 71.3906C87.2082 71.3906 85.1094 76.3582 85.1094 79.5938C85.1094 82.8293 87.2082 85.4531 89.7969 85.4531C92.3855 85.4531 94.4844 82.8293 94.4844 79.5938Z" fill="#449903"/>
<path d="M32.375 83.1094C35.6105 83.1094 38.2344 79.9617 38.2344 76.0781C38.2344 72.1945 35.6105 66.7031 32.375 66.7031C29.1395 66.7031 26.5156 72.1945 26.5156 76.0781C26.5156 79.9617 29.1395 83.1094 32.375 83.1094Z" fill="#367A02"/>
<path d="M59.3281 76.0781H61.6719V83.1094H59.3281V76.0781Z" fill="#86A0AF"/>
<path d="M59.3281 85.4531H61.6719V93.6562H59.3281V85.4531Z" fill="#86A0AF"/>
<path d="M44.0938 91.3125H76.9062V93.6562H44.0938V91.3125Z" fill="#86A0AF"/>
</svg>
