<svg width="43" height="43" viewBox="0 0 43 43" fill="none" xmlns="http://www.w3.org/2000/svg">
<circle cx="21.5" cy="21.5" r="21.5" fill="white"/>
<path d="M32.9254 26.5929C33.5189 26.5929 34 26.1118 34 25.5183V13.8521C34 11.7281 32.2719 10 30.1479 10H13.8521C11.7281 10 10 11.7281 10 13.8521V30.1476C10 32.2719 11.7281 34 13.8521 34H30.1476C32.2719 34 34 32.2719 34 30.1476C34 29.5543 33.5187 29.0729 32.9254 29.0729C32.3318 29.0729 31.8507 29.5543 31.8507 30.1476C31.8507 31.0868 31.0868 31.8507 30.1476 31.8507H25.4354V24.093H27.3701C27.9636 24.093 28.4447 23.6119 28.4447 23.0184C28.4447 22.4251 27.9636 21.9437 27.3701 21.9437H25.4354V19.5465C25.4354 18.6074 26.1994 17.8434 27.1386 17.8434H27.6015C28.1951 17.8434 28.6761 17.3623 28.6761 16.7687C28.6761 16.1752 28.1951 15.6941 27.6015 15.6941H27.1386C25.0146 15.6941 23.2862 17.4222 23.2862 19.5465V21.9437H21.3519C20.7583 21.9437 20.2772 22.4251 20.2772 23.0184C20.2772 23.6119 20.7583 24.093 21.3519 24.093H23.2862V31.8507H13.8521C12.9132 31.8507 12.1493 31.0868 12.1493 30.1479V13.8521C12.1493 12.9132 12.9132 12.1493 13.8521 12.1493H30.1476C31.0868 12.1493 31.8507 12.9132 31.8507 13.8521V25.5183C31.8507 26.1118 32.3318 26.5929 32.9254 26.5929Z" fill="#484848"/>
</svg>
