<svg width="43" height="43" viewBox="0 0 43 43" fill="none" xmlns="http://www.w3.org/2000/svg">
<circle cx="21.5" cy="21.5" r="21.5" fill="white"/>
<rect x="14" y="9" width="15" height="25" fill="#484848"/>
<path d="M21.5152 18.7969C23.0223 18.7921 24.2226 17.5819 24.2172 16.0714C24.2111 14.5608 23.0088 13.3576 21.5011 13.3564C19.9808 13.355 18.7666 14.5798 18.7784 16.1041C18.7896 17.6089 20.0035 18.8033 21.5152 18.7969Z" fill="white"/>
<path d="M33.5638 8H9.43617C8.64312 8 8 8.64283 8 9.43617V33.5638C8 34.3572 8.64312 35 9.43617 35H33.5638C34.3572 35 35 34.3572 35 33.5638V9.43617C35 8.64283 34.3572 8 33.5638 8ZM21.523 10.5179C24.5961 10.5256 27.0634 13.0401 27.0482 16.1483C27.0318 19.1843 24.5243 21.6453 21.4561 21.635C18.4183 21.6247 15.9274 19.1065 15.9446 16.0638C15.9627 12.9878 18.4553 10.5087 21.523 10.5179ZM27.7482 23.8186C27.0686 24.5168 26.2506 25.0212 25.3418 25.3742C24.4826 25.7063 23.5414 25.8746 22.6096 25.986C22.7503 26.1394 22.8167 26.2138 22.904 26.3026C24.169 27.5736 25.4391 28.8394 26.6998 30.1141C27.1289 30.5482 27.2197 31.0867 26.9827 31.592C26.7239 32.1449 26.1451 32.5077 25.577 32.4686C25.2174 32.4433 24.937 32.2644 24.6883 32.0142C23.7335 31.0534 22.7607 30.1107 21.826 29.133C21.554 28.848 21.423 28.9012 21.1823 29.149C20.2221 30.1377 19.2469 31.1111 18.2655 32.0788C17.8246 32.5137 17.3004 32.5915 16.7882 32.3437C16.2448 32.0803 15.8995 31.5256 15.9262 30.9675C15.9446 30.5907 16.1302 30.3029 16.389 30.0444C17.6401 28.7946 18.8885 27.5417 20.1374 26.2896C20.2204 26.2069 20.2974 26.1181 20.4177 25.9895C18.7147 25.8117 17.1791 25.3929 15.865 24.3646C15.7022 24.2368 15.5336 24.1133 15.3842 23.9702C14.8092 23.4176 14.7514 22.7854 15.2067 22.1331C15.5956 21.5753 16.2499 21.4253 16.9292 21.7456C17.0611 21.8073 17.1863 21.8852 17.3064 21.9682C19.7559 23.6514 23.1214 23.6982 25.5804 22.0446C25.8237 21.8588 26.0843 21.7048 26.3864 21.6284C26.9738 21.4776 27.5201 21.6927 27.8355 22.2063C28.1966 22.7914 28.1917 23.3636 27.7482 23.8186Z" fill="white"/>
</svg>
