<svg width="43" height="43" viewBox="0 0 43 43" fill="none" xmlns="http://www.w3.org/2000/svg">
<circle cx="21.5" cy="21.5" r="21.5" fill="white"/>
<path d="M15.2071 29.8297C15.2074 29.8294 15.2077 29.8292 14.5374 29.0871L15.2077 29.8292L16.9332 28.2704L14.6149 28.0901C12.4307 27.9202 11.1817 26.9452 10.4637 26.0485C10.3558 25.9138 10.2593 25.78 10.1731 25.6497C10.4025 25.6389 10.6105 25.6186 10.795 25.5936C11.0869 25.554 11.3203 25.5026 11.4878 25.4585C11.5715 25.4364 11.639 25.4161 11.6891 25.3999C11.7142 25.3918 11.7349 25.3847 11.7513 25.379L11.7725 25.3714L11.7806 25.3684L11.7841 25.3671L11.7856 25.3665L11.7864 25.3663C11.7867 25.3661 11.7871 25.366 11.4329 24.4308L11.7871 25.366L14.8541 24.2043L11.6607 23.4571C9.20229 22.8819 8.16224 21.5168 7.68989 20.342C7.57828 20.0644 7.49693 19.7927 7.43794 19.5385C7.63355 19.5935 7.81799 19.6372 7.98577 19.6721C8.29136 19.7356 8.55219 19.7719 8.73986 19.7926C8.83393 19.8029 8.9103 19.8094 8.96549 19.8134C8.99311 19.8154 9.01549 19.8168 9.03219 19.8177L9.05297 19.8188L9.06008 19.8191L9.0628 19.8192L9.06395 19.8192L9.06447 19.8193C9.06472 19.8193 9.06496 19.8193 9.10477 18.8201L9.06496 19.8193L11.8824 19.9315L9.76524 18.0692C7.52282 16.0967 7.19246 14.2604 7.31712 12.985C7.35236 12.6245 7.42552 12.2959 7.51364 12.0084C12.9141 17.5484 20.0136 17.9404 20.545 17.9622L21.8579 18.016L21.5599 16.7362C21.467 16.3371 21.4176 15.9208 21.4176 15.4918C21.4176 12.4593 23.8769 10 26.913 10C28.4959 10 29.9203 10.6669 30.9246 11.7388L31.3398 12.1819L31.9244 12.0179C32.271 11.9206 32.6051 11.8163 32.9214 11.7113L32.9225 11.7109C32.9895 11.6886 33.0558 11.6661 33.1213 11.6436C32.7308 11.982 32.4188 12.1936 32.3774 12.2212L32.3651 12.2295L32.3529 12.2381C32.361 12.2324 32.3692 12.2268 32.3775 12.2213C32.3887 12.2138 32.4003 12.2065 32.4121 12.1995C32.4224 12.1933 32.4328 12.1874 32.4434 12.1815L32.4595 12.1729L32.4676 12.1687L32.4717 12.1666L32.4738 12.1656L32.4748 12.1651L32.4753 12.1648L32.4756 12.1647C32.4756 12.1647 32.4756 12.1647 32.4761 12.1656L32.5503 12.4799L32.5628 12.5328L32.9232 14.0589C32.939 14.0589 32.953 14.0586 32.9649 14.0581H32.9847L33.0343 14.0531C33.2033 14.0362 33.3719 14.0148 33.539 13.9898C33.1746 14.3025 32.8832 14.535 32.7739 14.621L32.3733 14.9362L32.3931 15.4456C32.4024 15.6865 32.4075 15.9268 32.4075 16.168C32.4075 25.8379 24.568 33.6783 14.8972 33.6783C12.8742 33.6783 10.9321 33.3355 9.12533 32.7048C10.3406 32.4684 11.4077 32.0808 12.2897 31.6694C13.1946 31.2474 13.9129 30.7969 14.4086 30.4489C14.6568 30.2747 14.8504 30.1253 14.9848 30.0169C15.0521 29.9627 15.1047 29.9186 15.142 29.8866C15.1606 29.8707 15.1755 29.8577 15.1865 29.8481L15.2 29.8361L15.2046 29.832L15.2064 29.8304L15.2071 29.8297Z" fill="white" stroke="#484848" stroke-width="2"/>
</svg>
