<svg width="43" height="43" viewBox="0 0 43 43" fill="none" xmlns="http://www.w3.org/2000/svg">
<circle cx="21.5" cy="21.5" r="21.5" fill="white"/>
<path d="M29.9771 11.2393H13.0229C9.69655 11.2393 7 13.9358 7 17.2622V25.7375C7 29.0638 9.69655 31.7604 13.0229 31.7604H29.9771C33.3034 31.7604 36 29.0638 36 25.7375V17.2622C36 13.9358 33.3034 11.2393 29.9771 11.2393ZM25.9038 21.9122L17.9738 25.6943C17.7625 25.7951 17.5184 25.641 17.5184 25.407V17.6063C17.5184 17.3689 17.7689 17.215 17.9807 17.3223L25.9107 21.3409C26.1464 21.4603 26.1423 21.7984 25.9038 21.9122Z" fill="#484848"/>
</svg>
