<svg width="120" height="120" viewBox="0 0 120 120" fill="none" xmlns="http://www.w3.org/2000/svg">
<circle cx="60" cy="60" r="60" fill="#FFCEDA"/>
<path d="M86.6291 83.7839H21.3682C20.6125 83.7839 20 83.1786 20 82.432V79.4141H87.9973V82.432C87.9973 83.1786 87.3848 83.7839 86.6291 83.7839Z" fill="#7A96A8"/>
<path d="M79.2898 61.5606L75.5115 43.8907C75.3779 43.2656 74.8196 42.8184 74.173 42.8184H21.3682C20.6125 42.8184 20 43.4236 20 44.1702V79.4153H87.9973V67.1535C87.9973 66.6352 87.6973 66.1624 87.225 65.9367L80.0324 62.4981C79.6515 62.3159 79.3773 61.9698 79.2898 61.5606Z" fill="white"/>
<path d="M63.9473 60.8598V48.5423C63.9473 47.7956 64.5598 47.1904 65.3154 47.1904H70.4565C71.0954 47.1904 71.6492 47.6271 71.7907 48.2427L74.624 60.5602C74.8186 61.4061 74.1678 62.2116 73.2899 62.2116H65.3156C64.5598 62.2116 63.9473 61.6064 63.9473 60.8598Z" fill="#B1E4F9"/>
<path d="M70.4596 47.1904H68.9258L72.3809 62.2115H73.2929C74.1709 62.2115 74.8216 61.4061 74.6271 60.5601L71.7938 48.2426C71.6522 47.6271 71.0984 47.1904 70.4596 47.1904Z" fill="#90D8F9"/>
<path d="M51.2324 60.8598V48.5423C51.2324 47.7956 51.8449 47.1904 52.6006 47.1904H58.1566C58.9123 47.1904 59.5248 47.7956 59.5248 48.5423V60.8598C59.5248 61.6064 58.9123 62.2116 58.1566 62.2116H52.6006C51.8449 62.2116 51.2324 61.6064 51.2324 60.8598Z" fill="#B1E4F9"/>
<path d="M74.3177 89.7939C78.8975 89.7939 82.6101 86.1256 82.6101 81.6006C82.6101 77.0755 78.8975 73.4072 74.3177 73.4072C69.738 73.4072 66.0254 77.0755 66.0254 81.6006C66.0254 86.1256 69.738 89.7939 74.3177 89.7939Z" fill="#44697E"/>
<path d="M74.3182 83.9212C75.6158 83.9212 76.6677 82.8819 76.6677 81.5998C76.6677 80.3177 75.6158 79.2783 74.3182 79.2783C73.0207 79.2783 71.9688 80.3177 71.9688 81.5998C71.9688 82.8819 73.0207 83.9212 74.3182 83.9212Z" fill="#D0E2E7"/>
<path d="M33.6849 89.7939C38.2647 89.7939 41.9773 86.1256 41.9773 81.6006C41.9773 77.0755 38.2647 73.4072 33.6849 73.4072C29.1052 73.4072 25.3926 77.0755 25.3926 81.6006C25.3926 86.1256 29.1052 89.7939 33.6849 89.7939Z" fill="#44697E"/>
<path d="M33.6835 83.9212C34.9811 83.9212 36.033 82.8819 36.033 81.5998C36.033 80.3177 34.9811 79.2783 33.6835 79.2783C32.3859 79.2783 31.334 80.3177 31.334 81.5998C31.334 82.8819 32.3859 83.9212 33.6835 83.9212Z" fill="#D0E2E7"/>
<path d="M43.9184 54.1548H38.5117C38.0583 54.1548 37.6908 53.7917 37.6908 53.3437V48.0015C37.6908 47.5535 37.3233 47.1904 36.8699 47.1904H33.8127C33.3593 47.1904 32.9918 47.5535 32.9918 48.0015V53.3437C32.9918 53.7917 32.6244 54.1548 32.171 54.1548H26.7642C26.3108 54.1548 25.9434 54.5178 25.9434 54.9658V57.9866C25.9434 58.4345 26.3108 58.7976 26.7642 58.7976H32.171C32.6244 58.7976 32.9918 59.1607 32.9918 59.6087V64.9509C32.9918 65.3989 33.3593 65.762 33.8127 65.762H36.8699C37.3233 65.762 37.6908 65.3989 37.6908 64.9509V59.6087C37.6908 59.1607 38.0583 58.7976 38.5117 58.7976H43.9184C44.3718 58.7976 44.7393 58.4345 44.7393 57.9866V54.9658C44.7393 54.5178 44.3718 54.1548 43.9184 54.1548Z" fill="#FF0000"/>
<path d="M58.146 42.8193H49.8535L51.0087 37.3408C51.1408 36.714 51.7001 36.2646 52.348 36.2646H55.6512C56.2993 36.2646 56.8584 36.714 56.9906 37.3408L58.146 42.8193Z" fill="#FF0000"/>
<path d="M67.7375 67.5931H64.9733C64.4065 67.5931 63.9473 67.1392 63.9473 66.5792C63.9473 66.0193 64.4066 65.5654 64.9733 65.5654H67.7375C68.3043 65.5654 68.7635 66.0193 68.7635 66.5792C68.7635 67.1392 68.3043 67.5931 67.7375 67.5931Z" fill="#D0E2E7"/>
<path d="M88.0011 70.8714H85.237C84.6702 70.8714 84.2109 70.4175 84.2109 69.8576C84.2109 69.2976 84.6703 68.8438 85.237 68.8438H88.0011V70.8714Z" fill="#86A0AF"/>
<path d="M88.0011 75.2415H85.237C84.6702 75.2415 84.2109 74.7876 84.2109 74.2277C84.2109 73.6678 84.6703 73.2139 85.237 73.2139H88.0011V75.2415Z" fill="#86A0AF"/>
<path d="M52.2585 76.3327C51.6917 76.3327 51.2324 75.8788 51.2324 75.3189V66.5792C51.2324 66.0193 51.6918 65.5654 52.2585 65.5654C52.8252 65.5654 53.2846 66.0193 53.2846 66.5792V75.3189C53.2847 75.8787 52.8253 76.3327 52.2585 76.3327Z" fill="#D0E2E7"/>
<g clip-path="url(#clip0)">
<path d="M96.9883 56.4627H76.1405C74.406 56.4627 73 55.0566 73 53.3221V33.8056C73 32.0711 74.406 30.665 76.1405 30.665H96.9884C98.7228 30.665 100.129 32.0711 100.129 33.8056V53.3221C100.129 55.0566 98.7228 56.4627 96.9883 56.4627Z" fill="#76B7EB"/>
<path d="M73 45.1797V53.323C73 55.0575 74.406 56.4635 76.1405 56.4635H96.9884C98.7228 56.4635 100.129 55.0575 100.129 53.323V45.1797H73Z" fill="#80D0F4"/>
<path d="M90.385 37.523H82.7427C82.3066 37.523 81.9531 37.1695 81.9531 36.7335V33.727C81.9531 33.291 82.3066 32.9375 82.7427 32.9375H90.3849C90.8209 32.9375 91.1744 33.291 91.1744 33.727V36.7335C91.1744 37.1695 90.821 37.523 90.385 37.523Z" fill="white"/>
<path d="M89.5134 37.5233C89.5134 35.8951 88.1935 34.5752 86.5653 34.5752C84.9371 34.5752 83.6172 35.8951 83.6172 37.5233H89.5134Z" fill="#7FDBD5"/>
<path d="M86.5631 37.9206C86.494 37.9206 86.4239 37.9026 86.3603 37.8646C86.1716 37.7524 86.1097 37.5085 86.222 37.3199L87.9053 34.4912C88.0175 34.3025 88.2613 34.2406 88.45 34.3529C88.6387 34.4651 88.7006 34.709 88.5883 34.8976L86.905 37.7263C86.8307 37.8513 86.6986 37.9206 86.5631 37.9206Z" fill="#FF003D"/>
<path d="M90.3858 37.9212H82.7435C82.089 37.9212 81.5566 37.3888 81.5566 36.7343V33.728C81.5566 33.0734 82.0891 32.541 82.7435 32.541H90.3858C91.0402 32.541 91.5726 33.0735 91.5726 33.728V36.7343C91.5727 37.3887 91.0402 37.9212 90.3858 37.9212ZM82.7435 33.3358C82.5273 33.3358 82.3514 33.5117 82.3514 33.7279V36.7343C82.3514 36.9505 82.5273 37.1264 82.7435 37.1264H90.3858C90.602 37.1264 90.7779 36.9505 90.7779 36.7343V33.728C90.7779 33.5117 90.6019 33.3358 90.3858 33.3358L82.7435 33.3358Z" fill="#B3E7FF"/>
<path d="M79.9324 53.1844C78.1185 51.3207 76.259 48.062 76.9103 43.1834C77.1338 41.5088 78.3525 39.9619 80.1317 39.9619C81.9109 39.9619 83.1219 41.2671 83.3531 43.1834C83.5363 44.7016 83.1493 45.7193 82.8363 47.0347C82.4038 48.8516 83.5143 50.0756 83.5143 51.7007C83.5143 52.8595 82.5749 53.7989 81.4161 53.7989C80.8366 53.799 80.3121 53.5641 79.9324 53.1844Z" fill="#38648C"/>
<path opacity="0.1" d="M81.4139 53.0043C81.0673 53.0043 80.7414 52.87 80.4956 52.6259C79.4972 51.5989 78.7385 50.3924 78.2406 49.04C77.6015 47.304 77.4182 45.369 77.696 43.2886C77.8639 42.0305 78.7538 40.7568 80.1296 40.7568C81.4621 40.7568 82.3714 41.6996 82.5619 43.2787C82.6947 44.3788 82.4916 45.1647 82.2346 46.1598C82.1774 46.3812 82.1182 46.6101 82.0609 46.8508C81.7578 48.1247 82.0819 49.1454 82.3679 50.0459C82.5476 50.6119 82.7174 51.1465 82.7174 51.7008C82.7173 52.4196 82.1326 53.0043 81.4139 53.0043Z" fill="#86A0AF"/>
<path d="M93.1971 53.1844C95.011 51.3207 96.8705 48.062 96.2192 43.1834C95.9956 41.5088 94.7769 39.9619 92.9978 39.9619C91.2186 39.9619 90.0076 41.2671 89.7764 43.1834C89.5931 44.7016 89.9801 45.7193 90.2932 47.0347C90.7257 48.8516 89.6152 50.0756 89.6152 51.7007C89.6152 52.8595 90.5546 53.7989 91.7135 53.7989C92.2929 53.799 92.8174 53.5641 93.1971 53.1844Z" fill="#38648C"/>
<path opacity="0.1" d="M91.7136 53.0043C90.9949 53.0043 90.4102 52.4196 90.4102 51.7008C90.4102 51.1465 90.5799 50.6119 90.7597 50.0459C91.0457 49.1454 91.3698 48.1247 91.0666 46.8509C91.0093 46.6101 90.9501 46.3812 90.893 46.1598C90.6359 45.1647 90.4328 44.3788 90.5656 43.2787C90.7562 41.6996 91.6654 40.7568 92.998 40.7568C94.3738 40.7568 95.2637 42.0305 95.4316 43.2886C95.7093 45.369 95.5261 47.304 94.8869 49.04C94.3891 50.3924 93.6303 51.5989 92.6319 52.6259C92.3861 52.8699 92.0601 53.0043 91.7136 53.0043Z" fill="#86A0AF"/>
<path d="M73 51.9863V53.3238C73 55.0582 74.406 56.4643 76.1405 56.4643H77.478C77.478 53.9912 75.4731 51.9863 73 51.9863Z" fill="#86A0AF"/>
<path d="M100.13 51.9863V53.3238C100.13 55.0582 98.7243 56.4643 96.9898 56.4643H95.6523C95.6524 53.9912 97.6572 51.9863 100.13 51.9863Z" fill="#86A0AF"/>
<path d="M79.0542 34.667C79.5048 34.667 79.8701 34.3017 79.8701 33.8511C79.8701 33.4005 79.5048 33.0352 79.0542 33.0352C78.6036 33.0352 78.2383 33.4005 78.2383 33.8511C78.2383 34.3017 78.6036 34.667 79.0542 34.667Z" fill="#B3E7FF"/>
<path d="M76.0112 34.667C76.4619 34.667 76.8272 34.3017 76.8272 33.8511C76.8272 33.4005 76.4619 33.0352 76.0112 33.0352C75.5606 33.0352 75.1953 33.4005 75.1953 33.8511C75.1953 34.3017 75.5606 34.667 76.0112 34.667Z" fill="#B3E7FF"/>
<path d="M79.0542 37.4561C79.5048 37.4561 79.8701 37.0908 79.8701 36.6401C79.8701 36.1895 79.5048 35.8242 79.0542 35.8242C78.6036 35.8242 78.2383 36.1895 78.2383 36.6401C78.2383 37.0908 78.6036 37.4561 79.0542 37.4561Z" fill="#B3E7FF"/>
<path d="M76.0112 37.4561C76.4619 37.4561 76.8272 37.0908 76.8272 36.6401C76.8272 36.1895 76.4619 35.8242 76.0112 35.8242C75.5606 35.8242 75.1953 36.1895 75.1953 36.6401C75.1953 37.0908 75.5606 37.4561 76.0112 37.4561Z" fill="#B3E7FF"/>
<path d="M94.0737 34.667C94.5244 34.667 94.8897 34.3017 94.8897 33.8511C94.8897 33.4005 94.5244 33.0352 94.0737 33.0352C93.6231 33.0352 93.2578 33.4005 93.2578 33.8511C93.2578 34.3017 93.6231 34.667 94.0737 34.667Z" fill="#B3E7FF"/>
<path d="M97.1148 34.667C97.5654 34.667 97.9307 34.3017 97.9307 33.8511C97.9307 33.4005 97.5654 33.0352 97.1148 33.0352C96.6641 33.0352 96.2988 33.4005 96.2988 33.8511C96.2988 34.3017 96.6641 34.667 97.1148 34.667Z" fill="#B3E7FF"/>
<path d="M94.0737 37.4561C94.5244 37.4561 94.8897 37.0908 94.8897 36.6401C94.8897 36.1895 94.5244 35.8242 94.0737 35.8242C93.6231 35.8242 93.2578 36.1895 93.2578 36.6401C93.2578 37.0908 93.6231 37.4561 94.0737 37.4561Z" fill="#B3E7FF"/>
<path d="M97.1148 37.4561C97.5654 37.4561 97.9307 37.0908 97.9307 36.6401C97.9307 36.1895 97.5654 35.8242 97.1148 35.8242C96.6641 35.8242 96.2988 36.1895 96.2988 36.6401C96.2988 37.0908 96.6641 37.4561 97.1148 37.4561Z" fill="#B3E7FF"/>
</g>
<defs>
<clipPath id="clip0">
<rect x="73" y="30" width="27.1289" height="27.1289" fill="white"/>
</clipPath>
</defs>
</svg>
