<svg width="120" height="120" viewBox="0 0 120 120" fill="none" xmlns="http://www.w3.org/2000/svg">
<circle cx="60" cy="60" r="60" fill="#FFCEDA"/>
<g clip-path="url(#clip0)">
<path d="M92.1797 25.2891H94.7578V35.6016H92.1797V25.2891Z" fill="#463F3F"/>
<path d="M81.8672 28.7266H84.4453V43.3359H81.8672V28.7266Z" fill="#463F3F"/>
<path d="M71.5547 35.6016H74.1328V51.0703H71.5547V35.6016Z" fill="#5B5555"/>
<path d="M61.2422 42.4766H63.8203V58.8047H61.2422V42.4766Z" fill="#5B5555"/>
<path d="M100 24V26.5781H88.7028L76.7111 34.5729L58.0902 46.9866L56.6602 44.8416L76.7111 31.474L87.9225 24H100Z" fill="#766E6E"/>
<path d="M100 24V26.5781H88.7027L76.7109 34.5729V31.474L87.9223 24H100Z" fill="#5B5555"/>
<path d="M87.0234 34.3125V42.0469H76.7109V49.7812H66.3984V57.5156H56V68H100V34.3125H87.0234Z" fill="#95573A"/>
<path d="M100 34.3125V68H76.7109V42.0469H87.0234V34.3125H100Z" fill="#95573A"/>
</g>
<path d="M47.2305 69.4297L49.9896 66.291L66.7462 80.8908L63.9871 84.0295L47.2305 69.4297Z" fill="#E4E7E8"/>
<path d="M35.1445 68.4326L36.9114 67.3134L44.24 78.7807L42.4732 79.8999L35.1445 68.4326Z" fill="#E4E7E8"/>
<path d="M77.8867 60.5693H21.3649C20.2087 60.5693 19.2715 61.5024 19.2715 62.6535C19.2715 63.8045 20.2087 64.7376 21.3649 64.7376H77.8867C79.0428 64.7376 79.9801 63.8045 79.9801 62.6535C79.9801 61.5024 79.0428 60.5693 77.8867 60.5693Z" fill="#FF0000"/>
<path d="M24.5073 74.1186C26.2415 74.1186 27.6474 72.7189 27.6474 70.9924C27.6474 69.2659 26.2415 67.8662 24.5073 67.8662C22.7731 67.8662 21.3672 69.2659 21.3672 70.9924C21.3672 72.7189 22.7731 74.1186 24.5073 74.1186Z" fill="#7A96A8"/>
<path d="M34.9721 95.9995C36.7064 95.9995 38.1122 94.5998 38.1122 92.8733C38.1122 91.1467 36.7064 89.7471 34.9721 89.7471C33.2379 89.7471 31.832 91.1467 31.832 92.8733C31.832 94.5998 33.2379 95.9995 34.9721 95.9995Z" fill="#7A96A8"/>
<path d="M41.2511 86.6221L38.111 92.8745H36.0176V86.6221H41.2511Z" fill="#E4E7E8"/>
<path d="M74.7417 74.1186C76.4759 74.1186 77.8818 72.7189 77.8818 70.9924C77.8818 69.2659 76.4759 67.8662 74.7417 67.8662C73.0074 67.8662 71.6016 69.2659 71.6016 70.9924C71.6016 72.7189 73.0074 74.1186 74.7417 74.1186Z" fill="#7A96A8"/>
<path d="M65.3276 95.9995C67.0618 95.9995 68.4677 94.5998 68.4677 92.8733C68.4677 91.1467 67.0618 89.7471 65.3276 89.7471C63.5934 89.7471 62.1875 91.1467 62.1875 92.8733C62.1875 94.5998 63.5934 95.9995 65.3276 95.9995Z" fill="#7A96A8"/>
<path d="M63.2324 86.6221L65.3258 92.8745L67.4192 86.6221H63.2324Z" fill="#E4E7E8"/>
<path d="M63.2324 67.8662H67.4192V86.6234H63.2324V67.8662Z" fill="#F7F7F7"/>
<path d="M42.616 86.6247H36.0133C35.4581 86.6247 34.9257 86.4052 34.5331 86.0143C34.1405 85.6235 33.9199 85.0933 33.9199 84.5406C33.9199 83.9879 34.1405 83.4577 34.5331 83.0669C34.9257 82.676 35.4581 82.4565 36.0133 82.4565H39.8777L46.6558 67.0322L50.4916 68.7029L42.616 86.6247Z" fill="#F7F7F7"/>
<path d="M19.2715 54.3184H79.9801V60.5707H19.2715V54.3184Z" fill="white"/>
<path d="M25.5508 52.2354H29.7376V60.5719H25.5508V52.2354Z" fill="#D0E2E7"/>
<path d="M69.5156 52.2354H73.7024V60.5719H69.5156V52.2354Z" fill="#D0E2E7"/>
<path d="M27.6476 64.7412V70.9936H25.5542L22.4141 64.7412H27.6476Z" fill="#FF0000"/>
<path d="M77.8819 64.7412V70.9936H75.7885L72.6484 64.7412H77.8819Z" fill="#FF0000"/>
<path d="M39.1611 64.7412V67.8674C39.1611 68.6965 38.8302 69.4917 38.2413 70.078C37.6525 70.6642 36.8538 70.9936 36.021 70.9936C35.1882 70.9936 34.3895 70.6642 33.8006 70.078C33.2117 69.4917 32.8809 68.6965 32.8809 67.8674V64.7412H39.1611Z" fill="#FF0000"/>
<path d="M51.7197 64.7412V67.8674C51.7197 68.6965 51.3888 69.4917 50.7999 70.078C50.2111 70.6642 49.4124 70.9936 48.5796 70.9936C47.7467 70.9936 46.9481 70.6642 46.3592 70.078C45.7703 69.4917 45.4395 68.6965 45.4395 67.8674V64.7412H51.7197Z" fill="#FF0000"/>
<path d="M68.4677 64.7412V67.8674C68.4677 68.6965 68.1369 69.4917 67.548 70.078C66.9591 70.6642 66.1604 70.9936 65.3276 70.9936C64.4948 70.9936 63.6961 70.6642 63.1072 70.078C62.5183 69.4917 62.1875 68.6965 62.1875 67.8674V64.7412H68.4677Z" fill="#FF0000"/>
<path d="M56.9516 52.2354H42.2978C40.6322 52.2354 39.0348 52.8941 37.857 54.0666C36.6792 55.2392 36.0176 56.8295 36.0176 58.4877V64.7401H40.2044V58.4877C40.2044 57.935 40.4249 57.4049 40.8175 57.014C41.2101 56.6232 41.7426 56.4036 42.2978 56.4036H56.9516C57.5068 56.4036 58.0392 56.6232 58.4318 57.014C58.8244 57.4049 59.045 57.935 59.045 58.4877V64.7401H63.2318V58.4877C63.2318 56.8295 62.5701 55.2392 61.3924 54.0666C60.2146 52.8941 58.6172 52.2354 56.9516 52.2354Z" fill="#7A96A8"/>
<path d="M22.4141 64.7422H27.6476V66.8263H23.4608L22.4141 64.7422Z" fill="#E00000"/>
<path d="M32.8809 64.7422H39.1611V66.8263H32.8809V64.7422Z" fill="#E00000"/>
<path d="M45.4395 64.7422H51.7197V66.8263H45.4395V64.7422Z" fill="#E00000"/>
<path d="M62.1875 64.7422H68.4677V66.8263H62.1875V64.7422Z" fill="#E00000"/>
<path d="M77.8819 64.7422V66.8263H73.6951L72.6484 64.7422H77.8819Z" fill="#E00000"/>
<defs>
<clipPath id="clip0">
<rect x="56" y="24" width="44" height="44" fill="white"/>
</clipPath>
</defs>
</svg>
