<svg width="120" height="120" viewBox="0 0 120 120" fill="none" xmlns="http://www.w3.org/2000/svg">
<circle cx="60" cy="60" r="60" fill="#FFCEDA"/>
<path d="M36.7147 31H84.2871C85.6152 31 86.8889 31.5314 87.828 32.4772C88.7671 33.423 89.2947 34.7059 89.2947 36.0435V57.4783H31.707V36.0435C31.707 34.7059 32.2346 33.423 33.1737 32.4772C34.1128 31.5314 35.3865 31 36.7147 31Z" fill="white"/>
<path d="M97 66.276H24C24 63.4224 25.0608 60.6857 26.9491 58.668C28.8374 56.6502 31.3985 55.5166 34.069 55.5166H86.931C89.6015 55.5166 92.1626 56.6502 94.0509 58.668C95.9392 60.6857 97 63.4224 97 66.276Z" fill="#ECECEC"/>
<path d="M24.1934 66.3047H96.8039V73.8699H24.1934V66.3047Z" fill="#D0E2E7"/>
<path d="M29.2031 81.4346H41.7222V88.9998H29.2031V81.4346Z" fill="#86A0AF"/>
<path d="M79.2773 81.4346H91.7964V88.9998H79.2773V81.4346Z" fill="#86A0AF"/>
<path d="M24.1934 73.8691H96.8039V81.4344H24.1934V73.8691Z" fill="#AED4DE"/>
<path d="M68.0115 46.1299H78.0268C79.3549 46.1299 80.6286 46.6612 81.5677 47.6071C82.5068 48.5529 83.0344 49.8357 83.0344 51.1734V56.2168H63.0039V51.1734C63.0039 49.8357 63.5315 48.5529 64.4706 47.6071C65.4097 46.6612 66.6834 46.1299 68.0115 46.1299Z" fill="#FF0000"/>
<path d="M42.9725 46.1299H52.9877C54.3158 46.1299 55.5895 46.6612 56.5286 47.6071C57.4677 48.5529 57.9953 49.8357 57.9953 51.1734V56.2168H37.9648V51.1734C37.9648 49.8357 38.4924 48.5529 39.4315 47.6071C40.3707 46.6612 41.6444 46.1299 42.9725 46.1299Z" fill="#FF0000"/>
<path d="M64.2555 37.3049H56.7441C56.4121 37.3049 56.0936 37.1721 55.8589 36.9356C55.6241 36.6992 55.4922 36.3785 55.4922 36.0441C55.4922 35.7097 55.6241 35.389 55.8589 35.1525C56.0936 34.916 56.4121 34.7832 56.7441 34.7832H64.2555C64.5876 34.7832 64.906 34.916 65.1408 35.1525C65.3755 35.389 65.5074 35.7097 65.5074 36.0441C65.5074 36.3785 65.3755 36.6992 65.1408 36.9356C64.906 37.1721 64.5876 37.3049 64.2555 37.3049Z" fill="#86A0AF"/>
</svg>
