<svg width="43" height="43" viewBox="0 0 43 43" fill="none" xmlns="http://www.w3.org/2000/svg">
<circle cx="21.5" cy="21.5" r="21.5" fill="white"/>
<path d="M25.9802 34H16.0198C12.1492 34 9 30.8508 9 26.9802V17.0198C9 13.1492 12.1492 10 16.0198 10H25.9802C29.8511 10 33 13.1492 33 17.0198V26.0391C33 26.6152 32.5329 27.0826 31.9565 27.0826C31.3802 27.0826 30.913 26.6152 30.913 26.0391V17.0198C30.913 14.2997 28.7003 12.087 25.9802 12.087H16.0198C13.2997 12.087 11.087 14.2997 11.087 17.0198V26.9802C11.087 29.7003 13.2997 31.913 16.0198 31.913H25.9802C27.5372 31.913 28.9704 31.2005 29.913 29.9582C30.2614 29.4989 30.9158 29.4092 31.375 29.7573C31.8342 30.1057 31.9239 30.7603 31.5758 31.2196C30.2351 32.9867 28.1957 34 25.9802 34Z" fill="#484848"/>
<path d="M21.0003 28.522C17.4041 28.522 14.4785 25.5964 14.4785 22.0003C14.4785 18.4041 17.4041 15.4785 21.0003 15.4785C24.5964 15.4785 27.522 18.4041 27.522 22.0003C27.522 25.5964 24.5964 28.522 21.0003 28.522ZM21.0003 17.5655C18.5549 17.5655 16.5655 19.5549 16.5655 22.0003C16.5655 24.4456 18.5549 26.435 21.0003 26.435C23.4456 26.435 25.435 24.4456 25.435 22.0003C25.435 19.5549 23.4456 17.5655 21.0003 17.5655Z" fill="#484848"/>
<path d="M28.4281 15.5005C28.4281 16.0133 28.0126 16.4291 27.4998 16.4291C26.987 16.4291 26.5713 16.0133 26.5713 15.5005C26.5713 14.9878 26.987 14.5723 27.4998 14.5723C28.0126 14.5723 28.4281 14.9878 28.4281 15.5005Z" fill="#484848"/>
</svg>
