<svg width="15" height="15" viewBox="0 0 15 15" fill="none" xmlns="http://www.w3.org/2000/svg">
<path d="M14.9611 12.8039C14.8896 12.4603 14.553 12.2398 14.2093 12.3111C13.8657 12.3826 13.6451 12.7193 13.7167 13.0629C13.751 13.2281 13.7101 13.3974 13.6044 13.5275C13.5433 13.6027 13.4069 13.7288 13.1808 13.7288H1.81921C1.59311 13.7288 1.45688 13.6027 1.39564 13.5275C1.28987 13.3976 1.24899 13.2281 1.28342 13.0629C1.88227 10.186 4.42101 8.08511 7.35186 8.01625C7.40102 8.01807 7.45035 8.0194 7.5 8.0194C7.54668 8.0194 7.59302 8.01824 7.6392 8.01659C9.70787 8.06177 11.6209 9.10686 12.7784 10.8331C12.9739 11.1245 13.3687 11.2025 13.6603 11.007C13.9518 10.8115 14.0297 10.4166 13.8341 10.1251C12.8921 8.72004 11.5326 7.69134 9.98064 7.15771C10.9112 6.4228 11.5097 5.28486 11.5097 4.0097C11.5097 1.7987 9.71101 0 7.5 0C5.28899 0 3.49029 1.7987 3.49029 4.0097C3.49029 5.28552 4.08947 6.42413 5.02085 7.15887C4.1671 7.45266 3.36582 7.89658 2.66153 8.4759C1.32198 9.57776 0.39044 11.1148 0.0388768 12.8039C-0.073842 13.3453 0.0612219 13.9013 0.40931 14.3296C0.755907 14.7557 1.26985 15 1.81921 15H13.1808C13.7302 15 14.2441 14.7557 14.5905 14.3296C14.9388 13.9015 15.0738 13.3453 14.9611 12.8039ZM4.76148 4.0097C4.76148 2.49967 5.98997 1.27119 7.5 1.27119C9.01004 1.27119 10.2385 2.49967 10.2385 4.0097C10.2385 5.48001 9.0736 6.68283 7.61851 6.74523C7.57895 6.74457 7.53956 6.74341 7.5 6.74341C7.45548 6.74341 7.41095 6.74407 7.36659 6.74474C5.9183 6.67489 4.76148 5.47487 4.76148 4.0097Z" fill="#FF0000"/>
</svg>
