<svg width="18" height="13" viewBox="0 0 18 13" fill="none" xmlns="http://www.w3.org/2000/svg">
<path d="M17.2703 7.70258C17.6733 7.70258 18 7.39395 18 7.01313V2.67591C18 1.20043 16.7294 0 15.1675 0H2.83245C1.27057 0 0 1.20043 0 2.67591V10.3241C0 11.7996 1.27057 13 2.83245 13H15.1677C16.7294 13 18 11.7996 18 10.3241C18 9.94328 17.6733 9.63464 17.2703 9.63464C16.8674 9.63464 16.5405 9.94328 16.5405 10.3241C16.5405 11.0394 15.9246 11.6211 15.1677 11.6211H2.83245C2.07536 11.6211 1.45946 11.0392 1.45946 10.3241V2.86533L7.50443 6.41669C7.96565 6.68762 8.48273 6.82318 9 6.82318C9.51727 6.82318 10.0344 6.68762 10.4956 6.41669L16.5405 2.86533V7.01313C16.5405 7.39395 16.8672 7.70258 17.2703 7.70258ZM9.72498 5.24571C9.27783 5.50838 8.72217 5.50838 8.27502 5.24571L2.06795 1.59901C2.28668 1.46004 2.54949 1.37889 2.83226 1.37889H15.1675C15.4503 1.37889 15.7133 1.46004 15.9321 1.59901L9.72498 5.24571Z" fill="#FF0000"/>
</svg>
