<svg width="14" height="21" viewBox="0 0 14 21" fill="none" xmlns="http://www.w3.org/2000/svg">
<path d="M10.8435 20.2603H3.15654C1.41603 20.2603 0 18.8443 0 17.1036V3.15654C0 1.41603 1.41603 0 3.15654 0H10.8435C12.584 0 14 1.41603 14 3.15654V13.1463C14 13.5767 13.6512 13.9255 13.2208 13.9255C12.7903 13.9255 12.4415 13.5767 12.4415 13.1463V3.15654C12.4415 2.27543 11.7246 1.55849 10.8435 1.55849H3.15654C2.27543 1.55849 1.55849 2.27543 1.55849 3.15654V17.1038C1.55849 17.9849 2.27543 18.7018 3.15654 18.7018H10.8435C11.7246 18.7018 12.4415 17.9849 12.4415 17.1038C12.4415 16.6734 12.7903 16.3245 13.2208 16.3245C13.6512 16.3245 14 16.6734 14 17.1038C14 18.8443 12.584 20.2603 10.8435 20.2603Z" fill="white"/>
<path d="M7.00044 17.4652C6.56273 17.4652 6.20801 17.1103 6.20801 16.6728C6.20801 16.2351 6.56273 15.8804 7.00044 15.8804C7.43816 15.8804 7.79288 16.2351 7.79288 16.6728C7.79288 17.1103 7.43816 17.4652 7.00044 17.4652Z" fill="white"/>
<path d="M7.79282 4.3766H6.20795C5.77754 4.3766 5.42871 4.02757 5.42871 3.59736C5.42871 3.16695 5.77754 2.81812 6.20795 2.81812H7.79282C8.22323 2.81812 8.57207 3.16695 8.57207 3.59736C8.57207 4.02757 8.22323 4.3766 7.79282 4.3766Z" fill="white"/>
</svg>
