<svg width="120" height="120" viewBox="0 0 120 120" fill="none" xmlns="http://www.w3.org/2000/svg">
<circle cx="60" cy="60" r="60" fill="#FFCEDA"/>
<path d="M90.8809 80.75L82.0215 84.5469V78.2188H90.8809V80.75Z" fill="white"/>
<path d="M82.0215 89.6094L90.8809 85.8125V95.9375C90.8809 93.4835 88.8951 91.5078 86.4512 91.5078C84.0085 91.5078 82.0215 93.4835 82.0215 95.9375V89.6094Z" fill="#ECECEC"/>
<path d="M90.8809 80.75V85.8125L82.0215 89.6094V85.8125V84.5469L90.8809 80.75Z" fill="#F9F9F9"/>
<path d="M27.5879 23.1641V30.125H23.791V23.1641C23.791 22.1136 24.639 21.2656 25.6895 21.2656C26.7399 21.2656 27.5879 22.1136 27.5879 23.1641Z" fill="#656D78"/>
<path d="M61.7598 23.1641V30.125H57.9629V23.1641C57.9629 22.1136 58.8109 21.2656 59.8613 21.2656C60.9118 21.2656 61.7598 22.1136 61.7598 23.1641Z" fill="#656D78"/>
<path d="M57.9629 30.125V90.875H27.5879V30.125H57.9629ZM51.6221 60.5C51.6221 55.616 47.648 51.6406 42.7627 51.6406C37.8648 51.6406 33.9034 55.616 33.9034 60.5C33.9034 65.3853 37.8648 69.3594 42.7627 69.3594C47.6493 69.3594 51.6221 65.3853 51.6221 60.5Z" fill="white"/>
<path d="M42.7637 51.6406C47.649 51.6406 51.6231 55.616 51.6231 60.5C51.6231 65.3853 47.649 69.3594 42.7637 69.3594C37.8657 69.3594 33.9043 65.3853 33.9043 60.5C33.9043 55.616 37.8657 51.6406 42.7637 51.6406Z" fill="#FF0000"/>
<path d="M27.5879 90.875V97.8359C27.5879 98.8864 26.7399 99.7344 25.6895 99.7344C24.639 99.7344 23.791 98.8864 23.791 97.8359V90.875H27.5879Z" fill="#656D78"/>
<path d="M23.791 30.125H27.5879V90.875H23.791V30.125Z" fill="#F9F9F9"/>
<path d="M61.7598 90.875V97.8359C61.7598 98.8864 60.9118 99.7344 59.8613 99.7344C58.8109 99.7344 57.9629 98.8864 57.9629 97.8359V90.875H61.7598Z" fill="#656D78"/>
<path d="M57.9629 30.125H61.7598V90.875H57.9629V30.125Z" fill="#F9F9F9"/>
<path d="M82.0215 95.9375C82.0215 93.4835 84.0085 91.5078 86.4512 91.5078C88.8951 91.5078 90.8809 93.4835 90.8809 95.9375V97.2031H82.0215V95.9375Z" fill="#656D78"/>
<path d="M82.0215 95.9375V97.2031H73.1621V95.9375C73.1621 93.4835 75.1378 91.5078 77.5918 91.5078C80.0357 91.5078 82.0215 93.4835 82.0215 95.9375Z" fill="#656D78"/>
<path d="M71.8848 33.9345C71.8848 28.3405 76.4284 23.7969 82.0224 23.7969H87.0849V28.8594C89.8832 28.8594 92.1474 31.1248 92.1474 33.9345V37.6808L88.3505 35.1875C88.3505 35.1875 85.8193 36.4531 82.0224 36.4531C78.2255 36.4531 75.6943 35.1875 75.6943 35.1875L71.8848 37.6808V33.9345Z" fill="#965353"/>
<path d="M76.9473 49.0205C78.442 49.8938 80.1746 50.3874 82.0224 50.3874C83.8715 50.3874 85.6041 49.8938 87.0849 49.0344V51.653C87.0849 54.45 84.8068 56.7155 82.0098 56.7155C79.2127 56.7155 76.9473 54.45 76.9473 51.653V49.0205Z" fill="#FFD798"/>
<path d="M92.1474 37.6811V40.2503C92.1474 43.9965 90.111 47.2745 87.0849 49.0337C85.6041 49.8943 83.8715 50.3867 82.0224 50.3867C80.1746 50.3867 78.442 49.8931 76.9473 49.0198C73.9224 47.2606 71.8848 43.9953 71.8848 40.249V37.6798L75.6943 35.1865C75.6943 35.1865 78.2255 36.4521 82.0224 36.4521C85.8193 36.4521 88.3505 35.1865 88.3505 35.1865L92.1474 37.6811Z" fill="#FFE1B2"/>
<path d="M73.1621 64.335V73.7892C73.1621 75.5357 71.7459 76.9532 69.998 76.9532C68.2515 76.9532 66.834 75.5357 66.834 73.7892V64.335H73.1621Z" fill="#FFE1B2"/>
<path d="M76.9463 51.6533C76.9463 54.4504 79.2118 56.7158 82.0088 56.7158C84.8059 56.7158 87.084 54.4504 87.084 51.6533H92.1465C94.9448 51.6533 97.209 53.9188 97.209 56.7158V64.3362H90.8809V73.7904V78.2188H82.0215H73.1621V73.7891V64.3349H66.834V56.7158C66.834 53.9188 69.0995 51.6533 71.8965 51.6533H76.9463Z" fill="#5D9CEC"/>
<path d="M97.209 64.335V73.7892C97.209 75.5357 95.7927 76.9532 94.0449 76.9532C92.2984 76.9532 90.8809 75.5357 90.8809 73.7892V64.335H97.209Z" fill="#FFE1B2"/>
<path d="M82.0215 89.6094V95.9375C82.0215 93.4835 80.0357 91.5078 77.5918 91.5078C75.1378 91.5078 73.1621 93.4835 73.1621 95.9375V85.8125H82.0088H82.0215V89.6094Z" fill="#4A89DC"/>
<path d="M82.0215 84.5469V85.8125H82.0088H73.1621V78.2188H82.0215V84.5469Z" fill="#4A89DC"/>
<path d="M89.6152 98.4648H83.2871C82.5872 98.4648 82.0215 97.8991 82.0215 97.1992C82.0215 96.4993 82.5872 95.9336 83.2871 95.9336H89.6152C90.3151 95.9336 90.8809 96.4993 90.8809 97.1992C90.8809 97.8991 90.3151 98.4648 89.6152 98.4648Z" fill="#656D78"/>
<path d="M80.7559 98.4648H74.4277C73.7278 98.4648 73.1621 97.8991 73.1621 97.1992C73.1621 96.4993 73.7278 95.9336 74.4277 95.9336H80.7559C81.4557 95.9336 82.0215 96.4993 82.0215 97.1992C82.0215 97.8991 81.4557 98.4648 80.7559 98.4648Z" fill="#656D78"/>
<path d="M42.7617 70.625C37.179 70.625 32.6367 66.0827 32.6367 60.5C32.6367 54.9173 37.179 50.375 42.7617 50.375C48.3444 50.375 52.8867 54.9173 52.8867 60.5C52.8867 66.0827 48.3457 70.625 42.7617 70.625ZM42.7617 52.9062C38.5738 52.9062 35.168 56.312 35.168 60.5C35.168 64.688 38.5738 68.0938 42.7617 68.0938C46.9497 68.0938 50.3555 64.688 50.3555 60.5C50.3555 56.312 46.9497 52.9062 42.7617 52.9062Z" fill="#FF0000"/>
<path d="M42.7617 65.5625C42.0618 65.5625 41.4961 64.9968 41.4961 64.2969V56.7031C41.4961 56.0032 42.0618 55.4375 42.7617 55.4375C43.4616 55.4375 44.0273 56.0032 44.0273 56.7031V64.2969C44.0273 64.9968 43.4616 65.5625 42.7617 65.5625Z" fill="white"/>
<path d="M46.5586 61.7656H38.9648C38.265 61.7656 37.6992 61.1999 37.6992 60.5C37.6992 59.8001 38.265 59.2344 38.9648 59.2344H46.5586C47.2585 59.2344 47.8242 59.8001 47.8242 60.5C47.8242 61.1999 47.2585 61.7656 46.5586 61.7656Z" fill="white"/>
<path d="M90.8873 64.3414V64.3376H92.1466V60.5192C92.1466 59.8206 91.5834 59.2561 90.8848 59.2549V64.3414H90.8873Z" fill="#4A89DC"/>
<path d="M73.1421 64.3414V64.3376H71.8828V60.5192C71.8828 59.8206 72.446 59.2561 73.1446 59.2549V64.3414H73.1421Z" fill="#4A89DC"/>
</svg>
