<svg width="120" height="120" viewBox="0 0 120 120" fill="none" xmlns="http://www.w3.org/2000/svg">
<circle cx="60" cy="60" r="60" fill="#FFCEDA"/>
<path d="M83.63 68.6466H22.2861C21.5757 68.6466 21 68.0776 21 67.3759V64.5391H84.9161V67.3759C84.9161 68.0776 84.3403 68.6466 83.63 68.6466Z" fill="#7A96A8"/>
<path d="M76.7312 47.758L73.1797 31.1486C73.0541 30.561 72.5293 30.1406 71.9215 30.1406H22.2861C21.5757 30.1406 21 30.7095 21 31.4113V64.541H84.9161V53.0152C84.9161 52.528 84.6341 52.0836 84.1901 51.8714L77.4293 48.6391C77.0712 48.4679 76.8135 48.1426 76.7312 47.758Z" fill="white"/>
<path d="M62.3066 47.0989V35.5207C62.3066 34.8189 62.8824 34.25 63.5927 34.25H68.4252C69.0257 34.25 69.5463 34.6605 69.6793 35.2391L72.3426 46.8173C72.5255 47.6124 71.9138 48.3696 71.0885 48.3696H63.5928C62.8824 48.3696 62.3066 47.8008 62.3066 47.0989Z" fill="#B1E4F9"/>
<path d="M68.4339 34.25H66.9922L70.2399 48.3695H71.0972C71.9225 48.3695 72.5342 47.6124 72.3513 46.8172L69.688 35.239C69.5549 34.6605 69.0344 34.25 68.4339 34.25Z" fill="#90D8F9"/>
<path d="M50.3594 47.0989V35.5207C50.3594 34.8189 50.9351 34.25 51.6454 34.25H56.868C57.5783 34.25 58.154 34.8189 58.154 35.5207V47.0989C58.154 47.8008 57.5783 48.3696 56.868 48.3696H51.6454C50.9351 48.3696 50.3594 47.8008 50.3594 47.0989Z" fill="#B1E4F9"/>
<path d="M72.0544 74.2967C76.3593 74.2967 79.849 70.8486 79.849 66.5951C79.849 62.3417 76.3593 58.8936 72.0544 58.8936C67.7495 58.8936 64.2598 62.3417 64.2598 66.5951C64.2598 70.8486 67.7495 74.2967 72.0544 74.2967Z" fill="#44697E"/>
<path d="M72.0522 68.7753C73.2719 68.7753 74.2607 67.7984 74.2607 66.5932C74.2607 65.3881 73.2719 64.4111 72.0522 64.4111C70.8325 64.4111 69.8438 65.3881 69.8438 66.5932C69.8438 67.7984 70.8325 68.7753 72.0522 68.7753Z" fill="#D0E2E7"/>
<path d="M33.8689 74.2967C38.1737 74.2967 41.6635 70.8486 41.6635 66.5951C41.6635 62.3417 38.1737 58.8936 33.8689 58.8936C29.564 58.8936 26.0742 62.3417 26.0742 66.5951C26.0742 70.8486 29.564 74.2967 33.8689 74.2967Z" fill="#44697E"/>
<path d="M33.8628 68.7753C35.0825 68.7753 36.0712 67.7984 36.0712 66.5932C36.0712 65.3881 35.0825 64.4111 33.8628 64.4111C32.6431 64.4111 31.6543 65.3881 31.6543 66.5932C31.6543 67.7984 32.6431 68.7753 33.8628 68.7753Z" fill="#D0E2E7"/>
<path d="M43.486 40.7963H38.4038C37.9776 40.7963 37.6322 40.455 37.6322 40.0339V35.0124C37.6322 34.5913 37.2868 34.25 36.8606 34.25H33.9869C33.5607 34.25 33.2153 34.5913 33.2153 35.0124V40.0339C33.2153 40.455 32.8698 40.7963 32.4437 40.7963H27.3615C26.9353 40.7963 26.5898 41.1376 26.5898 41.5587V44.3981C26.5898 44.8192 26.9353 45.1605 27.3615 45.1605H32.4437C32.8698 45.1605 33.2153 45.5018 33.2153 45.9229V50.9445C33.2153 51.3656 33.5607 51.7069 33.9869 51.7069H36.8606C37.2868 51.7069 37.6322 51.3656 37.6322 50.9445V45.9229C37.6322 45.5018 37.9776 45.1605 38.4038 45.1605H43.486C43.9122 45.1605 44.2576 44.8192 44.2576 44.3981V41.5587C44.2576 41.1376 43.9122 40.7963 43.486 40.7963Z" fill="#FF0000"/>
<path d="M56.8553 30.1427H49.0605L50.1464 24.993C50.2706 24.4038 50.7963 23.9814 51.4053 23.9814H54.5103C55.1195 23.9814 55.645 24.4038 55.7692 24.993L56.8553 30.1427Z" fill="#FF0000"/>
<path d="M65.8693 53.4303H63.2711C62.7383 53.4303 62.3066 53.0037 62.3066 52.4774C62.3066 51.9511 62.7385 51.5244 63.2711 51.5244H65.8693C66.4021 51.5244 66.8338 51.9511 66.8338 52.4774C66.8338 53.0037 66.4021 53.4303 65.8693 53.4303Z" fill="#D0E2E7"/>
<path d="M84.9182 56.5124H82.32C81.7872 56.5124 81.3555 56.0857 81.3555 55.5594C81.3555 55.0331 81.7873 54.6064 82.32 54.6064H84.9182V56.5124Z" fill="#86A0AF"/>
<path d="M84.9182 60.6188H82.32C81.7872 60.6188 81.3555 60.1922 81.3555 59.6659C81.3555 59.1395 81.7873 58.7129 82.32 58.7129H84.9182V60.6188Z" fill="#86A0AF"/>
<path d="M51.3239 61.6454C50.7911 61.6454 50.3594 61.2188 50.3594 60.6925V52.4774C50.3594 51.9511 50.7912 51.5244 51.3239 51.5244C51.8565 51.5244 52.2883 51.9511 52.2883 52.4774V60.6925C52.2885 61.2186 51.8567 61.6454 51.3239 61.6454Z" fill="#D0E2E7"/>
<g clip-path="url(#clip0)">
<path d="M56.4766 82.8185C57.8044 82.0311 57.6559 79.6875 57.6559 79.1406H68.3434C68.3434 79.6875 68.1787 82.0311 69.5065 82.8185L62.9996 89.5312L56.4766 82.8185Z" fill="#FFDDAE"/>
<path d="M67.1562 85.1563L69.5068 82.8186C68.179 82.0312 68.3437 79.6875 68.3437 79.1406H57.6562C58.423 81.1712 63.4948 84.655 67.1562 85.1563Z" fill="#FFDDAE"/>
<path d="M71.3124 72.0313C71.3124 76.4107 68.5745 81.875 62.9999 81.875C57.4254 81.875 54.6875 76.4107 54.6875 72.0313C54.6875 67.6518 58.4092 66.0156 62.9999 66.0156C67.5907 66.0156 71.3124 67.6518 71.3124 72.0313Z" fill="#FFE7C5"/>
<path d="M54.9653 72.9885C54.0753 72.7833 53.4922 73.2216 53.4922 74.0822C53.4922 75.2216 54.6891 78.0129 55.9474 76.2697C57.2057 74.5265 54.9653 72.9885 54.9653 72.9885Z" fill="#FFE7C5"/>
<path d="M70.8832 72.9885C71.8547 72.7833 72.4912 73.2216 72.4912 74.0822C72.4912 75.2216 71.1848 78.0129 69.8113 76.2697C68.4378 74.5265 70.8832 72.9885 70.8832 72.9885Z" fill="#FFE7C5"/>
<path d="M56.4687 69.8432C56.2213 70.4986 55.875 74.2182 55.875 74.2182L54.6875 73.6131L54.3535 69.6045L56.4687 69.8432Z" fill="#7E5449"/>
<path d="M69.5312 69.8432C69.7787 70.4986 70.125 74.2182 70.125 74.2182L71.3125 73.6131L71.6464 69.6045L69.5312 69.8432Z" fill="#7E5449"/>
<path d="M76.6562 94.9994C77.64 94.9994 78.4375 94.2649 78.4375 93.3587V89.1782C78.4375 86.7719 76.4017 84.203 73.9135 83.4698L70.1989 82.375C68.2003 83.7825 65.3442 85.7025 63 85.7025C60.6558 85.7025 57.7998 83.7825 55.8012 82.375L52.0865 83.4698C49.5983 84.203 47.5625 86.7719 47.5625 89.1782V93.3587C47.5625 94.2649 48.36 94.9994 49.3438 94.9994H76.6562Z" fill="#86A0AF"/>
<path d="M64.1875 87.3438C64.1875 87.6445 63.9203 87.8906 63.5938 87.8906H62.4062C62.0797 87.8906 61.8125 87.6445 61.8125 87.3438V86.25C61.8125 85.9492 62.0797 85.7031 62.4062 85.7031H63.5938C63.9203 85.7031 64.1875 85.9492 64.1875 86.25V87.3438Z" fill="#E00000"/>
<path d="M63 91.1718C63.3279 91.1718 63.5937 90.927 63.5937 90.625C63.5937 90.323 63.3279 90.0781 63 90.0781C62.6721 90.0781 62.4062 90.323 62.4062 90.625C62.4062 90.927 62.6721 91.1718 63 91.1718Z" fill="#D0D7DC"/>
<path d="M63 85.7025L60.5226 87.9843C60.2646 88.2219 59.8372 88.191 59.6225 87.9192L55.2812 82.4212L56.6641 81.1475C56.8875 80.9418 57.2465 80.9331 57.4812 81.1277L63 85.7025Z" fill="#658FA7"/>
<path d="M63 85.7025L65.4774 87.9843C65.7354 88.2219 66.1628 88.191 66.3774 87.9192L70.7187 82.4212L69.3358 81.1475C69.1125 80.9418 68.7535 80.9331 68.5188 81.1277L63 85.7025Z" fill="#658FA7"/>
<path d="M63.8157 87.583L62.9999 87.8906L62.1843 87.583L61.8125 95H62.9999H64.1875L63.8157 87.583Z" fill="#FF0000"/>
<path d="M76.8653 94.9809C77.7493 94.8845 78.4374 94.1998 78.4374 93.3597V89.1792C78.4374 86.7729 76.4016 84.204 73.9134 83.4708L70.676 82.5166L65.9688 94.9809H76.8653Z" fill="#B1E4F9"/>
<path d="M55.3239 82.5166L52.0865 83.4708C49.5983 84.204 47.5625 86.7729 47.5625 89.1792V93.3597C47.5625 94.1999 48.2507 94.8845 49.1346 94.9809H60.0313L55.3239 82.5166Z" fill="#B1E4F9"/>
<path d="M55.2817 82.4219L52.7562 85.234C52.5212 85.4827 52.5769 85.8651 52.8748 86.048L54.0943 86.7968L52.6837 88.096C52.4719 88.2911 52.451 88.6008 52.6349 88.8185L56.4693 95L60.0318 94.9805L55.2817 82.4219Z" fill="#90D8F9"/>
<path d="M70.7189 82.4219L73.2444 85.234C73.4794 85.4827 73.4237 85.8651 73.1258 86.048L71.9063 86.7968L73.3169 88.096C73.5287 88.2911 73.5496 88.6008 73.3657 88.8185L69.5313 95L65.9688 94.9805L70.7189 82.4219Z" fill="#90D8F9"/>
<path d="M71.9063 69.8438C65.9688 69.8438 60.0313 69.8438 54.0938 69.8438C54.0938 66.9271 54.0938 64.8861 54.0938 61.9694C59.689 59.3435 66.3109 59.3435 71.9063 61.9694C71.9063 64.8861 71.9063 66.9271 71.9063 69.8438Z" fill="#90D8F9"/>
</g>
<path d="M102 95.5567C102 96.7899 101.037 97.7896 99.8481 97.7896H76.285C75.0964 97.7896 74.1328 96.7899 74.1328 95.5567V78.7192C74.1328 77.486 75.0964 76.4863 76.285 76.4863H99.8482C101.037 76.4863 102 77.486 102 78.7192L102 95.5567Z" fill="#F9F9F9"/>
<path d="M81.0992 97.79H77.0352V98.3818H81.0992V97.79Z" fill="#86A0AF"/>
<path d="M98.5157 97.79H93.8711V98.3818H98.5157V97.79Z" fill="#86A0AF"/>
<path d="M87.7757 80.627C84.4092 80.627 81.6797 83.4086 81.6797 86.8406C81.6797 90.2726 84.4092 93.0538 87.7757 93.0538C91.1423 93.0538 93.8718 90.2722 93.8718 86.8402C93.8718 83.4081 91.1423 80.627 87.7757 80.627ZM91.2246 88.1725H89.0825V90.356H86.4691V88.1725H84.3269V85.5086H86.4691V83.3252H89.0825V85.5086H91.2246V88.1725Z" fill="#FF0000"/>
<path d="M88.1789 80.627L88.0664 80.6329V83.3246H89.3992V85.5081H91.3998V88.1721H89.3992V90.3556H88.0664V93.0473L88.1789 93.0538C91.323 93.0538 93.8722 90.2721 93.8722 86.8401C93.8722 83.4081 91.323 80.627 88.1789 80.627Z" fill="#E34E10"/>
<path d="M84.8216 76.486V74.1003C84.8216 73.6437 85.1637 73.2716 85.5838 73.2716H89.9724C90.3925 73.2716 90.7347 73.6436 90.7347 74.1003V76.486H92.1325V74.1003C92.1325 72.8051 91.1636 71.752 89.9724 71.752H85.5838C84.3925 71.752 83.4238 72.8052 83.4238 74.1003V76.486H84.8216Z" fill="#86A0AF"/>
<defs>
<clipPath id="clip0">
<rect x="44" y="60" width="38" height="35" fill="white"/>
</clipPath>
</defs>
</svg>
