<svg width="120" height="120" viewBox="0 0 120 120" fill="none" xmlns="http://www.w3.org/2000/svg">
<circle cx="60" cy="60" r="60" fill="#FFCEDA"/>
<g clip-path="url(#clip0)">
<path d="M82.1456 31.8887C81.9803 60.1286 59.1286 82.9803 30.8887 83.1456C39.6057 94.1677 53.8774 99.2044 67.5814 96.0961C81.2859 92.9872 91.9872 82.2859 95.0961 68.5814C98.2044 54.8774 93.1677 40.6057 82.1456 31.8887Z" fill="#B1E4F9"/>
<path d="M82.1458 31.8879C67.6252 20.3827 46.7866 21.586 33.6868 34.6858C20.5869 47.7856 19.3837 68.6242 30.8888 83.1448C59.1287 82.9795 81.9805 60.1278 82.1458 31.8879Z" fill="#B1E4F9"/>
<path d="M77.1196 39.1056C74.3383 40.3642 72.8032 38.8795 70.8269 40.3642C68.3853 42.2016 67.4039 46.9593 69.5683 50.4326C71.1003 52.8796 73.8472 53.4935 76.9488 54.1707C80.0878 47.7311 81.8453 40.7071 82.1089 33.5479C81.1939 35.9562 79.4155 37.9374 77.1196 39.1056Z" fill="#00BB77"/>
<path d="M82.5443 32.2012C82.4306 32.6602 82.2837 33.1101 82.1049 33.5476C81.8418 40.7068 80.0837 47.7308 76.9453 54.1705L77.1211 54.2079C81.4381 55.1519 83.1121 53.151 87.1894 54.2079C89.0084 54.7297 90.715 55.5833 92.2236 56.725C93.972 58.1673 95.2643 60.0865 95.9427 62.249C95.9704 61.6689 95.9993 61.0888 95.9993 60.5007C96.0091 49.5216 91.0653 39.1244 82.5443 32.2012Z" fill="#00A468"/>
<path d="M58.2422 75.6025C60.7341 78.3586 61.3886 83.0155 59.5008 85.6708C57.9657 87.8358 55.864 87.0929 54.4666 89.4465C53.4096 91.4111 53.4096 93.7752 54.4666 95.7392C54.6608 96.0944 54.8924 96.4269 55.1579 96.7323C56.599 96.9062 58.0492 96.9947 59.5008 96.9978C72.8101 97.0015 85.065 89.7574 91.4794 78.0956C89.1903 76.5642 85.6144 74.5381 82.1546 74.3439C78.6088 73.9973 75.0519 74.8865 72.0862 76.861C68.3739 79.5797 67.6438 83.4309 65.7935 83.1538C64.4846 82.9651 63.7674 80.8505 63.2764 79.3781C62.1524 76.0253 62.762 73.7564 62.7516 71.876C61.2147 73.1056 59.6089 74.2462 57.9417 75.2915C58.0714 75.4187 58.1783 75.5312 58.2422 75.6025Z" fill="#00A468"/>
<path d="M62.0191 69.3106C60.723 67.4984 58.3067 67.1586 55.7263 66.7935C50.3148 66.0383 48.188 68.3667 45.658 66.7935C43.5962 65.4207 42.5945 62.9177 43.1409 60.5008C44.1985 57.3421 48.8172 58.412 54.4678 54.2081C56.2929 52.8616 60.6345 49.6274 60.7605 45.3982C60.8865 41.2576 56.8466 40.0746 55.7263 35.3298C55.2396 33.2859 56.1479 28.5854 58.4499 24.041C44.9015 24.4239 32.6823 32.2855 26.7171 44.4555V44.4672C25.9096 48.9385 25.9311 53.5204 26.7797 57.9837C27.5479 63.056 28.2522 67.6619 31.8139 71.8277C33.3748 73.6652 35.7782 76.4594 39.3652 76.8619C43.3424 77.3025 48.5905 74.7602 49.4336 74.3448C50.5612 73.6043 51.8628 73.1705 53.2092 73.0863C55.0086 73.2012 56.6985 73.9884 57.9429 75.2924C59.6101 74.2471 61.2159 73.1066 62.7528 71.8769C62.7952 70.9643 62.5377 70.0628 62.0191 69.3106Z" fill="#00BB77"/>
<path d="M49.4317 34.0713C49.4317 39.634 39.3633 52.9495 39.3633 52.9495C39.3633 52.9495 33.0835 44.643 30.4404 38.4135C29.7896 37.0505 29.4012 35.5775 29.2949 34.0713C29.2949 28.5111 33.8031 24.0029 39.3633 24.0029C44.9241 24.0029 49.4317 28.5111 49.4317 34.0713Z" fill="#FF003D"/>
<path d="M43.1392 32.8118C43.1392 34.8969 41.4486 36.5874 39.3635 36.5874C37.2784 36.5874 35.5879 34.8969 35.5879 32.8118C35.5879 30.7267 37.2784 29.0361 39.3635 29.0361C41.4486 29.0361 43.1392 30.7267 43.1392 32.8118Z" fill="white"/>
<path d="M87.1875 68.0518C86.911 70.4122 86.1435 72.6884 84.9347 74.7347C82.6253 78.9817 80.0136 83.0573 77.1192 86.93C77.1192 86.93 73.8216 82.5632 70.9899 77.7803C69.9464 76.0455 69.013 74.2462 68.1963 72.394C67.5455 71.031 67.1571 69.558 67.0508 68.0518C67.0508 62.4916 71.5589 57.9834 77.1192 57.9834C82.68 57.9834 87.1875 62.4916 87.1875 68.0518Z" fill="#86A0AF"/>
<path d="M80.897 66.7932C80.897 68.8783 79.2064 70.5689 77.1213 70.5689C75.0363 70.5689 73.3457 68.8783 73.3457 66.7932C73.3457 64.7081 75.0363 63.0176 77.1213 63.0176C79.2064 63.0176 80.897 64.7081 80.897 66.7932Z" fill="white"/>
</g>
<defs>
<clipPath id="clip0">
<rect x="23" y="24" width="73" height="73" fill="white"/>
</clipPath>
</defs>
</svg>
