<svg width="120" height="120" viewBox="0 0 120 120" fill="none" xmlns="http://www.w3.org/2000/svg">
<circle cx="60" cy="60" r="60" fill="#FFCEDA"/>
<g clip-path="url(#clip0)">
<path d="M64.9337 72.4982L70.8262 78.3906L78.4864 70.7304L72.5939 64.838L64.9337 72.4982Z" fill="#86A0AF"/>
<path d="M49.1673 75.0005C63.4346 75.0005 75.0006 63.4346 75.0006 49.1673C75.0006 34.8999 63.4346 23.334 49.1673 23.334C34.8999 23.334 23.334 34.8999 23.334 49.1673C23.334 63.4346 34.8999 75.0005 49.1673 75.0005Z" fill="white"/>
<path d="M69.8333 69.8332C58.5 81.1665 39.8332 81.1665 28.5 69.8332C17.1667 58.5 17.1667 39.8332 28.5 28.5C39.8332 17.1667 58.5 17.1667 69.8333 28.5C81.1665 39.8332 81.3333 58.5 69.8333 69.8332ZM33.3332 33.3332C24.5 42.1665 24.5 56.3332 33.3332 65.1665C42.1665 73.9998 56.3333 73.9998 65.1665 65.1665C73.9998 56.3332 73.9998 42.1665 65.1665 33.3332C56.3333 24.5 42 24.5 33.3332 33.3332Z" fill="#B1E4F9"/>
<path d="M79.5007 69.333C88.334 75.4997 95.0007 80.333 97.0007 82.4997C101.001 86.4997 101.001 92.9997 97.0007 96.9997C93.0007 101 86.5007 101 82.5007 96.9997C80.5007 94.9997 75.5007 88.333 69.334 79.4997L79.5007 69.333Z" fill="#FF003D"/>
<path d="M72.6667 84.1667C71.6667 82.6667 70.5 81.1667 69.5 79.6667L79.6667 69.5C81.3334 70.6667 82.8334 71.6667 84.1667 72.6667L72.6667 84.1667Z" fill="#ED1C24"/>
<path d="M71.1667 81.3334L81.3334 71.1667C82.3334 70.1667 82.3334 68.5 81.3334 67.5C80.3334 66.5 78.6667 66.5 77.6667 67.5L67.5 77.6669C66.5 78.6669 66.5 80.3336 67.5 81.3336C68.5 82.5001 70.1667 82.5001 71.1667 81.3334Z" fill="#FF003D"/>
</g>
<path d="M48.4941 47.2383L49.727 45.8358L57.2144 52.3593L55.9815 53.7618L48.4941 47.2383Z" fill="#C5D7DC"/>
<path d="M43.0918 46.791L43.8812 46.2909L47.1557 51.4149L46.3662 51.915L43.0918 46.791Z" fill="#C5D7DC"/>
<path d="M62.1908 43.2812H36.9354C36.4188 43.2812 36 43.6982 36 44.2125C36 44.7268 36.4188 45.1437 36.9354 45.1437H62.1908C62.7074 45.1437 63.1262 44.7268 63.1262 44.2125C63.1262 43.6982 62.7074 43.2812 62.1908 43.2812Z" fill="#FF0000"/>
<path d="M38.3406 49.3357C39.1155 49.3357 39.7437 48.7103 39.7437 47.9389C39.7437 47.1674 39.1155 46.542 38.3406 46.542C37.5657 46.542 36.9375 47.1674 36.9375 47.9389C36.9375 48.7103 37.5657 49.3357 38.3406 49.3357Z" fill="#86A0AF"/>
<path d="M43.0125 59.1101C43.7874 59.1101 44.4155 58.4847 44.4155 57.7133C44.4155 56.9418 43.7874 56.3164 43.0125 56.3164C42.2376 56.3164 41.6094 56.9418 41.6094 57.7133C41.6094 58.4847 42.2376 59.1101 43.0125 59.1101Z" fill="#86A0AF"/>
<path d="M45.8209 54.9209L44.4178 57.7146H43.4824V54.9209H45.8209Z" fill="#C5D7DC"/>
<path d="M60.7898 49.3357C61.5647 49.3357 62.1929 48.7103 62.1929 47.9389C62.1929 47.1674 61.5647 46.542 60.7898 46.542C60.0149 46.542 59.3867 47.1674 59.3867 47.9389C59.3867 48.7103 60.0149 49.3357 60.7898 49.3357Z" fill="#86A0AF"/>
<path d="M56.5769 59.1101C57.3518 59.1101 57.98 58.4847 57.98 57.7133C57.98 56.9418 57.3518 56.3164 56.5769 56.3164C55.802 56.3164 55.1738 56.9418 55.1738 57.7133C55.1738 58.4847 55.802 59.1101 56.5769 59.1101Z" fill="#86A0AF"/>
<path d="M55.6426 54.9209L56.578 57.7146L57.5134 54.9209H55.6426Z" fill="#C5D7DC"/>
<path d="M55.6426 46.542H57.5134V54.9232H55.6426V46.542Z" fill="#D0E2E7"/>
<path d="M46.4325 54.9195H43.4823C43.2342 54.9195 42.9963 54.8214 42.8208 54.6467C42.6454 54.4721 42.5469 54.2352 42.5469 53.9882C42.5469 53.7413 42.6454 53.5044 42.8208 53.3298C42.9963 53.1551 43.2342 53.057 43.4823 53.057H45.209L48.2376 46.165L49.9516 46.9116L46.4325 54.9195Z" fill="#D0E2E7"/>
<path d="M36 40.4854H63.1262V43.2791H36V40.4854Z" fill="#F4F4F4"/>
<path d="M38.8066 39.5557H40.6774V43.2806H38.8066V39.5557Z" fill="#D0E2E7"/>
<path d="M58.4512 39.5557H60.3219V43.2806H58.4512V39.5557Z" fill="#D0E2E7"/>
<path d="M39.7447 45.1465V47.9402H38.8093L37.4062 45.1465H39.7447Z" fill="#FF0000"/>
<path d="M62.1881 45.1436V47.9373H61.2527L59.8496 45.1436H62.1881Z" fill="#FF0000"/>
<path d="M44.8862 45.1436V46.5404C44.8862 46.9109 44.7384 47.2662 44.4753 47.5282C44.2122 47.7901 43.8553 47.9373 43.4832 47.9373C43.111 47.9373 42.7542 47.7901 42.491 47.5282C42.2279 47.2662 42.0801 46.9109 42.0801 46.5404V45.1436H44.8862Z" fill="#FF0000"/>
<path d="M50.4995 45.1436V46.5404C50.4995 46.9109 50.3517 47.2662 50.0886 47.5282C49.8254 47.7901 49.4686 47.9373 49.0964 47.9373C48.7243 47.9373 48.3674 47.7901 48.1043 47.5282C47.8412 47.2662 47.6934 46.9109 47.6934 46.5404V45.1436H50.4995Z" fill="#FF0000"/>
<path d="M57.9839 45.1436V46.5404C57.9839 46.9109 57.8361 47.2662 57.5729 47.5282C57.3098 47.7901 56.9529 47.9373 56.5808 47.9373C56.2087 47.9373 55.8518 47.7901 55.5887 47.5282C55.3256 47.2662 55.1777 46.9109 55.1777 46.5404V45.1436H57.9839Z" fill="#FF0000"/>
<path d="M52.8363 39.5557H46.2886C45.5443 39.5557 44.8306 39.85 44.3043 40.3739C43.7781 40.8979 43.4824 41.6085 43.4824 42.3494V45.1431H45.3532V42.3494C45.3532 42.1024 45.4517 41.8655 45.6272 41.6909C45.8026 41.5163 46.0405 41.4182 46.2886 41.4182H52.8363C53.0844 41.4182 53.3223 41.5163 53.4977 41.6909C53.6731 41.8655 53.7717 42.1024 53.7717 42.3494V45.1431H55.6424V42.3494C55.6424 41.6085 55.3468 40.8979 54.8205 40.3739C54.2943 39.85 53.5805 39.5557 52.8363 39.5557Z" fill="#86A0AF"/>
<path d="M37.4062 45.1436H39.7447V46.0748H37.8739L37.4062 45.1436Z" fill="#E00000"/>
<path d="M42.0781 45.1436H44.8843V46.0748H42.0781V45.1436Z" fill="#E00000"/>
<path d="M47.6914 45.1436H50.4976V46.0748H47.6914V45.1436Z" fill="#E00000"/>
<path d="M55.1738 45.1436H57.98V46.0748H55.1738V45.1436Z" fill="#E00000"/>
<path d="M62.192 45.1436V46.0748H60.3212L59.8535 45.1436H62.192Z" fill="#E00000"/>
<defs>
<clipPath id="clip0">
<rect x="20" y="20" width="80" height="80" fill="white"/>
</clipPath>
</defs>
</svg>
