<svg width="48" height="48" viewBox="0 0 48 48" fill="none" xmlns="http://www.w3.org/2000/svg">
<path d="M22.2373 23.0356H23.4658C24.0856 23.0301 24.5754 22.8696 24.9351 22.5542C25.3003 22.2388 25.4829 21.7822 25.4829 21.1846C25.4829 20.609 25.3307 20.1636 25.0264 19.8481C24.7275 19.5272 24.2682 19.3667 23.6484 19.3667C23.1061 19.3667 22.6606 19.5244 22.312 19.8398C21.9634 20.1497 21.7891 20.5565 21.7891 21.0601H19.772C19.772 20.4403 19.9352 19.8758 20.2617 19.3667C20.5938 18.8576 21.0531 18.4619 21.6396 18.1797C22.2318 17.8919 22.8931 17.748 23.6235 17.748C24.8299 17.748 25.7762 18.0524 26.4624 18.6611C27.1541 19.2643 27.5 20.1055 27.5 21.1846C27.5 21.7269 27.3257 22.2388 26.9771 22.7202C26.634 23.1961 26.1885 23.5558 25.6406 23.7993C26.3047 24.0262 26.8083 24.3831 27.1514 24.8701C27.5 25.3571 27.6743 25.9382 27.6743 26.6133C27.6743 27.6979 27.3008 28.5612 26.5537 29.2031C25.8122 29.8451 24.8354 30.166 23.6235 30.166C22.4614 30.166 21.5096 29.8561 20.7681 29.2363C20.0265 28.6165 19.6558 27.792 19.6558 26.7627H21.6729C21.6729 27.2939 21.8499 27.7256 22.2041 28.0576C22.5638 28.3896 23.0452 28.5557 23.6484 28.5557C24.2738 28.5557 24.7663 28.3896 25.126 28.0576C25.4857 27.7256 25.6655 27.2441 25.6655 26.6133C25.6655 25.9769 25.4774 25.4871 25.1011 25.144C24.7248 24.8009 24.1659 24.6294 23.4243 24.6294H22.2373V23.0356Z" fill="#FF0000"/>
<circle cx="24" cy="24" r="23" stroke="#FF0000" stroke-width="2"/>
</svg>
