<svg width="63" height="54" viewBox="0 0 63 54" fill="none" xmlns="http://www.w3.org/2000/svg">
<path d="M59.0935 7.12817C56.7233 3.89835 53.2372 1.78476 49.2773 1.1769C45.3175 0.568971 41.3579 1.53954 38.128 3.90977C34.8982 6.28 32.7846 9.76612 32.1768 13.726C31.649 17.1641 32.3118 20.6016 34.0467 23.5618C34.048 23.564 34.0493 23.5662 34.0505 23.5684C34.3127 24.0154 34.5989 24.4517 34.9096 24.8752C37.0218 27.7534 40.0965 29.7873 43.5673 30.602C43.7255 30.6392 43.8841 30.673 44.043 30.705C44.0761 30.7143 44.1099 30.7206 44.1442 30.7241C45.0918 30.9077 46.0499 31 47.0056 31C47.9679 31 48.9271 30.9062 49.8696 30.7235C49.8976 30.7201 49.9252 30.715 49.9522 30.7077C51.2626 30.4459 52.5395 30.0097 53.7443 29.4017C54.0332 29.2559 54.1492 28.9036 54.0034 28.6147C53.8576 28.3258 53.5053 28.2098 53.2164 28.3557C52.4907 28.7219 51.7468 29.0182 50.9928 29.2478L53.4222 25.036L58.1786 24.1426C57.7651 24.7128 57.3039 25.2561 56.7945 25.7657C56.5658 25.9946 56.5658 26.3655 56.7947 26.5942C57.0236 26.823 57.3945 26.8229 57.6232 26.5941C58.5196 25.6974 59.2912 24.6941 59.9268 23.6132C59.9315 23.6054 59.9362 23.5977 59.9405 23.5898C60.9768 21.8201 61.6468 19.8427 61.8937 17.7798C61.8959 17.7655 61.8975 17.7511 61.8986 17.7367C61.9195 17.5581 61.938 17.379 61.9525 17.1992C62.2413 13.6107 61.226 10.0342 59.0935 7.12817ZM49.0996 2.33509C52.1351 2.80109 54.8681 4.22759 56.9592 6.40674L56.2444 12.5528L51.6512 13.5841L47.6018 10.6421V6.24162L48.504 5.59497C48.767 5.40647 48.8274 5.04042 48.6389 4.77745C48.4503 4.51447 48.0844 4.45412 47.8214 4.64256L46.9772 5.24762L42.941 2.77812C44.9091 2.17213 47.0041 2.01346 49.0996 2.33509ZM43.1709 14.4376L45.0791 13.0512L46.9873 11.6648L50.8038 14.4376L49.346 18.9241H44.6286V18.924L43.1709 14.4376ZM38.8213 4.8545C39.6772 4.22642 40.5889 3.70557 41.5399 3.29464L46.4014 6.26916V10.6422L42.3521 13.5842L37.7408 12.5489L36.7992 6.66357C37.4062 6.0032 38.0819 5.39709 38.8213 4.8545ZM33.3349 13.9038C33.6748 11.69 34.5259 9.63733 35.8066 7.87684L36.5994 12.8323L33.1742 16.2873C33.1597 15.4975 33.2127 14.7007 33.3349 13.9038ZM33.2913 17.8337L37.4128 13.6761L42.0281 14.7123L43.5593 19.4251L40.6773 23.8602L34.9359 22.7581C34.0731 21.2245 33.5192 19.5575 33.2913 17.8337ZM35.8543 24.182C35.839 24.1611 35.8244 24.1399 35.8091 24.1189L40.5802 25.0348L43.017 29.2588C40.23 28.4185 37.696 26.6916 35.8543 24.182ZM49.4207 29.628C47.8059 29.9187 46.1696 29.9142 44.5859 29.6333L41.6407 24.5281L44.5209 20.0958H49.4821L52.3624 24.5281L49.4207 29.628ZM59.0439 22.7877L53.3267 23.8616L50.4437 19.4251L51.9751 14.7123L56.587 13.6768L60.6752 17.8749C60.4439 19.5867 59.8978 21.2578 59.0439 22.7877ZM60.798 16.3217L57.3924 12.8244L57.9977 7.6206C58.0484 7.68722 58.0991 7.75379 58.1488 7.82147C59.9991 10.3429 60.8688 13.3476 60.798 16.3217Z" fill="white" stroke="white" stroke-width="0.5"/>
<path d="M50.214 3.53057C50.105 3.42158 49.9539 3.35889 49.7998 3.35889C49.6457 3.35889 49.4945 3.42158 49.3856 3.53057C49.2766 3.63956 49.2139 3.79067 49.2139 3.94478C49.2139 4.09888 49.2766 4.25 49.3856 4.35899C49.4945 4.46856 49.6457 4.53067 49.7998 4.53067C49.9539 4.53067 50.105 4.46856 50.214 4.35899C50.323 4.25 50.3857 4.09888 50.3857 3.94478C50.3857 3.79067 50.323 3.6395 50.214 3.53057Z" fill="white"/>
<path d="M55.8741 27.2288C55.7651 27.1198 55.614 27.0571 55.4599 27.0571C55.3058 27.0571 55.1547 27.1198 55.0457 27.2288C54.9367 27.3378 54.874 27.4889 54.874 27.643C54.874 27.7971 54.9367 27.9482 55.0457 28.0572C55.1547 28.1668 55.3058 28.2289 55.4599 28.2289C55.614 28.2289 55.7651 28.1668 55.8741 28.0572C55.9831 27.9482 56.0458 27.7971 56.0458 27.643C56.0458 27.4889 55.9831 27.3378 55.8741 27.2288Z" fill="white"/>
<g filter="url(#filter0_d)">
<path d="M11.453 30.9364H30.0449C30.3467 30.9364 30.5917 30.6914 30.5917 30.3896V24.9214C30.5917 21.9319 28.8746 20 26.2171 20H15.8276C13.0219 20 10.9062 22.1157 10.9062 24.9214V30.3895C10.9063 30.6914 11.1512 30.9364 11.453 30.9364ZM11.9998 24.9214C11.9998 22.7035 13.6097 21.0937 15.8276 21.0937H26.2171C28.6363 21.0937 29.498 23.071 29.498 24.9214V29.8427H11.9998V24.9214Z" fill="white"/>
<path d="M11.453 31.0864H30.0449C30.4295 31.0864 30.7417 30.7743 30.7417 30.3896V24.9214C30.7417 23.3986 30.3041 22.13 29.5131 21.24C28.7204 20.3482 27.5844 19.85 26.2171 19.85H15.8276C12.939 19.85 10.7562 22.0328 10.7562 24.9214V30.3895C10.7562 30.7743 11.0684 31.0864 11.453 31.0864ZM12.1498 24.9214C12.1498 22.7863 13.6925 21.2437 15.8276 21.2437H26.2171C27.3793 21.2437 28.1536 21.7154 28.6426 22.4008C29.1367 23.0931 29.348 24.0162 29.348 24.9214V29.6927H12.1498V24.9214Z" stroke="white" stroke-width="0.3"/>
</g>
<path d="M27.8579 25.3185H23.5468C23.2343 24.0641 22.0994 23.1312 20.7492 23.1312C19.3991 23.1312 18.2642 24.0641 17.9517 25.3185H13.6405C13.2559 25.3185 12.9437 25.6306 12.9437 26.0153C12.9437 26.4 13.2559 26.7121 13.6405 26.7121H17.9517C18.2642 27.9665 19.3991 28.8994 20.7492 28.8994C22.0994 28.8994 23.2343 27.9665 23.5468 26.7121H27.8579C28.2426 26.7121 28.5547 26.4 28.5547 26.0153C28.5547 25.6306 28.2426 25.3185 27.8579 25.3185ZM20.7493 27.5058C19.9277 27.5058 19.2588 26.8369 19.2588 26.0153C19.2588 25.1937 19.9277 24.5248 20.7493 24.5248C21.5709 24.5248 22.2398 25.1937 22.2398 26.0153C22.2398 26.8369 21.5709 27.5058 20.7493 27.5058Z" fill="white" stroke="white" stroke-width="0.3"/>
<path d="M20.5455 37.5373C20.6767 37.4859 20.8211 37.4859 20.9523 37.5373H20.5455ZM20.5455 37.5373C17.9437 38.5784 13.9027 38.5921 13.8623 38.5921C13.8546 38.5921 13.8476 38.5942 13.8405 38.5962C13.8345 38.598 13.8284 38.5998 13.8218 38.6003L20.5455 37.5373ZM14.1541 42.8065L14.1541 42.8065L14.1561 42.8096C14.509 43.3386 15.1082 44.2369 16.1433 45.0014C17.1831 45.7693 18.6559 46.3975 20.7488 46.3975C22.8417 46.3975 24.3145 45.7693 25.3543 45.0014C26.3895 44.2368 26.9888 43.3384 27.3416 42.8094L27.3435 42.8065L27.3435 42.8065C27.8422 42.0584 28.3229 40.7413 28.7116 39.4783C29.0848 38.2656 29.3788 37.0838 29.5269 36.4595C30.2324 36.2195 30.7415 35.5505 30.7415 34.7643V32.5771C30.7415 32.1924 30.4294 31.8803 30.0447 31.8803C29.6601 31.8803 29.3479 32.1924 29.3479 32.5771V34.7643C29.3479 34.9828 29.1696 35.1611 28.9511 35.1611C28.6244 35.1611 28.3414 35.3882 28.271 35.707L28.2707 35.7082L28.2707 35.7084C28.2706 35.7088 28.2703 35.7102 28.2697 35.7129L28.2667 35.7263L28.2556 35.775C28.246 35.8168 28.2322 35.877 28.2143 35.9532C28.1785 36.1055 28.1268 36.3219 28.0618 36.5839C27.9384 37.0808 27.7672 37.7416 27.5658 38.4414C27.3029 38.4381 26.4029 38.4185 25.275 38.3065C23.9367 38.1735 22.291 37.9114 21.008 37.398L21.007 37.3976C20.8406 37.3324 20.6572 37.3324 20.4908 37.3976L20.4897 37.398C19.2089 37.9105 17.5653 38.1726 16.2285 38.3058C15.0901 38.4193 14.1839 38.4383 13.932 38.4415C13.7306 37.742 13.5594 37.0815 13.4361 36.5846C13.371 36.3224 13.3193 36.1059 13.2836 35.9534C13.2657 35.8772 13.2518 35.817 13.2422 35.7751L13.2312 35.7264L13.2282 35.713C13.2275 35.7103 13.2272 35.7089 13.2271 35.7084L13.2271 35.7083L13.2271 35.7083L13.2268 35.707C13.1564 35.3883 12.8734 35.1612 12.5466 35.1612C12.3282 35.1612 12.1498 34.9829 12.1498 34.7644V32.5771C12.1498 32.1925 11.8377 31.8803 11.453 31.8803C11.0684 31.8803 10.7563 32.1925 10.7563 32.5771V34.7644C10.7563 34.7644 10.7563 34.7644 10.7563 34.7644C10.7561 35.5505 11.2652 36.2195 11.9707 36.4595C12.1188 37.0838 12.4128 38.2656 12.786 39.4783C13.1747 40.7413 13.6554 42.0584 14.1541 42.8065ZM15.3136 42.0331L15.3136 42.0331C14.9943 41.5542 14.6637 40.7325 14.3606 39.8267C15.5169 39.792 18.4814 39.6234 20.7489 38.7914C23.0118 39.6218 25.9738 39.7915 27.1376 39.8261C26.8339 40.732 26.5034 41.5536 26.1841 42.0331C25.8561 42.5252 25.3622 43.2647 24.5193 43.884C23.6792 44.5011 22.4847 45.0039 20.7489 45.0039C19.013 45.0039 17.8185 44.5011 16.9784 43.884C16.1355 43.2647 15.6416 42.5252 15.3136 42.0331Z" fill="white" stroke="white" stroke-width="0.3"/>
<path d="M24.658 46.3054L24.7274 46.1724L24.7269 46.1721C24.4829 46.0461 24.1886 46.0835 23.9818 46.2678L23.9817 46.2679L20.7487 49.1543L17.5159 46.268L17.5158 46.2679L17.4159 46.3798M24.658 46.3054L14.8136 47.1921M24.658 46.3054L24.7274 46.1724L24.7274 46.1724L24.7277 46.1725L24.7285 46.173L24.7319 46.1747L24.745 46.1816L24.7952 46.2078L24.9778 46.3029L25.5608 46.6068C25.9834 46.827 26.4546 47.0725 26.6839 47.1917C30.1545 47.1998 32.3319 47.4751 33.7263 48.0086C34.429 48.2775 34.9379 48.6137 35.3131 49.0182C35.6885 49.4227 35.9231 49.8879 36.0883 50.4037L36.0883 50.4037L36.6132 52.044C36.7286 52.4041 36.5431 52.7994 36.1874 52.9232L36.1872 52.9233C36.1156 52.9481 36.0428 52.9594 35.9721 52.9594C35.6856 52.9594 35.4241 52.7711 35.3311 52.4812L35.3311 52.4811L34.8062 50.8409C34.7262 50.5912 34.6454 50.3425 34.4574 50.0976C34.2708 49.8545 33.9696 49.6049 33.4345 49.38C32.3562 48.9269 30.3555 48.5852 26.5231 48.5852H26.3731V48.5332C26.2451 48.4911 26.0783 48.4172 25.8484 48.3053C25.5486 48.1594 25.1272 47.9416 24.5226 47.6269L21.4236 50.3942V52.2627C21.4236 52.6415 21.127 52.9594 20.7487 52.9594C20.3704 52.9594 20.0738 52.6415 20.0738 52.2627V50.3942L16.9748 47.627L15.2783 48.5113C15.1844 48.5603 15.0797 48.5857 14.9743 48.5857H14.9696C14.8062 48.5857 14.6473 48.5865 14.4916 48.5879C15.1819 48.9867 15.6492 49.7479 15.6492 50.6223C15.6492 51.9055 14.646 52.9594 13.3995 52.9594C12.1529 52.9594 11.1497 51.9056 11.1497 50.6223C11.1497 49.798 11.565 49.0742 12.191 48.6599M24.658 46.3054L12.191 48.6599M17.4159 46.3798C17.2557 46.2365 17.0274 46.2076 16.8395 46.3054L14.8504 47.3421M17.4159 46.3798L20.7487 49.3554L17.4159 46.3798ZM14.8504 47.3421L14.8502 47.1921C14.838 47.1921 14.8258 47.1921 14.8136 47.1921M14.8504 47.3421L14.7811 47.2091L14.8136 47.1921M14.8504 47.3421C14.3711 47.3427 13.9192 47.3492 13.4887 47.3602M14.8136 47.1921C14.3538 47.193 13.9191 47.1993 13.5043 47.2097M13.4887 47.3602L13.5156 47.2126C13.5119 47.2119 13.51 47.2114 13.5048 47.2099C13.5047 47.2098 13.5045 47.2098 13.5043 47.2097M13.4887 47.3602C13.4777 47.3582 13.4671 47.3551 13.4564 47.3521C13.4381 47.3468 13.4197 47.3416 13.3995 47.3416C13.3695 47.3416 13.3423 47.3494 13.3148 47.3572C13.3038 47.3604 13.2927 47.3635 13.2814 47.3662M13.4887 47.3602L13.4849 47.2102C13.4914 47.21 13.4979 47.2099 13.5043 47.2097M13.5043 47.2097L13.2814 47.3662M12.191 48.6599C9.81153 48.8015 8.50788 49.1319 7.76843 49.5189C7.36827 49.7284 7.13621 49.953 6.98681 50.1718C6.8358 50.393 6.7634 50.6159 6.6913 50.8408C6.69129 50.8408 6.69128 50.8408 6.69127 50.8409L12.191 48.6599ZM13.2814 47.3662C7.61354 47.5352 6.14316 48.6057 5.55204 50.4495L5.02712 52.0899L13.2814 47.3662ZM4.88425 52.0441C4.76889 52.4041 4.95428 52.7993 5.30998 52.9232C5.31003 52.9232 5.31008 52.9232 5.31014 52.9232L5.35943 52.7816C5.63503 52.8778 5.9316 52.722 6.02351 52.4354L4.88425 52.0441ZM14.2994 50.6223C14.2994 51.1483 13.89 51.5658 13.3995 51.5658C12.909 51.5658 12.4996 51.1484 12.4996 50.6223C12.4996 50.0961 12.909 49.6787 13.3995 49.6787C13.8899 49.6787 14.2994 50.0962 14.2994 50.6223Z" fill="white" stroke="white" stroke-width="0.3"/>
<path d="M22.3896 34.0673C22.0049 34.0673 21.6928 34.3794 21.6928 34.7641C21.6928 35.1487 22.0049 35.4609 22.3896 35.4609H22.8026C22.8712 35.7735 23.15 36.0077 23.4832 36.0077C23.8163 36.0077 24.0951 35.7735 24.1638 35.4609H24.5768C24.9614 35.4609 25.2736 35.1487 25.2736 34.7641C25.2736 34.3794 24.9614 34.0673 24.5768 34.0673H22.3896Z" fill="white" stroke="white" stroke-width="0.3"/>
<path d="M16.9198 34.0673C16.5352 34.0673 16.223 34.3794 16.223 34.7641C16.223 35.1487 16.5352 35.4609 16.9198 35.4609H17.3328C17.4015 35.7735 17.6803 36.0077 18.0134 36.0077C18.3466 36.0077 18.6254 35.7735 18.694 35.4609H19.107C19.4917 35.4609 19.8038 35.1487 19.8038 34.7641C19.8038 34.3794 19.4917 34.0673 19.107 34.0673H16.9198Z" fill="white" stroke="white" stroke-width="0.3"/>
<defs>
<filter id="filter0_d" x="0.606445" y="19.7002" width="40.2854" height="31.5364" filterUnits="userSpaceOnUse" color-interpolation-filters="sRGB">
<feFlood flood-opacity="0" result="BackgroundImageFix"/>
<feColorMatrix in="SourceAlpha" type="matrix" values="0 0 0 0 0 0 0 0 0 0 0 0 0 0 0 0 0 0 127 0"/>
<feOffset dy="10"/>
<feGaussianBlur stdDeviation="5"/>
<feColorMatrix type="matrix" values="0 0 0 0 1 0 0 0 0 1 0 0 0 0 1 0 0 0 1 0"/>
<feBlend mode="normal" in2="BackgroundImageFix" result="effect1_dropShadow"/>
<feBlend mode="normal" in="SourceGraphic" in2="effect1_dropShadow" result="shape"/>
</filter>
</defs>
</svg>
