<svg width="48" height="48" viewBox="0 0 48 48" fill="none" xmlns="http://www.w3.org/2000/svg">
<path d="M6.63447 30.6345L5.03444 32.2346C4.72159 32.5473 4.72159 33.053 5.03444 33.3658C5.19044 33.5218 5.39528 33.6001 5.60003 33.6001C5.80478 33.6001 6.00962 33.5218 6.16562 33.3658L7.76566 31.7657C8.0785 31.453 8.0785 30.9473 7.76566 30.6345C7.45291 30.3217 6.94722 30.3217 6.63447 30.6345Z" fill="white"/>
<path d="M21.6 15.2001C21.1584 15.2001 20.8 15.5585 20.8 16.0001V26.7057L18.7576 25.6842C18.3616 25.4858 17.8824 25.6473 17.684 26.0426C17.4863 26.4377 17.6471 26.9177 18.0424 27.1162L20.7999 28.4946V38.4001H20.3311L17.3655 35.4345C17.0527 35.1218 16.5471 35.1218 16.2343 35.4345C15.9215 35.7474 15.9215 36.253 16.2343 36.5657L18.0687 38.4001H16.8C16.3584 38.4001 16 38.7585 16 39.2001C16 39.6417 16.3584 40.0001 16.8 40.0001H20.8V40.8C20.8 43.056 20.1136 45.1345 13.5201 45.9888L10.9656 43.4345C10.6527 43.1217 10.1471 43.1217 9.83438 43.4345C9.52153 43.7472 9.52153 44.2529 9.83438 44.5657L11.468 46.1993C9.81675 46.3288 7.88081 46.4001 5.59997 46.4001C2.87119 46.4001 1.59994 42.8409 1.59994 35.2001C1.59994 28.1792 4.63913 21.4528 6.48394 18.0161L7.43438 18.9657C7.59038 19.1217 7.79522 19.2001 7.99997 19.2001C8.20481 19.2001 8.40956 19.1217 8.56556 18.9657C8.87841 18.6529 8.87841 18.1473 8.56556 17.8346L7.29844 16.5665C7.63922 15.9881 7.85447 15.6609 7.86563 15.6433C7.88325 15.6169 7.90003 15.5874 7.91522 15.5593C7.94484 15.4993 10.984 9.60013 16.8 9.60013C17.68 9.60013 18.4472 9.89375 19.0784 10.4721C19.404 10.7697 19.9112 10.7481 20.2088 10.4217C20.5072 10.0961 20.4848 9.58963 20.1593 9.29122C19.2361 8.44644 18.0744 8 16.8001 8C10.2033 8 6.84412 14.1464 6.50812 14.796C5.99362 15.5777 0 24.9113 0 35.2002C0 41.1593 0.636 48.0001 5.59997 48.0001C18.0039 48.0001 22.4 46.1161 22.4 40.8001V16.0002C22.4 15.5585 22.0416 15.2001 21.6 15.2001Z" fill="white"/>
<path d="M31.2002 17.6C31.4051 17.6 31.6098 17.5216 31.7658 17.3656C32.0787 17.0527 32.0787 16.5472 31.7658 16.2344L24.8002 9.26878V0.799969C24.8002 0.358406 24.4418 0 24.0002 0C23.5587 0 23.2003 0.358406 23.2003 0.799969V9.26878L16.2346 16.2344C15.9218 16.5473 15.9218 17.0528 16.2346 17.3656C16.5475 17.6783 17.0531 17.6783 17.3658 17.3656L24.0002 10.7312L30.6346 17.3656C30.7906 17.5216 30.9954 17.6 31.2002 17.6Z" fill="white"/>
<path d="M41.4915 14.796C41.1547 14.1464 37.7955 8 31.1996 8C29.9027 8 28.7251 8.46237 27.7932 9.33603C27.4708 9.63847 27.454 10.1448 27.7563 10.4665C28.0604 10.7896 28.566 10.8049 28.8868 10.5033C29.526 9.90416 30.3044 9.60013 31.1996 9.60013C37.0155 9.60013 40.054 15.4993 40.0844 15.5593C40.0988 15.5881 40.1163 15.6169 40.134 15.6442C40.1451 15.661 40.3604 15.9882 40.702 16.5666L39.434 17.8346C39.1213 18.1474 39.1213 18.653 39.434 18.9658C39.59 19.1218 39.7949 19.2001 39.9996 19.2001C40.2044 19.2001 40.4092 19.1218 40.5652 18.9658L41.5164 18.0153C43.3612 21.4497 46.3995 28.1698 46.3995 35.2002C46.3995 42.841 45.1284 46.4002 42.3995 46.4002C40.1179 46.4002 38.1827 46.329 36.5315 46.1994L38.1651 44.5658C38.478 44.2529 38.478 43.7473 38.1651 43.4346C37.8524 43.1218 37.3467 43.1218 37.0339 43.4346L34.4804 45.989C27.886 45.1346 27.1995 43.0562 27.1995 40.8002V40.0003H31.1996C31.642 40.0003 31.9995 39.6418 31.9995 39.2003C31.9995 38.7587 31.642 38.4003 31.1996 38.4003H29.9308L31.7652 36.5659C32.078 36.2532 32.078 35.7475 31.7652 35.4347C31.4524 35.122 30.9467 35.122 30.634 35.4347L27.6684 38.4H27.1996V28.4944L29.9572 27.116C30.3525 26.9176 30.5132 26.4376 30.3156 26.0424C30.1164 25.6471 29.6364 25.4863 29.242 25.684L27.1995 26.7056V16.0001C27.1995 15.5585 26.842 15.2001 26.3996 15.2001C25.9572 15.2001 25.5996 15.5585 25.5996 16.0001V40.8C25.5996 46.116 29.9956 48 42.3996 48C47.3627 48 47.9996 41.1592 47.9996 35.2001C47.9996 24.9112 42.006 15.5776 41.4915 14.796Z" fill="white"/>
<path d="M42.4002 33.6001C42.605 33.6001 42.8098 33.5218 42.9658 33.3658C43.2786 33.0529 43.2786 32.5473 42.9658 32.2346L41.3658 30.6345C41.0529 30.3217 40.5473 30.3217 40.2346 30.6345C39.9218 30.9473 39.9218 31.453 40.2346 31.7657L41.8346 33.3658C41.9906 33.5218 42.1953 33.6001 42.4002 33.6001Z" fill="white"/>
</svg>
