<svg width="42" height="48" viewBox="0 0 42 48" fill="none" xmlns="http://www.w3.org/2000/svg">
<path d="M32.8002 44.7999C33.005 44.7999 33.2097 44.7215 33.3657 44.5655L38.1657 39.7655C38.3161 39.6159 38.4001 39.4119 38.4001 39.1999V7.19987C38.4001 6.75831 38.0425 6.3999 37.6001 6.3999H32.8002C32.3577 6.3999 32.0002 6.75831 32.0002 7.19987C32.0002 7.64143 32.3577 7.99984 32.8002 7.99984H36.8002V38.8686L32.2346 43.4342C31.9218 43.747 31.9218 44.2527 32.2346 44.5654C32.3906 44.7214 32.5954 44.7999 32.8002 44.7999Z" fill="white"/>
<path d="M8.80016 7.99984C9.24257 7.99984 9.60013 7.64143 9.60013 7.19987C9.60013 6.75831 9.24257 6.3999 8.80016 6.3999H4.00016C3.55776 6.3999 3.2002 6.75831 3.2002 7.19987V41.5998C3.2002 43.3647 4.63541 44.7998 6.40016 44.7998H29.6002C30.0426 44.7998 30.4002 44.4414 30.4002 43.9998V39.1998C30.4002 38.8374 30.757 38.3999 31.2001 38.3999H34.4001C34.8425 38.3999 35.2001 38.0415 35.2001 37.5999C35.2001 37.1583 34.8425 36.7999 34.4001 36.7999H31.2001C29.9218 36.7999 28.8001 37.9216 28.8001 39.1999V43.1999H6.40016C5.51779 43.1999 4.80013 42.4823 4.80013 41.5998V7.99984H8.80016Z" fill="white"/>
<path d="M20.8002 3.19995C19.9179 3.19995 19.2002 3.91751 19.2002 4.79998C19.2002 5.68235 19.9178 6.40001 20.8002 6.40001C21.6826 6.40001 22.4003 5.68245 22.4003 4.79998C22.4003 3.91761 21.6826 3.19995 20.8002 3.19995Z" fill="white"/>
<path d="M37.6 3.19995H32.8C32.3576 3.19995 32.0001 3.55836 32.0001 3.99992C32.0001 4.44148 32.3576 4.79989 32.8 4.79989H37.6C38.7665 4.79989 40 6.03345 40 7.19989V43.9999C40 45.1663 38.7665 46.3999 37.6 46.3999H4.00003C2.83359 46.3999 1.60003 45.1663 1.60003 43.9999V7.19998C1.60003 6.03355 2.83359 4.79998 4.00003 4.79998H8.80003C9.24244 4.79998 9.6 4.44158 9.6 4.00001C9.6 3.55845 9.24244 3.20004 8.80003 3.20004H4.00003C1.944 3.20004 0 5.14405 0 7.20008V44C0 46.056 1.944 48 4.00003 48H37.6C39.6561 48 41.6001 46.056 41.6001 44V7.19998C41.6001 5.14395 39.6561 3.19995 37.6 3.19995Z" fill="white"/>
<path d="M6.40039 26.4001C6.40039 26.8416 6.75795 27.2 7.20036 27.2H10.4003C10.7451 27.2 11.0508 26.98 11.1588 26.6528L13.6004 19.3296L19.242 36.2528C19.3484 36.5728 19.6436 36.7912 19.9812 36.8H20.0004C20.3292 36.8 20.626 36.5985 20.746 36.2896L25.6916 23.5721L27.2844 26.7577C27.4205 27.0289 27.6972 27.2001 28.0004 27.2001H30.5484C30.8796 28.1297 31.7588 28.8001 32.8004 28.8001C34.1236 28.8001 35.2004 27.7232 35.2004 26.4001C35.2004 25.0769 34.1236 24.0001 32.8004 24.0001C31.7588 24.0001 30.8795 24.6705 30.5484 25.6001H28.4948L26.3165 21.2425C26.1749 20.9593 25.8589 20.7945 25.5636 20.8009C25.2476 20.8161 24.9693 21.0153 24.8549 21.3106L20.0581 33.6441L14.3588 16.5472C14.2508 16.22 13.9452 16 13.6004 16C13.2556 16 12.9508 16.22 12.842 16.5472L9.82358 25.6H7.20036C6.75795 25.6001 6.40039 25.9585 6.40039 26.4001ZM32.8004 25.6001C33.242 25.6001 33.6004 25.9592 33.6004 26.4001C33.6004 26.8409 33.242 27.2 32.8004 27.2C32.3588 27.2 32.0004 26.8409 32.0004 26.4001C32.0004 25.9592 32.3588 25.6001 32.8004 25.6001Z" fill="white"/>
<path d="M12.0002 9.6H29.6001C30.0425 9.6 30.4001 9.24159 30.4001 8.80003V4.00003C30.4001 3.55847 30.0425 3.20006 29.6001 3.20006H25.3257C24.6578 1.31203 22.849 0 20.8002 0C18.7514 0 16.9426 1.31203 16.2746 3.19997H12.0002C11.5578 3.19997 11.2002 3.55838 11.2002 3.99994V8.79994C11.2002 9.24159 11.5578 9.6 12.0002 9.6ZM12.8002 4.8H16.8811C17.261 4.8 17.5891 4.53197 17.6643 4.15922C17.9659 2.676 19.2843 1.60003 20.8003 1.60003C22.3163 1.60003 23.6347 2.676 23.9363 4.15922C24.0115 4.53206 24.3395 4.8 24.7195 4.8H28.8004V7.99997H12.8002V4.8Z" fill="white"/>
</svg>
