<svg width="50" height="50" viewBox="0 0 50 50" fill="none" xmlns="http://www.w3.org/2000/svg">
<path d="M28.3203 50H21.6797C20.6028 50 19.7266 49.1238 19.7266 48.0469V45.1313C17.889 44.651 16.1354 43.924 14.4958 42.9623L12.4325 45.0256C11.6707 45.787 10.4317 45.787 9.67026 45.0256L4.97437 40.3297C4.21295 39.5683 4.21295 38.3293 4.97437 37.5679L7.03773 35.5042C6.07605 33.8646 5.34897 32.111 4.8687 30.2734H1.95312C0.876236 30.2734 0 29.3972 0 28.3203V21.6797C0 20.6028 0.876236 19.7266 1.95312 19.7266H4.86221C5.34096 17.886 6.06728 16.1293 7.02896 14.4867L4.97437 12.4321C4.21295 11.6707 4.21295 10.4317 4.97437 9.67026L9.67026 4.97437C10.4317 4.21295 11.6707 4.21295 12.4325 4.97437L14.4798 7.02209C16.124 6.05583 17.8829 5.3257 19.7266 4.8439V1.95312C19.7266 0.876236 20.6028 0 21.6797 0H28.3203C29.3972 0 30.2734 0.876236 30.2734 1.95312V4.83742C32.1198 5.31769 33.8821 6.04706 35.5289 7.01294L37.5679 4.97437C38.3293 4.21295 39.5683 4.21295 40.3297 4.97437L45.0256 9.67026C45.787 10.4317 45.787 11.6707 45.0256 12.4325L42.9871 14.4711C43.9529 16.1179 44.6823 17.8802 45.1626 19.7266H48.0469C49.1238 19.7266 50 20.6028 50 21.6797V28.3203C50 29.3972 49.1238 30.2734 48.0469 30.2734H45.1561C44.6743 32.1171 43.9438 33.876 42.9779 35.5202L45.0253 37.5679C45.7867 38.3293 45.7867 39.5683 45.0253 40.3297L40.3297 45.0256C39.5683 45.787 38.3293 45.787 37.5675 45.0256L35.5133 42.971C33.8703 43.9327 32.1136 44.659 30.2734 45.1378V48.0469C30.2734 49.1238 29.3972 50 28.3203 50ZM14.3494 40.7509C14.5309 40.7509 14.7129 40.8012 14.8746 40.9042C16.7328 42.0906 18.7649 42.9333 20.9141 43.409C21.3615 43.5081 21.6797 43.9045 21.6797 44.3626V48.0469H28.3203V44.368C28.3203 43.9095 28.6392 43.5127 29.0871 43.4143C31.2393 42.9405 33.2745 42.099 35.1357 40.9134C35.5217 40.6673 36.0271 40.7227 36.351 41.0465L38.9488 43.6443L43.6443 38.9488L41.0522 36.3567C40.728 36.0325 40.6731 35.5263 40.9203 35.1398C42.1108 33.2783 42.9569 31.2412 43.4341 29.0859C43.5329 28.6385 43.9297 28.3203 44.3874 28.3203H48.0469V21.6797H44.3928C43.9342 21.6797 43.5375 21.3608 43.4391 20.9129C42.9642 18.7546 42.1196 16.7145 40.929 14.8499C40.6826 14.4634 40.7379 13.958 41.0618 13.6337L43.6443 11.0512L38.9488 6.35567L36.3663 8.93822C36.0424 9.26208 35.5366 9.3174 35.1501 9.07097C33.2855 7.8804 31.2454 7.03621 29.0871 6.5609C28.6392 6.46248 28.3203 6.06575 28.3203 5.60722V1.95312H21.6797V5.61256C21.6797 6.07071 21.3615 6.46706 20.9145 6.56624C18.7588 7.04346 16.7217 7.88918 14.8602 9.07974C14.4741 9.32693 13.9675 9.272 13.6436 8.94775L11.0512 6.35567L6.35567 11.0512L8.95348 13.6494C9.27734 13.9729 9.33266 14.4783 9.08661 14.8643C7.901 16.7255 7.05948 18.7607 6.58569 20.9129C6.48727 21.3608 6.09055 21.6797 5.63202 21.6797H1.95312V28.3203H5.63736C6.0955 28.3203 6.49185 28.6388 6.59103 29.0859C7.06673 31.2355 7.90977 33.2672 9.09576 35.1254C9.34219 35.5118 9.28726 36.0176 8.96301 36.3415L6.35567 38.9488L11.0512 43.6447L13.6585 41.037C13.8474 40.8485 14.0972 40.7509 14.3494 40.7509Z" fill="white"/>
<path d="M25.0003 39.2514C21.3492 39.2514 17.6982 37.8614 14.9184 35.082C9.35923 29.5228 9.35923 20.4774 14.9184 14.9182C17.1607 12.6763 20.0038 11.2741 23.1402 10.8636C26.1771 10.4661 29.3124 11.0681 31.9697 12.5581C32.4401 12.8217 32.6075 13.4168 32.3439 13.8871C32.08 14.3579 31.4849 14.5253 31.0145 14.2613C26.2324 11.5796 20.1811 12.4177 16.2997 16.2995C11.5019 21.0969 11.5019 28.9033 16.2997 33.701C18.6984 36.0993 21.8497 37.2987 25.0003 37.2991C28.1516 37.2994 31.3021 36.1001 33.7012 33.701C37.4522 29.9501 38.3811 24.2436 36.0121 19.5016C35.7711 19.019 35.9667 18.4323 36.4493 18.1912C36.9315 17.9502 37.5182 18.1462 37.7593 18.6288C40.5043 24.1235 39.4286 30.7359 35.0821 35.082C32.3024 37.8614 28.6513 39.2514 25.0003 39.2514Z" fill="white"/>
<path d="M34.6045 16.7979C34.3466 16.7979 34.0956 16.6941 33.9129 16.5114C33.7313 16.3298 33.6279 16.0788 33.6279 15.8213C33.6279 15.5642 33.7313 15.3124 33.9129 15.1308C34.0945 14.9489 34.3466 14.8447 34.6045 14.8447C34.8612 14.8447 35.113 14.9489 35.295 15.1308C35.4765 15.3124 35.5811 15.5642 35.5811 15.8213C35.5811 16.0788 35.4765 16.3298 35.295 16.5114C35.1122 16.6941 34.8612 16.7979 34.6045 16.7979Z" fill="white"/>
<path d="M23.6219 32.1939C23.3629 32.1939 23.1145 32.0909 22.9314 31.9078L16.7558 25.7318C16.3744 25.3508 16.3744 24.7324 16.7558 24.3509L20.2585 20.8479C20.4416 20.6648 20.6899 20.5622 20.9489 20.5622C21.208 20.5622 21.4567 20.6648 21.6398 20.8479L23.6219 22.8304L28.3609 18.0918C28.742 17.7103 29.3604 17.7103 29.7418 18.0918L33.2449 21.5948C33.6259 21.9759 33.6259 22.5943 33.2449 22.9757L24.3127 31.9078C24.1293 32.0909 23.8809 32.1939 23.6219 32.1939ZM18.8272 25.0414L23.6219 29.8361L31.1731 22.2853L29.0514 20.1635L24.3127 24.9021C24.1296 25.0853 23.8809 25.1882 23.6219 25.1882C23.3629 25.1882 23.1145 25.0853 22.9314 24.9021L20.9489 22.9196L18.8272 25.0414Z" fill="white"/>
</svg>
