<svg width="47" height="48" viewBox="0 0 47 48" fill="none" xmlns="http://www.w3.org/2000/svg">
<path d="M25.8502 3.2002H21.1502C18.9905 3.2002 17.2334 4.99459 17.2334 7.20027C17.2334 7.64183 17.5843 8.00024 18.0167 8.00024C18.4491 8.00024 18.8001 7.64183 18.8001 7.20027C18.8001 5.87707 19.8545 4.80024 21.1502 4.80024H25.8502C27.1459 4.80024 28.2003 5.87707 28.2003 7.20027C28.2003 7.64183 28.5512 8.00024 28.9836 8.00024C29.416 8.00024 29.7669 7.64183 29.7669 7.20027C29.767 4.99468 28.0099 3.2002 25.8502 3.2002Z" fill="url(#paint0_linear)"/>
<path d="M43.0841 9.6001H3.91677C1.75702 9.6001 0 11.3945 0 13.6002V18.4003C0 19.4851 0.635338 20.3588 1.56673 20.674V44.0009C1.56673 46.2065 3.32375 48.001 5.48349 48.001H41.5175C43.6771 48.001 45.4342 46.2066 45.4342 44.0009V23.2004C45.4342 22.7588 45.0833 22.4004 44.6509 22.4004C44.2185 22.4004 43.8676 22.7588 43.8676 23.2004V44.0009C43.8676 45.3241 42.8132 46.4009 41.5175 46.4009H5.4834C4.18776 46.4009 3.13336 45.3241 3.13336 44.0009V20.0004C3.13336 19.5588 2.78241 19.2004 2.35004 19.2004C1.86672 19.2004 1.56673 18.894 1.56673 18.4004V13.6003C1.56673 12.2771 2.62112 11.2003 3.91677 11.2003H43.0842C44.3798 11.2003 45.4342 12.2771 45.4342 13.6003V18.4004C45.4342 18.886 45.1263 19.2004 44.6509 19.2004H40.7341V16.0004C40.7341 15.118 40.0315 14.4003 39.1674 14.4003H37.6007C36.7367 14.4003 36.034 15.1179 36.034 16.0004V19.2003H10.9669V16.0003C10.9669 15.1179 10.2643 14.4002 9.40017 14.4002H7.83345C6.96944 14.4002 6.26672 15.1178 6.26672 16.0003V19.2003H5.51627C5.08307 19.2003 4.73295 19.5587 4.73295 20.0003C4.73295 20.4419 5.08307 20.8003 5.51627 20.8003H7.05013C7.4825 20.8003 7.83345 20.4419 7.83345 20.0003V16.0002H9.40017V20.0003C9.40017 20.4419 9.75112 20.8003 10.1835 20.8003H36.8173C37.2496 20.8003 37.6006 20.4419 37.6006 20.0003V16.0002H39.1673V20.0003C39.1673 20.4419 39.5183 20.8003 39.9506 20.8003H44.6507C45.9902 20.8003 47.0008 19.7682 47.0008 18.4002V13.6001C47.0009 11.3945 45.2438 9.6001 43.0841 9.6001Z" fill="url(#paint1_linear)"/>
<path d="M14.8839 8C15.3163 8 15.6672 7.64159 15.6672 7.20003C15.6672 4.32161 18.3321 1.60004 21.1506 1.60004H25.8507C28.7209 1.60004 31.3341 4.26883 31.3341 7.20003C31.3341 7.64159 31.6851 8 32.1174 8C32.5498 8 32.9009 7.64159 32.9009 7.20003C32.9009 3.36479 29.6062 0 25.8508 0H21.1507C17.4611 0 14.1006 3.43201 14.1006 7.20003C14.1006 7.64159 14.4515 8 14.8839 8Z" fill="url(#paint2_linear)"/>
<path d="M21.1504 41.6008H25.8505C26.2829 41.6008 26.6338 41.2424 26.6338 40.8008V36.8007H30.5506C30.9829 36.8007 31.3339 36.4423 31.3339 36.0008V31.2007C31.3339 30.7591 30.9829 30.4007 30.5506 30.4007H26.6338V26.4006C26.6338 25.959 26.2829 25.6006 25.8505 25.6006H21.1504C20.718 25.6006 20.3671 25.959 20.3671 26.4006V30.4007H16.4503C16.0179 30.4007 15.667 30.7591 15.667 31.2007V36.0008C15.667 36.4423 16.0179 36.8007 16.4503 36.8007H20.3671V40.8008C20.3671 41.2424 20.718 41.6008 21.1504 41.6008ZM17.2336 35.2008V32.0007H21.1504C21.5828 32.0007 21.9337 31.6423 21.9337 31.2008V27.2006H25.0671V31.2007C25.0671 31.6422 25.418 32.0006 25.8504 32.0006H29.7672V35.2007H25.8505C25.4181 35.2007 25.0672 35.5591 25.0672 36.0007V40.0008H21.9338V36.0008C21.9338 35.5592 21.5829 35.2008 21.1505 35.2008H17.2336Z" fill="url(#paint3_linear)"/>
<path d="M36.8175 22.4004C36.3851 22.4004 36.0342 22.7588 36.0342 23.2004V24.0005C36.0342 24.8829 36.7368 25.6006 37.6009 25.6006H39.1676C40.0316 25.6006 40.7343 24.883 40.7343 24.0005V23.2005C40.7343 22.7589 40.3834 22.4005 39.951 22.4005C39.5187 22.4005 39.1677 22.7589 39.1677 23.2005V24.0005H37.6008V23.2005C37.6008 22.7588 37.2499 22.4004 36.8175 22.4004Z" fill="url(#paint4_linear)"/>
<path d="M7.04992 22.4004C6.61755 22.4004 6.2666 22.7588 6.2666 23.2004V24.0005C6.2666 24.8829 6.96923 25.6006 7.83332 25.6006H9.39995C10.264 25.6006 10.9667 24.883 10.9667 24.0005V23.2005C10.9667 22.7589 10.6157 22.4005 10.1834 22.4005C9.75099 22.4005 9.40004 22.7589 9.40004 23.2005V24.0005H7.83323V23.2005C7.83323 22.7588 7.48229 22.4004 7.04992 22.4004Z" fill="url(#paint5_linear)"/>
<defs>
<linearGradient id="paint0_linear" x1="23.5002" y1="3.2002" x2="23.5002" y2="8.00024" gradientUnits="userSpaceOnUse">
<stop stop-color="white"/>
<stop offset="0.563536" stop-color="white"/>
<stop offset="1" stop-color="white"/>
</linearGradient>
<linearGradient id="paint1_linear" x1="23.5004" y1="9.6001" x2="23.5004" y2="48.001" gradientUnits="userSpaceOnUse">
<stop stop-color="white"/>
<stop offset="0.563536" stop-color="white"/>
<stop offset="1" stop-color="white"/>
</linearGradient>
<linearGradient id="paint2_linear" x1="23.5008" y1="0" x2="23.5008" y2="8" gradientUnits="userSpaceOnUse">
<stop stop-color="white"/>
<stop offset="0.563536" stop-color="white"/>
<stop offset="1" stop-color="white"/>
</linearGradient>
<linearGradient id="paint3_linear" x1="23.5004" y1="25.6006" x2="23.5004" y2="41.6008" gradientUnits="userSpaceOnUse">
<stop stop-color="white"/>
<stop offset="0.563536" stop-color="white"/>
<stop offset="1" stop-color="white"/>
</linearGradient>
<linearGradient id="paint4_linear" x1="38.3843" y1="22.4004" x2="38.3843" y2="25.6006" gradientUnits="userSpaceOnUse">
<stop stop-color="white"/>
<stop offset="0.563536" stop-color="white"/>
<stop offset="1" stop-color="white"/>
</linearGradient>
<linearGradient id="paint5_linear" x1="8.61664" y1="22.4004" x2="8.61664" y2="25.6006" gradientUnits="userSpaceOnUse">
<stop stop-color="white"/>
<stop offset="0.563536" stop-color="white"/>
<stop offset="1" stop-color="white"/>
</linearGradient>
</defs>
</svg>
