<svg width="48" height="48" viewBox="0 0 48 48" fill="none" xmlns="http://www.w3.org/2000/svg">
<path d="M47.2 46.4H41.6001V45.6C41.6001 45.1584 41.2417 44.8 40.8001 44.8C40.3585 44.8 40.0001 45.1584 40.0001 45.6V46.4H33.6V45.6C33.6 45.1584 33.2416 44.8 32.8 44.8C32.3585 44.8 32.0001 45.1584 32.0001 45.6V46.4H25.6V45.6C25.6 45.1584 25.2416 44.8 24.8001 44.8C24.3585 44.8 24.0001 45.1584 24.0001 45.6V46.4H17.6001V45.6C17.6001 45.1584 17.2417 44.8 16.8001 44.8C16.3585 44.8 16.0001 45.1584 16.0001 45.6V46.4H9.6V45.6C9.6 45.1584 9.24159 44.8 8.80003 44.8C8.35847 44.8 8.00006 45.1584 8.00006 45.6V46.4H1.60003V5.59997C1.60003 3.39441 3.39441 1.59994 5.60006 1.59994C7.80572 1.59994 9.6 3.39441 9.6 5.59997V10.4C9.6 10.8415 9.95841 11.1999 10.4 11.1999C10.8415 11.1999 11.1999 10.8415 11.1999 10.4V5.59997C11.2 2.51203 8.688 0 5.59997 0C2.51194 0 0 2.51203 0 5.59997V47.1999C0 47.6416 0.358406 48 0.799969 48H47.1999C47.6415 48 47.9999 47.6416 47.9999 47.2C47.9999 46.7585 47.6416 46.4 47.2 46.4Z" fill="white"/>
<path d="M18.3997 35.2C18.8413 35.2 19.1997 34.8416 19.1997 34.4V20.8C19.1997 19.9176 18.4813 19.2 17.5997 19.2H11.1996C10.3173 19.2 9.59961 19.9175 9.59961 20.8V34.4C9.59961 34.8416 9.95802 35.2 10.3996 35.2C10.8411 35.2 11.1995 34.8416 11.1995 34.4V20.8H17.5996V34.4C17.5997 34.8416 17.9581 35.2 18.3997 35.2Z" fill="white"/>
<path d="M3.2002 37.6003C3.2002 38.0418 3.5586 38.4002 4.00016 38.4002H42.4002C42.8417 38.4002 43.2001 38.0418 43.2001 37.6003C43.2001 37.1587 42.8417 36.8003 42.4002 36.8003H4.00016C3.5586 36.8002 3.2002 37.1586 3.2002 37.6003Z" fill="white"/>
<path d="M47.0401 30.7201L35.0818 14.7816C35.0322 14.7001 33.8338 12.8 31.1994 12.8H4.00016C3.5586 12.8 3.2002 13.1585 3.2002 13.6C3.2002 14.0416 3.5586 14.4 4.00016 14.4H31.1994C32.9154 14.4 33.6898 15.5751 33.7602 15.68L42.401 27.2H40.0002V26.4001C40.0002 25.9585 39.6418 25.6001 39.2002 25.6001C38.7586 25.6001 38.4002 25.9585 38.4002 26.4001V27.2H32.0002V20.8H34.4002C34.8418 20.8 35.2002 20.4416 35.2002 20C35.2002 19.5585 34.8418 19.2001 34.4002 19.2001H32.0002C31.1186 19.2001 30.4002 19.9176 30.4002 20.8001V27.2001C30.4002 28.0825 31.1186 28.8002 32.0002 28.8002H43.601L45.7818 31.7082C45.7882 31.7162 46.4002 32.5154 46.4002 34.4002V36.8002H45.6001C45.1586 36.8002 44.8002 37.1586 44.8002 37.6002C44.8002 38.0418 45.1586 38.4002 45.6001 38.4002H46.4001V40.8002C46.4001 41.2938 46.0929 41.6001 45.6001 41.6001H4.00016C3.5586 41.6001 3.2002 41.9586 3.2002 42.4001C3.2002 42.8417 3.5586 43.2001 4.00016 43.2001H45.6001C46.9681 43.2001 48.0001 42.1681 48.0001 40.8001V34.4001C48.0001 31.9089 47.1089 30.7977 47.0401 30.7201Z" fill="white"/>
<path d="M6.40017 19.2H4.00016C3.5586 19.2 3.2002 19.5584 3.2002 19.9999C3.2002 20.4415 3.5586 20.7999 4.00016 20.7999H6.40017V27.1999H4.00016C3.5586 27.1999 3.2002 27.5583 3.2002 27.9999C3.2002 28.4415 3.5586 28.7999 4.00016 28.7999H6.40017C7.28179 28.7999 8.0002 28.0823 8.0002 27.1998V20.7998C8.0001 19.9175 7.2817 19.2 6.40017 19.2Z" fill="white"/>
<path d="M25.5998 28.7998C26.4814 28.7998 27.1998 28.0822 27.1998 27.1998V20.7997C27.1998 19.9174 26.4814 19.1997 25.5998 19.1997H22.3998C21.5175 19.1997 20.7998 19.9173 20.7998 20.7997V27.1998C20.7998 28.0822 21.5174 28.7998 22.3998 28.7998H25.5998ZM22.3997 20.7998H25.5997L25.6005 27.1999H22.3996V20.7998H22.3997Z" fill="white"/>
</svg>
