<svg width="48" height="48" viewBox="0 0 48 48" fill="none" xmlns="http://www.w3.org/2000/svg">
<path d="M5.59977 1.60003H9.85818L12.7998 8.95359V14.4C12.7998 14.8416 13.1573 15.2 13.5997 15.2C14.0413 15.2 14.3997 14.8416 14.3997 14.4V9.6H27.9997C29.3229 9.6 30.3997 10.6768 30.3997 12V12.8H16.7998C16.3574 12.8 15.9998 13.1584 15.9998 13.5999C15.9998 14.0415 16.3574 14.3999 16.7998 14.3999H31.1998C31.6414 14.3999 31.9998 14.0415 31.9998 13.5999V12C31.9998 9.79444 30.2054 7.99997 27.9997 7.99997H14.1414L11.1422 0.502406C11.0206 0.199219 10.727 0 10.3998 0H5.59977C5.15737 0 4.7998 0.358406 4.7998 0.799969C4.7998 1.24153 5.15737 1.60003 5.59977 1.60003Z" fill="white"/>
<path d="M15.9996 25.6001C12.4708 25.6001 9.59961 28.4713 9.59961 32.0001C9.59961 35.529 12.4708 38.4002 15.9996 38.4002C19.5285 38.4002 22.3997 35.529 22.3997 32.0001C22.3996 28.4713 19.5284 25.6001 15.9996 25.6001ZM15.9996 36.8C13.3524 36.8 11.1996 34.6473 11.1996 32C11.1996 29.3528 13.3524 27.2 15.9996 27.2C18.646 27.2 20.7996 29.3528 20.7996 32C20.7996 34.6473 18.646 36.8 15.9996 36.8Z" fill="white"/>
<path d="M16.0237 31.2H16.0149C15.5741 31.2 15.2197 31.5584 15.2197 31.9999C15.2197 32.4415 15.5813 32.7999 16.0237 32.7999C16.4653 32.7999 16.8237 32.4415 16.8237 31.9999C16.8237 31.5584 16.4653 31.2 16.0237 31.2Z" fill="white"/>
<path d="M25.0514 22.9487C25.041 22.9367 25.025 22.9335 25.013 22.9231C22.6986 20.6239 19.5122 19.2 16.0002 19.2C12.4858 19.2 9.30013 20.6248 6.98413 22.9247C6.97373 22.9343 6.95929 22.9376 6.94898 22.9487C6.93941 22.9583 6.93613 22.9727 6.92582 22.9831C4.62501 25.2991 3.2002 28.4855 3.2002 31.9999C3.2002 35.5168 4.6266 38.7047 6.92976 41.0207C6.93857 41.0295 6.94101 41.0415 6.94898 41.0504C6.95779 41.0583 6.96979 41.0608 6.97776 41.0687C9.29376 43.3727 12.4826 44.7999 16.0002 44.7999C19.5137 44.7999 22.7018 43.3751 25.0162 41.0735C25.0274 41.0647 25.041 41.0607 25.0514 41.0504C25.0618 41.0399 25.0658 41.0264 25.0745 41.0159C27.3745 38.6999 28.8001 35.5136 28.8001 31.9999C28.8001 28.4871 27.3753 25.3015 25.0761 22.9863C25.0666 22.9743 25.0626 22.96 25.0514 22.9487ZM24.4546 39.3232L23.9194 38.7872C23.6074 38.4752 23.101 38.4752 22.7882 38.7872C22.4754 39.1001 22.4754 39.6064 22.7882 39.9184L23.3234 40.4544C21.3579 42.1592 18.801 43.1999 16.0003 43.1999C13.1995 43.1999 10.6419 42.1591 8.67623 40.4544L9.21144 39.9184C9.52429 39.6064 9.52429 39.1 9.21144 38.7872C8.89944 38.4752 8.39301 38.4752 8.08026 38.7872L7.54504 39.3232C5.84019 37.3568 4.80023 34.7999 4.80023 31.9999C4.80023 29.1991 5.84104 26.6423 7.54579 24.6759L8.08016 25.2111C8.23701 25.3671 8.44101 25.4455 8.64576 25.4455C8.8506 25.4455 9.05535 25.3671 9.21135 25.2111C9.5242 24.8983 9.5242 24.3919 9.21135 24.0799L8.67698 23.5447C10.6425 21.8399 13.2001 20.7999 16.0002 20.7999C18.8002 20.7999 21.3569 21.8399 23.3226 23.5447L22.7882 24.0791C22.4754 24.3918 22.4754 24.8983 22.7882 25.2111C22.9442 25.3671 23.1491 25.4455 23.3538 25.4455C23.5587 25.4455 23.7634 25.3671 23.9194 25.2111L24.4546 24.6767C26.1595 26.6423 27.2002 29.1999 27.2002 31.9999C27.2002 34.7999 26.1602 37.3568 24.4546 39.3232Z" fill="white"/>
<path d="M44.8002 40.0807V26.3999V24.7998C44.8002 22.5943 43.0059 20.7998 40.8002 20.7998H30.8498C30.4074 20.7998 30.0498 21.1582 30.0498 21.5998C30.0498 22.0413 30.4074 22.3997 30.8498 22.3997H40.8002C42.1234 22.3997 43.2002 23.4766 43.2002 24.7997V25.5997H33.2378C32.7954 25.5997 32.4378 25.9581 32.4378 26.3997C32.4378 26.8412 32.7954 27.1996 33.2378 27.1996H43.2002V40.0804C41.3762 40.4524 40.0002 42.0676 40.0002 43.9996C40.0002 46.2052 41.7946 47.9997 44.0003 47.9997C46.2058 47.9999 48.0002 46.2055 48.0002 43.9998C48.0002 42.0678 46.6234 40.4527 44.8002 40.0807ZM44.0002 46.3998C42.6762 46.3998 41.6002 45.323 41.6002 43.9998C41.6002 42.9583 42.2713 42.079 43.2002 41.747V43.9998C43.2002 44.4414 43.5578 44.7998 44.0002 44.7998C44.4417 44.7998 44.8001 44.4414 44.8001 43.9998V41.747C45.7289 42.079 46.4002 42.9582 46.4002 43.9998C46.4002 45.3231 45.3235 46.3998 44.0002 46.3998Z" fill="white"/>
<path d="M16 16C7.17684 16 0 23.1776 0 31.9999C0 40.8223 7.17684 48 16 48C24.8225 48 32.0001 40.8224 32.0001 31.9999C32.0001 23.1775 24.8224 16 16 16ZM16 46.3999C8.06006 46.3999 1.60003 39.9399 1.60003 31.9999C1.60003 24.06 8.06006 17.5999 16 17.5999C23.94 17.5999 30.4 24.06 30.4 31.9999C30.4 39.9399 23.94 46.3999 16 46.3999Z" fill="white"/>
</svg>
