<svg width="120" height="120" viewBox="0 0 120 120" fill="none" xmlns="http://www.w3.org/2000/svg">
<circle cx="60" cy="60" r="60" fill="#FFCEDA"/>
<path d="M52.3105 30.5703V20H68.5182V30.5703C68.5187 31.4562 68.2996 32.3285 67.8802 33.1097C67.4608 33.8909 66.8541 34.557 66.114 35.0486L60.4144 38.8276L54.7147 35.0486C53.9746 34.557 53.3679 33.8909 52.9485 33.1097C52.5291 32.3285 52.31 31.4562 52.3105 30.5703Z" fill="#FF003D"/>
<path d="M60.416 93.9658H63.1173C64.1919 93.9658 65.2225 94.3909 65.9824 95.1475C66.7423 95.9041 67.1692 96.9303 67.1692 98.0003H60.416V93.9658Z" fill="#FFD422"/>
<path d="M60.4133 93.9658V98.0003H53.6602C53.6602 96.9303 54.0871 95.9041 54.8469 95.1475C55.6068 94.3909 56.6374 93.9658 57.7121 93.9658H60.4133Z" fill="#FFDE55"/>
<path d="M87.426 92.6201H90.1272C90.843 92.6222 91.5288 92.9063 92.035 93.4103C92.5411 93.9142 92.8264 94.5971 92.8285 95.3098V97.9994H84.7247L82.0234 96.6546V92.6201H87.426Z" fill="#FF5023"/>
<path d="M73.922 92.6201H82.0258V96.6546L79.3245 97.9994H71.2207V95.3098C71.2228 94.5971 71.5081 93.9142 72.0142 93.4103C72.5204 92.9063 73.2062 92.6222 73.922 92.6201Z" fill="#FF6243"/>
<path d="M46.9104 92.6201C47.6262 92.6222 48.312 92.9063 48.8182 93.4103C49.3243 93.9142 49.6096 94.5971 49.6117 95.3098V97.9994H41.5079L38.8066 96.6546V92.6201H46.9104Z" fill="#EE8700"/>
<path d="M38.8051 92.6201V96.6546L36.1038 97.9994H28V95.3098C28.0021 94.5971 28.2874 93.9142 28.7935 93.4103C29.2997 92.9063 29.9855 92.6222 30.7013 92.6201H38.8051Z" fill="#FF9811"/>
<path d="M82.0234 76.4834H87.426V92.6213H82.0234V76.4834Z" fill="#FFE7C6"/>
<path d="M76.623 76.4834H82.0256V92.6213H76.623V76.4834Z" fill="#FFEED6"/>
<path d="M57.7139 80.5176H63.1164H64.4671V93.9658H63.1164H60.4152H57.7139H56.3633V80.5176H57.7139Z" fill="#898890"/>
<path d="M32.0527 68.4141H45.5591V92.6209H38.8059H32.0527V68.4141Z" fill="#898890"/>
<path d="M67.1665 76.4827V73.793C67.1664 72.0091 66.4575 70.2976 65.1946 69.0323C64.9342 68.7778 64.6542 68.544 64.3572 68.333L64.1681 68.5751C63.8649 69.3192 63.3457 69.9563 62.6768 70.4049C62.0079 70.8534 61.2198 71.0931 60.4133 71.0931C59.6069 71.0931 58.8187 70.8534 58.1498 70.4049C57.4809 69.9563 56.9617 69.3192 56.6586 68.5751L56.4695 68.333C55.5998 68.956 54.8915 69.776 54.403 70.7254C53.9145 71.6748 53.6599 72.7263 53.6602 73.793V76.4827H57.7121V78.4999C57.7121 79.0349 57.4986 79.548 57.1187 79.9263C56.7387 80.3046 56.2234 80.5171 55.6861 80.5171H65.1405C64.6032 80.5171 64.0879 80.3046 63.708 79.9263C63.328 79.548 63.1146 79.0349 63.1146 78.4999V76.4827H67.1665Z" fill="#FF6243"/>
<path d="M74.8944 46.8697C75.8261 46.2522 76.8814 45.8438 77.9874 45.6729C78.0819 47.0984 79.8513 48.2415 82.0258 48.2415C84.2003 48.2415 85.9696 47.0984 86.0642 45.6729C87.1701 45.8438 88.2255 46.2522 89.1571 46.8697C90.2859 47.6012 91.2132 48.6019 91.8548 49.7809C92.4963 50.9599 92.8319 52.2798 92.8308 53.6208V61.6897H87.4283L90.1296 76.4828H73.922L76.6232 61.6897H71.2207V53.6208C71.2197 52.2798 71.5552 50.9599 72.1968 49.7809C72.8384 48.6019 73.7657 47.6012 74.8944 46.8697Z" fill="#F072AE"/>
<path d="M92.8312 61.6895V65.0515C92.8312 65.5865 92.6178 66.0996 92.2378 66.4779C91.8579 66.8562 91.3426 67.0688 90.8052 67.0688C90.2679 67.0688 89.7526 66.8562 89.3727 66.4779C88.9927 66.0996 88.7793 65.5865 88.7793 65.0515V61.6895H92.8312Z" fill="#FFEED6"/>
<path d="M75.2726 65.0515C75.2726 65.5865 75.0592 66.0996 74.6792 66.4779C74.2993 66.8562 73.784 67.0688 73.2467 67.0688C72.7093 67.0688 72.194 66.8562 71.8141 66.4779C71.4341 66.0996 71.2207 65.5865 71.2207 65.0515V61.6895H75.2726V65.0515Z" fill="#FFEED6"/>
<path d="M49.6085 63.0352V66.3972C49.6085 66.9322 49.3951 67.4453 49.0152 67.8236C48.6352 68.2019 48.1199 68.4145 47.5826 68.4145C47.0453 68.4145 46.53 68.2019 46.15 67.8236C45.7701 67.4453 45.5566 66.9322 45.5566 66.3972V63.0352H49.6085Z" fill="#FFEED6"/>
<path d="M32.0519 63.0352V66.3972C32.0519 66.9322 31.8385 67.4453 31.4585 67.8236C31.0786 68.2019 30.5633 68.4145 30.0259 68.4145C29.4886 68.4145 28.9733 68.2019 28.5934 67.8236C28.2134 67.4453 28 66.9322 28 66.3972V63.0352H32.0519Z" fill="#FFEED6"/>
<path d="M67.1691 76.4824V78.4997C67.1691 79.0347 66.9556 79.5478 66.5757 79.9261C66.1958 80.3044 65.6805 80.5169 65.1431 80.5169C64.6058 80.5169 64.0905 80.3044 63.7106 79.9261C63.3306 79.5478 63.1172 79.0347 63.1172 78.4997V76.4824H67.1691Z" fill="#FFEED6"/>
<path d="M57.7121 76.4824V78.4997C57.7121 79.0347 57.4986 79.5478 57.1187 79.9261C56.7387 80.3044 56.2234 80.5169 55.6861 80.5169C55.1488 80.5169 54.6335 80.3044 54.2535 79.9261C53.8736 79.5478 53.6602 79.0347 53.6602 78.4997V76.4824H57.7121Z" fill="#FFEED6"/>
<path d="M45.5582 68.4139H32.0519V63.0346H28V52.276C28 50.136 28.8538 48.0836 30.3735 46.5704C31.8933 45.0571 33.9545 44.207 36.1038 44.207L38.8051 46.8967L41.5063 44.207C43.6556 44.207 45.7168 45.0571 47.2366 46.5704C48.7563 48.0836 49.6101 50.136 49.6101 52.276V63.0346H45.5582V68.4139Z" fill="#3D9AE2"/>
<path d="M60.4152 60.345L59.0645 61.6898H56.3633V60.345C56.3633 59.275 56.7902 58.2488 57.5501 57.4922C58.3099 56.7356 59.3406 56.3105 60.4152 56.3105C61.4898 56.3105 62.5204 56.7356 63.2803 57.4922C64.0402 58.2488 64.4671 59.275 64.4671 60.345V61.6898H61.7658L60.4152 60.345Z" fill="#44697E"/>
<path d="M41.506 40.79V44.2059L38.8048 46.8955L36.1035 44.2059V40.79L38.8048 41.5162C39.7537 41.5153 40.6856 41.2647 41.506 40.79Z" fill="#FFE7C6"/>
<path d="M60.4165 71.1029C59.6089 71.1021 58.8199 70.861 58.1509 70.4105C57.4818 69.96 56.9633 69.3207 56.6617 68.5747L56.4727 68.3326C57.622 67.5105 59.0014 67.0684 60.4165 67.0684C61.8316 67.0684 63.2111 67.5105 64.3604 68.3326L64.1713 68.5747C63.8698 69.3207 63.3512 69.96 62.6822 70.4105C62.0131 70.861 61.2242 71.1021 60.4165 71.1029Z" fill="#FFE7C6"/>
<path d="M86.0631 45.671C85.9686 47.0965 84.1992 48.2396 82.0247 48.2396C79.8502 48.2396 78.0809 47.0965 77.9863 45.671L78.2024 45.6306C78.7773 45.0328 79.1503 44.2711 79.2694 43.452C79.3081 43.2572 79.3262 43.0589 79.3235 42.8603C79.3232 42.6027 79.2961 42.3458 79.2424 42.0938C80.083 42.5954 81.0447 42.8604 82.0247 42.8604C83.0048 42.8604 83.9664 42.5954 84.807 42.0938C84.7534 42.3458 84.7262 42.6027 84.726 42.8603C84.7232 43.0589 84.7414 43.2572 84.78 43.452C84.8992 44.2711 85.2722 45.0328 85.847 45.6306L86.0631 45.671Z" fill="#FFE7C6"/>
<path d="M64.4671 61.6896V63.0344C64.4671 64.1044 64.0402 65.1306 63.2803 65.8872C62.5204 66.6438 61.4898 67.0689 60.4152 67.0689C59.3406 67.0689 58.3099 66.6438 57.5501 65.8872C56.7902 65.1306 56.3633 64.1044 56.3633 63.0344V61.6896H59.0645L60.4152 60.3447L61.7658 61.6896H64.4671Z" fill="#FFEED6"/>
<path d="M33.4004 30.7578V36.1371C33.4004 37.5638 33.9696 38.932 34.9828 39.9409C35.9959 40.9497 37.3701 41.5164 38.8029 41.5164C40.2358 41.5164 41.6099 40.9497 42.6231 39.9409C43.6363 38.932 44.2055 37.5638 44.2055 36.1371V30.7578H33.4004Z" fill="#FFEED6"/>
<path d="M45.5591 30.7583V33.448H43.9788C43.6224 33.4478 43.2696 33.3776 42.9405 33.2415C42.6114 33.1053 42.3125 32.9059 42.0609 32.6545L40.1565 30.7583L39.0355 31.8745C38.5334 32.3739 37.9374 32.7699 37.2816 33.0399C36.6257 33.3098 35.9229 33.4485 35.2132 33.448H32.0527V30.7583C32.0527 28.975 32.7642 27.2646 34.0307 26.0036C35.2972 24.7426 37.0149 24.0342 38.8059 24.0342C40.597 24.0342 42.3146 24.7426 43.5811 26.0036C44.8476 27.2646 45.5591 28.975 45.5591 30.7583Z" fill="#44697E"/>
<path d="M75.2729 32.104C75.2729 30.3207 75.9844 28.6104 77.2508 27.3493C78.5173 26.0883 80.235 25.3799 82.026 25.3799C83.8171 25.3799 85.5348 26.0883 86.8013 27.3493C88.0677 28.6104 88.7792 30.3207 88.7792 32.104V38.8281C89.8067 38.8488 90.7879 39.2574 91.5242 39.9713C92.2605 40.6852 92.6969 41.6509 92.7449 42.6731C92.793 43.6952 92.4492 44.6974 91.7831 45.4767C91.117 46.2559 90.1784 46.754 89.1574 46.8702C88.2257 46.2527 87.1704 45.8443 86.0644 45.6733L85.8483 45.633C85.129 44.8885 84.7273 43.8956 84.7273 42.8626C84.7275 42.605 84.7547 42.3481 84.8084 42.0961C85.6078 41.6178 86.2694 40.9416 86.7285 40.1333C87.1877 39.3249 87.4289 38.412 87.4286 37.4833V34.7937H87.199C86.8426 34.7935 86.4897 34.7233 86.1606 34.5872C85.8315 34.451 85.5326 34.2516 85.2811 34.0002L83.3767 32.104L82.2557 33.2202C81.7536 33.7196 81.1576 34.1156 80.5017 34.3856C79.8459 34.6555 79.143 34.7942 78.4334 34.7937H76.6235V37.4833C76.621 38.0601 76.7169 38.633 76.9071 39.1778C77.1673 39.973 77.6114 40.6962 78.2038 41.2892C78.5136 41.5984 78.8633 41.8652 79.2437 42.0826V42.0961C79.2974 42.3481 79.3246 42.605 79.3248 42.8626C79.3248 43.8956 78.9231 44.8885 78.2038 45.633L77.9877 45.6733C76.8817 45.8443 75.8264 46.2527 74.8947 46.8702C73.8737 46.754 72.9351 46.2559 72.269 45.4767C71.6029 44.6974 71.2591 43.6952 71.3072 42.6731C71.3552 41.6509 71.7916 40.6852 72.5279 39.9713C73.2642 39.2574 74.2454 38.8488 75.2729 38.8281V32.104Z" fill="#44697E"/>
<path d="M87.4281 34.7932V37.4828C87.4284 38.4352 87.1748 39.3705 86.6932 40.1933C86.2115 41.0161 85.5192 41.6968 84.6868 42.1659C83.8544 42.635 82.9119 42.8757 81.9555 42.8633C80.9991 42.851 80.0632 42.586 79.2433 42.0956V42.0821C78.8629 41.8647 78.5131 41.5979 78.2033 41.2887C77.611 40.6957 77.1669 39.9725 76.9067 39.1773C76.7165 38.6325 76.6206 38.0596 76.6231 37.4828V34.7932H78.4329C79.1426 34.7937 79.8455 34.655 80.5013 34.3851C81.1571 34.1151 81.7531 33.7191 82.2552 33.2197L83.3763 32.1035L85.2806 33.9997C85.5322 34.2511 85.8311 34.4505 86.1602 34.5867C86.4893 34.7228 86.8422 34.793 87.1985 34.7932H87.4281Z" fill="#FFEED6"/>
<path d="M90.1293 77.8277H73.9218C73.724 77.8275 73.5287 77.7841 73.3497 77.7006C73.1706 77.617 73.0122 77.4953 72.8855 77.3441C72.7589 77.1928 72.6672 77.0158 72.6168 76.8254C72.5664 76.635 72.5587 76.4359 72.5941 76.2421L75.2724 61.5688V57.8207L73.9623 52.6028L76.5825 51.9492L77.9331 57.3285C77.96 57.4354 77.9736 57.5451 77.9736 57.6553V61.6898C77.9734 61.7706 77.9658 61.8511 77.9507 61.9305L75.5425 75.138H88.5086L86.0977 61.9305C86.0835 61.8511 86.0768 61.7705 86.0774 61.6898V57.6553C86.0775 57.5451 86.0911 57.4354 86.118 57.3285L87.4686 51.9492L90.0888 52.6028L88.7787 57.8207V61.5688L91.457 76.2421C91.4924 76.4359 91.4847 76.635 91.4343 76.8254C91.3839 77.0158 91.2922 77.1928 91.1656 77.3441C91.0389 77.4953 90.8805 77.617 90.7014 77.7006C90.5224 77.7841 90.3271 77.8275 90.1293 77.8277Z" fill="#ED539D"/>
<path d="M37.4531 72.4473H40.1544V92.6196H37.4531V72.4473Z" fill="#57565C"/>
<path d="M44.207 50.9307H46.9083V63.0341H44.207V50.9307Z" fill="#1E81CE"/>
<path d="M30.7031 50.9307H33.4044V63.0341H30.7031V50.9307Z" fill="#1E81CE"/>
<path d="M37.4531 46.8975H40.1544V63.0354H37.4531V46.8975Z" fill="#1E81CE"/>
<path d="M59.0664 84.5527H61.7677V93.9665H59.0664V84.5527Z" fill="#57565C"/>
<path d="M59.0663 32.1027C58.7081 32.1026 58.3647 31.9608 58.1114 31.7086L55.4102 29.019L57.32 27.1174L59.0663 28.8562L63.514 24.4277L65.4238 26.3293L60.0212 31.7086C59.768 31.9608 59.4245 32.1026 59.0663 32.1027Z" fill="white"/>
</svg>
