<svg width="120" height="120" viewBox="0 0 120 120" fill="none" xmlns="http://www.w3.org/2000/svg">
<circle cx="60" cy="60" r="60" fill="#FFCEDA"/>
<path d="M90.0121 58.8486H29.9883V68.7129H90.0121V58.8486Z" fill="white"/>
<path opacity="0.1" d="M90.0137 58.8486H86.0352V68.7129H90.0137V58.8486Z" fill="#D0E2E7"/>
<path opacity="0.1" d="M29.9883 58.8486V68.7129H52.6008C48.0135 65.7883 47.0289 61.6423 47.3229 58.8486H29.9883Z" fill="white"/>
<path d="M72.1082 71.3982C71.6139 71.3982 71.1673 71.058 71.0524 70.5556L67.3771 54.4829C67.2437 53.8992 67.6086 53.3179 68.1923 53.1845C68.7762 53.0517 69.3572 53.4161 69.4906 53.9997L73.1659 70.0723C73.2993 70.6559 72.9343 71.2372 72.3507 71.3706C72.2695 71.3891 72.1881 71.3982 72.1082 71.3982Z" fill="#76B7EB"/>
<path d="M72.1082 71.3982C71.6139 71.3982 71.1673 71.058 71.0524 70.5556L67.3771 54.4829C67.2437 53.8992 67.6086 53.3179 68.1923 53.1845C68.7762 53.0517 69.3572 53.4161 69.4906 53.9997L73.1659 70.0723C73.2993 70.6559 72.9343 71.2372 72.3507 71.3706C72.2695 71.3891 72.1881 71.3982 72.1082 71.3982Z" fill="#D0E2E7"/>
<path d="M62.0468 70.8894C61.5603 70.8894 61.1179 70.5596 60.9956 70.0662L58.2278 58.9105C57.8685 57.4625 58.1897 55.9579 59.1089 54.7827C60.0281 53.6075 61.4111 52.9336 62.9031 52.9336H75.123C77.0224 52.9336 78.7494 54.0546 79.5226 55.7894L81.0458 59.2064C82.0421 61.4413 82.5472 63.8151 82.5472 66.2618V69.8052C82.5472 70.4038 82.062 70.8891 81.4633 70.8891C80.8645 70.8891 80.3793 70.4038 80.3793 69.8052V66.2618C80.3793 64.1212 79.9373 62.0444 79.0656 60.089L77.5424 56.672C77.1172 55.718 76.1675 55.1016 75.123 55.1016H62.9031C62.0826 55.1016 61.3221 55.4721 60.8167 56.1185C60.3111 56.7648 60.1345 57.5921 60.3321 58.3885L63.0998 69.5441C63.2439 70.1252 62.8898 70.7131 62.3087 70.8572C62.2211 70.8789 62.1332 70.8894 62.0468 70.8894Z" fill="#D0E2E7"/>
<path d="M95.4427 55.6811H91.5689C90.7088 55.6811 90.0116 56.3783 90.0116 57.2384V67.4776C90.0116 68.1598 89.4585 68.7129 88.7763 68.7129H31.2237C30.5415 68.7129 29.9884 68.1598 29.9884 67.4776V48.8308C29.9884 47.9707 29.2912 47.2734 28.4311 47.2734H24.5573C23.6972 47.2736 23 47.9708 23 48.8308V69.9351C23 72.3668 24.9714 74.3382 27.4031 74.3382H92.5969C95.0286 74.3382 97 72.3668 97 69.9351V57.2386C97 56.3785 96.3028 55.6811 95.4427 55.6811Z" fill="#86A0AF"/>
<path d="M46.2853 59.1774H35.8935C34.9498 59.1774 34.0755 58.6463 33.5907 57.7785L33.1523 56.9936C32.7722 56.3133 32.7722 55.464 33.1523 54.7835L33.5907 53.9985C34.0755 53.1309 34.9498 52.5996 35.8935 52.5996H46.2853C47.2291 52.5996 48.1033 53.1307 48.5881 53.9985L49.0266 54.7835C49.4067 55.4639 49.4067 56.3131 49.0266 56.9936L48.5881 57.7785C48.1033 58.6463 47.2291 59.1774 46.2853 59.1774Z" fill="#76B7EB"/>
<path d="M84.1024 81.5215H35.9004C35.3016 81.5215 34.8164 81.0361 34.8164 80.4375C34.8164 79.8389 35.3016 79.3535 35.9004 79.3535H84.1024C84.7012 79.3535 85.1864 79.8389 85.1864 80.4375C85.1864 81.0361 84.7012 81.5215 84.1024 81.5215Z" fill="#86A0AF"/>
<path d="M35.8993 74.3379H32.0352V85.1514H35.8993V74.3379Z" fill="#B1E4F9"/>
<path opacity="0.15" d="M35.8993 74.3379H32.0352V77.7663H35.8993V74.3379Z" fill="#90D8F9"/>
<path d="M33.9665 91.5307C36.031 91.5307 37.7045 89.8572 37.7045 87.7927C37.7045 85.7283 36.031 84.0547 33.9665 84.0547C31.9021 84.0547 30.2285 85.7283 30.2285 87.7927C30.2285 89.8572 31.9021 91.5307 33.9665 91.5307Z" fill="#44697E"/>
<path d="M33.9674 88.8781C34.5664 88.8781 35.0519 88.3925 35.0519 87.7935C35.0519 87.1946 34.5664 86.709 33.9674 86.709C33.3684 86.709 32.8828 87.1946 32.8828 87.7935C32.8828 88.3925 33.3684 88.8781 33.9674 88.8781Z" fill="#B1E4F9"/>
<path d="M87.9656 74.3379H84.1016V85.1514H87.9656V74.3379Z" fill="#B1E4F9"/>
<path opacity="0.15" d="M87.9656 74.3379H84.1016V77.7663H87.9656V74.3379Z" fill="#90D8F9"/>
<path d="M86.0329 91.5307C88.0974 91.5307 89.771 89.8572 89.771 87.7927C89.771 85.7283 88.0974 84.0547 86.0329 84.0547C83.9685 84.0547 82.2949 85.7283 82.2949 87.7927C82.2949 89.8572 83.9685 91.5307 86.0329 91.5307Z" fill="#44697E"/>
<path d="M86.0338 88.8781C86.6328 88.8781 87.1184 88.3925 87.1184 87.7935C87.1184 87.1946 86.6328 86.709 86.0338 86.709C85.4348 86.709 84.9492 87.1946 84.9492 87.7935C84.9492 88.3925 85.4348 88.8781 86.0338 88.8781Z" fill="#B1E4F9"/>
<path opacity="0.1" d="M49.0162 68.7129H31.2237C30.5415 68.7129 29.9884 68.1598 29.9884 67.4776V48.8308C29.9884 47.9707 29.2912 47.2734 28.4311 47.2734H24.5573C23.6972 47.2736 23 47.9708 23 48.8308V69.9351C23 72.3668 24.9714 74.3382 27.4031 74.3382H54.3999C51.2852 72.841 49.7108 70.6426 49.0162 68.7129Z" fill="black"/>
<path opacity="0.1" d="M36.1401 52.6562C35.1755 52.6562 34.2819 53.1628 33.7864 53.9906L33.3382 54.7394C32.9498 55.3883 32.9498 56.1984 33.3382 56.8475L33.7864 57.5962C34.2819 58.4238 35.1755 58.9305 36.1401 58.9305H40.359C37.581 57.8018 37.4356 54.3597 38.2423 52.6564L36.1401 52.6562Z" fill="#90D8F9"/>
<path d="M60.0002 47.7962C65.3376 47.7962 69.6644 43.4694 69.6644 38.132C69.6644 32.7946 65.3376 28.4678 60.0002 28.4678C54.6628 28.4678 50.3359 32.7946 50.3359 38.132C50.3359 43.4694 54.6628 47.7962 60.0002 47.7962Z" fill="#FF0000"/>
<path d="M61.9746 35.7697V32.832C61.9746 32.5623 61.756 32.3438 61.4864 32.3438H58.5128C58.2432 32.3438 58.0245 32.5623 58.0245 32.832V35.7699C58.0245 35.9838 57.8511 36.1574 57.6371 36.1574H54.6992C54.4296 36.1574 54.2109 36.3759 54.2109 36.6456V39.6192C54.2109 39.8889 54.4295 40.1074 54.6992 40.1074H57.6371C57.8511 40.1074 58.0245 40.2808 58.0245 40.4949V43.4328C58.0245 43.7023 58.2431 43.921 58.5128 43.921H61.4864C61.756 43.921 61.9746 43.7025 61.9746 43.4328V40.4949C61.9746 40.281 62.148 40.1074 62.3621 40.1074H65.3C65.5697 40.1074 65.7882 39.8889 65.7882 39.6192V36.6454C65.7882 36.3757 65.5697 36.1572 65.3 36.1572H62.3621C62.148 36.1571 61.9746 35.9838 61.9746 35.7697Z" fill="white"/>
</svg>
