<svg width="120" height="120" viewBox="0 0 120 120" fill="none" xmlns="http://www.w3.org/2000/svg">
<circle cx="60" cy="60" r="60" fill="#FFCEDA"/>
<path d="M28.6397 38.5518H52.7822V76.2513H21.0332V46.2936C21.0332 44.2404 21.8346 42.2712 23.2611 40.8193C24.6876 39.3674 26.6224 38.5518 28.6397 38.5518Z" fill="#DBDBDB"/>
<path d="M87.4741 59.198L77.9777 40.5995C77.6084 39.8762 77.0602 39.2719 76.3912 38.8507C75.7223 38.4294 74.9577 38.207 74.1785 38.207H28.6333C26.6088 38.207 24.6672 39.0548 23.2357 40.5638C21.8042 42.0728 21 44.1195 21 46.2536V77.3902H97.9964V64.1771C97.9964 63.554 97.7991 62.9487 97.4359 62.4572C97.0726 61.9656 96.5641 61.6159 95.991 61.4635L87.4741 59.198Z" fill="white"/>
<path d="M87.2748 58.7495H71.3027V46.6318H80.8655L87.2748 58.7495Z" fill="#DBDBDB"/>
<path d="M51.5 38.457H72.999V77.1402H51.5V38.457Z" fill="white" stroke="#CBCBCB" stroke-width="0.5"/>
<path d="M51.5 38.457H72.999V60.3474H51.5V38.457Z" fill="white" stroke="#CBCBCB" stroke-width="0.5"/>
<path d="M42.1865 52.019H39.5408V49.3262H34.2493V52.019H31.6035V57.4046H34.2493V60.0975H39.5408V57.4046H42.1865V52.019Z" fill="#FF0000"/>
<path d="M64.6866 43.9414H59.3951C58.6645 43.9414 58.0723 44.5442 58.0723 45.2878V53.3663C58.0723 54.1099 58.6645 54.7127 59.3951 54.7127H64.6866C65.4172 54.7127 66.0095 54.1099 66.0095 53.3663V45.2878C66.0095 44.5442 65.4172 43.9414 64.6866 43.9414Z" fill="#C1E3F7"/>
<path d="M63.3638 43.9414H59.3951C58.6645 43.9414 58.0723 44.5442 58.0723 45.2878V53.3663C58.0723 54.1099 58.6645 54.7127 59.3951 54.7127H63.3638C64.0944 54.7127 64.6866 54.1099 64.6866 53.3663V45.2878C64.6866 44.5442 64.0944 43.9414 63.3638 43.9414Z" fill="#B1E4F9"/>
<path d="M86.9974 60.5946H73.248V46.6006H80.1227L86.9974 60.5946Z" fill="#B1E4F9"/>
<path d="M76.5801 62.79H81.8716V65.4829H76.5801V62.79Z" fill="#CBCBCB"/>
<path d="M97.9995 77.3896H87L90.6665 71.792H97.9995V77.3896Z" fill="#CBCBCB"/>
<path d="M51.25 57.7988H73.249V60.5976H51.25V57.7988Z" fill="#E00000"/>
<path d="M93.7969 64.1377H97.7655V66.8305H93.7969V64.1377Z" fill="#F7BA61"/>
<path d="M21 66.1982H51.2486V71.7958H21V66.1982Z" fill="#E00000"/>
<path d="M56.752 32.6104H67.7514V38.2079H56.752V32.6104Z" fill="#F7BA61"/>
<path d="M62.05 27.7803C62.7517 27.7803 63.4247 28.064 63.9209 28.569C64.4171 29.074 64.6958 29.7589 64.6958 30.4731V33.1659H59.4043V30.4731C59.4043 29.7589 59.683 29.074 60.1792 28.569C60.6754 28.064 61.3484 27.7803 62.05 27.7803Z" fill="#FF003D"/>
<path d="M62.0377 23.744C61.6869 23.744 61.3504 23.6022 61.1023 23.3497C60.8542 23.0972 60.7148 22.7547 60.7148 22.3976V19.7048C60.7148 19.3477 60.8542 19.0053 61.1023 18.7528C61.3504 18.5003 61.6869 18.3584 62.0377 18.3584C62.3886 18.3584 62.725 18.5003 62.9731 18.7528C63.2212 19.0053 63.3606 19.3477 63.3606 19.7048V22.3976C63.3606 22.7547 63.2212 23.0972 62.9731 23.3497C62.725 23.6022 62.3886 23.744 62.0377 23.744Z" fill="#F7BA61"/>
<path d="M55.1615 27.7792C54.9297 27.7792 54.702 27.7169 54.5014 27.5986L52.2101 26.2522C52.0584 26.1645 51.9253 26.047 51.8184 25.9067C51.7115 25.7664 51.6329 25.6059 51.5872 25.4345C51.5415 25.2632 51.5296 25.0843 51.5521 24.9082C51.5745 24.7321 51.631 24.5623 51.7183 24.4085C51.8055 24.2548 51.9217 24.1201 52.0603 24.0122C52.1989 23.9044 52.3571 23.8255 52.5258 23.7801C52.6944 23.7347 52.8702 23.7237 53.0431 23.7478C53.2159 23.7718 53.3824 23.8304 53.5329 23.9202L55.8243 25.2666C56.0767 25.4149 56.2739 25.6437 56.3853 25.9177C56.4968 26.1917 56.5163 26.4955 56.4407 26.7819C56.3652 27.0683 56.1988 27.3213 55.9675 27.5017C55.7362 27.682 55.4529 27.7796 55.1615 27.7792Z" fill="#F7BA61"/>
<path d="M68.9123 27.7792C68.621 27.7796 68.3376 27.682 68.1063 27.5017C67.875 27.3213 67.7087 27.0683 67.6331 26.7819C67.5576 26.4955 67.5771 26.1917 67.6885 25.9177C67.8 25.6437 67.9972 25.4149 68.2496 25.2666L70.5409 23.9202C70.6914 23.8304 70.8579 23.7718 71.0308 23.7478C71.2036 23.7237 71.3794 23.7347 71.5481 23.7801C71.7168 23.8255 71.875 23.9044 72.0135 24.0122C72.1521 24.1201 72.2684 24.2548 72.3556 24.4085C72.4428 24.5623 72.4993 24.7321 72.5218 24.9082C72.5443 25.0843 72.5324 25.2632 72.4866 25.4345C72.4409 25.6059 72.3624 25.7664 72.2555 25.9067C72.1486 26.047 72.0155 26.1645 71.8638 26.2522L69.5724 27.5986C69.3718 27.7169 69.1441 27.7792 68.9123 27.7792Z" fill="#F7BA61"/>
<path d="M37.0571 81.8279C39.9795 81.8279 42.3486 79.4167 42.3486 76.4423C42.3486 73.4679 39.9795 71.0566 37.0571 71.0566C34.1347 71.0566 31.7656 73.4679 31.7656 76.4423C31.7656 79.4167 34.1347 81.8279 37.0571 81.8279Z" fill="#44697E"/>
<path d="M36.8958 77.9383C37.809 77.9383 38.5494 77.1848 38.5494 76.2553C38.5494 75.3258 37.809 74.5723 36.8958 74.5723C35.9825 74.5723 35.2422 75.3258 35.2422 76.2553C35.2422 77.1848 35.9825 77.9383 36.8958 77.9383Z" fill="#D0E2E7"/>
<path d="M36.9148 82.9846C36.3627 82.9841 35.8128 82.9138 35.2778 82.7752C33.5775 82.3364 32.118 81.2282 31.2205 79.6942C30.323 78.1603 30.0609 76.3264 30.4918 74.5957C30.7969 73.3757 31.4322 72.2673 32.3254 71.3964C33.2185 70.5255 34.3338 69.9271 35.5445 69.6691C36.7552 69.4112 38.0127 69.5041 39.1741 69.9372C40.3355 70.3704 41.3542 71.1264 42.1145 72.1195C42.8748 73.1125 43.3461 74.3027 43.475 75.5547C43.6038 76.8068 43.385 78.0705 42.8434 79.2024C42.3018 80.3342 41.4591 81.2887 40.4111 81.9573C39.3631 82.626 38.1518 82.9821 36.9148 82.9851V82.9846ZM36.8962 72.2087C36.0146 72.2113 35.1589 72.5121 34.4638 73.0639C33.7686 73.6157 33.2735 74.3871 33.0564 75.2567C32.8634 76.031 32.9004 76.8462 33.1627 77.5992C33.425 78.3522 33.9007 79.0091 34.5298 79.4868C35.1589 79.9646 35.913 80.2418 36.6969 80.2833C37.4807 80.3248 38.2591 80.1289 38.9335 79.7202C39.6079 79.3115 40.1481 78.7084 40.4858 77.9873C40.8235 77.2661 40.9435 76.4592 40.8306 75.6686C40.7177 74.8781 40.377 74.1393 39.8516 73.5458C39.3262 72.9523 38.6397 72.5307 37.8789 72.3343C37.5577 72.2511 37.2276 72.2089 36.8962 72.2087Z" fill="#44697E"/>
<path d="M83.3384 81.8279C86.2608 81.8279 88.6299 79.4167 88.6299 76.4423C88.6299 73.4679 86.2608 71.0566 83.3384 71.0566C80.416 71.0566 78.0469 73.4679 78.0469 76.4423C78.0469 79.4167 80.416 81.8279 83.3384 81.8279Z" fill="#44697E"/>
<path d="M83.1985 77.9383C84.1118 77.9383 84.8521 77.1848 84.8521 76.2553C84.8521 75.3258 84.1118 74.5723 83.1985 74.5723C82.2853 74.5723 81.5449 75.3258 81.5449 76.2553C81.5449 77.1848 82.2853 77.9383 83.1985 77.9383Z" fill="#D0E2E7"/>
<path d="M83.202 82.9846C82.6499 82.9842 82.0999 82.9138 81.5649 82.7752C79.8646 82.3364 78.4052 81.2282 77.5076 79.6943C76.6101 78.1603 76.348 76.3264 76.7789 74.5958C77.084 73.3757 77.7193 72.2673 78.6124 71.3964C79.5056 70.5255 80.6209 69.9271 81.8316 69.6691C83.0423 69.4112 84.2997 69.5041 85.4611 69.9372C86.6225 70.3703 87.6413 71.1264 88.4015 72.1194C89.1618 73.1124 89.6332 74.3026 89.7621 75.5546C89.8909 76.8067 89.6721 78.0704 89.1305 79.2023C88.589 80.3341 87.7463 81.2886 86.6983 81.9573C85.6503 82.626 84.439 82.9821 83.2021 82.9851L83.202 82.9846ZM83.1831 72.2087C82.3016 72.2112 81.4459 72.5121 80.7508 73.0639C80.0556 73.6157 79.5606 74.3871 79.3435 75.2567C79.1506 76.0311 79.1876 76.8463 79.4499 77.5992C79.7123 78.3522 80.1881 79.0091 80.8172 79.4868C81.4463 79.9645 82.2005 80.2416 82.9843 80.2831C83.7682 80.3246 84.5465 80.1286 85.2209 79.7198C85.8953 79.3111 86.4355 78.7079 86.7731 77.9867C87.1107 77.2655 87.2307 76.4586 87.1177 75.6681C87.0048 74.8775 86.664 74.1388 86.1385 73.5453C85.6131 72.9518 84.9265 72.5303 84.1657 72.334C83.8445 72.2509 83.5145 72.2089 83.1831 72.2087Z" fill="#44697E"/>
<path d="M84.9561 100.205C84.9561 101.366 83.948 102.307 82.7041 102.307H60.3009C59.057 102.307 58.0488 101.366 58.0488 100.205V79.2962C58.0488 78.1353 59.057 77.1943 60.3009 77.1943H82.7041C83.948 77.1943 84.9561 78.1353 84.9561 79.2962V100.205Z" fill="#90D8F9"/>
<path d="M84.9561 98.3917C84.9561 99.63 83.948 100.634 82.7041 100.634H60.3009C59.057 100.634 58.0488 99.63 58.0488 98.3917V76.0887C58.0488 74.8504 59.057 73.8467 60.3009 73.8467H82.7041C83.948 73.8467 84.9561 74.8504 84.9561 76.0887V98.3917Z" fill="#B1E4F9"/>
<path d="M58.0451 80.5439H53V93.9374H58.0451V80.5439Z" fill="#90D8F9"/>
<path d="M58.045 80.5439H56.3633V93.9374H58.045V80.5439Z" fill="#48AFCC"/>
<path d="M90.0002 80.5439H84.9551V93.9374H90.0002V80.5439Z" fill="#90D8F9"/>
<path d="M86.6368 80.5439H84.9551V93.9374H86.6368V80.5439Z" fill="#48AFCC"/>
<path d="M81.5906 77.1943H61.4102V97.2846H81.5906V77.1943Z" fill="white"/>
<path d="M81.5906 77.1943H61.4102V78.8685H81.5906V77.1943Z" fill="#90D8F9"/>
<path d="M71.5013 89.5426L71.5003 89.5443L71.4988 89.5426C70.7295 88.7045 69.4825 88.7045 68.7137 89.5426C67.9444 90.3807 67.9444 91.7392 68.7137 92.5767L71.4988 95.6108L74.2733 92.5883L74.2866 92.5761C75.0559 91.738 75.0559 90.3795 74.2866 89.542C73.5176 88.7051 72.2708 88.7051 71.5013 89.5426Z" fill="#FF0000"/>
<path d="M79.7068 83.35L78.297 80.5439L76.5509 85.1587L75.794 83.3527H75.2819L73.3979 83.35L71.9882 80.5439L70.2421 85.1587L69.4852 83.3527H68.9731L67.0892 83.35L65.6793 80.5439L63.9334 85.1587L63.1765 83.3527H61.4102V84.0549H62.6357L63.9707 87.2407L65.7822 82.454L66.5848 84.0522L67.7189 84.0532V84.0549H68.9446L70.2795 87.2407L72.0909 82.454L72.8935 84.0522L74.0277 84.0532V84.0549H75.2533L76.5883 87.2407L78.3998 82.454L79.2024 84.0522L81.5901 84.0549L81.5906 83.3527L79.7068 83.35Z" fill="#FF0000"/>
<path d="M74.2868 89.5427C73.5175 88.7045 72.2705 88.7045 71.5016 89.5427L71.5 89.5444V95.6108L74.2731 92.5897L74.2863 92.5775C75.0557 91.7395 75.0557 90.3809 74.2868 89.5427Z" fill="#FF003D"/>
</svg>
