<svg width="120" height="120" viewBox="0 0 120 120" fill="none" xmlns="http://www.w3.org/2000/svg">
<circle cx="60" cy="60" r="60" fill="#FFCEDA"/>
<path d="M73.7284 32.8023L70.0165 27.8364C70.0165 27.1824 70.1831 26.5393 70.5005 25.9682C70.8179 25.397 71.2755 24.9167 71.8299 24.5729C72.3842 24.2291 73.017 24.0333 73.6681 24.0039C74.3192 23.9745 74.9669 24.1126 75.5498 24.405L79.9148 26.5949L84.2798 24.405C84.8627 24.1126 85.5105 23.9745 86.1616 24.0039C86.8126 24.0333 87.4454 24.2291 87.9998 24.5729C88.5542 24.9167 89.0118 25.397 89.3292 25.9682C89.6465 26.5393 89.8131 27.1824 89.8131 27.8364L86.1013 32.8023V37.7682L94.5691 51.5751C95.5043 53.1 95.9995 54.8555 95.9996 56.6461C95.9995 59.2123 94.9835 61.6734 93.175 63.488C91.3665 65.3026 88.9137 66.322 86.3561 66.322H73.4729C70.9154 66.3219 68.4628 65.3024 66.6544 63.4878C64.8461 61.6732 63.8301 59.2122 63.8301 56.6461C63.8301 54.8554 64.3253 53.0999 65.2605 51.5749L73.7284 37.7682V32.8023Z" fill="#FF003D"/>
<path d="M81.1523 46.6206V45.2168H78.6777V46.6206C78.0062 46.8319 77.4129 47.2398 76.974 47.7919C76.5351 48.3439 76.2706 49.0149 76.2144 49.7189C76.1583 50.4228 76.313 51.1275 76.6588 51.7426C77.0047 52.3577 77.5258 52.855 78.1553 53.1708L80.568 54.3813C80.7808 54.4881 80.9515 54.664 81.0524 54.8803C81.1533 55.0966 81.1784 55.3408 81.1237 55.5733C81.069 55.8057 80.9377 56.0128 80.751 56.1611C80.5644 56.3093 80.3334 56.39 80.0953 56.39H79.7343C79.4542 56.3897 79.1856 56.2778 78.9875 56.079C78.7894 55.8802 78.678 55.6107 78.6777 55.3296V55.1485H76.2031V55.3296C76.204 56.0839 76.4444 56.8183 76.8894 57.4262C77.3343 58.0342 77.9607 58.4841 78.6777 58.7108V60.1144H81.1523V58.7108C81.8238 58.4994 82.4171 58.0915 82.856 57.5395C83.2949 56.9874 83.5594 56.3164 83.6155 55.6124C83.6716 54.9085 83.5169 54.2038 83.1711 53.5887C82.8253 52.9736 82.3042 52.4763 81.6747 52.1604L79.262 50.95C79.049 50.8432 78.8783 50.6673 78.7773 50.4509C78.6764 50.2346 78.6513 49.9903 78.706 49.7578C78.7607 49.5253 78.892 49.3182 79.0787 49.1699C79.2654 49.0217 79.4966 48.9411 79.7347 48.9411H80.0956C80.3758 48.9415 80.6444 49.0533 80.8424 49.2521C81.0405 49.4509 81.1519 49.7204 81.1523 50.0015V50.1826H83.6269V50.0015C83.6259 49.2472 83.3855 48.5129 82.9406 47.905C82.4956 47.2971 81.8692 46.8472 81.1523 46.6206Z" fill="white"/>
<path d="M86.1016 51.4238H88.5761V53.9068H86.1016V51.4238Z" fill="white"/>
<path d="M73.7285 32.8027H86.1014V37.7687H73.7285V32.8027Z" fill="#FF8D8D"/>
<path d="M40.3223 89.7926V51.3066H70.0172V87.3097L40.3223 89.7926Z" fill="#3EB775"/>
<path d="M63.8318 66.2063H61.3572V62.4818C61.3572 62.1526 61.2269 61.8368 60.9948 61.604C60.7628 61.3711 60.4481 61.2403 60.1199 61.2403H56.4081V57.5159C56.4081 57.1866 56.2777 56.8709 56.0457 56.638C55.8136 56.4052 55.4989 56.2744 55.1708 56.2744H50.2216C49.8935 56.2744 49.5788 56.4052 49.3467 56.638C49.1147 56.8709 48.9843 57.1866 48.9843 57.5159V66.2063H46.5098V68.6892H63.8318V66.2063ZM58.8826 63.7233V66.2063H56.4081V63.7233H58.8826ZM51.4589 58.7574H53.9335V66.2063H51.4589V58.7574Z" fill="#006C40"/>
<path d="M45.2715 72.4121H47.7461V74.8951H45.2715V72.4121Z" fill="#006C40"/>
<path d="M50.2188 72.4121H65.0662V74.8951H50.2188V72.4121Z" fill="#006C40"/>
<path d="M84.329 68.998C81.2489 71.7277 77.5088 73.5983 73.4824 74.423L73.9749 76.8563C78.4261 75.945 82.5611 73.8774 85.9665 70.8603L84.329 68.998Z" fill="white"/>
<path d="M65.4587 26.4142L58.4159 24.0586L57.6336 26.4143L61.4706 27.6975C55.3243 30.6089 50.546 35.8028 48.1445 42.1827L50.4626 43.0517C51.5744 40.0977 53.2613 37.3954 55.4248 35.1024C57.5884 32.8094 60.1854 30.9717 63.0642 29.6963L61.5461 34.2662L63.8938 35.0512L66.2414 27.9845C66.2928 27.8298 66.3133 27.6665 66.3018 27.5039C66.2902 27.3412 66.2469 27.1825 66.1742 27.0366C66.1015 26.8908 66.0009 26.7608 65.8781 26.654C65.7554 26.5472 65.6128 26.4657 65.4587 26.4142Z" fill="white"/>
<path d="M30.4238 76.1367H34.7973C39.0927 76.1367 43.3291 77.1402 47.1711 79.0677C48.2112 79.5895 49.3581 79.8611 50.521 79.8612H60.1187C60.939 79.8612 61.7258 80.1882 62.3059 80.7702C62.886 81.3523 63.2119 82.1417 63.2119 82.9649C63.2119 83.788 62.886 84.5775 62.3059 85.1595C61.7258 85.7416 60.939 86.0686 60.1187 86.0686H60.0424C60.9093 86.0686 61.7672 85.8934 62.5651 85.5535L72.9093 81.1463C73.3111 80.9772 73.7428 80.8908 74.1785 80.8923C74.6143 80.8938 75.0453 80.983 75.446 81.1548C75.8467 81.3266 76.2089 81.5774 76.5112 81.8923C76.8135 82.2072 77.0497 82.5798 77.2058 82.988C77.3687 83.399 77.4491 83.8382 77.4422 84.2805C77.4354 84.7227 77.3415 85.1592 77.1659 85.5649C76.9903 85.9707 76.7366 86.3375 76.4192 86.6445C76.1018 86.9514 75.7271 87.1924 75.3166 87.3535L56.2033 94.6659C51.415 96.4999 46.1113 96.4411 41.3646 94.5014L30.4238 89.9428L25.4746 89.793V76.1367H30.4238Z" fill="#FFE7C6"/>
<path d="M23 74.8955H30.4237V92.2763H23V74.8955Z" fill="#44697E"/>
<path d="M58.8054 84.8281H46.5088C45.8254 84.8281 45.2715 85.384 45.2715 86.0696C45.2715 86.7553 45.8254 87.3111 46.5088 87.3111H58.8054C59.4887 87.3111 60.0427 86.7553 60.0427 86.0696C60.0427 85.384 59.4887 84.8281 58.8054 84.8281Z" fill="#FFD9A5"/>
</svg>
