<svg width="120" height="120" viewBox="0 0 120 120" fill="none" xmlns="http://www.w3.org/2000/svg">
<circle cx="60" cy="60" r="60" fill="#FFCEDA"/>
<path d="M24 34H97V85.9658H24V34Z" fill="#90D8F9"/>
<path d="M91.9662 43.8974V76.0667C90.631 76.0667 89.3504 76.5881 88.4063 77.5162C87.4621 78.4444 86.9317 79.7032 86.9317 81.0158H34.0696C34.0696 79.7032 33.5392 78.4444 32.5951 77.5162C31.6509 76.5881 30.3704 76.0667 29.0352 76.0667V43.8974C30.3704 43.8974 31.6509 43.3759 32.5951 42.4478C33.5392 41.5197 34.0696 40.2608 34.0696 38.9482H86.9317C86.9317 40.2608 87.4621 41.5197 88.4063 42.4478C89.3504 43.3759 90.631 43.8974 91.9662 43.8974Z" fill="white"/>
<path d="M86.9306 82.254H34.0685C33.9032 82.254 33.7395 82.222 33.5868 82.1598C33.4341 82.0976 33.2954 82.0065 33.1785 81.8916C33.0616 81.7767 32.9689 81.6403 32.9057 81.4902C32.8424 81.3401 32.8099 81.1792 32.8099 81.0167C32.8088 80.0326 32.4106 79.0891 31.7027 78.3933C30.9948 77.6974 30.0351 77.306 29.034 77.3049C28.8687 77.3049 28.7051 77.2729 28.5524 77.2107C28.3996 77.1485 28.2609 77.0574 28.144 76.9425C28.0271 76.8276 27.9344 76.6912 27.8712 76.5411C27.8079 76.391 27.7754 76.2301 27.7754 76.0676V43.8983C27.7754 43.7358 27.8079 43.5749 27.8712 43.4248C27.9344 43.2747 28.0271 43.1383 28.144 43.0234C28.2609 42.9085 28.3996 42.8174 28.5524 42.7552C28.7051 42.693 28.8687 42.661 29.034 42.661C30.0351 42.6599 30.9948 42.2685 31.7027 41.5726C32.4106 40.8768 32.8088 39.9333 32.8099 38.9492C32.8099 38.7867 32.8424 38.6258 32.9057 38.4757C32.9689 38.3256 33.0616 38.1892 33.1785 38.0743C33.2954 37.9594 33.4341 37.8683 33.5868 37.8061C33.7395 37.7439 33.9032 37.7119 34.0685 37.7119H86.9306C87.0958 37.7119 87.2595 37.7439 87.4122 37.8061C87.5649 37.8683 87.7037 37.9594 87.8205 38.0743C87.9374 38.1892 88.0301 38.3256 88.0934 38.4757C88.1566 38.6258 88.1892 38.7867 88.1892 38.9492C88.1903 39.9333 88.5885 40.8768 89.2963 41.5726C90.0042 42.2685 90.964 42.6599 91.965 42.661C92.1303 42.661 92.294 42.693 92.4467 42.7552C92.5994 42.8174 92.7382 42.9085 92.855 43.0234C92.9719 43.1383 93.0646 43.2747 93.1279 43.4248C93.1911 43.5749 93.2237 43.7358 93.2237 43.8983V76.0676C93.2237 76.2301 93.1911 76.391 93.1279 76.5411C93.0646 76.6912 92.9719 76.8276 92.855 76.9425C92.7382 77.0574 92.5994 77.1485 92.4467 77.2107C92.294 77.2729 92.1303 77.3049 91.965 77.3049C90.964 77.306 90.0042 77.6974 89.2963 78.3933C88.5885 79.0891 88.1903 80.0326 88.1892 81.0167C88.1892 81.1792 88.1566 81.3401 88.0934 81.4902C88.0301 81.6403 87.9374 81.7767 87.8205 81.8916C87.7037 82.0065 87.5649 82.0976 87.4122 82.1598C87.2595 82.222 87.0958 82.254 86.9306 82.254ZM35.2007 79.7794H85.7984C86.0475 78.5918 86.6451 77.5019 87.5173 76.6444C88.3896 75.787 89.4983 75.1995 90.7064 74.9546V45.0113C89.4983 44.7664 88.3896 44.1789 87.5173 43.3215C86.6451 42.464 86.0475 41.3741 85.7984 40.1865H35.2007C34.9516 41.3741 34.354 42.464 33.4817 43.3215C32.6095 44.1789 31.5008 44.7664 30.2926 45.0113V74.9546C31.5008 75.1995 32.6095 75.787 33.4817 76.6444C34.354 77.5019 34.9516 78.5918 35.2007 79.7794Z" fill="#B1E4F9"/>
<path d="M46.6543 42.6621H74.344V45.1367H46.6543V42.6621Z" fill="#86A0AF"/>
<path d="M41.6211 47.6104H79.3797V50.0849H41.6211V47.6104Z" fill="#86A0AF"/>
<path d="M54.207 52.5596H66.7932V55.0341H54.207V52.5596Z" fill="#FF003D"/>
<path d="M44.1387 57.5078H76.8628V59.9824H44.1387V57.5078Z" fill="#86A0AF"/>
<path d="M51.6895 62.457H69.3101V64.9316H51.6895V62.457Z" fill="#86A0AF"/>
<path d="M60.4993 77.3045C63.2798 77.3045 65.5338 75.0887 65.5338 72.3554C65.5338 69.622 63.2798 67.4062 60.4993 67.4062C57.7189 67.4062 55.4648 69.622 55.4648 72.3554C55.4648 75.0887 57.7189 77.3045 60.4993 77.3045Z" fill="#FFCD00"/>
</svg>
