<svg width="120" height="120" viewBox="0 0 120 120" fill="none" xmlns="http://www.w3.org/2000/svg">
<circle cx="60" cy="60" r="60" fill="#FFCEDA"/>
<path d="M94.4812 24H46.6539C45.2637 24 44.1367 25.127 44.1367 26.5172V94.4822C44.1367 95.8724 45.2637 96.9994 46.6539 96.9994H94.4812C95.8714 96.9994 96.9984 95.8724 96.9984 94.4822V26.5172C96.9984 25.127 95.8714 24 94.4812 24Z" fill="white"/>
<path d="M24 78.1201H29.0344V83.1546H24V78.1201Z" fill="#FF9811"/>
<path d="M66.7931 97.0002C70.2686 97.0002 73.0861 94.1827 73.0861 90.7071C73.0861 87.2316 70.2686 84.4141 66.7931 84.4141C63.3175 84.4141 60.5 87.2316 60.5 90.7071C60.5 94.1827 63.3175 97.0002 66.7931 97.0002Z" fill="#44697E"/>
<path d="M36.586 97.0002C40.0616 97.0002 42.8791 94.1827 42.8791 90.7071C42.8791 87.2316 40.0616 84.4141 36.586 84.4141C33.1105 84.4141 30.293 87.2316 30.293 90.7071C30.293 94.1827 33.1105 97.0002 36.586 97.0002Z" fill="#44697E"/>
<path d="M51.6895 73.085V90.7055H42.8792C42.8792 89.0365 42.2162 87.4358 41.036 86.2557C39.8558 85.0755 38.2551 84.4125 36.5861 84.4125C34.9171 84.4125 33.3164 85.0755 32.1363 86.2557C30.9561 87.4358 30.2931 89.0365 30.2931 90.7055H25.2586C24.9248 90.7055 24.6047 90.5729 24.3686 90.3369C24.1326 90.1008 24 89.7807 24 89.4469V83.1538H29.0344V78.1194H24V74.3436C24 74.0098 24.1326 73.6896 24.3686 73.4536C24.6047 73.2176 24.9248 73.085 25.2586 73.085H51.6895Z" fill="#B1E4F9"/>
<path d="M63.017 65.5342L68.0514 73.0858H51.6895V65.5342H63.017Z" fill="#D0E2E7"/>
<path d="M44.1363 65.5342H42.6259L36.9622 72.6076C36.845 72.7559 36.6959 72.8759 36.5259 72.9587C36.3559 73.0415 36.1695 73.085 35.9805 73.0858H51.6879V65.5342H44.1363Z" fill="#EEF6F9"/>
<path d="M79.3804 74.3447V89.4481C79.3804 89.7819 79.2478 90.102 79.0117 90.338C78.7757 90.5741 78.4556 90.7067 78.1218 90.7067H73.0873C73.0873 89.0376 72.4243 87.437 71.2441 86.2568C70.0639 85.0766 68.4633 84.4136 66.7943 84.4136C65.1252 84.4136 63.5246 85.0766 62.3444 86.2568C61.1642 87.437 60.5012 89.0376 60.5012 90.7067H51.6909V73.0861H68.0529L63.0184 65.5344H42.6289L44.1392 63.6465L45.9013 61.444C46.1374 61.1501 46.4363 60.9128 46.776 60.7494C47.1158 60.5861 47.4878 60.5009 47.8647 60.5H64.2267C64.6309 60.5017 65.029 60.5997 65.3879 60.7857C65.7468 60.9717 66.0563 61.2405 66.2908 61.5698L73.9683 72.5449C74.084 72.7116 74.2383 72.8479 74.418 72.9422C74.5977 73.0364 74.7975 73.0858 75.0004 73.0861H78.1218C78.4556 73.0861 78.7757 73.2187 79.0117 73.4547C79.2478 73.6908 79.3804 74.0109 79.3804 74.3447Z" fill="#90D8F9"/>
<path d="M52.5317 47.7306C51.4962 47.0416 50.6473 46.1071 50.0607 45.0104C49.4742 43.9136 49.1681 42.6888 49.1699 41.4451V29.0352H69.3077V41.4451C69.3095 42.6888 69.0035 43.9136 68.4169 45.0104C67.8303 46.1071 66.9814 47.0416 65.9459 47.7306L59.2388 52.1936L52.5317 47.7306Z" fill="#FFCDCD"/>
<path d="M51.6895 41.4444V31.5518H66.7928V41.4444C66.7933 42.2735 66.5891 43.0899 66.1983 43.821C65.8075 44.5522 65.2421 45.1755 64.5525 45.6356L59.2411 49.1723L53.9298 45.6356C53.2401 45.1755 52.6748 44.5522 52.284 43.821C51.8931 43.0899 51.6889 42.2735 51.6895 41.4444Z" fill="#FF0000"/>
<path d="M91.9638 24V36.5861L88.1879 31.5517L84.4121 36.5861V24H91.9638Z" fill="#FF003D"/>
<path d="M44.1365 90.706H42.8779C42.8779 89.0369 42.2149 87.4363 41.0347 86.2561C39.8546 85.0759 38.2539 84.4129 36.5849 84.4129C34.9158 84.4129 33.3152 85.0759 32.135 86.2561C30.9548 87.4363 30.2918 89.0369 30.2918 90.706H29.0332C29.0332 88.7031 29.8288 86.7823 31.245 85.3661C32.6612 83.9499 34.582 83.1543 36.5849 83.1543C38.5877 83.1543 40.5085 83.9499 41.9247 85.3661C43.3409 86.7823 44.1365 88.7031 44.1365 90.706Z" fill="#FFCEDA"/>
<path d="M74.3436 90.706H73.085C73.085 89.0369 72.4219 87.4363 71.2418 86.2561C70.0616 85.0759 68.4609 84.4129 66.7919 84.4129C65.1229 84.4129 63.5222 85.0759 62.342 86.2561C61.1619 87.4363 60.4988 89.0369 60.4988 90.706H59.2402C59.2402 88.7031 60.0359 86.7823 61.4521 85.3661C62.8683 83.9499 64.7891 83.1543 66.7919 83.1543C68.7947 83.1543 70.7155 83.9499 72.1317 85.3661C73.548 86.7823 74.3436 88.7031 74.3436 90.706Z" fill="white"/>
<path d="M42.877 76.8613H47.9114V79.3786H42.877V76.8613Z" fill="#86A0AF"/>
<path d="M63.0176 76.8613H68.052V79.3786H63.0176V76.8613Z" fill="#86A0AF"/>
<path d="M65.5332 89.4482H68.0504V91.9655H65.5332V89.4482Z" fill="#D0E2E7"/>
<path d="M35.3281 89.4482H37.8453V91.9655H35.3281V89.4482Z" fill="#D0E2E7"/>
<path d="M57.9813 42.8782C57.6475 42.8781 57.3274 42.7455 57.0914 42.5094L54.5742 39.9922L56.3539 38.2125L57.9813 39.8399L62.1259 35.6953L63.9056 37.475L58.8711 42.5094C58.6351 42.7455 58.3151 42.8781 57.9813 42.8782Z" fill="white"/>
<path d="M73.084 47.9141H88.1873V50.4313H73.084V47.9141Z" fill="#86A0AF"/>
<path d="M73.084 42.8789H78.1184V45.3961H73.084V42.8789Z" fill="#86A0AF"/>
<path d="M80.6367 42.8789H88.1884V45.3961H80.6367V42.8789Z" fill="#86A0AF"/>
<path d="M52.9473 52.9473H88.1884V55.4645H52.9473V52.9473Z" fill="#86A0AF"/>
<path d="M78.1211 57.9824H88.19V60.4996H78.1211V57.9824Z" fill="#86A0AF"/>
<path d="M70.5703 57.9824H75.6048V60.4996H70.5703V57.9824Z" fill="#86A0AF"/>
<path d="M73.084 63.0156H88.1873V65.5328H73.084V63.0156Z" fill="#86A0AF"/>
</svg>
